G75*
G70*
%OFA0B0*%
%FSLAX24Y24*%
%IPPOS*%
%LPD*%
%AMOC8*
5,1,8,0,0,1.08239X$1,22.5*
%
%ADD10R,0.0472X0.0118*%
%ADD11R,0.0217X0.0472*%
%ADD12O,0.0660X0.1320*%
%ADD13C,0.0520*%
%ADD14R,0.0800X0.0260*%
%ADD15R,0.0591X0.0512*%
%ADD16OC8,0.0520*%
%ADD17O,0.0520X0.1040*%
%ADD18R,0.0512X0.0591*%
%ADD19R,0.0945X0.1102*%
%ADD20C,0.4500*%
%ADD21C,0.3500*%
%ADD22R,0.0315X0.0315*%
%ADD23C,0.0400*%
%ADD24C,0.0160*%
%ADD25C,0.0400*%
%ADD26C,0.0120*%
%ADD27C,0.0240*%
%ADD28C,0.0320*%
%ADD29R,0.0480X0.0480*%
%ADD30R,0.0400X0.0400*%
D10*
X009690Y010145D03*
X009690Y010401D03*
X009690Y010657D03*
X009690Y010913D03*
X009690Y011169D03*
X009690Y011425D03*
X009690Y011681D03*
X011974Y011681D03*
X011974Y011425D03*
X011974Y011169D03*
X011974Y010913D03*
X011974Y010657D03*
X011974Y010401D03*
X011974Y010145D03*
D11*
X017307Y013901D03*
X018055Y013901D03*
X018055Y014925D03*
X017681Y014925D03*
X017307Y014925D03*
D12*
X019434Y014413D03*
X020434Y014413D03*
X021434Y014413D03*
D13*
X013587Y011702D03*
X013587Y010702D03*
X011931Y008913D03*
X010931Y008913D03*
X008181Y007413D03*
D14*
X007141Y014913D03*
X007141Y015413D03*
X007141Y015913D03*
X007141Y016413D03*
X004721Y016413D03*
X004721Y015913D03*
X004721Y015413D03*
X004721Y014913D03*
D15*
X007181Y013748D03*
X007181Y013079D03*
X008681Y015329D03*
X008681Y015998D03*
X008181Y017329D03*
X008181Y017998D03*
X009681Y019579D03*
X009681Y020248D03*
X010931Y020248D03*
X010931Y019579D03*
X011931Y019579D03*
X011931Y020248D03*
X013681Y020248D03*
X013681Y019579D03*
X018181Y017748D03*
X018181Y017079D03*
X019181Y017079D03*
X020181Y017079D03*
X021181Y017079D03*
X021181Y017748D03*
X020181Y017748D03*
X019181Y017748D03*
X009181Y007248D03*
X009181Y006579D03*
D16*
X016178Y019913D03*
X015428Y020413D03*
X016178Y020913D03*
D17*
X009181Y004913D03*
X010181Y004913D03*
X011181Y004913D03*
X010681Y016163D03*
X009681Y016163D03*
X011681Y016163D03*
D18*
X011016Y012913D03*
X010347Y012913D03*
X008015Y010905D03*
X007345Y010905D03*
X005016Y012913D03*
X004347Y012913D03*
X010597Y007663D03*
X011266Y007663D03*
X019347Y019413D03*
X020016Y019413D03*
X010517Y023163D03*
X009847Y023163D03*
D19*
X009940Y021663D03*
X012421Y021663D03*
X011922Y018163D03*
X013691Y018163D03*
X016172Y018163D03*
X009441Y018163D03*
X013691Y008163D03*
X016172Y008163D03*
D20*
X016108Y004089D03*
X005167Y009026D03*
X024963Y014633D03*
X018242Y024566D03*
X006117Y021555D03*
D21*
X011681Y025163D03*
X022681Y020413D03*
X014278Y014633D03*
D22*
X009181Y009209D03*
X009181Y008618D03*
D23*
X012681Y009413D03*
X013681Y009913D03*
X012681Y012413D03*
X009681Y013913D03*
X008681Y012913D03*
X004681Y013913D03*
X004681Y017413D03*
X005931Y017413D03*
D24*
X004681Y017413D02*
X004681Y016413D01*
X004721Y016413D01*
X004721Y015913D02*
X006181Y015913D01*
X006181Y015413D01*
X007141Y015413D01*
X007181Y015413D01*
X007181Y014913D02*
X007141Y014913D01*
X004347Y012913D02*
X004319Y012893D01*
X010181Y012913D02*
X010347Y012913D01*
X013691Y008163D02*
X015181Y009413D01*
X017301Y009394D01*
X017301Y013885D01*
X018055Y013901D02*
X018055Y014413D01*
X016681Y014413D01*
X016681Y016913D01*
X015181Y016913D01*
X013681Y018163D01*
X011931Y019579D02*
X011681Y019413D01*
X010931Y019579D02*
X010766Y019413D01*
X010347Y019413D01*
X009681Y019579D01*
X009681Y019413D01*
X008181Y019413D01*
X007431Y018663D01*
X007181Y017913D02*
X008181Y017913D01*
X008181Y017998D01*
X007181Y017913D02*
X007181Y017413D01*
X011931Y020248D02*
X012181Y020413D01*
X013681Y020413D02*
X013681Y020248D01*
X012431Y021663D02*
X012421Y021663D01*
X010681Y023163D02*
X010517Y023163D01*
X009847Y023163D02*
X009681Y022913D01*
X009681Y021663D02*
X009940Y021663D01*
X009681Y021413D01*
X006181Y021413D02*
X006117Y021555D01*
X017181Y016413D02*
X017181Y015913D01*
X017307Y014925D01*
X017681Y014925D02*
X017681Y015913D01*
X019431Y015913D01*
X019431Y014413D01*
X018681Y015413D02*
X018055Y015413D01*
X018055Y014925D01*
X018681Y015413D02*
X018681Y012913D01*
X021431Y012913D01*
X021431Y014413D01*
X021181Y016413D02*
X020181Y016413D01*
X020181Y017079D01*
X020181Y016663D01*
X020181Y016413D02*
X019181Y016413D01*
X019181Y017079D01*
X019181Y016413D02*
X018181Y016413D01*
X018181Y017079D01*
X018181Y016413D02*
X017181Y016413D01*
X019181Y017748D02*
X019181Y018163D01*
X018181Y018163D01*
X019347Y019413D02*
X019347Y020748D01*
X019181Y020913D01*
X020016Y019413D02*
X020181Y019413D01*
X020681Y018913D01*
X021181Y018913D01*
X022681Y020413D01*
X021181Y018913D02*
X021181Y017748D01*
X021181Y018163D01*
X020181Y018163D01*
X020181Y017748D01*
X021181Y017748D02*
X021181Y017663D01*
X021181Y017079D02*
X021181Y016663D01*
X021181Y016413D01*
X005167Y009026D02*
X005181Y008913D01*
X016108Y004089D02*
X016181Y003913D01*
X016681Y004413D01*
D25*
X016681Y007653D01*
X016172Y008163D01*
X007345Y010905D02*
X005181Y008913D01*
X013681Y018163D02*
X013691Y018163D01*
X009681Y021413D02*
X006181Y021413D01*
X010517Y023163D02*
X011681Y025163D01*
X010681Y023163D02*
X012421Y021663D01*
X018181Y024413D02*
X018242Y024566D01*
D26*
X009681Y018413D02*
X009441Y018163D01*
X008181Y017329D02*
X008681Y015998D01*
X008181Y015913D01*
X007141Y015913D01*
X007141Y016413D02*
X007181Y017413D01*
X005931Y017413D01*
X007431Y018663D02*
X004181Y018663D01*
X003181Y016663D01*
X003181Y013675D01*
X003181Y012163D01*
X005681Y012163D01*
X006181Y011663D01*
X008431Y011663D01*
X008931Y010913D01*
X009681Y010913D01*
X009690Y010913D01*
X009690Y011169D02*
X010556Y011169D01*
X010578Y011167D01*
X010599Y011161D01*
X010619Y011152D01*
X010636Y011140D01*
X010652Y011124D01*
X010664Y011106D01*
X010673Y011087D01*
X010679Y011066D01*
X010681Y011044D01*
X010681Y009913D01*
X010181Y009413D01*
X010181Y007913D01*
X010681Y007413D01*
X010597Y007663D01*
X011266Y007663D02*
X013681Y007663D01*
X013691Y008163D01*
X012681Y009413D02*
X012681Y010663D01*
X011931Y010663D01*
X011974Y010657D01*
X011973Y010660D01*
X011971Y010662D01*
X011968Y010663D01*
X011931Y010663D01*
X011116Y010663D01*
X011096Y010665D01*
X011078Y010671D01*
X011060Y010680D01*
X011045Y010692D01*
X011033Y010707D01*
X011024Y010725D01*
X011018Y010743D01*
X011016Y010763D01*
X011016Y012913D01*
X010347Y012913D02*
X009681Y012413D01*
X009681Y011913D01*
X009690Y011681D01*
X009690Y011425D02*
X009181Y011413D01*
X008681Y012163D01*
X006431Y012163D01*
X005681Y012913D01*
X005016Y012913D01*
X004347Y012913D02*
X003681Y012913D01*
X003681Y015413D01*
X004721Y015413D01*
X004721Y014913D02*
X004681Y013913D01*
X003181Y013675D02*
X003181Y012413D01*
X007181Y012913D02*
X008681Y012913D01*
X009681Y013913D02*
X010181Y012913D01*
X011974Y011681D02*
X012681Y011681D01*
X012681Y012413D01*
X013181Y011413D02*
X013587Y011702D01*
X013181Y011413D02*
X011974Y011425D01*
X011974Y011169D02*
X013181Y011163D01*
X013587Y010702D01*
X012931Y010913D02*
X012931Y009913D01*
X013681Y009913D01*
X012931Y010913D02*
X012681Y010913D01*
X011974Y010913D01*
X011962Y010413D02*
X011181Y010413D01*
X011181Y009413D01*
X010931Y009163D01*
X010931Y008913D01*
X011931Y008913D02*
X011974Y008913D01*
X011974Y010145D01*
X011974Y010401D02*
X011962Y010413D01*
X012681Y010913D02*
X012681Y010913D01*
X012681Y010913D01*
X012681Y010913D01*
X009690Y010657D02*
X008204Y010661D01*
X008015Y010905D01*
X008681Y010413D02*
X008181Y009913D01*
X008181Y007413D01*
X009181Y007248D02*
X009181Y008618D01*
X009181Y009209D02*
X009181Y010163D01*
X009431Y010163D01*
X009450Y010145D01*
X009690Y010145D01*
X009690Y010401D02*
X009690Y010413D01*
X008681Y010413D01*
X007181Y012913D02*
X007181Y013079D01*
X007181Y013748D02*
X007181Y014913D01*
X007181Y015413D02*
X008181Y015413D01*
X008681Y015329D01*
X014278Y014633D02*
X014431Y014663D01*
X017301Y013885D02*
X017307Y013901D01*
X019431Y014413D02*
X019434Y014413D01*
X021431Y014413D02*
X021434Y014413D01*
X022681Y012413D02*
X018181Y012413D01*
X018181Y005913D01*
X022681Y005913D01*
X022681Y012413D01*
X022681Y012386D02*
X018181Y012386D01*
X018181Y012268D02*
X022681Y012268D01*
X022681Y012149D02*
X018181Y012149D01*
X018181Y012030D02*
X022681Y012030D01*
X022681Y011912D02*
X018181Y011912D01*
X018181Y011793D02*
X022681Y011793D01*
X022681Y011675D02*
X018181Y011675D01*
X018181Y011556D02*
X022681Y011556D01*
X022681Y011438D02*
X018181Y011438D01*
X018181Y011319D02*
X022681Y011319D01*
X022681Y011201D02*
X018181Y011201D01*
X018181Y011082D02*
X022681Y011082D01*
X022681Y010964D02*
X018181Y010964D01*
X018181Y010845D02*
X022681Y010845D01*
X022681Y010726D02*
X018181Y010726D01*
X018181Y010608D02*
X022681Y010608D01*
X022681Y010489D02*
X018181Y010489D01*
X018181Y010371D02*
X022681Y010371D01*
X022681Y010252D02*
X018181Y010252D01*
X018181Y010134D02*
X022681Y010134D01*
X022681Y010015D02*
X018181Y010015D01*
X018181Y009897D02*
X022681Y009897D01*
X022681Y009778D02*
X018181Y009778D01*
X018181Y009660D02*
X022681Y009660D01*
X022681Y009541D02*
X018181Y009541D01*
X018181Y009423D02*
X022681Y009423D01*
X022681Y009304D02*
X018181Y009304D01*
X018181Y009185D02*
X022681Y009185D01*
X022681Y009067D02*
X018181Y009067D01*
X018181Y008948D02*
X022681Y008948D01*
X022681Y008830D02*
X018181Y008830D01*
X018181Y008711D02*
X022681Y008711D01*
X022681Y008593D02*
X020728Y008593D01*
X020654Y008623D02*
X020213Y008623D01*
X019805Y008454D01*
X019493Y008142D01*
X019324Y007734D01*
X019324Y007292D01*
X019493Y006885D01*
X019805Y006572D01*
X020213Y006403D01*
X020654Y006403D01*
X021062Y006572D01*
X021375Y006885D01*
X021544Y007292D01*
X021544Y007734D01*
X021375Y008142D01*
X021062Y008454D01*
X020654Y008623D01*
X021014Y008474D02*
X022681Y008474D01*
X022681Y008356D02*
X021161Y008356D01*
X021280Y008237D02*
X022681Y008237D01*
X022681Y008119D02*
X021384Y008119D01*
X021434Y008000D02*
X022681Y008000D01*
X022681Y007881D02*
X021483Y007881D01*
X021532Y007763D02*
X022681Y007763D01*
X022681Y007644D02*
X021544Y007644D01*
X021544Y007526D02*
X022681Y007526D01*
X022681Y007407D02*
X021544Y007407D01*
X021542Y007289D02*
X022681Y007289D01*
X022681Y007170D02*
X021493Y007170D01*
X021444Y007052D02*
X022681Y007052D01*
X022681Y006933D02*
X021395Y006933D01*
X021305Y006815D02*
X022681Y006815D01*
X022681Y006696D02*
X021186Y006696D01*
X021068Y006577D02*
X022681Y006577D01*
X022681Y006459D02*
X020789Y006459D01*
X020079Y006459D02*
X018181Y006459D01*
X018181Y006577D02*
X019800Y006577D01*
X019681Y006696D02*
X018181Y006696D01*
X018181Y006815D02*
X019563Y006815D01*
X019473Y006933D02*
X018181Y006933D01*
X018181Y007052D02*
X019423Y007052D01*
X019374Y007170D02*
X018181Y007170D01*
X018181Y007289D02*
X019325Y007289D01*
X019324Y007407D02*
X018181Y007407D01*
X018181Y007526D02*
X019324Y007526D01*
X019324Y007644D02*
X018181Y007644D01*
X018181Y007763D02*
X019336Y007763D01*
X019385Y007881D02*
X018181Y007881D01*
X018181Y008000D02*
X019434Y008000D01*
X019483Y008119D02*
X018181Y008119D01*
X018181Y008237D02*
X019588Y008237D01*
X019706Y008356D02*
X018181Y008356D01*
X018181Y008474D02*
X019853Y008474D01*
X020139Y008593D02*
X018181Y008593D01*
X018181Y006340D02*
X022681Y006340D01*
X022681Y006222D02*
X018181Y006222D01*
X018181Y006103D02*
X022681Y006103D01*
X022681Y005985D02*
X018181Y005985D01*
X009181Y006579D02*
X009181Y004913D01*
D27*
X008681Y014663D02*
X014431Y014663D01*
X011681Y016163D02*
X013681Y018163D01*
X012681Y018413D02*
X012681Y020413D01*
X013681Y020413D01*
X014931Y020413D01*
X015428Y020413D01*
X014931Y020413D02*
X014931Y020413D01*
X015681Y019413D02*
X016181Y019913D01*
X016178Y019913D01*
X015681Y019413D02*
X013788Y019413D01*
X013681Y019520D01*
X012681Y020413D02*
X012181Y020413D01*
X010931Y020248D02*
X012431Y021663D01*
X012421Y021663D02*
X015681Y021663D01*
X015681Y021665D02*
X016178Y020913D01*
X012681Y018413D02*
X011922Y018163D01*
X010681Y018413D02*
X011681Y019413D01*
X010681Y018413D02*
X009681Y018413D01*
X008181Y017998D01*
X009441Y018163D02*
X009681Y015913D01*
X008681Y015329D02*
X008681Y014663D01*
X009681Y020248D02*
X009681Y021413D01*
X009681Y021663D02*
X009681Y022913D01*
D28*
X013681Y019579D02*
X013681Y019520D01*
X013681Y018163D01*
X016172Y018163D02*
X018181Y018163D01*
X018181Y024413D01*
X018181Y018163D02*
X018181Y017748D01*
D29*
X015431Y011913D03*
X015431Y010413D03*
D30*
X019181Y020913D03*
M02*
