%
M48
M72
T01C0.0240
T02C0.0320
T03C0.0440
T04C0.1300
T05C0.1400
T06C0.1950
%
T01
X12681Y9413
X13681Y9913
X12681Y12413
X9681Y13913
X8681Y12913
X4681Y13913
X4681Y17413
X5931Y17413
X19181Y20913
T02
X9181Y4913
X10181Y4913
X11181Y4913
X8181Y7413
X10931Y8913
X11931Y8913
X13587Y10702
X13587Y11702
X15431Y11913
X15431Y10413
X11681Y16163
X10681Y16163
X9681Y16163
X16178Y19913
X15428Y20413
X16178Y20913
T03
X19434Y14413
X20434Y14413
X21434Y14413
T04
X20434Y7513
T05
X14278Y14633
X22681Y20413
X11681Y25163
T06
X6117Y21555
X18242Y24566
X24963Y14633
X16108Y4089
X5167Y9026
M30
