G75*
G70*
%OFA0B0*%
%FSLAX24Y24*%
%IPPOS*%
%LPD*%
%AMOC8*
5,1,8,0,0,1.08239X$1,22.5*
%
%ADD10C,0.0100*%
%ADD11C,0.0010*%
%ADD12C,0.0030*%
%ADD13C,0.0040*%
%ADD14C,0.0060*%
%ADD15C,0.0050*%
%ADD16C,0.0000*%
D10*
X000927Y014633D02*
X000982Y015847D01*
X001148Y017051D01*
X001422Y018234D01*
X001803Y019388D01*
X002287Y020503D01*
X002870Y021568D01*
X003548Y022577D01*
X004315Y023519D01*
X005164Y024388D01*
X006089Y025176D01*
X007082Y025877D01*
X008134Y026484D01*
X009237Y026994D01*
X010382Y027401D01*
X011559Y027702D01*
X012759Y027895D01*
X013971Y027978D01*
X015186Y027950D01*
X016393Y027812D01*
X017583Y027565D01*
X018745Y027210D01*
X019870Y026752D01*
X020949Y026193D01*
X021973Y025538D01*
X022932Y024793D01*
X023820Y023963D01*
X024629Y023057D01*
X025352Y022080D01*
X025984Y021042D01*
X026518Y019951D01*
X026951Y018816D01*
X027279Y017646D01*
X027499Y016451D01*
X027609Y015241D01*
X027609Y014025D01*
X027499Y012815D01*
X027279Y011620D01*
X026951Y010450D01*
X026518Y009315D01*
X025984Y008224D01*
X025352Y007186D01*
X024629Y006209D01*
X023820Y005303D01*
X022932Y004473D01*
X021973Y003728D01*
X020949Y003073D01*
X019870Y002514D01*
X018745Y002056D01*
X017583Y001701D01*
X016393Y001454D01*
X015186Y001316D01*
X013971Y001288D01*
X012759Y001371D01*
X011559Y001564D01*
X010382Y001865D01*
X009237Y002272D01*
X008134Y002782D01*
X007082Y003389D01*
X006089Y004090D01*
X005164Y004878D01*
X004315Y005747D01*
X003548Y006689D01*
X002870Y007698D01*
X002287Y008763D01*
X001803Y009878D01*
X001422Y011032D01*
X001148Y012215D01*
X000982Y013419D01*
X000927Y014633D01*
D11*
X000896Y014632D02*
X000951Y015849D01*
X001117Y017055D01*
X001392Y018241D01*
X001774Y019398D01*
X002259Y020515D01*
X002844Y021583D01*
X003523Y022594D01*
X004292Y023538D01*
X005143Y024409D01*
X006070Y025199D01*
X007065Y025901D01*
X008119Y026510D01*
X009225Y027021D01*
X010372Y027428D01*
X011552Y027730D01*
X012755Y027923D01*
X013969Y028007D01*
X015187Y027979D01*
X016397Y027840D01*
X017589Y027593D01*
X018754Y027238D01*
X019882Y026778D01*
X020963Y026218D01*
X021989Y025561D01*
X022951Y024815D01*
X023841Y023983D01*
X024651Y023075D01*
X025376Y022096D01*
X026009Y021056D01*
X026544Y019962D01*
X026978Y018824D01*
X027307Y017651D01*
X027527Y016454D01*
X027638Y015241D01*
X027638Y014023D01*
X027527Y012810D01*
X027307Y011613D01*
X026978Y010440D01*
X026544Y009302D01*
X026009Y008208D01*
X025376Y007168D01*
X024651Y006189D01*
X023841Y005281D01*
X022951Y004449D01*
X021989Y003703D01*
X020963Y003046D01*
X019882Y002486D01*
X018754Y002026D01*
X017589Y001671D01*
X016397Y001424D01*
X015187Y001285D01*
X013969Y001257D01*
X012755Y001341D01*
X011552Y001534D01*
X010372Y001836D01*
X009225Y002243D01*
X008119Y002754D01*
X007065Y003363D01*
X006070Y004065D01*
X005143Y004855D01*
X004292Y005726D01*
X003523Y006670D01*
X002844Y007681D01*
X002259Y008749D01*
X001774Y009866D01*
X001392Y011023D01*
X001117Y012209D01*
X000951Y013415D01*
X000896Y014632D01*
D12*
X008781Y005313D02*
X008781Y004513D01*
X009581Y004513D01*
X009581Y005313D01*
X008781Y005313D01*
X009181Y005313D02*
X009181Y004913D01*
X009781Y004513D02*
X009781Y005313D01*
X010581Y005313D01*
X010581Y004513D01*
X009781Y004513D01*
X010181Y004913D02*
X010181Y005313D01*
X010781Y005313D02*
X010781Y004513D01*
X011581Y004513D01*
X011581Y005313D01*
X010781Y005313D01*
X011181Y005313D02*
X011181Y004913D01*
X008581Y007013D02*
X007781Y007013D01*
X007781Y007813D01*
X008581Y007813D01*
X008581Y007013D01*
X008181Y007413D02*
X008181Y007813D01*
X010531Y008513D02*
X010531Y009313D01*
X011331Y009313D01*
X011331Y008513D01*
X010531Y008513D01*
X010931Y008913D02*
X010931Y009313D01*
X011531Y009313D02*
X011531Y008513D01*
X012331Y008513D01*
X012331Y009313D01*
X011531Y009313D01*
X011931Y009313D02*
X011931Y008913D01*
X012281Y009413D02*
X012681Y009013D01*
X012681Y009813D01*
X013081Y009413D01*
X012281Y009413D01*
X013281Y009913D02*
X013681Y009513D01*
X013681Y010313D01*
X014081Y009913D01*
X013281Y009913D01*
X013187Y010301D02*
X013187Y011101D01*
X013987Y011101D01*
X013987Y010301D01*
X013187Y010301D01*
X013587Y010701D02*
X013587Y011101D01*
X013987Y011301D02*
X013187Y011301D01*
X013187Y012101D01*
X013987Y012101D01*
X013987Y011301D01*
X013587Y011701D02*
X013587Y012101D01*
X013081Y012413D02*
X012681Y012813D01*
X012681Y012013D01*
X012281Y012413D01*
X013081Y012413D01*
X015031Y012313D02*
X015031Y011513D01*
X015831Y011513D01*
X015831Y012313D01*
X015031Y012313D01*
X015431Y012313D02*
X015431Y011913D01*
X015431Y010813D02*
X015431Y010413D01*
X015031Y010013D02*
X015031Y010813D01*
X015831Y010813D01*
X015831Y010013D01*
X015031Y010013D01*
X020033Y007913D02*
X020833Y007113D01*
X020033Y007113D02*
X020833Y007913D01*
X016508Y004088D02*
X016108Y004488D01*
X015708Y004088D01*
X016108Y003688D01*
X016508Y004088D01*
X016108Y004088D02*
X016108Y004488D01*
X005566Y009025D02*
X005166Y008625D01*
X004766Y009025D01*
X005166Y009425D01*
X005566Y009025D01*
X005166Y009025D02*
X005166Y009425D01*
X008281Y012913D02*
X008681Y012513D01*
X008681Y013313D01*
X009081Y012913D01*
X008281Y012913D01*
X009281Y013913D02*
X009681Y013513D01*
X009681Y014313D01*
X010081Y013913D01*
X009281Y013913D01*
X009281Y015763D02*
X009281Y016563D01*
X010081Y016563D01*
X010081Y015763D01*
X009281Y015763D01*
X009681Y016163D02*
X009681Y016563D01*
X010281Y016563D02*
X010281Y015763D01*
X011081Y015763D01*
X011081Y016563D01*
X010281Y016563D01*
X010681Y016563D02*
X010681Y016163D01*
X011281Y015763D02*
X011281Y016563D01*
X012081Y016563D01*
X012081Y015763D01*
X011281Y015763D01*
X011681Y016163D02*
X011681Y016563D01*
X013877Y015032D02*
X014677Y014232D01*
X013877Y014232D01*
X014677Y015032D01*
X013877Y015032D01*
X019033Y014413D02*
X019833Y014413D01*
X020033Y014413D02*
X020833Y014413D01*
X021033Y014413D02*
X021833Y014413D01*
X021433Y014813D02*
X021433Y014013D01*
X020433Y014013D02*
X020433Y014813D01*
X019433Y014813D02*
X019433Y014013D01*
X024562Y014633D02*
X024962Y014233D01*
X025362Y014633D01*
X024962Y015033D01*
X024562Y014633D01*
X024962Y014633D02*
X024962Y015033D01*
X023081Y020013D02*
X022281Y020013D01*
X023081Y020813D01*
X022281Y020813D01*
X023081Y020013D01*
X019581Y020913D02*
X019181Y021313D01*
X019181Y020513D01*
X018781Y020913D01*
X019581Y020913D01*
X016577Y020513D02*
X015777Y020513D01*
X015777Y021313D01*
X016577Y021313D01*
X016577Y020513D01*
X016577Y020313D02*
X016577Y019513D01*
X015777Y019513D01*
X015777Y020313D01*
X016577Y020313D01*
X016177Y020313D02*
X016177Y019913D01*
X015827Y020013D02*
X015027Y020013D01*
X015027Y020813D01*
X015827Y020813D01*
X015827Y020013D01*
X015427Y020413D02*
X015427Y020813D01*
X016177Y020913D02*
X016177Y021313D01*
X018242Y024166D02*
X018642Y024566D01*
X018242Y024966D01*
X017842Y024566D01*
X018242Y024166D01*
X018242Y024566D02*
X018242Y024966D01*
X012081Y024763D02*
X011281Y024763D01*
X012081Y025563D01*
X011281Y025563D01*
X012081Y024763D01*
X006516Y021555D02*
X006116Y021955D01*
X005716Y021555D01*
X006116Y021155D01*
X006516Y021555D01*
X006116Y021555D02*
X006116Y021955D01*
X005931Y017813D02*
X005931Y017013D01*
X005531Y017413D01*
X006331Y017413D01*
X005931Y017813D01*
X005081Y017413D02*
X004681Y017813D01*
X004681Y017013D01*
X004281Y017413D01*
X005081Y017413D01*
X004681Y014313D02*
X004681Y013513D01*
X004281Y013913D01*
X005081Y013913D01*
X004681Y014313D01*
X029915Y007931D02*
X030315Y007531D01*
X030715Y007931D01*
X030315Y008331D01*
X029915Y007931D01*
X030315Y007931D02*
X030315Y008331D01*
X029915Y007031D02*
X030715Y006231D01*
X029915Y006231D01*
X030715Y007031D01*
X029915Y007031D01*
X029915Y005731D02*
X030715Y004931D01*
X030315Y004431D02*
X030315Y003631D01*
X029915Y004031D02*
X030715Y004031D01*
X030715Y003131D02*
X029915Y003131D01*
X029915Y002331D01*
X030715Y002331D01*
X030715Y003131D01*
X030315Y003131D02*
X030315Y002731D01*
X030315Y001831D02*
X030315Y001031D01*
X029915Y001431D01*
X030715Y001431D01*
X030315Y001831D01*
X029915Y004931D02*
X030715Y005731D01*
D13*
X031836Y005485D02*
X031913Y005561D01*
X032066Y005561D01*
X032143Y005485D01*
X032143Y005408D01*
X032066Y005331D01*
X032143Y005254D01*
X032143Y005178D01*
X032066Y005101D01*
X031913Y005101D01*
X031836Y005178D01*
X031989Y005331D02*
X032066Y005331D01*
X032296Y005178D02*
X032373Y005178D01*
X032373Y005101D01*
X032296Y005101D01*
X032296Y005178D01*
X032526Y005178D02*
X032603Y005101D01*
X032757Y005101D01*
X032833Y005178D01*
X032833Y005254D01*
X032757Y005331D01*
X032680Y005331D01*
X032757Y005331D02*
X032833Y005408D01*
X032833Y005485D01*
X032757Y005561D01*
X032603Y005561D01*
X032526Y005485D01*
X032987Y005485D02*
X032987Y005178D01*
X033294Y005485D01*
X033294Y005178D01*
X033217Y005101D01*
X033063Y005101D01*
X032987Y005178D01*
X032987Y005485D02*
X033063Y005561D01*
X033217Y005561D01*
X033294Y005485D01*
X033447Y005485D02*
X033524Y005561D01*
X033677Y005561D01*
X033754Y005485D01*
X033754Y005408D01*
X033447Y005101D01*
X033754Y005101D01*
X033907Y005178D02*
X034214Y005485D01*
X034214Y005178D01*
X034138Y005101D01*
X033984Y005101D01*
X033907Y005178D01*
X033907Y005485D01*
X033984Y005561D01*
X034138Y005561D01*
X034214Y005485D01*
X034828Y005408D02*
X034828Y005101D01*
X034982Y005101D02*
X034982Y005331D01*
X035058Y005408D01*
X035135Y005331D01*
X035135Y005101D01*
X035289Y005101D02*
X035289Y005408D01*
X035365Y005408D01*
X035442Y005331D01*
X035519Y005408D01*
X035595Y005331D01*
X035595Y005101D01*
X035442Y005101D02*
X035442Y005331D01*
X034982Y005331D02*
X034905Y005408D01*
X034828Y005408D01*
X036209Y005101D02*
X036516Y005561D01*
X037130Y005408D02*
X037283Y005561D01*
X037283Y005101D01*
X037130Y005101D02*
X037437Y005101D01*
X037590Y005178D02*
X037667Y005101D01*
X037820Y005101D01*
X037897Y005178D01*
X037897Y005254D01*
X037820Y005331D01*
X037744Y005331D01*
X037820Y005331D02*
X037897Y005408D01*
X037897Y005485D01*
X037820Y005561D01*
X037667Y005561D01*
X037590Y005485D01*
X038051Y005485D02*
X038051Y005178D01*
X038358Y005485D01*
X038358Y005178D01*
X038281Y005101D01*
X038127Y005101D01*
X038051Y005178D01*
X038051Y005485D02*
X038127Y005561D01*
X038281Y005561D01*
X038358Y005485D01*
X038511Y005178D02*
X038588Y005178D01*
X038588Y005101D01*
X038511Y005101D01*
X038511Y005178D01*
X038741Y005178D02*
X039048Y005485D01*
X039048Y005178D01*
X038971Y005101D01*
X038818Y005101D01*
X038741Y005178D01*
X038741Y005485D01*
X038818Y005561D01*
X038971Y005561D01*
X039048Y005485D01*
X039201Y005485D02*
X039201Y005178D01*
X039508Y005485D01*
X039508Y005178D01*
X039432Y005101D01*
X039278Y005101D01*
X039201Y005178D01*
X039201Y005485D02*
X039278Y005561D01*
X039432Y005561D01*
X039508Y005485D01*
X039662Y005485D02*
X039662Y005178D01*
X039969Y005485D01*
X039969Y005178D01*
X039892Y005101D01*
X039739Y005101D01*
X039662Y005178D01*
X039662Y005485D02*
X039739Y005561D01*
X039892Y005561D01*
X039969Y005485D01*
X040583Y005408D02*
X040583Y005101D01*
X040736Y005101D02*
X040736Y005331D01*
X040813Y005408D01*
X040889Y005331D01*
X040889Y005101D01*
X041043Y005101D02*
X041196Y005101D01*
X041120Y005101D02*
X041120Y005408D01*
X041043Y005408D01*
X041120Y005561D02*
X041120Y005638D01*
X041350Y005561D02*
X041426Y005561D01*
X041426Y005101D01*
X041350Y005101D02*
X041503Y005101D01*
X040736Y005331D02*
X040659Y005408D01*
X040583Y005408D01*
X040583Y006401D02*
X040583Y006708D01*
X040659Y006708D01*
X040736Y006631D01*
X040813Y006708D01*
X040889Y006631D01*
X040889Y006401D01*
X040736Y006401D02*
X040736Y006631D01*
X041043Y006708D02*
X041120Y006708D01*
X041120Y006401D01*
X041196Y006401D02*
X041043Y006401D01*
X041350Y006401D02*
X041503Y006401D01*
X041426Y006401D02*
X041426Y006861D01*
X041350Y006861D01*
X041120Y006861D02*
X041120Y006938D01*
X041120Y007701D02*
X041120Y008008D01*
X041043Y008008D01*
X041120Y008161D02*
X041120Y008238D01*
X041350Y008161D02*
X041426Y008161D01*
X041426Y007701D01*
X041350Y007701D02*
X041503Y007701D01*
X041196Y007701D02*
X041043Y007701D01*
X040889Y007701D02*
X040889Y007931D01*
X040813Y008008D01*
X040736Y007931D01*
X040736Y007701D01*
X040583Y007701D02*
X040583Y008008D01*
X040659Y008008D01*
X040736Y007931D01*
X039969Y007778D02*
X039892Y007701D01*
X039739Y007701D01*
X039662Y007778D01*
X039969Y008085D01*
X039969Y007778D01*
X039969Y008085D02*
X039892Y008161D01*
X039739Y008161D01*
X039662Y008085D01*
X039662Y007778D01*
X039508Y007778D02*
X039508Y008085D01*
X039201Y007778D01*
X039278Y007701D01*
X039432Y007701D01*
X039508Y007778D01*
X039201Y007778D02*
X039201Y008085D01*
X039278Y008161D01*
X039432Y008161D01*
X039508Y008085D01*
X039048Y008085D02*
X038741Y007778D01*
X038818Y007701D01*
X038971Y007701D01*
X039048Y007778D01*
X039048Y008085D01*
X038971Y008161D01*
X038818Y008161D01*
X038741Y008085D01*
X038741Y007778D01*
X038588Y007778D02*
X038588Y007701D01*
X038511Y007701D01*
X038511Y007778D01*
X038588Y007778D01*
X038358Y007778D02*
X038281Y007701D01*
X038127Y007701D01*
X038051Y007778D01*
X038051Y007931D02*
X038204Y008008D01*
X038281Y008008D01*
X038358Y007931D01*
X038358Y007778D01*
X038051Y007931D02*
X038051Y008161D01*
X038358Y008161D01*
X037897Y008085D02*
X037820Y008161D01*
X037667Y008161D01*
X037590Y008085D01*
X037590Y008008D01*
X037667Y007931D01*
X037897Y007931D01*
X037897Y007778D02*
X037897Y008085D01*
X037897Y007778D02*
X037820Y007701D01*
X037667Y007701D01*
X037590Y007778D01*
X037437Y007701D02*
X037130Y007701D01*
X037283Y007701D02*
X037283Y008161D01*
X037130Y008008D01*
X036516Y008161D02*
X036209Y007701D01*
X035595Y007701D02*
X035595Y007931D01*
X035519Y008008D01*
X035442Y007931D01*
X035442Y007701D01*
X035289Y007701D02*
X035289Y008008D01*
X035365Y008008D01*
X035442Y007931D01*
X035135Y007931D02*
X035135Y007701D01*
X034982Y007701D02*
X034982Y007931D01*
X035058Y008008D01*
X035135Y007931D01*
X034982Y007931D02*
X034905Y008008D01*
X034828Y008008D01*
X034828Y007701D01*
X034214Y007778D02*
X034214Y008085D01*
X033907Y007778D01*
X033984Y007701D01*
X034138Y007701D01*
X034214Y007778D01*
X033907Y007778D02*
X033907Y008085D01*
X033984Y008161D01*
X034138Y008161D01*
X034214Y008085D01*
X033754Y008085D02*
X033677Y008161D01*
X033524Y008161D01*
X033447Y008085D01*
X033294Y008161D02*
X032987Y008161D01*
X032987Y007931D01*
X033140Y008008D01*
X033217Y008008D01*
X033294Y007931D01*
X033294Y007778D01*
X033217Y007701D01*
X033063Y007701D01*
X032987Y007778D01*
X032833Y007778D02*
X032833Y008085D01*
X032757Y008161D01*
X032603Y008161D01*
X032526Y008085D01*
X032526Y008008D01*
X032603Y007931D01*
X032833Y007931D01*
X032833Y007778D02*
X032757Y007701D01*
X032603Y007701D01*
X032526Y007778D01*
X032373Y007778D02*
X032373Y007701D01*
X032296Y007701D01*
X032296Y007778D01*
X032373Y007778D01*
X032143Y007931D02*
X031836Y007931D01*
X032066Y008161D01*
X032066Y007701D01*
X032066Y006861D02*
X032143Y006785D01*
X032143Y006708D01*
X032066Y006631D01*
X032143Y006554D01*
X032143Y006478D01*
X032066Y006401D01*
X031913Y006401D01*
X031836Y006478D01*
X031989Y006631D02*
X032066Y006631D01*
X032066Y006861D02*
X031913Y006861D01*
X031836Y006785D01*
X032296Y006478D02*
X032373Y006478D01*
X032373Y006401D01*
X032296Y006401D01*
X032296Y006478D01*
X032526Y006478D02*
X032603Y006401D01*
X032757Y006401D01*
X032833Y006478D01*
X032833Y006631D01*
X032757Y006708D01*
X032680Y006708D01*
X032526Y006631D01*
X032526Y006861D01*
X032833Y006861D01*
X032987Y006861D02*
X032987Y006631D01*
X033140Y006708D01*
X033217Y006708D01*
X033294Y006631D01*
X033294Y006478D01*
X033217Y006401D01*
X033063Y006401D01*
X032987Y006478D01*
X032987Y006861D02*
X033294Y006861D01*
X033447Y006631D02*
X033677Y006631D01*
X033754Y006554D01*
X033754Y006478D01*
X033677Y006401D01*
X033524Y006401D01*
X033447Y006478D01*
X033447Y006631D01*
X033601Y006785D01*
X033754Y006861D01*
X033907Y006785D02*
X033984Y006861D01*
X034138Y006861D01*
X034214Y006785D01*
X033907Y006478D01*
X033984Y006401D01*
X034138Y006401D01*
X034214Y006478D01*
X034214Y006785D01*
X033907Y006785D02*
X033907Y006478D01*
X034828Y006401D02*
X034828Y006708D01*
X034905Y006708D01*
X034982Y006631D01*
X035058Y006708D01*
X035135Y006631D01*
X035135Y006401D01*
X034982Y006401D02*
X034982Y006631D01*
X035289Y006708D02*
X035289Y006401D01*
X035442Y006401D02*
X035442Y006631D01*
X035519Y006708D01*
X035595Y006631D01*
X035595Y006401D01*
X035442Y006631D02*
X035365Y006708D01*
X035289Y006708D01*
X036209Y006401D02*
X036516Y006861D01*
X037130Y006708D02*
X037283Y006861D01*
X037283Y006401D01*
X037130Y006401D02*
X037437Y006401D01*
X037590Y006631D02*
X037897Y006631D01*
X038051Y006478D02*
X038358Y006785D01*
X038358Y006478D01*
X038281Y006401D01*
X038127Y006401D01*
X038051Y006478D01*
X038051Y006785D01*
X038127Y006861D01*
X038281Y006861D01*
X038358Y006785D01*
X038511Y006478D02*
X038588Y006478D01*
X038588Y006401D01*
X038511Y006401D01*
X038511Y006478D01*
X038741Y006478D02*
X039048Y006785D01*
X039048Y006478D01*
X038971Y006401D01*
X038818Y006401D01*
X038741Y006478D01*
X038741Y006785D01*
X038818Y006861D01*
X038971Y006861D01*
X039048Y006785D01*
X039201Y006785D02*
X039201Y006478D01*
X039508Y006785D01*
X039508Y006478D01*
X039432Y006401D01*
X039278Y006401D01*
X039201Y006478D01*
X039201Y006785D02*
X039278Y006861D01*
X039432Y006861D01*
X039508Y006785D01*
X039662Y006785D02*
X039662Y006478D01*
X039969Y006785D01*
X039969Y006478D01*
X039892Y006401D01*
X039739Y006401D01*
X039662Y006478D01*
X039662Y006785D02*
X039739Y006861D01*
X039892Y006861D01*
X039969Y006785D01*
X037820Y006861D02*
X037820Y006401D01*
X037590Y006631D02*
X037820Y006861D01*
X037820Y004261D02*
X037590Y004031D01*
X037897Y004031D01*
X038051Y003878D02*
X038127Y003878D01*
X038127Y003801D01*
X038051Y003801D01*
X038051Y003878D01*
X038281Y003878D02*
X038588Y004185D01*
X038588Y003878D01*
X038511Y003801D01*
X038357Y003801D01*
X038281Y003878D01*
X038281Y004185D01*
X038357Y004261D01*
X038511Y004261D01*
X038588Y004185D01*
X038741Y004185D02*
X038741Y003878D01*
X039048Y004185D01*
X039048Y003878D01*
X038971Y003801D01*
X038818Y003801D01*
X038741Y003878D01*
X038741Y004185D02*
X038818Y004261D01*
X038971Y004261D01*
X039048Y004185D01*
X039201Y004185D02*
X039201Y003878D01*
X039508Y004185D01*
X039508Y003878D01*
X039432Y003801D01*
X039278Y003801D01*
X039201Y003878D01*
X039201Y004185D02*
X039278Y004261D01*
X039432Y004261D01*
X039508Y004185D01*
X040122Y004108D02*
X040122Y003801D01*
X040276Y003801D02*
X040276Y004031D01*
X040352Y004108D01*
X040429Y004031D01*
X040429Y003801D01*
X040583Y003801D02*
X040736Y003801D01*
X040659Y003801D02*
X040659Y004108D01*
X040583Y004108D01*
X040659Y004261D02*
X040659Y004338D01*
X040889Y004261D02*
X040966Y004261D01*
X040966Y003801D01*
X040889Y003801D02*
X041043Y003801D01*
X040276Y004031D02*
X040199Y004108D01*
X040122Y004108D01*
X040659Y003038D02*
X040659Y002961D01*
X040659Y002808D02*
X040659Y002501D01*
X040583Y002501D02*
X040736Y002501D01*
X040889Y002501D02*
X041043Y002501D01*
X040966Y002501D02*
X040966Y002961D01*
X040889Y002961D01*
X040659Y002808D02*
X040583Y002808D01*
X040429Y002731D02*
X040429Y002501D01*
X040276Y002501D02*
X040276Y002731D01*
X040352Y002808D01*
X040429Y002731D01*
X040276Y002731D02*
X040199Y002808D01*
X040122Y002808D01*
X040122Y002501D01*
X039508Y002578D02*
X039432Y002501D01*
X039278Y002501D01*
X039201Y002578D01*
X039508Y002885D01*
X039508Y002578D01*
X039201Y002578D02*
X039201Y002885D01*
X039278Y002961D01*
X039432Y002961D01*
X039508Y002885D01*
X039048Y002885D02*
X038741Y002578D01*
X038818Y002501D01*
X038971Y002501D01*
X039048Y002578D01*
X039048Y002885D01*
X038971Y002961D01*
X038818Y002961D01*
X038741Y002885D01*
X038741Y002578D01*
X038588Y002578D02*
X038588Y002885D01*
X038281Y002578D01*
X038357Y002501D01*
X038511Y002501D01*
X038588Y002578D01*
X038588Y002885D02*
X038511Y002961D01*
X038357Y002961D01*
X038281Y002885D01*
X038281Y002578D01*
X038127Y002578D02*
X038127Y002501D01*
X038051Y002501D01*
X038051Y002578D01*
X038127Y002578D01*
X037897Y002501D02*
X037590Y002501D01*
X037897Y002808D01*
X037897Y002885D01*
X037820Y002961D01*
X037667Y002961D01*
X037590Y002885D01*
X037437Y002885D02*
X037437Y002808D01*
X037360Y002731D01*
X037437Y002654D01*
X037437Y002578D01*
X037360Y002501D01*
X037207Y002501D01*
X037130Y002578D01*
X037283Y002731D02*
X037360Y002731D01*
X037437Y002885D02*
X037360Y002961D01*
X037207Y002961D01*
X037130Y002885D01*
X036516Y002961D02*
X036209Y002501D01*
X035595Y002501D02*
X035595Y002731D01*
X035519Y002808D01*
X035442Y002731D01*
X035442Y002501D01*
X035289Y002501D02*
X035289Y002808D01*
X035365Y002808D01*
X035442Y002731D01*
X035135Y002731D02*
X035135Y002501D01*
X034982Y002501D02*
X034982Y002731D01*
X035058Y002808D01*
X035135Y002731D01*
X034982Y002731D02*
X034905Y002808D01*
X034828Y002808D01*
X034828Y002501D01*
X034214Y002578D02*
X034214Y002654D01*
X034138Y002731D01*
X033984Y002731D01*
X033907Y002808D01*
X033907Y002885D01*
X033984Y002961D01*
X034138Y002961D01*
X034214Y002885D01*
X034214Y002808D01*
X034138Y002731D01*
X033984Y002731D02*
X033907Y002654D01*
X033907Y002578D01*
X033984Y002501D01*
X034138Y002501D01*
X034214Y002578D01*
X033754Y002501D02*
X033447Y002501D01*
X033754Y002808D01*
X033754Y002885D01*
X033677Y002961D01*
X033524Y002961D01*
X033447Y002885D01*
X033140Y002961D02*
X033140Y002501D01*
X032987Y002501D02*
X033294Y002501D01*
X032987Y002808D02*
X033140Y002961D01*
X032833Y002885D02*
X032833Y002808D01*
X032757Y002731D01*
X032603Y002731D01*
X032526Y002808D01*
X032526Y002885D01*
X032603Y002961D01*
X032757Y002961D01*
X032833Y002885D01*
X032757Y002731D02*
X032833Y002654D01*
X032833Y002578D01*
X032757Y002501D01*
X032603Y002501D01*
X032526Y002578D01*
X032526Y002654D01*
X032603Y002731D01*
X032373Y002578D02*
X032373Y002501D01*
X032296Y002501D01*
X032296Y002578D01*
X032373Y002578D01*
X032143Y002578D02*
X032143Y002885D01*
X031836Y002578D01*
X031913Y002501D01*
X032066Y002501D01*
X032143Y002578D01*
X032143Y002885D02*
X032066Y002961D01*
X031913Y002961D01*
X031836Y002885D01*
X031836Y002578D01*
X031913Y001661D02*
X032066Y001661D01*
X032143Y001585D01*
X031836Y001278D01*
X031913Y001201D01*
X032066Y001201D01*
X032143Y001278D01*
X032143Y001585D01*
X031913Y001661D02*
X031836Y001585D01*
X031836Y001278D01*
X032296Y001278D02*
X032373Y001278D01*
X032373Y001201D01*
X032296Y001201D01*
X032296Y001278D01*
X032526Y001278D02*
X032603Y001201D01*
X032757Y001201D01*
X032833Y001278D01*
X032833Y001354D01*
X032757Y001431D01*
X032526Y001431D01*
X032526Y001278D01*
X032526Y001431D02*
X032680Y001585D01*
X032833Y001661D01*
X032987Y001585D02*
X033063Y001661D01*
X033217Y001661D01*
X033294Y001585D01*
X032987Y001278D01*
X033063Y001201D01*
X033217Y001201D01*
X033294Y001278D01*
X033294Y001585D01*
X033447Y001585D02*
X033447Y001508D01*
X033524Y001431D01*
X033754Y001431D01*
X033754Y001278D02*
X033754Y001585D01*
X033677Y001661D01*
X033524Y001661D01*
X033447Y001585D01*
X033447Y001278D02*
X033524Y001201D01*
X033677Y001201D01*
X033754Y001278D01*
X033907Y001278D02*
X033984Y001201D01*
X034138Y001201D01*
X034214Y001278D01*
X034214Y001354D01*
X034138Y001431D01*
X033907Y001431D01*
X033907Y001278D01*
X033907Y001431D02*
X034061Y001585D01*
X034214Y001661D01*
X034828Y001508D02*
X034828Y001201D01*
X034982Y001201D02*
X034982Y001431D01*
X035058Y001508D01*
X035135Y001431D01*
X035135Y001201D01*
X035289Y001201D02*
X035289Y001508D01*
X035365Y001508D01*
X035442Y001431D01*
X035519Y001508D01*
X035595Y001431D01*
X035595Y001201D01*
X035442Y001201D02*
X035442Y001431D01*
X034982Y001431D02*
X034905Y001508D01*
X034828Y001508D01*
X036209Y001201D02*
X036516Y001661D01*
X037130Y001585D02*
X037207Y001661D01*
X037360Y001661D01*
X037437Y001585D01*
X037437Y001508D01*
X037130Y001201D01*
X037437Y001201D01*
X037590Y001431D02*
X037897Y001431D01*
X038051Y001278D02*
X038127Y001278D01*
X038127Y001201D01*
X038051Y001201D01*
X038051Y001278D01*
X038281Y001278D02*
X038588Y001585D01*
X038588Y001278D01*
X038511Y001201D01*
X038357Y001201D01*
X038281Y001278D01*
X038281Y001585D01*
X038357Y001661D01*
X038511Y001661D01*
X038588Y001585D01*
X038741Y001585D02*
X038741Y001278D01*
X039048Y001585D01*
X039048Y001278D01*
X038971Y001201D01*
X038818Y001201D01*
X038741Y001278D01*
X038741Y001585D02*
X038818Y001661D01*
X038971Y001661D01*
X039048Y001585D01*
X039201Y001585D02*
X039201Y001278D01*
X039508Y001585D01*
X039508Y001278D01*
X039432Y001201D01*
X039278Y001201D01*
X039201Y001278D01*
X039201Y001585D02*
X039278Y001661D01*
X039432Y001661D01*
X039508Y001585D01*
X040122Y001508D02*
X040122Y001201D01*
X040276Y001201D02*
X040276Y001431D01*
X040352Y001508D01*
X040429Y001431D01*
X040429Y001201D01*
X040583Y001201D02*
X040736Y001201D01*
X040659Y001201D02*
X040659Y001508D01*
X040583Y001508D01*
X040659Y001661D02*
X040659Y001738D01*
X040889Y001661D02*
X040966Y001661D01*
X040966Y001201D01*
X040889Y001201D02*
X041043Y001201D01*
X040276Y001431D02*
X040199Y001508D01*
X040122Y001508D01*
X037820Y001661D02*
X037820Y001201D01*
X037590Y001431D02*
X037820Y001661D01*
X037820Y003801D02*
X037820Y004261D01*
X037437Y004031D02*
X037130Y004031D01*
X037360Y004261D01*
X037360Y003801D01*
X036516Y004261D02*
X036209Y003801D01*
X035595Y003801D02*
X035595Y004031D01*
X035519Y004108D01*
X035442Y004031D01*
X035442Y003801D01*
X035289Y003801D02*
X035289Y004108D01*
X035365Y004108D01*
X035442Y004031D01*
X035135Y004031D02*
X035058Y004108D01*
X034982Y004031D01*
X034982Y003801D01*
X035135Y003801D02*
X035135Y004031D01*
X034982Y004031D02*
X034905Y004108D01*
X034828Y004108D01*
X034828Y003801D01*
X034214Y003878D02*
X034214Y003954D01*
X034138Y004031D01*
X033907Y004031D01*
X033907Y003878D01*
X033984Y003801D01*
X034138Y003801D01*
X034214Y003878D01*
X034061Y004185D02*
X033907Y004031D01*
X033754Y004185D02*
X033447Y003878D01*
X033447Y003801D01*
X033294Y003801D02*
X032987Y003801D01*
X033140Y003801D02*
X033140Y004261D01*
X032987Y004108D01*
X032833Y003801D02*
X032526Y003801D01*
X032373Y003801D02*
X032296Y003801D01*
X032296Y003878D01*
X032373Y003878D01*
X032373Y003801D01*
X032143Y003801D02*
X031836Y003801D01*
X031989Y003801D02*
X031989Y004261D01*
X031836Y004108D01*
X032526Y004108D02*
X032680Y004261D01*
X032680Y003801D01*
X033447Y004261D02*
X033754Y004261D01*
X033754Y004185D01*
X034061Y004185D02*
X034214Y004261D01*
X032987Y001585D02*
X032987Y001278D01*
X033524Y007701D02*
X033447Y007778D01*
X033524Y007701D02*
X033677Y007701D01*
X033754Y007778D01*
X033754Y007854D01*
X033677Y007931D01*
X033601Y007931D01*
X033677Y007931D02*
X033754Y008008D01*
X033754Y008085D01*
D14*
X033216Y009961D02*
X033109Y009961D01*
X033109Y010068D01*
X033216Y010068D01*
X033216Y009961D01*
X033216Y010281D02*
X033109Y010281D01*
X033109Y010388D01*
X033216Y010388D01*
X033216Y010281D01*
X032892Y010281D02*
X032892Y010175D01*
X032465Y010175D01*
X032465Y010281D02*
X032465Y010068D01*
X032571Y009961D01*
X032785Y009961D01*
X032892Y010281D02*
X032785Y010388D01*
X032571Y010388D01*
X032465Y010281D01*
X032248Y010388D02*
X032035Y010388D01*
X032142Y010495D02*
X032142Y010068D01*
X032248Y009961D01*
X031817Y009961D02*
X031817Y010281D01*
X031711Y010388D01*
X031497Y010388D01*
X031497Y010175D02*
X031817Y010175D01*
X031817Y009961D02*
X031497Y009961D01*
X031390Y010068D01*
X031497Y010175D01*
X031173Y010068D02*
X031173Y010495D01*
X031066Y010602D01*
X030746Y010602D01*
X030746Y009961D01*
X031066Y009961D01*
X031173Y010068D01*
X031066Y010961D02*
X030746Y010961D01*
X030746Y011602D01*
X031066Y011602D01*
X031173Y011495D01*
X031173Y011068D01*
X031066Y010961D01*
X031390Y010961D02*
X031390Y011388D01*
X031390Y011175D02*
X031604Y011388D01*
X031711Y011388D01*
X031927Y011388D02*
X032034Y011388D01*
X032034Y010961D01*
X031927Y010961D02*
X032141Y010961D01*
X032357Y010961D02*
X032571Y010961D01*
X032464Y010961D02*
X032464Y011602D01*
X032357Y011602D01*
X032034Y011602D02*
X032034Y011708D01*
X032787Y011602D02*
X032894Y011602D01*
X032894Y010961D01*
X033000Y010961D02*
X032787Y010961D01*
X033861Y010961D02*
X034075Y010961D01*
X033968Y010961D02*
X033968Y011602D01*
X033861Y011602D01*
X034291Y011281D02*
X034397Y011388D01*
X034611Y011388D01*
X034718Y011281D01*
X034718Y011175D01*
X034291Y011175D01*
X034291Y011281D02*
X034291Y011068D01*
X034397Y010961D01*
X034611Y010961D01*
X034935Y011068D02*
X035042Y010961D01*
X035362Y010961D01*
X035362Y010854D02*
X035362Y011388D01*
X035042Y011388D01*
X034935Y011281D01*
X034935Y011068D01*
X035256Y010748D02*
X035362Y010854D01*
X035256Y010748D02*
X035149Y010748D01*
X035147Y010602D02*
X034934Y010495D01*
X034720Y010281D01*
X035041Y010281D01*
X035147Y010175D01*
X035147Y010068D01*
X035041Y009961D01*
X034827Y009961D01*
X034720Y010068D01*
X034720Y010281D01*
X035365Y009961D02*
X035792Y010602D01*
X036009Y010495D02*
X036116Y010602D01*
X036330Y010602D01*
X036436Y010495D01*
X036436Y010388D01*
X036009Y009961D01*
X036436Y009961D01*
X036654Y009961D02*
X037081Y010388D01*
X037081Y010495D01*
X036974Y010602D01*
X036761Y010602D01*
X036654Y010495D01*
X036651Y010961D02*
X036651Y011281D01*
X036545Y011388D01*
X036224Y011388D01*
X036224Y010961D01*
X036007Y011175D02*
X035580Y011175D01*
X035580Y011281D02*
X035687Y011388D01*
X035900Y011388D01*
X036007Y011281D01*
X036007Y011175D01*
X035900Y010961D02*
X035687Y010961D01*
X035580Y011068D01*
X035580Y011281D01*
X036869Y011281D02*
X036976Y011388D01*
X037296Y011388D01*
X037296Y011602D02*
X037296Y010961D01*
X036976Y010961D01*
X036869Y011068D01*
X036869Y011281D01*
X037726Y010602D02*
X037299Y009961D01*
X037081Y009961D02*
X036654Y009961D01*
X037943Y009961D02*
X038370Y010388D01*
X038370Y010495D01*
X038263Y010602D01*
X038050Y010602D01*
X037943Y010495D01*
X038588Y010495D02*
X038694Y010602D01*
X038908Y010602D01*
X039015Y010495D01*
X038588Y010068D01*
X038694Y009961D01*
X038908Y009961D01*
X039015Y010068D01*
X039015Y010495D01*
X039232Y010495D02*
X039339Y010602D01*
X039552Y010602D01*
X039659Y010495D01*
X039232Y010068D01*
X039339Y009961D01*
X039552Y009961D01*
X039659Y010068D01*
X039659Y010495D01*
X039877Y010602D02*
X040304Y010602D01*
X040304Y010495D01*
X039877Y010068D01*
X039877Y009961D01*
X039232Y010068D02*
X039232Y010495D01*
X038588Y010495D02*
X038588Y010068D01*
X038370Y009961D02*
X037943Y009961D01*
X041166Y010068D02*
X041593Y010495D01*
X041593Y010068D01*
X041486Y009961D01*
X041272Y009961D01*
X041166Y010068D01*
X041166Y010495D01*
X041272Y010602D01*
X041486Y010602D01*
X041593Y010495D01*
X041810Y010495D02*
X041810Y010388D01*
X041917Y010281D01*
X042237Y010281D01*
X042237Y010068D02*
X042237Y010495D01*
X042130Y010602D01*
X041917Y010602D01*
X041810Y010495D01*
X041810Y010068D02*
X041917Y009961D01*
X042130Y009961D01*
X042237Y010068D01*
X042455Y010068D02*
X042455Y009961D01*
X042561Y009961D01*
X042561Y010068D01*
X042455Y010068D01*
X042455Y010281D02*
X042455Y010388D01*
X042561Y010388D01*
X042561Y010281D01*
X042455Y010281D01*
X042777Y010281D02*
X042991Y010388D01*
X043097Y010388D01*
X043204Y010281D01*
X043204Y010068D01*
X043097Y009961D01*
X042884Y009961D01*
X042777Y010068D01*
X042777Y010281D02*
X042777Y010602D01*
X043204Y010602D01*
X043422Y010495D02*
X043528Y010602D01*
X043742Y010602D01*
X043849Y010495D01*
X043849Y010388D01*
X043742Y010281D01*
X043849Y010175D01*
X043849Y010068D01*
X043742Y009961D01*
X043528Y009961D01*
X043422Y010068D01*
X043635Y010281D02*
X043742Y010281D01*
X044066Y010281D02*
X044066Y010388D01*
X044173Y010388D01*
X044173Y010281D01*
X044066Y010281D01*
X044066Y010068D02*
X044066Y009961D01*
X044173Y009961D01*
X044173Y010068D01*
X044066Y010068D01*
X044388Y009961D02*
X044815Y009961D01*
X044602Y009961D02*
X044602Y010602D01*
X044388Y010388D01*
X045033Y010602D02*
X045460Y010602D01*
X045460Y010495D01*
X045033Y010068D01*
X045033Y009961D01*
X045677Y010068D02*
X045784Y010175D01*
X046104Y010175D01*
X046104Y010281D02*
X046104Y009961D01*
X045784Y009961D01*
X045677Y010068D01*
X045784Y010388D02*
X045998Y010388D01*
X046104Y010281D01*
D15*
X042916Y000131D02*
X029316Y000131D01*
X029316Y011931D01*
D16*
X019784Y007513D02*
X019787Y007572D01*
X019795Y007631D01*
X019808Y007688D01*
X019827Y007745D01*
X019850Y007799D01*
X019879Y007851D01*
X019912Y007900D01*
X019949Y007946D01*
X019990Y007988D01*
X020035Y008026D01*
X020084Y008061D01*
X020135Y008090D01*
X020189Y008115D01*
X020244Y008135D01*
X020302Y008149D01*
X020360Y008159D01*
X020419Y008163D01*
X020478Y008161D01*
X020537Y008155D01*
X020595Y008143D01*
X020652Y008125D01*
X020706Y008103D01*
X020759Y008076D01*
X020809Y008044D01*
X020856Y008008D01*
X020899Y007967D01*
X020938Y007923D01*
X020973Y007876D01*
X021004Y007825D01*
X021030Y007772D01*
X021051Y007717D01*
X021067Y007660D01*
X021078Y007602D01*
X021083Y007543D01*
X021083Y007483D01*
X021078Y007424D01*
X021067Y007366D01*
X021051Y007309D01*
X021030Y007254D01*
X021004Y007201D01*
X020973Y007150D01*
X020938Y007103D01*
X020899Y007059D01*
X020856Y007018D01*
X020809Y006982D01*
X020759Y006950D01*
X020706Y006923D01*
X020652Y006901D01*
X020595Y006883D01*
X020537Y006871D01*
X020478Y006865D01*
X020419Y006863D01*
X020360Y006867D01*
X020302Y006877D01*
X020244Y006891D01*
X020189Y006911D01*
X020135Y006936D01*
X020084Y006965D01*
X020035Y007000D01*
X019990Y007038D01*
X019949Y007080D01*
X019912Y007126D01*
X019879Y007175D01*
X019850Y007227D01*
X019827Y007281D01*
X019808Y007338D01*
X019795Y007395D01*
X019787Y007454D01*
X019784Y007513D01*
M02*
