G75*
G70*
%OFA0B0*%
%FSLAX24Y24*%
%IPPOS*%
%LPD*%
%AMOC8*
5,1,8,0,0,1.08239X$1,22.5*
%
%ADD10C,0.0100*%
D10*
X000927Y014633D02*
X000982Y015847D01*
X001148Y017051D01*
X001422Y018234D01*
X001803Y019388D01*
X002287Y020503D01*
X002870Y021568D01*
X003548Y022577D01*
X004315Y023519D01*
X005164Y024388D01*
X006089Y025176D01*
X007082Y025877D01*
X008134Y026484D01*
X009237Y026994D01*
X010382Y027401D01*
X011559Y027702D01*
X012759Y027895D01*
X013971Y027978D01*
X015186Y027950D01*
X016393Y027812D01*
X017583Y027565D01*
X018745Y027210D01*
X019870Y026752D01*
X020949Y026193D01*
X021973Y025538D01*
X022932Y024793D01*
X023820Y023963D01*
X024629Y023057D01*
X025352Y022080D01*
X025984Y021042D01*
X026518Y019951D01*
X026951Y018816D01*
X027279Y017646D01*
X027499Y016451D01*
X027609Y015241D01*
X027609Y014025D01*
X027499Y012815D01*
X027279Y011620D01*
X026951Y010450D01*
X026518Y009315D01*
X025984Y008224D01*
X025352Y007186D01*
X024629Y006209D01*
X023820Y005303D01*
X022932Y004473D01*
X021973Y003728D01*
X020949Y003073D01*
X019870Y002514D01*
X018745Y002056D01*
X017583Y001701D01*
X016393Y001454D01*
X015186Y001316D01*
X013971Y001288D01*
X012759Y001371D01*
X011559Y001564D01*
X010382Y001865D01*
X009237Y002272D01*
X008134Y002782D01*
X007082Y003389D01*
X006089Y004090D01*
X005164Y004878D01*
X004315Y005747D01*
X003548Y006689D01*
X002870Y007698D01*
X002287Y008763D01*
X001803Y009878D01*
X001422Y011032D01*
X001148Y012215D01*
X000982Y013419D01*
X000927Y014633D01*
M02*
