G75*
G70*
%OFA0B0*%
%FSLAX24Y24*%
%IPPOS*%
%LPD*%
%AMOC8*
5,1,8,0,0,1.08239X$1,22.5*
%
%ADD10C,0.0100*%
%ADD11C,0.0060*%
%ADD12C,0.0010*%
%ADD13C,0.0050*%
%ADD14C,0.0040*%
%ADD15C,0.0030*%
%ADD16C,0.0000*%
%ADD17C,0.0020*%
%ADD18R,0.0300X0.0250*%
%ADD19R,0.0500X0.1100*%
%ADD20C,0.0070*%
%ADD21R,0.0230X0.0160*%
%ADD22C,0.0160*%
%ADD23R,0.0059X0.0118*%
%ADD24R,0.0118X0.0118*%
D10*
X008681Y003663D02*
X008681Y004413D01*
X011681Y004413D01*
X011681Y003663D01*
X008681Y003663D01*
X008681Y004413D02*
X008681Y006163D01*
X011681Y006163D01*
X011681Y004413D01*
X000927Y014633D02*
X000982Y015847D01*
X001148Y017051D01*
X001422Y018234D01*
X001803Y019388D01*
X002287Y020503D01*
X002870Y021568D01*
X003548Y022577D01*
X004315Y023519D01*
X005164Y024388D01*
X006089Y025176D01*
X007082Y025877D01*
X008134Y026484D01*
X009237Y026994D01*
X010382Y027401D01*
X011559Y027702D01*
X012759Y027895D01*
X013971Y027978D01*
X015186Y027950D01*
X016393Y027812D01*
X017583Y027565D01*
X018745Y027210D01*
X019870Y026752D01*
X020949Y026193D01*
X021973Y025538D01*
X022932Y024793D01*
X023820Y023963D01*
X024629Y023057D01*
X025352Y022080D01*
X025984Y021042D01*
X026518Y019951D01*
X026951Y018816D01*
X027279Y017646D01*
X027499Y016451D01*
X027609Y015241D01*
X027609Y014025D01*
X027499Y012815D01*
X027279Y011620D01*
X026951Y010450D01*
X026518Y009315D01*
X025984Y008224D01*
X025352Y007186D01*
X024629Y006209D01*
X023820Y005303D01*
X022932Y004473D01*
X021973Y003728D01*
X020949Y003073D01*
X019870Y002514D01*
X018745Y002056D01*
X017583Y001701D01*
X016393Y001454D01*
X015186Y001316D01*
X013971Y001288D01*
X012759Y001371D01*
X011559Y001564D01*
X010382Y001865D01*
X009237Y002272D01*
X008134Y002782D01*
X007082Y003389D01*
X006089Y004090D01*
X005164Y004878D01*
X004315Y005747D01*
X003548Y006689D01*
X002870Y007698D01*
X002287Y008763D01*
X001803Y009878D01*
X001422Y011032D01*
X001148Y012215D01*
X000982Y013419D01*
X000927Y014633D01*
D11*
X005161Y014813D02*
X005161Y016513D01*
X005163Y016536D01*
X005168Y016559D01*
X005177Y016581D01*
X005190Y016601D01*
X005205Y016619D01*
X005223Y016634D01*
X005243Y016647D01*
X005265Y016656D01*
X005288Y016661D01*
X005311Y016663D01*
X006551Y016663D01*
X006574Y016661D01*
X006597Y016656D01*
X006619Y016647D01*
X006639Y016634D01*
X006657Y016619D01*
X006672Y016601D01*
X006685Y016581D01*
X006694Y016559D01*
X006699Y016536D01*
X006701Y016513D01*
X006701Y014813D01*
X006699Y014790D01*
X006694Y014767D01*
X006685Y014745D01*
X006672Y014725D01*
X006657Y014707D01*
X006639Y014692D01*
X006619Y014679D01*
X006597Y014670D01*
X006574Y014665D01*
X006551Y014663D01*
X005311Y014663D01*
X005288Y014665D01*
X005265Y014670D01*
X005243Y014679D01*
X005223Y014692D01*
X005205Y014707D01*
X005190Y014725D01*
X005177Y014745D01*
X005168Y014767D01*
X005163Y014790D01*
X005161Y014813D01*
X005731Y016663D02*
X005733Y016636D01*
X005738Y016609D01*
X005748Y016583D01*
X005760Y016559D01*
X005776Y016537D01*
X005794Y016517D01*
X005816Y016500D01*
X005839Y016485D01*
X005864Y016475D01*
X005890Y016467D01*
X005917Y016463D01*
X005945Y016463D01*
X005972Y016467D01*
X005998Y016475D01*
X006023Y016485D01*
X006046Y016500D01*
X006068Y016517D01*
X006086Y016537D01*
X006102Y016559D01*
X006114Y016583D01*
X006124Y016609D01*
X006129Y016636D01*
X006131Y016663D01*
X009857Y015513D02*
X011506Y015513D01*
X011234Y016113D02*
X011129Y016113D01*
X010234Y016113D02*
X010129Y016113D01*
X016278Y019368D02*
X016278Y019526D01*
X016828Y019588D02*
X016828Y021238D01*
X016278Y021301D02*
X016278Y021458D01*
X016278Y020526D02*
X016278Y020301D01*
X014438Y023943D02*
X014651Y024157D01*
X014438Y024370D01*
X014011Y024370D01*
X014331Y024588D02*
X014331Y025015D01*
X014331Y025232D02*
X014331Y025553D01*
X014438Y025659D01*
X014545Y025659D01*
X014651Y025553D01*
X014651Y025232D01*
X014011Y025232D01*
X014011Y025553D01*
X014118Y025659D01*
X014224Y025659D01*
X014331Y025553D01*
X014331Y025877D02*
X014331Y026304D01*
X014224Y026304D02*
X014651Y026304D01*
X014224Y026304D02*
X014011Y026090D01*
X014224Y025877D01*
X014651Y025877D01*
X014651Y026735D02*
X014011Y026735D01*
X014011Y026948D02*
X014011Y026521D01*
X014011Y023943D02*
X014438Y023943D01*
X023355Y018015D02*
X023519Y018152D01*
X023669Y018139D01*
X023806Y017975D02*
X023643Y017838D01*
X023806Y017975D02*
X023944Y017812D01*
X023930Y017661D01*
X023767Y017524D01*
X023616Y017537D01*
X023342Y017864D01*
X023355Y018015D01*
X023904Y018197D02*
X023931Y018498D01*
X024231Y018471D01*
X024506Y018144D01*
X024604Y018366D02*
X024754Y018353D01*
X024918Y018490D01*
X024931Y018640D01*
X024588Y019049D01*
X024823Y019107D02*
X025098Y018780D01*
X025248Y018767D01*
X025411Y018904D01*
X025425Y019055D01*
X025287Y019218D01*
X025124Y019081D01*
X025150Y019382D02*
X025000Y019395D01*
X024836Y019258D01*
X024823Y019107D01*
X024261Y018775D02*
X024604Y018366D01*
X024300Y018390D02*
X023973Y018115D01*
X023904Y018197D02*
X024179Y017870D01*
X025660Y019113D02*
X025987Y019387D01*
X025618Y019495D02*
X025454Y019358D01*
X025248Y019603D02*
X025660Y019113D01*
X025248Y019603D02*
X025575Y019878D01*
X018241Y014732D02*
X018204Y014732D01*
X018241Y014732D02*
X018241Y014094D01*
X018204Y014094D01*
X017887Y014094D02*
X017476Y014094D01*
X017159Y014094D02*
X017122Y014094D01*
X017122Y014732D01*
X017159Y014732D01*
X017476Y014732D02*
X017513Y014732D01*
X017850Y014732D02*
X017887Y014732D01*
X016537Y011602D02*
X014387Y011602D01*
X014387Y011552D01*
X014387Y010852D01*
X014387Y010802D01*
X016537Y010802D01*
X016557Y010804D01*
X016575Y010810D01*
X016593Y010819D01*
X016608Y010831D01*
X016620Y010846D01*
X016629Y010864D01*
X016635Y010882D01*
X016637Y010902D01*
X016637Y011502D01*
X016635Y011522D01*
X016629Y011540D01*
X016620Y011558D01*
X016608Y011573D01*
X016593Y011585D01*
X016575Y011594D01*
X016557Y011600D01*
X016537Y011602D01*
X015887Y011202D02*
X015687Y011202D01*
X015687Y011002D01*
X015537Y011002D02*
X015537Y011402D01*
X015387Y011402D01*
X015387Y011002D01*
X015537Y011002D01*
X015687Y011202D02*
X015687Y011402D01*
X015237Y011402D02*
X015237Y011202D01*
X015237Y011002D01*
X015237Y011202D02*
X015037Y011202D01*
X014387Y011552D02*
X014237Y011552D01*
X014237Y010852D01*
X014387Y010852D01*
X011513Y003384D02*
X011400Y003384D01*
X011343Y003327D01*
X011202Y003384D02*
X010975Y003043D01*
X011202Y003043D02*
X010975Y003384D01*
X011343Y003043D02*
X011570Y003270D01*
X011570Y003327D01*
X011513Y003384D01*
X011570Y003043D02*
X011343Y003043D01*
D12*
X000896Y014632D02*
X000951Y015849D01*
X001117Y017055D01*
X001392Y018241D01*
X001774Y019398D01*
X002259Y020515D01*
X002844Y021583D01*
X003523Y022594D01*
X004292Y023538D01*
X005143Y024409D01*
X006070Y025199D01*
X007065Y025901D01*
X008119Y026510D01*
X009225Y027021D01*
X010372Y027428D01*
X011552Y027730D01*
X012755Y027923D01*
X013969Y028007D01*
X015187Y027979D01*
X016397Y027840D01*
X017589Y027593D01*
X018754Y027238D01*
X019882Y026778D01*
X020963Y026218D01*
X021989Y025561D01*
X022951Y024815D01*
X023841Y023983D01*
X024651Y023075D01*
X025376Y022096D01*
X026009Y021056D01*
X026544Y019962D01*
X026978Y018824D01*
X027307Y017651D01*
X027527Y016454D01*
X027638Y015241D01*
X027638Y014023D01*
X027527Y012810D01*
X027307Y011613D01*
X026978Y010440D01*
X026544Y009302D01*
X026009Y008208D01*
X025376Y007168D01*
X024651Y006189D01*
X023841Y005281D01*
X022951Y004449D01*
X021989Y003703D01*
X020963Y003046D01*
X019882Y002486D01*
X018754Y002026D01*
X017589Y001671D01*
X016397Y001424D01*
X015187Y001285D01*
X013969Y001257D01*
X012755Y001341D01*
X011552Y001534D01*
X010372Y001836D01*
X009225Y002243D01*
X008119Y002754D01*
X007065Y003363D01*
X006070Y004065D01*
X005143Y004855D01*
X004292Y005726D01*
X003523Y006670D01*
X002844Y007681D01*
X002259Y008749D01*
X001774Y009866D01*
X001392Y011023D01*
X001117Y012209D01*
X000951Y013415D01*
X000896Y014632D01*
X009711Y015701D02*
X009756Y015722D01*
X009781Y015672D01*
X009809Y015624D01*
X009840Y015577D01*
X009873Y015532D01*
X009834Y015502D01*
X009834Y015501D01*
X009799Y015549D01*
X009767Y015598D01*
X009737Y015648D01*
X009711Y015701D01*
X009719Y015704D01*
X009745Y015653D01*
X009774Y015602D01*
X009806Y015554D01*
X009841Y015507D01*
X009848Y015513D01*
X009814Y015559D01*
X009782Y015607D01*
X009753Y015657D01*
X009727Y015708D01*
X009735Y015712D01*
X009761Y015661D01*
X009790Y015612D01*
X009821Y015564D01*
X009855Y015518D01*
X009862Y015524D01*
X009828Y015569D01*
X009797Y015617D01*
X009769Y015666D01*
X009743Y015716D01*
X009751Y015720D01*
X009777Y015670D01*
X009805Y015621D01*
X009836Y015574D01*
X009869Y015529D01*
X011651Y016625D02*
X011606Y016604D01*
X011577Y016661D01*
X011544Y016716D01*
X011508Y016769D01*
X011468Y016819D01*
X011426Y016867D01*
X011380Y016913D01*
X011332Y016955D01*
X011281Y016994D01*
X011228Y017030D01*
X011173Y017062D01*
X011116Y017091D01*
X011057Y017117D01*
X010996Y017138D01*
X010935Y017156D01*
X010872Y017170D01*
X010809Y017180D01*
X010745Y017186D01*
X010681Y017188D01*
X010617Y017186D01*
X010553Y017180D01*
X010490Y017170D01*
X010427Y017156D01*
X010366Y017138D01*
X010305Y017117D01*
X010246Y017091D01*
X010189Y017062D01*
X010134Y017030D01*
X010081Y016994D01*
X010030Y016955D01*
X009982Y016913D01*
X009936Y016867D01*
X009894Y016819D01*
X009854Y016769D01*
X009818Y016716D01*
X009785Y016661D01*
X009756Y016604D01*
X009711Y016625D01*
X009740Y016684D01*
X009774Y016740D01*
X009811Y016794D01*
X009851Y016846D01*
X009894Y016895D01*
X009940Y016942D01*
X009988Y016985D01*
X010040Y017026D01*
X010093Y017063D01*
X010149Y017097D01*
X010207Y017128D01*
X010267Y017155D01*
X010328Y017178D01*
X010390Y017198D01*
X010454Y017214D01*
X010518Y017226D01*
X010583Y017234D01*
X010648Y017238D01*
X010714Y017238D01*
X010779Y017234D01*
X010844Y017226D01*
X010908Y017214D01*
X010972Y017198D01*
X011034Y017178D01*
X011095Y017155D01*
X011155Y017128D01*
X011213Y017097D01*
X011269Y017063D01*
X011322Y017026D01*
X011374Y016985D01*
X011422Y016942D01*
X011468Y016895D01*
X011511Y016846D01*
X011551Y016794D01*
X011588Y016740D01*
X011622Y016684D01*
X011651Y016625D01*
X011643Y016622D01*
X011614Y016679D01*
X011581Y016735D01*
X011544Y016789D01*
X011504Y016840D01*
X011462Y016889D01*
X011416Y016935D01*
X011368Y016978D01*
X011317Y017019D01*
X011264Y017056D01*
X011208Y017089D01*
X011151Y017120D01*
X011092Y017147D01*
X011031Y017170D01*
X010969Y017189D01*
X010906Y017205D01*
X010843Y017217D01*
X010778Y017225D01*
X010713Y017229D01*
X010649Y017229D01*
X010584Y017225D01*
X010519Y017217D01*
X010456Y017205D01*
X010393Y017189D01*
X010331Y017170D01*
X010270Y017147D01*
X010211Y017120D01*
X010154Y017089D01*
X010098Y017056D01*
X010045Y017019D01*
X009994Y016978D01*
X009946Y016935D01*
X009900Y016889D01*
X009858Y016840D01*
X009818Y016789D01*
X009781Y016735D01*
X009748Y016679D01*
X009719Y016622D01*
X009727Y016618D01*
X009756Y016675D01*
X009789Y016730D01*
X009825Y016783D01*
X009865Y016834D01*
X009907Y016883D01*
X009952Y016929D01*
X010000Y016971D01*
X010050Y017011D01*
X010103Y017048D01*
X010158Y017082D01*
X010215Y017112D01*
X010274Y017138D01*
X010334Y017161D01*
X010395Y017181D01*
X010458Y017196D01*
X010521Y017208D01*
X010585Y017216D01*
X010649Y017220D01*
X010713Y017220D01*
X010777Y017216D01*
X010841Y017208D01*
X010904Y017196D01*
X010967Y017181D01*
X011028Y017161D01*
X011088Y017138D01*
X011147Y017112D01*
X011204Y017082D01*
X011259Y017048D01*
X011312Y017011D01*
X011362Y016971D01*
X011410Y016929D01*
X011455Y016883D01*
X011497Y016834D01*
X011537Y016783D01*
X011573Y016730D01*
X011606Y016675D01*
X011635Y016618D01*
X011627Y016614D01*
X011598Y016671D01*
X011565Y016725D01*
X011529Y016778D01*
X011490Y016829D01*
X011448Y016877D01*
X011404Y016922D01*
X011356Y016965D01*
X011306Y017004D01*
X011254Y017041D01*
X011199Y017074D01*
X011143Y017104D01*
X011085Y017130D01*
X011025Y017153D01*
X010964Y017172D01*
X010903Y017187D01*
X010840Y017199D01*
X010777Y017207D01*
X010713Y017211D01*
X010649Y017211D01*
X010585Y017207D01*
X010522Y017199D01*
X010459Y017187D01*
X010398Y017172D01*
X010337Y017153D01*
X010277Y017130D01*
X010219Y017104D01*
X010163Y017074D01*
X010108Y017041D01*
X010056Y017004D01*
X010006Y016965D01*
X009958Y016922D01*
X009914Y016877D01*
X009872Y016829D01*
X009833Y016778D01*
X009797Y016725D01*
X009764Y016671D01*
X009735Y016614D01*
X009743Y016610D01*
X009772Y016666D01*
X009804Y016721D01*
X009840Y016773D01*
X009879Y016823D01*
X009920Y016871D01*
X009965Y016916D01*
X010012Y016958D01*
X010061Y016997D01*
X010113Y017033D01*
X010167Y017066D01*
X010223Y017096D01*
X010281Y017122D01*
X010340Y017144D01*
X010400Y017163D01*
X010461Y017179D01*
X010524Y017190D01*
X010586Y017198D01*
X010649Y017202D01*
X010713Y017202D01*
X010776Y017198D01*
X010838Y017190D01*
X010901Y017179D01*
X010962Y017163D01*
X011022Y017144D01*
X011081Y017122D01*
X011139Y017096D01*
X011195Y017066D01*
X011249Y017033D01*
X011301Y016997D01*
X011350Y016958D01*
X011397Y016916D01*
X011442Y016871D01*
X011483Y016823D01*
X011522Y016773D01*
X011558Y016721D01*
X011590Y016666D01*
X011619Y016610D01*
X011611Y016606D01*
X011581Y016663D01*
X011548Y016719D01*
X011512Y016772D01*
X011472Y016823D01*
X011429Y016871D01*
X011384Y016916D01*
X011335Y016959D01*
X011284Y016998D01*
X011231Y017034D01*
X011175Y017067D01*
X011118Y017096D01*
X011059Y017121D01*
X010998Y017143D01*
X010936Y017161D01*
X010873Y017175D01*
X010810Y017185D01*
X010745Y017191D01*
X010681Y017193D01*
X010617Y017191D01*
X010552Y017185D01*
X010489Y017175D01*
X010426Y017161D01*
X010364Y017143D01*
X010303Y017121D01*
X010244Y017096D01*
X010187Y017067D01*
X010131Y017034D01*
X010078Y016998D01*
X010027Y016959D01*
X009978Y016916D01*
X009933Y016871D01*
X009890Y016823D01*
X009850Y016772D01*
X009814Y016719D01*
X009781Y016663D01*
X009751Y016606D01*
X011529Y015502D02*
X011490Y015533D01*
X011490Y015532D02*
X011525Y015579D01*
X011556Y015628D01*
X011585Y015679D01*
X011612Y015731D01*
X011657Y015711D01*
X011657Y015710D01*
X011630Y015655D01*
X011599Y015602D01*
X011566Y015551D01*
X011529Y015501D01*
X011522Y015507D01*
X011558Y015556D01*
X011591Y015607D01*
X011622Y015660D01*
X011649Y015714D01*
X011641Y015718D01*
X011614Y015664D01*
X011584Y015612D01*
X011551Y015561D01*
X011515Y015513D01*
X011508Y015518D01*
X011544Y015566D01*
X011576Y015616D01*
X011606Y015668D01*
X011632Y015722D01*
X011624Y015725D01*
X011598Y015672D01*
X011568Y015621D01*
X011536Y015571D01*
X011501Y015524D01*
X011494Y015529D01*
X011529Y015577D01*
X011561Y015626D01*
X011590Y015677D01*
X011616Y015729D01*
X015153Y020092D02*
X015201Y020106D01*
X015200Y020106D02*
X015221Y020046D01*
X015246Y019987D01*
X015274Y019930D01*
X015306Y019875D01*
X015341Y019821D01*
X015379Y019770D01*
X015421Y019722D01*
X015465Y019676D01*
X015513Y019633D01*
X015562Y019593D01*
X015615Y019557D01*
X015669Y019523D01*
X015725Y019493D01*
X015783Y019467D01*
X015843Y019444D01*
X015904Y019425D01*
X015966Y019410D01*
X016028Y019399D01*
X016092Y019392D01*
X016156Y019388D01*
X016219Y019389D01*
X016283Y019393D01*
X016346Y019402D01*
X016409Y019414D01*
X016470Y019431D01*
X016531Y019451D01*
X016590Y019474D01*
X016648Y019502D01*
X016703Y019533D01*
X016757Y019567D01*
X016809Y019605D01*
X016839Y019566D01*
X016840Y019566D01*
X016787Y019527D01*
X016733Y019492D01*
X016676Y019460D01*
X016618Y019432D01*
X016558Y019407D01*
X016497Y019386D01*
X016434Y019369D01*
X016371Y019355D01*
X016307Y019346D01*
X016242Y019340D01*
X016178Y019338D01*
X016113Y019340D01*
X016048Y019346D01*
X015984Y019356D01*
X015921Y019369D01*
X015858Y019387D01*
X015797Y019408D01*
X015737Y019433D01*
X015679Y019461D01*
X015622Y019493D01*
X015568Y019528D01*
X015516Y019566D01*
X015466Y019608D01*
X015419Y019652D01*
X015374Y019699D01*
X015333Y019749D01*
X015294Y019801D01*
X015259Y019856D01*
X015227Y019912D01*
X015198Y019970D01*
X015174Y020030D01*
X015152Y020091D01*
X015161Y020094D01*
X015182Y020033D01*
X015207Y019974D01*
X015235Y019916D01*
X015267Y019860D01*
X015302Y019806D01*
X015340Y019755D01*
X015381Y019705D01*
X015425Y019658D01*
X015472Y019614D01*
X015521Y019573D01*
X015573Y019535D01*
X015627Y019500D01*
X015683Y019469D01*
X015741Y019441D01*
X015800Y019416D01*
X015861Y019395D01*
X015923Y019378D01*
X015986Y019364D01*
X016049Y019355D01*
X016113Y019349D01*
X016178Y019347D01*
X016242Y019349D01*
X016306Y019355D01*
X016369Y019364D01*
X016432Y019378D01*
X016494Y019395D01*
X016555Y019416D01*
X016614Y019440D01*
X016672Y019468D01*
X016728Y019500D01*
X016782Y019535D01*
X016834Y019573D01*
X016828Y019580D01*
X016777Y019542D01*
X016723Y019508D01*
X016668Y019476D01*
X016611Y019449D01*
X016552Y019424D01*
X016491Y019404D01*
X016430Y019386D01*
X016368Y019373D01*
X016305Y019364D01*
X016241Y019358D01*
X016177Y019356D01*
X016114Y019358D01*
X016050Y019364D01*
X015987Y019373D01*
X015925Y019387D01*
X015864Y019404D01*
X015803Y019425D01*
X015745Y019449D01*
X015687Y019477D01*
X015632Y019508D01*
X015578Y019543D01*
X015527Y019580D01*
X015478Y019621D01*
X015431Y019665D01*
X015388Y019711D01*
X015347Y019760D01*
X015309Y019811D01*
X015274Y019865D01*
X015243Y019920D01*
X015215Y019978D01*
X015190Y020036D01*
X015169Y020097D01*
X015178Y020099D01*
X015199Y020040D01*
X015223Y019981D01*
X015251Y019924D01*
X015282Y019869D01*
X015316Y019816D01*
X015354Y019766D01*
X015394Y019717D01*
X015438Y019671D01*
X015484Y019628D01*
X015532Y019588D01*
X015583Y019550D01*
X015636Y019516D01*
X015691Y019485D01*
X015748Y019457D01*
X015807Y019433D01*
X015866Y019412D01*
X015927Y019395D01*
X015989Y019382D01*
X016051Y019373D01*
X016114Y019367D01*
X016177Y019365D01*
X016241Y019367D01*
X016304Y019373D01*
X016366Y019382D01*
X016428Y019395D01*
X016489Y019412D01*
X016548Y019433D01*
X016607Y019457D01*
X016664Y019484D01*
X016719Y019515D01*
X016772Y019550D01*
X016823Y019587D01*
X016817Y019594D01*
X016767Y019557D01*
X016714Y019523D01*
X016659Y019492D01*
X016603Y019465D01*
X016545Y019441D01*
X016486Y019421D01*
X016426Y019404D01*
X016364Y019391D01*
X016302Y019381D01*
X016240Y019376D01*
X016177Y019374D01*
X016115Y019376D01*
X016052Y019382D01*
X015991Y019391D01*
X015929Y019404D01*
X015869Y019421D01*
X015810Y019441D01*
X015752Y019465D01*
X015696Y019493D01*
X015641Y019524D01*
X015588Y019557D01*
X015538Y019595D01*
X015490Y019635D01*
X015444Y019678D01*
X015401Y019723D01*
X015361Y019771D01*
X015324Y019822D01*
X015290Y019874D01*
X015259Y019929D01*
X015231Y019985D01*
X015207Y020043D01*
X015187Y020102D01*
X015195Y020105D01*
X015216Y020044D01*
X015241Y019985D01*
X015270Y019927D01*
X015302Y019872D01*
X015337Y019818D01*
X015376Y019767D01*
X015417Y019719D01*
X015462Y019673D01*
X015509Y019630D01*
X015559Y019589D01*
X015612Y019553D01*
X015666Y019519D01*
X015723Y019489D01*
X015781Y019462D01*
X015841Y019440D01*
X015902Y019421D01*
X015965Y019405D01*
X016028Y019394D01*
X016091Y019387D01*
X016155Y019383D01*
X016220Y019384D01*
X016283Y019388D01*
X016347Y019397D01*
X016410Y019409D01*
X016472Y019426D01*
X016533Y019446D01*
X016592Y019470D01*
X016650Y019497D01*
X016706Y019529D01*
X016760Y019563D01*
X016812Y019601D01*
X016839Y021260D02*
X016808Y021221D01*
X016809Y021221D02*
X016757Y021259D01*
X016703Y021293D01*
X016648Y021324D01*
X016590Y021352D01*
X016531Y021375D01*
X016470Y021395D01*
X016409Y021412D01*
X016346Y021424D01*
X016283Y021433D01*
X016219Y021437D01*
X016156Y021438D01*
X016092Y021434D01*
X016028Y021427D01*
X015966Y021416D01*
X015904Y021401D01*
X015843Y021382D01*
X015783Y021359D01*
X015725Y021333D01*
X015669Y021303D01*
X015615Y021269D01*
X015562Y021233D01*
X015513Y021193D01*
X015465Y021150D01*
X015421Y021104D01*
X015379Y021056D01*
X015341Y021005D01*
X015306Y020951D01*
X015274Y020896D01*
X015246Y020839D01*
X015221Y020780D01*
X015200Y020720D01*
X015153Y020734D01*
X015152Y020735D01*
X015174Y020796D01*
X015198Y020856D01*
X015227Y020914D01*
X015259Y020970D01*
X015294Y021025D01*
X015333Y021077D01*
X015374Y021127D01*
X015419Y021174D01*
X015466Y021218D01*
X015516Y021260D01*
X015568Y021298D01*
X015622Y021333D01*
X015679Y021365D01*
X015737Y021393D01*
X015797Y021418D01*
X015858Y021439D01*
X015921Y021457D01*
X015984Y021470D01*
X016048Y021480D01*
X016113Y021486D01*
X016178Y021488D01*
X016242Y021486D01*
X016307Y021480D01*
X016371Y021471D01*
X016434Y021457D01*
X016497Y021440D01*
X016558Y021419D01*
X016618Y021394D01*
X016676Y021366D01*
X016733Y021334D01*
X016787Y021299D01*
X016840Y021260D01*
X016834Y021253D01*
X016782Y021291D01*
X016728Y021326D01*
X016672Y021358D01*
X016614Y021386D01*
X016555Y021410D01*
X016494Y021431D01*
X016432Y021448D01*
X016369Y021462D01*
X016306Y021471D01*
X016242Y021477D01*
X016178Y021479D01*
X016113Y021477D01*
X016049Y021471D01*
X015986Y021462D01*
X015923Y021448D01*
X015861Y021431D01*
X015800Y021410D01*
X015741Y021385D01*
X015683Y021357D01*
X015627Y021326D01*
X015573Y021291D01*
X015521Y021253D01*
X015472Y021212D01*
X015425Y021168D01*
X015381Y021121D01*
X015340Y021071D01*
X015302Y021020D01*
X015267Y020966D01*
X015235Y020910D01*
X015207Y020852D01*
X015182Y020793D01*
X015161Y020732D01*
X015169Y020729D01*
X015190Y020790D01*
X015215Y020848D01*
X015243Y020906D01*
X015274Y020961D01*
X015309Y021015D01*
X015347Y021066D01*
X015388Y021115D01*
X015431Y021161D01*
X015478Y021205D01*
X015527Y021246D01*
X015578Y021283D01*
X015632Y021318D01*
X015687Y021349D01*
X015745Y021377D01*
X015803Y021401D01*
X015864Y021422D01*
X015925Y021439D01*
X015987Y021453D01*
X016050Y021462D01*
X016114Y021468D01*
X016177Y021470D01*
X016241Y021468D01*
X016305Y021462D01*
X016368Y021453D01*
X016430Y021440D01*
X016491Y021422D01*
X016552Y021402D01*
X016611Y021377D01*
X016668Y021350D01*
X016723Y021318D01*
X016777Y021284D01*
X016828Y021246D01*
X016823Y021239D01*
X016772Y021276D01*
X016719Y021311D01*
X016664Y021342D01*
X016607Y021369D01*
X016548Y021393D01*
X016489Y021414D01*
X016428Y021431D01*
X016366Y021444D01*
X016304Y021453D01*
X016241Y021459D01*
X016177Y021461D01*
X016114Y021459D01*
X016051Y021453D01*
X015989Y021444D01*
X015927Y021431D01*
X015866Y021414D01*
X015807Y021393D01*
X015748Y021369D01*
X015691Y021341D01*
X015636Y021310D01*
X015583Y021276D01*
X015532Y021238D01*
X015484Y021198D01*
X015438Y021155D01*
X015394Y021109D01*
X015354Y021060D01*
X015316Y021010D01*
X015282Y020957D01*
X015251Y020902D01*
X015223Y020845D01*
X015199Y020786D01*
X015178Y020727D01*
X015187Y020724D01*
X015207Y020783D01*
X015231Y020841D01*
X015259Y020897D01*
X015290Y020952D01*
X015324Y021004D01*
X015361Y021055D01*
X015401Y021103D01*
X015444Y021148D01*
X015490Y021191D01*
X015538Y021231D01*
X015588Y021269D01*
X015641Y021302D01*
X015696Y021333D01*
X015752Y021361D01*
X015810Y021385D01*
X015869Y021405D01*
X015929Y021422D01*
X015991Y021435D01*
X016052Y021444D01*
X016115Y021450D01*
X016177Y021452D01*
X016240Y021450D01*
X016302Y021445D01*
X016364Y021435D01*
X016426Y021422D01*
X016486Y021405D01*
X016545Y021385D01*
X016603Y021361D01*
X016659Y021334D01*
X016714Y021303D01*
X016767Y021269D01*
X016817Y021232D01*
X016812Y021225D01*
X016760Y021263D01*
X016706Y021297D01*
X016650Y021329D01*
X016592Y021356D01*
X016533Y021380D01*
X016472Y021400D01*
X016410Y021417D01*
X016347Y021429D01*
X016283Y021438D01*
X016220Y021442D01*
X016155Y021443D01*
X016091Y021439D01*
X016028Y021432D01*
X015965Y021421D01*
X015902Y021405D01*
X015841Y021386D01*
X015781Y021364D01*
X015723Y021337D01*
X015666Y021307D01*
X015612Y021273D01*
X015559Y021237D01*
X015509Y021196D01*
X015462Y021153D01*
X015417Y021107D01*
X015376Y021059D01*
X015337Y021008D01*
X015302Y020954D01*
X015270Y020899D01*
X015241Y020841D01*
X015216Y020782D01*
X015195Y020721D01*
D13*
X011199Y015339D02*
X010974Y015113D01*
X011274Y015113D01*
X011199Y014888D02*
X011199Y015339D01*
X010814Y015264D02*
X010738Y015339D01*
X010588Y015339D01*
X010513Y015264D01*
X010513Y014963D01*
X010588Y014888D01*
X010738Y014888D01*
X010814Y014963D01*
X010357Y014888D02*
X010206Y014888D01*
X010281Y014888D02*
X010281Y015339D01*
X010206Y015339D02*
X010357Y015339D01*
X006006Y015338D02*
X006006Y015188D01*
X006006Y015263D02*
X005556Y015263D01*
X005556Y015188D02*
X005556Y015338D01*
X005631Y015495D02*
X005556Y015570D01*
X005556Y015720D01*
X005631Y015795D01*
X005706Y015955D02*
X005556Y016106D01*
X006006Y016106D01*
X006006Y016256D02*
X006006Y015955D01*
X005931Y015795D02*
X006006Y015720D01*
X006006Y015570D01*
X005931Y015495D01*
X005631Y015495D01*
X009966Y011909D02*
X009966Y009917D01*
X011698Y009917D01*
X011698Y011909D01*
X009966Y011909D01*
X010084Y011779D02*
X010086Y011788D01*
X010092Y011795D01*
X010100Y011798D01*
X010108Y011798D01*
X010116Y011795D01*
X010122Y011788D01*
X010124Y011779D01*
X010122Y011770D01*
X010116Y011763D01*
X010108Y011760D01*
X010100Y011760D01*
X010092Y011763D01*
X010086Y011770D01*
X010084Y011779D01*
X014412Y011852D02*
X014487Y011777D01*
X014637Y011777D01*
X014712Y011852D01*
X014712Y012152D01*
X014637Y012227D01*
X014487Y012227D01*
X014412Y012152D01*
X014412Y011852D01*
X014562Y011927D02*
X014712Y011777D01*
X014872Y011777D02*
X015173Y011777D01*
X015023Y011777D02*
X015023Y012227D01*
X014872Y012077D01*
X018384Y012413D02*
X018384Y007513D01*
X018734Y007513D01*
X018734Y006913D01*
X018384Y006913D01*
X018384Y006163D01*
X022484Y006163D01*
X022484Y006913D01*
X022134Y006913D01*
X022134Y007513D01*
X022484Y007513D01*
X022484Y012413D01*
X018384Y012413D01*
X019928Y008789D02*
X020042Y008675D01*
X020042Y008448D01*
X020174Y008448D02*
X020401Y008448D01*
X020287Y008448D02*
X020287Y008789D01*
X020174Y008675D01*
X020042Y008618D02*
X019815Y008618D01*
X019815Y008675D02*
X019928Y008789D01*
X019815Y008675D02*
X019815Y008448D01*
X020533Y008448D02*
X020533Y008505D01*
X020760Y008732D01*
X020760Y008789D01*
X020533Y008789D01*
X020949Y008505D02*
X020949Y008448D01*
X021005Y008448D01*
X021005Y008505D01*
X020949Y008505D01*
X021005Y008448D02*
X020892Y008335D01*
X021131Y008505D02*
X021188Y008448D01*
X021301Y008448D01*
X021358Y008505D01*
X021358Y008618D01*
X021301Y008675D01*
X021245Y008675D01*
X021131Y008618D01*
X021131Y008789D01*
X021358Y008789D01*
X021490Y008675D02*
X021547Y008675D01*
X021604Y008618D01*
X021661Y008675D01*
X021717Y008618D01*
X021717Y008448D01*
X021604Y008448D02*
X021604Y008618D01*
X021490Y008675D02*
X021490Y008448D01*
X021850Y008448D02*
X021850Y008675D01*
X021906Y008675D01*
X021963Y008618D01*
X022020Y008675D01*
X022076Y008618D01*
X022076Y008448D01*
X021963Y008448D02*
X021963Y008618D01*
X019724Y007513D02*
X019727Y007578D01*
X019736Y007642D01*
X019750Y007705D01*
X019771Y007766D01*
X019796Y007825D01*
X019827Y007882D01*
X019863Y007936D01*
X019904Y007986D01*
X019949Y008032D01*
X019999Y008074D01*
X020051Y008111D01*
X020107Y008143D01*
X020166Y008170D01*
X020227Y008192D01*
X020290Y008208D01*
X020353Y008218D01*
X020418Y008223D01*
X020482Y008221D01*
X020547Y008214D01*
X020610Y008201D01*
X020672Y008182D01*
X020732Y008158D01*
X020789Y008128D01*
X020843Y008093D01*
X020894Y008053D01*
X020942Y008009D01*
X020985Y007961D01*
X021023Y007909D01*
X021057Y007854D01*
X021085Y007796D01*
X021108Y007735D01*
X021126Y007673D01*
X021137Y007610D01*
X021143Y007545D01*
X021143Y007481D01*
X021137Y007416D01*
X021126Y007353D01*
X021108Y007291D01*
X021085Y007230D01*
X021057Y007172D01*
X021023Y007117D01*
X020985Y007065D01*
X020942Y007017D01*
X020894Y006973D01*
X020843Y006933D01*
X020789Y006898D01*
X020732Y006868D01*
X020672Y006844D01*
X020610Y006825D01*
X020547Y006812D01*
X020482Y006805D01*
X020418Y006803D01*
X020353Y006808D01*
X020290Y006818D01*
X020227Y006834D01*
X020166Y006856D01*
X020107Y006883D01*
X020051Y006915D01*
X019999Y006952D01*
X019949Y006994D01*
X019904Y007040D01*
X019863Y007090D01*
X019827Y007144D01*
X019796Y007201D01*
X019771Y007260D01*
X019750Y007321D01*
X019736Y007384D01*
X019727Y007448D01*
X019724Y007513D01*
D14*
X010867Y010426D02*
X010867Y010579D01*
X010867Y010502D02*
X010407Y010502D01*
X010407Y010426D02*
X010407Y010579D01*
X010484Y010732D02*
X010791Y010732D01*
X010867Y010809D01*
X010867Y010963D01*
X010791Y011039D01*
X010867Y011193D02*
X010560Y011500D01*
X010484Y011500D01*
X010407Y011423D01*
X010407Y011270D01*
X010484Y011193D01*
X010484Y011039D02*
X010407Y010963D01*
X010407Y010809D01*
X010484Y010732D01*
X010867Y011193D02*
X010867Y011500D01*
X015651Y022087D02*
X015771Y022087D01*
X015711Y022087D02*
X015711Y022447D01*
X015651Y022447D02*
X015771Y022447D01*
X015897Y022387D02*
X015897Y022147D01*
X015957Y022087D01*
X016077Y022087D01*
X016137Y022147D01*
X016265Y022147D02*
X016325Y022087D01*
X016445Y022087D01*
X016505Y022147D01*
X016505Y022207D01*
X016445Y022267D01*
X016385Y022267D01*
X016445Y022267D02*
X016505Y022327D01*
X016505Y022387D01*
X016445Y022447D01*
X016325Y022447D01*
X016265Y022387D01*
X016137Y022387D02*
X016077Y022447D01*
X015957Y022447D01*
X015897Y022387D01*
D15*
X019117Y020379D02*
X019302Y020379D01*
X019364Y020318D01*
X019364Y020194D01*
X019302Y020132D01*
X019117Y020132D01*
X019117Y020009D02*
X019117Y020379D01*
X019241Y020132D02*
X019364Y020009D01*
X019486Y020009D02*
X019732Y020009D01*
X019609Y020009D02*
X019609Y020379D01*
X019486Y020256D01*
X019854Y020318D02*
X019854Y020071D01*
X020101Y020318D01*
X020101Y020071D01*
X020039Y020009D01*
X019916Y020009D01*
X019854Y020071D01*
X019854Y020318D02*
X019916Y020379D01*
X020039Y020379D01*
X020101Y020318D01*
X015312Y018237D02*
X015312Y018175D01*
X015250Y018113D01*
X015312Y018052D01*
X015312Y017990D01*
X015250Y017928D01*
X015126Y017928D01*
X015065Y017990D01*
X014943Y017990D02*
X014882Y017928D01*
X014758Y017928D01*
X014696Y017990D01*
X014696Y018237D01*
X014758Y018299D01*
X014882Y018299D01*
X014943Y018237D01*
X015065Y018237D02*
X015126Y018299D01*
X015250Y018299D01*
X015312Y018237D01*
X015250Y018113D02*
X015188Y018113D01*
X014465Y019557D02*
X014218Y019557D01*
X014156Y019619D01*
X014156Y019742D01*
X014218Y019804D01*
X014341Y019926D02*
X014341Y020172D01*
X014156Y020111D02*
X014341Y019926D01*
X014465Y019804D02*
X014526Y019742D01*
X014526Y019619D01*
X014465Y019557D01*
X014526Y020111D02*
X014156Y020111D01*
X012818Y020054D02*
X012818Y020178D01*
X012757Y020240D01*
X012695Y020240D01*
X012633Y020178D01*
X012633Y019993D01*
X012757Y019993D01*
X012818Y020054D01*
X012757Y019871D02*
X012818Y019810D01*
X012818Y019686D01*
X012757Y019624D01*
X012510Y019624D01*
X012448Y019686D01*
X012448Y019810D01*
X012510Y019871D01*
X012633Y019993D02*
X012510Y020116D01*
X012448Y020240D01*
X011324Y021528D02*
X011077Y021528D01*
X011324Y021775D01*
X011324Y021837D01*
X011262Y021899D01*
X011139Y021899D01*
X011077Y021837D01*
X010956Y021837D02*
X010894Y021899D01*
X010770Y021899D01*
X010709Y021837D01*
X010709Y021590D01*
X010770Y021528D01*
X010894Y021528D01*
X010956Y021590D01*
X011209Y023028D02*
X011147Y023090D01*
X011147Y023337D01*
X011209Y023399D01*
X011332Y023399D01*
X011394Y023337D01*
X011515Y023275D02*
X011639Y023399D01*
X011639Y023028D01*
X011762Y023028D02*
X011515Y023028D01*
X011394Y023090D02*
X011332Y023028D01*
X011209Y023028D01*
X010325Y020261D02*
X010325Y020014D01*
X010139Y020199D01*
X010510Y020199D01*
X010510Y019893D02*
X010386Y019769D01*
X010386Y019831D02*
X010386Y019646D01*
X010510Y019646D02*
X010139Y019646D01*
X010139Y019831D01*
X010201Y019893D01*
X010325Y019893D01*
X010386Y019831D01*
X009163Y019895D02*
X009039Y019772D01*
X009039Y019834D02*
X009039Y019648D01*
X009163Y019648D02*
X008792Y019648D01*
X008792Y019834D01*
X008854Y019895D01*
X008977Y019895D01*
X009039Y019834D01*
X008977Y020017D02*
X008916Y020140D01*
X008916Y020202D01*
X008977Y020264D01*
X009101Y020264D01*
X009163Y020202D01*
X009163Y020078D01*
X009101Y020017D01*
X008977Y020017D02*
X008792Y020017D01*
X008792Y020264D01*
X007516Y018243D02*
X007516Y017997D01*
X007516Y017875D02*
X007393Y017752D01*
X007393Y017813D02*
X007393Y017628D01*
X007516Y017628D02*
X007146Y017628D01*
X007146Y017813D01*
X007208Y017875D01*
X007331Y017875D01*
X007393Y017813D01*
X007270Y017997D02*
X007146Y018120D01*
X007516Y018120D01*
X010446Y018237D02*
X010446Y017990D01*
X010508Y017928D01*
X010632Y017928D01*
X010693Y017990D01*
X010815Y017990D02*
X010876Y017928D01*
X011000Y017928D01*
X011062Y017990D01*
X011062Y018113D01*
X011000Y018175D01*
X010938Y018175D01*
X010815Y018113D01*
X010815Y018299D01*
X011062Y018299D01*
X010693Y018237D02*
X010632Y018299D01*
X010508Y018299D01*
X010446Y018237D01*
X008882Y014786D02*
X008758Y014786D01*
X008696Y014725D01*
X008575Y014725D02*
X008575Y014601D01*
X008513Y014540D01*
X008328Y014540D01*
X008452Y014540D02*
X008575Y014416D01*
X008696Y014416D02*
X008943Y014663D01*
X008943Y014725D01*
X008882Y014786D01*
X008575Y014725D02*
X008513Y014786D01*
X008328Y014786D01*
X008328Y014416D01*
X008696Y014416D02*
X008943Y014416D01*
X008216Y013660D02*
X008155Y013660D01*
X007908Y013907D01*
X007846Y013907D01*
X007846Y013660D01*
X007908Y013538D02*
X007846Y013477D01*
X007846Y013353D01*
X007908Y013292D01*
X008155Y013292D01*
X008216Y013353D01*
X008216Y013477D01*
X008155Y013538D01*
X010396Y013452D02*
X010582Y013452D01*
X010643Y013513D01*
X010643Y013637D01*
X010582Y013699D01*
X010396Y013699D01*
X010396Y013328D01*
X010520Y013452D02*
X010643Y013328D01*
X010765Y013390D02*
X010826Y013328D01*
X010950Y013328D01*
X011012Y013390D01*
X011012Y013637D01*
X010950Y013699D01*
X010826Y013699D01*
X010765Y013637D01*
X010765Y013575D01*
X010826Y013513D01*
X011012Y013513D01*
X008112Y010240D02*
X007988Y010240D01*
X007927Y010178D01*
X007927Y010117D01*
X007988Y010055D01*
X008173Y010055D01*
X008173Y010178D02*
X008112Y010240D01*
X008173Y010178D02*
X008173Y009931D01*
X008112Y009870D01*
X007988Y009870D01*
X007927Y009931D01*
X007805Y009931D02*
X007743Y009870D01*
X007620Y009870D01*
X007558Y009931D01*
X007558Y010178D01*
X007620Y010240D01*
X007743Y010240D01*
X007805Y010178D01*
X009510Y008249D02*
X009695Y008249D01*
X009757Y008187D01*
X009757Y008063D01*
X009695Y008002D01*
X009510Y008002D01*
X009633Y008002D02*
X009757Y007878D01*
X009878Y007940D02*
X009940Y007878D01*
X010063Y007878D01*
X010125Y007940D01*
X010125Y008002D01*
X010063Y008063D01*
X009878Y008063D01*
X009878Y007940D01*
X009878Y008063D02*
X010002Y008187D01*
X010125Y008249D01*
X009510Y008249D02*
X009510Y007878D01*
X009596Y007099D02*
X009782Y007099D01*
X009843Y007037D01*
X009843Y006913D01*
X009782Y006852D01*
X009596Y006852D01*
X009596Y006728D02*
X009596Y007099D01*
X009720Y006852D02*
X009843Y006728D01*
X009965Y006728D02*
X010212Y006728D01*
X010333Y006728D02*
X010580Y006728D01*
X010456Y006728D02*
X010456Y007099D01*
X010333Y006975D01*
X010088Y007099D02*
X010088Y006728D01*
X009965Y006975D02*
X010088Y007099D01*
X014696Y007990D02*
X014758Y007928D01*
X014882Y007928D01*
X014943Y007990D01*
X015065Y007990D02*
X015065Y008052D01*
X015126Y008113D01*
X015250Y008113D01*
X015312Y008052D01*
X015312Y007990D01*
X015250Y007928D01*
X015126Y007928D01*
X015065Y007990D01*
X015126Y008113D02*
X015065Y008175D01*
X015065Y008237D01*
X015126Y008299D01*
X015250Y008299D01*
X015312Y008237D01*
X015312Y008175D01*
X015250Y008113D01*
X014943Y008237D02*
X014882Y008299D01*
X014758Y008299D01*
X014696Y008237D01*
X014696Y007990D01*
X017129Y012984D02*
X017252Y012984D01*
X017314Y013046D01*
X017314Y013293D01*
X017252Y013354D01*
X017129Y013354D01*
X017067Y013293D01*
X017067Y013046D01*
X017129Y012984D01*
X017435Y012984D02*
X017435Y013354D01*
X017620Y013354D01*
X017682Y013293D01*
X017682Y013169D01*
X017620Y013107D01*
X017435Y013107D01*
X017803Y012984D02*
X018050Y012984D01*
X017927Y012984D02*
X017927Y013354D01*
X017803Y013231D01*
X020989Y015542D02*
X021050Y015480D01*
X021297Y015480D01*
X021359Y015542D01*
X021359Y015666D01*
X021297Y015727D01*
X021359Y015849D02*
X021359Y016096D01*
X021359Y015972D02*
X020989Y015972D01*
X021112Y015849D01*
X021050Y015727D02*
X020989Y015666D01*
X020989Y015542D01*
X020466Y015742D02*
X020096Y015742D01*
X020096Y015927D01*
X020158Y015988D01*
X020281Y015988D01*
X020343Y015927D01*
X020343Y015742D01*
X020343Y015865D02*
X020466Y015988D01*
X020405Y016110D02*
X020343Y016110D01*
X020281Y016172D01*
X020281Y016295D01*
X020343Y016357D01*
X020405Y016357D01*
X020466Y016295D01*
X020466Y016172D01*
X020405Y016110D01*
X020281Y016172D02*
X020220Y016110D01*
X020158Y016110D01*
X020096Y016172D01*
X020096Y016295D01*
X020158Y016357D01*
X020220Y016357D01*
X020281Y016295D01*
X020989Y016279D02*
X020989Y016402D01*
X021050Y016464D01*
X021297Y016217D01*
X021359Y016279D01*
X021359Y016402D01*
X021297Y016464D01*
X021050Y016464D01*
X020989Y016279D02*
X021050Y016217D01*
X021297Y016217D01*
X019217Y016233D02*
X018847Y016233D01*
X018971Y016110D01*
X018909Y015989D02*
X018847Y015927D01*
X018847Y015803D01*
X018909Y015742D01*
X019156Y015742D01*
X019217Y015803D01*
X019217Y015927D01*
X019156Y015989D01*
X019217Y016110D02*
X019217Y016357D01*
X019217Y016478D02*
X019217Y016725D01*
X019217Y016602D02*
X018847Y016602D01*
X018971Y016478D01*
X018266Y016247D02*
X018205Y016247D01*
X017958Y016493D01*
X017896Y016493D01*
X017896Y016247D01*
X017958Y016125D02*
X018081Y016125D01*
X018143Y016063D01*
X018143Y015878D01*
X018266Y015878D02*
X017896Y015878D01*
X017896Y016063D01*
X017958Y016125D01*
X018143Y016002D02*
X018266Y016125D01*
X004875Y012187D02*
X004875Y012125D01*
X004813Y012063D01*
X004875Y012002D01*
X004875Y011940D01*
X004813Y011878D01*
X004690Y011878D01*
X004628Y011940D01*
X004507Y011878D02*
X004383Y012002D01*
X004445Y012002D02*
X004260Y012002D01*
X004260Y011878D02*
X004260Y012249D01*
X004445Y012249D01*
X004507Y012187D01*
X004507Y012063D01*
X004445Y012002D01*
X004628Y012187D02*
X004690Y012249D01*
X004813Y012249D01*
X004875Y012187D01*
X004813Y012063D02*
X004752Y012063D01*
D16*
X019784Y007513D02*
X019787Y007572D01*
X019795Y007631D01*
X019808Y007688D01*
X019827Y007745D01*
X019850Y007799D01*
X019879Y007851D01*
X019912Y007900D01*
X019949Y007946D01*
X019990Y007988D01*
X020035Y008026D01*
X020084Y008061D01*
X020135Y008090D01*
X020189Y008115D01*
X020244Y008135D01*
X020302Y008149D01*
X020360Y008159D01*
X020419Y008163D01*
X020478Y008161D01*
X020537Y008155D01*
X020595Y008143D01*
X020652Y008125D01*
X020706Y008103D01*
X020759Y008076D01*
X020809Y008044D01*
X020856Y008008D01*
X020899Y007967D01*
X020938Y007923D01*
X020973Y007876D01*
X021004Y007825D01*
X021030Y007772D01*
X021051Y007717D01*
X021067Y007660D01*
X021078Y007602D01*
X021083Y007543D01*
X021083Y007483D01*
X021078Y007424D01*
X021067Y007366D01*
X021051Y007309D01*
X021030Y007254D01*
X021004Y007201D01*
X020973Y007150D01*
X020938Y007103D01*
X020899Y007059D01*
X020856Y007018D01*
X020809Y006982D01*
X020759Y006950D01*
X020706Y006923D01*
X020652Y006901D01*
X020595Y006883D01*
X020537Y006871D01*
X020478Y006865D01*
X020419Y006863D01*
X020360Y006867D01*
X020302Y006877D01*
X020244Y006891D01*
X020189Y006911D01*
X020135Y006936D01*
X020084Y006965D01*
X020035Y007000D01*
X019990Y007038D01*
X019949Y007080D01*
X019912Y007126D01*
X019879Y007175D01*
X019850Y007227D01*
X019827Y007281D01*
X019808Y007338D01*
X019795Y007395D01*
X019787Y007454D01*
X019784Y007513D01*
D17*
X018634Y008913D02*
X022234Y008913D01*
X022234Y012163D01*
X018634Y012163D01*
X018634Y008913D01*
X005301Y014663D02*
X005301Y016663D01*
D18*
X019434Y013638D03*
X020434Y013638D03*
X021434Y013638D03*
D19*
X021434Y012963D03*
X020434Y012963D03*
X019434Y012963D03*
D20*
X019495Y010829D02*
X019600Y010724D01*
X019600Y010303D01*
X019495Y010198D01*
X019285Y010198D01*
X019180Y010303D01*
X019180Y010724D01*
X019285Y010829D01*
X019495Y010829D01*
X019824Y010724D02*
X019929Y010829D01*
X020139Y010829D01*
X020244Y010724D01*
X020244Y010619D01*
X019824Y010198D01*
X020244Y010198D01*
X019600Y010198D02*
X019390Y010408D01*
D21*
X014102Y011002D03*
X014102Y011402D03*
D22*
X014087Y011402D02*
X013887Y011402D01*
X013887Y011002D02*
X014037Y011002D01*
D23*
X009329Y008854D03*
X009034Y008854D03*
D24*
X009181Y008854D03*
M02*
