G75*
G70*
%OFA0B0*%
%FSLAX24Y24*%
%IPPOS*%
%LPD*%
%AMOC8*
5,1,8,0,0,1.08239X$1,22.5*
%
%ADD10C,0.0000*%
%ADD11C,0.0030*%
%ADD12C,0.0040*%
%ADD13C,0.0060*%
%ADD14C,0.0050*%
D10*
X001643Y001461D02*
X001643Y014961D01*
X016643Y014961D01*
X016643Y001461D01*
X001643Y001461D01*
X002013Y002461D02*
X002016Y002518D01*
X002023Y002575D01*
X002036Y002631D01*
X002054Y002685D01*
X002077Y002738D01*
X002105Y002788D01*
X002137Y002836D01*
X002173Y002880D01*
X002213Y002921D01*
X002257Y002959D01*
X002303Y002992D01*
X002353Y003020D01*
X002405Y003044D01*
X002459Y003064D01*
X002515Y003078D01*
X002571Y003087D01*
X002629Y003091D01*
X002686Y003090D01*
X002743Y003083D01*
X002799Y003071D01*
X002854Y003055D01*
X002907Y003033D01*
X002958Y003007D01*
X003006Y002976D01*
X003052Y002941D01*
X003094Y002901D01*
X003132Y002859D01*
X003166Y002812D01*
X003196Y002763D01*
X003221Y002712D01*
X003241Y002658D01*
X003257Y002603D01*
X003267Y002547D01*
X003272Y002490D01*
X003272Y002432D01*
X003267Y002375D01*
X003257Y002319D01*
X003241Y002264D01*
X003221Y002210D01*
X003196Y002159D01*
X003166Y002110D01*
X003132Y002063D01*
X003094Y002021D01*
X003052Y001981D01*
X003006Y001946D01*
X002958Y001915D01*
X002907Y001889D01*
X002854Y001867D01*
X002799Y001851D01*
X002743Y001839D01*
X002686Y001832D01*
X002629Y001831D01*
X002571Y001835D01*
X002515Y001844D01*
X002459Y001858D01*
X002405Y001878D01*
X002353Y001902D01*
X002303Y001930D01*
X002257Y001963D01*
X002213Y002001D01*
X002173Y002042D01*
X002137Y002086D01*
X002105Y002134D01*
X002077Y002184D01*
X002054Y002237D01*
X002036Y002291D01*
X002023Y002347D01*
X002016Y002404D01*
X002013Y002461D01*
X015013Y002461D02*
X015016Y002518D01*
X015023Y002575D01*
X015036Y002631D01*
X015054Y002685D01*
X015077Y002738D01*
X015105Y002788D01*
X015137Y002836D01*
X015173Y002880D01*
X015213Y002921D01*
X015257Y002959D01*
X015303Y002992D01*
X015353Y003020D01*
X015405Y003044D01*
X015459Y003064D01*
X015515Y003078D01*
X015571Y003087D01*
X015629Y003091D01*
X015686Y003090D01*
X015743Y003083D01*
X015799Y003071D01*
X015854Y003055D01*
X015907Y003033D01*
X015958Y003007D01*
X016006Y002976D01*
X016052Y002941D01*
X016094Y002901D01*
X016132Y002859D01*
X016166Y002812D01*
X016196Y002763D01*
X016221Y002712D01*
X016241Y002658D01*
X016257Y002603D01*
X016267Y002547D01*
X016272Y002490D01*
X016272Y002432D01*
X016267Y002375D01*
X016257Y002319D01*
X016241Y002264D01*
X016221Y002210D01*
X016196Y002159D01*
X016166Y002110D01*
X016132Y002063D01*
X016094Y002021D01*
X016052Y001981D01*
X016006Y001946D01*
X015958Y001915D01*
X015907Y001889D01*
X015854Y001867D01*
X015799Y001851D01*
X015743Y001839D01*
X015686Y001832D01*
X015629Y001831D01*
X015571Y001835D01*
X015515Y001844D01*
X015459Y001858D01*
X015405Y001878D01*
X015353Y001902D01*
X015303Y001930D01*
X015257Y001963D01*
X015213Y002001D01*
X015173Y002042D01*
X015137Y002086D01*
X015105Y002134D01*
X015077Y002184D01*
X015054Y002237D01*
X015036Y002291D01*
X015023Y002347D01*
X015016Y002404D01*
X015013Y002461D01*
X015013Y013961D02*
X015016Y014018D01*
X015023Y014075D01*
X015036Y014131D01*
X015054Y014185D01*
X015077Y014238D01*
X015105Y014288D01*
X015137Y014336D01*
X015173Y014380D01*
X015213Y014421D01*
X015257Y014459D01*
X015303Y014492D01*
X015353Y014520D01*
X015405Y014544D01*
X015459Y014564D01*
X015515Y014578D01*
X015571Y014587D01*
X015629Y014591D01*
X015686Y014590D01*
X015743Y014583D01*
X015799Y014571D01*
X015854Y014555D01*
X015907Y014533D01*
X015958Y014507D01*
X016006Y014476D01*
X016052Y014441D01*
X016094Y014401D01*
X016132Y014359D01*
X016166Y014312D01*
X016196Y014263D01*
X016221Y014212D01*
X016241Y014158D01*
X016257Y014103D01*
X016267Y014047D01*
X016272Y013990D01*
X016272Y013932D01*
X016267Y013875D01*
X016257Y013819D01*
X016241Y013764D01*
X016221Y013710D01*
X016196Y013659D01*
X016166Y013610D01*
X016132Y013563D01*
X016094Y013521D01*
X016052Y013481D01*
X016006Y013446D01*
X015958Y013415D01*
X015907Y013389D01*
X015854Y013367D01*
X015799Y013351D01*
X015743Y013339D01*
X015686Y013332D01*
X015629Y013331D01*
X015571Y013335D01*
X015515Y013344D01*
X015459Y013358D01*
X015405Y013378D01*
X015353Y013402D01*
X015303Y013430D01*
X015257Y013463D01*
X015213Y013501D01*
X015173Y013542D01*
X015137Y013586D01*
X015105Y013634D01*
X015077Y013684D01*
X015054Y013737D01*
X015036Y013791D01*
X015023Y013847D01*
X015016Y013904D01*
X015013Y013961D01*
X002013Y013961D02*
X002016Y014018D01*
X002023Y014075D01*
X002036Y014131D01*
X002054Y014185D01*
X002077Y014238D01*
X002105Y014288D01*
X002137Y014336D01*
X002173Y014380D01*
X002213Y014421D01*
X002257Y014459D01*
X002303Y014492D01*
X002353Y014520D01*
X002405Y014544D01*
X002459Y014564D01*
X002515Y014578D01*
X002571Y014587D01*
X002629Y014591D01*
X002686Y014590D01*
X002743Y014583D01*
X002799Y014571D01*
X002854Y014555D01*
X002907Y014533D01*
X002958Y014507D01*
X003006Y014476D01*
X003052Y014441D01*
X003094Y014401D01*
X003132Y014359D01*
X003166Y014312D01*
X003196Y014263D01*
X003221Y014212D01*
X003241Y014158D01*
X003257Y014103D01*
X003267Y014047D01*
X003272Y013990D01*
X003272Y013932D01*
X003267Y013875D01*
X003257Y013819D01*
X003241Y013764D01*
X003221Y013710D01*
X003196Y013659D01*
X003166Y013610D01*
X003132Y013563D01*
X003094Y013521D01*
X003052Y013481D01*
X003006Y013446D01*
X002958Y013415D01*
X002907Y013389D01*
X002854Y013367D01*
X002799Y013351D01*
X002743Y013339D01*
X002686Y013332D01*
X002629Y013331D01*
X002571Y013335D01*
X002515Y013344D01*
X002459Y013358D01*
X002405Y013378D01*
X002353Y013402D01*
X002303Y013430D01*
X002257Y013463D01*
X002213Y013501D01*
X002173Y013542D01*
X002137Y013586D01*
X002105Y013634D01*
X002077Y013684D01*
X002054Y013737D01*
X002036Y013791D01*
X002023Y013847D01*
X002016Y013904D01*
X002013Y013961D01*
D11*
X002243Y013961D02*
X003043Y013961D01*
X002443Y013961D02*
X002445Y013989D01*
X002451Y014017D01*
X002461Y014044D01*
X002475Y014069D01*
X002492Y014092D01*
X002512Y014112D01*
X002535Y014129D01*
X002560Y014143D01*
X002587Y014153D01*
X002615Y014159D01*
X002643Y014161D01*
X002671Y014159D01*
X002699Y014153D01*
X002726Y014143D01*
X002751Y014129D01*
X002774Y014112D01*
X002794Y014092D01*
X002811Y014069D01*
X002825Y014044D01*
X002835Y014017D01*
X002841Y013989D01*
X002843Y013961D01*
X002841Y013933D01*
X002835Y013905D01*
X002825Y013878D01*
X002811Y013853D01*
X002794Y013830D01*
X002774Y013810D01*
X002751Y013793D01*
X002726Y013779D01*
X002699Y013769D01*
X002671Y013763D01*
X002643Y013761D01*
X002615Y013763D01*
X002587Y013769D01*
X002560Y013779D01*
X002535Y013793D01*
X002512Y013810D01*
X002492Y013830D01*
X002475Y013853D01*
X002461Y013878D01*
X002451Y013905D01*
X002445Y013933D01*
X002443Y013961D01*
X002243Y013961D02*
X002245Y014001D01*
X002251Y014042D01*
X002261Y014081D01*
X002275Y014119D01*
X002293Y014155D01*
X002315Y014190D01*
X002339Y014222D01*
X002367Y014251D01*
X002398Y014277D01*
X002431Y014300D01*
X002467Y014320D01*
X002504Y014336D01*
X002543Y014348D01*
X002582Y014356D01*
X002623Y014360D01*
X002663Y014360D01*
X002704Y014356D01*
X002743Y014348D01*
X002782Y014336D01*
X002819Y014320D01*
X002855Y014300D01*
X002888Y014277D01*
X002919Y014251D01*
X002947Y014222D01*
X002971Y014190D01*
X002993Y014155D01*
X003011Y014119D01*
X003025Y014081D01*
X003035Y014042D01*
X003041Y014001D01*
X003043Y013961D01*
X003041Y013921D01*
X003035Y013880D01*
X003025Y013841D01*
X003011Y013803D01*
X002993Y013767D01*
X002971Y013732D01*
X002947Y013700D01*
X002919Y013671D01*
X002888Y013645D01*
X002855Y013622D01*
X002819Y013602D01*
X002782Y013586D01*
X002743Y013574D01*
X002704Y013566D01*
X002663Y013562D01*
X002623Y013562D01*
X002582Y013566D01*
X002543Y013574D01*
X002504Y013586D01*
X002467Y013602D01*
X002431Y013622D01*
X002398Y013645D01*
X002367Y013671D01*
X002339Y013700D01*
X002315Y013732D01*
X002293Y013767D01*
X002275Y013803D01*
X002261Y013841D01*
X002251Y013880D01*
X002245Y013921D01*
X002243Y013961D01*
X002643Y014361D02*
X002643Y013561D01*
X003743Y013611D02*
X004543Y012811D01*
X003743Y012811D01*
X004543Y013611D01*
X003743Y013611D01*
X004743Y013611D02*
X005543Y012811D01*
X004743Y012811D01*
X005543Y013611D01*
X004743Y013611D01*
X005993Y013311D02*
X006793Y014111D01*
X006393Y014111D02*
X006393Y013311D01*
X006793Y013311D02*
X005993Y014111D01*
X006243Y012361D02*
X007043Y011561D01*
X007043Y011361D02*
X006243Y010561D01*
X006243Y010361D02*
X007043Y009561D01*
X006643Y009561D02*
X006643Y010361D01*
X006643Y010561D02*
X006643Y011361D01*
X006643Y011561D02*
X006643Y012361D01*
X007043Y012361D02*
X006243Y011561D01*
X006243Y011361D02*
X007043Y010561D01*
X007043Y010361D02*
X006243Y009561D01*
X006243Y009361D02*
X007043Y008561D01*
X007043Y008361D02*
X006243Y007561D01*
X006243Y007361D02*
X007043Y006561D01*
X007043Y006361D02*
X006243Y005561D01*
X006243Y005361D02*
X007043Y004561D01*
X006643Y004561D02*
X006643Y005361D01*
X006643Y005561D02*
X006643Y006361D01*
X006643Y006561D02*
X006643Y007361D01*
X006643Y007561D02*
X006643Y008361D01*
X006643Y008561D02*
X006643Y009361D01*
X007043Y009361D02*
X006243Y008561D01*
X006243Y008361D02*
X007043Y007561D01*
X007043Y007361D02*
X006243Y006561D01*
X006243Y006361D02*
X007043Y005561D01*
X007043Y005361D02*
X006243Y004561D01*
X006243Y004361D02*
X007043Y003561D01*
X006643Y003561D02*
X006643Y004361D01*
X007043Y004361D02*
X006243Y003561D01*
X007243Y002861D02*
X008043Y002061D01*
X008243Y002061D02*
X009043Y002861D01*
X008643Y002861D02*
X008643Y002061D01*
X009043Y002061D02*
X008243Y002861D01*
X008043Y002861D02*
X007243Y002061D01*
X007643Y002061D02*
X007643Y002861D01*
X009243Y003561D02*
X010043Y004361D01*
X010243Y004061D02*
X011043Y004861D01*
X011043Y005061D02*
X010243Y005861D01*
X010243Y006061D02*
X011043Y006861D01*
X011043Y007061D02*
X010243Y007861D01*
X010243Y008061D02*
X011043Y008861D01*
X011168Y009311D02*
X010368Y010111D01*
X010368Y010311D02*
X011168Y011111D01*
X010768Y011111D02*
X010768Y010311D01*
X011168Y010311D02*
X010368Y011111D01*
X010043Y011361D02*
X009243Y010561D01*
X009243Y010361D02*
X010043Y009561D01*
X009643Y009561D02*
X009643Y010361D01*
X009643Y010561D02*
X009643Y011361D01*
X009643Y011561D02*
X009643Y012361D01*
X010043Y012361D02*
X009243Y011561D01*
X009243Y011361D02*
X010043Y010561D01*
X010043Y010361D02*
X009243Y009561D01*
X009243Y009361D02*
X010043Y008561D01*
X010043Y008361D02*
X009243Y007561D01*
X009243Y007361D02*
X010043Y006561D01*
X010043Y006361D02*
X009243Y005561D01*
X009243Y005361D02*
X010043Y004561D01*
X009643Y004561D02*
X009643Y005361D01*
X009643Y005561D02*
X009643Y006361D01*
X009643Y006561D02*
X009643Y007361D01*
X009643Y007561D02*
X009643Y008361D01*
X009643Y008561D02*
X009643Y009361D01*
X010043Y009361D02*
X009243Y008561D01*
X009243Y008361D02*
X010043Y007561D01*
X010043Y007361D02*
X009243Y006561D01*
X009243Y006361D02*
X010043Y005561D01*
X010043Y005361D02*
X009243Y004561D01*
X009243Y004361D02*
X010043Y003561D01*
X010243Y003861D02*
X011043Y003061D01*
X011043Y002861D02*
X010243Y002061D01*
X010243Y002861D02*
X011043Y002061D01*
X010243Y003061D02*
X011043Y003861D01*
X011043Y004061D02*
X010243Y004861D01*
X010243Y005061D02*
X011043Y005861D01*
X011043Y006061D02*
X010243Y006861D01*
X010243Y007061D02*
X011043Y007861D01*
X011043Y008061D02*
X010243Y008861D01*
X010368Y009311D02*
X011168Y010111D01*
X013868Y010111D02*
X014668Y009311D01*
X013868Y009311D02*
X014668Y010111D01*
X014668Y010311D02*
X013868Y011111D01*
X014268Y011111D02*
X014268Y010311D01*
X013868Y010311D02*
X014668Y011111D01*
X010043Y011561D02*
X009243Y012361D01*
X009993Y013311D02*
X010793Y014111D01*
X010393Y014111D02*
X010393Y013311D01*
X010793Y013311D02*
X009993Y014111D01*
X011368Y014111D02*
X012168Y013311D01*
X011368Y013311D01*
X012168Y014111D01*
X011368Y014111D01*
X012368Y014111D02*
X013168Y013311D01*
X012368Y013311D01*
X013168Y014111D01*
X012368Y014111D01*
X015243Y013961D02*
X016043Y013961D01*
X015443Y013961D02*
X015445Y013989D01*
X015451Y014017D01*
X015461Y014044D01*
X015475Y014069D01*
X015492Y014092D01*
X015512Y014112D01*
X015535Y014129D01*
X015560Y014143D01*
X015587Y014153D01*
X015615Y014159D01*
X015643Y014161D01*
X015671Y014159D01*
X015699Y014153D01*
X015726Y014143D01*
X015751Y014129D01*
X015774Y014112D01*
X015794Y014092D01*
X015811Y014069D01*
X015825Y014044D01*
X015835Y014017D01*
X015841Y013989D01*
X015843Y013961D01*
X015841Y013933D01*
X015835Y013905D01*
X015825Y013878D01*
X015811Y013853D01*
X015794Y013830D01*
X015774Y013810D01*
X015751Y013793D01*
X015726Y013779D01*
X015699Y013769D01*
X015671Y013763D01*
X015643Y013761D01*
X015615Y013763D01*
X015587Y013769D01*
X015560Y013779D01*
X015535Y013793D01*
X015512Y013810D01*
X015492Y013830D01*
X015475Y013853D01*
X015461Y013878D01*
X015451Y013905D01*
X015445Y013933D01*
X015443Y013961D01*
X015243Y013961D02*
X015245Y014001D01*
X015251Y014042D01*
X015261Y014081D01*
X015275Y014119D01*
X015293Y014155D01*
X015315Y014190D01*
X015339Y014222D01*
X015367Y014251D01*
X015398Y014277D01*
X015431Y014300D01*
X015467Y014320D01*
X015504Y014336D01*
X015543Y014348D01*
X015582Y014356D01*
X015623Y014360D01*
X015663Y014360D01*
X015704Y014356D01*
X015743Y014348D01*
X015782Y014336D01*
X015819Y014320D01*
X015855Y014300D01*
X015888Y014277D01*
X015919Y014251D01*
X015947Y014222D01*
X015971Y014190D01*
X015993Y014155D01*
X016011Y014119D01*
X016025Y014081D01*
X016035Y014042D01*
X016041Y014001D01*
X016043Y013961D01*
X016041Y013921D01*
X016035Y013880D01*
X016025Y013841D01*
X016011Y013803D01*
X015993Y013767D01*
X015971Y013732D01*
X015947Y013700D01*
X015919Y013671D01*
X015888Y013645D01*
X015855Y013622D01*
X015819Y013602D01*
X015782Y013586D01*
X015743Y013574D01*
X015704Y013566D01*
X015663Y013562D01*
X015623Y013562D01*
X015582Y013566D01*
X015543Y013574D01*
X015504Y013586D01*
X015467Y013602D01*
X015431Y013622D01*
X015398Y013645D01*
X015367Y013671D01*
X015339Y013700D01*
X015315Y013732D01*
X015293Y013767D01*
X015275Y013803D01*
X015261Y013841D01*
X015251Y013880D01*
X015245Y013921D01*
X015243Y013961D01*
X015643Y014361D02*
X015643Y013561D01*
X015793Y008861D02*
X014993Y008861D01*
X015793Y008061D01*
X014993Y008061D01*
X015793Y008861D01*
X014543Y008861D02*
X013743Y008061D01*
X013743Y007861D02*
X014543Y007061D01*
X014543Y006861D02*
X013743Y006061D01*
X013743Y005861D02*
X014543Y005061D01*
X014543Y004861D02*
X013743Y004061D01*
X013743Y003861D02*
X014543Y003061D01*
X014543Y002861D02*
X013743Y002061D01*
X013743Y002861D02*
X014543Y002061D01*
X015243Y002461D02*
X016043Y002461D01*
X015443Y002461D02*
X015445Y002489D01*
X015451Y002517D01*
X015461Y002544D01*
X015475Y002569D01*
X015492Y002592D01*
X015512Y002612D01*
X015535Y002629D01*
X015560Y002643D01*
X015587Y002653D01*
X015615Y002659D01*
X015643Y002661D01*
X015671Y002659D01*
X015699Y002653D01*
X015726Y002643D01*
X015751Y002629D01*
X015774Y002612D01*
X015794Y002592D01*
X015811Y002569D01*
X015825Y002544D01*
X015835Y002517D01*
X015841Y002489D01*
X015843Y002461D01*
X015841Y002433D01*
X015835Y002405D01*
X015825Y002378D01*
X015811Y002353D01*
X015794Y002330D01*
X015774Y002310D01*
X015751Y002293D01*
X015726Y002279D01*
X015699Y002269D01*
X015671Y002263D01*
X015643Y002261D01*
X015615Y002263D01*
X015587Y002269D01*
X015560Y002279D01*
X015535Y002293D01*
X015512Y002310D01*
X015492Y002330D01*
X015475Y002353D01*
X015461Y002378D01*
X015451Y002405D01*
X015445Y002433D01*
X015443Y002461D01*
X015243Y002461D02*
X015245Y002501D01*
X015251Y002542D01*
X015261Y002581D01*
X015275Y002619D01*
X015293Y002655D01*
X015315Y002690D01*
X015339Y002722D01*
X015367Y002751D01*
X015398Y002777D01*
X015431Y002800D01*
X015467Y002820D01*
X015504Y002836D01*
X015543Y002848D01*
X015582Y002856D01*
X015623Y002860D01*
X015663Y002860D01*
X015704Y002856D01*
X015743Y002848D01*
X015782Y002836D01*
X015819Y002820D01*
X015855Y002800D01*
X015888Y002777D01*
X015919Y002751D01*
X015947Y002722D01*
X015971Y002690D01*
X015993Y002655D01*
X016011Y002619D01*
X016025Y002581D01*
X016035Y002542D01*
X016041Y002501D01*
X016043Y002461D01*
X016041Y002421D01*
X016035Y002380D01*
X016025Y002341D01*
X016011Y002303D01*
X015993Y002267D01*
X015971Y002232D01*
X015947Y002200D01*
X015919Y002171D01*
X015888Y002145D01*
X015855Y002122D01*
X015819Y002102D01*
X015782Y002086D01*
X015743Y002074D01*
X015704Y002066D01*
X015663Y002062D01*
X015623Y002062D01*
X015582Y002066D01*
X015543Y002074D01*
X015504Y002086D01*
X015467Y002102D01*
X015431Y002122D01*
X015398Y002145D01*
X015367Y002171D01*
X015339Y002200D01*
X015315Y002232D01*
X015293Y002267D01*
X015275Y002303D01*
X015261Y002341D01*
X015251Y002380D01*
X015245Y002421D01*
X015243Y002461D01*
X015643Y002861D02*
X015643Y002061D01*
X014543Y003861D02*
X013743Y003061D01*
X014543Y004061D02*
X013743Y004861D01*
X013743Y005061D02*
X014543Y005861D01*
X014543Y006061D02*
X013743Y006861D01*
X013743Y007061D02*
X014543Y007861D01*
X014543Y008061D02*
X013743Y008861D01*
X014993Y007861D02*
X015793Y007061D01*
X014993Y007061D01*
X015793Y007861D01*
X014993Y007861D01*
X014993Y006861D02*
X015793Y006061D01*
X014993Y006061D01*
X015793Y006861D01*
X014993Y006861D01*
X014993Y005861D02*
X015793Y005061D01*
X014993Y005061D01*
X015793Y005861D01*
X014993Y005861D01*
X014993Y004861D02*
X015793Y004061D01*
X014993Y004061D01*
X015793Y004861D01*
X014993Y004861D01*
X018769Y004431D02*
X019569Y003631D01*
X018769Y003631D01*
X019569Y004431D01*
X018769Y004431D01*
X019169Y004931D02*
X019169Y005731D01*
X018769Y005331D01*
X019569Y005331D01*
X019169Y004931D01*
X019169Y006231D02*
X019169Y007031D01*
X018969Y006631D02*
X018971Y006659D01*
X018977Y006687D01*
X018987Y006714D01*
X019001Y006739D01*
X019018Y006762D01*
X019038Y006782D01*
X019061Y006799D01*
X019086Y006813D01*
X019113Y006823D01*
X019141Y006829D01*
X019169Y006831D01*
X019197Y006829D01*
X019225Y006823D01*
X019252Y006813D01*
X019277Y006799D01*
X019300Y006782D01*
X019320Y006762D01*
X019337Y006739D01*
X019351Y006714D01*
X019361Y006687D01*
X019367Y006659D01*
X019369Y006631D01*
X019367Y006603D01*
X019361Y006575D01*
X019351Y006548D01*
X019337Y006523D01*
X019320Y006500D01*
X019300Y006480D01*
X019277Y006463D01*
X019252Y006449D01*
X019225Y006439D01*
X019197Y006433D01*
X019169Y006431D01*
X019141Y006433D01*
X019113Y006439D01*
X019086Y006449D01*
X019061Y006463D01*
X019038Y006480D01*
X019018Y006500D01*
X019001Y006523D01*
X018987Y006548D01*
X018977Y006575D01*
X018971Y006603D01*
X018969Y006631D01*
X018769Y006631D02*
X018771Y006671D01*
X018777Y006712D01*
X018787Y006751D01*
X018801Y006789D01*
X018819Y006825D01*
X018841Y006860D01*
X018865Y006892D01*
X018893Y006921D01*
X018924Y006947D01*
X018957Y006970D01*
X018993Y006990D01*
X019030Y007006D01*
X019069Y007018D01*
X019108Y007026D01*
X019149Y007030D01*
X019189Y007030D01*
X019230Y007026D01*
X019269Y007018D01*
X019308Y007006D01*
X019345Y006990D01*
X019381Y006970D01*
X019414Y006947D01*
X019445Y006921D01*
X019473Y006892D01*
X019497Y006860D01*
X019519Y006825D01*
X019537Y006789D01*
X019551Y006751D01*
X019561Y006712D01*
X019567Y006671D01*
X019569Y006631D01*
X019567Y006591D01*
X019561Y006550D01*
X019551Y006511D01*
X019537Y006473D01*
X019519Y006437D01*
X019497Y006402D01*
X019473Y006370D01*
X019445Y006341D01*
X019414Y006315D01*
X019381Y006292D01*
X019345Y006272D01*
X019308Y006256D01*
X019269Y006244D01*
X019230Y006236D01*
X019189Y006232D01*
X019149Y006232D01*
X019108Y006236D01*
X019069Y006244D01*
X019030Y006256D01*
X018993Y006272D01*
X018957Y006292D01*
X018924Y006315D01*
X018893Y006341D01*
X018865Y006370D01*
X018841Y006402D01*
X018819Y006437D01*
X018801Y006473D01*
X018787Y006511D01*
X018777Y006550D01*
X018771Y006591D01*
X018769Y006631D01*
X019569Y006631D01*
X019569Y003131D02*
X018769Y002331D01*
X019169Y002331D02*
X019169Y003131D01*
X018769Y003131D02*
X019569Y002331D01*
X019569Y001831D02*
X018769Y001031D01*
X018769Y001831D02*
X019569Y001031D01*
X009643Y003561D02*
X009643Y004361D01*
X005918Y007061D02*
X005118Y007861D01*
X004918Y007861D02*
X004118Y007061D01*
X003918Y007061D02*
X003118Y007861D01*
X002918Y007861D02*
X002118Y007061D01*
X002518Y007061D02*
X002518Y007861D01*
X002118Y007861D02*
X002918Y007061D01*
X003118Y007061D02*
X003918Y007861D01*
X004118Y007861D02*
X004918Y007061D01*
X005118Y007061D02*
X005918Y007861D01*
X005518Y007861D02*
X005518Y007061D01*
X004518Y007061D02*
X004518Y007861D01*
X003518Y007861D02*
X003518Y007061D01*
X002518Y008311D02*
X002518Y009111D01*
X002118Y008711D01*
X002918Y008711D01*
X002518Y008311D01*
X003743Y008811D02*
X004543Y009611D01*
X004743Y009611D02*
X005543Y008811D01*
X005143Y008811D02*
X005143Y009611D01*
X005543Y009611D02*
X004743Y008811D01*
X004543Y008811D02*
X003743Y009611D01*
X004143Y009611D02*
X004143Y008811D01*
X004243Y010311D02*
X005043Y011111D01*
X004743Y011061D02*
X005543Y011861D01*
X004743Y011861D02*
X005543Y011061D01*
X004543Y011061D02*
X003743Y011861D01*
X003743Y011061D02*
X004543Y011861D01*
X004243Y011111D02*
X005043Y010311D01*
X002643Y002861D02*
X002643Y002061D01*
X002443Y002461D02*
X002445Y002489D01*
X002451Y002517D01*
X002461Y002544D01*
X002475Y002569D01*
X002492Y002592D01*
X002512Y002612D01*
X002535Y002629D01*
X002560Y002643D01*
X002587Y002653D01*
X002615Y002659D01*
X002643Y002661D01*
X002671Y002659D01*
X002699Y002653D01*
X002726Y002643D01*
X002751Y002629D01*
X002774Y002612D01*
X002794Y002592D01*
X002811Y002569D01*
X002825Y002544D01*
X002835Y002517D01*
X002841Y002489D01*
X002843Y002461D01*
X002841Y002433D01*
X002835Y002405D01*
X002825Y002378D01*
X002811Y002353D01*
X002794Y002330D01*
X002774Y002310D01*
X002751Y002293D01*
X002726Y002279D01*
X002699Y002269D01*
X002671Y002263D01*
X002643Y002261D01*
X002615Y002263D01*
X002587Y002269D01*
X002560Y002279D01*
X002535Y002293D01*
X002512Y002310D01*
X002492Y002330D01*
X002475Y002353D01*
X002461Y002378D01*
X002451Y002405D01*
X002445Y002433D01*
X002443Y002461D01*
X002243Y002461D02*
X002245Y002501D01*
X002251Y002542D01*
X002261Y002581D01*
X002275Y002619D01*
X002293Y002655D01*
X002315Y002690D01*
X002339Y002722D01*
X002367Y002751D01*
X002398Y002777D01*
X002431Y002800D01*
X002467Y002820D01*
X002504Y002836D01*
X002543Y002848D01*
X002582Y002856D01*
X002623Y002860D01*
X002663Y002860D01*
X002704Y002856D01*
X002743Y002848D01*
X002782Y002836D01*
X002819Y002820D01*
X002855Y002800D01*
X002888Y002777D01*
X002919Y002751D01*
X002947Y002722D01*
X002971Y002690D01*
X002993Y002655D01*
X003011Y002619D01*
X003025Y002581D01*
X003035Y002542D01*
X003041Y002501D01*
X003043Y002461D01*
X003041Y002421D01*
X003035Y002380D01*
X003025Y002341D01*
X003011Y002303D01*
X002993Y002267D01*
X002971Y002232D01*
X002947Y002200D01*
X002919Y002171D01*
X002888Y002145D01*
X002855Y002122D01*
X002819Y002102D01*
X002782Y002086D01*
X002743Y002074D01*
X002704Y002066D01*
X002663Y002062D01*
X002623Y002062D01*
X002582Y002066D01*
X002543Y002074D01*
X002504Y002086D01*
X002467Y002102D01*
X002431Y002122D01*
X002398Y002145D01*
X002367Y002171D01*
X002339Y002200D01*
X002315Y002232D01*
X002293Y002267D01*
X002275Y002303D01*
X002261Y002341D01*
X002251Y002380D01*
X002245Y002421D01*
X002243Y002461D01*
X003043Y002461D01*
D12*
X020689Y002578D02*
X020996Y002885D01*
X020996Y002578D01*
X020919Y002501D01*
X020765Y002501D01*
X020689Y002578D01*
X020689Y002885D01*
X020765Y002961D01*
X020919Y002961D01*
X020996Y002885D01*
X021379Y002885D02*
X021456Y002961D01*
X021609Y002961D01*
X021686Y002885D01*
X021686Y002808D01*
X021609Y002731D01*
X021456Y002731D01*
X021379Y002808D01*
X021379Y002885D01*
X021456Y002731D02*
X021379Y002654D01*
X021379Y002578D01*
X021456Y002501D01*
X021609Y002501D01*
X021686Y002578D01*
X021686Y002654D01*
X021609Y002731D01*
X021840Y002808D02*
X021993Y002961D01*
X021993Y002501D01*
X021840Y002501D02*
X022147Y002501D01*
X022300Y002501D02*
X022607Y002808D01*
X022607Y002885D01*
X022530Y002961D01*
X022377Y002961D01*
X022300Y002885D01*
X022300Y002501D02*
X022607Y002501D01*
X022760Y002578D02*
X022760Y002654D01*
X022837Y002731D01*
X022991Y002731D01*
X023067Y002654D01*
X023067Y002578D01*
X022991Y002501D01*
X022837Y002501D01*
X022760Y002578D01*
X022837Y002731D02*
X022760Y002808D01*
X022760Y002885D01*
X022837Y002961D01*
X022991Y002961D01*
X023067Y002885D01*
X023067Y002808D01*
X022991Y002731D01*
X023681Y002808D02*
X023681Y002501D01*
X023834Y002501D02*
X023834Y002731D01*
X023911Y002808D01*
X023988Y002731D01*
X023988Y002501D01*
X024141Y002501D02*
X024141Y002808D01*
X024218Y002808D01*
X024295Y002731D01*
X024372Y002808D01*
X024448Y002731D01*
X024448Y002501D01*
X024295Y002501D02*
X024295Y002731D01*
X023834Y002731D02*
X023758Y002808D01*
X023681Y002808D01*
X025062Y002501D02*
X025369Y002961D01*
X025983Y002885D02*
X026060Y002961D01*
X026213Y002961D01*
X026290Y002885D01*
X026290Y002808D01*
X026213Y002731D01*
X026290Y002654D01*
X026290Y002578D01*
X026213Y002501D01*
X026060Y002501D01*
X025983Y002578D01*
X026136Y002731D02*
X026213Y002731D01*
X026443Y002885D02*
X026520Y002961D01*
X026673Y002961D01*
X026750Y002885D01*
X026750Y002808D01*
X026443Y002501D01*
X026750Y002501D01*
X026904Y002501D02*
X026980Y002501D01*
X026980Y002578D01*
X026904Y002578D01*
X026904Y002501D01*
X027134Y002578D02*
X027441Y002885D01*
X027441Y002578D01*
X027364Y002501D01*
X027210Y002501D01*
X027134Y002578D01*
X027134Y002885D01*
X027210Y002961D01*
X027364Y002961D01*
X027441Y002885D01*
X027594Y002885D02*
X027671Y002961D01*
X027824Y002961D01*
X027901Y002885D01*
X027594Y002578D01*
X027671Y002501D01*
X027824Y002501D01*
X027901Y002578D01*
X027901Y002885D01*
X028054Y002885D02*
X028131Y002961D01*
X028285Y002961D01*
X028361Y002885D01*
X028054Y002578D01*
X028131Y002501D01*
X028285Y002501D01*
X028361Y002578D01*
X028361Y002885D01*
X028054Y002885D02*
X028054Y002578D01*
X027594Y002578D02*
X027594Y002885D01*
X028975Y002808D02*
X028975Y002501D01*
X029129Y002501D02*
X029129Y002731D01*
X029205Y002808D01*
X029282Y002731D01*
X029282Y002501D01*
X029435Y002501D02*
X029589Y002501D01*
X029512Y002501D02*
X029512Y002808D01*
X029435Y002808D01*
X029512Y002961D02*
X029512Y003038D01*
X029742Y002961D02*
X029819Y002961D01*
X029819Y002501D01*
X029742Y002501D02*
X029896Y002501D01*
X029129Y002731D02*
X029052Y002808D01*
X028975Y002808D01*
X028975Y003801D02*
X028975Y004108D01*
X029052Y004108D01*
X029129Y004031D01*
X029205Y004108D01*
X029282Y004031D01*
X029282Y003801D01*
X029435Y003801D02*
X029589Y003801D01*
X029512Y003801D02*
X029512Y004108D01*
X029435Y004108D01*
X029512Y004261D02*
X029512Y004338D01*
X029742Y004261D02*
X029819Y004261D01*
X029819Y003801D01*
X029742Y003801D02*
X029896Y003801D01*
X029129Y003801D02*
X029129Y004031D01*
X028361Y003878D02*
X028285Y003801D01*
X028131Y003801D01*
X028054Y003878D01*
X028361Y004185D01*
X028361Y003878D01*
X028054Y003878D02*
X028054Y004185D01*
X028131Y004261D01*
X028285Y004261D01*
X028361Y004185D01*
X027901Y004185D02*
X027824Y004261D01*
X027671Y004261D01*
X027594Y004185D01*
X027594Y003878D01*
X027901Y004185D01*
X027901Y003878D01*
X027824Y003801D01*
X027671Y003801D01*
X027594Y003878D01*
X027441Y003878D02*
X027364Y003801D01*
X027210Y003801D01*
X027134Y003878D01*
X027441Y004185D01*
X027441Y003878D01*
X027134Y003878D02*
X027134Y004185D01*
X027210Y004261D01*
X027364Y004261D01*
X027441Y004185D01*
X026980Y003878D02*
X026904Y003878D01*
X026904Y003801D01*
X026980Y003801D01*
X026980Y003878D01*
X026750Y003878D02*
X026750Y003954D01*
X026673Y004031D01*
X026443Y004031D01*
X026443Y003878D01*
X026520Y003801D01*
X026673Y003801D01*
X026750Y003878D01*
X026597Y004185D02*
X026443Y004031D01*
X026290Y003954D02*
X026290Y003878D01*
X026213Y003801D01*
X026060Y003801D01*
X025983Y003878D01*
X026136Y004031D02*
X026213Y004031D01*
X026290Y003954D01*
X026213Y004031D02*
X026290Y004108D01*
X026290Y004185D01*
X026213Y004261D01*
X026060Y004261D01*
X025983Y004185D01*
X026597Y004185D02*
X026750Y004261D01*
X025369Y004261D02*
X025062Y003801D01*
X024448Y003801D02*
X024448Y004031D01*
X024372Y004108D01*
X024295Y004031D01*
X024295Y003801D01*
X024141Y003801D02*
X024141Y004108D01*
X024218Y004108D01*
X024295Y004031D01*
X023988Y004031D02*
X023988Y003801D01*
X023834Y003801D02*
X023834Y004031D01*
X023911Y004108D01*
X023988Y004031D01*
X023834Y004031D02*
X023758Y004108D01*
X023681Y004108D01*
X023681Y003801D01*
X023067Y004031D02*
X022760Y004031D01*
X022991Y004261D01*
X022991Y003801D01*
X022607Y004031D02*
X022300Y004031D01*
X022530Y004261D01*
X022530Y003801D01*
X022147Y003801D02*
X021840Y003801D01*
X021993Y003801D02*
X021993Y004261D01*
X021840Y004108D01*
X021686Y004185D02*
X021609Y004261D01*
X021456Y004261D01*
X021379Y004185D01*
X021379Y004108D01*
X021456Y004031D01*
X021686Y004031D01*
X021686Y003878D02*
X021609Y003801D01*
X021456Y003801D01*
X021379Y003878D01*
X021226Y003878D02*
X021226Y003801D01*
X021149Y003801D01*
X021149Y003878D01*
X021226Y003878D01*
X020996Y003878D02*
X020919Y003801D01*
X020765Y003801D01*
X020689Y003878D01*
X020996Y004185D01*
X020996Y003878D01*
X020689Y003878D02*
X020689Y004185D01*
X020765Y004261D01*
X020919Y004261D01*
X020996Y004185D01*
X021686Y004185D02*
X021686Y003878D01*
X021609Y005101D02*
X021456Y005101D01*
X021379Y005178D01*
X021686Y005485D01*
X021686Y005178D01*
X021609Y005101D01*
X021840Y005101D02*
X022147Y005101D01*
X021993Y005101D02*
X021993Y005561D01*
X021840Y005408D01*
X021686Y005485D02*
X021609Y005561D01*
X021456Y005561D01*
X021379Y005485D01*
X021379Y005178D01*
X021226Y005178D02*
X021226Y005101D01*
X021149Y005101D01*
X021149Y005178D01*
X021226Y005178D01*
X020996Y005101D02*
X020689Y005101D01*
X020842Y005101D02*
X020842Y005561D01*
X020689Y005408D01*
X022300Y005331D02*
X022300Y005178D01*
X022377Y005101D01*
X022530Y005101D01*
X022607Y005178D01*
X022607Y005254D01*
X022530Y005331D01*
X022300Y005331D01*
X022453Y005485D01*
X022607Y005561D01*
X022760Y005485D02*
X022837Y005561D01*
X022991Y005561D01*
X023067Y005485D01*
X022760Y005178D01*
X022837Y005101D01*
X022991Y005101D01*
X023067Y005178D01*
X023067Y005485D01*
X022760Y005485D02*
X022760Y005178D01*
X023681Y005101D02*
X023681Y005408D01*
X023758Y005408D01*
X023834Y005331D01*
X023911Y005408D01*
X023988Y005331D01*
X023988Y005101D01*
X024141Y005101D02*
X024141Y005408D01*
X024218Y005408D01*
X024295Y005331D01*
X024372Y005408D01*
X024448Y005331D01*
X024448Y005101D01*
X024295Y005101D02*
X024295Y005331D01*
X023834Y005331D02*
X023834Y005101D01*
X025062Y005101D02*
X025369Y005561D01*
X025983Y005331D02*
X026290Y005331D01*
X026443Y005178D02*
X026750Y005485D01*
X026750Y005178D01*
X026673Y005101D01*
X026520Y005101D01*
X026443Y005178D01*
X026443Y005485D01*
X026520Y005561D01*
X026673Y005561D01*
X026750Y005485D01*
X027134Y005485D02*
X027210Y005561D01*
X027364Y005561D01*
X027441Y005485D01*
X027134Y005178D01*
X027210Y005101D01*
X027364Y005101D01*
X027441Y005178D01*
X027441Y005485D01*
X027594Y005485D02*
X027671Y005561D01*
X027824Y005561D01*
X027901Y005485D01*
X027594Y005178D01*
X027671Y005101D01*
X027824Y005101D01*
X027901Y005178D01*
X027901Y005485D01*
X028054Y005485D02*
X028131Y005561D01*
X028285Y005561D01*
X028361Y005485D01*
X028054Y005178D01*
X028131Y005101D01*
X028285Y005101D01*
X028361Y005178D01*
X028361Y005485D01*
X028054Y005485D02*
X028054Y005178D01*
X027594Y005178D02*
X027594Y005485D01*
X027134Y005485D02*
X027134Y005178D01*
X026980Y005178D02*
X026980Y005101D01*
X026904Y005101D01*
X026904Y005178D01*
X026980Y005178D01*
X026213Y005101D02*
X026213Y005561D01*
X025983Y005331D01*
X025983Y006401D02*
X026290Y006401D01*
X026443Y006401D02*
X026750Y006708D01*
X026750Y006785D01*
X026673Y006861D01*
X026520Y006861D01*
X026443Y006785D01*
X026136Y006861D02*
X026136Y006401D01*
X026443Y006401D02*
X026750Y006401D01*
X026904Y006478D02*
X026980Y006401D01*
X027134Y006401D01*
X027210Y006478D01*
X027210Y006631D01*
X027134Y006708D01*
X027057Y006708D01*
X026904Y006631D01*
X026904Y006861D01*
X027210Y006861D01*
X027594Y006785D02*
X027594Y006708D01*
X027671Y006631D01*
X027901Y006631D01*
X027901Y006478D02*
X027901Y006785D01*
X027824Y006861D01*
X027671Y006861D01*
X027594Y006785D01*
X027594Y006478D02*
X027671Y006401D01*
X027824Y006401D01*
X027901Y006478D01*
X028054Y006478D02*
X028131Y006401D01*
X028285Y006401D01*
X028361Y006478D01*
X028361Y006554D01*
X028285Y006631D01*
X028131Y006631D01*
X028054Y006708D01*
X028054Y006785D01*
X028131Y006861D01*
X028285Y006861D01*
X028361Y006785D01*
X028361Y006708D01*
X028285Y006631D01*
X028131Y006631D02*
X028054Y006554D01*
X028054Y006478D01*
X028515Y006631D02*
X028822Y006631D01*
X028745Y006401D02*
X028745Y006861D01*
X028515Y006631D01*
X029435Y006708D02*
X029435Y006401D01*
X029589Y006401D02*
X029589Y006631D01*
X029666Y006708D01*
X029742Y006631D01*
X029742Y006401D01*
X029896Y006401D02*
X030049Y006401D01*
X029973Y006401D02*
X029973Y006708D01*
X029896Y006708D01*
X029973Y006861D02*
X029973Y006938D01*
X030203Y006861D02*
X030279Y006861D01*
X030279Y006401D01*
X030203Y006401D02*
X030356Y006401D01*
X029589Y006631D02*
X029512Y006708D01*
X029435Y006708D01*
X027441Y006478D02*
X027441Y006401D01*
X027364Y006401D01*
X027364Y006478D01*
X027441Y006478D01*
X026136Y006861D02*
X025983Y006708D01*
X025369Y006861D02*
X025062Y006401D01*
X024448Y006401D02*
X024448Y006631D01*
X024372Y006708D01*
X024295Y006631D01*
X024295Y006401D01*
X024141Y006401D02*
X024141Y006708D01*
X024218Y006708D01*
X024295Y006631D01*
X023988Y006631D02*
X023988Y006401D01*
X023834Y006401D02*
X023834Y006631D01*
X023911Y006708D01*
X023988Y006631D01*
X023834Y006631D02*
X023758Y006708D01*
X023681Y006708D01*
X023681Y006401D01*
X023067Y006478D02*
X022991Y006401D01*
X022837Y006401D01*
X022760Y006478D01*
X023067Y006785D01*
X023067Y006478D01*
X022760Y006478D02*
X022760Y006785D01*
X022837Y006861D01*
X022991Y006861D01*
X023067Y006785D01*
X022607Y006785D02*
X022607Y006478D01*
X022530Y006401D01*
X022377Y006401D01*
X022300Y006478D01*
X022607Y006785D01*
X022530Y006861D01*
X022377Y006861D01*
X022300Y006785D01*
X022300Y006478D01*
X022147Y006478D02*
X022070Y006401D01*
X021916Y006401D01*
X021840Y006478D01*
X022147Y006785D01*
X022147Y006478D01*
X022147Y006785D02*
X022070Y006861D01*
X021916Y006861D01*
X021840Y006785D01*
X021840Y006478D01*
X021686Y006401D02*
X021379Y006401D01*
X021686Y006708D01*
X021686Y006785D01*
X021609Y006861D01*
X021456Y006861D01*
X021379Y006785D01*
X021226Y006478D02*
X021226Y006401D01*
X021149Y006401D01*
X021149Y006478D01*
X021226Y006478D01*
X020996Y006478D02*
X020919Y006401D01*
X020765Y006401D01*
X020689Y006478D01*
X020842Y006631D02*
X020919Y006631D01*
X020996Y006554D01*
X020996Y006478D01*
X020919Y006631D02*
X020996Y006708D01*
X020996Y006785D01*
X020919Y006861D01*
X020765Y006861D01*
X020689Y006785D01*
X028975Y005408D02*
X028975Y005101D01*
X029129Y005101D02*
X029129Y005331D01*
X029205Y005408D01*
X029282Y005331D01*
X029282Y005101D01*
X029435Y005101D02*
X029589Y005101D01*
X029512Y005101D02*
X029512Y005408D01*
X029435Y005408D01*
X029512Y005561D02*
X029512Y005638D01*
X029742Y005561D02*
X029819Y005561D01*
X029819Y005101D01*
X029742Y005101D02*
X029896Y005101D01*
X029129Y005331D02*
X029052Y005408D01*
X028975Y005408D01*
X021226Y002578D02*
X021226Y002501D01*
X021149Y002501D01*
X021149Y002578D01*
X021226Y002578D01*
X021379Y001661D02*
X021686Y001661D01*
X021686Y001585D01*
X021379Y001278D01*
X021379Y001201D01*
X021226Y001201D02*
X021149Y001201D01*
X021149Y001278D01*
X021226Y001278D01*
X021226Y001201D01*
X020996Y001278D02*
X020919Y001201D01*
X020765Y001201D01*
X020689Y001278D01*
X020996Y001585D01*
X020996Y001278D01*
X020689Y001278D02*
X020689Y001585D01*
X020765Y001661D01*
X020919Y001661D01*
X020996Y001585D01*
X021840Y001508D02*
X021993Y001661D01*
X021993Y001201D01*
X021840Y001201D02*
X022147Y001201D01*
X022300Y001201D02*
X022607Y001201D01*
X022760Y001201D02*
X023067Y001508D01*
X023067Y001585D01*
X022991Y001661D01*
X022837Y001661D01*
X022760Y001585D01*
X022453Y001661D02*
X022453Y001201D01*
X022760Y001201D02*
X023067Y001201D01*
X023681Y001201D02*
X023681Y001508D01*
X023758Y001508D01*
X023834Y001431D01*
X023911Y001508D01*
X023988Y001431D01*
X023988Y001201D01*
X024141Y001201D02*
X024141Y001508D01*
X024218Y001508D01*
X024295Y001431D01*
X024372Y001508D01*
X024448Y001431D01*
X024448Y001201D01*
X024295Y001201D02*
X024295Y001431D01*
X023834Y001431D02*
X023834Y001201D01*
X025062Y001201D02*
X025369Y001661D01*
X025983Y001585D02*
X026060Y001661D01*
X026213Y001661D01*
X026290Y001585D01*
X026290Y001508D01*
X025983Y001201D01*
X026290Y001201D01*
X026443Y001278D02*
X026443Y001354D01*
X026520Y001431D01*
X026673Y001431D01*
X026750Y001354D01*
X026750Y001278D01*
X026673Y001201D01*
X026520Y001201D01*
X026443Y001278D01*
X026520Y001431D02*
X026443Y001508D01*
X026443Y001585D01*
X026520Y001661D01*
X026673Y001661D01*
X026750Y001585D01*
X026750Y001508D01*
X026673Y001431D01*
X026904Y001278D02*
X026980Y001278D01*
X026980Y001201D01*
X026904Y001201D01*
X026904Y001278D01*
X027134Y001278D02*
X027441Y001585D01*
X027441Y001278D01*
X027364Y001201D01*
X027210Y001201D01*
X027134Y001278D01*
X027134Y001585D01*
X027210Y001661D01*
X027364Y001661D01*
X027441Y001585D01*
X027594Y001585D02*
X027671Y001661D01*
X027824Y001661D01*
X027901Y001585D01*
X027594Y001278D01*
X027671Y001201D01*
X027824Y001201D01*
X027901Y001278D01*
X027901Y001585D01*
X028054Y001585D02*
X028131Y001661D01*
X028285Y001661D01*
X028361Y001585D01*
X028054Y001278D01*
X028131Y001201D01*
X028285Y001201D01*
X028361Y001278D01*
X028361Y001585D01*
X028054Y001585D02*
X028054Y001278D01*
X027594Y001278D02*
X027594Y001585D01*
X028975Y001508D02*
X028975Y001201D01*
X029129Y001201D02*
X029129Y001431D01*
X029205Y001508D01*
X029282Y001431D01*
X029282Y001201D01*
X029435Y001201D02*
X029589Y001201D01*
X029512Y001201D02*
X029512Y001508D01*
X029435Y001508D01*
X029512Y001661D02*
X029512Y001738D01*
X029742Y001661D02*
X029819Y001661D01*
X029819Y001201D01*
X029742Y001201D02*
X029896Y001201D01*
X029129Y001431D02*
X029052Y001508D01*
X028975Y001508D01*
X022453Y001661D02*
X022300Y001508D01*
D13*
X034530Y008448D02*
X034530Y009088D01*
X034851Y009088D01*
X034957Y008981D01*
X034957Y008768D01*
X034851Y008661D01*
X034530Y008661D01*
X034313Y008768D02*
X034206Y008661D01*
X033992Y008661D01*
X033886Y008768D01*
X033886Y008875D01*
X033992Y008981D01*
X034206Y008981D01*
X034313Y008875D01*
X034313Y008768D01*
X034206Y008981D02*
X034313Y009088D01*
X034313Y009195D01*
X034206Y009302D01*
X033992Y009302D01*
X033886Y009195D01*
X033886Y009088D01*
X033992Y008981D01*
X033668Y008981D02*
X033241Y008981D01*
X033561Y009302D01*
X033561Y008661D01*
X033026Y008661D02*
X033026Y008768D01*
X032919Y008768D01*
X032919Y008661D01*
X033026Y008661D01*
X032701Y008661D02*
X032274Y008661D01*
X032701Y009088D01*
X032701Y009195D01*
X032595Y009302D01*
X032381Y009302D01*
X032274Y009195D01*
X032057Y009302D02*
X031630Y009302D01*
X031630Y008981D01*
X031843Y009088D01*
X031950Y009088D01*
X032057Y008981D01*
X032057Y008768D01*
X031950Y008661D01*
X031737Y008661D01*
X031630Y008768D01*
X031414Y008768D02*
X031414Y008661D01*
X031308Y008661D01*
X031308Y008768D01*
X031414Y008768D01*
X031414Y008981D02*
X031308Y008981D01*
X031308Y009088D01*
X031414Y009088D01*
X031414Y008981D01*
X031090Y008875D02*
X031090Y008768D01*
X030983Y008661D01*
X030770Y008661D01*
X030663Y008768D01*
X030446Y008768D02*
X030339Y008661D01*
X030125Y008661D01*
X030019Y008768D01*
X030446Y009195D01*
X030446Y008768D01*
X030019Y008768D02*
X030019Y009195D01*
X030125Y009302D01*
X030339Y009302D01*
X030446Y009195D01*
X030663Y009195D02*
X030770Y009302D01*
X030983Y009302D01*
X031090Y009195D01*
X031090Y009088D01*
X030983Y008981D01*
X031090Y008875D01*
X030983Y008981D02*
X030877Y008981D01*
X029157Y008875D02*
X029157Y008768D01*
X029050Y008661D01*
X028836Y008661D01*
X028730Y008768D01*
X028512Y008661D02*
X028085Y008661D01*
X028299Y008661D02*
X028299Y009302D01*
X028085Y009088D01*
X027868Y009195D02*
X027761Y009302D01*
X027547Y009302D01*
X027441Y009195D01*
X027441Y008768D01*
X027868Y009195D01*
X027868Y008768D01*
X027761Y008661D01*
X027547Y008661D01*
X027441Y008768D01*
X027223Y008661D02*
X026796Y008661D01*
X027223Y009088D01*
X027223Y009195D01*
X027116Y009302D01*
X026903Y009302D01*
X026796Y009195D01*
X026578Y009302D02*
X026151Y008661D01*
X025934Y008768D02*
X025934Y009195D01*
X025827Y009302D01*
X025614Y009302D01*
X025507Y009195D01*
X025507Y009088D01*
X025614Y008981D01*
X025934Y008981D01*
X025934Y008768D02*
X025827Y008661D01*
X025614Y008661D01*
X025507Y008768D01*
X025289Y008661D02*
X024862Y008661D01*
X025076Y008661D02*
X025076Y009302D01*
X024862Y009088D01*
X024645Y009302D02*
X024218Y008661D01*
X024000Y008661D02*
X023573Y008661D01*
X023787Y008661D02*
X023787Y009302D01*
X023573Y009088D01*
X024002Y009448D02*
X024108Y009448D01*
X024215Y009554D01*
X024215Y010088D01*
X023895Y010088D01*
X023788Y009981D01*
X023788Y009768D01*
X023895Y009661D01*
X024215Y009661D01*
X024433Y009768D02*
X024433Y009981D01*
X024539Y010088D01*
X024753Y010088D01*
X024860Y009981D01*
X024860Y009875D01*
X024433Y009875D01*
X024433Y009768D02*
X024539Y009661D01*
X024753Y009661D01*
X025077Y009661D02*
X025077Y010088D01*
X025397Y010088D01*
X025504Y009981D01*
X025504Y009661D01*
X025722Y009768D02*
X025722Y009981D01*
X025829Y010088D01*
X026149Y010088D01*
X026149Y010302D02*
X026149Y009661D01*
X025829Y009661D01*
X025722Y009768D01*
X023571Y009875D02*
X023144Y009875D01*
X023144Y009981D02*
X023250Y010088D01*
X023464Y010088D01*
X023571Y009981D01*
X023571Y009875D01*
X023250Y009661D02*
X023144Y009768D01*
X023144Y009981D01*
X023250Y009661D02*
X023464Y009661D01*
X022927Y009661D02*
X022714Y009661D01*
X022821Y009661D02*
X022821Y010302D01*
X022714Y010302D01*
X021746Y010302D02*
X021746Y009661D01*
X021640Y009661D02*
X021853Y009661D01*
X021424Y009661D02*
X021210Y009661D01*
X021317Y009661D02*
X021317Y010302D01*
X021210Y010302D01*
X020887Y010302D02*
X020887Y010408D01*
X020887Y010088D02*
X020887Y009661D01*
X020780Y009661D02*
X020994Y009661D01*
X020457Y010088D02*
X020243Y009875D01*
X020243Y010088D02*
X020243Y009661D01*
X020026Y009768D02*
X020026Y010195D01*
X019919Y010302D01*
X019599Y010302D01*
X019599Y009661D01*
X019919Y009661D01*
X020026Y009768D01*
X020457Y010088D02*
X020564Y010088D01*
X020780Y010088D02*
X020887Y010088D01*
X021640Y010302D02*
X021746Y010302D01*
X020026Y009195D02*
X019919Y009302D01*
X019599Y009302D01*
X019599Y008661D01*
X019919Y008661D01*
X020026Y008768D01*
X020026Y009195D01*
X020350Y009088D02*
X020564Y009088D01*
X020670Y008981D01*
X020670Y008661D01*
X020350Y008661D01*
X020243Y008768D01*
X020350Y008875D01*
X020670Y008875D01*
X020995Y008768D02*
X021101Y008661D01*
X020995Y008768D02*
X020995Y009195D01*
X021101Y009088D02*
X020888Y009088D01*
X021318Y008981D02*
X021318Y008768D01*
X021424Y008661D01*
X021638Y008661D01*
X021745Y008875D02*
X021318Y008875D01*
X021318Y008981D02*
X021424Y009088D01*
X021638Y009088D01*
X021745Y008981D01*
X021745Y008875D01*
X021962Y008981D02*
X021962Y009088D01*
X022069Y009088D01*
X022069Y008981D01*
X021962Y008981D01*
X021962Y008768D02*
X021962Y008661D01*
X022069Y008661D01*
X022069Y008768D01*
X021962Y008768D01*
X028730Y009195D02*
X028836Y009302D01*
X029050Y009302D01*
X029157Y009195D01*
X029157Y009088D01*
X029050Y008981D01*
X029157Y008875D01*
X029050Y008981D02*
X028943Y008981D01*
X032919Y008981D02*
X032919Y009088D01*
X033026Y009088D01*
X033026Y008981D01*
X032919Y008981D01*
D14*
X018169Y010631D02*
X018169Y000131D01*
X031769Y000131D01*
M02*
