G75*
G70*
%OFA0B0*%
%FSLAX24Y24*%
%IPPOS*%
%LPD*%
%AMOC8*
5,1,8,0,0,1.08239X$1,22.5*
%
%ADD10C,0.0000*%
D10*
X001643Y001461D02*
X001643Y014961D01*
X016643Y014961D01*
X016643Y001461D01*
X001643Y001461D01*
X002013Y002461D02*
X002016Y002518D01*
X002023Y002575D01*
X002036Y002631D01*
X002054Y002685D01*
X002077Y002738D01*
X002105Y002788D01*
X002137Y002836D01*
X002173Y002880D01*
X002213Y002921D01*
X002257Y002959D01*
X002303Y002992D01*
X002353Y003020D01*
X002405Y003044D01*
X002459Y003064D01*
X002515Y003078D01*
X002571Y003087D01*
X002629Y003091D01*
X002686Y003090D01*
X002743Y003083D01*
X002799Y003071D01*
X002854Y003055D01*
X002907Y003033D01*
X002958Y003007D01*
X003006Y002976D01*
X003052Y002941D01*
X003094Y002901D01*
X003132Y002859D01*
X003166Y002812D01*
X003196Y002763D01*
X003221Y002712D01*
X003241Y002658D01*
X003257Y002603D01*
X003267Y002547D01*
X003272Y002490D01*
X003272Y002432D01*
X003267Y002375D01*
X003257Y002319D01*
X003241Y002264D01*
X003221Y002210D01*
X003196Y002159D01*
X003166Y002110D01*
X003132Y002063D01*
X003094Y002021D01*
X003052Y001981D01*
X003006Y001946D01*
X002958Y001915D01*
X002907Y001889D01*
X002854Y001867D01*
X002799Y001851D01*
X002743Y001839D01*
X002686Y001832D01*
X002629Y001831D01*
X002571Y001835D01*
X002515Y001844D01*
X002459Y001858D01*
X002405Y001878D01*
X002353Y001902D01*
X002303Y001930D01*
X002257Y001963D01*
X002213Y002001D01*
X002173Y002042D01*
X002137Y002086D01*
X002105Y002134D01*
X002077Y002184D01*
X002054Y002237D01*
X002036Y002291D01*
X002023Y002347D01*
X002016Y002404D01*
X002013Y002461D01*
X015013Y002461D02*
X015016Y002518D01*
X015023Y002575D01*
X015036Y002631D01*
X015054Y002685D01*
X015077Y002738D01*
X015105Y002788D01*
X015137Y002836D01*
X015173Y002880D01*
X015213Y002921D01*
X015257Y002959D01*
X015303Y002992D01*
X015353Y003020D01*
X015405Y003044D01*
X015459Y003064D01*
X015515Y003078D01*
X015571Y003087D01*
X015629Y003091D01*
X015686Y003090D01*
X015743Y003083D01*
X015799Y003071D01*
X015854Y003055D01*
X015907Y003033D01*
X015958Y003007D01*
X016006Y002976D01*
X016052Y002941D01*
X016094Y002901D01*
X016132Y002859D01*
X016166Y002812D01*
X016196Y002763D01*
X016221Y002712D01*
X016241Y002658D01*
X016257Y002603D01*
X016267Y002547D01*
X016272Y002490D01*
X016272Y002432D01*
X016267Y002375D01*
X016257Y002319D01*
X016241Y002264D01*
X016221Y002210D01*
X016196Y002159D01*
X016166Y002110D01*
X016132Y002063D01*
X016094Y002021D01*
X016052Y001981D01*
X016006Y001946D01*
X015958Y001915D01*
X015907Y001889D01*
X015854Y001867D01*
X015799Y001851D01*
X015743Y001839D01*
X015686Y001832D01*
X015629Y001831D01*
X015571Y001835D01*
X015515Y001844D01*
X015459Y001858D01*
X015405Y001878D01*
X015353Y001902D01*
X015303Y001930D01*
X015257Y001963D01*
X015213Y002001D01*
X015173Y002042D01*
X015137Y002086D01*
X015105Y002134D01*
X015077Y002184D01*
X015054Y002237D01*
X015036Y002291D01*
X015023Y002347D01*
X015016Y002404D01*
X015013Y002461D01*
X015013Y013961D02*
X015016Y014018D01*
X015023Y014075D01*
X015036Y014131D01*
X015054Y014185D01*
X015077Y014238D01*
X015105Y014288D01*
X015137Y014336D01*
X015173Y014380D01*
X015213Y014421D01*
X015257Y014459D01*
X015303Y014492D01*
X015353Y014520D01*
X015405Y014544D01*
X015459Y014564D01*
X015515Y014578D01*
X015571Y014587D01*
X015629Y014591D01*
X015686Y014590D01*
X015743Y014583D01*
X015799Y014571D01*
X015854Y014555D01*
X015907Y014533D01*
X015958Y014507D01*
X016006Y014476D01*
X016052Y014441D01*
X016094Y014401D01*
X016132Y014359D01*
X016166Y014312D01*
X016196Y014263D01*
X016221Y014212D01*
X016241Y014158D01*
X016257Y014103D01*
X016267Y014047D01*
X016272Y013990D01*
X016272Y013932D01*
X016267Y013875D01*
X016257Y013819D01*
X016241Y013764D01*
X016221Y013710D01*
X016196Y013659D01*
X016166Y013610D01*
X016132Y013563D01*
X016094Y013521D01*
X016052Y013481D01*
X016006Y013446D01*
X015958Y013415D01*
X015907Y013389D01*
X015854Y013367D01*
X015799Y013351D01*
X015743Y013339D01*
X015686Y013332D01*
X015629Y013331D01*
X015571Y013335D01*
X015515Y013344D01*
X015459Y013358D01*
X015405Y013378D01*
X015353Y013402D01*
X015303Y013430D01*
X015257Y013463D01*
X015213Y013501D01*
X015173Y013542D01*
X015137Y013586D01*
X015105Y013634D01*
X015077Y013684D01*
X015054Y013737D01*
X015036Y013791D01*
X015023Y013847D01*
X015016Y013904D01*
X015013Y013961D01*
X002013Y013961D02*
X002016Y014018D01*
X002023Y014075D01*
X002036Y014131D01*
X002054Y014185D01*
X002077Y014238D01*
X002105Y014288D01*
X002137Y014336D01*
X002173Y014380D01*
X002213Y014421D01*
X002257Y014459D01*
X002303Y014492D01*
X002353Y014520D01*
X002405Y014544D01*
X002459Y014564D01*
X002515Y014578D01*
X002571Y014587D01*
X002629Y014591D01*
X002686Y014590D01*
X002743Y014583D01*
X002799Y014571D01*
X002854Y014555D01*
X002907Y014533D01*
X002958Y014507D01*
X003006Y014476D01*
X003052Y014441D01*
X003094Y014401D01*
X003132Y014359D01*
X003166Y014312D01*
X003196Y014263D01*
X003221Y014212D01*
X003241Y014158D01*
X003257Y014103D01*
X003267Y014047D01*
X003272Y013990D01*
X003272Y013932D01*
X003267Y013875D01*
X003257Y013819D01*
X003241Y013764D01*
X003221Y013710D01*
X003196Y013659D01*
X003166Y013610D01*
X003132Y013563D01*
X003094Y013521D01*
X003052Y013481D01*
X003006Y013446D01*
X002958Y013415D01*
X002907Y013389D01*
X002854Y013367D01*
X002799Y013351D01*
X002743Y013339D01*
X002686Y013332D01*
X002629Y013331D01*
X002571Y013335D01*
X002515Y013344D01*
X002459Y013358D01*
X002405Y013378D01*
X002353Y013402D01*
X002303Y013430D01*
X002257Y013463D01*
X002213Y013501D01*
X002173Y013542D01*
X002137Y013586D01*
X002105Y013634D01*
X002077Y013684D01*
X002054Y013737D01*
X002036Y013791D01*
X002023Y013847D01*
X002016Y013904D01*
X002013Y013961D01*
M02*
