%
M48
M72
T01C0.0280
T02C0.0320
T03C0.0360
T04C0.0400
T05C0.1260
%
T01
X10643Y2461
X10643Y3461
X10643Y4461
X10643Y5461
X10643Y6461
X10643Y7461
X10643Y8461
X10768Y9711
X14143Y8461
X14143Y7461
X14143Y6461
X14143Y5461
X14143Y4461
X14143Y3461
X14143Y2461
X14268Y9711
X5143Y11461
X4143Y11461
X4643Y10711
T02
X6643Y10961
X6643Y9961
X5143Y9211
X4143Y9211
X6643Y8961
X6643Y7961
X5518Y7461
X4518Y7461
X3518Y7461
X2518Y7461
X6643Y6961
X6643Y5961
X6643Y4961
X6643Y3961
X7643Y2461
X8643Y2461
X9643Y3961
X9643Y4961
X9643Y5961
X9643Y6961
X9643Y7961
X9643Y8961
X9643Y9961
X10768Y10711
X9643Y10961
X9643Y11961
X6643Y11961
X6393Y13711
X10393Y13711
X14268Y10711
T03
X15393Y8461
X15393Y7461
X15393Y6461
X15393Y5461
X15393Y4461
X5143Y13211
X4143Y13211
X11768Y13711
X12768Y13711
T04
X2518Y8711
T05
X2643Y2461
X15643Y2461
X15643Y13961
X2643Y13961
M30
