G75*
G70*
%OFA0B0*%
%FSLAX24Y24*%
%IPPOS*%
%LPD*%
%AMOC8*
5,1,8,0,0,1.08239X$1,22.5*
%
%ADD10C,0.0000*%
%ADD11C,0.0040*%
%ADD12C,0.0060*%
%ADD13C,0.0050*%
%ADD14R,0.0200X0.1000*%
%ADD15C,0.0300*%
%ADD16R,0.0750X0.0300*%
%ADD17R,0.0260X0.0260*%
%ADD18R,0.0200X0.0800*%
%ADD19C,0.0200*%
%ADD20R,0.0750X0.0200*%
%ADD21R,0.0200X0.0200*%
%ADD22C,0.0240*%
%ADD23C,0.0010*%
%ADD24R,0.0100X0.0240*%
%ADD25C,0.0100*%
D10*
X001643Y001461D02*
X001643Y014961D01*
X016643Y014961D01*
X016643Y001461D01*
X001643Y001461D01*
X002013Y002461D02*
X002016Y002518D01*
X002023Y002575D01*
X002036Y002631D01*
X002054Y002685D01*
X002077Y002738D01*
X002105Y002788D01*
X002137Y002836D01*
X002173Y002880D01*
X002213Y002921D01*
X002257Y002959D01*
X002303Y002992D01*
X002353Y003020D01*
X002405Y003044D01*
X002459Y003064D01*
X002515Y003078D01*
X002571Y003087D01*
X002629Y003091D01*
X002686Y003090D01*
X002743Y003083D01*
X002799Y003071D01*
X002854Y003055D01*
X002907Y003033D01*
X002958Y003007D01*
X003006Y002976D01*
X003052Y002941D01*
X003094Y002901D01*
X003132Y002859D01*
X003166Y002812D01*
X003196Y002763D01*
X003221Y002712D01*
X003241Y002658D01*
X003257Y002603D01*
X003267Y002547D01*
X003272Y002490D01*
X003272Y002432D01*
X003267Y002375D01*
X003257Y002319D01*
X003241Y002264D01*
X003221Y002210D01*
X003196Y002159D01*
X003166Y002110D01*
X003132Y002063D01*
X003094Y002021D01*
X003052Y001981D01*
X003006Y001946D01*
X002958Y001915D01*
X002907Y001889D01*
X002854Y001867D01*
X002799Y001851D01*
X002743Y001839D01*
X002686Y001832D01*
X002629Y001831D01*
X002571Y001835D01*
X002515Y001844D01*
X002459Y001858D01*
X002405Y001878D01*
X002353Y001902D01*
X002303Y001930D01*
X002257Y001963D01*
X002213Y002001D01*
X002173Y002042D01*
X002137Y002086D01*
X002105Y002134D01*
X002077Y002184D01*
X002054Y002237D01*
X002036Y002291D01*
X002023Y002347D01*
X002016Y002404D01*
X002013Y002461D01*
X002412Y008698D02*
X002412Y008708D01*
X002407Y008708D01*
X002406Y008706D01*
X002406Y008703D01*
X002407Y008701D01*
X002412Y008701D01*
X002416Y008703D02*
X002418Y008701D01*
X002416Y008703D02*
X002416Y008710D01*
X002415Y008708D02*
X002418Y008708D01*
X002421Y008708D02*
X002421Y008701D01*
X002421Y008705D02*
X002424Y008708D01*
X002426Y008708D01*
X002438Y008708D02*
X002438Y008703D01*
X002439Y008701D01*
X002441Y008703D01*
X002443Y008701D01*
X002444Y008703D01*
X002444Y008708D01*
X002449Y008708D02*
X002452Y008708D01*
X002454Y008706D01*
X002454Y008701D01*
X002449Y008701D01*
X002447Y008703D01*
X002449Y008705D01*
X002454Y008705D01*
X002456Y008708D02*
X002459Y008701D01*
X002463Y008708D01*
X002465Y008706D02*
X002467Y008708D01*
X002470Y008708D01*
X002472Y008706D01*
X002472Y008705D01*
X002465Y008705D01*
X002465Y008706D02*
X002465Y008703D01*
X002467Y008701D01*
X002470Y008701D01*
X002484Y008703D02*
X002485Y008701D01*
X002487Y008703D01*
X002489Y008701D01*
X002490Y008703D01*
X002490Y008708D01*
X002493Y008706D02*
X002494Y008708D01*
X002498Y008708D01*
X002499Y008706D01*
X002499Y008701D01*
X002502Y008701D02*
X002505Y008701D01*
X002504Y008701D02*
X002504Y008708D01*
X002502Y008708D01*
X002504Y008711D02*
X002504Y008713D01*
X002508Y008708D02*
X002513Y008708D01*
X002515Y008706D01*
X002515Y008703D01*
X002513Y008701D01*
X002508Y008701D01*
X002508Y008698D02*
X002508Y008708D01*
X002493Y008711D02*
X002493Y008701D01*
X002484Y008703D02*
X002484Y008708D01*
X002394Y008708D02*
X002392Y008706D01*
X002394Y008705D01*
X002394Y008703D01*
X002392Y008701D01*
X002389Y008701D01*
X002387Y008703D01*
X002385Y008703D02*
X002383Y008701D01*
X002380Y008701D01*
X002378Y008703D01*
X002376Y008706D02*
X002369Y008706D01*
X002374Y008711D01*
X002374Y008701D01*
X002381Y008706D02*
X002383Y008706D01*
X002385Y008705D01*
X002385Y008703D01*
X002383Y008706D02*
X002385Y008708D01*
X002385Y008710D01*
X002383Y008711D01*
X002380Y008711D01*
X002378Y008710D01*
X002387Y008710D02*
X002389Y008711D01*
X002392Y008711D01*
X002394Y008710D01*
X002394Y008708D01*
X002392Y008706D02*
X002391Y008706D01*
X002013Y013961D02*
X002016Y014018D01*
X002023Y014075D01*
X002036Y014131D01*
X002054Y014185D01*
X002077Y014238D01*
X002105Y014288D01*
X002137Y014336D01*
X002173Y014380D01*
X002213Y014421D01*
X002257Y014459D01*
X002303Y014492D01*
X002353Y014520D01*
X002405Y014544D01*
X002459Y014564D01*
X002515Y014578D01*
X002571Y014587D01*
X002629Y014591D01*
X002686Y014590D01*
X002743Y014583D01*
X002799Y014571D01*
X002854Y014555D01*
X002907Y014533D01*
X002958Y014507D01*
X003006Y014476D01*
X003052Y014441D01*
X003094Y014401D01*
X003132Y014359D01*
X003166Y014312D01*
X003196Y014263D01*
X003221Y014212D01*
X003241Y014158D01*
X003257Y014103D01*
X003267Y014047D01*
X003272Y013990D01*
X003272Y013932D01*
X003267Y013875D01*
X003257Y013819D01*
X003241Y013764D01*
X003221Y013710D01*
X003196Y013659D01*
X003166Y013610D01*
X003132Y013563D01*
X003094Y013521D01*
X003052Y013481D01*
X003006Y013446D01*
X002958Y013415D01*
X002907Y013389D01*
X002854Y013367D01*
X002799Y013351D01*
X002743Y013339D01*
X002686Y013332D01*
X002629Y013331D01*
X002571Y013335D01*
X002515Y013344D01*
X002459Y013358D01*
X002405Y013378D01*
X002353Y013402D01*
X002303Y013430D01*
X002257Y013463D01*
X002213Y013501D01*
X002173Y013542D01*
X002137Y013586D01*
X002105Y013634D01*
X002077Y013684D01*
X002054Y013737D01*
X002036Y013791D01*
X002023Y013847D01*
X002016Y013904D01*
X002013Y013961D01*
X015013Y013961D02*
X015016Y014018D01*
X015023Y014075D01*
X015036Y014131D01*
X015054Y014185D01*
X015077Y014238D01*
X015105Y014288D01*
X015137Y014336D01*
X015173Y014380D01*
X015213Y014421D01*
X015257Y014459D01*
X015303Y014492D01*
X015353Y014520D01*
X015405Y014544D01*
X015459Y014564D01*
X015515Y014578D01*
X015571Y014587D01*
X015629Y014591D01*
X015686Y014590D01*
X015743Y014583D01*
X015799Y014571D01*
X015854Y014555D01*
X015907Y014533D01*
X015958Y014507D01*
X016006Y014476D01*
X016052Y014441D01*
X016094Y014401D01*
X016132Y014359D01*
X016166Y014312D01*
X016196Y014263D01*
X016221Y014212D01*
X016241Y014158D01*
X016257Y014103D01*
X016267Y014047D01*
X016272Y013990D01*
X016272Y013932D01*
X016267Y013875D01*
X016257Y013819D01*
X016241Y013764D01*
X016221Y013710D01*
X016196Y013659D01*
X016166Y013610D01*
X016132Y013563D01*
X016094Y013521D01*
X016052Y013481D01*
X016006Y013446D01*
X015958Y013415D01*
X015907Y013389D01*
X015854Y013367D01*
X015799Y013351D01*
X015743Y013339D01*
X015686Y013332D01*
X015629Y013331D01*
X015571Y013335D01*
X015515Y013344D01*
X015459Y013358D01*
X015405Y013378D01*
X015353Y013402D01*
X015303Y013430D01*
X015257Y013463D01*
X015213Y013501D01*
X015173Y013542D01*
X015137Y013586D01*
X015105Y013634D01*
X015077Y013684D01*
X015054Y013737D01*
X015036Y013791D01*
X015023Y013847D01*
X015016Y013904D01*
X015013Y013961D01*
X015013Y002461D02*
X015016Y002518D01*
X015023Y002575D01*
X015036Y002631D01*
X015054Y002685D01*
X015077Y002738D01*
X015105Y002788D01*
X015137Y002836D01*
X015173Y002880D01*
X015213Y002921D01*
X015257Y002959D01*
X015303Y002992D01*
X015353Y003020D01*
X015405Y003044D01*
X015459Y003064D01*
X015515Y003078D01*
X015571Y003087D01*
X015629Y003091D01*
X015686Y003090D01*
X015743Y003083D01*
X015799Y003071D01*
X015854Y003055D01*
X015907Y003033D01*
X015958Y003007D01*
X016006Y002976D01*
X016052Y002941D01*
X016094Y002901D01*
X016132Y002859D01*
X016166Y002812D01*
X016196Y002763D01*
X016221Y002712D01*
X016241Y002658D01*
X016257Y002603D01*
X016267Y002547D01*
X016272Y002490D01*
X016272Y002432D01*
X016267Y002375D01*
X016257Y002319D01*
X016241Y002264D01*
X016221Y002210D01*
X016196Y002159D01*
X016166Y002110D01*
X016132Y002063D01*
X016094Y002021D01*
X016052Y001981D01*
X016006Y001946D01*
X015958Y001915D01*
X015907Y001889D01*
X015854Y001867D01*
X015799Y001851D01*
X015743Y001839D01*
X015686Y001832D01*
X015629Y001831D01*
X015571Y001835D01*
X015515Y001844D01*
X015459Y001858D01*
X015405Y001878D01*
X015353Y001902D01*
X015303Y001930D01*
X015257Y001963D01*
X015213Y002001D01*
X015173Y002042D01*
X015137Y002086D01*
X015105Y002134D01*
X015077Y002184D01*
X015054Y002237D01*
X015036Y002291D01*
X015023Y002347D01*
X015016Y002404D01*
X015013Y002461D01*
D11*
X005384Y004962D02*
X005077Y004962D01*
X005307Y005192D01*
X005307Y004731D01*
X004924Y004808D02*
X004924Y004885D01*
X004847Y004962D01*
X004770Y004962D01*
X004847Y004962D02*
X004924Y005038D01*
X004924Y005115D01*
X004847Y005192D01*
X004694Y005192D01*
X004617Y005115D01*
X004463Y004962D02*
X004157Y004962D01*
X004387Y005192D01*
X004387Y004731D01*
X004617Y004808D02*
X004694Y004731D01*
X004847Y004731D01*
X004924Y004808D01*
X004003Y004962D02*
X003696Y004962D01*
X003543Y004885D02*
X003543Y004808D01*
X003466Y004731D01*
X003313Y004731D01*
X003236Y004808D01*
X003313Y004962D02*
X003466Y004962D01*
X003543Y004885D01*
X003543Y005115D02*
X003466Y005192D01*
X003313Y005192D01*
X003236Y005115D01*
X003236Y005038D01*
X003313Y004962D01*
X003082Y005192D02*
X003082Y004731D01*
X002929Y004885D01*
X002775Y004731D01*
X002775Y005192D01*
X002622Y005192D02*
X002315Y005192D01*
X002469Y005192D02*
X002469Y004731D01*
X003310Y005481D02*
X003464Y005481D01*
X003387Y005481D02*
X003387Y005942D01*
X003310Y005942D02*
X003464Y005942D01*
X003617Y005865D02*
X003617Y005558D01*
X003694Y005481D01*
X003847Y005481D01*
X003924Y005558D01*
X004077Y005558D02*
X004154Y005481D01*
X004308Y005481D01*
X004384Y005558D01*
X004384Y005635D01*
X004308Y005712D01*
X004231Y005712D01*
X004308Y005712D02*
X004384Y005788D01*
X004384Y005865D01*
X004308Y005942D01*
X004154Y005942D01*
X004077Y005865D01*
X003924Y005865D02*
X003847Y005942D01*
X003694Y005942D01*
X003617Y005865D01*
X010663Y011856D02*
X010663Y012377D01*
X010923Y012377D01*
X011010Y012290D01*
X011010Y012117D01*
X010923Y012030D01*
X010663Y012030D01*
X010836Y012030D02*
X011010Y011856D01*
X011178Y011943D02*
X011178Y012117D01*
X011265Y012203D01*
X011439Y012203D01*
X011525Y012117D01*
X011525Y012030D01*
X011178Y012030D01*
X011178Y011943D02*
X011265Y011856D01*
X011439Y011856D01*
X011694Y011943D02*
X011781Y011856D01*
X012041Y011856D01*
X012210Y011943D02*
X012210Y012117D01*
X012296Y012203D01*
X012470Y012203D01*
X012557Y012117D01*
X012557Y011943D01*
X012470Y011856D01*
X012296Y011856D01*
X012210Y011943D01*
X012725Y011856D02*
X012725Y012203D01*
X012986Y012203D01*
X013072Y012117D01*
X013072Y011856D01*
X012041Y012203D02*
X011781Y012203D01*
X011694Y012117D01*
X011694Y011943D01*
X014272Y011856D02*
X014272Y012203D01*
X014446Y012377D01*
X014619Y012203D01*
X014619Y011856D01*
X014619Y012117D02*
X014272Y012117D01*
X014788Y012377D02*
X015135Y012377D01*
X014961Y012377D02*
X014961Y011856D01*
X015304Y011856D02*
X015650Y011856D01*
X015819Y011856D02*
X016166Y012203D01*
X016166Y012290D01*
X016079Y012377D01*
X015906Y012377D01*
X015819Y012290D01*
X015477Y012377D02*
X015477Y011856D01*
X015819Y011856D02*
X016166Y011856D01*
X015477Y012377D02*
X015304Y012203D01*
D12*
X013768Y011061D02*
X013768Y010361D01*
X013668Y010261D02*
X013518Y010261D01*
X013468Y010311D01*
X011568Y010311D01*
X011518Y010261D01*
X011368Y010261D01*
X011268Y010361D02*
X011268Y011061D01*
X011368Y011161D02*
X011518Y011161D01*
X011568Y011111D01*
X013468Y011111D01*
X013518Y011161D01*
X013668Y011161D01*
X013318Y010111D02*
X011718Y010111D01*
X011698Y010109D01*
X011680Y010103D01*
X011662Y010094D01*
X011647Y010082D01*
X011635Y010067D01*
X011626Y010049D01*
X011620Y010031D01*
X011618Y010011D01*
X011618Y009411D01*
X011620Y009391D01*
X011626Y009373D01*
X011635Y009355D01*
X011647Y009340D01*
X011662Y009328D01*
X011680Y009319D01*
X011698Y009313D01*
X011718Y009311D01*
X013318Y009311D01*
X013338Y009313D01*
X013356Y009319D01*
X013374Y009328D01*
X013389Y009340D01*
X013401Y009355D01*
X013410Y009373D01*
X013416Y009391D01*
X013418Y009411D01*
X013418Y010011D01*
X013416Y010031D01*
X013410Y010049D01*
X013401Y010067D01*
X013389Y010082D01*
X013374Y010094D01*
X013356Y010103D01*
X013338Y010109D01*
X013318Y010111D01*
X012768Y009711D02*
X012518Y009711D01*
X012118Y009461D01*
X012118Y009961D01*
X012518Y009711D01*
X012518Y009461D01*
X012518Y009711D02*
X011918Y009711D01*
X012518Y009711D02*
X012518Y009961D01*
X013193Y008861D02*
X011593Y008861D01*
X011573Y008859D01*
X011555Y008853D01*
X011537Y008844D01*
X011522Y008832D01*
X011510Y008817D01*
X011501Y008799D01*
X011495Y008781D01*
X011493Y008761D01*
X011493Y008161D01*
X011495Y008141D01*
X011501Y008123D01*
X011510Y008105D01*
X011522Y008090D01*
X011537Y008078D01*
X011555Y008069D01*
X011573Y008063D01*
X011593Y008061D01*
X013193Y008061D01*
X013213Y008063D01*
X013231Y008069D01*
X013249Y008078D01*
X013264Y008090D01*
X013276Y008105D01*
X013285Y008123D01*
X013291Y008141D01*
X013293Y008161D01*
X013293Y008761D01*
X013291Y008781D01*
X013285Y008799D01*
X013276Y008817D01*
X013264Y008832D01*
X013249Y008844D01*
X013231Y008853D01*
X013213Y008859D01*
X013193Y008861D01*
X012643Y008461D02*
X012393Y008461D01*
X012393Y008711D01*
X012393Y008461D02*
X011793Y008461D01*
X011993Y008211D02*
X011993Y008711D01*
X012393Y008461D01*
X012393Y008211D01*
X012393Y008461D02*
X011993Y008211D01*
X011593Y007861D02*
X013193Y007861D01*
X013213Y007859D01*
X013231Y007853D01*
X013249Y007844D01*
X013264Y007832D01*
X013276Y007817D01*
X013285Y007799D01*
X013291Y007781D01*
X013293Y007761D01*
X013293Y007161D01*
X013291Y007141D01*
X013285Y007123D01*
X013276Y007105D01*
X013264Y007090D01*
X013249Y007078D01*
X013231Y007069D01*
X013213Y007063D01*
X013193Y007061D01*
X011593Y007061D01*
X011573Y007063D01*
X011555Y007069D01*
X011537Y007078D01*
X011522Y007090D01*
X011510Y007105D01*
X011501Y007123D01*
X011495Y007141D01*
X011493Y007161D01*
X011493Y007761D01*
X011495Y007781D01*
X011501Y007799D01*
X011510Y007817D01*
X011522Y007832D01*
X011537Y007844D01*
X011555Y007853D01*
X011573Y007859D01*
X011593Y007861D01*
X011993Y007711D02*
X012393Y007461D01*
X012393Y007711D01*
X012393Y007461D02*
X011793Y007461D01*
X011993Y007211D02*
X011993Y007711D01*
X012393Y007461D02*
X012393Y007211D01*
X012393Y007461D02*
X011993Y007211D01*
X012393Y007461D02*
X012643Y007461D01*
X013193Y006861D02*
X011593Y006861D01*
X011573Y006859D01*
X011555Y006853D01*
X011537Y006844D01*
X011522Y006832D01*
X011510Y006817D01*
X011501Y006799D01*
X011495Y006781D01*
X011493Y006761D01*
X011493Y006161D01*
X011495Y006141D01*
X011501Y006123D01*
X011510Y006105D01*
X011522Y006090D01*
X011537Y006078D01*
X011555Y006069D01*
X011573Y006063D01*
X011593Y006061D01*
X013193Y006061D01*
X013213Y006063D01*
X013231Y006069D01*
X013249Y006078D01*
X013264Y006090D01*
X013276Y006105D01*
X013285Y006123D01*
X013291Y006141D01*
X013293Y006161D01*
X013293Y006761D01*
X013291Y006781D01*
X013285Y006799D01*
X013276Y006817D01*
X013264Y006832D01*
X013249Y006844D01*
X013231Y006853D01*
X013213Y006859D01*
X013193Y006861D01*
X012643Y006461D02*
X012393Y006461D01*
X012393Y006711D01*
X012393Y006461D02*
X011993Y006711D01*
X011993Y006211D01*
X012393Y006461D01*
X012393Y006211D01*
X012393Y006461D02*
X011793Y006461D01*
X011593Y005861D02*
X013193Y005861D01*
X013213Y005859D01*
X013231Y005853D01*
X013249Y005844D01*
X013264Y005832D01*
X013276Y005817D01*
X013285Y005799D01*
X013291Y005781D01*
X013293Y005761D01*
X013293Y005161D01*
X013291Y005141D01*
X013285Y005123D01*
X013276Y005105D01*
X013264Y005090D01*
X013249Y005078D01*
X013231Y005069D01*
X013213Y005063D01*
X013193Y005061D01*
X011593Y005061D01*
X011573Y005063D01*
X011555Y005069D01*
X011537Y005078D01*
X011522Y005090D01*
X011510Y005105D01*
X011501Y005123D01*
X011495Y005141D01*
X011493Y005161D01*
X011493Y005761D01*
X011495Y005781D01*
X011501Y005799D01*
X011510Y005817D01*
X011522Y005832D01*
X011537Y005844D01*
X011555Y005853D01*
X011573Y005859D01*
X011593Y005861D01*
X011993Y005711D02*
X012393Y005461D01*
X012393Y005711D01*
X011993Y005711D02*
X011993Y005211D01*
X012393Y005461D01*
X012393Y005211D01*
X012393Y005461D02*
X011793Y005461D01*
X012393Y005461D02*
X012643Y005461D01*
X013193Y004861D02*
X011593Y004861D01*
X011573Y004859D01*
X011555Y004853D01*
X011537Y004844D01*
X011522Y004832D01*
X011510Y004817D01*
X011501Y004799D01*
X011495Y004781D01*
X011493Y004761D01*
X011493Y004161D01*
X011495Y004141D01*
X011501Y004123D01*
X011510Y004105D01*
X011522Y004090D01*
X011537Y004078D01*
X011555Y004069D01*
X011573Y004063D01*
X011593Y004061D01*
X013193Y004061D01*
X013213Y004063D01*
X013231Y004069D01*
X013249Y004078D01*
X013264Y004090D01*
X013276Y004105D01*
X013285Y004123D01*
X013291Y004141D01*
X013293Y004161D01*
X013293Y004761D01*
X013291Y004781D01*
X013285Y004799D01*
X013276Y004817D01*
X013264Y004832D01*
X013249Y004844D01*
X013231Y004853D01*
X013213Y004859D01*
X013193Y004861D01*
X012643Y004461D02*
X012393Y004461D01*
X012393Y004711D01*
X012393Y004461D02*
X011993Y004711D01*
X011993Y004211D01*
X012393Y004461D01*
X012393Y004211D01*
X012393Y004461D02*
X011793Y004461D01*
X011593Y003861D02*
X013193Y003861D01*
X013213Y003859D01*
X013231Y003853D01*
X013249Y003844D01*
X013264Y003832D01*
X013276Y003817D01*
X013285Y003799D01*
X013291Y003781D01*
X013293Y003761D01*
X013293Y003161D01*
X013291Y003141D01*
X013285Y003123D01*
X013276Y003105D01*
X013264Y003090D01*
X013249Y003078D01*
X013231Y003069D01*
X013213Y003063D01*
X013193Y003061D01*
X011593Y003061D01*
X011573Y003063D01*
X011555Y003069D01*
X011537Y003078D01*
X011522Y003090D01*
X011510Y003105D01*
X011501Y003123D01*
X011495Y003141D01*
X011493Y003161D01*
X011493Y003761D01*
X011495Y003781D01*
X011501Y003799D01*
X011510Y003817D01*
X011522Y003832D01*
X011537Y003844D01*
X011555Y003853D01*
X011573Y003859D01*
X011593Y003861D01*
X011993Y003711D02*
X012393Y003461D01*
X012393Y003711D01*
X012393Y003461D02*
X011793Y003461D01*
X011993Y003211D02*
X011993Y003711D01*
X012393Y003461D02*
X012393Y003211D01*
X012393Y003461D02*
X011993Y003211D01*
X012393Y003461D02*
X012643Y003461D01*
X013193Y002861D02*
X011593Y002861D01*
X011573Y002859D01*
X011555Y002853D01*
X011537Y002844D01*
X011522Y002832D01*
X011510Y002817D01*
X011501Y002799D01*
X011495Y002781D01*
X011493Y002761D01*
X011493Y002161D01*
X011495Y002141D01*
X011501Y002123D01*
X011510Y002105D01*
X011522Y002090D01*
X011537Y002078D01*
X011555Y002069D01*
X011573Y002063D01*
X011593Y002061D01*
X013193Y002061D01*
X013213Y002063D01*
X013231Y002069D01*
X013249Y002078D01*
X013264Y002090D01*
X013276Y002105D01*
X013285Y002123D01*
X013291Y002141D01*
X013293Y002161D01*
X013293Y002761D01*
X013291Y002781D01*
X013285Y002799D01*
X013276Y002817D01*
X013264Y002832D01*
X013249Y002844D01*
X013231Y002853D01*
X013213Y002859D01*
X013193Y002861D01*
X012643Y002461D02*
X012393Y002461D01*
X012393Y002711D01*
X012393Y002461D02*
X011793Y002461D01*
X011993Y002211D02*
X011993Y002711D01*
X012393Y002461D01*
X012393Y002211D01*
X012393Y002461D02*
X011993Y002211D01*
X009093Y001961D02*
X009093Y002961D01*
X009091Y002981D01*
X009085Y002999D01*
X009076Y003017D01*
X009064Y003032D01*
X009049Y003044D01*
X009031Y003053D01*
X009013Y003059D01*
X008993Y003061D01*
X007293Y003061D01*
X007273Y003059D01*
X007255Y003053D01*
X007237Y003044D01*
X007222Y003032D01*
X007210Y003017D01*
X007201Y002999D01*
X007195Y002981D01*
X007193Y002961D01*
X007193Y001961D01*
X007195Y001941D01*
X007201Y001923D01*
X007210Y001905D01*
X007222Y001890D01*
X007237Y001878D01*
X007255Y001869D01*
X007273Y001863D01*
X007293Y001861D01*
X008993Y001861D01*
X009013Y001863D01*
X009031Y001869D01*
X009049Y001878D01*
X009064Y001890D01*
X009076Y001905D01*
X009085Y001923D01*
X009091Y001941D01*
X009093Y001961D01*
X008443Y002461D02*
X008293Y002461D01*
X008243Y002461D01*
X008043Y002461D02*
X007993Y002461D01*
X007843Y002461D01*
X006993Y003461D02*
X009293Y003461D01*
X009293Y012461D01*
X008543Y012461D01*
X008541Y012422D01*
X008535Y012383D01*
X008526Y012345D01*
X008513Y012308D01*
X008496Y012272D01*
X008476Y012239D01*
X008452Y012207D01*
X008426Y012178D01*
X008397Y012152D01*
X008365Y012128D01*
X008332Y012108D01*
X008296Y012091D01*
X008259Y012078D01*
X008221Y012069D01*
X008182Y012063D01*
X008143Y012061D01*
X008104Y012063D01*
X008065Y012069D01*
X008027Y012078D01*
X007990Y012091D01*
X007954Y012108D01*
X007921Y012128D01*
X007889Y012152D01*
X007860Y012178D01*
X007834Y012207D01*
X007810Y012239D01*
X007790Y012272D01*
X007773Y012308D01*
X007760Y012345D01*
X007751Y012383D01*
X007745Y012422D01*
X007743Y012461D01*
X006993Y012461D01*
X006993Y003461D01*
X014893Y004211D02*
X015143Y003961D01*
X015643Y003961D01*
X015893Y004211D01*
X015893Y004711D01*
X015643Y004961D01*
X015893Y005211D01*
X015893Y005711D01*
X015643Y005961D01*
X015143Y005961D01*
X014893Y005711D01*
X014893Y005211D01*
X015143Y004961D01*
X015643Y004961D01*
X015143Y004961D02*
X014893Y004711D01*
X014893Y004211D01*
X015143Y005961D02*
X014893Y006211D01*
X014893Y006711D01*
X015143Y006961D01*
X014893Y007211D01*
X014893Y007711D01*
X015143Y007961D01*
X014893Y008211D01*
X014893Y008711D01*
X015143Y008961D01*
X015643Y008961D01*
X015893Y008711D01*
X015893Y008211D01*
X015643Y007961D01*
X015893Y007711D01*
X015893Y007211D01*
X015643Y006961D01*
X015893Y006711D01*
X015893Y006211D01*
X015643Y005961D01*
X015643Y006961D02*
X015143Y006961D01*
X015143Y007961D02*
X015643Y007961D01*
X005688Y011561D02*
X005530Y011561D01*
X004755Y011561D01*
X004530Y011561D01*
X003755Y011561D01*
X003598Y011561D01*
X003818Y012111D02*
X005468Y012111D01*
X005393Y012711D02*
X004893Y012711D01*
X004643Y012961D01*
X004393Y012711D01*
X003893Y012711D01*
X003643Y012961D01*
X003643Y013461D01*
X003893Y013711D01*
X004393Y013711D01*
X004643Y013461D01*
X004893Y013711D01*
X005393Y013711D01*
X005643Y013461D01*
X005643Y012961D01*
X005393Y012711D01*
X004643Y012961D02*
X004643Y013461D01*
X007593Y013211D02*
X007593Y014211D01*
X009193Y014211D01*
X009193Y013211D01*
X007593Y013211D01*
X008393Y013461D02*
X008393Y013711D01*
X008393Y013961D01*
X008393Y013711D02*
X008793Y013961D01*
X008793Y013461D01*
X008393Y013711D01*
X008993Y013711D01*
X008393Y013711D02*
X008143Y013711D01*
X011268Y013461D02*
X011268Y013961D01*
X011518Y014211D01*
X012018Y014211D01*
X012268Y013961D01*
X012518Y014211D01*
X013018Y014211D01*
X013268Y013961D01*
X013268Y013461D01*
X013018Y013211D01*
X012518Y013211D01*
X012268Y013461D01*
X012018Y013211D01*
X011518Y013211D01*
X011268Y013461D01*
X012268Y013461D02*
X012268Y013961D01*
X004543Y009711D02*
X004343Y009711D01*
X004343Y009211D01*
X004343Y008711D01*
X004543Y008711D01*
X004543Y009711D01*
X004193Y009711D02*
X004093Y009711D01*
X004093Y009611D01*
X004093Y009711D02*
X004093Y009811D01*
X004093Y009711D02*
X003993Y009711D01*
X003993Y009211D02*
X004343Y009211D01*
X003643Y009211D02*
X003647Y009302D01*
X003660Y009392D01*
X003680Y009481D01*
X003709Y009567D01*
X003745Y009651D01*
X003789Y009731D01*
X003839Y009806D01*
X003897Y009877D01*
X003960Y009942D01*
X004030Y010001D01*
X004104Y010053D01*
X004183Y010099D01*
X004266Y010137D01*
X004351Y010168D01*
X004440Y010190D01*
X004529Y010205D01*
X004620Y010211D01*
X004711Y010209D01*
X004802Y010198D01*
X004891Y010180D01*
X004978Y010153D01*
X005062Y010119D01*
X005143Y010077D01*
X005220Y010028D01*
X005292Y009972D01*
X005358Y009910D01*
X005419Y009842D01*
X005473Y009769D01*
X005520Y009691D01*
X005560Y009609D01*
X005593Y009524D01*
X005617Y009437D01*
X005634Y009347D01*
X005642Y009257D01*
X005642Y009165D01*
X005634Y009075D01*
X005617Y008985D01*
X005593Y008898D01*
X005560Y008813D01*
X005520Y008731D01*
X005473Y008653D01*
X005419Y008580D01*
X005358Y008512D01*
X005292Y008450D01*
X005220Y008394D01*
X005143Y008345D01*
X005062Y008303D01*
X004978Y008269D01*
X004891Y008242D01*
X004802Y008224D01*
X004711Y008213D01*
X004620Y008211D01*
X004529Y008217D01*
X004440Y008232D01*
X004351Y008254D01*
X004266Y008285D01*
X004183Y008323D01*
X004104Y008369D01*
X004030Y008421D01*
X003960Y008480D01*
X003897Y008545D01*
X003839Y008616D01*
X003789Y008691D01*
X003745Y008771D01*
X003709Y008855D01*
X003680Y008941D01*
X003660Y009030D01*
X003647Y009120D01*
X003643Y009211D01*
X002218Y008711D02*
X002220Y008746D01*
X002226Y008780D01*
X002236Y008814D01*
X002250Y008846D01*
X002267Y008876D01*
X002288Y008904D01*
X002312Y008929D01*
X002339Y008952D01*
X002368Y008971D01*
X002399Y008986D01*
X002432Y008998D01*
X002466Y009006D01*
X002501Y009010D01*
X002535Y009010D01*
X002570Y009006D01*
X002604Y008998D01*
X002637Y008986D01*
X002668Y008971D01*
X002697Y008952D01*
X002724Y008929D01*
X002748Y008904D01*
X002769Y008876D01*
X002786Y008846D01*
X002800Y008814D01*
X002810Y008780D01*
X002816Y008746D01*
X002818Y008711D01*
X002816Y008676D01*
X002810Y008642D01*
X002800Y008608D01*
X002786Y008576D01*
X002769Y008546D01*
X002748Y008518D01*
X002724Y008493D01*
X002697Y008470D01*
X002668Y008451D01*
X002637Y008436D01*
X002604Y008424D01*
X002570Y008416D01*
X002535Y008412D01*
X002501Y008412D01*
X002466Y008416D01*
X002432Y008424D01*
X002399Y008436D01*
X002368Y008451D01*
X002339Y008470D01*
X002312Y008493D01*
X002288Y008518D01*
X002267Y008546D01*
X002250Y008576D01*
X002236Y008608D01*
X002226Y008642D01*
X002220Y008676D01*
X002218Y008711D01*
X004893Y009211D02*
X005293Y009211D01*
D13*
X003878Y009986D02*
X003578Y009986D01*
X003728Y009986D02*
X003728Y010437D01*
X003578Y010287D01*
X003418Y010362D02*
X003343Y010437D01*
X003193Y010437D01*
X003118Y010362D01*
X003118Y010061D01*
X003193Y009986D01*
X003343Y009986D01*
X003418Y010061D01*
X002843Y010006D02*
X002543Y010006D01*
X002392Y009855D01*
X002543Y009705D01*
X002843Y009705D01*
X002618Y009705D02*
X002618Y010006D01*
X002843Y010166D02*
X002392Y010166D01*
X002843Y010466D01*
X002392Y010466D01*
X002392Y010626D02*
X002392Y010926D01*
X002392Y010776D02*
X002843Y010776D01*
X002772Y011711D02*
X002847Y011786D01*
X002772Y011711D02*
X002622Y011711D01*
X002547Y011786D01*
X002547Y012087D01*
X002622Y012162D01*
X002772Y012162D01*
X002847Y012087D01*
X003007Y012087D02*
X003082Y012162D01*
X003233Y012162D01*
X003308Y012087D01*
X003308Y012012D01*
X003007Y011711D01*
X003308Y011711D01*
X002390Y011711D02*
X002240Y011711D01*
X002315Y011711D02*
X002315Y012162D01*
X002240Y012162D02*
X002390Y012162D01*
X003713Y013956D02*
X003788Y013956D01*
X003863Y014031D01*
X003863Y014407D01*
X003788Y014407D02*
X003938Y014407D01*
X004098Y014407D02*
X004323Y014407D01*
X004398Y014332D01*
X004398Y014182D01*
X004323Y014107D01*
X004098Y014107D01*
X004098Y013956D02*
X004098Y014407D01*
X004559Y014332D02*
X004634Y014407D01*
X004784Y014407D01*
X004859Y014332D01*
X004859Y014257D01*
X004559Y013956D01*
X004859Y013956D01*
X003713Y013956D02*
X003638Y014031D01*
X006618Y014011D02*
X006843Y014011D01*
X006918Y014086D01*
X006918Y014387D01*
X006843Y014462D01*
X006618Y014462D01*
X006618Y014011D01*
X007078Y014011D02*
X007378Y014011D01*
X007228Y014011D02*
X007228Y014462D01*
X007078Y014312D01*
X007917Y011576D02*
X007917Y011276D01*
X008368Y011276D01*
X008368Y011576D01*
X008143Y011426D02*
X008143Y011276D01*
X008068Y011116D02*
X007993Y011116D01*
X007917Y011041D01*
X007917Y010891D01*
X007993Y010816D01*
X008068Y011116D02*
X008368Y010816D01*
X008368Y011116D01*
X008368Y010655D02*
X008368Y010355D01*
X008368Y010505D02*
X007917Y010505D01*
X008068Y010355D01*
X007917Y010195D02*
X007917Y009895D01*
X007917Y010045D02*
X008368Y010045D01*
X008368Y009735D02*
X007917Y009735D01*
X008143Y009735D02*
X008143Y009434D01*
X008368Y009434D02*
X007917Y009434D01*
X010597Y009187D02*
X010597Y008736D01*
X010822Y008736D01*
X010897Y008811D01*
X010897Y009112D01*
X010822Y009187D01*
X010597Y009187D01*
X011057Y009112D02*
X011057Y009037D01*
X011132Y008962D01*
X011358Y008962D01*
X011358Y009112D02*
X011283Y009187D01*
X011132Y009187D01*
X011057Y009112D01*
X011358Y009112D02*
X011358Y008811D01*
X011283Y008736D01*
X011132Y008736D01*
X011057Y008811D01*
X011057Y008187D02*
X011057Y007962D01*
X011208Y008037D01*
X011283Y008037D01*
X011358Y007962D01*
X011358Y007811D01*
X011283Y007736D01*
X011132Y007736D01*
X011057Y007811D01*
X010897Y007811D02*
X010822Y007736D01*
X010597Y007736D01*
X010597Y008187D01*
X010822Y008187D01*
X010897Y008112D01*
X010897Y007811D01*
X011057Y008187D02*
X011358Y008187D01*
X011283Y007187D02*
X011057Y006962D01*
X011358Y006962D01*
X011283Y007187D02*
X011283Y006736D01*
X010897Y006811D02*
X010897Y007112D01*
X010822Y007187D01*
X010597Y007187D01*
X010597Y006736D01*
X010822Y006736D01*
X010897Y006811D01*
X010822Y006187D02*
X010597Y006187D01*
X010597Y005736D01*
X010822Y005736D01*
X010897Y005811D01*
X010897Y006112D01*
X010822Y006187D01*
X011057Y006112D02*
X011132Y006187D01*
X011283Y006187D01*
X011358Y006112D01*
X011358Y006037D01*
X011283Y005962D01*
X011358Y005887D01*
X011358Y005811D01*
X011283Y005736D01*
X011132Y005736D01*
X011057Y005811D01*
X011208Y005962D02*
X011283Y005962D01*
X011283Y005187D02*
X011132Y005187D01*
X011057Y005112D01*
X010897Y005112D02*
X010822Y005187D01*
X010597Y005187D01*
X010597Y004736D01*
X010822Y004736D01*
X010897Y004811D01*
X010897Y005112D01*
X011283Y005187D02*
X011358Y005112D01*
X011358Y005037D01*
X011057Y004736D01*
X011358Y004736D01*
X011358Y004187D02*
X011208Y004112D01*
X011057Y003962D01*
X011283Y003962D01*
X011358Y003887D01*
X011358Y003811D01*
X011283Y003736D01*
X011132Y003736D01*
X011057Y003811D01*
X011057Y003962D01*
X010897Y004112D02*
X010897Y003811D01*
X010822Y003736D01*
X010597Y003736D01*
X010597Y004187D01*
X010822Y004187D01*
X010897Y004112D01*
X010822Y003187D02*
X010597Y003187D01*
X010597Y002736D01*
X010822Y002736D01*
X010897Y002811D01*
X010897Y003112D01*
X010822Y003187D01*
X011057Y003187D02*
X011358Y003187D01*
X011358Y003112D01*
X011057Y002811D01*
X011057Y002736D01*
X014888Y003406D02*
X014963Y003331D01*
X015038Y003331D01*
X015113Y003406D01*
X015113Y003782D01*
X015038Y003782D02*
X015188Y003782D01*
X015348Y003782D02*
X015573Y003782D01*
X015648Y003707D01*
X015648Y003557D01*
X015573Y003482D01*
X015348Y003482D01*
X015348Y003331D02*
X015348Y003782D01*
X015809Y003707D02*
X015884Y003782D01*
X016034Y003782D01*
X016109Y003707D01*
X016109Y003632D01*
X016034Y003557D01*
X016109Y003482D01*
X016109Y003406D01*
X016034Y003331D01*
X015884Y003331D01*
X015809Y003406D01*
X015959Y003557D02*
X016034Y003557D01*
X008268Y005536D02*
X008268Y005687D01*
X008268Y005611D02*
X007817Y005611D01*
X007817Y005536D02*
X007817Y005687D01*
X007893Y005843D02*
X008193Y005843D01*
X008268Y005918D01*
X008268Y006068D01*
X008193Y006144D01*
X008268Y006304D02*
X008268Y006604D01*
X008268Y006454D02*
X007817Y006454D01*
X007968Y006304D01*
X007893Y006144D02*
X007817Y006068D01*
X007817Y005918D01*
X007893Y005843D01*
X005768Y006461D02*
X002268Y006461D01*
X002268Y003461D01*
X005768Y003461D01*
X005768Y006461D01*
X005768Y006961D01*
X002268Y006961D01*
X002268Y006461D01*
X002518Y004961D02*
X002524Y005097D01*
X002543Y005233D01*
X002574Y005366D01*
X002616Y005495D01*
X002671Y005621D01*
X002736Y005740D01*
X002813Y005854D01*
X002899Y005960D01*
X002994Y006057D01*
X003098Y006146D01*
X003210Y006225D01*
X003328Y006293D01*
X003452Y006350D01*
X003581Y006396D01*
X003713Y006430D01*
X003848Y006451D01*
X003984Y006461D01*
X004120Y006458D01*
X004256Y006442D01*
X004390Y006414D01*
X004520Y006374D01*
X004647Y006323D01*
X004768Y006260D01*
X004883Y006186D01*
X004991Y006103D01*
X005091Y006010D01*
X005182Y005908D01*
X005263Y005798D01*
X005334Y005681D01*
X005394Y005559D01*
X005442Y005431D01*
X005479Y005300D01*
X005504Y005165D01*
X005516Y005029D01*
X005516Y004893D01*
X005504Y004757D01*
X005479Y004622D01*
X005442Y004491D01*
X005394Y004363D01*
X005334Y004241D01*
X005263Y004124D01*
X005182Y004014D01*
X005091Y003912D01*
X004991Y003819D01*
X004883Y003736D01*
X004768Y003662D01*
X004647Y003599D01*
X004520Y003548D01*
X004390Y003508D01*
X004256Y003480D01*
X004120Y003464D01*
X003984Y003461D01*
X003848Y003471D01*
X003713Y003492D01*
X003581Y003526D01*
X003452Y003572D01*
X003328Y003629D01*
X003210Y003697D01*
X003098Y003776D01*
X002994Y003865D01*
X002899Y003962D01*
X002813Y004068D01*
X002736Y004182D01*
X002671Y004301D01*
X002616Y004427D01*
X002574Y004556D01*
X002543Y004689D01*
X002524Y004825D01*
X002518Y004961D01*
X006147Y002612D02*
X006147Y002311D01*
X006222Y002236D01*
X006372Y002236D01*
X006447Y002311D01*
X006607Y002236D02*
X006908Y002537D01*
X006908Y002612D01*
X006833Y002687D01*
X006682Y002687D01*
X006607Y002612D01*
X006447Y002612D02*
X006372Y002687D01*
X006222Y002687D01*
X006147Y002612D01*
X006607Y002236D02*
X006908Y002236D01*
X010722Y009986D02*
X010947Y009986D01*
X011022Y010061D01*
X011022Y010362D01*
X010947Y010437D01*
X010722Y010437D01*
X010722Y009986D01*
X011182Y010061D02*
X011182Y010137D01*
X011257Y010212D01*
X011408Y010212D01*
X011483Y010137D01*
X011483Y010061D01*
X011408Y009986D01*
X011257Y009986D01*
X011182Y010061D01*
X011257Y010212D02*
X011182Y010287D01*
X011182Y010362D01*
X011257Y010437D01*
X011408Y010437D01*
X011483Y010362D01*
X011483Y010287D01*
X011408Y010212D01*
X012093Y010586D02*
X012093Y011037D01*
X012318Y011037D01*
X012393Y010962D01*
X012393Y010812D01*
X012318Y010737D01*
X012093Y010737D01*
X012243Y010737D02*
X012393Y010586D01*
X012553Y010586D02*
X012853Y010586D01*
X012703Y010586D02*
X012703Y011037D01*
X012553Y010887D01*
X013588Y013456D02*
X013663Y013456D01*
X013738Y013531D01*
X013738Y013907D01*
X013663Y013907D02*
X013813Y013907D01*
X013973Y013907D02*
X014198Y013907D01*
X014273Y013832D01*
X014273Y013682D01*
X014198Y013607D01*
X013973Y013607D01*
X013973Y013456D02*
X013973Y013907D01*
X014434Y013757D02*
X014584Y013907D01*
X014584Y013456D01*
X014434Y013456D02*
X014734Y013456D01*
X013588Y013456D02*
X013513Y013531D01*
D14*
X007843Y013711D03*
X004843Y009211D03*
D15*
X006393Y013711D02*
X006793Y013711D01*
X009993Y013711D02*
X010393Y013711D01*
D16*
X009568Y013711D03*
X007218Y013711D03*
D17*
X002518Y008711D03*
D18*
X013043Y008461D03*
X013043Y007461D03*
X013043Y006461D03*
X013043Y005461D03*
X013043Y004461D03*
X013043Y003461D03*
X013043Y002461D03*
X013168Y009711D03*
D19*
X014018Y009711D02*
X014168Y009711D01*
X014043Y008461D02*
X013893Y008461D01*
X013893Y007461D02*
X014043Y007461D01*
X014043Y006461D02*
X013893Y006461D01*
X013893Y005461D02*
X014043Y005461D01*
X014043Y004461D02*
X013893Y004461D01*
X013893Y003461D02*
X014043Y003461D01*
X014043Y002461D02*
X013893Y002461D01*
X010893Y002461D02*
X010743Y002461D01*
X010743Y003461D02*
X010893Y003461D01*
X010893Y004461D02*
X010743Y004461D01*
X010743Y005461D02*
X010893Y005461D01*
X010893Y006461D02*
X010743Y006461D01*
X010743Y007461D02*
X010893Y007461D01*
X010893Y008461D02*
X010743Y008461D01*
X010868Y009711D02*
X011018Y009711D01*
D20*
X011243Y009711D03*
X011118Y008461D03*
X011118Y007461D03*
X011118Y006461D03*
X011118Y005461D03*
X011118Y004461D03*
X011118Y003461D03*
X011118Y002461D03*
X013668Y002461D03*
X013668Y003461D03*
X013668Y004461D03*
X013668Y005461D03*
X013668Y006461D03*
X013668Y007461D03*
X013668Y008461D03*
X013793Y009711D03*
D21*
X015393Y008461D03*
X015393Y007461D03*
X015393Y006461D03*
X015393Y005461D03*
X015393Y004461D03*
X005143Y013211D03*
X004143Y013211D03*
X011768Y013711D03*
X012768Y013711D03*
D22*
X013868Y010711D02*
X014018Y010711D01*
X011168Y010711D02*
X011018Y010711D01*
D23*
X011244Y010357D02*
X011294Y010357D01*
X011293Y010356D02*
X011296Y010341D01*
X011301Y010327D01*
X011310Y010314D01*
X011321Y010303D01*
X011334Y010294D01*
X011348Y010289D01*
X011363Y010286D01*
X011364Y010237D01*
X011363Y010236D01*
X011342Y010239D01*
X011323Y010245D01*
X011304Y010254D01*
X011287Y010266D01*
X011273Y010280D01*
X011261Y010297D01*
X011252Y010316D01*
X011246Y010335D01*
X011243Y010356D01*
X011252Y010356D01*
X011255Y010335D01*
X011262Y010314D01*
X011272Y010296D01*
X011286Y010279D01*
X011303Y010265D01*
X011321Y010255D01*
X011342Y010248D01*
X011363Y010245D01*
X011363Y010254D01*
X011343Y010257D01*
X011325Y010263D01*
X011308Y010273D01*
X011292Y010285D01*
X011280Y010301D01*
X011270Y010318D01*
X011264Y010336D01*
X011261Y010356D01*
X011270Y010356D01*
X011273Y010338D01*
X011278Y010321D01*
X011287Y010306D01*
X011299Y010292D01*
X011313Y010280D01*
X011328Y010271D01*
X011345Y010266D01*
X011363Y010263D01*
X011363Y010272D01*
X011345Y010275D01*
X011327Y010282D01*
X011312Y010292D01*
X011299Y010305D01*
X011289Y010320D01*
X011282Y010338D01*
X011279Y010356D01*
X011288Y010356D01*
X011291Y010340D01*
X011297Y010324D01*
X011306Y010311D01*
X011318Y010299D01*
X011331Y010290D01*
X011347Y010284D01*
X011363Y010281D01*
X011364Y011185D02*
X011364Y011135D01*
X011363Y011136D02*
X011348Y011133D01*
X011334Y011128D01*
X011321Y011119D01*
X011310Y011108D01*
X011301Y011095D01*
X011296Y011081D01*
X011293Y011066D01*
X011244Y011065D01*
X011243Y011066D01*
X011246Y011087D01*
X011252Y011106D01*
X011261Y011125D01*
X011273Y011142D01*
X011287Y011156D01*
X011304Y011168D01*
X011323Y011177D01*
X011342Y011183D01*
X011363Y011186D01*
X011363Y011177D01*
X011342Y011174D01*
X011321Y011167D01*
X011303Y011157D01*
X011286Y011143D01*
X011272Y011126D01*
X011262Y011108D01*
X011255Y011087D01*
X011252Y011066D01*
X011261Y011066D01*
X011264Y011086D01*
X011270Y011104D01*
X011280Y011121D01*
X011292Y011137D01*
X011308Y011149D01*
X011325Y011159D01*
X011343Y011165D01*
X011363Y011168D01*
X011363Y011159D01*
X011345Y011156D01*
X011328Y011151D01*
X011313Y011142D01*
X011299Y011130D01*
X011287Y011116D01*
X011278Y011101D01*
X011273Y011084D01*
X011270Y011066D01*
X011279Y011066D01*
X011282Y011084D01*
X011289Y011102D01*
X011299Y011117D01*
X011312Y011130D01*
X011327Y011140D01*
X011345Y011147D01*
X011363Y011150D01*
X011363Y011141D01*
X011347Y011138D01*
X011331Y011132D01*
X011318Y011123D01*
X011306Y011111D01*
X011297Y011098D01*
X011291Y011082D01*
X011288Y011066D01*
X013792Y011065D02*
X013742Y011065D01*
X013743Y011066D02*
X013740Y011081D01*
X013735Y011095D01*
X013726Y011108D01*
X013715Y011119D01*
X013702Y011128D01*
X013688Y011133D01*
X013673Y011136D01*
X013672Y011185D01*
X013673Y011186D01*
X013694Y011183D01*
X013713Y011177D01*
X013732Y011168D01*
X013749Y011156D01*
X013763Y011142D01*
X013775Y011125D01*
X013784Y011106D01*
X013790Y011087D01*
X013793Y011066D01*
X013784Y011066D01*
X013781Y011087D01*
X013774Y011108D01*
X013764Y011126D01*
X013750Y011143D01*
X013733Y011157D01*
X013715Y011167D01*
X013694Y011174D01*
X013673Y011177D01*
X013673Y011168D01*
X013693Y011165D01*
X013711Y011159D01*
X013728Y011149D01*
X013744Y011137D01*
X013756Y011121D01*
X013766Y011104D01*
X013772Y011086D01*
X013775Y011066D01*
X013766Y011066D01*
X013763Y011084D01*
X013758Y011101D01*
X013749Y011116D01*
X013737Y011130D01*
X013723Y011142D01*
X013708Y011151D01*
X013691Y011156D01*
X013673Y011159D01*
X013673Y011150D01*
X013691Y011147D01*
X013709Y011140D01*
X013724Y011130D01*
X013737Y011117D01*
X013747Y011102D01*
X013754Y011084D01*
X013757Y011066D01*
X013748Y011066D01*
X013745Y011082D01*
X013739Y011098D01*
X013730Y011111D01*
X013718Y011123D01*
X013705Y011132D01*
X013689Y011138D01*
X013673Y011141D01*
X013672Y010237D02*
X013672Y010287D01*
X013673Y010286D02*
X013688Y010289D01*
X013702Y010294D01*
X013715Y010303D01*
X013726Y010314D01*
X013735Y010327D01*
X013740Y010341D01*
X013743Y010356D01*
X013792Y010357D01*
X013793Y010356D01*
X013790Y010335D01*
X013784Y010316D01*
X013775Y010297D01*
X013763Y010280D01*
X013749Y010266D01*
X013732Y010254D01*
X013713Y010245D01*
X013694Y010239D01*
X013673Y010236D01*
X013673Y010245D01*
X013694Y010248D01*
X013715Y010255D01*
X013733Y010265D01*
X013750Y010279D01*
X013764Y010296D01*
X013774Y010314D01*
X013781Y010335D01*
X013784Y010356D01*
X013775Y010356D01*
X013772Y010336D01*
X013766Y010318D01*
X013756Y010301D01*
X013744Y010285D01*
X013728Y010273D01*
X013711Y010263D01*
X013693Y010257D01*
X013673Y010254D01*
X013673Y010263D01*
X013691Y010266D01*
X013708Y010271D01*
X013723Y010280D01*
X013737Y010292D01*
X013749Y010306D01*
X013758Y010321D01*
X013763Y010338D01*
X013766Y010356D01*
X013757Y010356D01*
X013754Y010338D01*
X013747Y010320D01*
X013737Y010305D01*
X013724Y010292D01*
X013709Y010282D01*
X013691Y010275D01*
X013673Y010272D01*
X013673Y010281D01*
X013689Y010284D01*
X013705Y010290D01*
X013718Y010299D01*
X013730Y010311D01*
X013739Y010324D01*
X013745Y010340D01*
X013748Y010356D01*
X004964Y010436D02*
X004950Y010484D01*
X004950Y010483D02*
X005010Y010504D01*
X005069Y010529D01*
X005126Y010557D01*
X005181Y010589D01*
X005235Y010624D01*
X005286Y010662D01*
X005334Y010704D01*
X005380Y010748D01*
X005423Y010796D01*
X005463Y010845D01*
X005499Y010898D01*
X005533Y010952D01*
X005563Y011008D01*
X005589Y011066D01*
X005612Y011126D01*
X005631Y011187D01*
X005646Y011249D01*
X005657Y011311D01*
X005664Y011375D01*
X005668Y011439D01*
X005667Y011502D01*
X005663Y011566D01*
X005654Y011629D01*
X005642Y011692D01*
X005625Y011753D01*
X005605Y011814D01*
X005582Y011873D01*
X005554Y011931D01*
X005523Y011986D01*
X005489Y012040D01*
X005451Y012092D01*
X005490Y012122D01*
X005490Y012123D01*
X005529Y012070D01*
X005564Y012016D01*
X005596Y011959D01*
X005624Y011901D01*
X005649Y011841D01*
X005670Y011780D01*
X005687Y011717D01*
X005701Y011654D01*
X005710Y011590D01*
X005716Y011525D01*
X005718Y011461D01*
X005716Y011396D01*
X005710Y011331D01*
X005700Y011267D01*
X005687Y011204D01*
X005669Y011141D01*
X005648Y011080D01*
X005623Y011020D01*
X005595Y010962D01*
X005563Y010905D01*
X005528Y010851D01*
X005490Y010799D01*
X005448Y010749D01*
X005404Y010702D01*
X005357Y010657D01*
X005307Y010616D01*
X005255Y010577D01*
X005200Y010542D01*
X005144Y010510D01*
X005086Y010481D01*
X005026Y010457D01*
X004965Y010435D01*
X004962Y010444D01*
X005023Y010465D01*
X005082Y010490D01*
X005140Y010518D01*
X005196Y010550D01*
X005250Y010585D01*
X005301Y010623D01*
X005351Y010664D01*
X005398Y010708D01*
X005442Y010755D01*
X005483Y010804D01*
X005521Y010856D01*
X005556Y010910D01*
X005587Y010966D01*
X005615Y011024D01*
X005640Y011083D01*
X005661Y011144D01*
X005678Y011206D01*
X005692Y011269D01*
X005701Y011332D01*
X005707Y011396D01*
X005709Y011461D01*
X005707Y011525D01*
X005701Y011589D01*
X005692Y011652D01*
X005678Y011715D01*
X005661Y011777D01*
X005640Y011838D01*
X005616Y011897D01*
X005588Y011955D01*
X005556Y012011D01*
X005521Y012065D01*
X005483Y012117D01*
X005476Y012111D01*
X005514Y012060D01*
X005548Y012006D01*
X005580Y011951D01*
X005607Y011894D01*
X005632Y011835D01*
X005652Y011774D01*
X005670Y011713D01*
X005683Y011651D01*
X005692Y011588D01*
X005698Y011524D01*
X005700Y011460D01*
X005698Y011397D01*
X005692Y011333D01*
X005683Y011270D01*
X005669Y011208D01*
X005652Y011147D01*
X005631Y011086D01*
X005607Y011028D01*
X005579Y010970D01*
X005548Y010915D01*
X005513Y010861D01*
X005476Y010810D01*
X005435Y010761D01*
X005391Y010714D01*
X005345Y010671D01*
X005296Y010630D01*
X005245Y010592D01*
X005191Y010557D01*
X005136Y010526D01*
X005078Y010498D01*
X005020Y010473D01*
X004959Y010452D01*
X004957Y010461D01*
X005016Y010482D01*
X005075Y010506D01*
X005132Y010534D01*
X005187Y010565D01*
X005240Y010599D01*
X005290Y010637D01*
X005339Y010677D01*
X005385Y010721D01*
X005428Y010767D01*
X005468Y010815D01*
X005506Y010866D01*
X005540Y010919D01*
X005571Y010974D01*
X005599Y011031D01*
X005623Y011090D01*
X005644Y011149D01*
X005661Y011210D01*
X005674Y011272D01*
X005683Y011334D01*
X005689Y011397D01*
X005691Y011460D01*
X005689Y011524D01*
X005683Y011587D01*
X005674Y011649D01*
X005661Y011711D01*
X005644Y011772D01*
X005623Y011831D01*
X005599Y011890D01*
X005572Y011947D01*
X005541Y012002D01*
X005506Y012055D01*
X005469Y012106D01*
X005462Y012100D01*
X005499Y012050D01*
X005533Y011997D01*
X005564Y011942D01*
X005591Y011886D01*
X005615Y011828D01*
X005635Y011769D01*
X005652Y011709D01*
X005665Y011647D01*
X005675Y011585D01*
X005680Y011523D01*
X005682Y011460D01*
X005680Y011398D01*
X005674Y011335D01*
X005665Y011274D01*
X005652Y011212D01*
X005635Y011152D01*
X005615Y011093D01*
X005591Y011035D01*
X005563Y010979D01*
X005532Y010924D01*
X005499Y010871D01*
X005461Y010821D01*
X005421Y010773D01*
X005378Y010727D01*
X005333Y010684D01*
X005285Y010644D01*
X005234Y010607D01*
X005182Y010573D01*
X005127Y010542D01*
X005071Y010514D01*
X005013Y010490D01*
X004954Y010470D01*
X004951Y010478D01*
X005012Y010499D01*
X005071Y010524D01*
X005129Y010553D01*
X005184Y010585D01*
X005238Y010620D01*
X005289Y010659D01*
X005337Y010700D01*
X005383Y010745D01*
X005426Y010792D01*
X005467Y010842D01*
X005503Y010895D01*
X005537Y010949D01*
X005567Y011006D01*
X005594Y011064D01*
X005616Y011124D01*
X005635Y011185D01*
X005651Y011248D01*
X005662Y011311D01*
X005669Y011374D01*
X005673Y011438D01*
X005672Y011503D01*
X005668Y011566D01*
X005659Y011630D01*
X005647Y011693D01*
X005630Y011755D01*
X005610Y011816D01*
X005586Y011875D01*
X005559Y011933D01*
X005527Y011989D01*
X005493Y012043D01*
X005455Y012095D01*
X004331Y010433D02*
X004346Y010481D01*
X004346Y010480D02*
X004404Y010464D01*
X004463Y010452D01*
X004523Y010443D01*
X004583Y010438D01*
X004643Y010436D01*
X004703Y010438D01*
X004763Y010443D01*
X004823Y010452D01*
X004882Y010464D01*
X004940Y010480D01*
X004955Y010433D01*
X004955Y010432D01*
X004894Y010416D01*
X004832Y010403D01*
X004769Y010393D01*
X004706Y010388D01*
X004643Y010386D01*
X004580Y010388D01*
X004517Y010393D01*
X004454Y010403D01*
X004392Y010416D01*
X004331Y010432D01*
X004333Y010441D01*
X004394Y010424D01*
X004456Y010412D01*
X004518Y010402D01*
X004580Y010397D01*
X004643Y010395D01*
X004706Y010397D01*
X004768Y010402D01*
X004830Y010412D01*
X004892Y010424D01*
X004953Y010441D01*
X004950Y010450D01*
X004890Y010433D01*
X004829Y010420D01*
X004767Y010411D01*
X004705Y010406D01*
X004643Y010404D01*
X004581Y010406D01*
X004519Y010411D01*
X004457Y010420D01*
X004396Y010433D01*
X004336Y010450D01*
X004339Y010458D01*
X004398Y010442D01*
X004459Y010429D01*
X004520Y010420D01*
X004581Y010415D01*
X004643Y010413D01*
X004705Y010415D01*
X004766Y010420D01*
X004827Y010429D01*
X004888Y010442D01*
X004947Y010458D01*
X004945Y010467D01*
X004886Y010451D01*
X004826Y010438D01*
X004765Y010429D01*
X004704Y010424D01*
X004643Y010422D01*
X004582Y010424D01*
X004521Y010429D01*
X004460Y010438D01*
X004400Y010451D01*
X004341Y010467D01*
X004344Y010475D01*
X004403Y010459D01*
X004462Y010447D01*
X004522Y010438D01*
X004582Y010433D01*
X004643Y010431D01*
X004704Y010433D01*
X004764Y010438D01*
X004824Y010447D01*
X004883Y010459D01*
X004942Y010475D01*
X003796Y012122D02*
X003835Y012091D01*
X003835Y012092D02*
X003797Y012040D01*
X003763Y011986D01*
X003732Y011931D01*
X003704Y011873D01*
X003681Y011814D01*
X003661Y011753D01*
X003644Y011692D01*
X003632Y011629D01*
X003623Y011566D01*
X003619Y011502D01*
X003618Y011439D01*
X003622Y011375D01*
X003629Y011311D01*
X003640Y011249D01*
X003655Y011187D01*
X003674Y011126D01*
X003697Y011066D01*
X003723Y011008D01*
X003753Y010952D01*
X003787Y010898D01*
X003823Y010845D01*
X003863Y010796D01*
X003906Y010748D01*
X003952Y010704D01*
X004000Y010662D01*
X004051Y010624D01*
X004105Y010589D01*
X004160Y010557D01*
X004217Y010529D01*
X004276Y010504D01*
X004336Y010483D01*
X004322Y010436D01*
X004321Y010435D01*
X004260Y010457D01*
X004200Y010481D01*
X004142Y010510D01*
X004086Y010542D01*
X004031Y010577D01*
X003979Y010616D01*
X003929Y010657D01*
X003882Y010702D01*
X003838Y010749D01*
X003796Y010799D01*
X003758Y010851D01*
X003723Y010905D01*
X003691Y010962D01*
X003663Y011020D01*
X003638Y011080D01*
X003617Y011141D01*
X003599Y011204D01*
X003586Y011267D01*
X003576Y011331D01*
X003570Y011396D01*
X003568Y011461D01*
X003570Y011525D01*
X003576Y011590D01*
X003585Y011654D01*
X003599Y011717D01*
X003616Y011780D01*
X003637Y011841D01*
X003662Y011901D01*
X003690Y011959D01*
X003722Y012016D01*
X003757Y012070D01*
X003796Y012123D01*
X003803Y012117D01*
X003765Y012065D01*
X003730Y012011D01*
X003698Y011955D01*
X003670Y011897D01*
X003646Y011838D01*
X003625Y011777D01*
X003608Y011715D01*
X003594Y011652D01*
X003585Y011589D01*
X003579Y011525D01*
X003577Y011461D01*
X003579Y011396D01*
X003585Y011332D01*
X003594Y011269D01*
X003608Y011206D01*
X003625Y011144D01*
X003646Y011083D01*
X003671Y011024D01*
X003699Y010966D01*
X003730Y010910D01*
X003765Y010856D01*
X003803Y010804D01*
X003844Y010755D01*
X003888Y010708D01*
X003935Y010664D01*
X003985Y010623D01*
X004036Y010585D01*
X004090Y010550D01*
X004146Y010518D01*
X004204Y010490D01*
X004263Y010465D01*
X004324Y010444D01*
X004327Y010452D01*
X004266Y010473D01*
X004208Y010498D01*
X004150Y010526D01*
X004095Y010557D01*
X004041Y010592D01*
X003990Y010630D01*
X003941Y010671D01*
X003895Y010714D01*
X003851Y010761D01*
X003810Y010810D01*
X003773Y010861D01*
X003738Y010915D01*
X003707Y010970D01*
X003679Y011028D01*
X003655Y011086D01*
X003634Y011147D01*
X003617Y011208D01*
X003603Y011270D01*
X003594Y011333D01*
X003588Y011397D01*
X003586Y011460D01*
X003588Y011524D01*
X003594Y011588D01*
X003603Y011651D01*
X003616Y011713D01*
X003634Y011774D01*
X003654Y011835D01*
X003679Y011894D01*
X003706Y011951D01*
X003738Y012006D01*
X003772Y012060D01*
X003810Y012111D01*
X003817Y012106D01*
X003780Y012055D01*
X003745Y012002D01*
X003714Y011947D01*
X003687Y011890D01*
X003663Y011831D01*
X003642Y011772D01*
X003625Y011711D01*
X003612Y011649D01*
X003603Y011587D01*
X003597Y011524D01*
X003595Y011460D01*
X003597Y011397D01*
X003603Y011334D01*
X003612Y011272D01*
X003625Y011210D01*
X003642Y011149D01*
X003663Y011090D01*
X003687Y011031D01*
X003715Y010974D01*
X003746Y010919D01*
X003780Y010866D01*
X003818Y010815D01*
X003858Y010767D01*
X003901Y010721D01*
X003947Y010677D01*
X003996Y010637D01*
X004046Y010599D01*
X004099Y010565D01*
X004154Y010534D01*
X004211Y010506D01*
X004270Y010482D01*
X004329Y010461D01*
X004332Y010470D01*
X004273Y010490D01*
X004215Y010514D01*
X004159Y010542D01*
X004104Y010573D01*
X004052Y010607D01*
X004001Y010644D01*
X003953Y010684D01*
X003908Y010727D01*
X003865Y010773D01*
X003825Y010821D01*
X003787Y010871D01*
X003754Y010924D01*
X003723Y010979D01*
X003695Y011035D01*
X003671Y011093D01*
X003651Y011152D01*
X003634Y011212D01*
X003621Y011274D01*
X003612Y011335D01*
X003606Y011398D01*
X003604Y011460D01*
X003606Y011523D01*
X003611Y011585D01*
X003621Y011647D01*
X003634Y011709D01*
X003651Y011769D01*
X003671Y011828D01*
X003695Y011886D01*
X003722Y011942D01*
X003753Y011997D01*
X003787Y012050D01*
X003824Y012100D01*
X003831Y012095D01*
X003793Y012043D01*
X003759Y011989D01*
X003727Y011933D01*
X003700Y011875D01*
X003676Y011816D01*
X003656Y011755D01*
X003639Y011693D01*
X003627Y011630D01*
X003618Y011566D01*
X003614Y011503D01*
X003613Y011438D01*
X003617Y011374D01*
X003624Y011311D01*
X003635Y011248D01*
X003651Y011185D01*
X003670Y011124D01*
X003692Y011064D01*
X003719Y011006D01*
X003749Y010949D01*
X003783Y010895D01*
X003819Y010842D01*
X003860Y010792D01*
X003903Y010745D01*
X003949Y010700D01*
X003997Y010659D01*
X004048Y010620D01*
X004102Y010585D01*
X004157Y010553D01*
X004215Y010524D01*
X004274Y010499D01*
X004335Y010478D01*
D24*
X011218Y010711D03*
X013818Y010711D03*
D25*
X008243Y002761D02*
X008243Y002461D01*
X008243Y002161D01*
X008043Y002161D02*
X008043Y002461D01*
X008043Y002761D01*
M02*
