G75*
G70*
%OFA0B0*%
%FSLAX24Y24*%
%IPPOS*%
%LPD*%
%AMOC8*
5,1,8,0,0,1.08239X$1,22.5*
%
%ADD10C,0.0000*%
%ADD11C,0.0030*%
%ADD12C,0.0040*%
%ADD13C,0.0060*%
%ADD14C,0.0050*%
D10*
X001643Y001461D02*
X001643Y014961D01*
X016643Y014961D01*
X016643Y001461D01*
X001643Y001461D01*
X002013Y002461D02*
X002016Y002518D01*
X002023Y002575D01*
X002036Y002631D01*
X002054Y002685D01*
X002077Y002738D01*
X002105Y002788D01*
X002137Y002836D01*
X002173Y002880D01*
X002213Y002921D01*
X002257Y002959D01*
X002303Y002992D01*
X002353Y003020D01*
X002405Y003044D01*
X002459Y003064D01*
X002515Y003078D01*
X002571Y003087D01*
X002629Y003091D01*
X002686Y003090D01*
X002743Y003083D01*
X002799Y003071D01*
X002854Y003055D01*
X002907Y003033D01*
X002958Y003007D01*
X003006Y002976D01*
X003052Y002941D01*
X003094Y002901D01*
X003132Y002859D01*
X003166Y002812D01*
X003196Y002763D01*
X003221Y002712D01*
X003241Y002658D01*
X003257Y002603D01*
X003267Y002547D01*
X003272Y002490D01*
X003272Y002432D01*
X003267Y002375D01*
X003257Y002319D01*
X003241Y002264D01*
X003221Y002210D01*
X003196Y002159D01*
X003166Y002110D01*
X003132Y002063D01*
X003094Y002021D01*
X003052Y001981D01*
X003006Y001946D01*
X002958Y001915D01*
X002907Y001889D01*
X002854Y001867D01*
X002799Y001851D01*
X002743Y001839D01*
X002686Y001832D01*
X002629Y001831D01*
X002571Y001835D01*
X002515Y001844D01*
X002459Y001858D01*
X002405Y001878D01*
X002353Y001902D01*
X002303Y001930D01*
X002257Y001963D01*
X002213Y002001D01*
X002173Y002042D01*
X002137Y002086D01*
X002105Y002134D01*
X002077Y002184D01*
X002054Y002237D01*
X002036Y002291D01*
X002023Y002347D01*
X002016Y002404D01*
X002013Y002461D01*
X015013Y002461D02*
X015016Y002518D01*
X015023Y002575D01*
X015036Y002631D01*
X015054Y002685D01*
X015077Y002738D01*
X015105Y002788D01*
X015137Y002836D01*
X015173Y002880D01*
X015213Y002921D01*
X015257Y002959D01*
X015303Y002992D01*
X015353Y003020D01*
X015405Y003044D01*
X015459Y003064D01*
X015515Y003078D01*
X015571Y003087D01*
X015629Y003091D01*
X015686Y003090D01*
X015743Y003083D01*
X015799Y003071D01*
X015854Y003055D01*
X015907Y003033D01*
X015958Y003007D01*
X016006Y002976D01*
X016052Y002941D01*
X016094Y002901D01*
X016132Y002859D01*
X016166Y002812D01*
X016196Y002763D01*
X016221Y002712D01*
X016241Y002658D01*
X016257Y002603D01*
X016267Y002547D01*
X016272Y002490D01*
X016272Y002432D01*
X016267Y002375D01*
X016257Y002319D01*
X016241Y002264D01*
X016221Y002210D01*
X016196Y002159D01*
X016166Y002110D01*
X016132Y002063D01*
X016094Y002021D01*
X016052Y001981D01*
X016006Y001946D01*
X015958Y001915D01*
X015907Y001889D01*
X015854Y001867D01*
X015799Y001851D01*
X015743Y001839D01*
X015686Y001832D01*
X015629Y001831D01*
X015571Y001835D01*
X015515Y001844D01*
X015459Y001858D01*
X015405Y001878D01*
X015353Y001902D01*
X015303Y001930D01*
X015257Y001963D01*
X015213Y002001D01*
X015173Y002042D01*
X015137Y002086D01*
X015105Y002134D01*
X015077Y002184D01*
X015054Y002237D01*
X015036Y002291D01*
X015023Y002347D01*
X015016Y002404D01*
X015013Y002461D01*
X015013Y013961D02*
X015016Y014018D01*
X015023Y014075D01*
X015036Y014131D01*
X015054Y014185D01*
X015077Y014238D01*
X015105Y014288D01*
X015137Y014336D01*
X015173Y014380D01*
X015213Y014421D01*
X015257Y014459D01*
X015303Y014492D01*
X015353Y014520D01*
X015405Y014544D01*
X015459Y014564D01*
X015515Y014578D01*
X015571Y014587D01*
X015629Y014591D01*
X015686Y014590D01*
X015743Y014583D01*
X015799Y014571D01*
X015854Y014555D01*
X015907Y014533D01*
X015958Y014507D01*
X016006Y014476D01*
X016052Y014441D01*
X016094Y014401D01*
X016132Y014359D01*
X016166Y014312D01*
X016196Y014263D01*
X016221Y014212D01*
X016241Y014158D01*
X016257Y014103D01*
X016267Y014047D01*
X016272Y013990D01*
X016272Y013932D01*
X016267Y013875D01*
X016257Y013819D01*
X016241Y013764D01*
X016221Y013710D01*
X016196Y013659D01*
X016166Y013610D01*
X016132Y013563D01*
X016094Y013521D01*
X016052Y013481D01*
X016006Y013446D01*
X015958Y013415D01*
X015907Y013389D01*
X015854Y013367D01*
X015799Y013351D01*
X015743Y013339D01*
X015686Y013332D01*
X015629Y013331D01*
X015571Y013335D01*
X015515Y013344D01*
X015459Y013358D01*
X015405Y013378D01*
X015353Y013402D01*
X015303Y013430D01*
X015257Y013463D01*
X015213Y013501D01*
X015173Y013542D01*
X015137Y013586D01*
X015105Y013634D01*
X015077Y013684D01*
X015054Y013737D01*
X015036Y013791D01*
X015023Y013847D01*
X015016Y013904D01*
X015013Y013961D01*
X002013Y013961D02*
X002016Y014018D01*
X002023Y014075D01*
X002036Y014131D01*
X002054Y014185D01*
X002077Y014238D01*
X002105Y014288D01*
X002137Y014336D01*
X002173Y014380D01*
X002213Y014421D01*
X002257Y014459D01*
X002303Y014492D01*
X002353Y014520D01*
X002405Y014544D01*
X002459Y014564D01*
X002515Y014578D01*
X002571Y014587D01*
X002629Y014591D01*
X002686Y014590D01*
X002743Y014583D01*
X002799Y014571D01*
X002854Y014555D01*
X002907Y014533D01*
X002958Y014507D01*
X003006Y014476D01*
X003052Y014441D01*
X003094Y014401D01*
X003132Y014359D01*
X003166Y014312D01*
X003196Y014263D01*
X003221Y014212D01*
X003241Y014158D01*
X003257Y014103D01*
X003267Y014047D01*
X003272Y013990D01*
X003272Y013932D01*
X003267Y013875D01*
X003257Y013819D01*
X003241Y013764D01*
X003221Y013710D01*
X003196Y013659D01*
X003166Y013610D01*
X003132Y013563D01*
X003094Y013521D01*
X003052Y013481D01*
X003006Y013446D01*
X002958Y013415D01*
X002907Y013389D01*
X002854Y013367D01*
X002799Y013351D01*
X002743Y013339D01*
X002686Y013332D01*
X002629Y013331D01*
X002571Y013335D01*
X002515Y013344D01*
X002459Y013358D01*
X002405Y013378D01*
X002353Y013402D01*
X002303Y013430D01*
X002257Y013463D01*
X002213Y013501D01*
X002173Y013542D01*
X002137Y013586D01*
X002105Y013634D01*
X002077Y013684D01*
X002054Y013737D01*
X002036Y013791D01*
X002023Y013847D01*
X002016Y013904D01*
X002013Y013961D01*
D11*
X002243Y013961D02*
X003043Y013961D01*
X002443Y013961D02*
X002445Y013989D01*
X002451Y014017D01*
X002461Y014044D01*
X002475Y014069D01*
X002492Y014092D01*
X002512Y014112D01*
X002535Y014129D01*
X002560Y014143D01*
X002587Y014153D01*
X002615Y014159D01*
X002643Y014161D01*
X002671Y014159D01*
X002699Y014153D01*
X002726Y014143D01*
X002751Y014129D01*
X002774Y014112D01*
X002794Y014092D01*
X002811Y014069D01*
X002825Y014044D01*
X002835Y014017D01*
X002841Y013989D01*
X002843Y013961D01*
X002841Y013933D01*
X002835Y013905D01*
X002825Y013878D01*
X002811Y013853D01*
X002794Y013830D01*
X002774Y013810D01*
X002751Y013793D01*
X002726Y013779D01*
X002699Y013769D01*
X002671Y013763D01*
X002643Y013761D01*
X002615Y013763D01*
X002587Y013769D01*
X002560Y013779D01*
X002535Y013793D01*
X002512Y013810D01*
X002492Y013830D01*
X002475Y013853D01*
X002461Y013878D01*
X002451Y013905D01*
X002445Y013933D01*
X002443Y013961D01*
X002243Y013961D02*
X002245Y014001D01*
X002251Y014042D01*
X002261Y014081D01*
X002275Y014119D01*
X002293Y014155D01*
X002315Y014190D01*
X002339Y014222D01*
X002367Y014251D01*
X002398Y014277D01*
X002431Y014300D01*
X002467Y014320D01*
X002504Y014336D01*
X002543Y014348D01*
X002582Y014356D01*
X002623Y014360D01*
X002663Y014360D01*
X002704Y014356D01*
X002743Y014348D01*
X002782Y014336D01*
X002819Y014320D01*
X002855Y014300D01*
X002888Y014277D01*
X002919Y014251D01*
X002947Y014222D01*
X002971Y014190D01*
X002993Y014155D01*
X003011Y014119D01*
X003025Y014081D01*
X003035Y014042D01*
X003041Y014001D01*
X003043Y013961D01*
X003041Y013921D01*
X003035Y013880D01*
X003025Y013841D01*
X003011Y013803D01*
X002993Y013767D01*
X002971Y013732D01*
X002947Y013700D01*
X002919Y013671D01*
X002888Y013645D01*
X002855Y013622D01*
X002819Y013602D01*
X002782Y013586D01*
X002743Y013574D01*
X002704Y013566D01*
X002663Y013562D01*
X002623Y013562D01*
X002582Y013566D01*
X002543Y013574D01*
X002504Y013586D01*
X002467Y013602D01*
X002431Y013622D01*
X002398Y013645D01*
X002367Y013671D01*
X002339Y013700D01*
X002315Y013732D01*
X002293Y013767D01*
X002275Y013803D01*
X002261Y013841D01*
X002251Y013880D01*
X002245Y013921D01*
X002243Y013961D01*
X002643Y014361D02*
X002643Y013561D01*
X003743Y013611D02*
X004543Y012811D01*
X003743Y012811D01*
X004543Y013611D01*
X003743Y013611D01*
X004743Y013611D02*
X005543Y012811D01*
X004743Y012811D01*
X005543Y013611D01*
X004743Y013611D01*
X005993Y013311D02*
X006793Y014111D01*
X006393Y014111D02*
X006393Y013311D01*
X006793Y013311D02*
X005993Y014111D01*
X006243Y012361D02*
X007043Y011561D01*
X007043Y011361D02*
X006243Y010561D01*
X006243Y010361D02*
X007043Y009561D01*
X006643Y009561D02*
X006643Y010361D01*
X006643Y010561D02*
X006643Y011361D01*
X006643Y011561D02*
X006643Y012361D01*
X007043Y012361D02*
X006243Y011561D01*
X006243Y011361D02*
X007043Y010561D01*
X007043Y010361D02*
X006243Y009561D01*
X006243Y009361D02*
X007043Y008561D01*
X007043Y008361D02*
X006243Y007561D01*
X006243Y007361D02*
X007043Y006561D01*
X007043Y006361D02*
X006243Y005561D01*
X006243Y005361D02*
X007043Y004561D01*
X006643Y004561D02*
X006643Y005361D01*
X006643Y005561D02*
X006643Y006361D01*
X006643Y006561D02*
X006643Y007361D01*
X006643Y007561D02*
X006643Y008361D01*
X006643Y008561D02*
X006643Y009361D01*
X007043Y009361D02*
X006243Y008561D01*
X006243Y008361D02*
X007043Y007561D01*
X007043Y007361D02*
X006243Y006561D01*
X006243Y006361D02*
X007043Y005561D01*
X007043Y005361D02*
X006243Y004561D01*
X006243Y004361D02*
X007043Y003561D01*
X006643Y003561D02*
X006643Y004361D01*
X007043Y004361D02*
X006243Y003561D01*
X007243Y002861D02*
X008043Y002061D01*
X008243Y002061D02*
X009043Y002861D01*
X008643Y002861D02*
X008643Y002061D01*
X009043Y002061D02*
X008243Y002861D01*
X008043Y002861D02*
X007243Y002061D01*
X007643Y002061D02*
X007643Y002861D01*
X009243Y003561D02*
X010043Y004361D01*
X010243Y004061D02*
X011043Y004861D01*
X011043Y005061D02*
X010243Y005861D01*
X010243Y006061D02*
X011043Y006861D01*
X011043Y007061D02*
X010243Y007861D01*
X010243Y008061D02*
X011043Y008861D01*
X011168Y009311D02*
X010368Y010111D01*
X010368Y010311D02*
X011168Y011111D01*
X010768Y011111D02*
X010768Y010311D01*
X011168Y010311D02*
X010368Y011111D01*
X010043Y011361D02*
X009243Y010561D01*
X009243Y010361D02*
X010043Y009561D01*
X009643Y009561D02*
X009643Y010361D01*
X009643Y010561D02*
X009643Y011361D01*
X009643Y011561D02*
X009643Y012361D01*
X010043Y012361D02*
X009243Y011561D01*
X009243Y011361D02*
X010043Y010561D01*
X010043Y010361D02*
X009243Y009561D01*
X009243Y009361D02*
X010043Y008561D01*
X010043Y008361D02*
X009243Y007561D01*
X009243Y007361D02*
X010043Y006561D01*
X010043Y006361D02*
X009243Y005561D01*
X009243Y005361D02*
X010043Y004561D01*
X009643Y004561D02*
X009643Y005361D01*
X009643Y005561D02*
X009643Y006361D01*
X009643Y006561D02*
X009643Y007361D01*
X009643Y007561D02*
X009643Y008361D01*
X009643Y008561D02*
X009643Y009361D01*
X010043Y009361D02*
X009243Y008561D01*
X009243Y008361D02*
X010043Y007561D01*
X010043Y007361D02*
X009243Y006561D01*
X009243Y006361D02*
X010043Y005561D01*
X010043Y005361D02*
X009243Y004561D01*
X009243Y004361D02*
X010043Y003561D01*
X010243Y003861D02*
X011043Y003061D01*
X011043Y002861D02*
X010243Y002061D01*
X010243Y002861D02*
X011043Y002061D01*
X010243Y003061D02*
X011043Y003861D01*
X011043Y004061D02*
X010243Y004861D01*
X010243Y005061D02*
X011043Y005861D01*
X011043Y006061D02*
X010243Y006861D01*
X010243Y007061D02*
X011043Y007861D01*
X011043Y008061D02*
X010243Y008861D01*
X010368Y009311D02*
X011168Y010111D01*
X013868Y010111D02*
X014668Y009311D01*
X013868Y009311D02*
X014668Y010111D01*
X014668Y010311D02*
X013868Y011111D01*
X014268Y011111D02*
X014268Y010311D01*
X013868Y010311D02*
X014668Y011111D01*
X010043Y011561D02*
X009243Y012361D01*
X009993Y013311D02*
X010793Y014111D01*
X010393Y014111D02*
X010393Y013311D01*
X010793Y013311D02*
X009993Y014111D01*
X011368Y014111D02*
X012168Y013311D01*
X011368Y013311D01*
X012168Y014111D01*
X011368Y014111D01*
X012368Y014111D02*
X013168Y013311D01*
X012368Y013311D01*
X013168Y014111D01*
X012368Y014111D01*
X015243Y013961D02*
X016043Y013961D01*
X015443Y013961D02*
X015445Y013989D01*
X015451Y014017D01*
X015461Y014044D01*
X015475Y014069D01*
X015492Y014092D01*
X015512Y014112D01*
X015535Y014129D01*
X015560Y014143D01*
X015587Y014153D01*
X015615Y014159D01*
X015643Y014161D01*
X015671Y014159D01*
X015699Y014153D01*
X015726Y014143D01*
X015751Y014129D01*
X015774Y014112D01*
X015794Y014092D01*
X015811Y014069D01*
X015825Y014044D01*
X015835Y014017D01*
X015841Y013989D01*
X015843Y013961D01*
X015841Y013933D01*
X015835Y013905D01*
X015825Y013878D01*
X015811Y013853D01*
X015794Y013830D01*
X015774Y013810D01*
X015751Y013793D01*
X015726Y013779D01*
X015699Y013769D01*
X015671Y013763D01*
X015643Y013761D01*
X015615Y013763D01*
X015587Y013769D01*
X015560Y013779D01*
X015535Y013793D01*
X015512Y013810D01*
X015492Y013830D01*
X015475Y013853D01*
X015461Y013878D01*
X015451Y013905D01*
X015445Y013933D01*
X015443Y013961D01*
X015243Y013961D02*
X015245Y014001D01*
X015251Y014042D01*
X015261Y014081D01*
X015275Y014119D01*
X015293Y014155D01*
X015315Y014190D01*
X015339Y014222D01*
X015367Y014251D01*
X015398Y014277D01*
X015431Y014300D01*
X015467Y014320D01*
X015504Y014336D01*
X015543Y014348D01*
X015582Y014356D01*
X015623Y014360D01*
X015663Y014360D01*
X015704Y014356D01*
X015743Y014348D01*
X015782Y014336D01*
X015819Y014320D01*
X015855Y014300D01*
X015888Y014277D01*
X015919Y014251D01*
X015947Y014222D01*
X015971Y014190D01*
X015993Y014155D01*
X016011Y014119D01*
X016025Y014081D01*
X016035Y014042D01*
X016041Y014001D01*
X016043Y013961D01*
X016041Y013921D01*
X016035Y013880D01*
X016025Y013841D01*
X016011Y013803D01*
X015993Y013767D01*
X015971Y013732D01*
X015947Y013700D01*
X015919Y013671D01*
X015888Y013645D01*
X015855Y013622D01*
X015819Y013602D01*
X015782Y013586D01*
X015743Y013574D01*
X015704Y013566D01*
X015663Y013562D01*
X015623Y013562D01*
X015582Y013566D01*
X015543Y013574D01*
X015504Y013586D01*
X015467Y013602D01*
X015431Y013622D01*
X015398Y013645D01*
X015367Y013671D01*
X015339Y013700D01*
X015315Y013732D01*
X015293Y013767D01*
X015275Y013803D01*
X015261Y013841D01*
X015251Y013880D01*
X015245Y013921D01*
X015243Y013961D01*
X015643Y014361D02*
X015643Y013561D01*
X015793Y008861D02*
X014993Y008861D01*
X015793Y008061D01*
X014993Y008061D01*
X015793Y008861D01*
X014543Y008861D02*
X013743Y008061D01*
X013743Y007861D02*
X014543Y007061D01*
X014543Y006861D02*
X013743Y006061D01*
X013743Y005861D02*
X014543Y005061D01*
X014543Y004861D02*
X013743Y004061D01*
X013743Y003861D02*
X014543Y003061D01*
X014543Y002861D02*
X013743Y002061D01*
X013743Y002861D02*
X014543Y002061D01*
X015243Y002461D02*
X016043Y002461D01*
X015443Y002461D02*
X015445Y002489D01*
X015451Y002517D01*
X015461Y002544D01*
X015475Y002569D01*
X015492Y002592D01*
X015512Y002612D01*
X015535Y002629D01*
X015560Y002643D01*
X015587Y002653D01*
X015615Y002659D01*
X015643Y002661D01*
X015671Y002659D01*
X015699Y002653D01*
X015726Y002643D01*
X015751Y002629D01*
X015774Y002612D01*
X015794Y002592D01*
X015811Y002569D01*
X015825Y002544D01*
X015835Y002517D01*
X015841Y002489D01*
X015843Y002461D01*
X015841Y002433D01*
X015835Y002405D01*
X015825Y002378D01*
X015811Y002353D01*
X015794Y002330D01*
X015774Y002310D01*
X015751Y002293D01*
X015726Y002279D01*
X015699Y002269D01*
X015671Y002263D01*
X015643Y002261D01*
X015615Y002263D01*
X015587Y002269D01*
X015560Y002279D01*
X015535Y002293D01*
X015512Y002310D01*
X015492Y002330D01*
X015475Y002353D01*
X015461Y002378D01*
X015451Y002405D01*
X015445Y002433D01*
X015443Y002461D01*
X015243Y002461D02*
X015245Y002501D01*
X015251Y002542D01*
X015261Y002581D01*
X015275Y002619D01*
X015293Y002655D01*
X015315Y002690D01*
X015339Y002722D01*
X015367Y002751D01*
X015398Y002777D01*
X015431Y002800D01*
X015467Y002820D01*
X015504Y002836D01*
X015543Y002848D01*
X015582Y002856D01*
X015623Y002860D01*
X015663Y002860D01*
X015704Y002856D01*
X015743Y002848D01*
X015782Y002836D01*
X015819Y002820D01*
X015855Y002800D01*
X015888Y002777D01*
X015919Y002751D01*
X015947Y002722D01*
X015971Y002690D01*
X015993Y002655D01*
X016011Y002619D01*
X016025Y002581D01*
X016035Y002542D01*
X016041Y002501D01*
X016043Y002461D01*
X016041Y002421D01*
X016035Y002380D01*
X016025Y002341D01*
X016011Y002303D01*
X015993Y002267D01*
X015971Y002232D01*
X015947Y002200D01*
X015919Y002171D01*
X015888Y002145D01*
X015855Y002122D01*
X015819Y002102D01*
X015782Y002086D01*
X015743Y002074D01*
X015704Y002066D01*
X015663Y002062D01*
X015623Y002062D01*
X015582Y002066D01*
X015543Y002074D01*
X015504Y002086D01*
X015467Y002102D01*
X015431Y002122D01*
X015398Y002145D01*
X015367Y002171D01*
X015339Y002200D01*
X015315Y002232D01*
X015293Y002267D01*
X015275Y002303D01*
X015261Y002341D01*
X015251Y002380D01*
X015245Y002421D01*
X015243Y002461D01*
X015643Y002861D02*
X015643Y002061D01*
X014543Y003861D02*
X013743Y003061D01*
X014543Y004061D02*
X013743Y004861D01*
X013743Y005061D02*
X014543Y005861D01*
X014543Y006061D02*
X013743Y006861D01*
X013743Y007061D02*
X014543Y007861D01*
X014543Y008061D02*
X013743Y008861D01*
X014993Y007861D02*
X015793Y007061D01*
X014993Y007061D01*
X015793Y007861D01*
X014993Y007861D01*
X014993Y006861D02*
X015793Y006061D01*
X014993Y006061D01*
X015793Y006861D01*
X014993Y006861D01*
X014993Y005861D02*
X015793Y005061D01*
X014993Y005061D01*
X015793Y005861D01*
X014993Y005861D01*
X014993Y004861D02*
X015793Y004061D01*
X014993Y004061D01*
X015793Y004861D01*
X014993Y004861D01*
X018769Y004931D02*
X019569Y004931D01*
X018769Y005731D01*
X019569Y005731D01*
X018769Y004931D01*
X018769Y004431D02*
X019569Y003631D01*
X019169Y003631D02*
X019169Y004431D01*
X019569Y004431D02*
X018769Y003631D01*
X018769Y003131D02*
X019569Y002331D01*
X019169Y001831D02*
X019169Y001031D01*
X018769Y001431D02*
X019569Y001431D01*
X018769Y002331D02*
X019569Y003131D01*
X019169Y006231D02*
X019169Y007031D01*
X018769Y006631D01*
X019569Y006631D01*
X019169Y006231D01*
X019169Y007531D02*
X019169Y008331D01*
X018969Y007931D02*
X018971Y007959D01*
X018977Y007987D01*
X018987Y008014D01*
X019001Y008039D01*
X019018Y008062D01*
X019038Y008082D01*
X019061Y008099D01*
X019086Y008113D01*
X019113Y008123D01*
X019141Y008129D01*
X019169Y008131D01*
X019197Y008129D01*
X019225Y008123D01*
X019252Y008113D01*
X019277Y008099D01*
X019300Y008082D01*
X019320Y008062D01*
X019337Y008039D01*
X019351Y008014D01*
X019361Y007987D01*
X019367Y007959D01*
X019369Y007931D01*
X019367Y007903D01*
X019361Y007875D01*
X019351Y007848D01*
X019337Y007823D01*
X019320Y007800D01*
X019300Y007780D01*
X019277Y007763D01*
X019252Y007749D01*
X019225Y007739D01*
X019197Y007733D01*
X019169Y007731D01*
X019141Y007733D01*
X019113Y007739D01*
X019086Y007749D01*
X019061Y007763D01*
X019038Y007780D01*
X019018Y007800D01*
X019001Y007823D01*
X018987Y007848D01*
X018977Y007875D01*
X018971Y007903D01*
X018969Y007931D01*
X018769Y007931D02*
X018771Y007971D01*
X018777Y008012D01*
X018787Y008051D01*
X018801Y008089D01*
X018819Y008125D01*
X018841Y008160D01*
X018865Y008192D01*
X018893Y008221D01*
X018924Y008247D01*
X018957Y008270D01*
X018993Y008290D01*
X019030Y008306D01*
X019069Y008318D01*
X019108Y008326D01*
X019149Y008330D01*
X019189Y008330D01*
X019230Y008326D01*
X019269Y008318D01*
X019308Y008306D01*
X019345Y008290D01*
X019381Y008270D01*
X019414Y008247D01*
X019445Y008221D01*
X019473Y008192D01*
X019497Y008160D01*
X019519Y008125D01*
X019537Y008089D01*
X019551Y008051D01*
X019561Y008012D01*
X019567Y007971D01*
X019569Y007931D01*
X019567Y007891D01*
X019561Y007850D01*
X019551Y007811D01*
X019537Y007773D01*
X019519Y007737D01*
X019497Y007702D01*
X019473Y007670D01*
X019445Y007641D01*
X019414Y007615D01*
X019381Y007592D01*
X019345Y007572D01*
X019308Y007556D01*
X019269Y007544D01*
X019230Y007536D01*
X019189Y007532D01*
X019149Y007532D01*
X019108Y007536D01*
X019069Y007544D01*
X019030Y007556D01*
X018993Y007572D01*
X018957Y007592D01*
X018924Y007615D01*
X018893Y007641D01*
X018865Y007670D01*
X018841Y007702D01*
X018819Y007737D01*
X018801Y007773D01*
X018787Y007811D01*
X018777Y007850D01*
X018771Y007891D01*
X018769Y007931D01*
X019569Y007931D01*
X009643Y004361D02*
X009643Y003561D01*
X003043Y002461D02*
X002243Y002461D01*
X002443Y002461D02*
X002445Y002489D01*
X002451Y002517D01*
X002461Y002544D01*
X002475Y002569D01*
X002492Y002592D01*
X002512Y002612D01*
X002535Y002629D01*
X002560Y002643D01*
X002587Y002653D01*
X002615Y002659D01*
X002643Y002661D01*
X002671Y002659D01*
X002699Y002653D01*
X002726Y002643D01*
X002751Y002629D01*
X002774Y002612D01*
X002794Y002592D01*
X002811Y002569D01*
X002825Y002544D01*
X002835Y002517D01*
X002841Y002489D01*
X002843Y002461D01*
X002841Y002433D01*
X002835Y002405D01*
X002825Y002378D01*
X002811Y002353D01*
X002794Y002330D01*
X002774Y002310D01*
X002751Y002293D01*
X002726Y002279D01*
X002699Y002269D01*
X002671Y002263D01*
X002643Y002261D01*
X002615Y002263D01*
X002587Y002269D01*
X002560Y002279D01*
X002535Y002293D01*
X002512Y002310D01*
X002492Y002330D01*
X002475Y002353D01*
X002461Y002378D01*
X002451Y002405D01*
X002445Y002433D01*
X002443Y002461D01*
X002243Y002461D02*
X002245Y002501D01*
X002251Y002542D01*
X002261Y002581D01*
X002275Y002619D01*
X002293Y002655D01*
X002315Y002690D01*
X002339Y002722D01*
X002367Y002751D01*
X002398Y002777D01*
X002431Y002800D01*
X002467Y002820D01*
X002504Y002836D01*
X002543Y002848D01*
X002582Y002856D01*
X002623Y002860D01*
X002663Y002860D01*
X002704Y002856D01*
X002743Y002848D01*
X002782Y002836D01*
X002819Y002820D01*
X002855Y002800D01*
X002888Y002777D01*
X002919Y002751D01*
X002947Y002722D01*
X002971Y002690D01*
X002993Y002655D01*
X003011Y002619D01*
X003025Y002581D01*
X003035Y002542D01*
X003041Y002501D01*
X003043Y002461D01*
X003041Y002421D01*
X003035Y002380D01*
X003025Y002341D01*
X003011Y002303D01*
X002993Y002267D01*
X002971Y002232D01*
X002947Y002200D01*
X002919Y002171D01*
X002888Y002145D01*
X002855Y002122D01*
X002819Y002102D01*
X002782Y002086D01*
X002743Y002074D01*
X002704Y002066D01*
X002663Y002062D01*
X002623Y002062D01*
X002582Y002066D01*
X002543Y002074D01*
X002504Y002086D01*
X002467Y002102D01*
X002431Y002122D01*
X002398Y002145D01*
X002367Y002171D01*
X002339Y002200D01*
X002315Y002232D01*
X002293Y002267D01*
X002275Y002303D01*
X002261Y002341D01*
X002251Y002380D01*
X002245Y002421D01*
X002243Y002461D01*
X002643Y002861D02*
X002643Y002061D01*
X002518Y007061D02*
X002518Y007861D01*
X002118Y007461D02*
X002918Y007461D01*
X003118Y007461D02*
X003918Y007461D01*
X004118Y007461D02*
X004918Y007461D01*
X005118Y007461D02*
X005918Y007461D01*
X005518Y007861D02*
X005518Y007061D01*
X004518Y007061D02*
X004518Y007861D01*
X003518Y007861D02*
X003518Y007061D01*
X002518Y008311D02*
X002518Y009111D01*
X002118Y008711D01*
X002918Y008711D01*
X002518Y008311D01*
X003743Y008811D02*
X004543Y009611D01*
X004743Y009611D02*
X005543Y008811D01*
X005143Y008811D02*
X005143Y009611D01*
X005543Y009611D02*
X004743Y008811D01*
X004543Y008811D02*
X003743Y009611D01*
X004143Y009611D02*
X004143Y008811D01*
X004243Y010311D02*
X005043Y011111D01*
X004743Y011061D02*
X005543Y011861D01*
X004743Y011861D02*
X005543Y011061D01*
X004543Y011061D02*
X003743Y011861D01*
X003743Y011061D02*
X004543Y011861D01*
X004243Y011111D02*
X005043Y010311D01*
D12*
X020689Y008085D02*
X020765Y008161D01*
X020919Y008161D01*
X020996Y008085D01*
X020996Y008008D01*
X020919Y007931D01*
X020996Y007854D01*
X020996Y007778D01*
X020919Y007701D01*
X020765Y007701D01*
X020689Y007778D01*
X020842Y007931D02*
X020919Y007931D01*
X021149Y007778D02*
X021226Y007778D01*
X021226Y007701D01*
X021149Y007701D01*
X021149Y007778D01*
X021379Y007701D02*
X021686Y008008D01*
X021686Y008085D01*
X021609Y008161D01*
X021456Y008161D01*
X021379Y008085D01*
X021840Y008085D02*
X021840Y007778D01*
X022147Y008085D01*
X022147Y007778D01*
X022070Y007701D01*
X021916Y007701D01*
X021840Y007778D01*
X021686Y007701D02*
X021379Y007701D01*
X021840Y008085D02*
X021916Y008161D01*
X022070Y008161D01*
X022147Y008085D01*
X022300Y008085D02*
X022377Y008161D01*
X022530Y008161D01*
X022607Y008085D01*
X022300Y007778D01*
X022377Y007701D01*
X022530Y007701D01*
X022607Y007778D01*
X022607Y008085D01*
X022760Y008085D02*
X022760Y007778D01*
X023067Y008085D01*
X023067Y007778D01*
X022991Y007701D01*
X022837Y007701D01*
X022760Y007778D01*
X022760Y008085D02*
X022837Y008161D01*
X022991Y008161D01*
X023067Y008085D01*
X023681Y008008D02*
X023758Y008008D01*
X023834Y007931D01*
X023911Y008008D01*
X023988Y007931D01*
X023988Y007701D01*
X024141Y007701D02*
X024141Y008008D01*
X024218Y008008D01*
X024295Y007931D01*
X024372Y008008D01*
X024448Y007931D01*
X024448Y007701D01*
X024295Y007701D02*
X024295Y007931D01*
X023834Y007931D02*
X023834Y007701D01*
X023681Y007701D02*
X023681Y008008D01*
X022300Y008085D02*
X022300Y007778D01*
X021993Y006861D02*
X021993Y006401D01*
X021840Y006401D02*
X022147Y006401D01*
X022300Y006478D02*
X022377Y006401D01*
X022530Y006401D01*
X022607Y006478D01*
X022607Y006554D01*
X022530Y006631D01*
X022300Y006631D01*
X022300Y006478D01*
X022300Y006631D02*
X022453Y006785D01*
X022607Y006861D01*
X022760Y006785D02*
X022837Y006861D01*
X022991Y006861D01*
X023067Y006785D01*
X022760Y006478D01*
X022837Y006401D01*
X022991Y006401D01*
X023067Y006478D01*
X023067Y006785D01*
X022760Y006785D02*
X022760Y006478D01*
X023681Y006401D02*
X023681Y006708D01*
X023758Y006708D01*
X023834Y006631D01*
X023911Y006708D01*
X023988Y006631D01*
X023988Y006401D01*
X024141Y006401D02*
X024141Y006708D01*
X024218Y006708D01*
X024295Y006631D01*
X024372Y006708D01*
X024448Y006631D01*
X024448Y006401D01*
X024295Y006401D02*
X024295Y006631D01*
X023834Y006631D02*
X023834Y006401D01*
X025062Y006401D02*
X025369Y006861D01*
X025983Y006631D02*
X026290Y006631D01*
X026443Y006478D02*
X026750Y006785D01*
X026750Y006478D01*
X026673Y006401D01*
X026520Y006401D01*
X026443Y006478D01*
X026443Y006785D01*
X026520Y006861D01*
X026673Y006861D01*
X026750Y006785D01*
X026904Y006478D02*
X026980Y006478D01*
X026980Y006401D01*
X026904Y006401D01*
X026904Y006478D01*
X027134Y006478D02*
X027210Y006401D01*
X027364Y006401D01*
X027441Y006478D01*
X027441Y006785D01*
X027134Y006478D01*
X027134Y006785D01*
X027210Y006861D01*
X027364Y006861D01*
X027441Y006785D01*
X027594Y006785D02*
X027671Y006861D01*
X027824Y006861D01*
X027901Y006785D01*
X027594Y006478D01*
X027671Y006401D01*
X027824Y006401D01*
X027901Y006478D01*
X027901Y006785D01*
X028054Y006785D02*
X028054Y006478D01*
X028361Y006785D01*
X028361Y006478D01*
X028285Y006401D01*
X028131Y006401D01*
X028054Y006478D01*
X028054Y006785D02*
X028131Y006861D01*
X028285Y006861D01*
X028361Y006785D01*
X028975Y006708D02*
X028975Y006401D01*
X029129Y006401D02*
X029129Y006631D01*
X029205Y006708D01*
X029282Y006631D01*
X029282Y006401D01*
X029435Y006401D02*
X029589Y006401D01*
X029512Y006401D02*
X029512Y006708D01*
X029435Y006708D01*
X029512Y006861D02*
X029512Y006938D01*
X029742Y006861D02*
X029819Y006861D01*
X029819Y006401D01*
X029742Y006401D02*
X029896Y006401D01*
X029129Y006631D02*
X029052Y006708D01*
X028975Y006708D01*
X027594Y006785D02*
X027594Y006478D01*
X026213Y006401D02*
X026213Y006861D01*
X025983Y006631D01*
X026060Y005561D02*
X026213Y005561D01*
X026290Y005485D01*
X026290Y005408D01*
X026213Y005331D01*
X026290Y005254D01*
X026290Y005178D01*
X026213Y005101D01*
X026060Y005101D01*
X025983Y005178D01*
X026136Y005331D02*
X026213Y005331D01*
X026443Y005331D02*
X026443Y005178D01*
X026520Y005101D01*
X026673Y005101D01*
X026750Y005178D01*
X026750Y005254D01*
X026673Y005331D01*
X026443Y005331D01*
X026597Y005485D01*
X026750Y005561D01*
X027134Y005485D02*
X027210Y005561D01*
X027364Y005561D01*
X027441Y005485D01*
X027134Y005178D01*
X027210Y005101D01*
X027364Y005101D01*
X027441Y005178D01*
X027441Y005485D01*
X027594Y005485D02*
X027671Y005561D01*
X027824Y005561D01*
X027901Y005485D01*
X027594Y005178D01*
X027671Y005101D01*
X027824Y005101D01*
X027901Y005178D01*
X027901Y005485D01*
X028054Y005485D02*
X028131Y005561D01*
X028285Y005561D01*
X028361Y005485D01*
X028054Y005178D01*
X028131Y005101D01*
X028285Y005101D01*
X028361Y005178D01*
X028361Y005485D01*
X028054Y005485D02*
X028054Y005178D01*
X027594Y005178D02*
X027594Y005485D01*
X027134Y005485D02*
X027134Y005178D01*
X026980Y005178D02*
X026980Y005101D01*
X026904Y005101D01*
X026904Y005178D01*
X026980Y005178D01*
X026060Y005561D02*
X025983Y005485D01*
X025369Y005561D02*
X025062Y005101D01*
X024448Y005101D02*
X024448Y005331D01*
X024372Y005408D01*
X024295Y005331D01*
X024295Y005101D01*
X024141Y005101D02*
X024141Y005408D01*
X024218Y005408D01*
X024295Y005331D01*
X023988Y005331D02*
X023988Y005101D01*
X023834Y005101D02*
X023834Y005331D01*
X023911Y005408D01*
X023988Y005331D01*
X023834Y005331D02*
X023758Y005408D01*
X023681Y005408D01*
X023681Y005101D01*
X023067Y005331D02*
X022760Y005331D01*
X022991Y005561D01*
X022991Y005101D01*
X022607Y005331D02*
X022300Y005331D01*
X022530Y005561D01*
X022530Y005101D01*
X022147Y005101D02*
X021840Y005101D01*
X021993Y005101D02*
X021993Y005561D01*
X021840Y005408D01*
X021686Y005485D02*
X021609Y005561D01*
X021456Y005561D01*
X021379Y005485D01*
X021379Y005408D01*
X021456Y005331D01*
X021686Y005331D01*
X021686Y005178D02*
X021609Y005101D01*
X021456Y005101D01*
X021379Y005178D01*
X021226Y005178D02*
X021226Y005101D01*
X021149Y005101D01*
X021149Y005178D01*
X021226Y005178D01*
X020996Y005178D02*
X020919Y005101D01*
X020765Y005101D01*
X020689Y005178D01*
X020996Y005485D01*
X020996Y005178D01*
X020689Y005178D02*
X020689Y005485D01*
X020765Y005561D01*
X020919Y005561D01*
X020996Y005485D01*
X021686Y005485D02*
X021686Y005178D01*
X021609Y004261D02*
X021686Y004185D01*
X021686Y004108D01*
X021609Y004031D01*
X021456Y004031D01*
X021379Y004108D01*
X021379Y004185D01*
X021456Y004261D01*
X021609Y004261D01*
X021840Y004108D02*
X021993Y004261D01*
X021993Y003801D01*
X021840Y003801D02*
X022147Y003801D01*
X022300Y003801D02*
X022607Y004108D01*
X022607Y004185D01*
X022530Y004261D01*
X022377Y004261D01*
X022300Y004185D01*
X021686Y003954D02*
X021686Y003878D01*
X021609Y003801D01*
X021456Y003801D01*
X021379Y003878D01*
X021379Y003954D01*
X021456Y004031D01*
X021609Y004031D02*
X021686Y003954D01*
X022300Y003801D02*
X022607Y003801D01*
X022760Y003878D02*
X022760Y003954D01*
X022837Y004031D01*
X022991Y004031D01*
X023067Y003954D01*
X023067Y003878D01*
X022991Y003801D01*
X022837Y003801D01*
X022760Y003878D01*
X022837Y004031D02*
X022760Y004108D01*
X022760Y004185D01*
X022837Y004261D01*
X022991Y004261D01*
X023067Y004185D01*
X023067Y004108D01*
X022991Y004031D01*
X023681Y004108D02*
X023681Y003801D01*
X023834Y003801D02*
X023834Y004031D01*
X023911Y004108D01*
X023988Y004031D01*
X023988Y003801D01*
X024141Y003801D02*
X024141Y004108D01*
X024218Y004108D01*
X024295Y004031D01*
X024372Y004108D01*
X024448Y004031D01*
X024448Y003801D01*
X024295Y003801D02*
X024295Y004031D01*
X023834Y004031D02*
X023758Y004108D01*
X023681Y004108D01*
X025062Y003801D02*
X025369Y004261D01*
X025983Y004185D02*
X026060Y004261D01*
X026213Y004261D01*
X026290Y004185D01*
X026290Y004108D01*
X026213Y004031D01*
X026290Y003954D01*
X026290Y003878D01*
X026213Y003801D01*
X026060Y003801D01*
X025983Y003878D01*
X026136Y004031D02*
X026213Y004031D01*
X026443Y004185D02*
X026520Y004261D01*
X026673Y004261D01*
X026750Y004185D01*
X026750Y004108D01*
X026443Y003801D01*
X026750Y003801D01*
X026904Y003801D02*
X026980Y003801D01*
X026980Y003878D01*
X026904Y003878D01*
X026904Y003801D01*
X027134Y003878D02*
X027441Y004185D01*
X027441Y003878D01*
X027364Y003801D01*
X027210Y003801D01*
X027134Y003878D01*
X027134Y004185D01*
X027210Y004261D01*
X027364Y004261D01*
X027441Y004185D01*
X027594Y004185D02*
X027671Y004261D01*
X027824Y004261D01*
X027901Y004185D01*
X027594Y003878D01*
X027671Y003801D01*
X027824Y003801D01*
X027901Y003878D01*
X027901Y004185D01*
X028054Y004185D02*
X028131Y004261D01*
X028285Y004261D01*
X028361Y004185D01*
X028054Y003878D01*
X028131Y003801D01*
X028285Y003801D01*
X028361Y003878D01*
X028361Y004185D01*
X028054Y004185D02*
X028054Y003878D01*
X027594Y003878D02*
X027594Y004185D01*
X028975Y004108D02*
X028975Y003801D01*
X029129Y003801D02*
X029129Y004031D01*
X029205Y004108D01*
X029282Y004031D01*
X029282Y003801D01*
X029435Y003801D02*
X029589Y003801D01*
X029512Y003801D02*
X029512Y004108D01*
X029435Y004108D01*
X029512Y004261D02*
X029512Y004338D01*
X029742Y004261D02*
X029819Y004261D01*
X029819Y003801D01*
X029742Y003801D02*
X029896Y003801D01*
X029129Y004031D02*
X029052Y004108D01*
X028975Y004108D01*
X028975Y005101D02*
X028975Y005408D01*
X029052Y005408D01*
X029129Y005331D01*
X029205Y005408D01*
X029282Y005331D01*
X029282Y005101D01*
X029435Y005101D02*
X029589Y005101D01*
X029512Y005101D02*
X029512Y005408D01*
X029435Y005408D01*
X029512Y005561D02*
X029512Y005638D01*
X029742Y005561D02*
X029819Y005561D01*
X029819Y005101D01*
X029742Y005101D02*
X029896Y005101D01*
X029129Y005101D02*
X029129Y005331D01*
X029512Y003038D02*
X029512Y002961D01*
X029512Y002808D02*
X029435Y002808D01*
X029512Y002808D02*
X029512Y002501D01*
X029435Y002501D02*
X029589Y002501D01*
X029742Y002501D02*
X029896Y002501D01*
X029819Y002501D02*
X029819Y002961D01*
X029742Y002961D01*
X029282Y002731D02*
X029205Y002808D01*
X029129Y002731D01*
X029129Y002501D01*
X029282Y002501D02*
X029282Y002731D01*
X029129Y002731D02*
X029052Y002808D01*
X028975Y002808D01*
X028975Y002501D01*
X028361Y002578D02*
X028361Y002885D01*
X028054Y002578D01*
X028131Y002501D01*
X028285Y002501D01*
X028361Y002578D01*
X028054Y002578D02*
X028054Y002885D01*
X028131Y002961D01*
X028285Y002961D01*
X028361Y002885D01*
X027901Y002885D02*
X027824Y002961D01*
X027671Y002961D01*
X027594Y002885D01*
X027594Y002578D01*
X027901Y002885D01*
X027901Y002578D01*
X027824Y002501D01*
X027671Y002501D01*
X027594Y002578D01*
X027441Y002578D02*
X027364Y002501D01*
X027210Y002501D01*
X027134Y002578D01*
X027441Y002885D01*
X027441Y002578D01*
X027134Y002578D02*
X027134Y002885D01*
X027210Y002961D01*
X027364Y002961D01*
X027441Y002885D01*
X026980Y002578D02*
X026904Y002578D01*
X026904Y002501D01*
X026980Y002501D01*
X026980Y002578D01*
X026750Y002578D02*
X026750Y002654D01*
X026673Y002731D01*
X026520Y002731D01*
X026443Y002808D01*
X026443Y002885D01*
X026520Y002961D01*
X026673Y002961D01*
X026750Y002885D01*
X026750Y002808D01*
X026673Y002731D01*
X026520Y002731D02*
X026443Y002654D01*
X026443Y002578D01*
X026520Y002501D01*
X026673Y002501D01*
X026750Y002578D01*
X026290Y002501D02*
X025983Y002501D01*
X026290Y002808D01*
X026290Y002885D01*
X026213Y002961D01*
X026060Y002961D01*
X025983Y002885D01*
X025369Y002961D02*
X025062Y002501D01*
X024448Y002501D02*
X024448Y002731D01*
X024372Y002808D01*
X024295Y002731D01*
X024295Y002501D01*
X024141Y002501D02*
X024141Y002808D01*
X024218Y002808D01*
X024295Y002731D01*
X023988Y002731D02*
X023988Y002501D01*
X023834Y002501D02*
X023834Y002731D01*
X023911Y002808D01*
X023988Y002731D01*
X023834Y002731D02*
X023758Y002808D01*
X023681Y002808D01*
X023681Y002501D01*
X023067Y002501D02*
X022760Y002501D01*
X023067Y002808D01*
X023067Y002885D01*
X022991Y002961D01*
X022837Y002961D01*
X022760Y002885D01*
X022453Y002961D02*
X022453Y002501D01*
X022300Y002501D02*
X022607Y002501D01*
X022147Y002501D02*
X021840Y002501D01*
X021993Y002501D02*
X021993Y002961D01*
X021840Y002808D01*
X021686Y002885D02*
X021379Y002578D01*
X021379Y002501D01*
X021226Y002501D02*
X021149Y002501D01*
X021149Y002578D01*
X021226Y002578D01*
X021226Y002501D01*
X020996Y002578D02*
X020919Y002501D01*
X020765Y002501D01*
X020689Y002578D01*
X020996Y002885D01*
X020996Y002578D01*
X020689Y002578D02*
X020689Y002885D01*
X020765Y002961D01*
X020919Y002961D01*
X020996Y002885D01*
X021379Y002961D02*
X021686Y002961D01*
X021686Y002885D01*
X022300Y002808D02*
X022453Y002961D01*
X021226Y003801D02*
X021149Y003801D01*
X021149Y003878D01*
X021226Y003878D01*
X021226Y003801D01*
X020996Y003878D02*
X020919Y003801D01*
X020765Y003801D01*
X020689Y003878D01*
X020996Y004185D01*
X020996Y003878D01*
X020689Y003878D02*
X020689Y004185D01*
X020765Y004261D01*
X020919Y004261D01*
X020996Y004185D01*
X020996Y006401D02*
X020689Y006401D01*
X020842Y006401D02*
X020842Y006861D01*
X020689Y006708D01*
X021149Y006478D02*
X021226Y006478D01*
X021226Y006401D01*
X021149Y006401D01*
X021149Y006478D01*
X021379Y006478D02*
X021456Y006401D01*
X021609Y006401D01*
X021686Y006478D01*
X021686Y006785D01*
X021379Y006478D01*
X021379Y006785D01*
X021456Y006861D01*
X021609Y006861D01*
X021686Y006785D01*
X021840Y006708D02*
X021993Y006861D01*
X025062Y007701D02*
X025369Y008161D01*
X025983Y008008D02*
X026136Y008161D01*
X026136Y007701D01*
X025983Y007701D02*
X026290Y007701D01*
X026443Y007701D02*
X026750Y008008D01*
X026750Y008085D01*
X026673Y008161D01*
X026520Y008161D01*
X026443Y008085D01*
X026904Y008161D02*
X026904Y007931D01*
X027057Y008008D01*
X027134Y008008D01*
X027210Y007931D01*
X027210Y007778D01*
X027134Y007701D01*
X026980Y007701D01*
X026904Y007778D01*
X026750Y007701D02*
X026443Y007701D01*
X026904Y008161D02*
X027210Y008161D01*
X027594Y008085D02*
X027594Y008008D01*
X027671Y007931D01*
X027901Y007931D01*
X027901Y007778D02*
X027901Y008085D01*
X027824Y008161D01*
X027671Y008161D01*
X027594Y008085D01*
X027594Y007778D02*
X027671Y007701D01*
X027824Y007701D01*
X027901Y007778D01*
X028054Y007778D02*
X028131Y007701D01*
X028285Y007701D01*
X028361Y007778D01*
X028361Y007854D01*
X028285Y007931D01*
X028131Y007931D01*
X028054Y008008D01*
X028054Y008085D01*
X028131Y008161D01*
X028285Y008161D01*
X028361Y008085D01*
X028361Y008008D01*
X028285Y007931D01*
X028131Y007931D02*
X028054Y007854D01*
X028054Y007778D01*
X028515Y007931D02*
X028822Y007931D01*
X028745Y007701D02*
X028745Y008161D01*
X028515Y007931D01*
X029435Y008008D02*
X029435Y007701D01*
X029589Y007701D02*
X029589Y007931D01*
X029666Y008008D01*
X029742Y007931D01*
X029742Y007701D01*
X029896Y007701D02*
X030049Y007701D01*
X029973Y007701D02*
X029973Y008008D01*
X029896Y008008D01*
X029973Y008161D02*
X029973Y008238D01*
X030203Y008161D02*
X030279Y008161D01*
X030279Y007701D01*
X030203Y007701D02*
X030356Y007701D01*
X029589Y007931D02*
X029512Y008008D01*
X029435Y008008D01*
X027441Y007778D02*
X027441Y007701D01*
X027364Y007701D01*
X027364Y007778D01*
X027441Y007778D01*
X027364Y001661D02*
X027210Y001661D01*
X027134Y001585D01*
X027134Y001278D01*
X027441Y001585D01*
X027441Y001278D01*
X027364Y001201D01*
X027210Y001201D01*
X027134Y001278D01*
X026980Y001278D02*
X026980Y001201D01*
X026904Y001201D01*
X026904Y001278D01*
X026980Y001278D01*
X026750Y001431D02*
X026443Y001431D01*
X026673Y001661D01*
X026673Y001201D01*
X026290Y001201D02*
X025983Y001201D01*
X026290Y001508D01*
X026290Y001585D01*
X026213Y001661D01*
X026060Y001661D01*
X025983Y001585D01*
X025369Y001661D02*
X025062Y001201D01*
X024448Y001201D02*
X024448Y001431D01*
X024372Y001508D01*
X024295Y001431D01*
X024295Y001201D01*
X024141Y001201D02*
X024141Y001508D01*
X024218Y001508D01*
X024295Y001431D01*
X023988Y001431D02*
X023988Y001201D01*
X023834Y001201D02*
X023834Y001431D01*
X023911Y001508D01*
X023988Y001431D01*
X023834Y001431D02*
X023758Y001508D01*
X023681Y001508D01*
X023681Y001201D01*
X023067Y001278D02*
X023067Y001354D01*
X022991Y001431D01*
X022760Y001431D01*
X022760Y001278D01*
X022837Y001201D01*
X022991Y001201D01*
X023067Y001278D01*
X022914Y001585D02*
X022760Y001431D01*
X022607Y001431D02*
X022377Y001431D01*
X022300Y001508D01*
X022300Y001585D01*
X022377Y001661D01*
X022530Y001661D01*
X022607Y001585D01*
X022607Y001278D01*
X022530Y001201D01*
X022377Y001201D01*
X022300Y001278D01*
X022147Y001278D02*
X022070Y001201D01*
X021916Y001201D01*
X021840Y001278D01*
X022147Y001585D01*
X022147Y001278D01*
X021840Y001278D02*
X021840Y001585D01*
X021916Y001661D01*
X022070Y001661D01*
X022147Y001585D01*
X021686Y001661D02*
X021533Y001585D01*
X021379Y001431D01*
X021609Y001431D01*
X021686Y001354D01*
X021686Y001278D01*
X021609Y001201D01*
X021456Y001201D01*
X021379Y001278D01*
X021379Y001431D01*
X021226Y001278D02*
X021226Y001201D01*
X021149Y001201D01*
X021149Y001278D01*
X021226Y001278D01*
X020996Y001278D02*
X020919Y001201D01*
X020765Y001201D01*
X020689Y001278D01*
X020996Y001585D01*
X020996Y001278D01*
X020689Y001278D02*
X020689Y001585D01*
X020765Y001661D01*
X020919Y001661D01*
X020996Y001585D01*
X022914Y001585D02*
X023067Y001661D01*
X027364Y001661D02*
X027441Y001585D01*
X027594Y001585D02*
X027671Y001661D01*
X027824Y001661D01*
X027901Y001585D01*
X027594Y001278D01*
X027671Y001201D01*
X027824Y001201D01*
X027901Y001278D01*
X027901Y001585D01*
X028054Y001585D02*
X028131Y001661D01*
X028285Y001661D01*
X028361Y001585D01*
X028054Y001278D01*
X028131Y001201D01*
X028285Y001201D01*
X028361Y001278D01*
X028361Y001585D01*
X028054Y001585D02*
X028054Y001278D01*
X027594Y001278D02*
X027594Y001585D01*
X028975Y001508D02*
X028975Y001201D01*
X029129Y001201D02*
X029129Y001431D01*
X029205Y001508D01*
X029282Y001431D01*
X029282Y001201D01*
X029435Y001201D02*
X029589Y001201D01*
X029512Y001201D02*
X029512Y001508D01*
X029435Y001508D01*
X029512Y001661D02*
X029512Y001738D01*
X029742Y001661D02*
X029819Y001661D01*
X029819Y001201D01*
X029742Y001201D02*
X029896Y001201D01*
X029129Y001431D02*
X029052Y001508D01*
X028975Y001508D01*
D13*
X029157Y009961D02*
X028730Y009961D01*
X029157Y010388D01*
X029157Y010495D01*
X029050Y010602D01*
X028836Y010602D01*
X028730Y010495D01*
X028299Y010602D02*
X028299Y009961D01*
X028512Y009961D02*
X028085Y009961D01*
X027868Y010068D02*
X027761Y009961D01*
X027547Y009961D01*
X027441Y010068D01*
X027868Y010495D01*
X027868Y010068D01*
X027441Y010068D02*
X027441Y010495D01*
X027547Y010602D01*
X027761Y010602D01*
X027868Y010495D01*
X028085Y010388D02*
X028299Y010602D01*
X027223Y010495D02*
X027116Y010602D01*
X026903Y010602D01*
X026796Y010495D01*
X026578Y010602D02*
X026151Y009961D01*
X025934Y010068D02*
X025934Y010175D01*
X025827Y010281D01*
X025507Y010281D01*
X025507Y010068D01*
X025614Y009961D01*
X025827Y009961D01*
X025934Y010068D01*
X025720Y010495D02*
X025507Y010281D01*
X025720Y010495D02*
X025934Y010602D01*
X025829Y010961D02*
X025722Y011068D01*
X025722Y011281D01*
X025829Y011388D01*
X026149Y011388D01*
X026149Y011602D02*
X026149Y010961D01*
X025829Y010961D01*
X025504Y010961D02*
X025504Y011281D01*
X025397Y011388D01*
X025077Y011388D01*
X025077Y010961D01*
X024753Y010961D02*
X024539Y010961D01*
X024433Y011068D01*
X024433Y011281D01*
X024539Y011388D01*
X024753Y011388D01*
X024860Y011281D01*
X024860Y011175D01*
X024433Y011175D01*
X024215Y011388D02*
X023895Y011388D01*
X023788Y011281D01*
X023788Y011068D01*
X023895Y010961D01*
X024215Y010961D01*
X024215Y010854D02*
X024215Y011388D01*
X023571Y011281D02*
X023571Y011175D01*
X023144Y011175D01*
X023144Y011281D02*
X023250Y011388D01*
X023464Y011388D01*
X023571Y011281D01*
X023144Y011281D02*
X023144Y011068D01*
X023250Y010961D01*
X023464Y010961D01*
X024002Y010748D02*
X024108Y010748D01*
X024215Y010854D01*
X023894Y010602D02*
X023680Y010602D01*
X023573Y010495D01*
X023894Y010602D02*
X024000Y010495D01*
X024000Y010388D01*
X023573Y009961D01*
X024000Y009961D01*
X024218Y009961D02*
X024645Y010602D01*
X024862Y010495D02*
X024969Y010602D01*
X025183Y010602D01*
X025289Y010495D01*
X024862Y010068D01*
X024969Y009961D01*
X025183Y009961D01*
X025289Y010068D01*
X025289Y010495D01*
X024862Y010495D02*
X024862Y010068D01*
X023356Y009961D02*
X022929Y009961D01*
X023142Y009961D02*
X023142Y010602D01*
X022929Y010388D01*
X022069Y010388D02*
X022069Y010281D01*
X021962Y010281D01*
X021962Y010388D01*
X022069Y010388D01*
X021745Y010281D02*
X021745Y010175D01*
X021318Y010175D01*
X021318Y010281D02*
X021318Y010068D01*
X021424Y009961D01*
X021638Y009961D01*
X021962Y009961D02*
X021962Y010068D01*
X022069Y010068D01*
X022069Y009961D01*
X021962Y009961D01*
X021745Y010281D02*
X021638Y010388D01*
X021424Y010388D01*
X021318Y010281D01*
X021101Y010388D02*
X020888Y010388D01*
X020995Y010495D02*
X020995Y010068D01*
X021101Y009961D01*
X020670Y009961D02*
X020350Y009961D01*
X020243Y010068D01*
X020350Y010175D01*
X020670Y010175D01*
X020670Y010281D02*
X020670Y009961D01*
X020670Y010281D02*
X020564Y010388D01*
X020350Y010388D01*
X020026Y010495D02*
X019919Y010602D01*
X019599Y010602D01*
X019599Y009961D01*
X019919Y009961D01*
X020026Y010068D01*
X020026Y010495D01*
X019919Y010961D02*
X019599Y010961D01*
X019599Y011602D01*
X019919Y011602D01*
X020026Y011495D01*
X020026Y011068D01*
X019919Y010961D01*
X020243Y010961D02*
X020243Y011388D01*
X020243Y011175D02*
X020457Y011388D01*
X020564Y011388D01*
X020780Y011388D02*
X020887Y011388D01*
X020887Y010961D01*
X020780Y010961D02*
X020994Y010961D01*
X021210Y010961D02*
X021424Y010961D01*
X021317Y010961D02*
X021317Y011602D01*
X021210Y011602D01*
X020887Y011602D02*
X020887Y011708D01*
X021640Y011602D02*
X021746Y011602D01*
X021746Y010961D01*
X021640Y010961D02*
X021853Y010961D01*
X022714Y010961D02*
X022927Y010961D01*
X022821Y010961D02*
X022821Y011602D01*
X022714Y011602D01*
X026796Y009961D02*
X027223Y010388D01*
X027223Y010495D01*
X027223Y009961D02*
X026796Y009961D01*
X030019Y010068D02*
X030125Y009961D01*
X030339Y009961D01*
X030446Y010068D01*
X030446Y010495D01*
X030019Y010068D01*
X030019Y010495D01*
X030125Y010602D01*
X030339Y010602D01*
X030446Y010495D01*
X030663Y010495D02*
X030770Y010602D01*
X030983Y010602D01*
X031090Y010495D01*
X031090Y010068D01*
X030983Y009961D01*
X030770Y009961D01*
X030663Y010068D01*
X030770Y010281D02*
X031090Y010281D01*
X031308Y010281D02*
X031308Y010388D01*
X031414Y010388D01*
X031414Y010281D01*
X031308Y010281D01*
X031308Y010068D02*
X031308Y009961D01*
X031414Y009961D01*
X031414Y010068D01*
X031308Y010068D01*
X031630Y009961D02*
X032057Y009961D01*
X031843Y009961D02*
X031843Y010602D01*
X031630Y010388D01*
X032274Y010495D02*
X032381Y010602D01*
X032595Y010602D01*
X032701Y010495D01*
X032274Y010068D01*
X032381Y009961D01*
X032595Y009961D01*
X032701Y010068D01*
X032701Y010495D01*
X032919Y010388D02*
X032919Y010281D01*
X033026Y010281D01*
X033026Y010388D01*
X032919Y010388D01*
X033241Y010388D02*
X033455Y010602D01*
X033455Y009961D01*
X033668Y009961D02*
X033241Y009961D01*
X033026Y009961D02*
X032919Y009961D01*
X032919Y010068D01*
X033026Y010068D01*
X033026Y009961D01*
X033886Y009961D02*
X034313Y010388D01*
X034313Y010495D01*
X034206Y010602D01*
X033992Y010602D01*
X033886Y010495D01*
X034637Y010388D02*
X034851Y010388D01*
X034957Y010281D01*
X034957Y009961D01*
X034637Y009961D01*
X034530Y010068D01*
X034637Y010175D01*
X034957Y010175D01*
X034313Y009961D02*
X033886Y009961D01*
X032274Y010068D02*
X032274Y010495D01*
X030770Y010281D02*
X030663Y010388D01*
X030663Y010495D01*
D14*
X018169Y011931D02*
X018169Y000131D01*
X031769Y000131D01*
M02*
