G75*
G70*
%OFA0B0*%
%FSLAX24Y24*%
%IPPOS*%
%LPD*%
%AMOC8*
5,1,8,0,0,1.08239X$1,22.5*
%
%ADD10C,0.0000*%
D10*
X001129Y000212D02*
X001129Y018712D01*
X029379Y018712D01*
X029379Y000212D01*
X001129Y000212D01*
X001499Y001212D02*
X001502Y001269D01*
X001509Y001326D01*
X001522Y001382D01*
X001540Y001436D01*
X001563Y001489D01*
X001591Y001539D01*
X001623Y001587D01*
X001659Y001631D01*
X001699Y001672D01*
X001743Y001710D01*
X001789Y001743D01*
X001839Y001771D01*
X001891Y001795D01*
X001945Y001815D01*
X002001Y001829D01*
X002057Y001838D01*
X002115Y001842D01*
X002172Y001841D01*
X002229Y001834D01*
X002285Y001822D01*
X002340Y001806D01*
X002393Y001784D01*
X002444Y001758D01*
X002492Y001727D01*
X002538Y001692D01*
X002580Y001652D01*
X002618Y001610D01*
X002652Y001563D01*
X002682Y001514D01*
X002707Y001463D01*
X002727Y001409D01*
X002743Y001354D01*
X002753Y001298D01*
X002758Y001241D01*
X002758Y001183D01*
X002753Y001126D01*
X002743Y001070D01*
X002727Y001015D01*
X002707Y000961D01*
X002682Y000910D01*
X002652Y000861D01*
X002618Y000814D01*
X002580Y000772D01*
X002538Y000732D01*
X002492Y000697D01*
X002444Y000666D01*
X002393Y000640D01*
X002340Y000618D01*
X002285Y000602D01*
X002229Y000590D01*
X002172Y000583D01*
X002115Y000582D01*
X002057Y000586D01*
X002001Y000595D01*
X001945Y000609D01*
X001891Y000629D01*
X001839Y000653D01*
X001789Y000681D01*
X001743Y000714D01*
X001699Y000752D01*
X001659Y000793D01*
X001623Y000837D01*
X001591Y000885D01*
X001563Y000935D01*
X001540Y000988D01*
X001522Y001042D01*
X001509Y001098D01*
X001502Y001155D01*
X001499Y001212D01*
X027749Y001212D02*
X027752Y001269D01*
X027759Y001326D01*
X027772Y001382D01*
X027790Y001436D01*
X027813Y001489D01*
X027841Y001539D01*
X027873Y001587D01*
X027909Y001631D01*
X027949Y001672D01*
X027993Y001710D01*
X028039Y001743D01*
X028089Y001771D01*
X028141Y001795D01*
X028195Y001815D01*
X028251Y001829D01*
X028307Y001838D01*
X028365Y001842D01*
X028422Y001841D01*
X028479Y001834D01*
X028535Y001822D01*
X028590Y001806D01*
X028643Y001784D01*
X028694Y001758D01*
X028742Y001727D01*
X028788Y001692D01*
X028830Y001652D01*
X028868Y001610D01*
X028902Y001563D01*
X028932Y001514D01*
X028957Y001463D01*
X028977Y001409D01*
X028993Y001354D01*
X029003Y001298D01*
X029008Y001241D01*
X029008Y001183D01*
X029003Y001126D01*
X028993Y001070D01*
X028977Y001015D01*
X028957Y000961D01*
X028932Y000910D01*
X028902Y000861D01*
X028868Y000814D01*
X028830Y000772D01*
X028788Y000732D01*
X028742Y000697D01*
X028694Y000666D01*
X028643Y000640D01*
X028590Y000618D01*
X028535Y000602D01*
X028479Y000590D01*
X028422Y000583D01*
X028365Y000582D01*
X028307Y000586D01*
X028251Y000595D01*
X028195Y000609D01*
X028141Y000629D01*
X028089Y000653D01*
X028039Y000681D01*
X027993Y000714D01*
X027949Y000752D01*
X027909Y000793D01*
X027873Y000837D01*
X027841Y000885D01*
X027813Y000935D01*
X027790Y000988D01*
X027772Y001042D01*
X027759Y001098D01*
X027752Y001155D01*
X027749Y001212D01*
X027749Y017712D02*
X027752Y017769D01*
X027759Y017826D01*
X027772Y017882D01*
X027790Y017936D01*
X027813Y017989D01*
X027841Y018039D01*
X027873Y018087D01*
X027909Y018131D01*
X027949Y018172D01*
X027993Y018210D01*
X028039Y018243D01*
X028089Y018271D01*
X028141Y018295D01*
X028195Y018315D01*
X028251Y018329D01*
X028307Y018338D01*
X028365Y018342D01*
X028422Y018341D01*
X028479Y018334D01*
X028535Y018322D01*
X028590Y018306D01*
X028643Y018284D01*
X028694Y018258D01*
X028742Y018227D01*
X028788Y018192D01*
X028830Y018152D01*
X028868Y018110D01*
X028902Y018063D01*
X028932Y018014D01*
X028957Y017963D01*
X028977Y017909D01*
X028993Y017854D01*
X029003Y017798D01*
X029008Y017741D01*
X029008Y017683D01*
X029003Y017626D01*
X028993Y017570D01*
X028977Y017515D01*
X028957Y017461D01*
X028932Y017410D01*
X028902Y017361D01*
X028868Y017314D01*
X028830Y017272D01*
X028788Y017232D01*
X028742Y017197D01*
X028694Y017166D01*
X028643Y017140D01*
X028590Y017118D01*
X028535Y017102D01*
X028479Y017090D01*
X028422Y017083D01*
X028365Y017082D01*
X028307Y017086D01*
X028251Y017095D01*
X028195Y017109D01*
X028141Y017129D01*
X028089Y017153D01*
X028039Y017181D01*
X027993Y017214D01*
X027949Y017252D01*
X027909Y017293D01*
X027873Y017337D01*
X027841Y017385D01*
X027813Y017435D01*
X027790Y017488D01*
X027772Y017542D01*
X027759Y017598D01*
X027752Y017655D01*
X027749Y017712D01*
X001499Y017712D02*
X001502Y017769D01*
X001509Y017826D01*
X001522Y017882D01*
X001540Y017936D01*
X001563Y017989D01*
X001591Y018039D01*
X001623Y018087D01*
X001659Y018131D01*
X001699Y018172D01*
X001743Y018210D01*
X001789Y018243D01*
X001839Y018271D01*
X001891Y018295D01*
X001945Y018315D01*
X002001Y018329D01*
X002057Y018338D01*
X002115Y018342D01*
X002172Y018341D01*
X002229Y018334D01*
X002285Y018322D01*
X002340Y018306D01*
X002393Y018284D01*
X002444Y018258D01*
X002492Y018227D01*
X002538Y018192D01*
X002580Y018152D01*
X002618Y018110D01*
X002652Y018063D01*
X002682Y018014D01*
X002707Y017963D01*
X002727Y017909D01*
X002743Y017854D01*
X002753Y017798D01*
X002758Y017741D01*
X002758Y017683D01*
X002753Y017626D01*
X002743Y017570D01*
X002727Y017515D01*
X002707Y017461D01*
X002682Y017410D01*
X002652Y017361D01*
X002618Y017314D01*
X002580Y017272D01*
X002538Y017232D01*
X002492Y017197D01*
X002444Y017166D01*
X002393Y017140D01*
X002340Y017118D01*
X002285Y017102D01*
X002229Y017090D01*
X002172Y017083D01*
X002115Y017082D01*
X002057Y017086D01*
X002001Y017095D01*
X001945Y017109D01*
X001891Y017129D01*
X001839Y017153D01*
X001789Y017181D01*
X001743Y017214D01*
X001699Y017252D01*
X001659Y017293D01*
X001623Y017337D01*
X001591Y017385D01*
X001563Y017435D01*
X001540Y017488D01*
X001522Y017542D01*
X001509Y017598D01*
X001502Y017655D01*
X001499Y017712D01*
M02*
