G75*
G70*
%OFA0B0*%
%FSLAX24Y24*%
%IPPOS*%
%LPD*%
%AMOC8*
5,1,8,0,0,1.08239X$1,22.5*
%
%ADD10O,0.1280X0.0640*%
%ADD11O,0.0640X0.1280*%
%ADD12O,0.0600X0.1200*%
%ADD13R,0.0660X0.0660*%
%ADD14C,0.0660*%
%ADD15C,0.0831*%
%ADD16C,0.0945*%
%ADD17C,0.0760*%
%ADD18OC8,0.0700*%
%ADD19O,0.0680X0.1360*%
%ADD20R,0.0440X0.0440*%
%ADD21C,0.0240*%
%ADD22C,0.0160*%
D10*
X012629Y010171D03*
X012629Y011171D03*
X012629Y012171D03*
X012629Y013171D03*
X012629Y014171D03*
X012629Y015171D03*
D11*
X009629Y015171D03*
X008629Y015171D03*
X007629Y015171D03*
X006629Y015171D03*
X006629Y010171D03*
X007629Y010171D03*
X008629Y010171D03*
X009629Y010171D03*
D12*
X014629Y008921D03*
X015629Y008921D03*
X016629Y008921D03*
X017629Y008921D03*
X018629Y008921D03*
X019629Y008921D03*
X020629Y008921D03*
X020629Y005921D03*
X019629Y005921D03*
X018629Y005921D03*
X017629Y005921D03*
X016629Y005921D03*
X015629Y005921D03*
X014629Y005921D03*
X017629Y014421D03*
X018629Y014421D03*
X019629Y014421D03*
X020629Y014421D03*
X021629Y014421D03*
X022629Y014421D03*
X023629Y014421D03*
X024629Y014421D03*
X025629Y014421D03*
X025629Y017421D03*
X024629Y017421D03*
X023629Y017421D03*
X022629Y017421D03*
X021629Y017421D03*
X020629Y017421D03*
X019629Y017421D03*
X018629Y017421D03*
X017629Y017421D03*
D13*
X025629Y005171D03*
D14*
X024629Y005171D03*
X023629Y005171D03*
X022629Y005171D03*
X012629Y005171D03*
X011629Y005171D03*
X010629Y005171D03*
X009629Y005171D03*
D15*
X007129Y005171D03*
D16*
X006125Y004167D03*
X008133Y004167D03*
X008133Y006175D03*
X006125Y006175D03*
D17*
X013129Y006671D03*
X013129Y007671D03*
X022129Y007671D03*
X022129Y006421D03*
X026129Y006421D03*
X026129Y007671D03*
X026129Y008921D03*
X026129Y010171D03*
X026129Y011421D03*
X026129Y012921D03*
X022129Y012921D03*
X022129Y011421D03*
X022129Y010171D03*
X022129Y008921D03*
X015629Y012171D03*
X015629Y016171D03*
X026879Y016421D03*
X026879Y015421D03*
D18*
X027129Y013171D03*
X028129Y013171D03*
X028129Y011171D03*
X027129Y011171D03*
X027129Y009171D03*
X028129Y009171D03*
X028129Y007171D03*
X027129Y007171D03*
X027129Y005171D03*
X028129Y005171D03*
D19*
X015629Y010671D03*
X014629Y010671D03*
D20*
X017629Y011421D03*
X018629Y010421D03*
X010629Y007675D03*
D21*
X013129Y007671D01*
D22*
X013879Y007921D02*
X013879Y013171D01*
X012629Y013171D01*
X017629Y011421D02*
X022129Y011421D01*
X021379Y010421D02*
X022129Y010171D01*
X021379Y010421D02*
X018629Y010421D01*
X016129Y007921D02*
X013879Y007921D01*
X016129Y007921D02*
X018629Y006671D01*
X018629Y005921D01*
X022129Y012921D02*
X022629Y012921D01*
X022629Y014421D01*
X023629Y014421D02*
X023629Y012921D01*
X026129Y012921D01*
M02*
