G75*
G70*
%OFA0B0*%
%FSLAX24Y24*%
%IPPOS*%
%LPD*%
%AMOC8*
5,1,8,0,0,1.08239X$1,22.5*
%
%ADD10C,0.0000*%
%ADD11C,0.0030*%
%ADD12C,0.0040*%
%ADD13C,0.0060*%
%ADD14C,0.0050*%
D10*
X001129Y000212D02*
X001129Y018712D01*
X029379Y018712D01*
X029379Y000212D01*
X001129Y000212D01*
X001499Y001212D02*
X001502Y001269D01*
X001509Y001326D01*
X001522Y001382D01*
X001540Y001436D01*
X001563Y001489D01*
X001591Y001539D01*
X001623Y001587D01*
X001659Y001631D01*
X001699Y001672D01*
X001743Y001710D01*
X001789Y001743D01*
X001839Y001771D01*
X001891Y001795D01*
X001945Y001815D01*
X002001Y001829D01*
X002057Y001838D01*
X002115Y001842D01*
X002172Y001841D01*
X002229Y001834D01*
X002285Y001822D01*
X002340Y001806D01*
X002393Y001784D01*
X002444Y001758D01*
X002492Y001727D01*
X002538Y001692D01*
X002580Y001652D01*
X002618Y001610D01*
X002652Y001563D01*
X002682Y001514D01*
X002707Y001463D01*
X002727Y001409D01*
X002743Y001354D01*
X002753Y001298D01*
X002758Y001241D01*
X002758Y001183D01*
X002753Y001126D01*
X002743Y001070D01*
X002727Y001015D01*
X002707Y000961D01*
X002682Y000910D01*
X002652Y000861D01*
X002618Y000814D01*
X002580Y000772D01*
X002538Y000732D01*
X002492Y000697D01*
X002444Y000666D01*
X002393Y000640D01*
X002340Y000618D01*
X002285Y000602D01*
X002229Y000590D01*
X002172Y000583D01*
X002115Y000582D01*
X002057Y000586D01*
X002001Y000595D01*
X001945Y000609D01*
X001891Y000629D01*
X001839Y000653D01*
X001789Y000681D01*
X001743Y000714D01*
X001699Y000752D01*
X001659Y000793D01*
X001623Y000837D01*
X001591Y000885D01*
X001563Y000935D01*
X001540Y000988D01*
X001522Y001042D01*
X001509Y001098D01*
X001502Y001155D01*
X001499Y001212D01*
X027749Y001212D02*
X027752Y001269D01*
X027759Y001326D01*
X027772Y001382D01*
X027790Y001436D01*
X027813Y001489D01*
X027841Y001539D01*
X027873Y001587D01*
X027909Y001631D01*
X027949Y001672D01*
X027993Y001710D01*
X028039Y001743D01*
X028089Y001771D01*
X028141Y001795D01*
X028195Y001815D01*
X028251Y001829D01*
X028307Y001838D01*
X028365Y001842D01*
X028422Y001841D01*
X028479Y001834D01*
X028535Y001822D01*
X028590Y001806D01*
X028643Y001784D01*
X028694Y001758D01*
X028742Y001727D01*
X028788Y001692D01*
X028830Y001652D01*
X028868Y001610D01*
X028902Y001563D01*
X028932Y001514D01*
X028957Y001463D01*
X028977Y001409D01*
X028993Y001354D01*
X029003Y001298D01*
X029008Y001241D01*
X029008Y001183D01*
X029003Y001126D01*
X028993Y001070D01*
X028977Y001015D01*
X028957Y000961D01*
X028932Y000910D01*
X028902Y000861D01*
X028868Y000814D01*
X028830Y000772D01*
X028788Y000732D01*
X028742Y000697D01*
X028694Y000666D01*
X028643Y000640D01*
X028590Y000618D01*
X028535Y000602D01*
X028479Y000590D01*
X028422Y000583D01*
X028365Y000582D01*
X028307Y000586D01*
X028251Y000595D01*
X028195Y000609D01*
X028141Y000629D01*
X028089Y000653D01*
X028039Y000681D01*
X027993Y000714D01*
X027949Y000752D01*
X027909Y000793D01*
X027873Y000837D01*
X027841Y000885D01*
X027813Y000935D01*
X027790Y000988D01*
X027772Y001042D01*
X027759Y001098D01*
X027752Y001155D01*
X027749Y001212D01*
X027749Y017712D02*
X027752Y017769D01*
X027759Y017826D01*
X027772Y017882D01*
X027790Y017936D01*
X027813Y017989D01*
X027841Y018039D01*
X027873Y018087D01*
X027909Y018131D01*
X027949Y018172D01*
X027993Y018210D01*
X028039Y018243D01*
X028089Y018271D01*
X028141Y018295D01*
X028195Y018315D01*
X028251Y018329D01*
X028307Y018338D01*
X028365Y018342D01*
X028422Y018341D01*
X028479Y018334D01*
X028535Y018322D01*
X028590Y018306D01*
X028643Y018284D01*
X028694Y018258D01*
X028742Y018227D01*
X028788Y018192D01*
X028830Y018152D01*
X028868Y018110D01*
X028902Y018063D01*
X028932Y018014D01*
X028957Y017963D01*
X028977Y017909D01*
X028993Y017854D01*
X029003Y017798D01*
X029008Y017741D01*
X029008Y017683D01*
X029003Y017626D01*
X028993Y017570D01*
X028977Y017515D01*
X028957Y017461D01*
X028932Y017410D01*
X028902Y017361D01*
X028868Y017314D01*
X028830Y017272D01*
X028788Y017232D01*
X028742Y017197D01*
X028694Y017166D01*
X028643Y017140D01*
X028590Y017118D01*
X028535Y017102D01*
X028479Y017090D01*
X028422Y017083D01*
X028365Y017082D01*
X028307Y017086D01*
X028251Y017095D01*
X028195Y017109D01*
X028141Y017129D01*
X028089Y017153D01*
X028039Y017181D01*
X027993Y017214D01*
X027949Y017252D01*
X027909Y017293D01*
X027873Y017337D01*
X027841Y017385D01*
X027813Y017435D01*
X027790Y017488D01*
X027772Y017542D01*
X027759Y017598D01*
X027752Y017655D01*
X027749Y017712D01*
X001499Y017712D02*
X001502Y017769D01*
X001509Y017826D01*
X001522Y017882D01*
X001540Y017936D01*
X001563Y017989D01*
X001591Y018039D01*
X001623Y018087D01*
X001659Y018131D01*
X001699Y018172D01*
X001743Y018210D01*
X001789Y018243D01*
X001839Y018271D01*
X001891Y018295D01*
X001945Y018315D01*
X002001Y018329D01*
X002057Y018338D01*
X002115Y018342D01*
X002172Y018341D01*
X002229Y018334D01*
X002285Y018322D01*
X002340Y018306D01*
X002393Y018284D01*
X002444Y018258D01*
X002492Y018227D01*
X002538Y018192D01*
X002580Y018152D01*
X002618Y018110D01*
X002652Y018063D01*
X002682Y018014D01*
X002707Y017963D01*
X002727Y017909D01*
X002743Y017854D01*
X002753Y017798D01*
X002758Y017741D01*
X002758Y017683D01*
X002753Y017626D01*
X002743Y017570D01*
X002727Y017515D01*
X002707Y017461D01*
X002682Y017410D01*
X002652Y017361D01*
X002618Y017314D01*
X002580Y017272D01*
X002538Y017232D01*
X002492Y017197D01*
X002444Y017166D01*
X002393Y017140D01*
X002340Y017118D01*
X002285Y017102D01*
X002229Y017090D01*
X002172Y017083D01*
X002115Y017082D01*
X002057Y017086D01*
X002001Y017095D01*
X001945Y017109D01*
X001891Y017129D01*
X001839Y017153D01*
X001789Y017181D01*
X001743Y017214D01*
X001699Y017252D01*
X001659Y017293D01*
X001623Y017337D01*
X001591Y017385D01*
X001563Y017435D01*
X001540Y017488D01*
X001522Y017542D01*
X001509Y017598D01*
X001502Y017655D01*
X001499Y017712D01*
D11*
X001729Y017712D02*
X002529Y017712D01*
X001929Y017712D02*
X001931Y017740D01*
X001937Y017768D01*
X001947Y017795D01*
X001961Y017820D01*
X001978Y017843D01*
X001998Y017863D01*
X002021Y017880D01*
X002046Y017894D01*
X002073Y017904D01*
X002101Y017910D01*
X002129Y017912D01*
X002157Y017910D01*
X002185Y017904D01*
X002212Y017894D01*
X002237Y017880D01*
X002260Y017863D01*
X002280Y017843D01*
X002297Y017820D01*
X002311Y017795D01*
X002321Y017768D01*
X002327Y017740D01*
X002329Y017712D01*
X002327Y017684D01*
X002321Y017656D01*
X002311Y017629D01*
X002297Y017604D01*
X002280Y017581D01*
X002260Y017561D01*
X002237Y017544D01*
X002212Y017530D01*
X002185Y017520D01*
X002157Y017514D01*
X002129Y017512D01*
X002101Y017514D01*
X002073Y017520D01*
X002046Y017530D01*
X002021Y017544D01*
X001998Y017561D01*
X001978Y017581D01*
X001961Y017604D01*
X001947Y017629D01*
X001937Y017656D01*
X001931Y017684D01*
X001929Y017712D01*
X001729Y017712D02*
X001731Y017752D01*
X001737Y017793D01*
X001747Y017832D01*
X001761Y017870D01*
X001779Y017906D01*
X001801Y017941D01*
X001825Y017973D01*
X001853Y018002D01*
X001884Y018028D01*
X001917Y018051D01*
X001953Y018071D01*
X001990Y018087D01*
X002029Y018099D01*
X002068Y018107D01*
X002109Y018111D01*
X002149Y018111D01*
X002190Y018107D01*
X002229Y018099D01*
X002268Y018087D01*
X002305Y018071D01*
X002341Y018051D01*
X002374Y018028D01*
X002405Y018002D01*
X002433Y017973D01*
X002457Y017941D01*
X002479Y017906D01*
X002497Y017870D01*
X002511Y017832D01*
X002521Y017793D01*
X002527Y017752D01*
X002529Y017712D01*
X002527Y017672D01*
X002521Y017631D01*
X002511Y017592D01*
X002497Y017554D01*
X002479Y017518D01*
X002457Y017483D01*
X002433Y017451D01*
X002405Y017422D01*
X002374Y017396D01*
X002341Y017373D01*
X002305Y017353D01*
X002268Y017337D01*
X002229Y017325D01*
X002190Y017317D01*
X002149Y017313D01*
X002109Y017313D01*
X002068Y017317D01*
X002029Y017325D01*
X001990Y017337D01*
X001953Y017353D01*
X001917Y017373D01*
X001884Y017396D01*
X001853Y017422D01*
X001825Y017451D01*
X001801Y017483D01*
X001779Y017518D01*
X001761Y017554D01*
X001747Y017592D01*
X001737Y017631D01*
X001731Y017672D01*
X001729Y017712D01*
X002129Y018112D02*
X002129Y017312D01*
X006229Y015612D02*
X007029Y014812D01*
X007229Y014812D02*
X008029Y015612D01*
X008229Y015612D02*
X009029Y014812D01*
X009229Y014812D02*
X010029Y015612D01*
X009629Y015612D02*
X009629Y014812D01*
X010029Y014812D02*
X009229Y015612D01*
X009029Y015612D02*
X008229Y014812D01*
X008029Y014812D02*
X007229Y015612D01*
X007029Y015612D02*
X006229Y014812D01*
X006629Y014812D02*
X006629Y015612D01*
X007629Y015612D02*
X007629Y014812D01*
X008629Y014812D02*
X008629Y015612D01*
X012229Y015612D02*
X013029Y014812D01*
X013029Y014612D02*
X012229Y013812D01*
X012229Y013612D02*
X013029Y012812D01*
X013029Y012612D02*
X012229Y011812D01*
X012229Y011612D02*
X013029Y010812D01*
X013029Y010612D02*
X012229Y009812D01*
X012629Y009812D02*
X012629Y010612D01*
X012629Y010812D02*
X012629Y011612D01*
X012629Y011812D02*
X012629Y012612D01*
X012629Y012812D02*
X012629Y013612D01*
X012629Y013812D02*
X012629Y014612D01*
X012629Y014812D02*
X012629Y015612D01*
X013029Y015612D02*
X012229Y014812D01*
X012229Y014612D02*
X013029Y013812D01*
X013029Y013612D02*
X012229Y012812D01*
X012229Y012612D02*
X013029Y011812D01*
X013029Y011612D02*
X012229Y010812D01*
X012229Y010612D02*
X013029Y009812D01*
X014229Y009362D02*
X015029Y008562D01*
X015229Y008562D02*
X016029Y009362D01*
X016229Y009362D02*
X017029Y008562D01*
X017229Y008562D02*
X018029Y009362D01*
X018229Y009362D02*
X019029Y008562D01*
X019229Y008562D02*
X020029Y009362D01*
X020229Y009362D02*
X021029Y008562D01*
X020629Y008562D02*
X020629Y009362D01*
X021029Y009362D02*
X020229Y008562D01*
X020029Y008562D02*
X019229Y009362D01*
X019029Y009362D02*
X018229Y008562D01*
X018029Y008562D02*
X017229Y009362D01*
X017029Y009362D02*
X016229Y008562D01*
X016029Y008562D02*
X015229Y009362D01*
X015029Y009362D02*
X014229Y008562D01*
X014629Y008562D02*
X014629Y009362D01*
X015629Y009362D02*
X015629Y008562D01*
X016629Y008562D02*
X016629Y009362D01*
X017629Y009362D02*
X017629Y008562D01*
X018629Y008562D02*
X018629Y009362D01*
X019629Y009362D02*
X019629Y008562D01*
X021229Y008312D02*
X022029Y009112D01*
X021629Y009112D02*
X021629Y008312D01*
X022029Y008312D02*
X021229Y009112D01*
X020029Y010312D02*
X019229Y011112D01*
X019629Y011112D02*
X019629Y010312D01*
X019229Y010312D02*
X020029Y011112D01*
X018779Y011312D02*
X017979Y012112D01*
X018029Y012312D02*
X017229Y013112D01*
X017629Y013112D02*
X017629Y012312D01*
X017229Y012312D02*
X018029Y013112D01*
X018029Y014062D02*
X017229Y014862D01*
X017629Y014862D02*
X017629Y014062D01*
X017229Y014062D02*
X018029Y014862D01*
X018229Y014862D02*
X019029Y014062D01*
X019229Y014062D02*
X020029Y014862D01*
X020229Y014862D02*
X021029Y014062D01*
X021229Y014062D02*
X022029Y014862D01*
X022229Y014862D02*
X023029Y014062D01*
X023229Y014062D02*
X024029Y014862D01*
X024229Y014862D02*
X025029Y014062D01*
X025229Y014062D02*
X026029Y014862D01*
X025629Y014862D02*
X025629Y014062D01*
X026029Y014062D02*
X025229Y014862D01*
X025029Y014862D02*
X024229Y014062D01*
X024029Y014062D02*
X023229Y014862D01*
X023029Y014862D02*
X022229Y014062D01*
X022029Y014062D02*
X021229Y014862D01*
X021029Y014862D02*
X020229Y014062D01*
X020029Y014062D02*
X019229Y014862D01*
X019029Y014862D02*
X018229Y014062D01*
X018629Y014062D02*
X018629Y014862D01*
X019629Y014862D02*
X019629Y014062D01*
X020629Y014062D02*
X020629Y014862D01*
X021629Y014862D02*
X021629Y014062D01*
X022629Y014062D02*
X022629Y014862D01*
X023629Y014862D02*
X023629Y014062D01*
X023629Y013612D02*
X023629Y012812D01*
X023229Y013212D02*
X024029Y013212D01*
X023029Y013212D02*
X022229Y013212D01*
X022029Y013112D02*
X021229Y012312D01*
X021629Y012312D02*
X021629Y013112D01*
X021229Y013112D02*
X022029Y012312D01*
X021979Y012112D02*
X022779Y011312D01*
X022379Y011312D02*
X022379Y012112D01*
X022779Y012112D02*
X021979Y011312D01*
X023229Y011112D02*
X024029Y010312D01*
X023629Y010312D02*
X023629Y011112D01*
X024029Y011112D02*
X023229Y010312D01*
X025229Y009112D02*
X026029Y008312D01*
X025629Y008312D02*
X025629Y009112D01*
X026029Y009112D02*
X025229Y008312D01*
X026729Y007462D02*
X027529Y007462D01*
X027729Y007462D02*
X028529Y007462D01*
X028129Y007862D02*
X028129Y007062D01*
X027129Y007062D02*
X027129Y007862D01*
X026029Y007112D02*
X025229Y006312D01*
X025629Y006312D02*
X025629Y007112D01*
X025229Y007112D02*
X026029Y006312D01*
X027129Y005862D02*
X027129Y005062D01*
X026729Y005462D02*
X027529Y005462D01*
X027729Y005462D02*
X028529Y005462D01*
X028129Y005862D02*
X028129Y005062D01*
X026029Y005212D02*
X025229Y005212D01*
X025029Y005212D02*
X024229Y005212D01*
X024029Y005212D02*
X023229Y005212D01*
X023029Y005212D02*
X022229Y005212D01*
X022629Y005612D02*
X022629Y004812D01*
X023629Y004812D02*
X023629Y005612D01*
X024629Y005612D02*
X024629Y004812D01*
X025629Y004812D02*
X025629Y005612D01*
X022029Y006312D02*
X021229Y007112D01*
X021629Y007112D02*
X021629Y006312D01*
X021229Y006312D02*
X022029Y007112D01*
X021029Y006362D02*
X020229Y005562D01*
X020029Y005562D02*
X019229Y006362D01*
X019029Y006362D02*
X018229Y005562D01*
X018029Y005562D02*
X017229Y006362D01*
X017029Y006362D02*
X016229Y005562D01*
X016029Y005562D02*
X015229Y006362D01*
X015029Y006362D02*
X014229Y005562D01*
X014629Y005562D02*
X014629Y006362D01*
X014229Y006362D02*
X015029Y005562D01*
X015229Y005562D02*
X016029Y006362D01*
X016229Y006362D02*
X017029Y005562D01*
X017229Y005562D02*
X018029Y006362D01*
X018229Y006362D02*
X019029Y005562D01*
X019229Y005562D02*
X020029Y006362D01*
X020229Y006362D02*
X021029Y005562D01*
X020629Y005562D02*
X020629Y006362D01*
X019629Y006362D02*
X019629Y005562D01*
X018629Y005562D02*
X018629Y006362D01*
X017629Y006362D02*
X017629Y005562D01*
X016629Y005562D02*
X016629Y006362D01*
X015629Y006362D02*
X015629Y005562D01*
X013779Y006462D02*
X012979Y006462D01*
X013379Y006862D02*
X013379Y006062D01*
X012629Y005612D02*
X012629Y004812D01*
X012229Y005212D02*
X013029Y005212D01*
X012029Y005212D02*
X011229Y005212D01*
X011029Y005212D02*
X010229Y005212D01*
X010029Y005212D02*
X009229Y005212D01*
X009629Y005612D02*
X009629Y004812D01*
X010629Y004812D02*
X010629Y005612D01*
X011629Y005612D02*
X011629Y004812D01*
X008533Y005816D02*
X007733Y005816D01*
X008133Y006216D01*
X008533Y005816D01*
X008133Y006216D02*
X008133Y006616D01*
X006525Y005816D02*
X005725Y005816D01*
X006125Y006216D01*
X006525Y005816D01*
X006729Y005612D02*
X007529Y004812D01*
X008133Y004608D02*
X008133Y004208D01*
X007733Y003808D01*
X008533Y003808D01*
X008133Y004208D01*
X007529Y005612D02*
X006729Y004812D01*
X006125Y004608D02*
X006125Y004208D01*
X005725Y003808D01*
X006525Y003808D01*
X006125Y004208D01*
X006729Y005212D02*
X007529Y005212D01*
X006125Y006216D02*
X006125Y006616D01*
X010229Y007466D02*
X011029Y007466D01*
X010629Y007866D02*
X010629Y007066D01*
X013379Y008062D02*
X013379Y008862D01*
X012979Y008462D02*
X013779Y008462D01*
X010029Y009812D02*
X009229Y010612D01*
X009029Y010612D02*
X008229Y009812D01*
X008029Y009812D02*
X007229Y010612D01*
X007029Y010612D02*
X006229Y009812D01*
X006629Y009812D02*
X006629Y010612D01*
X006229Y010612D02*
X007029Y009812D01*
X007229Y009812D02*
X008029Y010612D01*
X008229Y010612D02*
X009029Y009812D01*
X009229Y009812D02*
X010029Y010612D01*
X009629Y010612D02*
X009629Y009812D01*
X008629Y009812D02*
X008629Y010612D01*
X007629Y010612D02*
X007629Y009812D01*
X014629Y010962D02*
X015029Y011362D01*
X015029Y010562D01*
X015429Y010962D01*
X014629Y010962D01*
X015029Y011562D02*
X015029Y012362D01*
X014629Y011962D01*
X015429Y011962D01*
X015029Y011562D01*
X017979Y011312D02*
X018779Y012112D01*
X018379Y012112D02*
X018379Y011312D01*
X022629Y012812D02*
X022629Y013612D01*
X024629Y014062D02*
X024629Y014862D01*
X026479Y014962D02*
X027279Y014962D01*
X026879Y015362D02*
X026879Y014562D01*
X027129Y013862D02*
X027129Y013062D01*
X026729Y013462D02*
X027529Y013462D01*
X027729Y013462D02*
X028529Y013462D01*
X028129Y013862D02*
X028129Y013062D01*
X028129Y011862D02*
X028129Y011062D01*
X027729Y011462D02*
X028529Y011462D01*
X027529Y011462D02*
X026729Y011462D01*
X027129Y011862D02*
X027129Y011062D01*
X027129Y009862D02*
X027129Y009062D01*
X026729Y009462D02*
X027529Y009462D01*
X027729Y009462D02*
X028529Y009462D01*
X028129Y009862D02*
X028129Y009062D01*
X031377Y007931D02*
X032177Y007931D01*
X031577Y007931D02*
X031579Y007959D01*
X031585Y007987D01*
X031595Y008014D01*
X031609Y008039D01*
X031626Y008062D01*
X031646Y008082D01*
X031669Y008099D01*
X031694Y008113D01*
X031721Y008123D01*
X031749Y008129D01*
X031777Y008131D01*
X031805Y008129D01*
X031833Y008123D01*
X031860Y008113D01*
X031885Y008099D01*
X031908Y008082D01*
X031928Y008062D01*
X031945Y008039D01*
X031959Y008014D01*
X031969Y007987D01*
X031975Y007959D01*
X031977Y007931D01*
X031975Y007903D01*
X031969Y007875D01*
X031959Y007848D01*
X031945Y007823D01*
X031928Y007800D01*
X031908Y007780D01*
X031885Y007763D01*
X031860Y007749D01*
X031833Y007739D01*
X031805Y007733D01*
X031777Y007731D01*
X031749Y007733D01*
X031721Y007739D01*
X031694Y007749D01*
X031669Y007763D01*
X031646Y007780D01*
X031626Y007800D01*
X031609Y007823D01*
X031595Y007848D01*
X031585Y007875D01*
X031579Y007903D01*
X031577Y007931D01*
X031377Y007931D02*
X031379Y007971D01*
X031385Y008012D01*
X031395Y008051D01*
X031409Y008089D01*
X031427Y008125D01*
X031449Y008160D01*
X031473Y008192D01*
X031501Y008221D01*
X031532Y008247D01*
X031565Y008270D01*
X031601Y008290D01*
X031638Y008306D01*
X031677Y008318D01*
X031716Y008326D01*
X031757Y008330D01*
X031797Y008330D01*
X031838Y008326D01*
X031877Y008318D01*
X031916Y008306D01*
X031953Y008290D01*
X031989Y008270D01*
X032022Y008247D01*
X032053Y008221D01*
X032081Y008192D01*
X032105Y008160D01*
X032127Y008125D01*
X032145Y008089D01*
X032159Y008051D01*
X032169Y008012D01*
X032175Y007971D01*
X032177Y007931D01*
X032175Y007891D01*
X032169Y007850D01*
X032159Y007811D01*
X032145Y007773D01*
X032127Y007737D01*
X032105Y007702D01*
X032081Y007670D01*
X032053Y007641D01*
X032022Y007615D01*
X031989Y007592D01*
X031953Y007572D01*
X031916Y007556D01*
X031877Y007544D01*
X031838Y007536D01*
X031797Y007532D01*
X031757Y007532D01*
X031716Y007536D01*
X031677Y007544D01*
X031638Y007556D01*
X031601Y007572D01*
X031565Y007592D01*
X031532Y007615D01*
X031501Y007641D01*
X031473Y007670D01*
X031449Y007702D01*
X031427Y007737D01*
X031409Y007773D01*
X031395Y007811D01*
X031385Y007850D01*
X031379Y007891D01*
X031377Y007931D01*
X031777Y008331D02*
X031777Y007531D01*
X031777Y007031D02*
X031777Y006631D01*
X031377Y006231D01*
X032177Y006231D01*
X031777Y006631D01*
X032177Y005731D02*
X031377Y004931D01*
X031377Y005731D02*
X032177Y004931D01*
X032177Y005331D02*
X031377Y005331D01*
X031777Y004431D02*
X031377Y004031D01*
X032177Y004031D01*
X031777Y003631D01*
X031777Y004431D01*
X031777Y003131D02*
X031777Y002331D01*
X032177Y002331D02*
X031377Y003131D01*
X032177Y003131D02*
X031377Y002331D01*
X031777Y001831D02*
X031777Y001031D01*
X031377Y001431D02*
X032177Y001431D01*
X028779Y001212D02*
X027979Y001212D01*
X028179Y001212D02*
X028181Y001240D01*
X028187Y001268D01*
X028197Y001295D01*
X028211Y001320D01*
X028228Y001343D01*
X028248Y001363D01*
X028271Y001380D01*
X028296Y001394D01*
X028323Y001404D01*
X028351Y001410D01*
X028379Y001412D01*
X028407Y001410D01*
X028435Y001404D01*
X028462Y001394D01*
X028487Y001380D01*
X028510Y001363D01*
X028530Y001343D01*
X028547Y001320D01*
X028561Y001295D01*
X028571Y001268D01*
X028577Y001240D01*
X028579Y001212D01*
X028577Y001184D01*
X028571Y001156D01*
X028561Y001129D01*
X028547Y001104D01*
X028530Y001081D01*
X028510Y001061D01*
X028487Y001044D01*
X028462Y001030D01*
X028435Y001020D01*
X028407Y001014D01*
X028379Y001012D01*
X028351Y001014D01*
X028323Y001020D01*
X028296Y001030D01*
X028271Y001044D01*
X028248Y001061D01*
X028228Y001081D01*
X028211Y001104D01*
X028197Y001129D01*
X028187Y001156D01*
X028181Y001184D01*
X028179Y001212D01*
X027979Y001212D02*
X027981Y001252D01*
X027987Y001293D01*
X027997Y001332D01*
X028011Y001370D01*
X028029Y001406D01*
X028051Y001441D01*
X028075Y001473D01*
X028103Y001502D01*
X028134Y001528D01*
X028167Y001551D01*
X028203Y001571D01*
X028240Y001587D01*
X028279Y001599D01*
X028318Y001607D01*
X028359Y001611D01*
X028399Y001611D01*
X028440Y001607D01*
X028479Y001599D01*
X028518Y001587D01*
X028555Y001571D01*
X028591Y001551D01*
X028624Y001528D01*
X028655Y001502D01*
X028683Y001473D01*
X028707Y001441D01*
X028729Y001406D01*
X028747Y001370D01*
X028761Y001332D01*
X028771Y001293D01*
X028777Y001252D01*
X028779Y001212D01*
X028777Y001172D01*
X028771Y001131D01*
X028761Y001092D01*
X028747Y001054D01*
X028729Y001018D01*
X028707Y000983D01*
X028683Y000951D01*
X028655Y000922D01*
X028624Y000896D01*
X028591Y000873D01*
X028555Y000853D01*
X028518Y000837D01*
X028479Y000825D01*
X028440Y000817D01*
X028399Y000813D01*
X028359Y000813D01*
X028318Y000817D01*
X028279Y000825D01*
X028240Y000837D01*
X028203Y000853D01*
X028167Y000873D01*
X028134Y000896D01*
X028103Y000922D01*
X028075Y000951D01*
X028051Y000983D01*
X028029Y001018D01*
X028011Y001054D01*
X027997Y001092D01*
X027987Y001131D01*
X027981Y001172D01*
X027979Y001212D01*
X028379Y001612D02*
X028379Y000812D01*
X002529Y001212D02*
X001729Y001212D01*
X001929Y001212D02*
X001931Y001240D01*
X001937Y001268D01*
X001947Y001295D01*
X001961Y001320D01*
X001978Y001343D01*
X001998Y001363D01*
X002021Y001380D01*
X002046Y001394D01*
X002073Y001404D01*
X002101Y001410D01*
X002129Y001412D01*
X002157Y001410D01*
X002185Y001404D01*
X002212Y001394D01*
X002237Y001380D01*
X002260Y001363D01*
X002280Y001343D01*
X002297Y001320D01*
X002311Y001295D01*
X002321Y001268D01*
X002327Y001240D01*
X002329Y001212D01*
X002327Y001184D01*
X002321Y001156D01*
X002311Y001129D01*
X002297Y001104D01*
X002280Y001081D01*
X002260Y001061D01*
X002237Y001044D01*
X002212Y001030D01*
X002185Y001020D01*
X002157Y001014D01*
X002129Y001012D01*
X002101Y001014D01*
X002073Y001020D01*
X002046Y001030D01*
X002021Y001044D01*
X001998Y001061D01*
X001978Y001081D01*
X001961Y001104D01*
X001947Y001129D01*
X001937Y001156D01*
X001931Y001184D01*
X001929Y001212D01*
X001729Y001212D02*
X001731Y001252D01*
X001737Y001293D01*
X001747Y001332D01*
X001761Y001370D01*
X001779Y001406D01*
X001801Y001441D01*
X001825Y001473D01*
X001853Y001502D01*
X001884Y001528D01*
X001917Y001551D01*
X001953Y001571D01*
X001990Y001587D01*
X002029Y001599D01*
X002068Y001607D01*
X002109Y001611D01*
X002149Y001611D01*
X002190Y001607D01*
X002229Y001599D01*
X002268Y001587D01*
X002305Y001571D01*
X002341Y001551D01*
X002374Y001528D01*
X002405Y001502D01*
X002433Y001473D01*
X002457Y001441D01*
X002479Y001406D01*
X002497Y001370D01*
X002511Y001332D01*
X002521Y001293D01*
X002527Y001252D01*
X002529Y001212D01*
X002527Y001172D01*
X002521Y001131D01*
X002511Y001092D01*
X002497Y001054D01*
X002479Y001018D01*
X002457Y000983D01*
X002433Y000951D01*
X002405Y000922D01*
X002374Y000896D01*
X002341Y000873D01*
X002305Y000853D01*
X002268Y000837D01*
X002229Y000825D01*
X002190Y000817D01*
X002149Y000813D01*
X002109Y000813D01*
X002068Y000817D01*
X002029Y000825D01*
X001990Y000837D01*
X001953Y000853D01*
X001917Y000873D01*
X001884Y000896D01*
X001853Y000922D01*
X001825Y000951D01*
X001801Y000983D01*
X001779Y001018D01*
X001761Y001054D01*
X001747Y001092D01*
X001737Y001131D01*
X001731Y001172D01*
X001729Y001212D01*
X002129Y001612D02*
X002129Y000812D01*
X026879Y016562D02*
X026879Y017362D01*
X026479Y016962D02*
X027279Y016962D01*
X026029Y017062D02*
X025229Y017862D01*
X025029Y017862D02*
X024229Y017062D01*
X024029Y017062D02*
X023229Y017862D01*
X023029Y017862D02*
X022229Y017062D01*
X022029Y017062D02*
X021229Y017862D01*
X021029Y017862D02*
X020229Y017062D01*
X020029Y017062D02*
X019229Y017862D01*
X019029Y017862D02*
X018229Y017062D01*
X018029Y017062D02*
X017229Y017862D01*
X017629Y017862D02*
X017629Y017062D01*
X017229Y017062D02*
X018029Y017862D01*
X018229Y017862D02*
X019029Y017062D01*
X019229Y017062D02*
X020029Y017862D01*
X020229Y017862D02*
X021029Y017062D01*
X021229Y017062D02*
X022029Y017862D01*
X022229Y017862D02*
X023029Y017062D01*
X023229Y017062D02*
X024029Y017862D01*
X024229Y017862D02*
X025029Y017062D01*
X025229Y017062D02*
X026029Y017862D01*
X025629Y017862D02*
X025629Y017062D01*
X024629Y017062D02*
X024629Y017862D01*
X023629Y017862D02*
X023629Y017062D01*
X022629Y017062D02*
X022629Y017862D01*
X021629Y017862D02*
X021629Y017062D01*
X020629Y017062D02*
X020629Y017862D01*
X019629Y017862D02*
X019629Y017062D01*
X018629Y017062D02*
X018629Y017862D01*
X027979Y017712D02*
X028779Y017712D01*
X028179Y017712D02*
X028181Y017740D01*
X028187Y017768D01*
X028197Y017795D01*
X028211Y017820D01*
X028228Y017843D01*
X028248Y017863D01*
X028271Y017880D01*
X028296Y017894D01*
X028323Y017904D01*
X028351Y017910D01*
X028379Y017912D01*
X028407Y017910D01*
X028435Y017904D01*
X028462Y017894D01*
X028487Y017880D01*
X028510Y017863D01*
X028530Y017843D01*
X028547Y017820D01*
X028561Y017795D01*
X028571Y017768D01*
X028577Y017740D01*
X028579Y017712D01*
X028577Y017684D01*
X028571Y017656D01*
X028561Y017629D01*
X028547Y017604D01*
X028530Y017581D01*
X028510Y017561D01*
X028487Y017544D01*
X028462Y017530D01*
X028435Y017520D01*
X028407Y017514D01*
X028379Y017512D01*
X028351Y017514D01*
X028323Y017520D01*
X028296Y017530D01*
X028271Y017544D01*
X028248Y017561D01*
X028228Y017581D01*
X028211Y017604D01*
X028197Y017629D01*
X028187Y017656D01*
X028181Y017684D01*
X028179Y017712D01*
X027979Y017712D02*
X027981Y017752D01*
X027987Y017793D01*
X027997Y017832D01*
X028011Y017870D01*
X028029Y017906D01*
X028051Y017941D01*
X028075Y017973D01*
X028103Y018002D01*
X028134Y018028D01*
X028167Y018051D01*
X028203Y018071D01*
X028240Y018087D01*
X028279Y018099D01*
X028318Y018107D01*
X028359Y018111D01*
X028399Y018111D01*
X028440Y018107D01*
X028479Y018099D01*
X028518Y018087D01*
X028555Y018071D01*
X028591Y018051D01*
X028624Y018028D01*
X028655Y018002D01*
X028683Y017973D01*
X028707Y017941D01*
X028729Y017906D01*
X028747Y017870D01*
X028761Y017832D01*
X028771Y017793D01*
X028777Y017752D01*
X028779Y017712D01*
X028777Y017672D01*
X028771Y017631D01*
X028761Y017592D01*
X028747Y017554D01*
X028729Y017518D01*
X028707Y017483D01*
X028683Y017451D01*
X028655Y017422D01*
X028624Y017396D01*
X028591Y017373D01*
X028555Y017353D01*
X028518Y017337D01*
X028479Y017325D01*
X028440Y017317D01*
X028399Y017313D01*
X028359Y017313D01*
X028318Y017317D01*
X028279Y017325D01*
X028240Y017337D01*
X028203Y017353D01*
X028167Y017373D01*
X028134Y017396D01*
X028103Y017422D01*
X028075Y017451D01*
X028051Y017483D01*
X028029Y017518D01*
X028011Y017554D01*
X027997Y017592D01*
X027987Y017631D01*
X027981Y017672D01*
X027979Y017712D01*
X028379Y018112D02*
X028379Y017312D01*
D12*
X033374Y008161D02*
X033527Y008161D01*
X033604Y008085D01*
X033604Y008008D01*
X033527Y007931D01*
X033604Y007854D01*
X033604Y007778D01*
X033527Y007701D01*
X033374Y007701D01*
X033297Y007778D01*
X033451Y007931D02*
X033527Y007931D01*
X033297Y008085D02*
X033374Y008161D01*
X033988Y008085D02*
X034064Y008161D01*
X034218Y008161D01*
X034295Y008085D01*
X034295Y008008D01*
X033988Y007701D01*
X034295Y007701D01*
X034448Y007778D02*
X034525Y007701D01*
X034678Y007701D01*
X034755Y007778D01*
X034755Y008085D01*
X034448Y007778D01*
X034448Y008085D01*
X034525Y008161D01*
X034678Y008161D01*
X034755Y008085D01*
X034909Y008085D02*
X034985Y008161D01*
X035139Y008161D01*
X035215Y008085D01*
X034909Y007778D01*
X034985Y007701D01*
X035139Y007701D01*
X035215Y007778D01*
X035215Y008085D01*
X035369Y008085D02*
X035446Y008161D01*
X035599Y008161D01*
X035676Y008085D01*
X035369Y007778D01*
X035446Y007701D01*
X035599Y007701D01*
X035676Y007778D01*
X035676Y008085D01*
X035369Y008085D02*
X035369Y007778D01*
X034909Y007778D02*
X034909Y008085D01*
X033834Y007778D02*
X033834Y007701D01*
X033758Y007701D01*
X033758Y007778D01*
X033834Y007778D01*
X033451Y006861D02*
X033451Y006401D01*
X033604Y006401D02*
X033297Y006401D01*
X033297Y006708D02*
X033451Y006861D01*
X033988Y006631D02*
X034218Y006631D01*
X034295Y006554D01*
X034295Y006478D01*
X034218Y006401D01*
X034064Y006401D01*
X033988Y006478D01*
X033988Y006631D01*
X034141Y006785D01*
X034295Y006861D01*
X034448Y006785D02*
X034525Y006861D01*
X034678Y006861D01*
X034755Y006785D01*
X034448Y006478D01*
X034525Y006401D01*
X034678Y006401D01*
X034755Y006478D01*
X034755Y006785D01*
X034909Y006785D02*
X034985Y006861D01*
X035139Y006861D01*
X035215Y006785D01*
X034909Y006478D01*
X034985Y006401D01*
X035139Y006401D01*
X035215Y006478D01*
X035215Y006785D01*
X035369Y006785D02*
X035446Y006861D01*
X035599Y006861D01*
X035676Y006785D01*
X035369Y006478D01*
X035446Y006401D01*
X035599Y006401D01*
X035676Y006478D01*
X035676Y006785D01*
X035369Y006785D02*
X035369Y006478D01*
X034909Y006478D02*
X034909Y006785D01*
X034448Y006785D02*
X034448Y006478D01*
X033834Y006478D02*
X033834Y006401D01*
X033758Y006401D01*
X033758Y006478D01*
X033834Y006478D01*
X033451Y005561D02*
X033451Y005101D01*
X033604Y005101D02*
X033297Y005101D01*
X033758Y005101D02*
X033758Y005178D01*
X033834Y005178D01*
X033834Y005101D01*
X033758Y005101D01*
X033988Y005331D02*
X034295Y005331D01*
X034448Y005178D02*
X034755Y005485D01*
X034755Y005178D01*
X034678Y005101D01*
X034525Y005101D01*
X034448Y005178D01*
X034448Y005485D01*
X034525Y005561D01*
X034678Y005561D01*
X034755Y005485D01*
X034909Y005485D02*
X034985Y005561D01*
X035139Y005561D01*
X035215Y005485D01*
X034909Y005178D01*
X034985Y005101D01*
X035139Y005101D01*
X035215Y005178D01*
X035215Y005485D01*
X035369Y005485D02*
X035446Y005561D01*
X035599Y005561D01*
X035676Y005485D01*
X035369Y005178D01*
X035446Y005101D01*
X035599Y005101D01*
X035676Y005178D01*
X035676Y005485D01*
X035369Y005485D02*
X035369Y005178D01*
X034909Y005178D02*
X034909Y005485D01*
X034218Y005561D02*
X033988Y005331D01*
X034218Y005101D02*
X034218Y005561D01*
X033451Y005561D02*
X033297Y005408D01*
X033451Y004261D02*
X033451Y003801D01*
X033604Y003801D02*
X033297Y003801D01*
X033297Y004108D02*
X033451Y004261D01*
X033988Y004185D02*
X034064Y004261D01*
X034218Y004261D01*
X034295Y004185D01*
X033988Y003878D01*
X034064Y003801D01*
X034218Y003801D01*
X034295Y003878D01*
X034295Y004185D01*
X034448Y004108D02*
X034602Y004261D01*
X034602Y003801D01*
X034755Y003801D02*
X034448Y003801D01*
X033988Y003878D02*
X033988Y004185D01*
X033834Y003878D02*
X033834Y003801D01*
X033758Y003801D01*
X033758Y003878D01*
X033834Y003878D01*
X034909Y003878D02*
X034985Y003801D01*
X035139Y003801D01*
X035215Y003878D01*
X035215Y003954D01*
X035139Y004031D01*
X034909Y004031D01*
X034909Y003878D01*
X034909Y004031D02*
X035062Y004185D01*
X035215Y004261D01*
X035369Y004185D02*
X035446Y004261D01*
X035599Y004261D01*
X035676Y004185D01*
X035369Y003878D01*
X035446Y003801D01*
X035599Y003801D01*
X035676Y003878D01*
X035676Y004185D01*
X035369Y004185D02*
X035369Y003878D01*
X036290Y003801D02*
X036290Y004108D01*
X036366Y004108D01*
X036443Y004031D01*
X036520Y004108D01*
X036596Y004031D01*
X036596Y003801D01*
X036443Y003801D02*
X036443Y004031D01*
X036750Y004108D02*
X036750Y003801D01*
X036903Y003801D02*
X036903Y004031D01*
X036980Y004108D01*
X037057Y004031D01*
X037057Y003801D01*
X036903Y004031D02*
X036827Y004108D01*
X036750Y004108D01*
X037671Y003801D02*
X037978Y004261D01*
X038591Y004031D02*
X038898Y004031D01*
X039052Y003878D02*
X039359Y004185D01*
X039359Y003878D01*
X039282Y003801D01*
X039128Y003801D01*
X039052Y003878D01*
X039052Y004185D01*
X039128Y004261D01*
X039282Y004261D01*
X039359Y004185D01*
X039742Y004185D02*
X039819Y004261D01*
X039972Y004261D01*
X040049Y004185D01*
X039742Y003878D01*
X039819Y003801D01*
X039972Y003801D01*
X040049Y003878D01*
X040049Y004185D01*
X040203Y004185D02*
X040279Y004261D01*
X040433Y004261D01*
X040509Y004185D01*
X040203Y003878D01*
X040279Y003801D01*
X040433Y003801D01*
X040509Y003878D01*
X040509Y004185D01*
X040663Y004185D02*
X040740Y004261D01*
X040893Y004261D01*
X040970Y004185D01*
X040663Y003878D01*
X040740Y003801D01*
X040893Y003801D01*
X040970Y003878D01*
X040970Y004185D01*
X040663Y004185D02*
X040663Y003878D01*
X040203Y003878D02*
X040203Y004185D01*
X039742Y004185D02*
X039742Y003878D01*
X039589Y003878D02*
X039589Y003801D01*
X039512Y003801D01*
X039512Y003878D01*
X039589Y003878D01*
X038821Y003801D02*
X038821Y004261D01*
X038591Y004031D01*
X038668Y005101D02*
X038591Y005178D01*
X038668Y005101D02*
X038821Y005101D01*
X038898Y005178D01*
X038898Y005331D01*
X038821Y005408D01*
X038745Y005408D01*
X038591Y005331D01*
X038591Y005561D01*
X038898Y005561D01*
X039052Y005561D02*
X039052Y005331D01*
X039205Y005408D01*
X039282Y005408D01*
X039359Y005331D01*
X039359Y005178D01*
X039282Y005101D01*
X039128Y005101D01*
X039052Y005178D01*
X039052Y005561D02*
X039359Y005561D01*
X039742Y005408D02*
X039896Y005561D01*
X039896Y005101D01*
X040049Y005101D02*
X039742Y005101D01*
X039589Y005101D02*
X039512Y005101D01*
X039512Y005178D01*
X039589Y005178D01*
X039589Y005101D01*
X040203Y005101D02*
X040509Y005101D01*
X040356Y005101D02*
X040356Y005561D01*
X040203Y005408D01*
X040663Y005408D02*
X040740Y005331D01*
X040893Y005331D01*
X040970Y005254D01*
X040970Y005178D01*
X040893Y005101D01*
X040740Y005101D01*
X040663Y005178D01*
X040663Y005254D01*
X040740Y005331D01*
X040663Y005408D02*
X040663Y005485D01*
X040740Y005561D01*
X040893Y005561D01*
X040970Y005485D01*
X040970Y005408D01*
X040893Y005331D01*
X041584Y005408D02*
X041584Y005101D01*
X041737Y005101D02*
X041737Y005331D01*
X041814Y005408D01*
X041891Y005331D01*
X041891Y005101D01*
X042044Y005101D02*
X042197Y005101D01*
X042121Y005101D02*
X042121Y005408D01*
X042044Y005408D01*
X042121Y005561D02*
X042121Y005638D01*
X042351Y005561D02*
X042428Y005561D01*
X042428Y005101D01*
X042504Y005101D02*
X042351Y005101D01*
X041737Y005331D02*
X041660Y005408D01*
X041584Y005408D01*
X041584Y006401D02*
X041584Y006708D01*
X041660Y006708D01*
X041737Y006631D01*
X041814Y006708D01*
X041891Y006631D01*
X041891Y006401D01*
X042044Y006401D02*
X042197Y006401D01*
X042121Y006401D02*
X042121Y006708D01*
X042044Y006708D01*
X042121Y006861D02*
X042121Y006938D01*
X042351Y006861D02*
X042428Y006861D01*
X042428Y006401D01*
X042504Y006401D02*
X042351Y006401D01*
X041737Y006401D02*
X041737Y006631D01*
X040970Y006708D02*
X040970Y006785D01*
X040893Y006861D01*
X040740Y006861D01*
X040663Y006785D01*
X040509Y006785D02*
X040433Y006861D01*
X040279Y006861D01*
X040203Y006785D01*
X040203Y006708D01*
X040279Y006631D01*
X040509Y006631D01*
X040509Y006478D02*
X040509Y006785D01*
X040663Y006401D02*
X040970Y006708D01*
X040970Y006401D02*
X040663Y006401D01*
X040509Y006478D02*
X040433Y006401D01*
X040279Y006401D01*
X040203Y006478D01*
X040049Y006478D02*
X040049Y006785D01*
X039972Y006861D01*
X039819Y006861D01*
X039742Y006785D01*
X039742Y006708D01*
X039819Y006631D01*
X040049Y006631D01*
X040049Y006478D02*
X039972Y006401D01*
X039819Y006401D01*
X039742Y006478D01*
X039589Y006478D02*
X039589Y006401D01*
X039512Y006401D01*
X039512Y006478D01*
X039589Y006478D01*
X039359Y006401D02*
X039052Y006401D01*
X039359Y006708D01*
X039359Y006785D01*
X039282Y006861D01*
X039128Y006861D01*
X039052Y006785D01*
X038898Y006861D02*
X038745Y006785D01*
X038591Y006631D01*
X038821Y006631D01*
X038898Y006554D01*
X038898Y006478D01*
X038821Y006401D01*
X038668Y006401D01*
X038591Y006478D01*
X038591Y006631D01*
X037978Y006861D02*
X037671Y006401D01*
X037057Y006401D02*
X037057Y006631D01*
X036980Y006708D01*
X036903Y006631D01*
X036903Y006401D01*
X036750Y006401D02*
X036750Y006708D01*
X036827Y006708D01*
X036903Y006631D01*
X036596Y006631D02*
X036596Y006401D01*
X036443Y006401D02*
X036443Y006631D01*
X036520Y006708D01*
X036596Y006631D01*
X036443Y006631D02*
X036366Y006708D01*
X036290Y006708D01*
X036290Y006401D01*
X036290Y005408D02*
X036366Y005408D01*
X036443Y005331D01*
X036520Y005408D01*
X036596Y005331D01*
X036596Y005101D01*
X036443Y005101D02*
X036443Y005331D01*
X036290Y005408D02*
X036290Y005101D01*
X036750Y005101D02*
X036750Y005408D01*
X036827Y005408D01*
X036903Y005331D01*
X036980Y005408D01*
X037057Y005331D01*
X037057Y005101D01*
X036903Y005101D02*
X036903Y005331D01*
X037671Y005101D02*
X037978Y005561D01*
X041584Y004108D02*
X041584Y003801D01*
X041737Y003801D02*
X041737Y004031D01*
X041814Y004108D01*
X041891Y004031D01*
X041891Y003801D01*
X042044Y003801D02*
X042197Y003801D01*
X042121Y003801D02*
X042121Y004108D01*
X042044Y004108D01*
X042121Y004261D02*
X042121Y004338D01*
X042351Y004261D02*
X042428Y004261D01*
X042428Y003801D01*
X042504Y003801D02*
X042351Y003801D01*
X041737Y004031D02*
X041660Y004108D01*
X041584Y004108D01*
X042121Y003038D02*
X042121Y002961D01*
X042121Y002808D02*
X042121Y002501D01*
X042197Y002501D02*
X042044Y002501D01*
X041891Y002501D02*
X041891Y002731D01*
X041814Y002808D01*
X041737Y002731D01*
X041737Y002501D01*
X041584Y002501D02*
X041584Y002808D01*
X041660Y002808D01*
X041737Y002731D01*
X042044Y002808D02*
X042121Y002808D01*
X042351Y002961D02*
X042428Y002961D01*
X042428Y002501D01*
X042504Y002501D02*
X042351Y002501D01*
X040970Y002578D02*
X040893Y002501D01*
X040740Y002501D01*
X040663Y002578D01*
X040970Y002885D01*
X040970Y002578D01*
X040663Y002578D02*
X040663Y002885D01*
X040740Y002961D01*
X040893Y002961D01*
X040970Y002885D01*
X040509Y002885D02*
X040203Y002578D01*
X040279Y002501D01*
X040433Y002501D01*
X040509Y002578D01*
X040509Y002885D01*
X040433Y002961D01*
X040279Y002961D01*
X040203Y002885D01*
X040203Y002578D01*
X040049Y002578D02*
X039972Y002501D01*
X039819Y002501D01*
X039742Y002578D01*
X040049Y002885D01*
X040049Y002578D01*
X039742Y002578D02*
X039742Y002885D01*
X039819Y002961D01*
X039972Y002961D01*
X040049Y002885D01*
X039589Y002578D02*
X039589Y002501D01*
X039512Y002501D01*
X039512Y002578D01*
X039589Y002578D01*
X039359Y002501D02*
X039052Y002501D01*
X039359Y002808D01*
X039359Y002885D01*
X039282Y002961D01*
X039128Y002961D01*
X039052Y002885D01*
X038898Y002885D02*
X038898Y002808D01*
X038821Y002731D01*
X038898Y002654D01*
X038898Y002578D01*
X038821Y002501D01*
X038668Y002501D01*
X038591Y002578D01*
X038745Y002731D02*
X038821Y002731D01*
X038898Y002885D02*
X038821Y002961D01*
X038668Y002961D01*
X038591Y002885D01*
X037978Y002961D02*
X037671Y002501D01*
X037057Y002501D02*
X037057Y002731D01*
X036980Y002808D01*
X036903Y002731D01*
X036903Y002501D01*
X036750Y002501D02*
X036750Y002808D01*
X036827Y002808D01*
X036903Y002731D01*
X036596Y002731D02*
X036596Y002501D01*
X036443Y002501D02*
X036443Y002731D01*
X036520Y002808D01*
X036596Y002731D01*
X036443Y002731D02*
X036366Y002808D01*
X036290Y002808D01*
X036290Y002501D01*
X035676Y002578D02*
X035676Y002654D01*
X035599Y002731D01*
X035446Y002731D01*
X035369Y002808D01*
X035369Y002885D01*
X035446Y002961D01*
X035599Y002961D01*
X035676Y002885D01*
X035676Y002808D01*
X035599Y002731D01*
X035446Y002731D02*
X035369Y002654D01*
X035369Y002578D01*
X035446Y002501D01*
X035599Y002501D01*
X035676Y002578D01*
X035215Y002501D02*
X034909Y002501D01*
X035215Y002808D01*
X035215Y002885D01*
X035139Y002961D01*
X034985Y002961D01*
X034909Y002885D01*
X034602Y002961D02*
X034602Y002501D01*
X034755Y002501D02*
X034448Y002501D01*
X034295Y002578D02*
X034218Y002501D01*
X034064Y002501D01*
X033988Y002578D01*
X033988Y002654D01*
X034064Y002731D01*
X034218Y002731D01*
X034295Y002654D01*
X034295Y002578D01*
X034218Y002731D02*
X034295Y002808D01*
X034295Y002885D01*
X034218Y002961D01*
X034064Y002961D01*
X033988Y002885D01*
X033988Y002808D01*
X034064Y002731D01*
X033834Y002578D02*
X033834Y002501D01*
X033758Y002501D01*
X033758Y002578D01*
X033834Y002578D01*
X033604Y002578D02*
X033527Y002501D01*
X033374Y002501D01*
X033297Y002578D01*
X033604Y002885D01*
X033604Y002578D01*
X033297Y002578D02*
X033297Y002885D01*
X033374Y002961D01*
X033527Y002961D01*
X033604Y002885D01*
X034448Y002808D02*
X034602Y002961D01*
X034525Y001661D02*
X034678Y001661D01*
X034755Y001585D01*
X034448Y001278D01*
X034525Y001201D01*
X034678Y001201D01*
X034755Y001278D01*
X034755Y001585D01*
X034909Y001585D02*
X034909Y001508D01*
X034985Y001431D01*
X035215Y001431D01*
X035215Y001278D02*
X035215Y001585D01*
X035139Y001661D01*
X034985Y001661D01*
X034909Y001585D01*
X034909Y001278D02*
X034985Y001201D01*
X035139Y001201D01*
X035215Y001278D01*
X035369Y001278D02*
X035446Y001201D01*
X035599Y001201D01*
X035676Y001278D01*
X035676Y001354D01*
X035599Y001431D01*
X035369Y001431D01*
X035369Y001278D01*
X035369Y001431D02*
X035522Y001585D01*
X035676Y001661D01*
X036290Y001508D02*
X036366Y001508D01*
X036443Y001431D01*
X036520Y001508D01*
X036596Y001431D01*
X036596Y001201D01*
X036443Y001201D02*
X036443Y001431D01*
X036290Y001508D02*
X036290Y001201D01*
X036750Y001201D02*
X036750Y001508D01*
X036827Y001508D01*
X036903Y001431D01*
X036980Y001508D01*
X037057Y001431D01*
X037057Y001201D01*
X036903Y001201D02*
X036903Y001431D01*
X037671Y001201D02*
X037978Y001661D01*
X038591Y001585D02*
X038668Y001661D01*
X038821Y001661D01*
X038898Y001585D01*
X038898Y001508D01*
X038591Y001201D01*
X038898Y001201D01*
X039052Y001431D02*
X039359Y001431D01*
X039512Y001278D02*
X039589Y001278D01*
X039589Y001201D01*
X039512Y001201D01*
X039512Y001278D01*
X039742Y001278D02*
X040049Y001585D01*
X040049Y001278D01*
X039972Y001201D01*
X039819Y001201D01*
X039742Y001278D01*
X039742Y001585D01*
X039819Y001661D01*
X039972Y001661D01*
X040049Y001585D01*
X040203Y001585D02*
X040279Y001661D01*
X040433Y001661D01*
X040509Y001585D01*
X040203Y001278D01*
X040279Y001201D01*
X040433Y001201D01*
X040509Y001278D01*
X040509Y001585D01*
X040663Y001585D02*
X040740Y001661D01*
X040893Y001661D01*
X040970Y001585D01*
X040663Y001278D01*
X040740Y001201D01*
X040893Y001201D01*
X040970Y001278D01*
X040970Y001585D01*
X040663Y001585D02*
X040663Y001278D01*
X040203Y001278D02*
X040203Y001585D01*
X039282Y001661D02*
X039282Y001201D01*
X039052Y001431D02*
X039282Y001661D01*
X041584Y001508D02*
X041584Y001201D01*
X041737Y001201D02*
X041737Y001431D01*
X041814Y001508D01*
X041891Y001431D01*
X041891Y001201D01*
X042044Y001201D02*
X042197Y001201D01*
X042121Y001201D02*
X042121Y001508D01*
X042044Y001508D01*
X042121Y001661D02*
X042121Y001738D01*
X042351Y001661D02*
X042428Y001661D01*
X042428Y001201D01*
X042504Y001201D02*
X042351Y001201D01*
X041737Y001431D02*
X041660Y001508D01*
X041584Y001508D01*
X034525Y001661D02*
X034448Y001585D01*
X034448Y001278D01*
X034295Y001278D02*
X034295Y001354D01*
X034218Y001431D01*
X033988Y001431D01*
X033988Y001278D01*
X034064Y001201D01*
X034218Y001201D01*
X034295Y001278D01*
X034141Y001585D02*
X033988Y001431D01*
X034141Y001585D02*
X034295Y001661D01*
X033834Y001278D02*
X033834Y001201D01*
X033758Y001201D01*
X033758Y001278D01*
X033834Y001278D01*
X033604Y001278D02*
X033604Y001585D01*
X033297Y001278D01*
X033374Y001201D01*
X033527Y001201D01*
X033604Y001278D01*
X033604Y001585D02*
X033527Y001661D01*
X033374Y001661D01*
X033297Y001585D01*
X033297Y001278D01*
X036290Y007701D02*
X036290Y008008D01*
X036366Y008008D01*
X036443Y007931D01*
X036520Y008008D01*
X036596Y007931D01*
X036596Y007701D01*
X036443Y007701D02*
X036443Y007931D01*
X036750Y008008D02*
X036750Y007701D01*
X036903Y007701D02*
X036903Y007931D01*
X036980Y008008D01*
X037057Y007931D01*
X037057Y007701D01*
X036903Y007931D02*
X036827Y008008D01*
X036750Y008008D01*
X037671Y007701D02*
X037978Y008161D01*
X038591Y008008D02*
X038745Y008161D01*
X038745Y007701D01*
X038898Y007701D02*
X038591Y007701D01*
X039052Y007701D02*
X039359Y008008D01*
X039359Y008085D01*
X039282Y008161D01*
X039128Y008161D01*
X039052Y008085D01*
X039512Y008161D02*
X039512Y007931D01*
X039665Y008008D01*
X039742Y008008D01*
X039819Y007931D01*
X039819Y007778D01*
X039742Y007701D01*
X039589Y007701D01*
X039512Y007778D01*
X039359Y007701D02*
X039052Y007701D01*
X039972Y007701D02*
X040049Y007701D01*
X040049Y007778D01*
X039972Y007778D01*
X039972Y007701D01*
X040203Y007778D02*
X040279Y007701D01*
X040433Y007701D01*
X040509Y007778D01*
X040509Y008085D01*
X040433Y008161D01*
X040279Y008161D01*
X040203Y008085D01*
X040203Y008008D01*
X040279Y007931D01*
X040509Y007931D01*
X040663Y007854D02*
X040740Y007931D01*
X040893Y007931D01*
X040970Y007854D01*
X040970Y007778D01*
X040893Y007701D01*
X040740Y007701D01*
X040663Y007778D01*
X040663Y007854D01*
X040740Y007931D02*
X040663Y008008D01*
X040663Y008085D01*
X040740Y008161D01*
X040893Y008161D01*
X040970Y008085D01*
X040970Y008008D01*
X040893Y007931D01*
X041123Y007931D02*
X041430Y007931D01*
X041353Y007701D02*
X041353Y008161D01*
X041123Y007931D01*
X042044Y008008D02*
X042044Y007701D01*
X042197Y007701D02*
X042197Y007931D01*
X042274Y008008D01*
X042351Y007931D01*
X042351Y007701D01*
X042504Y007701D02*
X042658Y007701D01*
X042581Y007701D02*
X042581Y008008D01*
X042504Y008008D01*
X042581Y008161D02*
X042581Y008238D01*
X042811Y008161D02*
X042888Y008161D01*
X042888Y007701D01*
X042811Y007701D02*
X042965Y007701D01*
X042197Y007931D02*
X042121Y008008D01*
X042044Y008008D01*
X039819Y008161D02*
X039512Y008161D01*
D13*
X039404Y009961D02*
X039831Y010388D01*
X039831Y010495D01*
X039725Y010602D01*
X039511Y010602D01*
X039404Y010495D01*
X039187Y010602D02*
X038760Y009961D01*
X038542Y010495D02*
X038115Y010068D01*
X038115Y009961D01*
X037898Y009961D02*
X037471Y009961D01*
X037684Y009961D02*
X037684Y010602D01*
X037471Y010388D01*
X037253Y010602D02*
X036826Y009961D01*
X036609Y010068D02*
X036609Y010495D01*
X036502Y010602D01*
X036289Y010602D01*
X036182Y010495D01*
X036182Y010388D01*
X036289Y010281D01*
X036609Y010281D01*
X036609Y010068D02*
X036502Y009961D01*
X036289Y009961D01*
X036182Y010068D01*
X034677Y010068D02*
X034677Y009961D01*
X034571Y009961D01*
X034571Y010068D01*
X034677Y010068D01*
X034677Y010281D02*
X034571Y010281D01*
X034571Y010388D01*
X034677Y010388D01*
X034677Y010281D01*
X034353Y010281D02*
X034246Y010388D01*
X034033Y010388D01*
X033926Y010281D01*
X033926Y010068D01*
X034033Y009961D01*
X034246Y009961D01*
X034353Y010175D02*
X033926Y010175D01*
X033710Y010388D02*
X033496Y010388D01*
X033603Y010495D02*
X033603Y010068D01*
X033710Y009961D01*
X033279Y009961D02*
X033279Y010281D01*
X033172Y010388D01*
X032959Y010388D01*
X032959Y010175D02*
X033279Y010175D01*
X033279Y009961D02*
X032959Y009961D01*
X032852Y010068D01*
X032959Y010175D01*
X032634Y010068D02*
X032634Y010495D01*
X032528Y010602D01*
X032207Y010602D01*
X032207Y009961D01*
X032528Y009961D01*
X032634Y010068D01*
X034353Y010175D02*
X034353Y010281D01*
X034355Y010961D02*
X034355Y011602D01*
X034248Y011602D01*
X033925Y011602D02*
X033925Y010961D01*
X033819Y010961D02*
X034032Y010961D01*
X034248Y010961D02*
X034462Y010961D01*
X033602Y010961D02*
X033389Y010961D01*
X033496Y010961D02*
X033496Y011388D01*
X033389Y011388D01*
X033172Y011388D02*
X033065Y011388D01*
X032852Y011175D01*
X032852Y011388D02*
X032852Y010961D01*
X032634Y011068D02*
X032634Y011495D01*
X032528Y011602D01*
X032207Y011602D01*
X032207Y010961D01*
X032528Y010961D01*
X032634Y011068D01*
X033496Y011602D02*
X033496Y011708D01*
X033819Y011602D02*
X033925Y011602D01*
X035322Y011602D02*
X035429Y011602D01*
X035429Y010961D01*
X035322Y010961D02*
X035536Y010961D01*
X035752Y011068D02*
X035752Y011281D01*
X035859Y011388D01*
X036072Y011388D01*
X036179Y011281D01*
X036179Y011175D01*
X035752Y011175D01*
X035752Y011068D02*
X035859Y010961D01*
X036072Y010961D01*
X036397Y011068D02*
X036503Y010961D01*
X036824Y010961D01*
X036824Y010854D02*
X036824Y011388D01*
X036503Y011388D01*
X036397Y011281D01*
X036397Y011068D01*
X036610Y010748D02*
X036717Y010748D01*
X036824Y010854D01*
X037041Y011068D02*
X037041Y011281D01*
X037148Y011388D01*
X037361Y011388D01*
X037468Y011281D01*
X037468Y011175D01*
X037041Y011175D01*
X037041Y011068D02*
X037148Y010961D01*
X037361Y010961D01*
X037686Y010961D02*
X037686Y011388D01*
X038006Y011388D01*
X038113Y011281D01*
X038113Y010961D01*
X038330Y011068D02*
X038330Y011281D01*
X038437Y011388D01*
X038757Y011388D01*
X038757Y011602D02*
X038757Y010961D01*
X038437Y010961D01*
X038330Y011068D01*
X038542Y010602D02*
X038115Y010602D01*
X038542Y010602D02*
X038542Y010495D01*
X039404Y009961D02*
X039831Y009961D01*
X040049Y010068D02*
X040476Y010495D01*
X040476Y010068D01*
X040369Y009961D01*
X040156Y009961D01*
X040049Y010068D01*
X040049Y010495D01*
X040156Y010602D01*
X040369Y010602D01*
X040476Y010495D01*
X040694Y010388D02*
X040907Y010602D01*
X040907Y009961D01*
X040694Y009961D02*
X041121Y009961D01*
X041338Y009961D02*
X041765Y010388D01*
X041765Y010495D01*
X041658Y010602D01*
X041445Y010602D01*
X041338Y010495D01*
X041338Y009961D02*
X041765Y009961D01*
X042627Y009961D02*
X043054Y009961D01*
X042841Y009961D02*
X042841Y010602D01*
X042627Y010388D01*
X043272Y010495D02*
X043378Y010602D01*
X043592Y010602D01*
X043699Y010495D01*
X043699Y010388D01*
X043272Y009961D01*
X043699Y009961D01*
X043916Y009961D02*
X043916Y010068D01*
X044023Y010068D01*
X044023Y009961D01*
X043916Y009961D01*
X043916Y010281D02*
X043916Y010388D01*
X044023Y010388D01*
X044023Y010281D01*
X043916Y010281D01*
X044238Y010495D02*
X044345Y010602D01*
X044559Y010602D01*
X044665Y010495D01*
X044665Y010388D01*
X044238Y009961D01*
X044665Y009961D01*
X044883Y010068D02*
X044883Y010281D01*
X045203Y010281D01*
X045310Y010175D01*
X045310Y010068D01*
X045203Y009961D01*
X044990Y009961D01*
X044883Y010068D01*
X044883Y010281D02*
X045096Y010495D01*
X045310Y010602D01*
X045527Y010388D02*
X045527Y010281D01*
X045634Y010281D01*
X045634Y010388D01*
X045527Y010388D01*
X045850Y010388D02*
X046063Y010602D01*
X046063Y009961D01*
X045850Y009961D02*
X046277Y009961D01*
X046494Y010068D02*
X046601Y009961D01*
X046814Y009961D01*
X046921Y010068D01*
X046921Y010175D01*
X046814Y010281D01*
X046708Y010281D01*
X046814Y010281D02*
X046921Y010388D01*
X046921Y010495D01*
X046814Y010602D01*
X046601Y010602D01*
X046494Y010495D01*
X047139Y010388D02*
X047459Y010388D01*
X047566Y010281D01*
X047566Y010068D01*
X047459Y009961D01*
X047139Y009961D01*
X047139Y009748D02*
X047139Y010388D01*
X045634Y010068D02*
X045634Y009961D01*
X045527Y009961D01*
X045527Y010068D01*
X045634Y010068D01*
D14*
X030777Y011931D02*
X030777Y000131D01*
X044377Y000131D01*
M02*
