G75*
G70*
%OFA0B0*%
%FSLAX24Y24*%
%IPPOS*%
%LPD*%
%AMOC8*
5,1,8,0,0,1.08239X$1,22.5*
%
%ADD10C,0.1340*%
%ADD11O,0.1280X0.0680*%
%ADD12O,0.0680X0.1280*%
%ADD13R,0.0740X0.0740*%
%ADD14C,0.0740*%
%ADD15OC8,0.0640*%
%ADD16OC8,0.0780*%
%ADD17OC8,0.0600*%
%ADD18O,0.1440X0.0760*%
%ADD19C,0.0911*%
%ADD20C,0.1025*%
%ADD21R,0.0480X0.0480*%
D10*
X002129Y001212D03*
X028379Y001212D03*
X028379Y017712D03*
X002129Y017712D03*
D11*
X012629Y015212D03*
X012629Y014212D03*
X012629Y013212D03*
X012629Y012212D03*
X012629Y011212D03*
X012629Y010212D03*
D12*
X014629Y008962D03*
X015629Y008962D03*
X016629Y008962D03*
X017629Y008962D03*
X018629Y008962D03*
X019629Y008962D03*
X020629Y008962D03*
X020629Y005962D03*
X019629Y005962D03*
X018629Y005962D03*
X017629Y005962D03*
X016629Y005962D03*
X015629Y005962D03*
X014629Y005962D03*
X009629Y010212D03*
X008629Y010212D03*
X007629Y010212D03*
X006629Y010212D03*
X017629Y014462D03*
X018629Y014462D03*
X019629Y014462D03*
X020629Y014462D03*
X021629Y014462D03*
X022629Y014462D03*
X023629Y014462D03*
X024629Y014462D03*
X025629Y014462D03*
X025629Y017462D03*
X024629Y017462D03*
X023629Y017462D03*
X022629Y017462D03*
X021629Y017462D03*
X020629Y017462D03*
X019629Y017462D03*
X018629Y017462D03*
X017629Y017462D03*
X009629Y015212D03*
X008629Y015212D03*
X007629Y015212D03*
X006629Y015212D03*
D13*
X025629Y005212D03*
D14*
X024629Y005212D03*
X023629Y005212D03*
X022629Y005212D03*
X012629Y005212D03*
X011629Y005212D03*
X010629Y005212D03*
X009629Y005212D03*
D15*
X027129Y005462D03*
X028129Y005462D03*
X028129Y007462D03*
X027129Y007462D03*
X027129Y009462D03*
X028129Y009462D03*
X028129Y011462D03*
X027129Y011462D03*
X027129Y013462D03*
X028129Y013462D03*
D16*
X022379Y011712D03*
X021629Y012712D03*
X018379Y011712D03*
X017629Y012712D03*
X019629Y010712D03*
X023629Y010712D03*
X025629Y008712D03*
X021629Y008712D03*
X021629Y006712D03*
X025629Y006712D03*
D17*
X013379Y006462D03*
X013379Y008462D03*
X022629Y013212D03*
X023629Y013212D03*
X026879Y014962D03*
X026879Y016962D03*
D18*
X015029Y011962D03*
X015029Y010962D03*
D19*
X007129Y005212D03*
D20*
X008133Y006216D03*
X006125Y006216D03*
X006125Y004208D03*
X008133Y004208D03*
D21*
X010629Y007466D03*
M02*
