G75*
G70*
%OFA0B0*%
%FSLAX24Y24*%
%IPPOS*%
%LPD*%
%AMOC8*
5,1,8,0,0,1.08239X$1,22.5*
%
%ADD10C,0.0060*%
%ADD11O,0.1280X0.0640*%
%ADD12O,0.0640X0.1280*%
%ADD13O,0.0600X0.1200*%
%ADD14R,0.0660X0.0660*%
%ADD15C,0.0660*%
%ADD16C,0.0831*%
%ADD17C,0.0945*%
%ADD18C,0.0760*%
%ADD19OC8,0.0700*%
%ADD20O,0.0680X0.1360*%
%ADD21C,0.0000*%
%ADD22C,0.0320*%
%ADD23C,0.0240*%
%ADD24R,0.0440X0.0440*%
%ADD25C,0.0160*%
D10*
X006371Y001451D02*
X006798Y001451D01*
X006371Y001878D01*
X006371Y001985D01*
X006478Y002092D01*
X006691Y002092D01*
X006798Y001985D01*
X007229Y002092D02*
X007229Y001451D01*
X007016Y001451D02*
X007443Y001451D01*
X007660Y001451D02*
X007874Y001665D01*
X007767Y001665D02*
X008087Y001665D01*
X008087Y001451D02*
X008087Y002092D01*
X007767Y002092D01*
X007660Y001985D01*
X007660Y001772D01*
X007767Y001665D01*
X007443Y001878D02*
X007229Y002092D01*
X008305Y001878D02*
X008305Y001451D01*
X008305Y001772D02*
X008732Y001772D01*
X008732Y001878D02*
X008732Y001451D01*
X009594Y001451D02*
X009594Y001772D01*
X009700Y001878D01*
X010021Y001878D01*
X010021Y001451D01*
X010238Y001558D02*
X010238Y001772D01*
X010345Y001878D01*
X010559Y001878D01*
X010665Y001772D01*
X010665Y001558D01*
X010559Y001451D01*
X010345Y001451D01*
X010238Y001558D01*
X010883Y001451D02*
X011203Y001451D01*
X011310Y001558D01*
X011310Y001772D01*
X011203Y001878D01*
X010883Y001878D01*
X011527Y001772D02*
X011527Y001665D01*
X011954Y001665D01*
X011954Y001772D02*
X011848Y001878D01*
X011634Y001878D01*
X011527Y001772D01*
X011634Y001451D02*
X011848Y001451D01*
X011954Y001558D01*
X011954Y001772D01*
X012172Y001772D02*
X012172Y001985D01*
X012279Y002092D01*
X012599Y002092D01*
X012599Y001451D01*
X012599Y001665D02*
X012279Y001665D01*
X012172Y001772D01*
X012385Y001665D02*
X012172Y001451D01*
X008732Y001878D02*
X008518Y002092D01*
X008305Y001878D01*
X017817Y001822D02*
X017817Y001501D01*
X018030Y001501D02*
X018030Y001822D01*
X017923Y001928D01*
X017817Y001822D01*
X018030Y001822D02*
X018137Y001928D01*
X018244Y001928D01*
X018244Y001501D01*
X018461Y001608D02*
X018461Y001822D01*
X018568Y001928D01*
X018781Y001928D01*
X018888Y001822D01*
X018888Y001608D01*
X018781Y001501D01*
X018568Y001501D01*
X018461Y001608D01*
X019106Y001501D02*
X019426Y001501D01*
X019533Y001608D01*
X019533Y001822D01*
X019426Y001928D01*
X019106Y001928D01*
X019748Y001608D02*
X019748Y001501D01*
X019855Y001501D01*
X019855Y001608D01*
X019748Y001608D01*
X020073Y001501D02*
X020500Y001928D01*
X020716Y001822D02*
X020929Y001822D01*
X020822Y002035D02*
X020716Y002142D01*
X020822Y002035D02*
X020822Y001501D01*
X020500Y001501D02*
X020073Y001928D01*
X021147Y001928D02*
X021467Y001928D01*
X021574Y001822D01*
X021574Y001608D01*
X021467Y001501D01*
X021147Y001501D01*
X021147Y002142D01*
X021791Y001822D02*
X021791Y001501D01*
X022218Y001501D02*
X022218Y001928D01*
X021898Y001928D01*
X021791Y001822D01*
X022436Y001928D02*
X022436Y001501D01*
X022756Y001501D01*
X022863Y001608D01*
X022863Y001928D01*
X023080Y001822D02*
X023187Y001928D01*
X023401Y001928D01*
X023507Y001822D01*
X023507Y001608D01*
X023401Y001501D01*
X023187Y001501D01*
X023080Y001608D01*
X023080Y001822D01*
X023725Y001928D02*
X024045Y001928D01*
X024152Y001822D01*
X024045Y001715D01*
X023832Y001715D01*
X023725Y001608D01*
X023832Y001501D01*
X024152Y001501D01*
X024369Y001715D02*
X024796Y001715D01*
X024796Y001608D02*
X024796Y001822D01*
X024690Y001928D01*
X024476Y001928D01*
X024369Y001822D01*
X024369Y001715D01*
X024476Y001501D02*
X024690Y001501D01*
X024796Y001608D01*
X025014Y001501D02*
X025014Y001928D01*
X025441Y001928D02*
X025441Y001608D01*
X025334Y001501D01*
X025014Y001501D01*
X025658Y001928D02*
X025764Y001928D01*
X025978Y001715D01*
X025978Y001928D02*
X025978Y001501D01*
X026194Y001501D02*
X026301Y001608D01*
X026301Y002035D01*
X026408Y001928D02*
X026194Y001928D01*
D11*
X012629Y010171D03*
X012629Y011171D03*
X012629Y012171D03*
X012629Y013171D03*
X012629Y014171D03*
X012629Y015171D03*
D12*
X009629Y015171D03*
X008629Y015171D03*
X007629Y015171D03*
X006629Y015171D03*
X006629Y010171D03*
X007629Y010171D03*
X008629Y010171D03*
X009629Y010171D03*
D13*
X014629Y008921D03*
X015629Y008921D03*
X016629Y008921D03*
X017629Y008921D03*
X018629Y008921D03*
X019629Y008921D03*
X020629Y008921D03*
X020629Y005921D03*
X019629Y005921D03*
X018629Y005921D03*
X017629Y005921D03*
X016629Y005921D03*
X015629Y005921D03*
X014629Y005921D03*
X017629Y014421D03*
X018629Y014421D03*
X019629Y014421D03*
X020629Y014421D03*
X021629Y014421D03*
X022629Y014421D03*
X023629Y014421D03*
X024629Y014421D03*
X025629Y014421D03*
X025629Y017421D03*
X024629Y017421D03*
X023629Y017421D03*
X022629Y017421D03*
X021629Y017421D03*
X020629Y017421D03*
X019629Y017421D03*
X018629Y017421D03*
X017629Y017421D03*
D14*
X025629Y005171D03*
D15*
X024629Y005171D03*
X023629Y005171D03*
X022629Y005171D03*
X012629Y005171D03*
X011629Y005171D03*
X010629Y005171D03*
X009629Y005171D03*
D16*
X007129Y005171D03*
D17*
X008133Y006175D03*
X006125Y006175D03*
X006125Y004167D03*
X008133Y004167D03*
D18*
X013129Y006671D03*
X013129Y007671D03*
X022129Y007671D03*
X022129Y006421D03*
X026129Y006421D03*
X026129Y007671D03*
X026129Y008921D03*
X026129Y010171D03*
X026129Y011421D03*
X026129Y012921D03*
X022129Y012921D03*
X022129Y011421D03*
X022129Y010171D03*
X022129Y008921D03*
X015629Y012171D03*
X015629Y016171D03*
X026879Y016421D03*
X026879Y015421D03*
D19*
X027129Y013171D03*
X028129Y013171D03*
X028129Y011171D03*
X027129Y011171D03*
X027129Y009171D03*
X028129Y009171D03*
X028129Y007171D03*
X027129Y007171D03*
X027129Y005171D03*
X028129Y005171D03*
D20*
X015629Y010671D03*
X014629Y010671D03*
D21*
X018629Y017421D02*
X019629Y017421D01*
X020629Y017421D01*
X021629Y017421D01*
X022629Y017421D01*
X023629Y017421D01*
X024629Y017421D01*
X025629Y017421D01*
X024629Y017421D01*
X023629Y017421D01*
X022629Y017421D01*
X021629Y017421D01*
X020629Y017421D01*
X019629Y017421D01*
D22*
X020629Y017421D01*
X021629Y017421D01*
X022629Y017421D01*
X023629Y017421D01*
X024629Y017421D01*
X025629Y017421D01*
X025629Y016421D02*
X015754Y016421D01*
X014879Y016421D01*
X014129Y014671D01*
X014129Y012171D01*
X012629Y012171D01*
X011379Y012171D01*
X011379Y006671D01*
X012629Y005171D01*
X012629Y004171D01*
X014629Y004171D01*
X022129Y004171D01*
X022629Y005171D01*
X024129Y003171D02*
X025629Y005171D01*
X024129Y003171D02*
X010629Y003171D01*
X010629Y004171D01*
X010629Y004167D01*
X008129Y004167D01*
X006129Y004167D01*
X006129Y004171D01*
X006129Y004167D02*
X006125Y004167D01*
X008129Y004167D02*
X008133Y004167D01*
X007129Y005171D02*
X009629Y005171D01*
X010629Y005171D02*
X010629Y006171D01*
X010629Y006175D01*
X008133Y006175D01*
X008129Y006175D01*
X008129Y006171D01*
X008129Y006175D02*
X006125Y006175D01*
X010629Y006171D02*
X010629Y007171D01*
X010629Y015171D01*
X012629Y015171D01*
X013629Y017421D01*
X017629Y017421D01*
X018629Y017421D01*
X019629Y017421D01*
X025629Y016421D02*
X025629Y014421D01*
X026879Y014421D01*
X028129Y014421D01*
X010629Y007675D02*
X010629Y007171D01*
X010629Y005171D02*
X010629Y004171D01*
X010629Y005171D02*
X011629Y005171D01*
D23*
X014629Y005921D02*
X014629Y004171D01*
X014629Y005921D02*
X014629Y006671D01*
X013129Y006671D01*
X013129Y007671D02*
X014629Y007671D01*
X014629Y008921D01*
X014629Y010671D01*
X015629Y010671D02*
X015629Y012171D01*
X015629Y010671D02*
X015629Y008921D01*
X014629Y008921D02*
X014629Y008671D01*
X025629Y005171D02*
X027129Y005171D01*
X028129Y005171D02*
X026879Y006421D01*
X026129Y006421D01*
X027129Y007171D02*
X026629Y007671D01*
X026129Y007671D01*
X028129Y007171D02*
X028129Y009171D01*
X028129Y011171D01*
X028129Y013171D01*
X028129Y014421D01*
X026879Y014421D02*
X026879Y015421D01*
X026879Y016421D02*
X026879Y017421D01*
X025629Y017421D01*
X027129Y013171D02*
X027129Y012671D01*
X026129Y011421D01*
X027129Y011171D02*
X026129Y010171D01*
X027129Y009171D02*
X026879Y008921D01*
X026129Y008921D01*
X015629Y016171D02*
X015629Y016421D01*
X015754Y016421D01*
D24*
X017629Y011421D03*
X018629Y010421D03*
X010629Y007675D03*
D25*
X017129Y008171D02*
X019629Y006921D01*
X019629Y005921D01*
X019629Y005421D01*
X020129Y004921D01*
X021379Y004921D01*
X022129Y006421D01*
X020629Y005921D02*
X020629Y007171D01*
X021129Y007671D01*
X022129Y007671D01*
X023629Y007671D01*
X023629Y012171D01*
X020629Y012171D01*
X020629Y014421D01*
X021629Y014421D02*
X021629Y015421D01*
X024129Y015421D01*
X024129Y013671D01*
X024629Y013171D01*
X024629Y005171D01*
X025629Y005171D02*
X026629Y005171D01*
X022129Y008921D02*
X020629Y008921D01*
X020629Y009671D01*
X019629Y010421D01*
X019629Y014421D01*
X018629Y014421D02*
X018629Y010421D01*
X019629Y009671D01*
X019629Y009171D01*
X019629Y008921D01*
X018629Y008921D02*
X017629Y010421D01*
X017629Y011421D01*
X017629Y014421D01*
X016979Y015171D02*
X017129Y015921D01*
X024629Y015921D01*
X024629Y014421D01*
X016979Y015171D02*
X016979Y010421D01*
X017129Y009421D01*
X017129Y008171D01*
M02*
