%
M48
M72
T01C0.0240
T02C0.0320
T03C0.0400
T04C0.0551
T05C0.0630
T06C0.1260
%
T01
X9629Y5212
X10629Y5212
X11629Y5212
X12629Y5212
X13379Y6462
X10629Y7466
X13379Y8462
X22629Y5212
X23629Y5212
X24629Y5212
X25629Y5212
X27129Y5462
X28129Y5462
X28129Y7462
X27129Y7462
X27129Y9462
X28129Y9462
X28129Y11462
X27129Y11462
X23629Y13212
X22629Y13212
X27129Y13462
X28129Y13462
X26879Y14962
X26879Y16962
T02
X25629Y17462
X24629Y17462
X23629Y17462
X22629Y17462
X21629Y17462
X20629Y17462
X19629Y17462
X18629Y17462
X17629Y17462
X12629Y15212
X12629Y14212
X12629Y13212
X12629Y12212
X12629Y11212
X12629Y10212
X14629Y8962
X15629Y8962
X16629Y8962
X17629Y8962
X18629Y8962
X19629Y8962
X20629Y8962
X21629Y8712
X25629Y8712
X25629Y6712
X21629Y6712
X20629Y5962
X19629Y5962
X18629Y5962
X17629Y5962
X16629Y5962
X15629Y5962
X14629Y5962
X9629Y10212
X8629Y10212
X7629Y10212
X6629Y10212
X17629Y12712
X18379Y11712
X19629Y10712
X22379Y11712
X21629Y12712
X21629Y14462
X20629Y14462
X19629Y14462
X18629Y14462
X17629Y14462
X22629Y14462
X23629Y14462
X24629Y14462
X25629Y14462
X23629Y10712
X9629Y15212
X8629Y15212
X7629Y15212
X6629Y15212
T03
X15029Y11962
X15029Y10962
T04
X7129Y5212
T05
X8133Y6216
X6125Y6216
X6125Y4208
X8133Y4208
T06
X2129Y1212
X28379Y1212
X28379Y17712
X2129Y17712
M30
