%
M48
M72
T01C0.0280
T02C0.0320
T03C0.0360
T04C0.0400
T05C0.0551
T06C0.0630
T07C0.1260
%
T01
X10629Y7675
X18629Y10421
X17629Y11421
X27129Y11171
X28129Y11171
X28129Y9171
X27129Y9171
X27129Y7171
X28129Y7171
X28129Y5171
X27129Y5171
X27129Y13171
X28129Y13171
T02
X25629Y14421
X24629Y14421
X23629Y14421
X22629Y14421
X21629Y14421
X20629Y14421
X19629Y14421
X18629Y14421
X17629Y14421
X17629Y17421
X18629Y17421
X19629Y17421
X20629Y17421
X21629Y17421
X22629Y17421
X23629Y17421
X24629Y17421
X25629Y17421
X26879Y16421
X26879Y15421
X20629Y8921
X19629Y8921
X18629Y8921
X17629Y8921
X16629Y8921
X15629Y8921
X14629Y8921
X13129Y7671
X13129Y6671
X14629Y5921
X15629Y5921
X16629Y5921
X17629Y5921
X18629Y5921
X19629Y5921
X20629Y5921
X22629Y5171
X23629Y5171
X24629Y5171
X25629Y5171
X12629Y5171
X11629Y5171
X10629Y5171
X9629Y5171
T03
X9629Y10171
X8629Y10171
X7629Y10171
X6629Y10171
X12629Y10171
X12629Y11171
X12629Y12171
X12629Y13171
X12629Y14171
X12629Y15171
X9629Y15171
X8629Y15171
X7629Y15171
X6629Y15171
X15629Y16171
X22129Y12921
X22129Y11421
X22129Y10171
X22129Y8921
X22129Y7671
X22129Y6421
X26129Y6421
X26129Y7671
X26129Y8921
X26129Y10171
X26129Y11421
X26129Y12921
X15629Y12171
T04
X15629Y10671
X14629Y10671
T05
X7129Y5171
T06
X8133Y6175
X6125Y6175
X6125Y4167
X8133Y4167
T07
X2129Y1171
X28379Y1171
X28379Y17671
X2129Y17671
M30
