G75*
G70*
%OFA0B0*%
%FSLAX24Y24*%
%IPPOS*%
%LPD*%
%AMOC8*
5,1,8,0,0,1.08239X$1,22.5*
%
%ADD10C,0.0000*%
%ADD11C,0.0030*%
%ADD12C,0.0040*%
%ADD13C,0.0060*%
%ADD14C,0.0050*%
D10*
X001129Y000171D02*
X001129Y018671D01*
X029379Y018671D01*
X029379Y000171D01*
X001129Y000171D01*
X001499Y001171D02*
X001502Y001228D01*
X001509Y001285D01*
X001522Y001341D01*
X001540Y001395D01*
X001563Y001448D01*
X001591Y001498D01*
X001623Y001546D01*
X001659Y001590D01*
X001699Y001631D01*
X001743Y001669D01*
X001789Y001702D01*
X001839Y001730D01*
X001891Y001754D01*
X001945Y001774D01*
X002001Y001788D01*
X002057Y001797D01*
X002115Y001801D01*
X002172Y001800D01*
X002229Y001793D01*
X002285Y001781D01*
X002340Y001765D01*
X002393Y001743D01*
X002444Y001717D01*
X002492Y001686D01*
X002538Y001651D01*
X002580Y001611D01*
X002618Y001569D01*
X002652Y001522D01*
X002682Y001473D01*
X002707Y001422D01*
X002727Y001368D01*
X002743Y001313D01*
X002753Y001257D01*
X002758Y001200D01*
X002758Y001142D01*
X002753Y001085D01*
X002743Y001029D01*
X002727Y000974D01*
X002707Y000920D01*
X002682Y000869D01*
X002652Y000820D01*
X002618Y000773D01*
X002580Y000731D01*
X002538Y000691D01*
X002492Y000656D01*
X002444Y000625D01*
X002393Y000599D01*
X002340Y000577D01*
X002285Y000561D01*
X002229Y000549D01*
X002172Y000542D01*
X002115Y000541D01*
X002057Y000545D01*
X002001Y000554D01*
X001945Y000568D01*
X001891Y000588D01*
X001839Y000612D01*
X001789Y000640D01*
X001743Y000673D01*
X001699Y000711D01*
X001659Y000752D01*
X001623Y000796D01*
X001591Y000844D01*
X001563Y000894D01*
X001540Y000947D01*
X001522Y001001D01*
X001509Y001057D01*
X001502Y001114D01*
X001499Y001171D01*
X027749Y001171D02*
X027752Y001228D01*
X027759Y001285D01*
X027772Y001341D01*
X027790Y001395D01*
X027813Y001448D01*
X027841Y001498D01*
X027873Y001546D01*
X027909Y001590D01*
X027949Y001631D01*
X027993Y001669D01*
X028039Y001702D01*
X028089Y001730D01*
X028141Y001754D01*
X028195Y001774D01*
X028251Y001788D01*
X028307Y001797D01*
X028365Y001801D01*
X028422Y001800D01*
X028479Y001793D01*
X028535Y001781D01*
X028590Y001765D01*
X028643Y001743D01*
X028694Y001717D01*
X028742Y001686D01*
X028788Y001651D01*
X028830Y001611D01*
X028868Y001569D01*
X028902Y001522D01*
X028932Y001473D01*
X028957Y001422D01*
X028977Y001368D01*
X028993Y001313D01*
X029003Y001257D01*
X029008Y001200D01*
X029008Y001142D01*
X029003Y001085D01*
X028993Y001029D01*
X028977Y000974D01*
X028957Y000920D01*
X028932Y000869D01*
X028902Y000820D01*
X028868Y000773D01*
X028830Y000731D01*
X028788Y000691D01*
X028742Y000656D01*
X028694Y000625D01*
X028643Y000599D01*
X028590Y000577D01*
X028535Y000561D01*
X028479Y000549D01*
X028422Y000542D01*
X028365Y000541D01*
X028307Y000545D01*
X028251Y000554D01*
X028195Y000568D01*
X028141Y000588D01*
X028089Y000612D01*
X028039Y000640D01*
X027993Y000673D01*
X027949Y000711D01*
X027909Y000752D01*
X027873Y000796D01*
X027841Y000844D01*
X027813Y000894D01*
X027790Y000947D01*
X027772Y001001D01*
X027759Y001057D01*
X027752Y001114D01*
X027749Y001171D01*
X027749Y017671D02*
X027752Y017728D01*
X027759Y017785D01*
X027772Y017841D01*
X027790Y017895D01*
X027813Y017948D01*
X027841Y017998D01*
X027873Y018046D01*
X027909Y018090D01*
X027949Y018131D01*
X027993Y018169D01*
X028039Y018202D01*
X028089Y018230D01*
X028141Y018254D01*
X028195Y018274D01*
X028251Y018288D01*
X028307Y018297D01*
X028365Y018301D01*
X028422Y018300D01*
X028479Y018293D01*
X028535Y018281D01*
X028590Y018265D01*
X028643Y018243D01*
X028694Y018217D01*
X028742Y018186D01*
X028788Y018151D01*
X028830Y018111D01*
X028868Y018069D01*
X028902Y018022D01*
X028932Y017973D01*
X028957Y017922D01*
X028977Y017868D01*
X028993Y017813D01*
X029003Y017757D01*
X029008Y017700D01*
X029008Y017642D01*
X029003Y017585D01*
X028993Y017529D01*
X028977Y017474D01*
X028957Y017420D01*
X028932Y017369D01*
X028902Y017320D01*
X028868Y017273D01*
X028830Y017231D01*
X028788Y017191D01*
X028742Y017156D01*
X028694Y017125D01*
X028643Y017099D01*
X028590Y017077D01*
X028535Y017061D01*
X028479Y017049D01*
X028422Y017042D01*
X028365Y017041D01*
X028307Y017045D01*
X028251Y017054D01*
X028195Y017068D01*
X028141Y017088D01*
X028089Y017112D01*
X028039Y017140D01*
X027993Y017173D01*
X027949Y017211D01*
X027909Y017252D01*
X027873Y017296D01*
X027841Y017344D01*
X027813Y017394D01*
X027790Y017447D01*
X027772Y017501D01*
X027759Y017557D01*
X027752Y017614D01*
X027749Y017671D01*
X001499Y017671D02*
X001502Y017728D01*
X001509Y017785D01*
X001522Y017841D01*
X001540Y017895D01*
X001563Y017948D01*
X001591Y017998D01*
X001623Y018046D01*
X001659Y018090D01*
X001699Y018131D01*
X001743Y018169D01*
X001789Y018202D01*
X001839Y018230D01*
X001891Y018254D01*
X001945Y018274D01*
X002001Y018288D01*
X002057Y018297D01*
X002115Y018301D01*
X002172Y018300D01*
X002229Y018293D01*
X002285Y018281D01*
X002340Y018265D01*
X002393Y018243D01*
X002444Y018217D01*
X002492Y018186D01*
X002538Y018151D01*
X002580Y018111D01*
X002618Y018069D01*
X002652Y018022D01*
X002682Y017973D01*
X002707Y017922D01*
X002727Y017868D01*
X002743Y017813D01*
X002753Y017757D01*
X002758Y017700D01*
X002758Y017642D01*
X002753Y017585D01*
X002743Y017529D01*
X002727Y017474D01*
X002707Y017420D01*
X002682Y017369D01*
X002652Y017320D01*
X002618Y017273D01*
X002580Y017231D01*
X002538Y017191D01*
X002492Y017156D01*
X002444Y017125D01*
X002393Y017099D01*
X002340Y017077D01*
X002285Y017061D01*
X002229Y017049D01*
X002172Y017042D01*
X002115Y017041D01*
X002057Y017045D01*
X002001Y017054D01*
X001945Y017068D01*
X001891Y017088D01*
X001839Y017112D01*
X001789Y017140D01*
X001743Y017173D01*
X001699Y017211D01*
X001659Y017252D01*
X001623Y017296D01*
X001591Y017344D01*
X001563Y017394D01*
X001540Y017447D01*
X001522Y017501D01*
X001509Y017557D01*
X001502Y017614D01*
X001499Y017671D01*
D11*
X001729Y017671D02*
X002529Y017671D01*
X001929Y017671D02*
X001931Y017699D01*
X001937Y017727D01*
X001947Y017754D01*
X001961Y017779D01*
X001978Y017802D01*
X001998Y017822D01*
X002021Y017839D01*
X002046Y017853D01*
X002073Y017863D01*
X002101Y017869D01*
X002129Y017871D01*
X002157Y017869D01*
X002185Y017863D01*
X002212Y017853D01*
X002237Y017839D01*
X002260Y017822D01*
X002280Y017802D01*
X002297Y017779D01*
X002311Y017754D01*
X002321Y017727D01*
X002327Y017699D01*
X002329Y017671D01*
X002327Y017643D01*
X002321Y017615D01*
X002311Y017588D01*
X002297Y017563D01*
X002280Y017540D01*
X002260Y017520D01*
X002237Y017503D01*
X002212Y017489D01*
X002185Y017479D01*
X002157Y017473D01*
X002129Y017471D01*
X002101Y017473D01*
X002073Y017479D01*
X002046Y017489D01*
X002021Y017503D01*
X001998Y017520D01*
X001978Y017540D01*
X001961Y017563D01*
X001947Y017588D01*
X001937Y017615D01*
X001931Y017643D01*
X001929Y017671D01*
X001729Y017671D02*
X001731Y017711D01*
X001737Y017752D01*
X001747Y017791D01*
X001761Y017829D01*
X001779Y017865D01*
X001801Y017900D01*
X001825Y017932D01*
X001853Y017961D01*
X001884Y017987D01*
X001917Y018010D01*
X001953Y018030D01*
X001990Y018046D01*
X002029Y018058D01*
X002068Y018066D01*
X002109Y018070D01*
X002149Y018070D01*
X002190Y018066D01*
X002229Y018058D01*
X002268Y018046D01*
X002305Y018030D01*
X002341Y018010D01*
X002374Y017987D01*
X002405Y017961D01*
X002433Y017932D01*
X002457Y017900D01*
X002479Y017865D01*
X002497Y017829D01*
X002511Y017791D01*
X002521Y017752D01*
X002527Y017711D01*
X002529Y017671D01*
X002527Y017631D01*
X002521Y017590D01*
X002511Y017551D01*
X002497Y017513D01*
X002479Y017477D01*
X002457Y017442D01*
X002433Y017410D01*
X002405Y017381D01*
X002374Y017355D01*
X002341Y017332D01*
X002305Y017312D01*
X002268Y017296D01*
X002229Y017284D01*
X002190Y017276D01*
X002149Y017272D01*
X002109Y017272D01*
X002068Y017276D01*
X002029Y017284D01*
X001990Y017296D01*
X001953Y017312D01*
X001917Y017332D01*
X001884Y017355D01*
X001853Y017381D01*
X001825Y017410D01*
X001801Y017442D01*
X001779Y017477D01*
X001761Y017513D01*
X001747Y017551D01*
X001737Y017590D01*
X001731Y017631D01*
X001729Y017671D01*
X002129Y018071D02*
X002129Y017271D01*
X006229Y015571D02*
X007029Y014771D01*
X006229Y014771D01*
X007029Y015571D01*
X006229Y015571D01*
X007229Y015571D02*
X008029Y014771D01*
X007229Y014771D01*
X008029Y015571D01*
X007229Y015571D01*
X008229Y015571D02*
X009029Y014771D01*
X008229Y014771D01*
X009029Y015571D01*
X008229Y015571D01*
X009229Y015571D02*
X010029Y014771D01*
X009229Y014771D01*
X010029Y015571D01*
X009229Y015571D01*
X012229Y015571D02*
X013029Y014771D01*
X012229Y014771D01*
X013029Y015571D01*
X012229Y015571D01*
X012229Y014571D02*
X013029Y013771D01*
X012229Y013771D01*
X013029Y014571D01*
X012229Y014571D01*
X012229Y013571D02*
X013029Y012771D01*
X012229Y012771D01*
X013029Y013571D01*
X012229Y013571D01*
X012229Y012571D02*
X013029Y011771D01*
X012229Y011771D01*
X013029Y012571D01*
X012229Y012571D01*
X012229Y011571D02*
X013029Y010771D01*
X012229Y010771D01*
X013029Y011571D01*
X012229Y011571D01*
X012229Y010571D02*
X013029Y009771D01*
X012229Y009771D01*
X013029Y010571D01*
X012229Y010571D01*
X014229Y010671D02*
X014629Y011071D01*
X014629Y010271D01*
X015029Y010671D01*
X014229Y010671D01*
X015229Y010671D02*
X015629Y011071D01*
X015629Y010271D01*
X016029Y010671D01*
X015229Y010671D01*
X017229Y011021D02*
X018029Y011821D01*
X017229Y011821D02*
X018029Y011021D01*
X018229Y010821D02*
X019029Y010021D01*
X018229Y010021D02*
X019029Y010821D01*
X021729Y011021D02*
X022529Y011021D01*
X021729Y011821D01*
X022529Y011821D01*
X021729Y011021D01*
X021729Y010571D02*
X022529Y009771D01*
X021729Y009771D01*
X022529Y010571D01*
X021729Y010571D01*
X021729Y009321D02*
X022529Y008521D01*
X021729Y008521D01*
X022529Y009321D01*
X021729Y009321D01*
X021029Y009321D02*
X020229Y008521D01*
X020029Y008521D02*
X019229Y009321D01*
X019029Y009321D02*
X018229Y008521D01*
X018029Y008521D02*
X017229Y009321D01*
X017029Y009321D02*
X016229Y008521D01*
X016029Y008521D02*
X015229Y009321D01*
X015029Y009321D02*
X014229Y008521D01*
X014629Y008521D02*
X014629Y009321D01*
X014229Y009321D02*
X015029Y008521D01*
X015229Y008521D02*
X016029Y009321D01*
X016229Y009321D02*
X017029Y008521D01*
X017229Y008521D02*
X018029Y009321D01*
X018229Y009321D02*
X019029Y008521D01*
X019229Y008521D02*
X020029Y009321D01*
X020229Y009321D02*
X021029Y008521D01*
X020629Y008521D02*
X020629Y009321D01*
X019629Y009321D02*
X019629Y008521D01*
X018629Y008521D02*
X018629Y009321D01*
X017629Y009321D02*
X017629Y008521D01*
X016629Y008521D02*
X016629Y009321D01*
X015629Y009321D02*
X015629Y008521D01*
X013529Y008071D02*
X012729Y007271D01*
X012729Y007071D02*
X013529Y006271D01*
X013129Y006271D02*
X013129Y007071D01*
X013129Y007271D02*
X013129Y008071D01*
X012729Y008071D02*
X013529Y007271D01*
X013529Y007071D02*
X012729Y006271D01*
X012629Y005571D02*
X012629Y004771D01*
X013029Y004771D02*
X012229Y005571D01*
X012029Y005571D02*
X011229Y004771D01*
X011029Y004771D02*
X010229Y005571D01*
X010029Y005571D02*
X009229Y004771D01*
X009629Y004771D02*
X009629Y005571D01*
X009229Y005571D02*
X010029Y004771D01*
X010229Y004771D02*
X011029Y005571D01*
X011229Y005571D02*
X012029Y004771D01*
X012229Y004771D02*
X013029Y005571D01*
X014229Y005521D02*
X015029Y006321D01*
X015229Y006321D02*
X016029Y005521D01*
X016229Y005521D02*
X017029Y006321D01*
X017229Y006321D02*
X018029Y005521D01*
X018229Y005521D02*
X019029Y006321D01*
X019229Y006321D02*
X020029Y005521D01*
X020229Y005521D02*
X021029Y006321D01*
X020629Y006321D02*
X020629Y005521D01*
X021029Y005521D02*
X020229Y006321D01*
X020029Y006321D02*
X019229Y005521D01*
X019029Y005521D02*
X018229Y006321D01*
X018029Y006321D02*
X017229Y005521D01*
X017029Y005521D02*
X016229Y006321D01*
X016029Y006321D02*
X015229Y005521D01*
X015029Y005521D02*
X014229Y006321D01*
X014629Y006321D02*
X014629Y005521D01*
X015629Y005521D02*
X015629Y006321D01*
X016629Y006321D02*
X016629Y005521D01*
X017629Y005521D02*
X017629Y006321D01*
X018629Y006321D02*
X018629Y005521D01*
X019629Y005521D02*
X019629Y006321D01*
X021729Y006021D02*
X022529Y006021D01*
X021729Y006821D01*
X022529Y006821D01*
X021729Y006021D01*
X022229Y005571D02*
X023029Y004771D01*
X023229Y004771D02*
X024029Y005571D01*
X024229Y005571D02*
X025029Y004771D01*
X025229Y004771D02*
X026029Y005571D01*
X025629Y005571D02*
X025629Y004771D01*
X026029Y004771D02*
X025229Y005571D01*
X025029Y005571D02*
X024229Y004771D01*
X024029Y004771D02*
X023229Y005571D01*
X023029Y005571D02*
X022229Y004771D01*
X022629Y004771D02*
X022629Y005571D01*
X023629Y005571D02*
X023629Y004771D01*
X024629Y004771D02*
X024629Y005571D01*
X025729Y006021D02*
X026529Y006021D01*
X025729Y006821D01*
X026529Y006821D01*
X025729Y006021D01*
X026729Y005571D02*
X027529Y004771D01*
X027729Y004771D02*
X028529Y005571D01*
X027729Y005571D02*
X028529Y004771D01*
X027529Y005571D02*
X026729Y004771D01*
X026729Y006771D02*
X027529Y007571D01*
X027729Y007571D02*
X028529Y006771D01*
X027729Y006771D02*
X028529Y007571D01*
X027529Y006771D02*
X026729Y007571D01*
X026529Y007271D02*
X025729Y007271D01*
X026529Y008071D01*
X025729Y008071D01*
X026529Y007271D01*
X026529Y008521D02*
X025729Y008521D01*
X026529Y009321D01*
X025729Y009321D01*
X026529Y008521D01*
X026729Y008771D02*
X027529Y009571D01*
X027729Y009571D02*
X028529Y008771D01*
X027729Y008771D02*
X028529Y009571D01*
X027529Y008771D02*
X026729Y009571D01*
X026529Y009771D02*
X025729Y009771D01*
X026529Y010571D01*
X025729Y010571D01*
X026529Y009771D01*
X026729Y010771D02*
X027529Y011571D01*
X027729Y011571D02*
X028529Y010771D01*
X027729Y010771D02*
X028529Y011571D01*
X027529Y010771D02*
X026729Y011571D01*
X026529Y011821D02*
X025729Y011821D01*
X026529Y011021D01*
X025729Y011021D01*
X026529Y011821D01*
X026529Y012521D02*
X025729Y012521D01*
X026529Y013321D01*
X025729Y013321D01*
X026529Y012521D01*
X026729Y012771D02*
X027529Y013571D01*
X027729Y013571D02*
X028529Y012771D01*
X027729Y012771D02*
X028529Y013571D01*
X027529Y012771D02*
X026729Y013571D01*
X026029Y014021D02*
X025229Y014821D01*
X025029Y014821D02*
X024229Y014021D01*
X024029Y014021D02*
X023229Y014821D01*
X023029Y014821D02*
X022229Y014021D01*
X022029Y014021D02*
X021229Y014821D01*
X021029Y014821D02*
X020229Y014021D01*
X020029Y014021D02*
X019229Y014821D01*
X019029Y014821D02*
X018229Y014021D01*
X018029Y014021D02*
X017229Y014821D01*
X017629Y014821D02*
X017629Y014021D01*
X017229Y014021D02*
X018029Y014821D01*
X018229Y014821D02*
X019029Y014021D01*
X019229Y014021D02*
X020029Y014821D01*
X020229Y014821D02*
X021029Y014021D01*
X021229Y014021D02*
X022029Y014821D01*
X022229Y014821D02*
X023029Y014021D01*
X023229Y014021D02*
X024029Y014821D01*
X024229Y014821D02*
X025029Y014021D01*
X025229Y014021D02*
X026029Y014821D01*
X025629Y014821D02*
X025629Y014021D01*
X024629Y014021D02*
X024629Y014821D01*
X023629Y014821D02*
X023629Y014021D01*
X022629Y014021D02*
X022629Y014821D01*
X021629Y014821D02*
X021629Y014021D01*
X020629Y014021D02*
X020629Y014821D01*
X019629Y014821D02*
X019629Y014021D01*
X018629Y014021D02*
X018629Y014821D01*
X016029Y015771D02*
X015229Y015771D01*
X016029Y016571D01*
X015229Y016571D01*
X016029Y015771D01*
X017229Y017021D02*
X018029Y017821D01*
X018229Y017821D02*
X019029Y017021D01*
X019229Y017021D02*
X020029Y017821D01*
X020229Y017821D02*
X021029Y017021D01*
X021229Y017021D02*
X022029Y017821D01*
X022229Y017821D02*
X023029Y017021D01*
X023229Y017021D02*
X024029Y017821D01*
X024229Y017821D02*
X025029Y017021D01*
X025229Y017021D02*
X026029Y017821D01*
X025629Y017821D02*
X025629Y017021D01*
X026029Y017021D02*
X025229Y017821D01*
X025029Y017821D02*
X024229Y017021D01*
X024029Y017021D02*
X023229Y017821D01*
X023029Y017821D02*
X022229Y017021D01*
X022029Y017021D02*
X021229Y017821D01*
X021029Y017821D02*
X020229Y017021D01*
X020029Y017021D02*
X019229Y017821D01*
X019029Y017821D02*
X018229Y017021D01*
X018029Y017021D02*
X017229Y017821D01*
X017629Y017821D02*
X017629Y017021D01*
X018629Y017021D02*
X018629Y017821D01*
X019629Y017821D02*
X019629Y017021D01*
X020629Y017021D02*
X020629Y017821D01*
X021629Y017821D02*
X021629Y017021D01*
X022629Y017021D02*
X022629Y017821D01*
X023629Y017821D02*
X023629Y017021D01*
X024629Y017021D02*
X024629Y017821D01*
X026479Y016821D02*
X027279Y016021D01*
X027279Y015821D02*
X026479Y015021D01*
X026879Y015021D02*
X026879Y015821D01*
X026879Y016021D02*
X026879Y016821D01*
X027279Y016821D02*
X026479Y016021D01*
X026479Y015821D02*
X027279Y015021D01*
X022529Y013321D02*
X021729Y013321D01*
X022529Y012521D01*
X021729Y012521D01*
X022529Y013321D01*
X016029Y012571D02*
X015229Y012571D01*
X016029Y011771D01*
X015229Y011771D01*
X016029Y012571D01*
X010029Y010571D02*
X009229Y010571D01*
X010029Y009771D01*
X009229Y009771D01*
X010029Y010571D01*
X009029Y010571D02*
X008229Y010571D01*
X009029Y009771D01*
X008229Y009771D01*
X009029Y010571D01*
X008029Y010571D02*
X007229Y010571D01*
X008029Y009771D01*
X007229Y009771D01*
X008029Y010571D01*
X007029Y010571D02*
X006229Y010571D01*
X007029Y009771D01*
X006229Y009771D01*
X007029Y010571D01*
X010229Y008075D02*
X011029Y007275D01*
X010229Y007275D02*
X011029Y008075D01*
X008133Y006575D02*
X008133Y006175D01*
X007733Y005775D01*
X008533Y005775D01*
X008133Y006175D01*
X007529Y005571D02*
X006729Y004771D01*
X006125Y004567D02*
X006125Y004167D01*
X005725Y003767D01*
X006525Y003767D01*
X006125Y004167D01*
X006729Y005571D02*
X007529Y004771D01*
X008133Y004567D02*
X008133Y004167D01*
X007733Y003767D01*
X008533Y003767D01*
X008133Y004167D01*
X007529Y005171D02*
X006729Y005171D01*
X006525Y005775D02*
X005725Y005775D01*
X006125Y006175D01*
X006525Y005775D01*
X006125Y006175D02*
X006125Y006575D01*
X010629Y005571D02*
X010629Y004771D01*
X011629Y004771D02*
X011629Y005571D01*
X021729Y007271D02*
X022529Y007271D01*
X021729Y008071D01*
X022529Y008071D01*
X021729Y007271D01*
X031418Y007031D02*
X032218Y006231D01*
X032218Y007031D02*
X031418Y006231D01*
X031418Y006631D02*
X032218Y006631D01*
X032218Y007531D02*
X031418Y007531D01*
X031818Y007931D01*
X032218Y007531D01*
X031818Y007931D02*
X031818Y008331D01*
X031818Y008831D02*
X031818Y009631D01*
X031618Y009231D02*
X031620Y009259D01*
X031626Y009287D01*
X031636Y009314D01*
X031650Y009339D01*
X031667Y009362D01*
X031687Y009382D01*
X031710Y009399D01*
X031735Y009413D01*
X031762Y009423D01*
X031790Y009429D01*
X031818Y009431D01*
X031846Y009429D01*
X031874Y009423D01*
X031901Y009413D01*
X031926Y009399D01*
X031949Y009382D01*
X031969Y009362D01*
X031986Y009339D01*
X032000Y009314D01*
X032010Y009287D01*
X032016Y009259D01*
X032018Y009231D01*
X032016Y009203D01*
X032010Y009175D01*
X032000Y009148D01*
X031986Y009123D01*
X031969Y009100D01*
X031949Y009080D01*
X031926Y009063D01*
X031901Y009049D01*
X031874Y009039D01*
X031846Y009033D01*
X031818Y009031D01*
X031790Y009033D01*
X031762Y009039D01*
X031735Y009049D01*
X031710Y009063D01*
X031687Y009080D01*
X031667Y009100D01*
X031650Y009123D01*
X031636Y009148D01*
X031626Y009175D01*
X031620Y009203D01*
X031618Y009231D01*
X031418Y009231D02*
X031420Y009271D01*
X031426Y009312D01*
X031436Y009351D01*
X031450Y009389D01*
X031468Y009425D01*
X031490Y009460D01*
X031514Y009492D01*
X031542Y009521D01*
X031573Y009547D01*
X031606Y009570D01*
X031642Y009590D01*
X031679Y009606D01*
X031718Y009618D01*
X031757Y009626D01*
X031798Y009630D01*
X031838Y009630D01*
X031879Y009626D01*
X031918Y009618D01*
X031957Y009606D01*
X031994Y009590D01*
X032030Y009570D01*
X032063Y009547D01*
X032094Y009521D01*
X032122Y009492D01*
X032146Y009460D01*
X032168Y009425D01*
X032186Y009389D01*
X032200Y009351D01*
X032210Y009312D01*
X032216Y009271D01*
X032218Y009231D01*
X032216Y009191D01*
X032210Y009150D01*
X032200Y009111D01*
X032186Y009073D01*
X032168Y009037D01*
X032146Y009002D01*
X032122Y008970D01*
X032094Y008941D01*
X032063Y008915D01*
X032030Y008892D01*
X031994Y008872D01*
X031957Y008856D01*
X031918Y008844D01*
X031879Y008836D01*
X031838Y008832D01*
X031798Y008832D01*
X031757Y008836D01*
X031718Y008844D01*
X031679Y008856D01*
X031642Y008872D01*
X031606Y008892D01*
X031573Y008915D01*
X031542Y008941D01*
X031514Y008970D01*
X031490Y009002D01*
X031468Y009037D01*
X031450Y009073D01*
X031436Y009111D01*
X031426Y009150D01*
X031420Y009191D01*
X031418Y009231D01*
X032218Y009231D01*
X031818Y005731D02*
X031418Y005331D01*
X032218Y005331D01*
X031818Y004931D01*
X031818Y005731D01*
X032218Y004431D02*
X031418Y004431D01*
X032218Y003631D01*
X031418Y003631D01*
X032218Y004431D01*
X032218Y003131D02*
X031418Y002331D01*
X031818Y002331D02*
X031818Y003131D01*
X031418Y003131D02*
X032218Y002331D01*
X032218Y001831D02*
X031418Y001031D01*
X031418Y001831D02*
X032218Y001031D01*
X028779Y001171D02*
X027979Y001171D01*
X028179Y001171D02*
X028181Y001199D01*
X028187Y001227D01*
X028197Y001254D01*
X028211Y001279D01*
X028228Y001302D01*
X028248Y001322D01*
X028271Y001339D01*
X028296Y001353D01*
X028323Y001363D01*
X028351Y001369D01*
X028379Y001371D01*
X028407Y001369D01*
X028435Y001363D01*
X028462Y001353D01*
X028487Y001339D01*
X028510Y001322D01*
X028530Y001302D01*
X028547Y001279D01*
X028561Y001254D01*
X028571Y001227D01*
X028577Y001199D01*
X028579Y001171D01*
X028577Y001143D01*
X028571Y001115D01*
X028561Y001088D01*
X028547Y001063D01*
X028530Y001040D01*
X028510Y001020D01*
X028487Y001003D01*
X028462Y000989D01*
X028435Y000979D01*
X028407Y000973D01*
X028379Y000971D01*
X028351Y000973D01*
X028323Y000979D01*
X028296Y000989D01*
X028271Y001003D01*
X028248Y001020D01*
X028228Y001040D01*
X028211Y001063D01*
X028197Y001088D01*
X028187Y001115D01*
X028181Y001143D01*
X028179Y001171D01*
X027979Y001171D02*
X027981Y001211D01*
X027987Y001252D01*
X027997Y001291D01*
X028011Y001329D01*
X028029Y001365D01*
X028051Y001400D01*
X028075Y001432D01*
X028103Y001461D01*
X028134Y001487D01*
X028167Y001510D01*
X028203Y001530D01*
X028240Y001546D01*
X028279Y001558D01*
X028318Y001566D01*
X028359Y001570D01*
X028399Y001570D01*
X028440Y001566D01*
X028479Y001558D01*
X028518Y001546D01*
X028555Y001530D01*
X028591Y001510D01*
X028624Y001487D01*
X028655Y001461D01*
X028683Y001432D01*
X028707Y001400D01*
X028729Y001365D01*
X028747Y001329D01*
X028761Y001291D01*
X028771Y001252D01*
X028777Y001211D01*
X028779Y001171D01*
X028777Y001131D01*
X028771Y001090D01*
X028761Y001051D01*
X028747Y001013D01*
X028729Y000977D01*
X028707Y000942D01*
X028683Y000910D01*
X028655Y000881D01*
X028624Y000855D01*
X028591Y000832D01*
X028555Y000812D01*
X028518Y000796D01*
X028479Y000784D01*
X028440Y000776D01*
X028399Y000772D01*
X028359Y000772D01*
X028318Y000776D01*
X028279Y000784D01*
X028240Y000796D01*
X028203Y000812D01*
X028167Y000832D01*
X028134Y000855D01*
X028103Y000881D01*
X028075Y000910D01*
X028051Y000942D01*
X028029Y000977D01*
X028011Y001013D01*
X027997Y001051D01*
X027987Y001090D01*
X027981Y001131D01*
X027979Y001171D01*
X028379Y001571D02*
X028379Y000771D01*
X002529Y001171D02*
X001729Y001171D01*
X001929Y001171D02*
X001931Y001199D01*
X001937Y001227D01*
X001947Y001254D01*
X001961Y001279D01*
X001978Y001302D01*
X001998Y001322D01*
X002021Y001339D01*
X002046Y001353D01*
X002073Y001363D01*
X002101Y001369D01*
X002129Y001371D01*
X002157Y001369D01*
X002185Y001363D01*
X002212Y001353D01*
X002237Y001339D01*
X002260Y001322D01*
X002280Y001302D01*
X002297Y001279D01*
X002311Y001254D01*
X002321Y001227D01*
X002327Y001199D01*
X002329Y001171D01*
X002327Y001143D01*
X002321Y001115D01*
X002311Y001088D01*
X002297Y001063D01*
X002280Y001040D01*
X002260Y001020D01*
X002237Y001003D01*
X002212Y000989D01*
X002185Y000979D01*
X002157Y000973D01*
X002129Y000971D01*
X002101Y000973D01*
X002073Y000979D01*
X002046Y000989D01*
X002021Y001003D01*
X001998Y001020D01*
X001978Y001040D01*
X001961Y001063D01*
X001947Y001088D01*
X001937Y001115D01*
X001931Y001143D01*
X001929Y001171D01*
X001729Y001171D02*
X001731Y001211D01*
X001737Y001252D01*
X001747Y001291D01*
X001761Y001329D01*
X001779Y001365D01*
X001801Y001400D01*
X001825Y001432D01*
X001853Y001461D01*
X001884Y001487D01*
X001917Y001510D01*
X001953Y001530D01*
X001990Y001546D01*
X002029Y001558D01*
X002068Y001566D01*
X002109Y001570D01*
X002149Y001570D01*
X002190Y001566D01*
X002229Y001558D01*
X002268Y001546D01*
X002305Y001530D01*
X002341Y001510D01*
X002374Y001487D01*
X002405Y001461D01*
X002433Y001432D01*
X002457Y001400D01*
X002479Y001365D01*
X002497Y001329D01*
X002511Y001291D01*
X002521Y001252D01*
X002527Y001211D01*
X002529Y001171D01*
X002527Y001131D01*
X002521Y001090D01*
X002511Y001051D01*
X002497Y001013D01*
X002479Y000977D01*
X002457Y000942D01*
X002433Y000910D01*
X002405Y000881D01*
X002374Y000855D01*
X002341Y000832D01*
X002305Y000812D01*
X002268Y000796D01*
X002229Y000784D01*
X002190Y000776D01*
X002149Y000772D01*
X002109Y000772D01*
X002068Y000776D01*
X002029Y000784D01*
X001990Y000796D01*
X001953Y000812D01*
X001917Y000832D01*
X001884Y000855D01*
X001853Y000881D01*
X001825Y000910D01*
X001801Y000942D01*
X001779Y000977D01*
X001761Y001013D01*
X001747Y001051D01*
X001737Y001090D01*
X001731Y001131D01*
X001729Y001171D01*
X002129Y001571D02*
X002129Y000771D01*
X028379Y017271D02*
X028379Y018071D01*
X028179Y017671D02*
X028181Y017699D01*
X028187Y017727D01*
X028197Y017754D01*
X028211Y017779D01*
X028228Y017802D01*
X028248Y017822D01*
X028271Y017839D01*
X028296Y017853D01*
X028323Y017863D01*
X028351Y017869D01*
X028379Y017871D01*
X028407Y017869D01*
X028435Y017863D01*
X028462Y017853D01*
X028487Y017839D01*
X028510Y017822D01*
X028530Y017802D01*
X028547Y017779D01*
X028561Y017754D01*
X028571Y017727D01*
X028577Y017699D01*
X028579Y017671D01*
X028577Y017643D01*
X028571Y017615D01*
X028561Y017588D01*
X028547Y017563D01*
X028530Y017540D01*
X028510Y017520D01*
X028487Y017503D01*
X028462Y017489D01*
X028435Y017479D01*
X028407Y017473D01*
X028379Y017471D01*
X028351Y017473D01*
X028323Y017479D01*
X028296Y017489D01*
X028271Y017503D01*
X028248Y017520D01*
X028228Y017540D01*
X028211Y017563D01*
X028197Y017588D01*
X028187Y017615D01*
X028181Y017643D01*
X028179Y017671D01*
X027979Y017671D02*
X027981Y017711D01*
X027987Y017752D01*
X027997Y017791D01*
X028011Y017829D01*
X028029Y017865D01*
X028051Y017900D01*
X028075Y017932D01*
X028103Y017961D01*
X028134Y017987D01*
X028167Y018010D01*
X028203Y018030D01*
X028240Y018046D01*
X028279Y018058D01*
X028318Y018066D01*
X028359Y018070D01*
X028399Y018070D01*
X028440Y018066D01*
X028479Y018058D01*
X028518Y018046D01*
X028555Y018030D01*
X028591Y018010D01*
X028624Y017987D01*
X028655Y017961D01*
X028683Y017932D01*
X028707Y017900D01*
X028729Y017865D01*
X028747Y017829D01*
X028761Y017791D01*
X028771Y017752D01*
X028777Y017711D01*
X028779Y017671D01*
X028777Y017631D01*
X028771Y017590D01*
X028761Y017551D01*
X028747Y017513D01*
X028729Y017477D01*
X028707Y017442D01*
X028683Y017410D01*
X028655Y017381D01*
X028624Y017355D01*
X028591Y017332D01*
X028555Y017312D01*
X028518Y017296D01*
X028479Y017284D01*
X028440Y017276D01*
X028399Y017272D01*
X028359Y017272D01*
X028318Y017276D01*
X028279Y017284D01*
X028240Y017296D01*
X028203Y017312D01*
X028167Y017332D01*
X028134Y017355D01*
X028103Y017381D01*
X028075Y017410D01*
X028051Y017442D01*
X028029Y017477D01*
X028011Y017513D01*
X027997Y017551D01*
X027987Y017590D01*
X027981Y017631D01*
X027979Y017671D01*
X028779Y017671D01*
D12*
X042621Y009538D02*
X042621Y009461D01*
X042621Y009308D02*
X042621Y009001D01*
X042545Y009001D02*
X042698Y009001D01*
X042852Y009001D02*
X043005Y009001D01*
X042928Y009001D02*
X042928Y009461D01*
X042852Y009461D01*
X042621Y009308D02*
X042545Y009308D01*
X042391Y009231D02*
X042391Y009001D01*
X042238Y009001D02*
X042238Y009231D01*
X042314Y009308D01*
X042391Y009231D01*
X042238Y009231D02*
X042161Y009308D01*
X042084Y009308D01*
X042084Y009001D01*
X041470Y009231D02*
X041164Y009231D01*
X041394Y009461D01*
X041394Y009001D01*
X041010Y009078D02*
X040933Y009001D01*
X040780Y009001D01*
X040703Y009078D01*
X040703Y009154D01*
X040780Y009231D01*
X040933Y009231D01*
X041010Y009154D01*
X041010Y009078D01*
X040933Y009231D02*
X041010Y009308D01*
X041010Y009385D01*
X040933Y009461D01*
X040780Y009461D01*
X040703Y009385D01*
X040703Y009308D01*
X040780Y009231D01*
X040550Y009231D02*
X040320Y009231D01*
X040243Y009308D01*
X040243Y009385D01*
X040320Y009461D01*
X040473Y009461D01*
X040550Y009385D01*
X040550Y009078D01*
X040473Y009001D01*
X040320Y009001D01*
X040243Y009078D01*
X040089Y009078D02*
X040089Y009001D01*
X040013Y009001D01*
X040013Y009078D01*
X040089Y009078D01*
X039859Y009078D02*
X039859Y009231D01*
X039783Y009308D01*
X039706Y009308D01*
X039552Y009231D01*
X039552Y009461D01*
X039859Y009461D01*
X039399Y009385D02*
X039399Y009308D01*
X039092Y009001D01*
X039399Y009001D01*
X039552Y009078D02*
X039629Y009001D01*
X039783Y009001D01*
X039859Y009078D01*
X039399Y009385D02*
X039322Y009461D01*
X039169Y009461D01*
X039092Y009385D01*
X038785Y009461D02*
X038632Y009308D01*
X038785Y009461D02*
X038785Y009001D01*
X038632Y009001D02*
X038939Y009001D01*
X038018Y009461D02*
X037711Y009001D01*
X037097Y009001D02*
X037097Y009231D01*
X037020Y009308D01*
X036944Y009231D01*
X036944Y009001D01*
X036790Y009001D02*
X036790Y009308D01*
X036867Y009308D01*
X036944Y009231D01*
X036637Y009231D02*
X036637Y009001D01*
X036483Y009001D02*
X036483Y009231D01*
X036560Y009308D01*
X036637Y009231D01*
X036483Y009231D02*
X036407Y009308D01*
X036330Y009308D01*
X036330Y009001D01*
X035716Y009078D02*
X035639Y009001D01*
X035486Y009001D01*
X035409Y009078D01*
X035716Y009385D01*
X035716Y009078D01*
X035409Y009078D02*
X035409Y009385D01*
X035486Y009461D01*
X035639Y009461D01*
X035716Y009385D01*
X035256Y009385D02*
X034949Y009078D01*
X035026Y009001D01*
X035179Y009001D01*
X035256Y009078D01*
X035256Y009385D01*
X035179Y009461D01*
X035026Y009461D01*
X034949Y009385D01*
X034949Y009078D01*
X034795Y009078D02*
X034719Y009001D01*
X034565Y009001D01*
X034488Y009078D01*
X034795Y009385D01*
X034795Y009078D01*
X034488Y009078D02*
X034488Y009385D01*
X034565Y009461D01*
X034719Y009461D01*
X034795Y009385D01*
X034335Y009385D02*
X034335Y009308D01*
X034028Y009001D01*
X034335Y009001D01*
X033875Y009001D02*
X033798Y009001D01*
X033798Y009078D01*
X033875Y009078D01*
X033875Y009001D01*
X033644Y009078D02*
X033644Y009154D01*
X033568Y009231D01*
X033491Y009231D01*
X033568Y009231D02*
X033644Y009308D01*
X033644Y009385D01*
X033568Y009461D01*
X033414Y009461D01*
X033338Y009385D01*
X034028Y009385D02*
X034105Y009461D01*
X034258Y009461D01*
X034335Y009385D01*
X033644Y009078D02*
X033568Y009001D01*
X033414Y009001D01*
X033338Y009078D01*
X033491Y008161D02*
X033491Y007701D01*
X033338Y007701D02*
X033644Y007701D01*
X033798Y007701D02*
X033798Y007778D01*
X033875Y007778D01*
X033875Y007701D01*
X033798Y007701D01*
X034028Y007778D02*
X034105Y007701D01*
X034258Y007701D01*
X034335Y007778D01*
X034335Y007854D01*
X034258Y007931D01*
X034028Y007931D01*
X034028Y007778D01*
X034028Y007931D02*
X034182Y008085D01*
X034335Y008161D01*
X034488Y008085D02*
X034565Y008161D01*
X034719Y008161D01*
X034795Y008085D01*
X034488Y007778D01*
X034565Y007701D01*
X034719Y007701D01*
X034795Y007778D01*
X034795Y008085D01*
X034949Y008085D02*
X035026Y008161D01*
X035179Y008161D01*
X035256Y008085D01*
X034949Y007778D01*
X035026Y007701D01*
X035179Y007701D01*
X035256Y007778D01*
X035256Y008085D01*
X035409Y008085D02*
X035486Y008161D01*
X035639Y008161D01*
X035716Y008085D01*
X035409Y007778D01*
X035486Y007701D01*
X035639Y007701D01*
X035716Y007778D01*
X035716Y008085D01*
X035409Y008085D02*
X035409Y007778D01*
X034949Y007778D02*
X034949Y008085D01*
X034488Y008085D02*
X034488Y007778D01*
X033491Y008161D02*
X033338Y008008D01*
X033491Y006861D02*
X033491Y006401D01*
X033338Y006401D02*
X033644Y006401D01*
X033798Y006401D02*
X033875Y006401D01*
X033875Y006478D01*
X033798Y006478D01*
X033798Y006401D01*
X034028Y006631D02*
X034335Y006631D01*
X034488Y006478D02*
X034795Y006785D01*
X034795Y006478D01*
X034719Y006401D01*
X034565Y006401D01*
X034488Y006478D01*
X034488Y006785D01*
X034565Y006861D01*
X034719Y006861D01*
X034795Y006785D01*
X034949Y006785D02*
X035026Y006861D01*
X035179Y006861D01*
X035256Y006785D01*
X034949Y006478D01*
X035026Y006401D01*
X035179Y006401D01*
X035256Y006478D01*
X035256Y006785D01*
X035409Y006785D02*
X035486Y006861D01*
X035639Y006861D01*
X035716Y006785D01*
X035409Y006478D01*
X035486Y006401D01*
X035639Y006401D01*
X035716Y006478D01*
X035716Y006785D01*
X035409Y006785D02*
X035409Y006478D01*
X034949Y006478D02*
X034949Y006785D01*
X034258Y006861D02*
X034028Y006631D01*
X034258Y006401D02*
X034258Y006861D01*
X033491Y006861D02*
X033338Y006708D01*
X033491Y005561D02*
X033491Y005101D01*
X033338Y005101D02*
X033644Y005101D01*
X033798Y005101D02*
X033798Y005178D01*
X033875Y005178D01*
X033875Y005101D01*
X033798Y005101D01*
X034028Y005178D02*
X034105Y005101D01*
X034258Y005101D01*
X034335Y005178D01*
X034335Y005485D01*
X034028Y005178D01*
X034028Y005485D01*
X034105Y005561D01*
X034258Y005561D01*
X034335Y005485D01*
X034488Y005408D02*
X034642Y005561D01*
X034642Y005101D01*
X034795Y005101D02*
X034488Y005101D01*
X034949Y005178D02*
X035026Y005101D01*
X035179Y005101D01*
X035256Y005178D01*
X035256Y005254D01*
X035179Y005331D01*
X034949Y005331D01*
X034949Y005178D01*
X034949Y005331D02*
X035102Y005485D01*
X035256Y005561D01*
X035409Y005485D02*
X035486Y005561D01*
X035639Y005561D01*
X035716Y005485D01*
X035409Y005178D01*
X035486Y005101D01*
X035639Y005101D01*
X035716Y005178D01*
X035716Y005485D01*
X035409Y005485D02*
X035409Y005178D01*
X036330Y005101D02*
X036330Y005408D01*
X036407Y005408D01*
X036483Y005331D01*
X036560Y005408D01*
X036637Y005331D01*
X036637Y005101D01*
X036790Y005101D02*
X036790Y005408D01*
X036867Y005408D01*
X036944Y005331D01*
X037020Y005408D01*
X037097Y005331D01*
X037097Y005101D01*
X036944Y005101D02*
X036944Y005331D01*
X036483Y005331D02*
X036483Y005101D01*
X037711Y005101D02*
X038018Y005561D01*
X038632Y005331D02*
X038939Y005331D01*
X039092Y005178D02*
X039169Y005101D01*
X039322Y005101D01*
X039399Y005178D01*
X039399Y005485D01*
X039092Y005178D01*
X039092Y005485D01*
X039169Y005561D01*
X039322Y005561D01*
X039399Y005485D01*
X039552Y005178D02*
X039629Y005178D01*
X039629Y005101D01*
X039552Y005101D01*
X039552Y005178D01*
X039783Y005178D02*
X040089Y005485D01*
X040089Y005178D01*
X040013Y005101D01*
X039859Y005101D01*
X039783Y005178D01*
X039783Y005485D01*
X039859Y005561D01*
X040013Y005561D01*
X040089Y005485D01*
X040243Y005485D02*
X040320Y005561D01*
X040473Y005561D01*
X040550Y005485D01*
X040243Y005178D01*
X040320Y005101D01*
X040473Y005101D01*
X040550Y005178D01*
X040550Y005485D01*
X040703Y005485D02*
X040780Y005561D01*
X040933Y005561D01*
X041010Y005485D01*
X040703Y005178D01*
X040780Y005101D01*
X040933Y005101D01*
X041010Y005178D01*
X041010Y005485D01*
X040703Y005485D02*
X040703Y005178D01*
X040243Y005178D02*
X040243Y005485D01*
X041624Y005408D02*
X041624Y005101D01*
X041777Y005101D02*
X041777Y005331D01*
X041854Y005408D01*
X041931Y005331D01*
X041931Y005101D01*
X042084Y005101D02*
X042238Y005101D01*
X042161Y005101D02*
X042161Y005408D01*
X042084Y005408D01*
X042161Y005561D02*
X042161Y005638D01*
X042391Y005561D02*
X042468Y005561D01*
X042468Y005101D01*
X042391Y005101D02*
X042545Y005101D01*
X041777Y005331D02*
X041701Y005408D01*
X041624Y005408D01*
X041624Y006401D02*
X041624Y006708D01*
X041701Y006708D01*
X041777Y006631D01*
X041854Y006708D01*
X041931Y006631D01*
X041931Y006401D01*
X042084Y006401D02*
X042238Y006401D01*
X042161Y006401D02*
X042161Y006708D01*
X042084Y006708D01*
X042161Y006861D02*
X042161Y006938D01*
X042391Y006861D02*
X042468Y006861D01*
X042468Y006401D01*
X042391Y006401D02*
X042545Y006401D01*
X041777Y006401D02*
X041777Y006631D01*
X041010Y006554D02*
X041010Y006478D01*
X040933Y006401D01*
X040780Y006401D01*
X040703Y006478D01*
X040703Y006554D01*
X040780Y006631D01*
X040933Y006631D01*
X041010Y006554D01*
X040933Y006631D02*
X041010Y006708D01*
X041010Y006785D01*
X040933Y006861D01*
X040780Y006861D01*
X040703Y006785D01*
X040703Y006708D01*
X040780Y006631D01*
X040550Y006401D02*
X040243Y006401D01*
X040396Y006401D02*
X040396Y006861D01*
X040243Y006708D01*
X039936Y006861D02*
X039936Y006401D01*
X039783Y006401D02*
X040089Y006401D01*
X039783Y006708D02*
X039936Y006861D01*
X039399Y006861D02*
X039092Y006861D01*
X039092Y006631D01*
X039245Y006708D01*
X039322Y006708D01*
X039399Y006631D01*
X039399Y006478D01*
X039322Y006401D01*
X039169Y006401D01*
X039092Y006478D01*
X038939Y006478D02*
X038939Y006631D01*
X038862Y006708D01*
X038785Y006708D01*
X038632Y006631D01*
X038632Y006861D01*
X038939Y006861D01*
X038939Y006478D02*
X038862Y006401D01*
X038708Y006401D01*
X038632Y006478D01*
X038018Y006861D02*
X037711Y006401D01*
X037097Y006401D02*
X037097Y006631D01*
X037020Y006708D01*
X036944Y006631D01*
X036944Y006401D01*
X036790Y006401D02*
X036790Y006708D01*
X036867Y006708D01*
X036944Y006631D01*
X036637Y006631D02*
X036637Y006401D01*
X036483Y006401D02*
X036483Y006631D01*
X036560Y006708D01*
X036637Y006631D01*
X036483Y006631D02*
X036407Y006708D01*
X036330Y006708D01*
X036330Y006401D01*
X038632Y005331D02*
X038862Y005561D01*
X038862Y005101D01*
X038862Y004261D02*
X038939Y004185D01*
X038939Y004108D01*
X038862Y004031D01*
X038939Y003954D01*
X038939Y003878D01*
X038862Y003801D01*
X038708Y003801D01*
X038632Y003878D01*
X038785Y004031D02*
X038862Y004031D01*
X039092Y004031D02*
X039092Y003878D01*
X039169Y003801D01*
X039322Y003801D01*
X039399Y003878D01*
X039399Y003954D01*
X039322Y004031D01*
X039092Y004031D01*
X039245Y004185D01*
X039399Y004261D01*
X039783Y004185D02*
X039859Y004261D01*
X040013Y004261D01*
X040089Y004185D01*
X039783Y003878D01*
X039859Y003801D01*
X040013Y003801D01*
X040089Y003878D01*
X040089Y004185D01*
X040243Y004185D02*
X040320Y004261D01*
X040473Y004261D01*
X040550Y004185D01*
X040243Y003878D01*
X040320Y003801D01*
X040473Y003801D01*
X040550Y003878D01*
X040550Y004185D01*
X040703Y004185D02*
X040780Y004261D01*
X040933Y004261D01*
X041010Y004185D01*
X040703Y003878D01*
X040780Y003801D01*
X040933Y003801D01*
X041010Y003878D01*
X041010Y004185D01*
X040703Y004185D02*
X040703Y003878D01*
X040243Y003878D02*
X040243Y004185D01*
X039783Y004185D02*
X039783Y003878D01*
X039629Y003878D02*
X039629Y003801D01*
X039552Y003801D01*
X039552Y003878D01*
X039629Y003878D01*
X038862Y004261D02*
X038708Y004261D01*
X038632Y004185D01*
X038018Y004261D02*
X037711Y003801D01*
X037097Y003801D02*
X037097Y004031D01*
X037020Y004108D01*
X036944Y004031D01*
X036944Y003801D01*
X036790Y003801D02*
X036790Y004108D01*
X036867Y004108D01*
X036944Y004031D01*
X036637Y004031D02*
X036637Y003801D01*
X036483Y003801D02*
X036483Y004031D01*
X036560Y004108D01*
X036637Y004031D01*
X036483Y004031D02*
X036407Y004108D01*
X036330Y004108D01*
X036330Y003801D01*
X035716Y004031D02*
X035409Y004031D01*
X035639Y004261D01*
X035639Y003801D01*
X035256Y004031D02*
X034949Y004031D01*
X035179Y004261D01*
X035179Y003801D01*
X034795Y003801D02*
X034488Y003801D01*
X034642Y003801D02*
X034642Y004261D01*
X034488Y004108D01*
X034335Y004185D02*
X034335Y003878D01*
X034258Y003801D01*
X034105Y003801D01*
X034028Y003878D01*
X033875Y003878D02*
X033875Y003801D01*
X033798Y003801D01*
X033798Y003878D01*
X033875Y003878D01*
X033644Y003878D02*
X033568Y003801D01*
X033414Y003801D01*
X033338Y003878D01*
X033644Y004185D01*
X033644Y003878D01*
X033338Y003878D02*
X033338Y004185D01*
X033414Y004261D01*
X033568Y004261D01*
X033644Y004185D01*
X034028Y004185D02*
X034028Y004108D01*
X034105Y004031D01*
X034335Y004031D01*
X034335Y004185D02*
X034258Y004261D01*
X034105Y004261D01*
X034028Y004185D01*
X033338Y005408D02*
X033491Y005561D01*
X036330Y007701D02*
X036330Y008008D01*
X036407Y008008D01*
X036483Y007931D01*
X036560Y008008D01*
X036637Y007931D01*
X036637Y007701D01*
X036790Y007701D02*
X036790Y008008D01*
X036867Y008008D01*
X036944Y007931D01*
X037020Y008008D01*
X037097Y007931D01*
X037097Y007701D01*
X036944Y007701D02*
X036944Y007931D01*
X036483Y007931D02*
X036483Y007701D01*
X037711Y007701D02*
X038018Y008161D01*
X038632Y007931D02*
X038862Y007931D01*
X038939Y007854D01*
X038939Y007778D01*
X038862Y007701D01*
X038708Y007701D01*
X038632Y007778D01*
X038632Y007931D01*
X038785Y008085D01*
X038939Y008161D01*
X039092Y008085D02*
X039169Y008161D01*
X039322Y008161D01*
X039399Y008085D01*
X039399Y008008D01*
X039092Y007701D01*
X039399Y007701D01*
X039552Y007701D02*
X039552Y007778D01*
X039629Y007778D01*
X039629Y007701D01*
X039552Y007701D01*
X039783Y007778D02*
X039859Y007701D01*
X040013Y007701D01*
X040089Y007778D01*
X040089Y008085D01*
X040013Y008161D01*
X039859Y008161D01*
X039783Y008085D01*
X039783Y008008D01*
X039859Y007931D01*
X040089Y007931D01*
X040243Y008008D02*
X040320Y007931D01*
X040550Y007931D01*
X040550Y007778D02*
X040550Y008085D01*
X040473Y008161D01*
X040320Y008161D01*
X040243Y008085D01*
X040243Y008008D01*
X040243Y007778D02*
X040320Y007701D01*
X040473Y007701D01*
X040550Y007778D01*
X040703Y007701D02*
X041010Y008008D01*
X041010Y008085D01*
X040933Y008161D01*
X040780Y008161D01*
X040703Y008085D01*
X040703Y007701D02*
X041010Y007701D01*
X041624Y007701D02*
X041624Y008008D01*
X041701Y008008D01*
X041777Y007931D01*
X041854Y008008D01*
X041931Y007931D01*
X041931Y007701D01*
X042084Y007701D02*
X042238Y007701D01*
X042161Y007701D02*
X042161Y008008D01*
X042084Y008008D01*
X042161Y008161D02*
X042161Y008238D01*
X042391Y008161D02*
X042468Y008161D01*
X042468Y007701D01*
X042391Y007701D02*
X042545Y007701D01*
X041777Y007701D02*
X041777Y007931D01*
X039629Y006478D02*
X039629Y006401D01*
X039552Y006401D01*
X039552Y006478D01*
X039629Y006478D01*
X042161Y004338D02*
X042161Y004261D01*
X042161Y004108D02*
X042161Y003801D01*
X042084Y003801D02*
X042238Y003801D01*
X042391Y003801D02*
X042545Y003801D01*
X042468Y003801D02*
X042468Y004261D01*
X042391Y004261D01*
X042161Y004108D02*
X042084Y004108D01*
X041931Y004031D02*
X041931Y003801D01*
X041777Y003801D02*
X041777Y004031D01*
X041854Y004108D01*
X041931Y004031D01*
X041777Y004031D02*
X041701Y004108D01*
X041624Y004108D01*
X041624Y003801D01*
X042161Y003038D02*
X042161Y002961D01*
X042161Y002808D02*
X042161Y002501D01*
X042084Y002501D02*
X042238Y002501D01*
X042391Y002501D02*
X042545Y002501D01*
X042468Y002501D02*
X042468Y002961D01*
X042391Y002961D01*
X042161Y002808D02*
X042084Y002808D01*
X041931Y002731D02*
X041931Y002501D01*
X041777Y002501D02*
X041777Y002731D01*
X041854Y002808D01*
X041931Y002731D01*
X041777Y002731D02*
X041701Y002808D01*
X041624Y002808D01*
X041624Y002501D01*
X041010Y002578D02*
X040933Y002501D01*
X040780Y002501D01*
X040703Y002578D01*
X041010Y002885D01*
X041010Y002578D01*
X040703Y002578D02*
X040703Y002885D01*
X040780Y002961D01*
X040933Y002961D01*
X041010Y002885D01*
X040550Y002885D02*
X040243Y002578D01*
X040320Y002501D01*
X040473Y002501D01*
X040550Y002578D01*
X040550Y002885D01*
X040473Y002961D01*
X040320Y002961D01*
X040243Y002885D01*
X040243Y002578D01*
X040089Y002578D02*
X040013Y002501D01*
X039859Y002501D01*
X039783Y002578D01*
X040089Y002885D01*
X040089Y002578D01*
X039783Y002578D02*
X039783Y002885D01*
X039859Y002961D01*
X040013Y002961D01*
X040089Y002885D01*
X039629Y002578D02*
X039629Y002501D01*
X039552Y002501D01*
X039552Y002578D01*
X039629Y002578D01*
X039399Y002501D02*
X039092Y002501D01*
X039399Y002808D01*
X039399Y002885D01*
X039322Y002961D01*
X039169Y002961D01*
X039092Y002885D01*
X038939Y002885D02*
X038939Y002808D01*
X038862Y002731D01*
X038939Y002654D01*
X038939Y002578D01*
X038862Y002501D01*
X038708Y002501D01*
X038632Y002578D01*
X038785Y002731D02*
X038862Y002731D01*
X038939Y002885D02*
X038862Y002961D01*
X038708Y002961D01*
X038632Y002885D01*
X038018Y002961D02*
X037711Y002501D01*
X037097Y002501D02*
X037097Y002731D01*
X037020Y002808D01*
X036944Y002731D01*
X036944Y002501D01*
X036790Y002501D02*
X036790Y002808D01*
X036867Y002808D01*
X036944Y002731D01*
X036637Y002731D02*
X036637Y002501D01*
X036483Y002501D02*
X036483Y002731D01*
X036560Y002808D01*
X036637Y002731D01*
X036483Y002731D02*
X036407Y002808D01*
X036330Y002808D01*
X036330Y002501D01*
X035716Y002578D02*
X035716Y002654D01*
X035639Y002731D01*
X035486Y002731D01*
X035409Y002808D01*
X035409Y002885D01*
X035486Y002961D01*
X035639Y002961D01*
X035716Y002885D01*
X035716Y002808D01*
X035639Y002731D01*
X035486Y002731D02*
X035409Y002654D01*
X035409Y002578D01*
X035486Y002501D01*
X035639Y002501D01*
X035716Y002578D01*
X035256Y002501D02*
X034949Y002501D01*
X035256Y002808D01*
X035256Y002885D01*
X035179Y002961D01*
X035026Y002961D01*
X034949Y002885D01*
X034642Y002961D02*
X034642Y002501D01*
X034795Y002501D02*
X034488Y002501D01*
X034335Y002578D02*
X034258Y002501D01*
X034105Y002501D01*
X034028Y002578D01*
X034028Y002654D01*
X034105Y002731D01*
X034258Y002731D01*
X034335Y002654D01*
X034335Y002578D01*
X034258Y002731D02*
X034335Y002808D01*
X034335Y002885D01*
X034258Y002961D01*
X034105Y002961D01*
X034028Y002885D01*
X034028Y002808D01*
X034105Y002731D01*
X033875Y002578D02*
X033875Y002501D01*
X033798Y002501D01*
X033798Y002578D01*
X033875Y002578D01*
X033644Y002578D02*
X033568Y002501D01*
X033414Y002501D01*
X033338Y002578D01*
X033644Y002885D01*
X033644Y002578D01*
X033338Y002578D02*
X033338Y002885D01*
X033414Y002961D01*
X033568Y002961D01*
X033644Y002885D01*
X034488Y002808D02*
X034642Y002961D01*
X034642Y001661D02*
X034642Y001201D01*
X034795Y001201D02*
X034488Y001201D01*
X034488Y001508D02*
X034642Y001661D01*
X034335Y001661D02*
X034335Y001585D01*
X034028Y001278D01*
X034028Y001201D01*
X033875Y001201D02*
X033798Y001201D01*
X033798Y001278D01*
X033875Y001278D01*
X033875Y001201D01*
X033644Y001278D02*
X033644Y001585D01*
X033338Y001278D01*
X033414Y001201D01*
X033568Y001201D01*
X033644Y001278D01*
X033338Y001278D02*
X033338Y001585D01*
X033414Y001661D01*
X033568Y001661D01*
X033644Y001585D01*
X034028Y001661D02*
X034335Y001661D01*
X034949Y001508D02*
X035102Y001661D01*
X035102Y001201D01*
X034949Y001201D02*
X035256Y001201D01*
X035409Y001201D02*
X035716Y001508D01*
X035716Y001585D01*
X035639Y001661D01*
X035486Y001661D01*
X035409Y001585D01*
X035409Y001201D02*
X035716Y001201D01*
X036330Y001201D02*
X036330Y001508D01*
X036407Y001508D01*
X036483Y001431D01*
X036560Y001508D01*
X036637Y001431D01*
X036637Y001201D01*
X036790Y001201D02*
X036790Y001508D01*
X036867Y001508D01*
X036944Y001431D01*
X037020Y001508D01*
X037097Y001431D01*
X037097Y001201D01*
X036944Y001201D02*
X036944Y001431D01*
X036483Y001431D02*
X036483Y001201D01*
X037711Y001201D02*
X038018Y001661D01*
X038632Y001585D02*
X038708Y001661D01*
X038862Y001661D01*
X038939Y001585D01*
X038939Y001508D01*
X038632Y001201D01*
X038939Y001201D01*
X039092Y001278D02*
X039092Y001354D01*
X039169Y001431D01*
X039322Y001431D01*
X039399Y001354D01*
X039399Y001278D01*
X039322Y001201D01*
X039169Y001201D01*
X039092Y001278D01*
X039169Y001431D02*
X039092Y001508D01*
X039092Y001585D01*
X039169Y001661D01*
X039322Y001661D01*
X039399Y001585D01*
X039399Y001508D01*
X039322Y001431D01*
X039552Y001278D02*
X039629Y001278D01*
X039629Y001201D01*
X039552Y001201D01*
X039552Y001278D01*
X039783Y001278D02*
X040089Y001585D01*
X040089Y001278D01*
X040013Y001201D01*
X039859Y001201D01*
X039783Y001278D01*
X039783Y001585D01*
X039859Y001661D01*
X040013Y001661D01*
X040089Y001585D01*
X040243Y001585D02*
X040320Y001661D01*
X040473Y001661D01*
X040550Y001585D01*
X040243Y001278D01*
X040320Y001201D01*
X040473Y001201D01*
X040550Y001278D01*
X040550Y001585D01*
X040703Y001585D02*
X040780Y001661D01*
X040933Y001661D01*
X041010Y001585D01*
X040703Y001278D01*
X040780Y001201D01*
X040933Y001201D01*
X041010Y001278D01*
X041010Y001585D01*
X040703Y001585D02*
X040703Y001278D01*
X040243Y001278D02*
X040243Y001585D01*
X041624Y001508D02*
X041624Y001201D01*
X041777Y001201D02*
X041777Y001431D01*
X041854Y001508D01*
X041931Y001431D01*
X041931Y001201D01*
X042084Y001201D02*
X042238Y001201D01*
X042161Y001201D02*
X042161Y001508D01*
X042084Y001508D01*
X042161Y001661D02*
X042161Y001738D01*
X042391Y001661D02*
X042468Y001661D01*
X042468Y001201D01*
X042391Y001201D02*
X042545Y001201D01*
X041777Y001431D02*
X041701Y001508D01*
X041624Y001508D01*
D13*
X041805Y011261D02*
X041378Y011261D01*
X041805Y011688D01*
X041805Y011795D01*
X041699Y011902D01*
X041485Y011902D01*
X041378Y011795D01*
X040947Y011902D02*
X040947Y011261D01*
X040734Y011261D02*
X041161Y011261D01*
X040516Y011368D02*
X040410Y011261D01*
X040196Y011261D01*
X040089Y011368D01*
X040516Y011795D01*
X040516Y011368D01*
X040734Y011688D02*
X040947Y011902D01*
X040516Y011795D02*
X040410Y011902D01*
X040196Y011902D01*
X040089Y011795D01*
X040089Y011368D01*
X039872Y011261D02*
X039445Y011261D01*
X039872Y011688D01*
X039872Y011795D01*
X039765Y011902D01*
X039552Y011902D01*
X039445Y011795D01*
X039227Y011902D02*
X038800Y011261D01*
X038583Y011368D02*
X038476Y011261D01*
X038262Y011261D01*
X038156Y011368D01*
X038583Y011795D01*
X038583Y011368D01*
X038156Y011368D02*
X038156Y011795D01*
X038262Y011902D01*
X038476Y011902D01*
X038583Y011795D01*
X038477Y012261D02*
X038371Y012368D01*
X038371Y012581D01*
X038477Y012688D01*
X038798Y012688D01*
X038798Y012902D02*
X038798Y012261D01*
X038477Y012261D01*
X038153Y012261D02*
X038153Y012581D01*
X038046Y012688D01*
X037726Y012688D01*
X037726Y012261D01*
X037509Y012475D02*
X037082Y012475D01*
X037082Y012581D02*
X037082Y012368D01*
X037188Y012261D01*
X037402Y012261D01*
X037509Y012475D02*
X037509Y012581D01*
X037402Y012688D01*
X037188Y012688D01*
X037082Y012581D01*
X036864Y012688D02*
X036544Y012688D01*
X036437Y012581D01*
X036437Y012368D01*
X036544Y012261D01*
X036864Y012261D01*
X036864Y012154D02*
X036864Y012688D01*
X036219Y012581D02*
X036219Y012475D01*
X035792Y012475D01*
X035792Y012581D02*
X035792Y012368D01*
X035899Y012261D01*
X036113Y012261D01*
X036651Y012048D02*
X036757Y012048D01*
X036864Y012154D01*
X036436Y011902D02*
X036436Y011261D01*
X036649Y011261D02*
X036222Y011261D01*
X036005Y011261D02*
X035578Y011261D01*
X035791Y011261D02*
X035791Y011902D01*
X035578Y011688D01*
X034718Y011688D02*
X034718Y011581D01*
X034611Y011581D01*
X034611Y011688D01*
X034718Y011688D01*
X034718Y011368D02*
X034611Y011368D01*
X034611Y011261D01*
X034718Y011261D01*
X034718Y011368D01*
X034393Y011475D02*
X034393Y011581D01*
X034287Y011688D01*
X034073Y011688D01*
X033966Y011581D01*
X033966Y011368D01*
X034073Y011261D01*
X034287Y011261D01*
X034393Y011475D02*
X033966Y011475D01*
X033750Y011688D02*
X033537Y011688D01*
X033643Y011795D02*
X033643Y011368D01*
X033750Y011261D01*
X033319Y011261D02*
X032999Y011261D01*
X032892Y011368D01*
X032999Y011475D01*
X033319Y011475D01*
X033319Y011581D02*
X033319Y011261D01*
X033319Y011581D02*
X033212Y011688D01*
X032999Y011688D01*
X032675Y011795D02*
X032675Y011368D01*
X032568Y011261D01*
X032248Y011261D01*
X032248Y011902D01*
X032568Y011902D01*
X032675Y011795D01*
X032568Y012261D02*
X032248Y012261D01*
X032248Y012902D01*
X032568Y012902D01*
X032675Y012795D01*
X032675Y012368D01*
X032568Y012261D01*
X032892Y012261D02*
X032892Y012688D01*
X032892Y012475D02*
X033106Y012688D01*
X033212Y012688D01*
X033429Y012688D02*
X033536Y012688D01*
X033536Y012261D01*
X033429Y012261D02*
X033643Y012261D01*
X033859Y012261D02*
X034072Y012261D01*
X033966Y012261D02*
X033966Y012902D01*
X033859Y012902D01*
X033536Y012902D02*
X033536Y013008D01*
X034289Y012902D02*
X034395Y012902D01*
X034395Y012261D01*
X034289Y012261D02*
X034502Y012261D01*
X035363Y012261D02*
X035576Y012261D01*
X035470Y012261D02*
X035470Y012902D01*
X035363Y012902D01*
X035792Y012581D02*
X035899Y012688D01*
X036113Y012688D01*
X036219Y012581D01*
X036436Y011902D02*
X036222Y011688D01*
X036867Y011261D02*
X037294Y011902D01*
X037511Y011795D02*
X037618Y011902D01*
X037831Y011902D01*
X037938Y011795D01*
X037938Y011688D01*
X037511Y011261D01*
X037938Y011261D01*
X042667Y011368D02*
X042774Y011261D01*
X042988Y011261D01*
X043094Y011368D01*
X043094Y011795D01*
X042667Y011368D01*
X042667Y011795D01*
X042774Y011902D01*
X042988Y011902D01*
X043094Y011795D01*
X043312Y011795D02*
X043312Y011688D01*
X043419Y011581D01*
X043739Y011581D01*
X043739Y011368D02*
X043739Y011795D01*
X043632Y011902D01*
X043419Y011902D01*
X043312Y011795D01*
X043312Y011368D02*
X043419Y011261D01*
X043632Y011261D01*
X043739Y011368D01*
X043956Y011368D02*
X043956Y011261D01*
X044063Y011261D01*
X044063Y011368D01*
X043956Y011368D01*
X043956Y011581D02*
X043956Y011688D01*
X044063Y011688D01*
X044063Y011581D01*
X043956Y011581D01*
X044279Y011688D02*
X044492Y011902D01*
X044492Y011261D01*
X044279Y011261D02*
X044706Y011261D01*
X044923Y011261D02*
X045350Y011688D01*
X045350Y011795D01*
X045244Y011902D01*
X045030Y011902D01*
X044923Y011795D01*
X045568Y011688D02*
X045568Y011581D01*
X045675Y011581D01*
X045675Y011688D01*
X045568Y011688D01*
X045568Y011368D02*
X045568Y011261D01*
X045675Y011261D01*
X045675Y011368D01*
X045568Y011368D01*
X045350Y011261D02*
X044923Y011261D01*
X045890Y011261D02*
X046317Y011261D01*
X046104Y011261D02*
X046104Y011902D01*
X045890Y011688D01*
X046535Y011688D02*
X046535Y011795D01*
X046641Y011902D01*
X046855Y011902D01*
X046962Y011795D01*
X046962Y011368D01*
X046855Y011261D01*
X046641Y011261D01*
X046535Y011368D01*
X046641Y011581D02*
X046962Y011581D01*
X047179Y011368D02*
X047286Y011475D01*
X047606Y011475D01*
X047606Y011581D02*
X047606Y011261D01*
X047286Y011261D01*
X047179Y011368D01*
X047286Y011688D02*
X047499Y011688D01*
X047606Y011581D01*
X046641Y011581D02*
X046535Y011688D01*
D14*
X030818Y013231D02*
X030818Y000131D01*
X044418Y000131D01*
M02*
