G75*
G70*
%OFA0B0*%
%FSLAX24Y24*%
%IPPOS*%
%LPD*%
%AMOC8*
5,1,8,0,0,1.08239X$1,22.5*
%
%ADD10O,0.1280X0.0640*%
%ADD11O,0.0640X0.1280*%
%ADD12O,0.0600X0.1200*%
%ADD13R,0.0660X0.0660*%
%ADD14C,0.0660*%
%ADD15C,0.0831*%
%ADD16C,0.0945*%
%ADD17C,0.0760*%
%ADD18OC8,0.0700*%
%ADD19O,0.0680X0.1360*%
%ADD20C,0.0000*%
%ADD21C,0.0320*%
%ADD22C,0.0240*%
%ADD23R,0.0440X0.0440*%
%ADD24C,0.0160*%
D10*
X012629Y010171D03*
X012629Y011171D03*
X012629Y012171D03*
X012629Y013171D03*
X012629Y014171D03*
X012629Y015171D03*
D11*
X009629Y015171D03*
X008629Y015171D03*
X007629Y015171D03*
X006629Y015171D03*
X006629Y010171D03*
X007629Y010171D03*
X008629Y010171D03*
X009629Y010171D03*
D12*
X014629Y008921D03*
X015629Y008921D03*
X016629Y008921D03*
X017629Y008921D03*
X018629Y008921D03*
X019629Y008921D03*
X020629Y008921D03*
X020629Y005921D03*
X019629Y005921D03*
X018629Y005921D03*
X017629Y005921D03*
X016629Y005921D03*
X015629Y005921D03*
X014629Y005921D03*
X017629Y014421D03*
X018629Y014421D03*
X019629Y014421D03*
X020629Y014421D03*
X021629Y014421D03*
X022629Y014421D03*
X023629Y014421D03*
X024629Y014421D03*
X025629Y014421D03*
X025629Y017421D03*
X024629Y017421D03*
X023629Y017421D03*
X022629Y017421D03*
X021629Y017421D03*
X020629Y017421D03*
X019629Y017421D03*
X018629Y017421D03*
X017629Y017421D03*
D13*
X025629Y005171D03*
D14*
X024629Y005171D03*
X023629Y005171D03*
X022629Y005171D03*
X012629Y005171D03*
X011629Y005171D03*
X010629Y005171D03*
X009629Y005171D03*
D15*
X007129Y005171D03*
D16*
X006125Y004167D03*
X008133Y004167D03*
X008133Y006175D03*
X006125Y006175D03*
D17*
X013129Y006671D03*
X013129Y007671D03*
X022129Y007671D03*
X022129Y006421D03*
X026129Y006421D03*
X026129Y007671D03*
X026129Y008921D03*
X026129Y010171D03*
X026129Y011421D03*
X026129Y012921D03*
X022129Y012921D03*
X022129Y011421D03*
X022129Y010171D03*
X022129Y008921D03*
X015629Y012171D03*
X015629Y016171D03*
X026879Y016421D03*
X026879Y015421D03*
D18*
X027129Y013171D03*
X028129Y013171D03*
X028129Y011171D03*
X027129Y011171D03*
X027129Y009171D03*
X028129Y009171D03*
X028129Y007171D03*
X027129Y007171D03*
X027129Y005171D03*
X028129Y005171D03*
D19*
X015629Y010671D03*
X014629Y010671D03*
D20*
X018629Y017421D02*
X019629Y017421D01*
X020629Y017421D01*
X021629Y017421D01*
X022629Y017421D01*
X023629Y017421D01*
X024629Y017421D01*
X025629Y017421D01*
X024629Y017421D01*
X023629Y017421D01*
X022629Y017421D01*
X021629Y017421D01*
X020629Y017421D01*
X019629Y017421D01*
D21*
X020629Y017421D01*
X021629Y017421D01*
X022629Y017421D01*
X023629Y017421D01*
X024629Y017421D01*
X025629Y017421D01*
X025629Y016421D02*
X015754Y016421D01*
X014879Y016421D01*
X014129Y014671D01*
X014129Y012171D01*
X012629Y012171D01*
X011379Y012171D01*
X011379Y006671D01*
X012629Y005171D01*
X012629Y004171D01*
X014629Y004171D01*
X022129Y004171D01*
X022629Y005171D01*
X024129Y003171D02*
X025629Y005171D01*
X024129Y003171D02*
X010629Y003171D01*
X010629Y004171D01*
X010629Y004167D01*
X008129Y004167D01*
X006129Y004167D01*
X006129Y004171D01*
X006129Y004167D02*
X006125Y004167D01*
X008129Y004167D02*
X008133Y004167D01*
X007129Y005171D02*
X009629Y005171D01*
X010629Y005171D02*
X010629Y006171D01*
X010629Y006175D01*
X008133Y006175D01*
X008129Y006175D01*
X008129Y006171D01*
X008129Y006175D02*
X006125Y006175D01*
X010629Y006171D02*
X010629Y007171D01*
X010629Y015171D01*
X012629Y015171D01*
X013629Y017421D01*
X017629Y017421D01*
X018629Y017421D01*
X019629Y017421D01*
X025629Y016421D02*
X025629Y014421D01*
X026879Y014421D01*
X028129Y014421D01*
X010629Y007675D02*
X010629Y007171D01*
X010629Y005171D02*
X010629Y004171D01*
X010629Y005171D02*
X011629Y005171D01*
D22*
X014629Y005921D02*
X014629Y004171D01*
X014629Y005921D02*
X014629Y006671D01*
X013129Y006671D01*
X013129Y007671D02*
X014629Y007671D01*
X014629Y008921D01*
X014629Y010671D01*
X015629Y010671D02*
X015629Y012171D01*
X015629Y010671D02*
X015629Y008921D01*
X014629Y008921D02*
X014629Y008671D01*
X025629Y005171D02*
X027129Y005171D01*
X028129Y005171D02*
X026879Y006421D01*
X026129Y006421D01*
X027129Y007171D02*
X026629Y007671D01*
X026129Y007671D01*
X028129Y007171D02*
X028129Y009171D01*
X028129Y011171D01*
X028129Y013171D01*
X028129Y014421D01*
X026879Y014421D02*
X026879Y015421D01*
X026879Y016421D02*
X026879Y017421D01*
X025629Y017421D01*
X027129Y013171D02*
X027129Y012671D01*
X026129Y011421D01*
X027129Y011171D02*
X026129Y010171D01*
X027129Y009171D02*
X026879Y008921D01*
X026129Y008921D01*
X015629Y016171D02*
X015629Y016421D01*
X015754Y016421D01*
D23*
X017629Y011421D03*
X018629Y010421D03*
X010629Y007675D03*
D24*
X017129Y008171D02*
X019629Y006921D01*
X019629Y005921D01*
X019629Y005421D01*
X020129Y004921D01*
X021379Y004921D01*
X022129Y006421D01*
X020629Y005921D02*
X020629Y007171D01*
X021129Y007671D01*
X022129Y007671D01*
X023629Y007671D01*
X023629Y012171D01*
X020629Y012171D01*
X020629Y014421D01*
X021629Y014421D02*
X021629Y015421D01*
X024129Y015421D01*
X024129Y013671D01*
X024629Y013171D01*
X024629Y005171D01*
X025629Y005171D02*
X026629Y005171D01*
X022129Y008921D02*
X020629Y008921D01*
X020629Y009671D01*
X019629Y010421D01*
X019629Y014421D01*
X018629Y014421D02*
X018629Y010421D01*
X019629Y009671D01*
X019629Y009171D01*
X019629Y008921D01*
X018629Y008921D02*
X017629Y010421D01*
X017629Y011421D01*
X017629Y014421D01*
X016979Y015171D02*
X017129Y015921D01*
X024629Y015921D01*
X024629Y014421D01*
X016979Y015171D02*
X016979Y010421D01*
X017129Y009421D01*
X017129Y008171D01*
M02*
