G75*
G70*
%OFA0B0*%
%FSLAX24Y24*%
%IPPOS*%
%LPD*%
%AMOC8*
5,1,8,0,0,1.08239X$1,22.5*
%
%ADD10C,0.1340*%
%ADD11O,0.1360X0.0720*%
%ADD12O,0.0720X0.1360*%
%ADD13O,0.0680X0.1280*%
%ADD14R,0.0740X0.0740*%
%ADD15C,0.0740*%
%ADD16C,0.0911*%
%ADD17C,0.1025*%
%ADD18C,0.0840*%
%ADD19OC8,0.0780*%
%ADD20O,0.0760X0.1440*%
%ADD21R,0.0520X0.0520*%
D10*
X002129Y001171D03*
X028379Y001171D03*
X028379Y017671D03*
X002129Y017671D03*
D11*
X012629Y015171D03*
X012629Y014171D03*
X012629Y013171D03*
X012629Y012171D03*
X012629Y011171D03*
X012629Y010171D03*
D12*
X009629Y010171D03*
X008629Y010171D03*
X007629Y010171D03*
X006629Y010171D03*
X006629Y015171D03*
X007629Y015171D03*
X008629Y015171D03*
X009629Y015171D03*
D13*
X017629Y014421D03*
X018629Y014421D03*
X019629Y014421D03*
X020629Y014421D03*
X021629Y014421D03*
X022629Y014421D03*
X023629Y014421D03*
X024629Y014421D03*
X025629Y014421D03*
X025629Y017421D03*
X024629Y017421D03*
X023629Y017421D03*
X022629Y017421D03*
X021629Y017421D03*
X020629Y017421D03*
X019629Y017421D03*
X018629Y017421D03*
X017629Y017421D03*
X017629Y008921D03*
X018629Y008921D03*
X019629Y008921D03*
X020629Y008921D03*
X016629Y008921D03*
X015629Y008921D03*
X014629Y008921D03*
X014629Y005921D03*
X015629Y005921D03*
X016629Y005921D03*
X017629Y005921D03*
X018629Y005921D03*
X019629Y005921D03*
X020629Y005921D03*
D14*
X025629Y005171D03*
D15*
X024629Y005171D03*
X023629Y005171D03*
X022629Y005171D03*
X012629Y005171D03*
X011629Y005171D03*
X010629Y005171D03*
X009629Y005171D03*
D16*
X007129Y005171D03*
D17*
X008133Y006175D03*
X006125Y006175D03*
X006125Y004167D03*
X008133Y004167D03*
D18*
X013129Y006671D03*
X013129Y007671D03*
X022129Y007671D03*
X022129Y006421D03*
X026129Y006421D03*
X026129Y007671D03*
X026129Y008921D03*
X026129Y010171D03*
X026129Y011421D03*
X026129Y012921D03*
X022129Y012921D03*
X022129Y011421D03*
X022129Y010171D03*
X022129Y008921D03*
X015629Y012171D03*
X015629Y016171D03*
X026879Y016421D03*
X026879Y015421D03*
D19*
X027129Y013171D03*
X028129Y013171D03*
X028129Y011171D03*
X027129Y011171D03*
X027129Y009171D03*
X028129Y009171D03*
X028129Y007171D03*
X027129Y007171D03*
X027129Y005171D03*
X028129Y005171D03*
D20*
X015629Y010671D03*
X014629Y010671D03*
D21*
X017629Y011421D03*
X018629Y010421D03*
X010629Y007675D03*
M02*
