G75*
G70*
%OFA0B0*%
%FSLAX24Y24*%
%IPPOS*%
%LPD*%
%AMOC8*
5,1,8,0,0,1.08239X$1,22.5*
%
%ADD10C,0.0120*%
%ADD11C,0.0040*%
%ADD12C,0.0060*%
%ADD13C,0.0050*%
%ADD14R,0.1000X0.0200*%
%ADD15C,0.0300*%
%ADD16R,0.0300X0.0750*%
%ADD17R,0.0200X0.1000*%
%ADD18C,0.0010*%
%ADD19R,0.0150X0.0300*%
%ADD20R,0.0300X0.0150*%
%ADD21R,0.0200X0.0200*%
%ADD22R,0.0260X0.0260*%
%ADD23C,0.0000*%
%ADD24C,0.0200*%
%ADD25C,0.0020*%
D10*
X000165Y000191D02*
X000165Y018691D01*
X018665Y018691D01*
X018665Y000191D01*
X000165Y000191D01*
X007865Y006311D02*
X008165Y006311D01*
X008465Y006311D01*
X008465Y006561D02*
X008165Y006561D01*
X007865Y006561D01*
X011035Y015391D02*
X011035Y015691D01*
X011035Y015991D01*
X011285Y015991D02*
X011285Y015691D01*
X011285Y015391D01*
D11*
X014185Y015922D02*
X014492Y015922D01*
X014339Y015922D02*
X014339Y015461D01*
X014646Y015461D02*
X014799Y015615D01*
X014952Y015461D01*
X014952Y015922D01*
X015106Y015845D02*
X015106Y015768D01*
X015183Y015692D01*
X015336Y015692D01*
X015413Y015615D01*
X015413Y015538D01*
X015336Y015461D01*
X015183Y015461D01*
X015106Y015538D01*
X015106Y015845D02*
X015183Y015922D01*
X015336Y015922D01*
X015413Y015845D01*
X015566Y015692D02*
X015873Y015692D01*
X016027Y015692D02*
X016334Y015692D01*
X016487Y015845D02*
X016564Y015922D01*
X016717Y015922D01*
X016794Y015845D01*
X016794Y015768D01*
X016717Y015692D01*
X016794Y015615D01*
X016794Y015538D01*
X016717Y015461D01*
X016564Y015461D01*
X016487Y015538D01*
X016640Y015692D02*
X016717Y015692D01*
X016947Y015692D02*
X017177Y015922D01*
X017177Y015461D01*
X017254Y015692D02*
X016947Y015692D01*
X016257Y015461D02*
X016257Y015922D01*
X016027Y015692D01*
X016029Y016211D02*
X015952Y016288D01*
X016029Y016211D02*
X016183Y016211D01*
X016259Y016288D01*
X016259Y016365D01*
X016183Y016442D01*
X016106Y016442D01*
X016183Y016442D02*
X016259Y016518D01*
X016259Y016595D01*
X016183Y016672D01*
X016029Y016672D01*
X015952Y016595D01*
X015799Y016595D02*
X015722Y016672D01*
X015569Y016672D01*
X015492Y016595D01*
X015492Y016288D01*
X015569Y016211D01*
X015722Y016211D01*
X015799Y016288D01*
X015339Y016211D02*
X015185Y016211D01*
X015262Y016211D02*
X015262Y016672D01*
X015185Y016672D02*
X015339Y016672D01*
X014646Y015922D02*
X014646Y015461D01*
X014923Y010672D02*
X015153Y010672D01*
X015230Y010595D01*
X015230Y010518D01*
X015153Y010442D01*
X014923Y010442D01*
X014923Y010672D02*
X014923Y010211D01*
X015153Y010211D01*
X015230Y010288D01*
X015230Y010365D01*
X015153Y010442D01*
X015383Y010595D02*
X015537Y010442D01*
X015537Y010211D01*
X015537Y010442D02*
X015690Y010595D01*
X015690Y010672D01*
X015844Y010672D02*
X016074Y010672D01*
X016150Y010595D01*
X016150Y010442D01*
X016074Y010365D01*
X015844Y010365D01*
X015844Y010211D02*
X015844Y010672D01*
X016304Y010518D02*
X016457Y010672D01*
X016611Y010518D01*
X016611Y010211D01*
X016764Y010288D02*
X016841Y010211D01*
X016994Y010211D01*
X017071Y010288D01*
X017071Y010365D01*
X016994Y010442D01*
X016841Y010442D01*
X016764Y010518D01*
X016764Y010595D01*
X016841Y010672D01*
X016994Y010672D01*
X017071Y010595D01*
X017225Y010595D02*
X017225Y010518D01*
X017301Y010442D01*
X017455Y010442D01*
X017532Y010365D01*
X017532Y010288D01*
X017455Y010211D01*
X017301Y010211D01*
X017225Y010288D01*
X016611Y010442D02*
X016304Y010442D01*
X016304Y010518D02*
X016304Y010211D01*
X017225Y010595D02*
X017301Y010672D01*
X017455Y010672D01*
X017532Y010595D01*
X015383Y010595D02*
X015383Y010672D01*
X003202Y007845D02*
X003202Y007538D01*
X003126Y007461D01*
X002972Y007461D01*
X002896Y007538D01*
X003202Y007845D01*
X003126Y007922D01*
X002972Y007922D01*
X002896Y007845D01*
X002896Y007538D01*
X002742Y007461D02*
X002435Y007461D01*
X002589Y007461D02*
X002589Y007922D01*
X002435Y007768D01*
X002512Y008461D02*
X002665Y008461D01*
X002742Y008538D01*
X002742Y008845D01*
X002665Y008922D01*
X002512Y008922D01*
X002435Y008845D01*
X002435Y008768D01*
X002512Y008692D01*
X002742Y008692D01*
X002512Y008461D02*
X002435Y008538D01*
X002512Y009461D02*
X002435Y009538D01*
X002435Y009615D01*
X002512Y009692D01*
X002665Y009692D01*
X002742Y009615D01*
X002742Y009538D01*
X002665Y009461D01*
X002512Y009461D01*
X002512Y009692D02*
X002435Y009768D01*
X002435Y009845D01*
X002512Y009922D01*
X002665Y009922D01*
X002742Y009845D01*
X002742Y009768D01*
X002665Y009692D01*
X002435Y010461D02*
X002435Y010538D01*
X002742Y010845D01*
X002742Y010922D01*
X002435Y010922D01*
X002512Y011461D02*
X002665Y011461D01*
X002742Y011538D01*
X002742Y011615D01*
X002665Y011692D01*
X002435Y011692D01*
X002435Y011538D01*
X002512Y011461D01*
X002435Y011692D02*
X002589Y011845D01*
X002742Y011922D01*
X002665Y012461D02*
X002512Y012461D01*
X002435Y012538D01*
X002435Y012692D02*
X002589Y012768D01*
X002665Y012768D01*
X002742Y012692D01*
X002742Y012538D01*
X002665Y012461D01*
X002435Y012692D02*
X002435Y012922D01*
X002742Y012922D01*
X002665Y013461D02*
X002665Y013922D01*
X002435Y013692D01*
X002742Y013692D01*
X002665Y014461D02*
X002512Y014461D01*
X002435Y014538D01*
X002589Y014692D02*
X002665Y014692D01*
X002742Y014615D01*
X002742Y014538D01*
X002665Y014461D01*
X002665Y014692D02*
X002742Y014768D01*
X002742Y014845D01*
X002665Y014922D01*
X002512Y014922D01*
X002435Y014845D01*
X002435Y015461D02*
X002742Y015768D01*
X002742Y015845D01*
X002665Y015922D01*
X002512Y015922D01*
X002435Y015845D01*
X002435Y015461D02*
X002742Y015461D01*
X002742Y016461D02*
X002435Y016461D01*
X002589Y016461D02*
X002589Y016922D01*
X002435Y016768D01*
X002589Y006922D02*
X002589Y006461D01*
X002742Y006461D02*
X002435Y006461D01*
X002896Y006461D02*
X003202Y006461D01*
X003049Y006461D02*
X003049Y006922D01*
X002896Y006768D01*
X002589Y006922D02*
X002435Y006768D01*
X002589Y005922D02*
X002589Y005461D01*
X002742Y005461D02*
X002435Y005461D01*
X002896Y005461D02*
X003202Y005768D01*
X003202Y005845D01*
X003126Y005922D01*
X002972Y005922D01*
X002896Y005845D01*
X002589Y005922D02*
X002435Y005768D01*
X002896Y005461D02*
X003202Y005461D01*
X003126Y004922D02*
X002972Y004922D01*
X002896Y004845D01*
X003049Y004692D02*
X003126Y004692D01*
X003202Y004615D01*
X003202Y004538D01*
X003126Y004461D01*
X002972Y004461D01*
X002896Y004538D01*
X002742Y004461D02*
X002435Y004461D01*
X002589Y004461D02*
X002589Y004922D01*
X002435Y004768D01*
X003126Y004692D02*
X003202Y004768D01*
X003202Y004845D01*
X003126Y004922D01*
X003126Y003922D02*
X002896Y003692D01*
X003202Y003692D01*
X003126Y003922D02*
X003126Y003461D01*
X002742Y003461D02*
X002435Y003461D01*
X002589Y003461D02*
X002589Y003922D01*
X002435Y003768D01*
X002589Y002922D02*
X002589Y002461D01*
X002742Y002461D02*
X002435Y002461D01*
X002896Y002538D02*
X002972Y002461D01*
X003126Y002461D01*
X003202Y002538D01*
X003202Y002692D01*
X003126Y002768D01*
X003049Y002768D01*
X002896Y002692D01*
X002896Y002922D01*
X003202Y002922D01*
X002589Y002922D02*
X002435Y002768D01*
X002589Y001922D02*
X002589Y001461D01*
X002742Y001461D02*
X002435Y001461D01*
X002896Y001538D02*
X002972Y001461D01*
X003126Y001461D01*
X003202Y001538D01*
X003202Y001615D01*
X003126Y001692D01*
X002896Y001692D01*
X002896Y001538D01*
X002896Y001692D02*
X003049Y001845D01*
X003202Y001922D01*
X002589Y001922D02*
X002435Y001768D01*
X003873Y001748D02*
X003873Y001401D01*
X003873Y001662D02*
X004220Y001662D01*
X004220Y001748D02*
X004220Y001401D01*
X004562Y001401D02*
X004562Y001922D01*
X004735Y001922D02*
X004388Y001922D01*
X004220Y001748D02*
X004046Y001922D01*
X003873Y001748D01*
X004904Y001748D02*
X005077Y001922D01*
X005077Y001401D01*
X004904Y001401D02*
X005251Y001401D01*
X005420Y001401D02*
X005766Y001748D01*
X005766Y001835D01*
X005680Y001922D01*
X005506Y001922D01*
X005420Y001835D01*
X005420Y001401D02*
X005766Y001401D01*
X009185Y002538D02*
X009262Y002461D01*
X009415Y002461D01*
X009492Y002538D01*
X009492Y002692D01*
X009339Y002692D01*
X009492Y002845D02*
X009415Y002922D01*
X009262Y002922D01*
X009185Y002845D01*
X009185Y002538D01*
X009646Y002461D02*
X009646Y002922D01*
X009952Y002461D01*
X009952Y002922D01*
X010106Y002922D02*
X010336Y002922D01*
X010413Y002845D01*
X010413Y002538D01*
X010336Y002461D01*
X010106Y002461D01*
X010106Y002922D01*
X015685Y001172D02*
X015685Y000711D01*
X015685Y000865D02*
X015915Y000865D01*
X015992Y000942D01*
X015992Y001095D01*
X015915Y001172D01*
X015685Y001172D01*
X016146Y001172D02*
X016146Y000711D01*
X016299Y000865D01*
X016452Y000711D01*
X016452Y001172D01*
X016606Y001172D02*
X016836Y001172D01*
X016913Y001095D01*
X016913Y000942D01*
X016836Y000865D01*
X016606Y000865D01*
X016759Y000865D02*
X016913Y000711D01*
X016606Y000711D02*
X016606Y001172D01*
D12*
X015872Y001542D02*
X015445Y001542D01*
X015165Y001441D02*
X014915Y001191D01*
X014415Y001191D01*
X014165Y001441D01*
X013915Y001191D01*
X013415Y001191D01*
X013165Y001441D01*
X013165Y001941D01*
X013415Y002191D01*
X013915Y002191D01*
X014165Y001941D01*
X014415Y002191D01*
X014915Y002191D01*
X015165Y001941D01*
X015165Y001441D01*
X015659Y001328D02*
X015659Y001755D01*
X014165Y001941D02*
X014165Y001441D01*
X011165Y001441D02*
X010915Y001191D01*
X010415Y001191D01*
X010165Y001441D01*
X009915Y001191D01*
X009415Y001191D01*
X009165Y001441D01*
X008915Y001191D01*
X008415Y001191D01*
X008165Y001441D01*
X007915Y001191D01*
X007415Y001191D01*
X007165Y001441D01*
X007165Y001941D01*
X007415Y002191D01*
X007915Y002191D01*
X008165Y001941D01*
X008415Y002191D01*
X008915Y002191D01*
X009165Y001941D01*
X009165Y001441D01*
X009165Y001941D02*
X009415Y002191D01*
X009915Y002191D01*
X010165Y001941D01*
X010415Y002191D01*
X010915Y002191D01*
X011165Y001941D01*
X011165Y001441D01*
X010165Y001441D02*
X010165Y001941D01*
X008165Y001941D02*
X008165Y001441D01*
X006315Y003191D02*
X004015Y003191D01*
X004015Y017191D01*
X004765Y017191D01*
X004767Y017152D01*
X004773Y017113D01*
X004782Y017075D01*
X004795Y017038D01*
X004812Y017002D01*
X004832Y016969D01*
X004856Y016937D01*
X004882Y016908D01*
X004911Y016882D01*
X004943Y016858D01*
X004976Y016838D01*
X005012Y016821D01*
X005049Y016808D01*
X005087Y016799D01*
X005126Y016793D01*
X005165Y016791D01*
X005204Y016793D01*
X005243Y016799D01*
X005281Y016808D01*
X005318Y016821D01*
X005354Y016838D01*
X005387Y016858D01*
X005419Y016882D01*
X005448Y016908D01*
X005474Y016937D01*
X005498Y016969D01*
X005518Y017002D01*
X005535Y017038D01*
X005548Y017075D01*
X005557Y017113D01*
X005563Y017152D01*
X005565Y017191D01*
X006315Y017191D01*
X006315Y003191D01*
X002165Y002941D02*
X002165Y002441D01*
X001915Y002191D01*
X002165Y001941D01*
X002165Y001441D01*
X001915Y001191D01*
X001415Y001191D01*
X001165Y001441D01*
X001165Y001941D01*
X001415Y002191D01*
X001165Y002441D01*
X001165Y002941D01*
X001415Y003191D01*
X001165Y003441D01*
X001165Y003941D01*
X001415Y004191D01*
X001165Y004441D01*
X001165Y004941D01*
X001415Y005191D01*
X001165Y005441D01*
X001165Y005941D01*
X001415Y006191D01*
X001165Y006441D01*
X001165Y006941D01*
X001415Y007191D01*
X001165Y007441D01*
X001165Y007941D01*
X001415Y008191D01*
X001165Y008441D01*
X001165Y008941D01*
X001415Y009191D01*
X001165Y009441D01*
X001165Y009941D01*
X001415Y010191D01*
X001165Y010441D01*
X001165Y010941D01*
X001415Y011191D01*
X001165Y011441D01*
X001165Y011941D01*
X001415Y012191D01*
X001165Y012441D01*
X001165Y012941D01*
X001415Y013191D01*
X001165Y013441D01*
X001165Y013941D01*
X001415Y014191D01*
X001165Y014441D01*
X001165Y014941D01*
X001415Y015191D01*
X001165Y015441D01*
X001165Y015941D01*
X001415Y016191D01*
X001165Y016441D01*
X001165Y016941D01*
X001415Y017191D01*
X001915Y017191D01*
X002165Y016941D01*
X002165Y016441D01*
X001915Y016191D01*
X002165Y015941D01*
X002165Y015441D01*
X001915Y015191D01*
X001415Y015191D01*
X001915Y015191D02*
X002165Y014941D01*
X002165Y014441D01*
X001915Y014191D01*
X002165Y013941D01*
X002165Y013441D01*
X001915Y013191D01*
X002165Y012941D01*
X002165Y012441D01*
X001915Y012191D01*
X001415Y012191D01*
X001915Y012191D02*
X002165Y011941D01*
X002165Y011441D01*
X001915Y011191D01*
X002165Y010941D01*
X002165Y010441D01*
X001915Y010191D01*
X002165Y009941D01*
X002165Y009441D01*
X001915Y009191D01*
X001415Y009191D01*
X001915Y009191D02*
X002165Y008941D01*
X002165Y008441D01*
X001915Y008191D01*
X002165Y007941D01*
X002165Y007441D01*
X001915Y007191D01*
X002165Y006941D01*
X002165Y006441D01*
X001915Y006191D01*
X001415Y006191D01*
X001915Y006191D02*
X002165Y005941D01*
X002165Y005441D01*
X001915Y005191D01*
X002165Y004941D01*
X002165Y004441D01*
X001915Y004191D01*
X002165Y003941D01*
X002165Y003441D01*
X001915Y003191D01*
X001415Y003191D01*
X001915Y003191D02*
X002165Y002941D01*
X001915Y002191D02*
X001415Y002191D01*
X001415Y004191D02*
X001915Y004191D01*
X001915Y005191D02*
X001415Y005191D01*
X001415Y007191D02*
X001915Y007191D01*
X001915Y008191D02*
X001415Y008191D01*
X001415Y010191D02*
X001915Y010191D01*
X001915Y011191D02*
X001415Y011191D01*
X001415Y013191D02*
X001915Y013191D01*
X001915Y014191D02*
X001415Y014191D01*
X001415Y016191D02*
X001915Y016191D01*
X007415Y016441D02*
X007415Y016941D01*
X007665Y017191D01*
X008165Y017191D01*
X008415Y016941D01*
X008665Y017191D01*
X009165Y017191D01*
X009415Y016941D01*
X009415Y016441D01*
X009165Y016191D01*
X008665Y016191D01*
X008415Y016441D01*
X008165Y016191D01*
X007665Y016191D01*
X007415Y016441D01*
X008415Y016441D02*
X008415Y016941D01*
X010315Y015941D02*
X010315Y015441D01*
X010515Y015241D02*
X011815Y015241D01*
X012015Y015441D02*
X012015Y015941D01*
X011815Y016141D02*
X010515Y016141D01*
X010665Y015691D02*
X011035Y015691D01*
X011285Y015691D02*
X011665Y015691D01*
X011565Y014691D02*
X012315Y014691D01*
X012315Y005691D01*
X010015Y005691D01*
X010015Y014691D01*
X010765Y014691D01*
X010767Y014652D01*
X010773Y014613D01*
X010782Y014575D01*
X010795Y014538D01*
X010812Y014502D01*
X010832Y014469D01*
X010856Y014437D01*
X010882Y014408D01*
X010911Y014382D01*
X010943Y014358D01*
X010976Y014338D01*
X011012Y014321D01*
X011049Y014308D01*
X011087Y014299D01*
X011126Y014293D01*
X011165Y014291D01*
X011204Y014293D01*
X011243Y014299D01*
X011281Y014308D01*
X011318Y014321D01*
X011354Y014338D01*
X011387Y014358D01*
X011419Y014382D01*
X011448Y014408D01*
X011474Y014437D01*
X011498Y014469D01*
X011518Y014502D01*
X011535Y014538D01*
X011548Y014575D01*
X011557Y014613D01*
X011563Y014652D01*
X011565Y014691D01*
X009415Y014691D02*
X009165Y014441D01*
X008665Y014441D01*
X008415Y014691D01*
X008165Y014441D01*
X007665Y014441D01*
X007415Y014691D01*
X007415Y015191D01*
X007665Y015441D01*
X008165Y015441D01*
X008415Y015191D01*
X008665Y015441D01*
X009165Y015441D01*
X009415Y015191D01*
X009415Y014691D01*
X008415Y014691D02*
X008415Y015191D01*
X013285Y011395D02*
X013578Y011101D01*
X013505Y011174D02*
X013725Y011395D01*
X013725Y011101D02*
X013285Y011101D01*
X013358Y010934D02*
X013652Y010641D01*
X013725Y010714D01*
X013725Y010861D01*
X013652Y010934D01*
X013358Y010934D01*
X013285Y010861D01*
X013285Y010714D01*
X013358Y010641D01*
X013652Y010641D01*
X013652Y010474D02*
X013505Y010474D01*
X013432Y010400D01*
X013432Y010327D01*
X013505Y010180D01*
X013285Y010180D01*
X013285Y010474D01*
X013652Y010474D02*
X013725Y010400D01*
X013725Y010254D01*
X013652Y010180D01*
X013358Y010014D02*
X013652Y009720D01*
X013725Y009720D01*
X013285Y009720D02*
X013285Y010014D01*
X013358Y010014D01*
X014655Y010641D02*
X014655Y010861D01*
X014728Y010934D01*
X014875Y010934D01*
X014948Y010861D01*
X014948Y010641D01*
X014948Y010788D02*
X015095Y010934D01*
X015095Y011101D02*
X015095Y011395D01*
X015095Y011248D02*
X014655Y011248D01*
X014802Y011101D01*
X013815Y011191D02*
X013817Y011229D01*
X013823Y011266D01*
X013833Y011303D01*
X013847Y011338D01*
X013865Y011371D01*
X013886Y011403D01*
X013911Y011432D01*
X013938Y011458D01*
X013969Y011481D01*
X014001Y011500D01*
X014035Y011516D01*
X014071Y011528D01*
X014108Y011536D01*
X014146Y011540D01*
X014184Y011540D01*
X014222Y011536D01*
X014259Y011528D01*
X014295Y011516D01*
X014329Y011500D01*
X014361Y011481D01*
X014392Y011458D01*
X014419Y011432D01*
X014444Y011403D01*
X014465Y011371D01*
X014483Y011338D01*
X014497Y011303D01*
X014507Y011266D01*
X014513Y011229D01*
X014515Y011191D01*
X014513Y011153D01*
X014507Y011116D01*
X014497Y011079D01*
X014483Y011044D01*
X014465Y011011D01*
X014444Y010979D01*
X014419Y010950D01*
X014392Y010924D01*
X014361Y010901D01*
X014329Y010882D01*
X014295Y010866D01*
X014259Y010854D01*
X014222Y010846D01*
X014184Y010842D01*
X014146Y010842D01*
X014108Y010846D01*
X014071Y010854D01*
X014035Y010866D01*
X014001Y010882D01*
X013969Y010901D01*
X013938Y010924D01*
X013911Y010950D01*
X013886Y010979D01*
X013865Y011011D01*
X013847Y011044D01*
X013833Y011079D01*
X013823Y011116D01*
X013817Y011153D01*
X013815Y011191D01*
X014655Y010641D02*
X015095Y010641D01*
X015415Y009941D02*
X015165Y009691D01*
X015165Y009191D01*
X015415Y008941D01*
X015915Y008941D01*
X016165Y009191D01*
X016415Y008941D01*
X016915Y008941D01*
X017165Y009191D01*
X017165Y009691D01*
X016915Y009941D01*
X016415Y009941D01*
X016165Y009691D01*
X016165Y009191D01*
X016165Y009691D02*
X015915Y009941D01*
X015415Y009941D01*
X015340Y008341D02*
X016990Y008341D01*
X017053Y007791D02*
X016278Y007791D01*
X016053Y007791D01*
X015278Y007791D01*
X015120Y007791D01*
X017053Y007791D02*
X017210Y007791D01*
X014665Y005991D02*
X013665Y005991D01*
X013665Y004391D01*
X014665Y004391D01*
X014665Y005991D01*
X014165Y005441D02*
X014165Y005191D01*
X013915Y005191D01*
X014165Y005191D02*
X014415Y005191D01*
X014165Y005191D02*
X014415Y004791D01*
X013915Y004791D01*
X014165Y005191D01*
X014165Y004591D01*
X015515Y004691D02*
X015865Y004691D01*
X015865Y005191D01*
X016065Y005191D01*
X016065Y004191D01*
X015865Y004191D01*
X015865Y004691D01*
X015165Y004691D02*
X015169Y004782D01*
X015182Y004872D01*
X015202Y004961D01*
X015231Y005047D01*
X015267Y005131D01*
X015311Y005211D01*
X015361Y005286D01*
X015419Y005357D01*
X015482Y005422D01*
X015552Y005481D01*
X015626Y005533D01*
X015705Y005579D01*
X015788Y005617D01*
X015873Y005648D01*
X015962Y005670D01*
X016051Y005685D01*
X016142Y005691D01*
X016233Y005689D01*
X016324Y005678D01*
X016413Y005660D01*
X016500Y005633D01*
X016584Y005599D01*
X016665Y005557D01*
X016742Y005508D01*
X016814Y005452D01*
X016880Y005390D01*
X016941Y005322D01*
X016995Y005249D01*
X017042Y005171D01*
X017082Y005089D01*
X017115Y005004D01*
X017139Y004917D01*
X017156Y004827D01*
X017164Y004737D01*
X017164Y004645D01*
X017156Y004555D01*
X017139Y004465D01*
X017115Y004378D01*
X017082Y004293D01*
X017042Y004211D01*
X016995Y004133D01*
X016941Y004060D01*
X016880Y003992D01*
X016814Y003930D01*
X016742Y003874D01*
X016665Y003825D01*
X016584Y003783D01*
X016500Y003749D01*
X016413Y003722D01*
X016324Y003704D01*
X016233Y003693D01*
X016142Y003691D01*
X016051Y003697D01*
X015962Y003712D01*
X015873Y003734D01*
X015788Y003765D01*
X015705Y003803D01*
X015626Y003849D01*
X015552Y003901D01*
X015482Y003960D01*
X015419Y004025D01*
X015361Y004096D01*
X015311Y004171D01*
X015267Y004251D01*
X015231Y004335D01*
X015202Y004421D01*
X015182Y004510D01*
X015169Y004600D01*
X015165Y004691D01*
X015615Y005091D02*
X015615Y005191D01*
X015615Y005291D01*
X015615Y005191D02*
X015715Y005191D01*
X015615Y005191D02*
X015515Y005191D01*
X016415Y004691D02*
X016815Y004691D01*
X008615Y005791D02*
X008615Y007091D01*
X008415Y007291D02*
X007915Y007291D01*
X007715Y007091D02*
X007715Y005791D01*
X007915Y005591D02*
X008415Y005591D01*
X008165Y005941D02*
X008165Y006311D01*
X008165Y006561D02*
X008165Y006941D01*
X016865Y012191D02*
X016867Y012226D01*
X016873Y012260D01*
X016883Y012294D01*
X016897Y012326D01*
X016914Y012356D01*
X016935Y012384D01*
X016959Y012409D01*
X016986Y012432D01*
X017015Y012451D01*
X017046Y012466D01*
X017079Y012478D01*
X017113Y012486D01*
X017148Y012490D01*
X017182Y012490D01*
X017217Y012486D01*
X017251Y012478D01*
X017284Y012466D01*
X017315Y012451D01*
X017344Y012432D01*
X017371Y012409D01*
X017395Y012384D01*
X017416Y012356D01*
X017433Y012326D01*
X017447Y012294D01*
X017457Y012260D01*
X017463Y012226D01*
X017465Y012191D01*
X017463Y012156D01*
X017457Y012122D01*
X017447Y012088D01*
X017433Y012056D01*
X017416Y012026D01*
X017395Y011998D01*
X017371Y011973D01*
X017344Y011950D01*
X017315Y011931D01*
X017284Y011916D01*
X017251Y011904D01*
X017217Y011896D01*
X017182Y011892D01*
X017148Y011892D01*
X017113Y011896D01*
X017079Y011904D01*
X017046Y011916D01*
X017015Y011931D01*
X016986Y011950D01*
X016959Y011973D01*
X016935Y011998D01*
X016914Y012026D01*
X016897Y012056D01*
X016883Y012088D01*
X016873Y012122D01*
X016867Y012156D01*
X016865Y012191D01*
D13*
X016920Y011317D02*
X016920Y010866D01*
X016619Y011317D01*
X016619Y010866D01*
X016459Y010866D02*
X016459Y011167D01*
X016309Y011317D01*
X016159Y011167D01*
X016159Y010866D01*
X016159Y011092D02*
X016459Y011092D01*
X017080Y011317D02*
X017380Y011317D01*
X017230Y011317D02*
X017230Y010866D01*
X014881Y009562D02*
X014806Y009637D01*
X014656Y009637D01*
X014581Y009562D01*
X014421Y009562D02*
X014421Y009412D01*
X014346Y009337D01*
X014121Y009337D01*
X014121Y009186D02*
X014121Y009637D01*
X014346Y009637D01*
X014421Y009562D01*
X014581Y009186D02*
X014881Y009487D01*
X014881Y009562D01*
X014881Y009186D02*
X014581Y009186D01*
X013885Y009262D02*
X013885Y009637D01*
X013810Y009637D02*
X013960Y009637D01*
X013885Y009262D02*
X013810Y009186D01*
X013735Y009186D01*
X013660Y009262D01*
X013859Y008517D02*
X013859Y008217D01*
X014009Y008066D01*
X014159Y008217D01*
X014159Y008517D01*
X014319Y008517D02*
X014545Y008517D01*
X014620Y008442D01*
X014620Y008292D01*
X014545Y008217D01*
X014319Y008217D01*
X014470Y008217D02*
X014620Y008066D01*
X014780Y008066D02*
X015080Y008066D01*
X014930Y008066D02*
X014930Y008517D01*
X014780Y008367D01*
X014319Y008517D02*
X014319Y008066D01*
X011290Y008148D02*
X011290Y008299D01*
X011215Y008374D01*
X011290Y008534D02*
X011290Y008834D01*
X011290Y008684D02*
X010840Y008684D01*
X010990Y008534D01*
X010915Y008374D02*
X010840Y008299D01*
X010840Y008148D01*
X010915Y008073D01*
X011215Y008073D01*
X011290Y008148D01*
X011290Y007917D02*
X011290Y007766D01*
X011290Y007842D02*
X010840Y007842D01*
X010840Y007917D02*
X010840Y007766D01*
X008601Y008092D02*
X008526Y008016D01*
X008376Y008016D01*
X008301Y008092D01*
X008140Y008092D02*
X008065Y008016D01*
X007915Y008016D01*
X007840Y008092D01*
X007840Y008392D01*
X007915Y008467D01*
X008065Y008467D01*
X008140Y008392D01*
X008301Y008392D02*
X008376Y008467D01*
X008526Y008467D01*
X008601Y008392D01*
X008601Y008317D01*
X008526Y008242D01*
X008601Y008167D01*
X008601Y008092D01*
X008526Y008242D02*
X008451Y008242D01*
X005390Y009116D02*
X004940Y009116D01*
X004940Y009341D01*
X005015Y009416D01*
X005165Y009416D01*
X005240Y009341D01*
X005240Y009116D01*
X005390Y009576D02*
X005390Y009727D01*
X005390Y009651D02*
X004940Y009651D01*
X004940Y009576D02*
X004940Y009727D01*
X005015Y009883D02*
X005315Y009883D01*
X005390Y009958D01*
X005390Y010108D01*
X005315Y010184D01*
X005390Y010344D02*
X005390Y010644D01*
X005390Y010494D02*
X004940Y010494D01*
X005090Y010344D01*
X005015Y010184D02*
X004940Y010108D01*
X004940Y009958D01*
X005015Y009883D01*
X005165Y010804D02*
X005165Y011029D01*
X005240Y011104D01*
X005315Y011104D01*
X005390Y011029D01*
X005390Y010879D01*
X005315Y010804D01*
X005165Y010804D01*
X005015Y010954D01*
X004940Y011104D01*
X004940Y011264D02*
X004940Y011565D01*
X005090Y011725D02*
X004940Y011875D01*
X005390Y011875D01*
X005390Y011725D02*
X005390Y012025D01*
X005315Y012185D02*
X005390Y012260D01*
X005390Y012410D01*
X005315Y012485D01*
X005165Y012485D01*
X005090Y012410D01*
X005090Y012335D01*
X005165Y012185D01*
X004940Y012185D01*
X004940Y012485D01*
X005090Y012645D02*
X004940Y012796D01*
X005390Y012796D01*
X005390Y012946D02*
X005390Y012645D01*
X005315Y013106D02*
X005165Y013106D01*
X005165Y013331D01*
X005240Y013406D01*
X005315Y013406D01*
X005390Y013331D01*
X005390Y013181D01*
X005315Y013106D01*
X005165Y013106D02*
X005015Y013256D01*
X004940Y013406D01*
X007379Y013947D02*
X007679Y013947D01*
X007529Y013947D02*
X007529Y013496D01*
X007839Y013496D02*
X008139Y013496D01*
X008299Y013572D02*
X008374Y013496D01*
X008525Y013496D01*
X008600Y013572D01*
X008600Y013647D01*
X008525Y013722D01*
X008374Y013722D01*
X008299Y013797D01*
X008299Y013872D01*
X008374Y013947D01*
X008525Y013947D01*
X008600Y013872D01*
X008760Y013947D02*
X009060Y013947D01*
X008910Y013947D02*
X008910Y013496D01*
X008139Y013947D02*
X007839Y013947D01*
X007839Y013496D01*
X007839Y013722D02*
X007989Y013722D01*
X010940Y013806D02*
X010940Y013506D01*
X011390Y013506D01*
X011390Y013806D01*
X011165Y013656D02*
X011165Y013506D01*
X011090Y013346D02*
X011015Y013346D01*
X010940Y013271D01*
X010940Y013121D01*
X011015Y013046D01*
X011090Y013346D02*
X011390Y013046D01*
X011390Y013346D01*
X011390Y012886D02*
X011390Y012585D01*
X011390Y012735D02*
X010940Y012735D01*
X011090Y012585D01*
X010940Y012425D02*
X010940Y012125D01*
X010940Y012275D02*
X011390Y012275D01*
X011390Y011965D02*
X010940Y011965D01*
X011165Y011965D02*
X011165Y011665D01*
X011390Y011665D02*
X010940Y011665D01*
X013915Y013691D02*
X013915Y014191D01*
X017415Y014191D01*
X017415Y017191D01*
X013915Y017191D01*
X013915Y014191D01*
X013915Y013691D02*
X017415Y013691D01*
X017415Y014191D01*
X014165Y015691D02*
X014171Y015827D01*
X014190Y015963D01*
X014221Y016096D01*
X014263Y016225D01*
X014318Y016351D01*
X014383Y016470D01*
X014460Y016584D01*
X014546Y016690D01*
X014641Y016787D01*
X014745Y016876D01*
X014857Y016955D01*
X014975Y017023D01*
X015099Y017080D01*
X015228Y017126D01*
X015360Y017160D01*
X015495Y017181D01*
X015631Y017191D01*
X015767Y017188D01*
X015903Y017172D01*
X016037Y017144D01*
X016167Y017104D01*
X016294Y017053D01*
X016415Y016990D01*
X016530Y016916D01*
X016638Y016833D01*
X016738Y016740D01*
X016829Y016638D01*
X016910Y016528D01*
X016981Y016411D01*
X017041Y016289D01*
X017089Y016161D01*
X017126Y016030D01*
X017151Y015895D01*
X017163Y015759D01*
X017163Y015623D01*
X017151Y015487D01*
X017126Y015352D01*
X017089Y015221D01*
X017041Y015093D01*
X016981Y014971D01*
X016910Y014854D01*
X016829Y014744D01*
X016738Y014642D01*
X016638Y014549D01*
X016530Y014466D01*
X016415Y014392D01*
X016294Y014329D01*
X016167Y014278D01*
X016037Y014238D01*
X015903Y014210D01*
X015767Y014194D01*
X015631Y014191D01*
X015495Y014201D01*
X015360Y014222D01*
X015228Y014256D01*
X015099Y014302D01*
X014975Y014359D01*
X014857Y014427D01*
X014745Y014506D01*
X014641Y014595D01*
X014546Y014692D01*
X014460Y014798D01*
X014383Y014912D01*
X014318Y015031D01*
X014263Y015157D01*
X014221Y015286D01*
X014190Y015419D01*
X014171Y015555D01*
X014165Y015691D01*
X011883Y016492D02*
X011733Y016492D01*
X011808Y016642D02*
X011808Y016266D01*
X011573Y016266D02*
X011573Y016567D01*
X011808Y016642D02*
X011883Y016717D01*
X011573Y016266D02*
X011348Y016266D01*
X011273Y016342D01*
X011273Y016567D01*
X011113Y016266D02*
X010812Y016266D01*
X010963Y016266D02*
X010963Y016717D01*
X010812Y016567D01*
X010657Y016342D02*
X010657Y016266D01*
X010582Y016266D01*
X010582Y016342D01*
X010657Y016342D01*
X010422Y016342D02*
X010347Y016266D01*
X010197Y016266D01*
X010122Y016342D01*
X010422Y016642D01*
X010422Y016342D01*
X010122Y016342D02*
X010122Y016642D01*
X010197Y016717D01*
X010347Y016717D01*
X010422Y016642D01*
X010694Y017166D02*
X010845Y017166D01*
X010920Y017242D01*
X011080Y017166D02*
X011380Y017467D01*
X011380Y017542D01*
X011305Y017617D01*
X011155Y017617D01*
X011080Y017542D01*
X010920Y017542D02*
X010845Y017617D01*
X010694Y017617D01*
X010619Y017542D01*
X010619Y017242D01*
X010694Y017166D01*
X011080Y017166D02*
X011380Y017166D01*
X009310Y017496D02*
X009010Y017496D01*
X009010Y017947D01*
X009310Y017947D01*
X009160Y017722D02*
X009010Y017722D01*
X008850Y017572D02*
X008850Y017872D01*
X008775Y017947D01*
X008549Y017947D01*
X008549Y017496D01*
X008775Y017496D01*
X008850Y017572D01*
X008389Y017572D02*
X008389Y017872D01*
X008314Y017947D01*
X008164Y017947D01*
X008089Y017872D01*
X008089Y017572D01*
X008164Y017496D01*
X008314Y017496D01*
X008389Y017572D01*
X007929Y017496D02*
X007929Y017947D01*
X007779Y017797D01*
X007629Y017947D01*
X007629Y017496D01*
X002631Y017686D02*
X002331Y017686D01*
X002481Y017686D02*
X002481Y018137D01*
X002331Y017987D01*
X002171Y018062D02*
X002171Y017912D01*
X002096Y017837D01*
X001871Y017837D01*
X001871Y017686D02*
X001871Y018137D01*
X002096Y018137D01*
X002171Y018062D01*
X001710Y018137D02*
X001560Y018137D01*
X001635Y018137D02*
X001635Y017762D01*
X001560Y017686D01*
X001485Y017686D01*
X001410Y017762D01*
X005165Y011414D02*
X005165Y011264D01*
X005390Y011264D02*
X004940Y011264D01*
X004915Y007384D02*
X004840Y007309D01*
X004840Y007159D01*
X004915Y007084D01*
X004915Y006924D02*
X004840Y006849D01*
X004840Y006698D01*
X004915Y006623D01*
X005215Y006623D01*
X005290Y006698D01*
X005290Y006849D01*
X005215Y006924D01*
X005290Y007084D02*
X004990Y007384D01*
X004915Y007384D01*
X005290Y007384D02*
X005290Y007084D01*
X005290Y006467D02*
X005290Y006316D01*
X005290Y006392D02*
X004840Y006392D01*
X004840Y006467D02*
X004840Y006316D01*
X007840Y004792D02*
X007915Y004867D01*
X008065Y004867D01*
X008140Y004792D01*
X007840Y004492D01*
X007915Y004416D01*
X008065Y004416D01*
X008140Y004492D01*
X008140Y004792D01*
X007840Y004792D02*
X007840Y004492D01*
X008301Y004492D02*
X008376Y004492D01*
X008376Y004416D01*
X008301Y004416D01*
X008301Y004492D01*
X008531Y004416D02*
X008831Y004416D01*
X008681Y004416D02*
X008681Y004867D01*
X008531Y004717D01*
X008991Y004717D02*
X008991Y004492D01*
X009066Y004416D01*
X009291Y004416D01*
X009291Y004717D01*
X009451Y004642D02*
X009602Y004642D01*
X009526Y004792D02*
X009526Y004416D01*
X009526Y004792D02*
X009602Y004867D01*
X012340Y004206D02*
X012790Y004206D01*
X012790Y004056D02*
X012790Y004356D01*
X013090Y004400D02*
X013315Y004175D01*
X013315Y004475D01*
X013165Y004635D02*
X013090Y004710D01*
X013090Y004860D01*
X013165Y004935D01*
X013465Y004635D01*
X013540Y004710D01*
X013540Y004860D01*
X013465Y004935D01*
X013165Y004935D01*
X013165Y005096D02*
X013090Y005171D01*
X013090Y005321D01*
X013165Y005396D01*
X013465Y005096D01*
X013540Y005171D01*
X013540Y005321D01*
X013465Y005396D01*
X013165Y005396D01*
X013240Y005556D02*
X013090Y005706D01*
X013540Y005706D01*
X013540Y005556D02*
X013540Y005856D01*
X013465Y005096D02*
X013165Y005096D01*
X013165Y004635D02*
X013465Y004635D01*
X013540Y004400D02*
X013090Y004400D01*
X012490Y004056D02*
X012340Y004206D01*
X012415Y003896D02*
X012340Y003821D01*
X012340Y003596D01*
X012790Y003596D01*
X012790Y003821D01*
X012715Y003896D01*
X012415Y003896D01*
X013090Y004015D02*
X013540Y004015D01*
X013090Y003715D01*
X013540Y003715D01*
X013540Y003554D02*
X013540Y003254D01*
X013540Y003404D02*
X013090Y003404D01*
X013240Y003254D01*
X016640Y003067D02*
X016790Y003217D01*
X016790Y002766D01*
X016640Y002766D02*
X016940Y002766D01*
X017101Y002842D02*
X017401Y003142D01*
X017401Y002842D01*
X017326Y002766D01*
X017176Y002766D01*
X017101Y002842D01*
X017101Y003142D01*
X017176Y003217D01*
X017326Y003217D01*
X017401Y003142D01*
X017561Y003067D02*
X017561Y002842D01*
X017636Y002766D01*
X017861Y002766D01*
X017861Y003067D01*
X018021Y002992D02*
X018171Y002992D01*
X018096Y003142D02*
X018096Y002766D01*
X018096Y003142D02*
X018171Y003217D01*
X017901Y003716D02*
X017601Y003716D01*
X017751Y003716D02*
X017751Y004167D01*
X017601Y004017D01*
X017440Y004092D02*
X017365Y004167D01*
X017215Y004167D01*
X017140Y004092D01*
X017140Y003792D01*
X017215Y003716D01*
X017365Y003716D01*
X017440Y003792D01*
X017690Y006054D02*
X017690Y006354D01*
X017765Y006354D01*
X018065Y006054D01*
X018140Y006054D01*
X018065Y006515D02*
X017990Y006515D01*
X017915Y006590D01*
X017915Y006740D01*
X017990Y006815D01*
X018065Y006815D01*
X018140Y006740D01*
X018140Y006590D01*
X018065Y006515D01*
X017915Y006590D02*
X017840Y006515D01*
X017765Y006515D01*
X017690Y006590D01*
X017690Y006740D01*
X017765Y006815D01*
X017840Y006815D01*
X017915Y006740D01*
X017690Y006975D02*
X018140Y006975D01*
X018140Y007275D01*
X018065Y007435D02*
X017765Y007735D01*
X018065Y007735D01*
X018140Y007660D01*
X018140Y007510D01*
X018065Y007435D01*
X017765Y007435D01*
X017690Y007510D01*
X017690Y007660D01*
X017765Y007735D01*
X017690Y007896D02*
X017915Y007896D01*
X017840Y008046D01*
X017840Y008121D01*
X017915Y008196D01*
X018065Y008196D01*
X018140Y008121D01*
X018140Y007971D01*
X018065Y007896D01*
X017690Y007896D02*
X017690Y008196D01*
X017690Y008356D02*
X017690Y008656D01*
X017765Y008656D01*
X018065Y008356D01*
X018140Y008356D01*
X018140Y008656D01*
X008381Y002812D02*
X008306Y002887D01*
X008156Y002887D01*
X008081Y002812D01*
X007921Y002812D02*
X007921Y002662D01*
X007846Y002587D01*
X007621Y002587D01*
X007621Y002436D02*
X007621Y002887D01*
X007846Y002887D01*
X007921Y002812D01*
X008081Y002512D02*
X008156Y002436D01*
X008306Y002436D01*
X008381Y002512D01*
X008381Y002587D01*
X008306Y002662D01*
X008231Y002662D01*
X008306Y002662D02*
X008381Y002737D01*
X008381Y002812D01*
X007460Y002887D02*
X007310Y002887D01*
X007385Y002887D02*
X007385Y002512D01*
X007310Y002436D01*
X007235Y002436D01*
X007160Y002512D01*
X013839Y000572D02*
X013914Y000496D01*
X013989Y000496D01*
X014064Y000572D01*
X014064Y000947D01*
X013989Y000947D02*
X014139Y000947D01*
X014299Y000947D02*
X014525Y000947D01*
X014600Y000872D01*
X014600Y000722D01*
X014525Y000647D01*
X014299Y000647D01*
X014299Y000496D02*
X014299Y000947D01*
X014760Y000722D02*
X015060Y000722D01*
X014985Y000947D02*
X014985Y000496D01*
X014760Y000722D02*
X014985Y000947D01*
D14*
X014165Y005741D03*
D15*
X014165Y006791D02*
X014165Y007191D01*
X014165Y003591D02*
X014165Y003191D01*
D16*
X014165Y004016D03*
X014165Y006366D03*
D17*
X016365Y004691D03*
D18*
X015853Y006663D02*
X015868Y006711D01*
X015868Y006710D02*
X015926Y006694D01*
X015985Y006682D01*
X016045Y006673D01*
X016105Y006668D01*
X016165Y006666D01*
X016225Y006668D01*
X016285Y006673D01*
X016345Y006682D01*
X016404Y006694D01*
X016462Y006710D01*
X016477Y006663D01*
X016477Y006662D01*
X016416Y006646D01*
X016354Y006633D01*
X016291Y006623D01*
X016228Y006618D01*
X016165Y006616D01*
X016102Y006618D01*
X016039Y006623D01*
X015976Y006633D01*
X015914Y006646D01*
X015853Y006662D01*
X015855Y006671D01*
X015916Y006654D01*
X015978Y006642D01*
X016040Y006632D01*
X016102Y006627D01*
X016165Y006625D01*
X016228Y006627D01*
X016290Y006632D01*
X016352Y006642D01*
X016414Y006654D01*
X016475Y006671D01*
X016472Y006680D01*
X016412Y006663D01*
X016351Y006650D01*
X016289Y006641D01*
X016227Y006636D01*
X016165Y006634D01*
X016103Y006636D01*
X016041Y006641D01*
X015979Y006650D01*
X015918Y006663D01*
X015858Y006680D01*
X015861Y006688D01*
X015920Y006672D01*
X015981Y006659D01*
X016042Y006650D01*
X016103Y006645D01*
X016165Y006643D01*
X016227Y006645D01*
X016288Y006650D01*
X016349Y006659D01*
X016410Y006672D01*
X016469Y006688D01*
X016467Y006697D01*
X016408Y006681D01*
X016348Y006668D01*
X016287Y006659D01*
X016226Y006654D01*
X016165Y006652D01*
X016104Y006654D01*
X016043Y006659D01*
X015982Y006668D01*
X015922Y006681D01*
X015863Y006697D01*
X015866Y006705D01*
X015925Y006689D01*
X015984Y006677D01*
X016044Y006668D01*
X016104Y006663D01*
X016165Y006661D01*
X016226Y006663D01*
X016286Y006668D01*
X016346Y006677D01*
X016405Y006689D01*
X016464Y006705D01*
X016486Y006666D02*
X016472Y006714D01*
X016472Y006713D02*
X016532Y006734D01*
X016591Y006759D01*
X016648Y006787D01*
X016703Y006819D01*
X016757Y006854D01*
X016808Y006892D01*
X016856Y006934D01*
X016902Y006978D01*
X016945Y007026D01*
X016985Y007075D01*
X017021Y007128D01*
X017055Y007182D01*
X017085Y007238D01*
X017111Y007296D01*
X017134Y007356D01*
X017153Y007417D01*
X017168Y007479D01*
X017179Y007541D01*
X017186Y007605D01*
X017190Y007669D01*
X017189Y007732D01*
X017185Y007796D01*
X017176Y007859D01*
X017164Y007922D01*
X017147Y007983D01*
X017127Y008044D01*
X017104Y008103D01*
X017076Y008161D01*
X017045Y008216D01*
X017011Y008270D01*
X016973Y008322D01*
X017012Y008352D01*
X017012Y008353D01*
X017051Y008300D01*
X017086Y008246D01*
X017118Y008189D01*
X017146Y008131D01*
X017171Y008071D01*
X017192Y008010D01*
X017209Y007947D01*
X017223Y007884D01*
X017232Y007820D01*
X017238Y007755D01*
X017240Y007691D01*
X017238Y007626D01*
X017232Y007561D01*
X017222Y007497D01*
X017209Y007434D01*
X017191Y007371D01*
X017170Y007310D01*
X017145Y007250D01*
X017117Y007192D01*
X017085Y007135D01*
X017050Y007081D01*
X017012Y007029D01*
X016970Y006979D01*
X016926Y006932D01*
X016879Y006887D01*
X016829Y006846D01*
X016777Y006807D01*
X016722Y006772D01*
X016666Y006740D01*
X016608Y006711D01*
X016548Y006687D01*
X016487Y006665D01*
X016484Y006674D01*
X016545Y006695D01*
X016604Y006720D01*
X016662Y006748D01*
X016718Y006780D01*
X016772Y006815D01*
X016823Y006853D01*
X016873Y006894D01*
X016920Y006938D01*
X016964Y006985D01*
X017005Y007034D01*
X017043Y007086D01*
X017078Y007140D01*
X017109Y007196D01*
X017137Y007254D01*
X017162Y007313D01*
X017183Y007374D01*
X017200Y007436D01*
X017214Y007499D01*
X017223Y007562D01*
X017229Y007626D01*
X017231Y007691D01*
X017229Y007755D01*
X017223Y007819D01*
X017214Y007882D01*
X017200Y007945D01*
X017183Y008007D01*
X017162Y008068D01*
X017138Y008127D01*
X017110Y008185D01*
X017078Y008241D01*
X017043Y008295D01*
X017005Y008347D01*
X016998Y008341D01*
X017036Y008290D01*
X017070Y008236D01*
X017102Y008181D01*
X017129Y008124D01*
X017154Y008065D01*
X017174Y008004D01*
X017192Y007943D01*
X017205Y007881D01*
X017214Y007818D01*
X017220Y007754D01*
X017222Y007690D01*
X017220Y007627D01*
X017214Y007563D01*
X017205Y007500D01*
X017191Y007438D01*
X017174Y007377D01*
X017153Y007316D01*
X017129Y007258D01*
X017101Y007200D01*
X017070Y007145D01*
X017035Y007091D01*
X016998Y007040D01*
X016957Y006991D01*
X016913Y006944D01*
X016867Y006901D01*
X016818Y006860D01*
X016767Y006822D01*
X016713Y006787D01*
X016658Y006756D01*
X016600Y006728D01*
X016542Y006703D01*
X016481Y006682D01*
X016479Y006691D01*
X016538Y006712D01*
X016597Y006736D01*
X016654Y006764D01*
X016709Y006795D01*
X016762Y006829D01*
X016812Y006867D01*
X016861Y006907D01*
X016907Y006951D01*
X016950Y006997D01*
X016990Y007045D01*
X017028Y007096D01*
X017062Y007149D01*
X017093Y007204D01*
X017121Y007261D01*
X017145Y007320D01*
X017166Y007379D01*
X017183Y007440D01*
X017196Y007502D01*
X017205Y007564D01*
X017211Y007627D01*
X017213Y007690D01*
X017211Y007754D01*
X017205Y007817D01*
X017196Y007879D01*
X017183Y007941D01*
X017166Y008002D01*
X017145Y008061D01*
X017121Y008120D01*
X017094Y008177D01*
X017063Y008232D01*
X017028Y008285D01*
X016991Y008336D01*
X016984Y008330D01*
X017021Y008280D01*
X017055Y008227D01*
X017086Y008172D01*
X017113Y008116D01*
X017137Y008058D01*
X017157Y007999D01*
X017174Y007939D01*
X017187Y007877D01*
X017197Y007815D01*
X017202Y007753D01*
X017204Y007690D01*
X017202Y007628D01*
X017196Y007565D01*
X017187Y007504D01*
X017174Y007442D01*
X017157Y007382D01*
X017137Y007323D01*
X017113Y007265D01*
X017085Y007209D01*
X017054Y007154D01*
X017021Y007101D01*
X016983Y007051D01*
X016943Y007003D01*
X016900Y006957D01*
X016855Y006914D01*
X016807Y006874D01*
X016756Y006837D01*
X016704Y006803D01*
X016649Y006772D01*
X016593Y006744D01*
X016535Y006720D01*
X016476Y006700D01*
X016473Y006708D01*
X016534Y006729D01*
X016593Y006754D01*
X016651Y006783D01*
X016706Y006815D01*
X016760Y006850D01*
X016811Y006889D01*
X016859Y006930D01*
X016905Y006975D01*
X016948Y007022D01*
X016989Y007072D01*
X017025Y007125D01*
X017059Y007179D01*
X017089Y007236D01*
X017116Y007294D01*
X017138Y007354D01*
X017157Y007415D01*
X017173Y007478D01*
X017184Y007541D01*
X017191Y007604D01*
X017195Y007668D01*
X017194Y007733D01*
X017190Y007796D01*
X017181Y007860D01*
X017169Y007923D01*
X017152Y007985D01*
X017132Y008046D01*
X017108Y008105D01*
X017081Y008163D01*
X017049Y008219D01*
X017015Y008273D01*
X016977Y008325D01*
X015318Y008352D02*
X015357Y008321D01*
X015357Y008322D02*
X015319Y008270D01*
X015285Y008216D01*
X015254Y008161D01*
X015226Y008103D01*
X015203Y008044D01*
X015183Y007983D01*
X015166Y007922D01*
X015154Y007859D01*
X015145Y007796D01*
X015141Y007732D01*
X015140Y007669D01*
X015144Y007605D01*
X015151Y007541D01*
X015162Y007479D01*
X015177Y007417D01*
X015196Y007356D01*
X015219Y007296D01*
X015245Y007238D01*
X015275Y007182D01*
X015309Y007128D01*
X015345Y007075D01*
X015385Y007026D01*
X015428Y006978D01*
X015474Y006934D01*
X015522Y006892D01*
X015573Y006854D01*
X015627Y006819D01*
X015682Y006787D01*
X015739Y006759D01*
X015798Y006734D01*
X015858Y006713D01*
X015844Y006666D01*
X015843Y006665D01*
X015782Y006687D01*
X015722Y006711D01*
X015664Y006740D01*
X015608Y006772D01*
X015553Y006807D01*
X015501Y006846D01*
X015451Y006887D01*
X015404Y006932D01*
X015360Y006979D01*
X015318Y007029D01*
X015280Y007081D01*
X015245Y007135D01*
X015213Y007192D01*
X015185Y007250D01*
X015160Y007310D01*
X015139Y007371D01*
X015121Y007434D01*
X015108Y007497D01*
X015098Y007561D01*
X015092Y007626D01*
X015090Y007691D01*
X015092Y007755D01*
X015098Y007820D01*
X015107Y007884D01*
X015121Y007947D01*
X015138Y008010D01*
X015159Y008071D01*
X015184Y008131D01*
X015212Y008189D01*
X015244Y008246D01*
X015279Y008300D01*
X015318Y008353D01*
X015325Y008347D01*
X015287Y008295D01*
X015252Y008241D01*
X015220Y008185D01*
X015192Y008127D01*
X015168Y008068D01*
X015147Y008007D01*
X015130Y007945D01*
X015116Y007882D01*
X015107Y007819D01*
X015101Y007755D01*
X015099Y007691D01*
X015101Y007626D01*
X015107Y007562D01*
X015116Y007499D01*
X015130Y007436D01*
X015147Y007374D01*
X015168Y007313D01*
X015193Y007254D01*
X015221Y007196D01*
X015252Y007140D01*
X015287Y007086D01*
X015325Y007034D01*
X015366Y006985D01*
X015410Y006938D01*
X015457Y006894D01*
X015507Y006853D01*
X015558Y006815D01*
X015612Y006780D01*
X015668Y006748D01*
X015726Y006720D01*
X015785Y006695D01*
X015846Y006674D01*
X015849Y006682D01*
X015788Y006703D01*
X015730Y006728D01*
X015672Y006756D01*
X015617Y006787D01*
X015563Y006822D01*
X015512Y006860D01*
X015463Y006901D01*
X015417Y006944D01*
X015373Y006991D01*
X015332Y007040D01*
X015295Y007091D01*
X015260Y007145D01*
X015229Y007200D01*
X015201Y007258D01*
X015177Y007316D01*
X015156Y007377D01*
X015139Y007438D01*
X015125Y007500D01*
X015116Y007563D01*
X015110Y007627D01*
X015108Y007690D01*
X015110Y007754D01*
X015116Y007818D01*
X015125Y007881D01*
X015138Y007943D01*
X015156Y008004D01*
X015176Y008065D01*
X015201Y008124D01*
X015228Y008181D01*
X015260Y008236D01*
X015294Y008290D01*
X015332Y008341D01*
X015339Y008336D01*
X015302Y008285D01*
X015267Y008232D01*
X015236Y008177D01*
X015209Y008120D01*
X015185Y008061D01*
X015164Y008002D01*
X015147Y007941D01*
X015134Y007879D01*
X015125Y007817D01*
X015119Y007754D01*
X015117Y007690D01*
X015119Y007627D01*
X015125Y007564D01*
X015134Y007502D01*
X015147Y007440D01*
X015164Y007379D01*
X015185Y007320D01*
X015209Y007261D01*
X015237Y007204D01*
X015268Y007149D01*
X015302Y007096D01*
X015340Y007045D01*
X015380Y006997D01*
X015423Y006951D01*
X015469Y006907D01*
X015518Y006867D01*
X015568Y006829D01*
X015621Y006795D01*
X015676Y006764D01*
X015733Y006736D01*
X015792Y006712D01*
X015851Y006691D01*
X015854Y006700D01*
X015795Y006720D01*
X015737Y006744D01*
X015681Y006772D01*
X015626Y006803D01*
X015574Y006837D01*
X015523Y006874D01*
X015475Y006914D01*
X015430Y006957D01*
X015387Y007003D01*
X015347Y007051D01*
X015309Y007101D01*
X015276Y007154D01*
X015245Y007209D01*
X015217Y007265D01*
X015193Y007323D01*
X015173Y007382D01*
X015156Y007442D01*
X015143Y007504D01*
X015134Y007565D01*
X015128Y007628D01*
X015126Y007690D01*
X015128Y007753D01*
X015133Y007815D01*
X015143Y007877D01*
X015156Y007939D01*
X015173Y007999D01*
X015193Y008058D01*
X015217Y008116D01*
X015244Y008172D01*
X015275Y008227D01*
X015309Y008280D01*
X015346Y008330D01*
X015353Y008325D01*
X015315Y008273D01*
X015281Y008219D01*
X015249Y008163D01*
X015222Y008105D01*
X015198Y008046D01*
X015178Y007985D01*
X015161Y007923D01*
X015149Y007860D01*
X015140Y007796D01*
X015136Y007733D01*
X015135Y007668D01*
X015139Y007604D01*
X015146Y007541D01*
X015157Y007478D01*
X015173Y007415D01*
X015192Y007354D01*
X015214Y007294D01*
X015241Y007236D01*
X015271Y007179D01*
X015305Y007125D01*
X015341Y007072D01*
X015382Y007022D01*
X015425Y006975D01*
X015471Y006930D01*
X015519Y006889D01*
X015570Y006850D01*
X015624Y006815D01*
X015679Y006783D01*
X015737Y006754D01*
X015796Y006729D01*
X015857Y006708D01*
X008639Y007095D02*
X008589Y007095D01*
X008590Y007096D02*
X008587Y007122D01*
X008580Y007148D01*
X008570Y007172D01*
X008556Y007195D01*
X008539Y007215D01*
X008519Y007232D01*
X008496Y007246D01*
X008472Y007256D01*
X008446Y007263D01*
X008420Y007266D01*
X008419Y007315D01*
X008420Y007316D01*
X008448Y007313D01*
X008476Y007307D01*
X008503Y007298D01*
X008529Y007285D01*
X008553Y007269D01*
X008574Y007250D01*
X008593Y007229D01*
X008609Y007205D01*
X008622Y007179D01*
X008631Y007152D01*
X008637Y007124D01*
X008640Y007096D01*
X008631Y007096D01*
X008629Y007123D01*
X008623Y007150D01*
X008614Y007176D01*
X008601Y007200D01*
X008586Y007223D01*
X008568Y007244D01*
X008547Y007262D01*
X008524Y007277D01*
X008500Y007290D01*
X008474Y007299D01*
X008447Y007305D01*
X008420Y007307D01*
X008420Y007298D01*
X008449Y007295D01*
X008476Y007289D01*
X008503Y007278D01*
X008528Y007264D01*
X008551Y007247D01*
X008571Y007227D01*
X008588Y007204D01*
X008602Y007179D01*
X008613Y007152D01*
X008619Y007125D01*
X008622Y007096D01*
X008613Y007096D01*
X008610Y007123D01*
X008604Y007150D01*
X008594Y007175D01*
X008581Y007199D01*
X008564Y007221D01*
X008545Y007240D01*
X008523Y007257D01*
X008499Y007270D01*
X008474Y007280D01*
X008447Y007286D01*
X008420Y007289D01*
X008420Y007280D01*
X008446Y007277D01*
X008471Y007271D01*
X008496Y007262D01*
X008518Y007249D01*
X008539Y007234D01*
X008558Y007215D01*
X008573Y007194D01*
X008586Y007172D01*
X008595Y007147D01*
X008601Y007122D01*
X008604Y007096D01*
X008595Y007096D01*
X008593Y007121D01*
X008587Y007145D01*
X008578Y007168D01*
X008566Y007189D01*
X008551Y007209D01*
X008533Y007227D01*
X008513Y007242D01*
X008492Y007254D01*
X008469Y007263D01*
X008445Y007269D01*
X008420Y007271D01*
X007911Y007315D02*
X007911Y007265D01*
X007910Y007266D02*
X007884Y007263D01*
X007858Y007256D01*
X007834Y007246D01*
X007811Y007232D01*
X007791Y007215D01*
X007774Y007195D01*
X007760Y007172D01*
X007750Y007148D01*
X007743Y007122D01*
X007740Y007096D01*
X007691Y007095D01*
X007690Y007096D01*
X007693Y007124D01*
X007699Y007152D01*
X007708Y007179D01*
X007721Y007205D01*
X007737Y007229D01*
X007756Y007250D01*
X007777Y007269D01*
X007801Y007285D01*
X007827Y007298D01*
X007854Y007307D01*
X007882Y007313D01*
X007910Y007316D01*
X007910Y007307D01*
X007883Y007305D01*
X007856Y007299D01*
X007830Y007290D01*
X007806Y007277D01*
X007783Y007262D01*
X007762Y007244D01*
X007744Y007223D01*
X007729Y007200D01*
X007716Y007176D01*
X007707Y007150D01*
X007701Y007123D01*
X007699Y007096D01*
X007708Y007096D01*
X007711Y007125D01*
X007717Y007152D01*
X007728Y007179D01*
X007742Y007204D01*
X007759Y007227D01*
X007779Y007247D01*
X007802Y007264D01*
X007827Y007278D01*
X007854Y007289D01*
X007881Y007295D01*
X007910Y007298D01*
X007910Y007289D01*
X007883Y007286D01*
X007856Y007280D01*
X007831Y007270D01*
X007807Y007257D01*
X007785Y007240D01*
X007766Y007221D01*
X007749Y007199D01*
X007736Y007175D01*
X007726Y007150D01*
X007720Y007123D01*
X007717Y007096D01*
X007726Y007096D01*
X007729Y007122D01*
X007735Y007147D01*
X007744Y007172D01*
X007757Y007194D01*
X007772Y007215D01*
X007791Y007234D01*
X007812Y007249D01*
X007834Y007262D01*
X007859Y007271D01*
X007884Y007277D01*
X007910Y007280D01*
X007910Y007271D01*
X007885Y007269D01*
X007861Y007263D01*
X007838Y007254D01*
X007817Y007242D01*
X007797Y007227D01*
X007779Y007209D01*
X007764Y007189D01*
X007752Y007168D01*
X007743Y007145D01*
X007737Y007121D01*
X007735Y007096D01*
X007691Y005787D02*
X007741Y005787D01*
X007740Y005786D02*
X007743Y005760D01*
X007750Y005734D01*
X007760Y005710D01*
X007774Y005687D01*
X007791Y005667D01*
X007811Y005650D01*
X007834Y005636D01*
X007858Y005626D01*
X007884Y005619D01*
X007910Y005616D01*
X007911Y005567D01*
X007910Y005566D01*
X007882Y005569D01*
X007854Y005575D01*
X007827Y005584D01*
X007801Y005597D01*
X007777Y005613D01*
X007756Y005632D01*
X007737Y005653D01*
X007721Y005677D01*
X007708Y005703D01*
X007699Y005730D01*
X007693Y005758D01*
X007690Y005786D01*
X007699Y005786D01*
X007701Y005759D01*
X007707Y005732D01*
X007716Y005706D01*
X007729Y005682D01*
X007744Y005659D01*
X007762Y005638D01*
X007783Y005620D01*
X007806Y005605D01*
X007830Y005592D01*
X007856Y005583D01*
X007883Y005577D01*
X007910Y005575D01*
X007910Y005584D01*
X007881Y005587D01*
X007854Y005593D01*
X007827Y005604D01*
X007802Y005618D01*
X007779Y005635D01*
X007759Y005655D01*
X007742Y005678D01*
X007728Y005703D01*
X007717Y005730D01*
X007711Y005757D01*
X007708Y005786D01*
X007717Y005786D01*
X007720Y005759D01*
X007726Y005732D01*
X007736Y005707D01*
X007749Y005683D01*
X007766Y005661D01*
X007785Y005642D01*
X007807Y005625D01*
X007831Y005612D01*
X007856Y005602D01*
X007883Y005596D01*
X007910Y005593D01*
X007910Y005602D01*
X007884Y005605D01*
X007859Y005611D01*
X007834Y005620D01*
X007812Y005633D01*
X007791Y005648D01*
X007772Y005667D01*
X007757Y005688D01*
X007744Y005710D01*
X007735Y005735D01*
X007729Y005760D01*
X007726Y005786D01*
X007735Y005786D01*
X007737Y005761D01*
X007743Y005737D01*
X007752Y005714D01*
X007764Y005693D01*
X007779Y005673D01*
X007797Y005655D01*
X007817Y005640D01*
X007838Y005628D01*
X007861Y005619D01*
X007885Y005613D01*
X007910Y005611D01*
X008419Y005567D02*
X008419Y005617D01*
X008420Y005616D02*
X008446Y005619D01*
X008472Y005626D01*
X008496Y005636D01*
X008519Y005650D01*
X008539Y005667D01*
X008556Y005687D01*
X008570Y005710D01*
X008580Y005734D01*
X008587Y005760D01*
X008590Y005786D01*
X008639Y005787D01*
X008640Y005786D01*
X008637Y005758D01*
X008631Y005730D01*
X008622Y005703D01*
X008609Y005677D01*
X008593Y005653D01*
X008574Y005632D01*
X008553Y005613D01*
X008529Y005597D01*
X008503Y005584D01*
X008476Y005575D01*
X008448Y005569D01*
X008420Y005566D01*
X008420Y005575D01*
X008447Y005577D01*
X008474Y005583D01*
X008500Y005592D01*
X008524Y005605D01*
X008547Y005620D01*
X008568Y005638D01*
X008586Y005659D01*
X008601Y005682D01*
X008614Y005706D01*
X008623Y005732D01*
X008629Y005759D01*
X008631Y005786D01*
X008622Y005786D01*
X008619Y005757D01*
X008613Y005730D01*
X008602Y005703D01*
X008588Y005678D01*
X008571Y005655D01*
X008551Y005635D01*
X008528Y005618D01*
X008503Y005604D01*
X008476Y005593D01*
X008449Y005587D01*
X008420Y005584D01*
X008420Y005593D01*
X008447Y005596D01*
X008474Y005602D01*
X008499Y005612D01*
X008523Y005625D01*
X008545Y005642D01*
X008564Y005661D01*
X008581Y005683D01*
X008594Y005707D01*
X008604Y005732D01*
X008610Y005759D01*
X008613Y005786D01*
X008604Y005786D01*
X008601Y005760D01*
X008595Y005735D01*
X008586Y005710D01*
X008573Y005688D01*
X008558Y005667D01*
X008539Y005648D01*
X008518Y005633D01*
X008496Y005620D01*
X008471Y005611D01*
X008446Y005605D01*
X008420Y005602D01*
X008420Y005611D01*
X008445Y005613D01*
X008469Y005619D01*
X008492Y005628D01*
X008513Y005640D01*
X008533Y005655D01*
X008551Y005673D01*
X008566Y005693D01*
X008578Y005714D01*
X008587Y005737D01*
X008593Y005761D01*
X008595Y005786D01*
X010291Y015437D02*
X010341Y015437D01*
X010340Y015436D02*
X010343Y015410D01*
X010350Y015384D01*
X010360Y015360D01*
X010374Y015337D01*
X010391Y015317D01*
X010411Y015300D01*
X010434Y015286D01*
X010458Y015276D01*
X010484Y015269D01*
X010510Y015266D01*
X010511Y015217D01*
X010510Y015216D01*
X010482Y015219D01*
X010454Y015225D01*
X010427Y015234D01*
X010401Y015247D01*
X010377Y015263D01*
X010356Y015282D01*
X010337Y015303D01*
X010321Y015327D01*
X010308Y015353D01*
X010299Y015380D01*
X010293Y015408D01*
X010290Y015436D01*
X010299Y015436D01*
X010301Y015409D01*
X010307Y015382D01*
X010316Y015356D01*
X010329Y015332D01*
X010344Y015309D01*
X010362Y015288D01*
X010383Y015270D01*
X010406Y015255D01*
X010430Y015242D01*
X010456Y015233D01*
X010483Y015227D01*
X010510Y015225D01*
X010510Y015234D01*
X010481Y015237D01*
X010454Y015243D01*
X010427Y015254D01*
X010402Y015268D01*
X010379Y015285D01*
X010359Y015305D01*
X010342Y015328D01*
X010328Y015353D01*
X010317Y015380D01*
X010311Y015407D01*
X010308Y015436D01*
X010317Y015436D01*
X010320Y015409D01*
X010326Y015382D01*
X010336Y015357D01*
X010349Y015333D01*
X010366Y015311D01*
X010385Y015292D01*
X010407Y015275D01*
X010431Y015262D01*
X010456Y015252D01*
X010483Y015246D01*
X010510Y015243D01*
X010510Y015252D01*
X010484Y015255D01*
X010459Y015261D01*
X010434Y015270D01*
X010412Y015283D01*
X010391Y015298D01*
X010372Y015317D01*
X010357Y015338D01*
X010344Y015360D01*
X010335Y015385D01*
X010329Y015410D01*
X010326Y015436D01*
X010335Y015436D01*
X010337Y015411D01*
X010343Y015387D01*
X010352Y015364D01*
X010364Y015343D01*
X010379Y015323D01*
X010397Y015305D01*
X010417Y015290D01*
X010438Y015278D01*
X010461Y015269D01*
X010485Y015263D01*
X010510Y015261D01*
X010511Y016165D02*
X010511Y016115D01*
X010510Y016116D02*
X010484Y016113D01*
X010458Y016106D01*
X010434Y016096D01*
X010411Y016082D01*
X010391Y016065D01*
X010374Y016045D01*
X010360Y016022D01*
X010350Y015998D01*
X010343Y015972D01*
X010340Y015946D01*
X010291Y015945D01*
X010290Y015946D01*
X010293Y015974D01*
X010299Y016002D01*
X010308Y016029D01*
X010321Y016055D01*
X010337Y016079D01*
X010356Y016100D01*
X010377Y016119D01*
X010401Y016135D01*
X010427Y016148D01*
X010454Y016157D01*
X010482Y016163D01*
X010510Y016166D01*
X010510Y016157D01*
X010483Y016155D01*
X010456Y016149D01*
X010430Y016140D01*
X010406Y016127D01*
X010383Y016112D01*
X010362Y016094D01*
X010344Y016073D01*
X010329Y016050D01*
X010316Y016026D01*
X010307Y016000D01*
X010301Y015973D01*
X010299Y015946D01*
X010308Y015946D01*
X010311Y015975D01*
X010317Y016002D01*
X010328Y016029D01*
X010342Y016054D01*
X010359Y016077D01*
X010379Y016097D01*
X010402Y016114D01*
X010427Y016128D01*
X010454Y016139D01*
X010481Y016145D01*
X010510Y016148D01*
X010510Y016139D01*
X010483Y016136D01*
X010456Y016130D01*
X010431Y016120D01*
X010407Y016107D01*
X010385Y016090D01*
X010366Y016071D01*
X010349Y016049D01*
X010336Y016025D01*
X010326Y016000D01*
X010320Y015973D01*
X010317Y015946D01*
X010326Y015946D01*
X010329Y015972D01*
X010335Y015997D01*
X010344Y016022D01*
X010357Y016044D01*
X010372Y016065D01*
X010391Y016084D01*
X010412Y016099D01*
X010434Y016112D01*
X010459Y016121D01*
X010484Y016127D01*
X010510Y016130D01*
X010510Y016121D01*
X010485Y016119D01*
X010461Y016113D01*
X010438Y016104D01*
X010417Y016092D01*
X010397Y016077D01*
X010379Y016059D01*
X010364Y016039D01*
X010352Y016018D01*
X010343Y015995D01*
X010337Y015971D01*
X010335Y015946D01*
X012039Y015945D02*
X011989Y015945D01*
X011990Y015946D02*
X011987Y015972D01*
X011980Y015998D01*
X011970Y016022D01*
X011956Y016045D01*
X011939Y016065D01*
X011919Y016082D01*
X011896Y016096D01*
X011872Y016106D01*
X011846Y016113D01*
X011820Y016116D01*
X011819Y016165D01*
X011820Y016166D01*
X011848Y016163D01*
X011876Y016157D01*
X011903Y016148D01*
X011929Y016135D01*
X011953Y016119D01*
X011974Y016100D01*
X011993Y016079D01*
X012009Y016055D01*
X012022Y016029D01*
X012031Y016002D01*
X012037Y015974D01*
X012040Y015946D01*
X012031Y015946D01*
X012029Y015973D01*
X012023Y016000D01*
X012014Y016026D01*
X012001Y016050D01*
X011986Y016073D01*
X011968Y016094D01*
X011947Y016112D01*
X011924Y016127D01*
X011900Y016140D01*
X011874Y016149D01*
X011847Y016155D01*
X011820Y016157D01*
X011820Y016148D01*
X011849Y016145D01*
X011876Y016139D01*
X011903Y016128D01*
X011928Y016114D01*
X011951Y016097D01*
X011971Y016077D01*
X011988Y016054D01*
X012002Y016029D01*
X012013Y016002D01*
X012019Y015975D01*
X012022Y015946D01*
X012013Y015946D01*
X012010Y015973D01*
X012004Y016000D01*
X011994Y016025D01*
X011981Y016049D01*
X011964Y016071D01*
X011945Y016090D01*
X011923Y016107D01*
X011899Y016120D01*
X011874Y016130D01*
X011847Y016136D01*
X011820Y016139D01*
X011820Y016130D01*
X011846Y016127D01*
X011871Y016121D01*
X011896Y016112D01*
X011918Y016099D01*
X011939Y016084D01*
X011958Y016065D01*
X011973Y016044D01*
X011986Y016022D01*
X011995Y015997D01*
X012001Y015972D01*
X012004Y015946D01*
X011995Y015946D01*
X011993Y015971D01*
X011987Y015995D01*
X011978Y016018D01*
X011966Y016039D01*
X011951Y016059D01*
X011933Y016077D01*
X011913Y016092D01*
X011892Y016104D01*
X011869Y016113D01*
X011845Y016119D01*
X011820Y016121D01*
X011819Y015217D02*
X011819Y015267D01*
X011820Y015266D02*
X011846Y015269D01*
X011872Y015276D01*
X011896Y015286D01*
X011919Y015300D01*
X011939Y015317D01*
X011956Y015337D01*
X011970Y015360D01*
X011980Y015384D01*
X011987Y015410D01*
X011990Y015436D01*
X012039Y015437D01*
X012040Y015436D01*
X012037Y015408D01*
X012031Y015380D01*
X012022Y015353D01*
X012009Y015327D01*
X011993Y015303D01*
X011974Y015282D01*
X011953Y015263D01*
X011929Y015247D01*
X011903Y015234D01*
X011876Y015225D01*
X011848Y015219D01*
X011820Y015216D01*
X011820Y015225D01*
X011847Y015227D01*
X011874Y015233D01*
X011900Y015242D01*
X011924Y015255D01*
X011947Y015270D01*
X011968Y015288D01*
X011986Y015309D01*
X012001Y015332D01*
X012014Y015356D01*
X012023Y015382D01*
X012029Y015409D01*
X012031Y015436D01*
X012022Y015436D01*
X012019Y015407D01*
X012013Y015380D01*
X012002Y015353D01*
X011988Y015328D01*
X011971Y015305D01*
X011951Y015285D01*
X011928Y015268D01*
X011903Y015254D01*
X011876Y015243D01*
X011849Y015237D01*
X011820Y015234D01*
X011820Y015243D01*
X011847Y015246D01*
X011874Y015252D01*
X011899Y015262D01*
X011923Y015275D01*
X011945Y015292D01*
X011964Y015311D01*
X011981Y015333D01*
X011994Y015357D01*
X012004Y015382D01*
X012010Y015409D01*
X012013Y015436D01*
X012004Y015436D01*
X012001Y015410D01*
X011995Y015385D01*
X011986Y015360D01*
X011973Y015338D01*
X011958Y015317D01*
X011939Y015298D01*
X011918Y015283D01*
X011896Y015270D01*
X011871Y015261D01*
X011846Y015255D01*
X011820Y015252D01*
X011820Y015261D01*
X011845Y015263D01*
X011869Y015269D01*
X011892Y015278D01*
X011913Y015290D01*
X011933Y015305D01*
X011951Y015323D01*
X011966Y015343D01*
X011978Y015364D01*
X011987Y015387D01*
X011993Y015411D01*
X011995Y015436D01*
D19*
X012090Y015691D03*
X010240Y015691D03*
D20*
X008165Y007366D03*
X008165Y005516D03*
D21*
X001665Y005691D03*
X001665Y004691D03*
X001665Y003691D03*
X001665Y002691D03*
X001665Y001691D03*
X007665Y001691D03*
X008665Y001691D03*
X009665Y001691D03*
X010665Y001691D03*
X013665Y001691D03*
X014665Y001691D03*
X001665Y006691D03*
X001665Y007691D03*
X001665Y008691D03*
X001665Y009691D03*
X001665Y010691D03*
X001665Y011691D03*
X001665Y012691D03*
X001665Y013691D03*
X001665Y014691D03*
X001665Y015691D03*
X001665Y016691D03*
X007915Y016691D03*
X008915Y016691D03*
X008915Y014941D03*
X007915Y014941D03*
X015665Y009441D03*
X016665Y009441D03*
D22*
X017165Y012191D03*
D23*
X017162Y012186D02*
X017162Y012183D01*
X017160Y012181D01*
X017155Y012181D01*
X017153Y012181D02*
X017149Y012181D01*
X017151Y012181D02*
X017151Y012188D01*
X017149Y012188D01*
X017147Y012186D02*
X017147Y012181D01*
X017147Y012186D02*
X017145Y012188D01*
X017142Y012188D01*
X017140Y012186D01*
X017138Y012188D02*
X017138Y012183D01*
X017136Y012181D01*
X017134Y012183D01*
X017133Y012181D01*
X017131Y012183D01*
X017131Y012188D01*
X017140Y012191D02*
X017140Y012181D01*
X017151Y012191D02*
X017151Y012193D01*
X017155Y012188D02*
X017160Y012188D01*
X017162Y012186D01*
X017155Y012188D02*
X017155Y012178D01*
X017119Y012185D02*
X017113Y012185D01*
X017113Y012186D02*
X017114Y012188D01*
X017118Y012188D01*
X017119Y012186D01*
X017119Y012185D01*
X017118Y012181D02*
X017114Y012181D01*
X017113Y012183D01*
X017113Y012186D01*
X017110Y012188D02*
X017107Y012181D01*
X017103Y012188D01*
X017101Y012186D02*
X017101Y012181D01*
X017096Y012181D01*
X017094Y012183D01*
X017096Y012185D01*
X017101Y012185D01*
X017101Y012186D02*
X017099Y012188D01*
X017096Y012188D01*
X017092Y012188D02*
X017092Y012183D01*
X017090Y012181D01*
X017088Y012183D01*
X017087Y012181D01*
X017085Y012183D01*
X017085Y012188D01*
X017073Y012188D02*
X017072Y012188D01*
X017068Y012185D01*
X017068Y012188D02*
X017068Y012181D01*
X017066Y012181D02*
X017064Y012183D01*
X017064Y012190D01*
X017062Y012188D02*
X017066Y012188D01*
X017060Y012188D02*
X017055Y012188D01*
X017053Y012186D01*
X017053Y012183D01*
X017055Y012181D01*
X017060Y012181D01*
X017060Y012178D02*
X017060Y012188D01*
X017041Y012188D02*
X017040Y012186D01*
X017041Y012185D01*
X017041Y012183D01*
X017040Y012181D01*
X017036Y012181D01*
X017035Y012183D01*
X017032Y012183D02*
X017031Y012181D01*
X017027Y012181D01*
X017026Y012183D01*
X017029Y012186D02*
X017031Y012186D01*
X017032Y012185D01*
X017032Y012183D01*
X017031Y012186D02*
X017032Y012188D01*
X017032Y012190D01*
X017031Y012191D01*
X017027Y012191D01*
X017026Y012190D01*
X017023Y012186D02*
X017016Y012186D01*
X017021Y012191D01*
X017021Y012181D01*
X017035Y012190D02*
X017036Y012191D01*
X017040Y012191D01*
X017041Y012190D01*
X017041Y012188D01*
X017040Y012186D02*
X017038Y012186D01*
D24*
X014165Y011191D02*
X014165Y010191D01*
X014165Y010641D02*
X014165Y010741D01*
D25*
X013915Y011191D02*
X013917Y011223D01*
X013923Y011254D01*
X013933Y011285D01*
X013947Y011314D01*
X013965Y011341D01*
X013985Y011365D01*
X014009Y011386D01*
X014035Y011405D01*
X014064Y011420D01*
X014094Y011431D01*
X014125Y011438D01*
X014157Y011441D01*
X014189Y011440D01*
X014221Y011435D01*
X014251Y011426D01*
X014281Y011413D01*
X014308Y011396D01*
X014333Y011376D01*
X014355Y011353D01*
X014375Y011327D01*
X014390Y011299D01*
X014402Y011270D01*
X014410Y011239D01*
X014414Y011207D01*
X014414Y011175D01*
X014410Y011143D01*
X014402Y011112D01*
X014390Y011083D01*
X014375Y011055D01*
X014355Y011029D01*
X014333Y011006D01*
X014308Y010986D01*
X014281Y010969D01*
X014251Y010956D01*
X014221Y010947D01*
X014189Y010942D01*
X014157Y010941D01*
X014125Y010944D01*
X014094Y010951D01*
X014064Y010962D01*
X014035Y010977D01*
X014009Y010996D01*
X013985Y011017D01*
X013965Y011041D01*
X013947Y011068D01*
X013933Y011097D01*
X013923Y011128D01*
X013917Y011159D01*
X013915Y011191D01*
M02*
