G75*
G70*
%OFA0B0*%
%FSLAX24Y24*%
%IPPOS*%
%LPD*%
%AMOC8*
5,1,8,0,0,1.08239X$1,22.5*
%
%ADD10C,0.0060*%
%ADD11C,0.0040*%
%ADD12O,0.1200X0.0600*%
%ADD13R,0.0660X0.0660*%
%ADD14C,0.0660*%
%ADD15OC8,0.0630*%
%ADD16C,0.0630*%
%ADD17OC8,0.0520*%
%ADD18O,0.0680X0.1360*%
%ADD19O,0.0750X0.1500*%
%ADD20O,0.1360X0.0680*%
%ADD21C,0.0320*%
%ADD22C,0.0240*%
%ADD23C,0.0160*%
D10*
X015208Y002292D02*
X015635Y002292D01*
X015422Y002505D02*
X015422Y002078D01*
X017495Y002626D02*
X017602Y002519D01*
X018029Y002519D01*
X017922Y002413D02*
X017922Y002626D01*
X017922Y002842D02*
X017495Y002842D01*
X017709Y002842D02*
X017922Y003056D01*
X017922Y003163D01*
X017922Y003379D02*
X017602Y003379D01*
X017495Y003486D01*
X017495Y003806D01*
X017922Y003806D01*
X017815Y004024D02*
X017602Y004024D01*
X017495Y004131D01*
X017495Y004344D01*
X017709Y004451D02*
X017709Y004024D01*
X017815Y004024D02*
X017922Y004131D01*
X017922Y004344D01*
X017815Y004451D01*
X017709Y004451D01*
X017815Y004668D02*
X017922Y004775D01*
X017922Y005095D01*
X017709Y004989D02*
X017709Y004775D01*
X017815Y004668D01*
X017495Y004668D02*
X017495Y004989D01*
X017602Y005095D01*
X017709Y004989D01*
X017815Y005313D02*
X017602Y005313D01*
X017495Y005420D01*
X017495Y005633D01*
X017602Y005740D01*
X017815Y005740D01*
X017922Y005633D01*
X017922Y005420D01*
X017815Y005313D01*
X017922Y005958D02*
X017602Y005958D01*
X017495Y006064D01*
X017495Y006385D01*
X017922Y006385D01*
X017922Y006602D02*
X017495Y006602D01*
X017922Y006602D02*
X017922Y006922D01*
X017815Y007029D01*
X017495Y007029D01*
X017602Y007247D02*
X017815Y007247D01*
X017922Y007353D01*
X017922Y007674D01*
X018136Y007674D02*
X017495Y007674D01*
X017495Y007353D01*
X017602Y007247D01*
X017815Y007891D02*
X017815Y008105D01*
X018029Y007998D02*
X017495Y007998D01*
X018029Y007998D02*
X018136Y008105D01*
X017922Y008321D02*
X017495Y008748D01*
X017495Y008965D02*
X017495Y009072D01*
X017602Y009072D01*
X017602Y008965D01*
X017495Y008965D01*
X017922Y008748D02*
X017495Y008321D01*
X017602Y009288D02*
X017495Y009394D01*
X017495Y009715D01*
X017602Y009932D02*
X017495Y010039D01*
X017495Y010252D01*
X017602Y010359D01*
X017815Y010359D01*
X017922Y010252D01*
X017922Y010039D01*
X017815Y009932D01*
X017602Y009932D01*
X017922Y009715D02*
X017922Y009394D01*
X017815Y009288D01*
X017602Y009288D01*
X017495Y010577D02*
X017922Y010577D01*
X017922Y010683D01*
X017815Y010790D01*
X017922Y010897D01*
X017815Y011004D01*
X017495Y011004D01*
X017495Y010790D02*
X017815Y010790D01*
D11*
X012569Y002672D02*
X012645Y002595D01*
X012645Y002288D01*
X012569Y002211D01*
X012415Y002211D01*
X012338Y002288D01*
X012338Y002442D01*
X012492Y002442D01*
X012338Y002595D02*
X012415Y002672D01*
X012569Y002672D01*
X012185Y002672D02*
X011878Y002211D01*
X011878Y002672D01*
X011724Y002672D02*
X011494Y002672D01*
X011418Y002595D01*
X011418Y002288D01*
X011494Y002211D01*
X011724Y002211D01*
X011724Y002672D01*
X012185Y002672D02*
X012185Y002211D01*
D12*
X006665Y003691D03*
X006665Y004691D03*
X006665Y005691D03*
X006665Y006691D03*
X006665Y007691D03*
X006665Y008691D03*
X006665Y009691D03*
X006665Y010691D03*
X006665Y011691D03*
X006665Y012691D03*
X006665Y013691D03*
X006665Y014691D03*
X006665Y015691D03*
X006665Y016691D03*
X003665Y016691D03*
X003665Y015691D03*
X003665Y014691D03*
X003665Y013691D03*
X003665Y012691D03*
X003665Y011691D03*
X003665Y010691D03*
X003665Y009691D03*
X003665Y008691D03*
X003665Y007691D03*
X003665Y006691D03*
X003665Y005691D03*
X003665Y004691D03*
X003665Y003691D03*
X009665Y006191D03*
X009665Y007191D03*
X009665Y008191D03*
X009665Y009191D03*
X009665Y010191D03*
X009665Y011191D03*
X009665Y012191D03*
X009665Y013191D03*
X009665Y014191D03*
X012665Y014191D03*
X012665Y013191D03*
X012665Y012191D03*
X012665Y011191D03*
X012665Y010191D03*
X012665Y009191D03*
X012665Y008191D03*
X012665Y007191D03*
X012665Y006191D03*
D13*
X014165Y013191D03*
D14*
X015165Y013191D03*
X016165Y013191D03*
X017165Y013191D03*
X014165Y007191D03*
X014165Y003191D03*
D15*
X016665Y004691D03*
D16*
X015665Y004691D03*
D17*
X016165Y006941D03*
X015665Y007691D03*
X016665Y007691D03*
X014165Y010191D03*
X014165Y011191D03*
X008165Y007441D03*
X008165Y005441D03*
X010165Y015691D03*
X012165Y015691D03*
D18*
X008915Y014941D03*
X007915Y014941D03*
X007915Y016691D03*
X008915Y016691D03*
X015665Y009441D03*
X016665Y009441D03*
X014665Y001691D03*
X013665Y001691D03*
X010665Y001691D03*
X009665Y001691D03*
X008665Y001691D03*
X007665Y001691D03*
D19*
X017165Y012191D03*
D20*
X001665Y011691D03*
X001665Y012691D03*
X001665Y013691D03*
X001665Y014691D03*
X001665Y015691D03*
X001665Y016691D03*
X001665Y010691D03*
X001665Y009691D03*
X001665Y008691D03*
X001665Y007691D03*
X001665Y006691D03*
X001665Y005691D03*
X001665Y004691D03*
X001665Y003691D03*
X001665Y002691D03*
X001665Y001691D03*
D21*
X007665Y001691D02*
X008665Y001691D01*
X009665Y001691D01*
X010665Y001691D01*
X010665Y004691D01*
X014165Y004691D01*
X015165Y003691D01*
X016665Y003691D01*
X016665Y004691D01*
X016665Y005691D01*
X016165Y006941D01*
X015665Y007691D02*
X014165Y007191D01*
X014165Y006191D01*
X015665Y004691D01*
X014165Y003191D02*
X014665Y002691D01*
X014665Y001691D01*
X013665Y001691D02*
X010665Y001691D01*
X010665Y004691D02*
X010665Y005691D01*
X010165Y005691D01*
X009665Y006191D01*
X008165Y006191D01*
X007165Y007691D01*
X006665Y007691D01*
X005165Y007691D01*
X004665Y009691D01*
X003665Y009691D01*
X005165Y010441D02*
X005665Y008691D01*
X006665Y008691D01*
X005165Y010441D02*
X005165Y016691D01*
X005165Y017691D01*
X012165Y017691D01*
X012165Y015691D01*
X016165Y015691D01*
X016165Y013191D01*
X016165Y011191D01*
X016665Y009441D01*
X016665Y007691D01*
X015665Y007691D02*
X015665Y009441D01*
X017165Y012191D02*
X017165Y013191D01*
X012665Y014191D02*
X012665Y015191D01*
X012165Y015691D01*
X010165Y015691D02*
X009665Y015191D01*
X008915Y014941D01*
X009665Y015191D02*
X009665Y014191D01*
X011165Y014191D01*
X011665Y013691D01*
X005165Y016691D02*
X003665Y016691D01*
X008165Y006191D02*
X008165Y005441D01*
D22*
X008165Y007441D02*
X006915Y008691D01*
X006665Y008691D01*
X006665Y009691D02*
X007165Y009691D01*
X008415Y008191D01*
X008915Y007691D01*
X010665Y007691D01*
X012665Y006191D01*
X012665Y007191D02*
X010415Y008691D01*
X008915Y008691D01*
X007165Y010691D01*
X006665Y010691D01*
X006665Y011691D02*
X010665Y011691D01*
X010665Y009191D01*
X012665Y008191D01*
X012665Y009191D02*
X011165Y009691D01*
X011165Y011691D01*
X010665Y012691D01*
X006665Y012691D01*
X006665Y013691D02*
X010665Y013691D01*
X011665Y012191D01*
X011665Y010191D01*
X012665Y010191D01*
X012665Y011191D02*
X014165Y010191D01*
X014165Y011191D02*
X012665Y012191D01*
X012665Y013191D02*
X014165Y012191D01*
X015165Y012191D01*
X015165Y013191D01*
X014165Y013191D02*
X013665Y013691D01*
X011665Y013691D01*
X008915Y014941D02*
X008915Y016691D01*
X007915Y016691D02*
X006665Y016691D01*
X006665Y015691D02*
X007415Y015691D01*
X007915Y014941D01*
D23*
X001665Y001691D02*
X002665Y001191D01*
X006165Y001191D01*
X006165Y003691D01*
X006665Y003691D01*
X006665Y004691D02*
X005665Y004691D01*
X005665Y001691D01*
X003165Y001691D01*
X001665Y002691D01*
X002665Y003441D02*
X002665Y003941D01*
X001665Y004691D01*
X001665Y005691D02*
X002665Y004941D01*
X002665Y004441D01*
X003665Y003691D01*
X003165Y002941D02*
X002665Y003441D01*
X003165Y002941D02*
X004665Y002941D01*
X004665Y006691D01*
X006665Y006691D01*
X006665Y005691D02*
X005165Y005691D01*
X005165Y002441D01*
X003165Y002441D01*
X001915Y003691D01*
X001665Y003691D01*
X002665Y005441D02*
X003665Y004691D01*
X002665Y005441D02*
X002665Y005941D01*
X001665Y006691D01*
X001665Y007691D02*
X002665Y006941D01*
X002665Y006441D01*
X003665Y005691D01*
X003665Y006691D02*
X002665Y007441D01*
X002665Y007941D01*
X001665Y008691D01*
X001665Y009691D02*
X002665Y008941D01*
X002665Y008441D01*
X003665Y007691D01*
X003665Y008691D02*
X002665Y009441D01*
X002665Y009941D01*
X001665Y010691D01*
X001665Y011691D02*
X003665Y010691D01*
X003665Y011691D02*
X001665Y012691D01*
X001665Y013691D02*
X003665Y012691D01*
X003665Y013691D02*
X001665Y014691D01*
X001665Y015691D02*
X003665Y014691D01*
X003665Y015691D02*
X001665Y016691D01*
M02*
