%
M48
M72
T01C0.0240
T02C0.0320
T03C0.0400
%
T01
X8165Y5441
X8165Y7441
X14165Y10191
X14165Y11191
X14165Y13191
X15165Y13191
X16165Y13191
X17165Y13191
X12165Y15691
X10165Y15691
X15665Y7691
X16665Y7691
X16165Y6941
T02
X14165Y7191
X12665Y7191
X12665Y6191
X9665Y6191
X9665Y7191
X9665Y8191
X9665Y9191
X9665Y10191
X9665Y11191
X9665Y12191
X9665Y13191
X9665Y14191
X12665Y14191
X12665Y13191
X12665Y12191
X12665Y11191
X12665Y10191
X12665Y9191
X12665Y8191
X6665Y7691
X6665Y8691
X6665Y9691
X6665Y10691
X6665Y11691
X6665Y12691
X6665Y13691
X6665Y14691
X6665Y15691
X6665Y16691
X3665Y16691
X3665Y15691
X3665Y14691
X3665Y13691
X3665Y12691
X3665Y11691
X3665Y10691
X3665Y9691
X3665Y8691
X3665Y7691
X3665Y6691
X3665Y5691
X3665Y4691
X3665Y3691
X6665Y3691
X6665Y4691
X6665Y5691
X6665Y6691
X14165Y3191
X15665Y4691
X16665Y4691
T03
X1665Y1691
X1665Y2691
X1665Y3691
X1665Y4691
X1665Y5691
X1665Y6691
X1665Y7691
X1665Y8691
X1665Y9691
X1665Y10691
X1665Y11691
X1665Y12691
X1665Y13691
X1665Y14691
X1665Y15691
X1665Y16691
X7915Y16691
X8915Y16691
X8915Y14941
X7915Y14941
X17165Y12191
X16665Y9441
X15665Y9441
X14665Y1691
X13665Y1691
X10665Y1691
X9665Y1691
X8665Y1691
X7665Y1691
M30
