G75*
G70*
%OFA0B0*%
%FSLAX24Y24*%
%IPPOS*%
%LPD*%
%AMOC8*
5,1,8,0,0,1.08239X$1,22.5*
%
%ADD10O,0.1280X0.0680*%
%ADD11R,0.0740X0.0740*%
%ADD12C,0.0740*%
%ADD13OC8,0.0710*%
%ADD14C,0.0710*%
%ADD15OC8,0.0600*%
%ADD16O,0.0760X0.1440*%
%ADD17O,0.0830X0.1580*%
%ADD18O,0.1440X0.0760*%
D10*
X003665Y003691D03*
X003665Y004691D03*
X003665Y005691D03*
X003665Y006691D03*
X003665Y007691D03*
X003665Y008691D03*
X003665Y009691D03*
X003665Y010691D03*
X003665Y011691D03*
X003665Y012691D03*
X003665Y013691D03*
X003665Y014691D03*
X003665Y015691D03*
X003665Y016691D03*
X006665Y016691D03*
X006665Y015691D03*
X006665Y014691D03*
X006665Y013691D03*
X006665Y012691D03*
X006665Y011691D03*
X006665Y010691D03*
X006665Y009691D03*
X006665Y008691D03*
X006665Y007691D03*
X006665Y006691D03*
X006665Y005691D03*
X006665Y004691D03*
X006665Y003691D03*
X009665Y006191D03*
X009665Y007191D03*
X009665Y008191D03*
X009665Y009191D03*
X009665Y010191D03*
X009665Y011191D03*
X009665Y012191D03*
X009665Y013191D03*
X009665Y014191D03*
X012665Y014191D03*
X012665Y013191D03*
X012665Y012191D03*
X012665Y011191D03*
X012665Y010191D03*
X012665Y009191D03*
X012665Y008191D03*
X012665Y007191D03*
X012665Y006191D03*
D11*
X014165Y013191D03*
D12*
X015165Y013191D03*
X016165Y013191D03*
X017165Y013191D03*
X014165Y007191D03*
X014165Y003191D03*
D13*
X016665Y004691D03*
D14*
X015665Y004691D03*
D15*
X016165Y006941D03*
X015665Y007691D03*
X016665Y007691D03*
X014165Y010191D03*
X014165Y011191D03*
X008165Y007441D03*
X008165Y005441D03*
X010165Y015691D03*
X012165Y015691D03*
D16*
X008915Y014941D03*
X007915Y014941D03*
X007915Y016691D03*
X008915Y016691D03*
X015665Y009441D03*
X016665Y009441D03*
X014665Y001691D03*
X013665Y001691D03*
X010665Y001691D03*
X009665Y001691D03*
X008665Y001691D03*
X007665Y001691D03*
D17*
X017165Y012191D03*
D18*
X001665Y001691D03*
X001665Y002691D03*
X001665Y003691D03*
X001665Y004691D03*
X001665Y005691D03*
X001665Y006691D03*
X001665Y007691D03*
X001665Y008691D03*
X001665Y009691D03*
X001665Y010691D03*
X001665Y011691D03*
X001665Y012691D03*
X001665Y013691D03*
X001665Y014691D03*
X001665Y015691D03*
X001665Y016691D03*
M02*
