%
M48
M72
T01C0.0276
T02C0.0315
T03C0.0320
T04C0.0360
T05C0.0400
T06C0.0440
T07C0.1260
%
T01
X3324Y2151
X12199Y5464
X12699Y5776
X13074Y5339
X14762Y8714
X12512Y2026
X2262Y8714
T02
X3012Y8464
X4012Y8464
X5012Y8464
X6012Y8464
X7012Y8464
X8012Y8464
X9012Y8464
X10012Y8464
X11012Y8464
X12012Y8464
X13012Y8464
X14012Y8464
X14512Y7464
X13512Y7464
X12512Y7464
X11512Y7464
X10512Y7464
X9512Y7464
X8512Y7464
X7512Y7464
X6512Y7464
X5512Y7464
X4512Y7464
X3512Y7464
X2512Y7464
T03
X3762Y6589
X4824Y6589
X4824Y5589
X3762Y5589
X8981Y4401
X10112Y3901
X10912Y3901
X12012Y4651
X13012Y4651
X13012Y3026
X12012Y3026
X8981Y3401
T04
X9012Y1464
X10012Y1464
X11012Y1464
X12012Y1464
X13012Y1464
X8012Y1464
X7012Y1464
X6012Y1464
X5012Y1464
X4012Y1464
X2512Y5589
X2512Y6589
X5762Y5964
X7262Y5964
X9012Y5964
X10512Y5964
T05
X7512Y4089
X6512Y4089
X5512Y4089
X4512Y4089
X3512Y4089
X2512Y4089
X2512Y3089
X3512Y3089
X4512Y3089
X5512Y3089
X6512Y3089
X7512Y3089
T06
X14512Y3464
X14512Y4464
X14512Y5464
T07
X2512Y1464
X14512Y1464
M30
