G75*
G70*
%OFA0B0*%
%FSLAX24Y24*%
%IPPOS*%
%LPD*%
%AMOC8*
5,1,8,0,0,1.08239X$1,22.5*
%
%ADD10C,0.1340*%
%ADD11OC8,0.0595*%
%ADD12OC8,0.0710*%
%ADD13OC8,0.0600*%
%ADD14C,0.0600*%
%ADD15C,0.0710*%
%ADD16OC8,0.0640*%
%ADD17R,0.0680X0.0680*%
%ADD18OC8,0.0680*%
%ADD19OC8,0.0740*%
%ADD20C,0.0516*%
D10*
X002512Y001464D03*
X014512Y001464D03*
D11*
X014512Y007464D03*
X013512Y007464D03*
X012512Y007464D03*
X011512Y007464D03*
X010512Y007464D03*
X009512Y007464D03*
X008512Y007464D03*
X007512Y007464D03*
X006512Y007464D03*
X005512Y007464D03*
X004512Y007464D03*
X003512Y007464D03*
X002512Y007464D03*
X003012Y008464D03*
X004012Y008464D03*
X005012Y008464D03*
X006012Y008464D03*
X007012Y008464D03*
X008012Y008464D03*
X009012Y008464D03*
X010012Y008464D03*
X011012Y008464D03*
X012012Y008464D03*
X013012Y008464D03*
X014012Y008464D03*
D12*
X013012Y004651D03*
X013012Y001464D03*
X012012Y001464D03*
X011012Y001464D03*
X010012Y001464D03*
X009012Y001464D03*
X008012Y001464D03*
X007012Y001464D03*
X006012Y001464D03*
X005012Y001464D03*
X004012Y001464D03*
X002512Y005589D03*
X002512Y006589D03*
D13*
X003762Y006589D03*
X004824Y006589D03*
X004824Y005589D03*
X003762Y005589D03*
X008981Y004401D03*
X008981Y003401D03*
X010912Y003901D03*
X012012Y003026D03*
X013012Y003026D03*
D14*
X010112Y003901D03*
D15*
X012012Y004651D03*
D16*
X010512Y005964D03*
X009012Y005964D03*
X007262Y005964D03*
X005762Y005964D03*
D17*
X002512Y003089D03*
D18*
X003512Y003089D03*
X004512Y003089D03*
X005512Y003089D03*
X006512Y003089D03*
X007512Y003089D03*
X007512Y004089D03*
X006512Y004089D03*
X005512Y004089D03*
X004512Y004089D03*
X003512Y004089D03*
X002512Y004089D03*
D19*
X014512Y004464D03*
X014512Y003464D03*
X014512Y005464D03*
D20*
X013074Y005339D03*
X012699Y005776D03*
X012199Y005464D03*
X014762Y008714D03*
X012512Y002026D03*
X003324Y002151D03*
X002262Y008714D03*
M02*
