G75*
G70*
%OFA0B0*%
%FSLAX24Y24*%
%IPPOS*%
%LPD*%
%AMOC8*
5,1,8,0,0,1.08239X$1,22.5*
%
%ADD10OC8,0.0575*%
%ADD11OC8,0.0630*%
%ADD12OC8,0.0580*%
%ADD13C,0.0580*%
%ADD14C,0.0630*%
%ADD15OC8,0.0620*%
%ADD16R,0.0660X0.0660*%
%ADD17OC8,0.0660*%
%ADD18OC8,0.0700*%
%ADD19C,0.0240*%
%ADD20C,0.0160*%
%ADD21C,0.0500*%
%ADD22C,0.0660*%
%ADD23C,0.0320*%
%ADD24C,0.0860*%
%ADD25C,0.0700*%
%ADD26C,0.0560*%
%ADD27C,0.0300*%
%ADD28C,0.0100*%
%ADD29C,0.0436*%
%ADD30C,0.0460*%
%ADD31C,0.0400*%
D10*
X002512Y007464D03*
X003512Y007464D03*
X004512Y007464D03*
X005512Y007464D03*
X006512Y007464D03*
X007512Y007464D03*
X008512Y007464D03*
X009512Y007464D03*
X010512Y007464D03*
X011512Y007464D03*
X012512Y007464D03*
X013512Y007464D03*
X014512Y007464D03*
X014012Y008464D03*
X013012Y008464D03*
X012012Y008464D03*
X011012Y008464D03*
X010012Y008464D03*
X009012Y008464D03*
X008012Y008464D03*
X007012Y008464D03*
X006012Y008464D03*
X005012Y008464D03*
X004012Y008464D03*
X003012Y008464D03*
D11*
X002512Y006589D03*
X002512Y005589D03*
X004012Y001464D03*
X005012Y001464D03*
X006012Y001464D03*
X007012Y001464D03*
X008012Y001464D03*
X009012Y001464D03*
X010012Y001464D03*
X011012Y001464D03*
X012012Y001464D03*
X013012Y001464D03*
X013012Y004651D03*
D12*
X010912Y003901D03*
X012012Y003026D03*
X013012Y003026D03*
X008981Y003401D03*
X008981Y004401D03*
X004824Y005589D03*
X003762Y005589D03*
X003762Y006589D03*
X004824Y006589D03*
D13*
X010112Y003901D03*
D14*
X012012Y004651D03*
D15*
X010512Y005964D03*
X009012Y005964D03*
X007262Y005964D03*
X005762Y005964D03*
D16*
X002512Y003089D03*
D17*
X003512Y003089D03*
X004512Y003089D03*
X005512Y003089D03*
X006512Y003089D03*
X007512Y003089D03*
X007512Y004089D03*
X006512Y004089D03*
X005512Y004089D03*
X004512Y004089D03*
X003512Y004089D03*
X002512Y004089D03*
D18*
X014512Y004464D03*
X014512Y003464D03*
X014512Y005464D03*
D19*
X013074Y005339D02*
X012762Y005339D01*
X012574Y005151D01*
X012074Y004651D01*
X012012Y004651D01*
X011137Y004651D02*
X011137Y004651D01*
X011137Y006276D01*
X010512Y006901D01*
X010324Y006901D01*
X010012Y007214D01*
X010012Y008464D01*
X009512Y008839D02*
X009512Y007714D01*
X009012Y008089D02*
X009012Y006589D01*
X008512Y006464D02*
X008387Y006339D01*
X008387Y005714D01*
X009512Y004651D01*
X009512Y003651D01*
X009949Y003214D01*
X010262Y003214D01*
X010512Y003214D01*
X012012Y001714D01*
X012012Y001464D01*
X012512Y002026D02*
X012074Y002464D01*
X011762Y002464D01*
X010887Y003339D01*
X010887Y003526D01*
X010699Y003714D02*
X011074Y004151D01*
X010762Y004214D02*
X010699Y004089D01*
X010699Y003714D01*
X010387Y002839D02*
X011012Y002214D01*
X011012Y001464D01*
X010012Y001464D02*
X010012Y002214D01*
X009762Y002464D01*
X008637Y002464D01*
X008074Y003026D01*
X008074Y004714D01*
X007387Y005401D01*
X007012Y005401D01*
X006512Y005901D01*
X006512Y006151D01*
X006512Y006714D01*
X006512Y006964D01*
X006512Y007214D01*
X006512Y007464D01*
X008012Y008464D02*
X008012Y005776D01*
X008012Y005276D01*
X008012Y005276D01*
X008449Y004839D01*
X008449Y003151D01*
X008762Y002839D01*
X010387Y002839D01*
X008887Y001651D02*
X008449Y002089D01*
X007012Y002089D01*
X008887Y001464D02*
X009012Y001464D01*
X009012Y001464D01*
X012512Y002714D02*
X012512Y003276D01*
X011137Y004651D01*
X011137Y004651D01*
X008981Y004401D02*
X008981Y004401D01*
X008512Y006464D02*
X008512Y007464D01*
X011012Y007214D02*
X011012Y007964D01*
X011293Y007995D02*
X011356Y008120D01*
X011449Y008182D02*
X011637Y007995D01*
X011293Y007995D01*
X011637Y007995D02*
X011731Y007995D01*
X012012Y007714D01*
X012012Y007214D01*
X011762Y006964D01*
X012012Y006964D01*
X012012Y007214D01*
X011762Y006964D02*
X011574Y006839D01*
X011512Y006714D01*
X011762Y006964D01*
X011512Y006714D02*
X011012Y007214D01*
X005762Y005964D02*
X005762Y004651D01*
X005449Y005901D02*
X005762Y005964D01*
X005574Y005964D02*
X005512Y005964D01*
X005512Y005964D01*
X005449Y005901D02*
X005449Y006151D01*
X012512Y002714D02*
X013012Y002214D01*
X013012Y001464D01*
D20*
X010912Y003901D02*
X011074Y004151D01*
X010699Y004151D02*
X010699Y004089D01*
X010699Y004026D01*
X010699Y004089D02*
X010512Y004276D01*
X010512Y004464D01*
X008981Y004401D02*
X008981Y004401D01*
X007762Y003589D02*
X007199Y003589D01*
X007012Y003776D01*
X006824Y003589D01*
X006199Y003589D01*
X006012Y003401D01*
X005824Y003589D01*
X006012Y003776D01*
X006012Y004401D01*
X006012Y003776D01*
X006199Y003589D01*
X006012Y003589D01*
X005824Y003589D01*
X005199Y003589D01*
X005012Y003401D01*
X005012Y002839D01*
X004824Y003589D02*
X004199Y003589D01*
X004012Y003401D01*
X004012Y002776D01*
X004699Y002089D01*
X005762Y002089D01*
X006012Y001839D01*
X006012Y001464D01*
X007012Y001776D02*
X006012Y002776D01*
X006012Y003401D01*
X006012Y003526D02*
X006012Y003589D01*
X006012Y003651D01*
X005824Y003589D02*
X005512Y003589D01*
X005012Y003776D02*
X005012Y004401D01*
X004762Y004651D01*
X004606Y004651D01*
X004293Y004964D01*
X004293Y006776D01*
X003949Y007120D01*
X003856Y007120D01*
X003512Y007464D01*
X003231Y007964D02*
X003012Y007745D01*
X003012Y007089D01*
X002512Y006589D01*
X003262Y005839D02*
X003262Y005339D01*
X003418Y005182D01*
X003418Y004807D01*
X003012Y004401D01*
X003012Y002839D01*
X003262Y002589D01*
X003762Y002589D01*
X004012Y002339D01*
X004012Y001464D01*
X003512Y001964D02*
X003324Y002151D01*
X002887Y002589D01*
X002012Y002589D01*
X002012Y005589D01*
X002512Y005589D01*
X002637Y005464D01*
X002012Y005589D02*
X002012Y008214D01*
X002387Y008589D01*
X002262Y008714D01*
X002387Y008589D02*
X002762Y008964D01*
X005012Y008964D01*
X005012Y008651D01*
X005012Y008464D02*
X005012Y007214D01*
X005387Y006807D01*
X005387Y006182D01*
X005449Y006151D01*
X005762Y005964D02*
X005387Y005589D01*
X004824Y005589D01*
X003762Y005589D02*
X003762Y004776D01*
X003762Y004714D01*
X004012Y004464D01*
X004012Y003776D01*
X003512Y003276D01*
X003512Y003089D01*
X004824Y003589D02*
X005012Y003776D01*
X005762Y004651D02*
X006012Y004401D01*
X007012Y004464D02*
X007012Y003776D01*
X007012Y003651D02*
X007012Y003589D01*
X006824Y003589D01*
X007012Y003401D01*
X007012Y002089D01*
X008887Y001651D02*
X009012Y001526D01*
X009012Y001464D01*
X007012Y003401D02*
X007199Y003589D01*
X007012Y003589D01*
X007012Y003526D01*
X003762Y006339D02*
X003262Y005839D01*
X003762Y006339D02*
X003762Y006589D01*
X004293Y007464D02*
X004512Y007464D01*
X004293Y007464D02*
X003793Y007964D01*
X003231Y007964D01*
X005012Y008964D02*
X007012Y008964D01*
X007012Y008651D01*
X007012Y008964D02*
X009512Y008964D01*
X014262Y008964D01*
X014637Y008589D01*
X014762Y008714D01*
X014637Y008589D02*
X015012Y008214D01*
X015012Y006964D01*
X013637Y005589D01*
X013637Y005276D01*
X013074Y004714D01*
X013887Y004464D02*
X014512Y004464D01*
X012762Y005839D02*
X012762Y006964D01*
X013012Y007214D01*
X013012Y007714D01*
X012762Y007964D01*
X012512Y007964D01*
X012012Y008464D01*
X012512Y007464D02*
X012512Y006714D01*
X012199Y006401D01*
X012199Y005464D01*
X012699Y005776D02*
X012762Y005839D01*
X009512Y008839D02*
X009512Y008964D01*
D21*
X009012Y008464D02*
X009012Y008089D01*
X009512Y007714D02*
X009512Y007464D01*
X009512Y006964D01*
X010512Y005964D01*
X010199Y005964D01*
X010387Y005839D02*
X010512Y005964D01*
X010637Y006089D01*
X010637Y005839D01*
X010512Y005776D02*
X010512Y005964D01*
X010512Y004464D01*
X009012Y005964D02*
X009012Y006589D01*
X007512Y006214D02*
X007512Y007464D01*
X007512Y006214D02*
X007262Y005964D01*
X005762Y005964D02*
X005574Y005964D01*
X011012Y007964D02*
X011012Y008464D01*
X011356Y008120D01*
X013074Y004714D02*
X013074Y004651D01*
X013012Y004651D01*
X013324Y004651D01*
X013324Y004714D01*
X013074Y004714D01*
X013012Y003651D02*
X013012Y003026D01*
X013387Y002651D01*
X013543Y003026D02*
X013012Y003026D01*
X013324Y003151D01*
D22*
X013012Y003651D02*
X013012Y004276D01*
X012824Y004464D01*
X013012Y004651D01*
X009137Y001776D02*
X008824Y001776D01*
X008824Y001464D01*
X008887Y001464D01*
X008824Y001339D02*
X009137Y001339D01*
X009137Y001776D01*
X002637Y005464D02*
X002324Y005464D01*
X002324Y005714D01*
X002637Y005714D02*
X002637Y005464D01*
D23*
X010699Y004151D02*
X011074Y004151D01*
X011199Y004026D01*
X011199Y003839D01*
X010887Y003526D01*
X010699Y003714D02*
X010699Y004026D01*
X013012Y004276D02*
X013199Y004464D01*
D24*
X014512Y004464D01*
X014637Y004464D01*
X007012Y008214D02*
X007012Y008464D01*
X005012Y008464D02*
X005012Y008214D01*
D25*
X005012Y008464D02*
X005012Y008651D01*
X007012Y008651D02*
X007012Y008464D01*
D26*
X007012Y001776D02*
X006887Y001714D01*
X007168Y001714D01*
X007012Y001464D01*
X007168Y001464D01*
X007168Y001370D01*
X007012Y001214D01*
X006856Y001339D02*
X006856Y001620D01*
X007012Y001464D01*
D27*
X006074Y005714D02*
X005512Y005714D01*
X005762Y005964D01*
X005512Y005964D02*
X005512Y006339D01*
X006074Y006339D01*
X006074Y005714D01*
D28*
X001722Y008448D02*
X001722Y001751D01*
X001800Y001939D01*
X002036Y002176D01*
X002345Y002304D01*
X002679Y002304D01*
X002988Y002176D01*
X003224Y001939D01*
X003352Y001631D01*
X003352Y001297D01*
X003224Y000988D01*
X002988Y000752D01*
X002804Y000676D01*
X014220Y000676D01*
X014036Y000752D01*
X013800Y000988D01*
X013672Y001297D01*
X013672Y001631D01*
X013800Y001939D01*
X014036Y002176D01*
X014345Y002304D01*
X014679Y002304D01*
X014988Y002176D01*
X015224Y001939D01*
X015287Y001787D01*
X015287Y002839D01*
X014262Y002839D01*
X013887Y003214D01*
X013887Y003714D01*
X014221Y004048D01*
X014012Y004256D01*
X014012Y004414D01*
X014462Y004414D01*
X014462Y004514D01*
X014012Y004514D01*
X014012Y004671D01*
X014221Y004880D01*
X013887Y005214D01*
X013887Y005714D01*
X014262Y006089D01*
X015287Y006089D01*
X015287Y008439D01*
X015287Y008526D01*
X015285Y008584D01*
X015267Y008698D01*
X015231Y008808D01*
X015178Y008910D01*
X015111Y009004D01*
X015029Y009085D01*
X014936Y009153D01*
X014833Y009206D01*
X014723Y009241D01*
X014609Y009259D01*
X014551Y009262D01*
X002535Y009262D01*
X002471Y009259D01*
X002345Y009239D01*
X002224Y009200D01*
X002110Y009142D01*
X002007Y009067D01*
X001917Y008976D01*
X001842Y008873D01*
X001784Y008760D01*
X001744Y008638D01*
X001724Y008512D01*
X001722Y008448D01*
X001722Y008446D02*
X002514Y008446D01*
X002514Y008544D02*
X001729Y008544D01*
X001746Y008643D02*
X002514Y008643D01*
X002514Y008670D02*
X002514Y008258D01*
X002806Y007966D01*
X002823Y007966D01*
X002820Y007963D01*
X002807Y007950D01*
X002768Y007911D01*
X002718Y007961D01*
X002306Y007961D01*
X002014Y007670D01*
X002014Y007258D01*
X002226Y007046D01*
X001987Y006806D01*
X001987Y006371D01*
X002294Y006064D01*
X002729Y006064D01*
X003037Y006371D01*
X003037Y006704D01*
X003132Y006799D01*
X003302Y006969D01*
X003302Y006970D01*
X003306Y006966D01*
X003432Y006966D01*
X003262Y006796D01*
X003262Y006381D01*
X003328Y006315D01*
X003142Y006129D01*
X002972Y005959D01*
X002972Y005786D01*
X002704Y006054D01*
X002552Y006054D01*
X002552Y005629D01*
X002472Y005629D01*
X002472Y006054D01*
X002319Y006054D01*
X002047Y005781D01*
X002047Y005629D01*
X002472Y005629D01*
X002472Y005549D01*
X002047Y005549D01*
X002047Y005396D01*
X002319Y005124D01*
X002472Y005124D01*
X002472Y005548D01*
X002552Y005548D01*
X002552Y005124D01*
X002704Y005124D01*
X002972Y005391D01*
X002972Y005219D01*
X003128Y005062D01*
X003128Y004927D01*
X002782Y004582D01*
X002735Y004629D01*
X002288Y004629D01*
X001972Y004312D01*
X001972Y003865D01*
X002208Y003629D01*
X002095Y003629D01*
X001972Y003506D01*
X001972Y002672D01*
X002095Y002549D01*
X002892Y002549D01*
X003142Y002299D01*
X003382Y002299D01*
X003642Y002299D01*
X003722Y002219D01*
X003722Y001916D01*
X003487Y001681D01*
X003487Y001246D01*
X003794Y000939D01*
X004229Y000939D01*
X004512Y001221D01*
X004794Y000939D01*
X005229Y000939D01*
X005512Y001221D01*
X005794Y000939D01*
X006229Y000939D01*
X006537Y001246D01*
X006537Y001681D01*
X006302Y001916D01*
X006302Y001959D01*
X006132Y002129D01*
X005882Y002379D01*
X005642Y002379D01*
X004819Y002379D01*
X004649Y002549D01*
X004735Y002549D01*
X005012Y002825D01*
X005288Y002549D01*
X005735Y002549D01*
X006012Y002825D01*
X006288Y002549D01*
X006735Y002549D01*
X007012Y002825D01*
X007288Y002549D01*
X007735Y002549D01*
X007910Y002724D01*
X008307Y002327D01*
X008500Y002134D01*
X009625Y002134D01*
X009682Y002077D01*
X009682Y001876D01*
X009487Y001681D01*
X009487Y001246D01*
X009794Y000939D01*
X010229Y000939D01*
X010512Y001221D01*
X010794Y000939D01*
X011229Y000939D01*
X011512Y001221D01*
X011794Y000939D01*
X012229Y000939D01*
X012512Y001221D01*
X012794Y000939D01*
X013229Y000939D01*
X013537Y001246D01*
X013537Y001681D01*
X013342Y001876D01*
X013342Y002350D01*
X013299Y002393D01*
X013106Y002586D01*
X013194Y002586D01*
X013452Y002844D01*
X013452Y002996D01*
X013042Y002996D01*
X013042Y003056D01*
X013452Y003056D01*
X013452Y003208D01*
X013194Y003466D01*
X013042Y003466D01*
X013042Y003056D01*
X012982Y003056D01*
X012982Y003466D01*
X012830Y003466D01*
X012809Y003446D01*
X012125Y004130D01*
X012309Y004206D01*
X012457Y004354D01*
X012537Y004547D01*
X012537Y004647D01*
X012571Y004681D01*
X012982Y004681D01*
X012982Y004621D01*
X013042Y004621D01*
X013042Y004681D01*
X013477Y004681D01*
X013477Y004844D01*
X013331Y004990D01*
X013437Y005096D01*
X013502Y005254D01*
X013502Y005424D01*
X013437Y005581D01*
X013317Y005701D01*
X013159Y005766D01*
X013127Y005766D01*
X013127Y005861D01*
X013062Y006018D01*
X013052Y006029D01*
X013052Y006844D01*
X013132Y006924D01*
X013240Y007032D01*
X013306Y006966D01*
X013718Y006966D01*
X014009Y007258D01*
X014009Y007670D01*
X013718Y007961D01*
X013306Y007961D01*
X013240Y007895D01*
X013169Y007966D01*
X013218Y007966D01*
X013509Y008258D01*
X013509Y008670D01*
X013218Y008961D01*
X012806Y008961D01*
X012514Y008670D01*
X012514Y008371D01*
X012509Y008376D01*
X012509Y008670D01*
X012218Y008961D01*
X011806Y008961D01*
X011514Y008670D01*
X011514Y008612D01*
X011509Y008617D01*
X011509Y008670D01*
X011218Y008961D01*
X010806Y008961D01*
X010514Y008670D01*
X010514Y008258D01*
X010552Y008220D01*
X010552Y007961D01*
X010342Y007961D01*
X010342Y008090D01*
X010509Y008258D01*
X010509Y008670D01*
X010218Y008961D01*
X009806Y008961D01*
X009514Y008670D01*
X009514Y008258D01*
X009682Y008090D01*
X009682Y007901D01*
X009541Y007901D01*
X009541Y007493D01*
X009483Y007493D01*
X009483Y007901D01*
X009472Y007901D01*
X009472Y008220D01*
X009509Y008258D01*
X009509Y008670D01*
X009218Y008961D01*
X008806Y008961D01*
X008514Y008670D01*
X008514Y008258D01*
X008552Y008220D01*
X008552Y007961D01*
X008342Y007961D01*
X008342Y008090D01*
X008509Y008258D01*
X008509Y008670D01*
X008218Y008961D01*
X007806Y008961D01*
X007514Y008670D01*
X007514Y008258D01*
X007682Y008090D01*
X007682Y007961D01*
X007306Y007961D01*
X007014Y007670D01*
X007014Y007258D01*
X007052Y007220D01*
X007052Y006484D01*
X007046Y006484D01*
X006842Y006279D01*
X006842Y006714D01*
X006842Y006767D01*
X006842Y006827D01*
X006842Y006964D01*
X006842Y006966D01*
X006842Y007090D01*
X007009Y007258D01*
X007009Y007670D01*
X006718Y007961D01*
X006306Y007961D01*
X006014Y007670D01*
X006014Y007258D01*
X006182Y007090D01*
X006182Y007077D01*
X006182Y006944D01*
X006182Y006850D01*
X006182Y006850D01*
X006182Y006800D01*
X006182Y006714D01*
X006182Y006577D01*
X006182Y006288D01*
X006182Y006288D01*
X006182Y006194D01*
X005952Y006424D01*
X005802Y006424D01*
X005802Y006004D01*
X005722Y006004D01*
X005722Y006424D01*
X005571Y006424D01*
X005302Y006154D01*
X005302Y006004D01*
X005722Y006004D01*
X005722Y005924D01*
X005302Y005924D01*
X005302Y005773D01*
X005571Y005504D01*
X005722Y005504D01*
X005722Y005923D01*
X005802Y005923D01*
X005802Y005504D01*
X005952Y005504D01*
X006197Y005749D01*
X006682Y005264D01*
X006875Y005071D01*
X007055Y005071D01*
X007250Y005071D01*
X007693Y004629D01*
X007288Y004629D01*
X007012Y004352D01*
X006735Y004629D01*
X006288Y004629D01*
X006012Y004352D01*
X005735Y004629D01*
X005288Y004629D01*
X005241Y004582D01*
X005217Y004606D01*
X005214Y004609D01*
X005132Y004691D01*
X005132Y004691D01*
X004884Y004939D01*
X004882Y004941D01*
X004882Y004941D01*
X004745Y004941D01*
X004726Y004941D01*
X004583Y005084D01*
X004583Y005208D01*
X004642Y005149D01*
X004794Y005149D01*
X004794Y005558D01*
X004854Y005558D01*
X004854Y005149D01*
X005007Y005149D01*
X005264Y005406D01*
X005264Y005559D01*
X004855Y005559D01*
X004855Y005619D01*
X005264Y005619D01*
X005264Y005771D01*
X005007Y006029D01*
X004854Y006029D01*
X004854Y005619D01*
X004794Y005619D01*
X004794Y006029D01*
X004642Y006029D01*
X004583Y005969D01*
X004583Y006123D01*
X004617Y006089D01*
X005031Y006089D01*
X005324Y006381D01*
X005324Y006796D01*
X005031Y007089D01*
X004840Y007089D01*
X005009Y007258D01*
X005009Y007670D01*
X004718Y007961D01*
X004306Y007961D01*
X004256Y007911D01*
X004201Y007966D01*
X004218Y007966D01*
X004509Y008258D01*
X004509Y008670D01*
X004218Y008961D01*
X003806Y008961D01*
X003514Y008670D01*
X003514Y008258D01*
X003518Y008254D01*
X003505Y008254D01*
X003509Y008258D01*
X003509Y008670D01*
X003218Y008961D01*
X002806Y008961D01*
X002514Y008670D01*
X002586Y008741D02*
X001778Y008741D01*
X001825Y008840D02*
X002684Y008840D01*
X002783Y008938D02*
X001889Y008938D01*
X001977Y009037D02*
X015077Y009037D01*
X015158Y008938D02*
X014241Y008938D01*
X014218Y008961D02*
X013806Y008961D01*
X013514Y008670D01*
X013514Y008258D01*
X013806Y007966D01*
X014218Y007966D01*
X014509Y008258D01*
X014509Y008670D01*
X014218Y008961D01*
X014339Y008840D02*
X015214Y008840D01*
X015252Y008741D02*
X014438Y008741D01*
X014509Y008643D02*
X015275Y008643D01*
X015286Y008544D02*
X014509Y008544D01*
X014509Y008446D02*
X015287Y008446D01*
X015287Y008347D02*
X014509Y008347D01*
X014500Y008249D02*
X015287Y008249D01*
X015287Y008150D02*
X014402Y008150D01*
X014303Y008051D02*
X015287Y008051D01*
X015287Y007953D02*
X014726Y007953D01*
X014718Y007961D02*
X014306Y007961D01*
X014014Y007670D01*
X014014Y007258D01*
X014306Y006966D01*
X014718Y006966D01*
X015009Y007258D01*
X015009Y007670D01*
X014718Y007961D01*
X014825Y007854D02*
X015287Y007854D01*
X015287Y007756D02*
X014923Y007756D01*
X015009Y007657D02*
X015287Y007657D01*
X015287Y007559D02*
X015009Y007559D01*
X015009Y007460D02*
X015287Y007460D01*
X015287Y007362D02*
X015009Y007362D01*
X015009Y007263D02*
X015287Y007263D01*
X015287Y007165D02*
X014916Y007165D01*
X014818Y007066D02*
X015287Y007066D01*
X015287Y006967D02*
X014719Y006967D01*
X014304Y006967D02*
X013719Y006967D01*
X013818Y007066D02*
X014206Y007066D01*
X014107Y007165D02*
X013916Y007165D01*
X014009Y007263D02*
X014014Y007263D01*
X014009Y007362D02*
X014014Y007362D01*
X014009Y007460D02*
X014014Y007460D01*
X014009Y007559D02*
X014014Y007559D01*
X014009Y007657D02*
X014014Y007657D01*
X014101Y007756D02*
X013923Y007756D01*
X013825Y007854D02*
X014199Y007854D01*
X014298Y007953D02*
X013726Y007953D01*
X013720Y008051D02*
X013303Y008051D01*
X013298Y007953D02*
X013183Y007953D01*
X013402Y008150D02*
X013622Y008150D01*
X013523Y008249D02*
X013500Y008249D01*
X013509Y008347D02*
X013514Y008347D01*
X013509Y008446D02*
X013514Y008446D01*
X013509Y008544D02*
X013514Y008544D01*
X013509Y008643D02*
X013514Y008643D01*
X013586Y008741D02*
X013438Y008741D01*
X013339Y008840D02*
X013684Y008840D01*
X013783Y008938D02*
X013241Y008938D01*
X012783Y008938D02*
X012241Y008938D01*
X012339Y008840D02*
X012684Y008840D01*
X012586Y008741D02*
X012438Y008741D01*
X012509Y008643D02*
X012514Y008643D01*
X012509Y008544D02*
X012514Y008544D01*
X012509Y008446D02*
X012514Y008446D01*
X011783Y008938D02*
X011241Y008938D01*
X011339Y008840D02*
X011684Y008840D01*
X011586Y008741D02*
X011438Y008741D01*
X011509Y008643D02*
X011514Y008643D01*
X010783Y008938D02*
X010241Y008938D01*
X010339Y008840D02*
X010684Y008840D01*
X010586Y008741D02*
X010438Y008741D01*
X010509Y008643D02*
X010514Y008643D01*
X010509Y008544D02*
X010514Y008544D01*
X010509Y008446D02*
X010514Y008446D01*
X010509Y008347D02*
X010514Y008347D01*
X010500Y008249D02*
X010523Y008249D01*
X010552Y008150D02*
X010402Y008150D01*
X010342Y008051D02*
X010552Y008051D01*
X009682Y008051D02*
X009472Y008051D01*
X009472Y007953D02*
X009682Y007953D01*
X009541Y007854D02*
X009483Y007854D01*
X009483Y007756D02*
X009541Y007756D01*
X009541Y007657D02*
X009483Y007657D01*
X009483Y007559D02*
X009541Y007559D01*
X009541Y007435D02*
X009541Y007026D01*
X009693Y007026D01*
X009713Y007046D01*
X009778Y006980D01*
X009799Y006960D01*
X009875Y006884D01*
X010188Y006571D01*
X010375Y006571D01*
X010552Y006394D01*
X010552Y006004D01*
X010472Y006004D01*
X010472Y006424D01*
X010321Y006424D01*
X010052Y006154D01*
X010052Y006004D01*
X010472Y006004D01*
X010472Y005924D01*
X010052Y005924D01*
X010052Y005773D01*
X010321Y005504D01*
X010472Y005504D01*
X010472Y005923D01*
X010552Y005923D01*
X010552Y005504D01*
X010702Y005504D01*
X010807Y005608D01*
X010807Y004788D01*
X010807Y004788D01*
X010807Y004514D01*
X010980Y004341D01*
X010942Y004341D01*
X010942Y003931D01*
X011352Y003931D01*
X011352Y003970D01*
X011800Y003521D01*
X011512Y003233D01*
X011512Y002819D01*
X011805Y002526D01*
X012219Y002526D01*
X012226Y002533D01*
X012682Y002077D01*
X012682Y001876D01*
X012512Y001706D01*
X012229Y001989D01*
X012203Y001989D01*
X012148Y002044D01*
X010731Y003461D01*
X010882Y003461D01*
X010882Y003871D01*
X010942Y003871D01*
X010942Y003931D01*
X010882Y003931D01*
X010882Y004341D01*
X010730Y004341D01*
X010547Y004158D01*
X010536Y004184D01*
X010395Y004325D01*
X010211Y004401D01*
X010012Y004401D01*
X009842Y004330D01*
X009842Y004514D01*
X009842Y004648D01*
X009842Y004651D01*
X009842Y004700D01*
X009842Y004788D01*
X009742Y004888D01*
X009649Y004981D01*
X009643Y004981D01*
X009153Y005444D01*
X009227Y005444D01*
X009532Y005748D01*
X009532Y006179D01*
X009472Y006239D01*
X009472Y006779D01*
X009342Y006909D01*
X009342Y007026D01*
X009483Y007026D01*
X009483Y007435D01*
X009541Y007435D01*
X009541Y007362D02*
X009483Y007362D01*
X009483Y007263D02*
X009541Y007263D01*
X009541Y007165D02*
X009483Y007165D01*
X009483Y007066D02*
X009541Y007066D01*
X009342Y006967D02*
X009791Y006967D01*
X009875Y006884D02*
X009875Y006884D01*
X009890Y006869D02*
X009382Y006869D01*
X009472Y006770D02*
X009988Y006770D01*
X010087Y006672D02*
X009472Y006672D01*
X009472Y006573D02*
X010185Y006573D01*
X010274Y006376D02*
X009472Y006376D01*
X009472Y006278D02*
X010175Y006278D01*
X010077Y006179D02*
X009532Y006179D01*
X009532Y006081D02*
X010052Y006081D01*
X010052Y005884D02*
X009532Y005884D01*
X009532Y005982D02*
X010472Y005982D01*
X010472Y005884D02*
X010552Y005884D01*
X010552Y005785D02*
X010472Y005785D01*
X010472Y005686D02*
X010552Y005686D01*
X010552Y005588D02*
X010472Y005588D01*
X010237Y005588D02*
X009371Y005588D01*
X009273Y005489D02*
X010807Y005489D01*
X010807Y005391D02*
X009209Y005391D01*
X009314Y005292D02*
X010807Y005292D01*
X010807Y005194D02*
X009418Y005194D01*
X009522Y005095D02*
X010807Y005095D01*
X010807Y004997D02*
X009627Y004997D01*
X009732Y004898D02*
X010807Y004898D01*
X010807Y004800D02*
X009830Y004800D01*
X009842Y004701D02*
X010807Y004701D01*
X010807Y004602D02*
X009842Y004602D01*
X009842Y004514D02*
X009842Y004514D01*
X009842Y004504D02*
X010817Y004504D01*
X010807Y004514D02*
X010807Y004514D01*
X010916Y004405D02*
X009842Y004405D01*
X009742Y004888D02*
X009742Y004888D01*
X010413Y004307D02*
X010695Y004307D01*
X010597Y004208D02*
X010512Y004208D01*
X010882Y004208D02*
X010942Y004208D01*
X010942Y004110D02*
X010882Y004110D01*
X010882Y004011D02*
X010942Y004011D01*
X010942Y003913D02*
X011409Y003913D01*
X011352Y003871D02*
X010942Y003871D01*
X010942Y003461D01*
X011094Y003461D01*
X011352Y003719D01*
X011352Y003871D01*
X011352Y003814D02*
X011507Y003814D01*
X011606Y003716D02*
X011349Y003716D01*
X011250Y003617D02*
X011704Y003617D01*
X011797Y003518D02*
X011151Y003518D01*
X010942Y003518D02*
X010882Y003518D01*
X010882Y003617D02*
X010942Y003617D01*
X010942Y003716D02*
X010882Y003716D01*
X010882Y003814D02*
X010942Y003814D01*
X010772Y003420D02*
X011699Y003420D01*
X011600Y003321D02*
X010871Y003321D01*
X010969Y003223D02*
X011512Y003223D01*
X011512Y003124D02*
X011068Y003124D01*
X011166Y003026D02*
X011512Y003026D01*
X011512Y002927D02*
X011265Y002927D01*
X011363Y002829D02*
X011512Y002829D01*
X011462Y002730D02*
X011601Y002730D01*
X011560Y002632D02*
X011699Y002632D01*
X011659Y002533D02*
X011798Y002533D01*
X011758Y002434D02*
X012324Y002434D01*
X012423Y002336D02*
X011856Y002336D01*
X011955Y002237D02*
X012521Y002237D01*
X012620Y002139D02*
X012053Y002139D01*
X012148Y002044D02*
X012148Y002044D01*
X012152Y002040D02*
X012682Y002040D01*
X012682Y001942D02*
X012276Y001942D01*
X012375Y001843D02*
X012649Y001843D01*
X012550Y001745D02*
X012473Y001745D01*
X013342Y001942D02*
X013802Y001942D01*
X013760Y001843D02*
X013375Y001843D01*
X013473Y001745D02*
X013719Y001745D01*
X013678Y001646D02*
X013537Y001646D01*
X013537Y001548D02*
X013672Y001548D01*
X013672Y001449D02*
X013537Y001449D01*
X013537Y001351D02*
X013672Y001351D01*
X013690Y001252D02*
X013537Y001252D01*
X013444Y001153D02*
X013731Y001153D01*
X013772Y001055D02*
X013346Y001055D01*
X013247Y000956D02*
X013831Y000956D01*
X013930Y000858D02*
X003094Y000858D01*
X003192Y000956D02*
X003777Y000956D01*
X003678Y001055D02*
X003252Y001055D01*
X003292Y001153D02*
X003580Y001153D01*
X003487Y001252D02*
X003333Y001252D01*
X003352Y001351D02*
X003487Y001351D01*
X003487Y001449D02*
X003352Y001449D01*
X003352Y001548D02*
X003487Y001548D01*
X003487Y001646D02*
X003345Y001646D01*
X003304Y001745D02*
X003550Y001745D01*
X003649Y001843D02*
X003264Y001843D01*
X003221Y001942D02*
X003722Y001942D01*
X003722Y002040D02*
X003123Y002040D01*
X003024Y002139D02*
X003722Y002139D01*
X003703Y002237D02*
X002838Y002237D01*
X003006Y002434D02*
X001722Y002434D01*
X001722Y002336D02*
X003104Y002336D01*
X002907Y002533D02*
X001722Y002533D01*
X001722Y002632D02*
X002012Y002632D01*
X001972Y002730D02*
X001722Y002730D01*
X001722Y002829D02*
X001972Y002829D01*
X001972Y002927D02*
X001722Y002927D01*
X001722Y003026D02*
X001972Y003026D01*
X001972Y003124D02*
X001722Y003124D01*
X001722Y003223D02*
X001972Y003223D01*
X001972Y003321D02*
X001722Y003321D01*
X001722Y003420D02*
X001972Y003420D01*
X001985Y003518D02*
X001722Y003518D01*
X001722Y003617D02*
X002083Y003617D01*
X002121Y003716D02*
X001722Y003716D01*
X001722Y003814D02*
X002023Y003814D01*
X001972Y003913D02*
X001722Y003913D01*
X001722Y004011D02*
X001972Y004011D01*
X001972Y004110D02*
X001722Y004110D01*
X001722Y004208D02*
X001972Y004208D01*
X001972Y004307D02*
X001722Y004307D01*
X001722Y004405D02*
X002065Y004405D01*
X002163Y004504D02*
X001722Y004504D01*
X001722Y004602D02*
X002262Y004602D01*
X002762Y004602D02*
X002803Y004602D01*
X002902Y004701D02*
X001722Y004701D01*
X001722Y004800D02*
X003000Y004800D01*
X003099Y004898D02*
X001722Y004898D01*
X001722Y004997D02*
X003128Y004997D01*
X003095Y005095D02*
X001722Y005095D01*
X001722Y005194D02*
X002249Y005194D01*
X002151Y005292D02*
X001722Y005292D01*
X001722Y005391D02*
X002052Y005391D01*
X002047Y005489D02*
X001722Y005489D01*
X001722Y005588D02*
X002472Y005588D01*
X002472Y005686D02*
X002552Y005686D01*
X002552Y005785D02*
X002472Y005785D01*
X002472Y005884D02*
X002552Y005884D01*
X002552Y005982D02*
X002472Y005982D01*
X002277Y006081D02*
X001722Y006081D01*
X001722Y006179D02*
X002179Y006179D01*
X002080Y006278D02*
X001722Y006278D01*
X001722Y006376D02*
X001987Y006376D01*
X001987Y006475D02*
X001722Y006475D01*
X001722Y006573D02*
X001987Y006573D01*
X001987Y006672D02*
X001722Y006672D01*
X001722Y006770D02*
X001987Y006770D01*
X002050Y006869D02*
X001722Y006869D01*
X001722Y006967D02*
X002148Y006967D01*
X002206Y007066D02*
X001722Y007066D01*
X001722Y007165D02*
X002107Y007165D01*
X002014Y007263D02*
X001722Y007263D01*
X001722Y007362D02*
X002014Y007362D01*
X002014Y007460D02*
X001722Y007460D01*
X001722Y007559D02*
X002014Y007559D01*
X002014Y007657D02*
X001722Y007657D01*
X001722Y007756D02*
X002101Y007756D01*
X002199Y007854D02*
X001722Y007854D01*
X001722Y007953D02*
X002298Y007953D01*
X002523Y008249D02*
X001722Y008249D01*
X001722Y008347D02*
X002514Y008347D01*
X002622Y008150D02*
X001722Y008150D01*
X001722Y008051D02*
X002720Y008051D01*
X002726Y007953D02*
X002810Y007953D01*
X003509Y008347D02*
X003514Y008347D01*
X003509Y008446D02*
X003514Y008446D01*
X003509Y008544D02*
X003514Y008544D01*
X003509Y008643D02*
X003514Y008643D01*
X003586Y008741D02*
X003438Y008741D01*
X003339Y008840D02*
X003684Y008840D01*
X003783Y008938D02*
X003241Y008938D01*
X002329Y009234D02*
X014746Y009234D01*
X014960Y009135D02*
X002101Y009135D01*
X004241Y008938D02*
X005783Y008938D01*
X005806Y008961D02*
X005514Y008670D01*
X005514Y008258D01*
X005806Y007966D01*
X006218Y007966D01*
X006509Y008258D01*
X006509Y008670D01*
X006218Y008961D01*
X005806Y008961D01*
X005684Y008840D02*
X005254Y008840D01*
X005193Y008901D02*
X005041Y008901D01*
X005041Y008493D01*
X004983Y008493D01*
X004983Y008901D01*
X004831Y008901D01*
X004574Y008645D01*
X004574Y008492D01*
X004983Y008492D01*
X004983Y008435D01*
X004574Y008435D01*
X004574Y008282D01*
X004831Y008026D01*
X004983Y008026D01*
X004983Y008435D01*
X005041Y008435D01*
X005041Y008492D01*
X005449Y008492D01*
X005449Y008645D01*
X005193Y008901D01*
X005041Y008840D02*
X004983Y008840D01*
X004983Y008741D02*
X005041Y008741D01*
X005041Y008643D02*
X004983Y008643D01*
X004983Y008544D02*
X005041Y008544D01*
X005041Y008446D02*
X005514Y008446D01*
X005449Y008435D02*
X005449Y008282D01*
X005193Y008026D01*
X005041Y008026D01*
X005041Y008435D01*
X005449Y008435D01*
X005449Y008347D02*
X005514Y008347D01*
X005523Y008249D02*
X005415Y008249D01*
X005317Y008150D02*
X005622Y008150D01*
X005720Y008051D02*
X005218Y008051D01*
X005306Y007961D02*
X005014Y007670D01*
X005014Y007258D01*
X005306Y006966D01*
X005718Y006966D01*
X006009Y007258D01*
X006009Y007670D01*
X005718Y007961D01*
X005306Y007961D01*
X005298Y007953D02*
X004726Y007953D01*
X004805Y008051D02*
X004303Y008051D01*
X004298Y007953D02*
X004214Y007953D01*
X004402Y008150D02*
X004707Y008150D01*
X004608Y008249D02*
X004500Y008249D01*
X004509Y008347D02*
X004574Y008347D01*
X004509Y008446D02*
X004983Y008446D01*
X004983Y008347D02*
X005041Y008347D01*
X005041Y008249D02*
X004983Y008249D01*
X004983Y008150D02*
X005041Y008150D01*
X005041Y008051D02*
X004983Y008051D01*
X004825Y007854D02*
X005199Y007854D01*
X005101Y007756D02*
X004923Y007756D01*
X005009Y007657D02*
X005014Y007657D01*
X005009Y007559D02*
X005014Y007559D01*
X005009Y007460D02*
X005014Y007460D01*
X005009Y007362D02*
X005014Y007362D01*
X005009Y007263D02*
X005014Y007263D01*
X005107Y007165D02*
X004916Y007165D01*
X005054Y007066D02*
X005206Y007066D01*
X005152Y006967D02*
X005304Y006967D01*
X005251Y006869D02*
X006182Y006869D01*
X006182Y006967D02*
X005719Y006967D01*
X005818Y007066D02*
X006182Y007066D01*
X006182Y007077D02*
X006182Y007077D01*
X006107Y007165D02*
X005916Y007165D01*
X006009Y007263D02*
X006014Y007263D01*
X006009Y007362D02*
X006014Y007362D01*
X006009Y007460D02*
X006014Y007460D01*
X006009Y007559D02*
X006014Y007559D01*
X006009Y007657D02*
X006014Y007657D01*
X006101Y007756D02*
X005923Y007756D01*
X005825Y007854D02*
X006199Y007854D01*
X006298Y007953D02*
X005726Y007953D01*
X006303Y008051D02*
X006805Y008051D01*
X006831Y008026D02*
X006574Y008282D01*
X006574Y008435D01*
X006983Y008435D01*
X006983Y008492D01*
X006574Y008492D01*
X006574Y008645D01*
X006831Y008901D01*
X006983Y008901D01*
X006983Y008493D01*
X007041Y008493D01*
X007041Y008901D01*
X007193Y008901D01*
X007449Y008645D01*
X007449Y008492D01*
X007041Y008492D01*
X007041Y008435D01*
X007449Y008435D01*
X007449Y008282D01*
X007193Y008026D01*
X007041Y008026D01*
X007041Y008435D01*
X006983Y008435D01*
X006983Y008026D01*
X006831Y008026D01*
X006726Y007953D02*
X007298Y007953D01*
X007218Y008051D02*
X007682Y008051D01*
X007622Y008150D02*
X007317Y008150D01*
X007415Y008249D02*
X007523Y008249D01*
X007514Y008347D02*
X007449Y008347D01*
X007514Y008446D02*
X007041Y008446D01*
X006983Y008446D02*
X006509Y008446D01*
X006509Y008544D02*
X006574Y008544D01*
X006574Y008643D02*
X006509Y008643D01*
X006438Y008741D02*
X006671Y008741D01*
X006769Y008840D02*
X006339Y008840D01*
X006241Y008938D02*
X007783Y008938D01*
X007684Y008840D02*
X007254Y008840D01*
X007353Y008741D02*
X007586Y008741D01*
X007514Y008643D02*
X007449Y008643D01*
X007449Y008544D02*
X007514Y008544D01*
X007041Y008544D02*
X006983Y008544D01*
X006983Y008643D02*
X007041Y008643D01*
X007041Y008741D02*
X006983Y008741D01*
X006983Y008840D02*
X007041Y008840D01*
X007041Y008347D02*
X006983Y008347D01*
X006983Y008249D02*
X007041Y008249D01*
X007041Y008150D02*
X006983Y008150D01*
X006983Y008051D02*
X007041Y008051D01*
X007199Y007854D02*
X006825Y007854D01*
X006923Y007756D02*
X007101Y007756D01*
X007014Y007657D02*
X007009Y007657D01*
X007009Y007559D02*
X007014Y007559D01*
X007009Y007460D02*
X007014Y007460D01*
X007009Y007362D02*
X007014Y007362D01*
X007009Y007263D02*
X007014Y007263D01*
X007052Y007165D02*
X006916Y007165D01*
X006842Y007066D02*
X007052Y007066D01*
X007052Y006967D02*
X006842Y006967D01*
X006842Y006869D02*
X007052Y006869D01*
X007052Y006770D02*
X006842Y006770D01*
X006842Y006827D02*
X006842Y006827D01*
X006842Y006672D02*
X007052Y006672D01*
X007052Y006573D02*
X006842Y006573D01*
X006842Y006475D02*
X007038Y006475D01*
X006939Y006376D02*
X006842Y006376D01*
X006182Y006376D02*
X006000Y006376D01*
X006098Y006278D02*
X006182Y006278D01*
X006182Y006475D02*
X005324Y006475D01*
X005324Y006573D02*
X006182Y006573D01*
X006182Y006577D02*
X006182Y006577D01*
X006182Y006672D02*
X005324Y006672D01*
X005324Y006770D02*
X006182Y006770D01*
X005802Y006376D02*
X005722Y006376D01*
X005722Y006278D02*
X005802Y006278D01*
X005802Y006179D02*
X005722Y006179D01*
X005722Y006081D02*
X005802Y006081D01*
X005722Y005982D02*
X005053Y005982D01*
X005152Y005884D02*
X005302Y005884D01*
X005302Y005785D02*
X005250Y005785D01*
X005264Y005686D02*
X005388Y005686D01*
X005487Y005588D02*
X004855Y005588D01*
X004854Y005686D02*
X004794Y005686D01*
X004794Y005785D02*
X004854Y005785D01*
X004854Y005884D02*
X004794Y005884D01*
X004794Y005982D02*
X004854Y005982D01*
X004596Y005982D02*
X004583Y005982D01*
X004583Y006081D02*
X005302Y006081D01*
X005327Y006179D02*
X005122Y006179D01*
X005221Y006278D02*
X005425Y006278D01*
X005524Y006376D02*
X005319Y006376D01*
X005722Y005884D02*
X005802Y005884D01*
X005802Y005785D02*
X005722Y005785D01*
X005722Y005686D02*
X005802Y005686D01*
X005802Y005588D02*
X005722Y005588D01*
X006037Y005588D02*
X006358Y005588D01*
X006260Y005686D02*
X006135Y005686D01*
X006457Y005489D02*
X005264Y005489D01*
X005249Y005391D02*
X006555Y005391D01*
X006654Y005292D02*
X005150Y005292D01*
X005052Y005194D02*
X006753Y005194D01*
X006682Y005264D02*
X006682Y005264D01*
X006851Y005095D02*
X004583Y005095D01*
X004583Y005194D02*
X004597Y005194D01*
X004794Y005194D02*
X004854Y005194D01*
X004854Y005292D02*
X004794Y005292D01*
X004794Y005391D02*
X004854Y005391D01*
X004854Y005489D02*
X004794Y005489D01*
X004670Y004997D02*
X007325Y004997D01*
X007423Y004898D02*
X004925Y004898D01*
X004882Y004941D02*
X004882Y004941D01*
X005023Y004800D02*
X007522Y004800D01*
X007620Y004701D02*
X005122Y004701D01*
X005221Y004602D02*
X005262Y004602D01*
X005762Y004602D02*
X006262Y004602D01*
X006163Y004504D02*
X005860Y004504D01*
X005959Y004405D02*
X006065Y004405D01*
X006762Y004602D02*
X007262Y004602D01*
X007163Y004504D02*
X006860Y004504D01*
X006959Y004405D02*
X007065Y004405D01*
X007012Y003825D02*
X007248Y003589D01*
X007012Y003352D01*
X006775Y003589D01*
X007012Y003825D01*
X007001Y003814D02*
X007023Y003814D01*
X007121Y003716D02*
X006902Y003716D01*
X006804Y003617D02*
X007220Y003617D01*
X007178Y003518D02*
X006846Y003518D01*
X006944Y003420D02*
X007080Y003420D01*
X006248Y003589D02*
X006012Y003352D01*
X005775Y003589D01*
X006012Y003825D01*
X006248Y003589D01*
X006220Y003617D02*
X005804Y003617D01*
X005846Y003518D02*
X006178Y003518D01*
X006080Y003420D02*
X005944Y003420D01*
X005902Y003716D02*
X006121Y003716D01*
X006023Y003814D02*
X006001Y003814D01*
X005917Y002730D02*
X006107Y002730D01*
X006205Y002632D02*
X005818Y002632D01*
X005925Y002336D02*
X008298Y002336D01*
X008396Y002237D02*
X006023Y002237D01*
X006122Y002139D02*
X008495Y002139D01*
X008229Y001989D02*
X007794Y001989D01*
X007487Y001681D01*
X007487Y001246D01*
X007794Y000939D01*
X008229Y000939D01*
X008537Y001246D01*
X008537Y001681D01*
X008229Y001989D01*
X008276Y001942D02*
X009682Y001942D01*
X009682Y002040D02*
X006220Y002040D01*
X006302Y001942D02*
X007748Y001942D01*
X007649Y001843D02*
X007290Y001843D01*
X007204Y001929D02*
X007052Y001929D01*
X007052Y001504D01*
X006972Y001504D01*
X006972Y001929D01*
X006819Y001929D01*
X006547Y001656D01*
X006547Y001504D01*
X006972Y001504D01*
X006972Y001424D01*
X006547Y001424D01*
X006547Y001271D01*
X006819Y000999D01*
X006972Y000999D01*
X006972Y001423D01*
X007052Y001423D01*
X007052Y000999D01*
X007204Y000999D01*
X007477Y001271D01*
X007477Y001424D01*
X007052Y001424D01*
X007052Y001504D01*
X007477Y001504D01*
X007477Y001656D01*
X007204Y001929D01*
X007052Y001843D02*
X006972Y001843D01*
X006972Y001745D02*
X007052Y001745D01*
X007052Y001646D02*
X006972Y001646D01*
X006972Y001548D02*
X007052Y001548D01*
X007052Y001449D02*
X007487Y001449D01*
X007477Y001351D02*
X007487Y001351D01*
X007487Y001252D02*
X007458Y001252D01*
X007359Y001153D02*
X007580Y001153D01*
X007678Y001055D02*
X007261Y001055D01*
X007052Y001055D02*
X006972Y001055D01*
X006972Y001153D02*
X007052Y001153D01*
X007052Y001252D02*
X006972Y001252D01*
X006972Y001351D02*
X007052Y001351D01*
X006972Y001449D02*
X006537Y001449D01*
X006537Y001351D02*
X006547Y001351D01*
X006537Y001252D02*
X006566Y001252D01*
X006664Y001153D02*
X006444Y001153D01*
X006346Y001055D02*
X006763Y001055D01*
X006247Y000956D02*
X007777Y000956D01*
X008247Y000956D02*
X009777Y000956D01*
X009678Y001055D02*
X009261Y001055D01*
X009204Y000999D02*
X009477Y001271D01*
X009477Y001424D01*
X009052Y001424D01*
X009052Y001504D01*
X008972Y001504D01*
X008972Y001929D01*
X008819Y001929D01*
X008547Y001656D01*
X008547Y001504D01*
X008972Y001504D01*
X008972Y001424D01*
X008547Y001424D01*
X008547Y001271D01*
X008819Y000999D01*
X008972Y000999D01*
X008972Y001423D01*
X009052Y001423D01*
X009052Y000999D01*
X009204Y000999D01*
X009052Y001055D02*
X008972Y001055D01*
X008972Y001153D02*
X009052Y001153D01*
X009052Y001252D02*
X008972Y001252D01*
X008972Y001351D02*
X009052Y001351D01*
X009052Y001449D02*
X009487Y001449D01*
X009477Y001504D02*
X009477Y001656D01*
X009204Y001929D01*
X009052Y001929D01*
X009052Y001504D01*
X009477Y001504D01*
X009477Y001548D02*
X009487Y001548D01*
X009477Y001646D02*
X009487Y001646D01*
X009550Y001745D02*
X009388Y001745D01*
X009290Y001843D02*
X009649Y001843D01*
X009052Y001843D02*
X008972Y001843D01*
X008972Y001745D02*
X009052Y001745D01*
X009052Y001646D02*
X008972Y001646D01*
X008972Y001548D02*
X009052Y001548D01*
X008972Y001449D02*
X008537Y001449D01*
X008537Y001351D02*
X008547Y001351D01*
X008537Y001252D02*
X008566Y001252D01*
X008664Y001153D02*
X008444Y001153D01*
X008346Y001055D02*
X008763Y001055D01*
X009359Y001153D02*
X009580Y001153D01*
X009487Y001252D02*
X009458Y001252D01*
X009477Y001351D02*
X009487Y001351D01*
X008734Y001843D02*
X008375Y001843D01*
X008473Y001745D02*
X008635Y001745D01*
X008547Y001646D02*
X008537Y001646D01*
X008537Y001548D02*
X008547Y001548D01*
X007550Y001745D02*
X007388Y001745D01*
X007477Y001646D02*
X007487Y001646D01*
X007477Y001548D02*
X007487Y001548D01*
X006734Y001843D02*
X006375Y001843D01*
X006473Y001745D02*
X006635Y001745D01*
X006547Y001646D02*
X006537Y001646D01*
X006537Y001548D02*
X006547Y001548D01*
X005678Y001055D02*
X005345Y001055D01*
X005247Y000956D02*
X005777Y000956D01*
X005580Y001153D02*
X005444Y001153D01*
X004777Y000956D02*
X004247Y000956D01*
X004345Y001055D02*
X004678Y001055D01*
X004580Y001153D02*
X004444Y001153D01*
X002995Y000759D02*
X014028Y000759D01*
X012777Y000956D02*
X012247Y000956D01*
X012346Y001055D02*
X012678Y001055D01*
X012580Y001153D02*
X012444Y001153D01*
X011777Y000956D02*
X011247Y000956D01*
X011346Y001055D02*
X011678Y001055D01*
X011580Y001153D02*
X011444Y001153D01*
X010777Y000956D02*
X010247Y000956D01*
X010346Y001055D02*
X010678Y001055D01*
X010580Y001153D02*
X010444Y001153D01*
X008199Y002434D02*
X004763Y002434D01*
X004665Y002533D02*
X008101Y002533D01*
X008002Y002632D02*
X007818Y002632D01*
X007205Y002632D02*
X006818Y002632D01*
X006917Y002730D02*
X007107Y002730D01*
X008779Y003901D02*
X008779Y003980D01*
X008798Y003961D01*
X008950Y003961D01*
X008950Y004371D01*
X009011Y004371D01*
X009011Y003961D01*
X009163Y003961D01*
X009182Y003980D01*
X009182Y003901D01*
X008779Y003901D01*
X008779Y003913D02*
X009182Y003913D01*
X009011Y004011D02*
X008950Y004011D01*
X008950Y004110D02*
X009011Y004110D01*
X009011Y004208D02*
X008950Y004208D01*
X008950Y004307D02*
X009011Y004307D01*
X010882Y004307D02*
X010942Y004307D01*
X012145Y004110D02*
X014159Y004110D01*
X014184Y004011D02*
X012243Y004011D01*
X012342Y003913D02*
X014086Y003913D01*
X013987Y003814D02*
X012440Y003814D01*
X012539Y003716D02*
X013889Y003716D01*
X013887Y003617D02*
X012638Y003617D01*
X012736Y003518D02*
X013887Y003518D01*
X013887Y003420D02*
X013240Y003420D01*
X013339Y003321D02*
X013887Y003321D01*
X013887Y003223D02*
X013437Y003223D01*
X013452Y003124D02*
X013976Y003124D01*
X014075Y003026D02*
X013042Y003026D01*
X013042Y003124D02*
X012982Y003124D01*
X012982Y003223D02*
X013042Y003223D01*
X013042Y003321D02*
X012982Y003321D01*
X012982Y003420D02*
X013042Y003420D01*
X013452Y002927D02*
X014173Y002927D01*
X013437Y002829D02*
X015287Y002829D01*
X015287Y002730D02*
X013338Y002730D01*
X013239Y002632D02*
X015287Y002632D01*
X015287Y002533D02*
X013159Y002533D01*
X013258Y002434D02*
X015287Y002434D01*
X015287Y002336D02*
X013342Y002336D01*
X013342Y002237D02*
X014185Y002237D01*
X013999Y002139D02*
X013342Y002139D01*
X013342Y002040D02*
X013901Y002040D01*
X014838Y002237D02*
X015287Y002237D01*
X015287Y002139D02*
X015024Y002139D01*
X015123Y002040D02*
X015287Y002040D01*
X015287Y001942D02*
X015221Y001942D01*
X015264Y001843D02*
X015287Y001843D01*
X015287Y004089D02*
X014844Y004089D01*
X015012Y004256D01*
X015012Y004414D01*
X014562Y004414D01*
X014562Y004514D01*
X015012Y004514D01*
X015012Y004671D01*
X014844Y004839D01*
X015287Y004839D01*
X015287Y004089D01*
X015287Y004110D02*
X014865Y004110D01*
X014964Y004208D02*
X015287Y004208D01*
X015287Y004307D02*
X015012Y004307D01*
X015012Y004405D02*
X015287Y004405D01*
X015287Y004504D02*
X014562Y004504D01*
X014462Y004504D02*
X013477Y004504D01*
X013477Y004459D02*
X013477Y004621D01*
X013042Y004621D01*
X013042Y004186D01*
X013204Y004186D01*
X013477Y004459D01*
X013424Y004405D02*
X014012Y004405D01*
X014012Y004307D02*
X013325Y004307D01*
X013226Y004208D02*
X014060Y004208D01*
X014012Y004602D02*
X013477Y004602D01*
X013477Y004701D02*
X014042Y004701D01*
X014141Y004800D02*
X013477Y004800D01*
X013422Y004898D02*
X014202Y004898D01*
X014104Y004997D02*
X013337Y004997D01*
X013436Y005095D02*
X014005Y005095D01*
X013907Y005194D02*
X013477Y005194D01*
X013502Y005292D02*
X013887Y005292D01*
X013887Y005391D02*
X013502Y005391D01*
X013475Y005489D02*
X013887Y005489D01*
X013887Y005588D02*
X013430Y005588D01*
X013332Y005686D02*
X013887Y005686D01*
X013958Y005785D02*
X013127Y005785D01*
X013118Y005884D02*
X014057Y005884D01*
X014155Y005982D02*
X013077Y005982D01*
X013052Y006081D02*
X014254Y006081D01*
X015287Y006179D02*
X013052Y006179D01*
X013052Y006278D02*
X015287Y006278D01*
X015287Y006376D02*
X013052Y006376D01*
X013052Y006475D02*
X015287Y006475D01*
X015287Y006573D02*
X013052Y006573D01*
X013052Y006672D02*
X015287Y006672D01*
X015287Y006770D02*
X013052Y006770D01*
X013077Y006869D02*
X015287Y006869D01*
X013304Y006967D02*
X013176Y006967D01*
X010807Y005588D02*
X010787Y005588D01*
X010552Y006081D02*
X010472Y006081D01*
X010472Y006179D02*
X010552Y006179D01*
X010552Y006278D02*
X010472Y006278D01*
X010472Y006376D02*
X010552Y006376D01*
X010471Y006475D02*
X009472Y006475D01*
X009532Y005785D02*
X010052Y005785D01*
X010138Y005686D02*
X009470Y005686D01*
X006875Y005071D02*
X006875Y005071D01*
X006875Y005071D01*
X005107Y002730D02*
X004917Y002730D01*
X004818Y002632D02*
X005205Y002632D01*
X002185Y002237D02*
X001722Y002237D01*
X001722Y002139D02*
X001999Y002139D01*
X001901Y002040D02*
X001722Y002040D01*
X001722Y001942D02*
X001802Y001942D01*
X001760Y001843D02*
X001722Y001843D01*
X002472Y005194D02*
X002552Y005194D01*
X002552Y005292D02*
X002472Y005292D01*
X002472Y005391D02*
X002552Y005391D01*
X002552Y005489D02*
X002472Y005489D01*
X002873Y005292D02*
X002972Y005292D01*
X002971Y005391D02*
X002972Y005391D01*
X002997Y005194D02*
X002774Y005194D01*
X002047Y005686D02*
X001722Y005686D01*
X001722Y005785D02*
X002051Y005785D01*
X002149Y005884D02*
X001722Y005884D01*
X001722Y005982D02*
X002248Y005982D01*
X002746Y006081D02*
X003094Y006081D01*
X003192Y006179D02*
X002845Y006179D01*
X002943Y006278D02*
X003291Y006278D01*
X003267Y006376D02*
X003037Y006376D01*
X003037Y006475D02*
X003262Y006475D01*
X003262Y006573D02*
X003037Y006573D01*
X003037Y006672D02*
X003262Y006672D01*
X003262Y006770D02*
X003104Y006770D01*
X003202Y006869D02*
X003335Y006869D01*
X003304Y006967D02*
X003301Y006967D01*
X002995Y005982D02*
X002776Y005982D01*
X002874Y005884D02*
X002972Y005884D01*
X006402Y008150D02*
X006707Y008150D01*
X006608Y008249D02*
X006500Y008249D01*
X006509Y008347D02*
X006574Y008347D01*
X005586Y008741D02*
X005353Y008741D01*
X005449Y008643D02*
X005514Y008643D01*
X005514Y008544D02*
X005449Y008544D01*
X004769Y008840D02*
X004339Y008840D01*
X004438Y008741D02*
X004671Y008741D01*
X004574Y008643D02*
X004509Y008643D01*
X004509Y008544D02*
X004574Y008544D01*
X008241Y008938D02*
X008783Y008938D01*
X008684Y008840D02*
X008339Y008840D01*
X008438Y008741D02*
X008586Y008741D01*
X008514Y008643D02*
X008509Y008643D01*
X008509Y008544D02*
X008514Y008544D01*
X008509Y008446D02*
X008514Y008446D01*
X008509Y008347D02*
X008514Y008347D01*
X008500Y008249D02*
X008523Y008249D01*
X008552Y008150D02*
X008402Y008150D01*
X008342Y008051D02*
X008552Y008051D01*
X009472Y008150D02*
X009622Y008150D01*
X009523Y008249D02*
X009500Y008249D01*
X009509Y008347D02*
X009514Y008347D01*
X009509Y008446D02*
X009514Y008446D01*
X009509Y008544D02*
X009514Y008544D01*
X009509Y008643D02*
X009514Y008643D01*
X009586Y008741D02*
X009438Y008741D01*
X009339Y008840D02*
X009684Y008840D01*
X009783Y008938D02*
X009241Y008938D01*
X014883Y004800D02*
X015287Y004800D01*
X015287Y004701D02*
X014981Y004701D01*
X015012Y004602D02*
X015287Y004602D01*
X013042Y004602D02*
X012982Y004602D01*
X012982Y004621D02*
X012982Y004186D01*
X012819Y004186D01*
X012547Y004459D01*
X012547Y004621D01*
X012982Y004621D01*
X012982Y004504D02*
X013042Y004504D01*
X013042Y004405D02*
X012982Y004405D01*
X012982Y004307D02*
X013042Y004307D01*
X013042Y004208D02*
X012982Y004208D01*
X012797Y004208D02*
X012311Y004208D01*
X012410Y004307D02*
X012699Y004307D01*
X012600Y004405D02*
X012478Y004405D01*
X012519Y004504D02*
X012547Y004504D01*
X012537Y004602D02*
X012547Y004602D01*
D29*
X013074Y005339D03*
X012699Y005776D03*
X012199Y005464D03*
X014762Y008714D03*
X012512Y002026D03*
X003324Y002151D03*
X002262Y008714D03*
D30*
X004762Y005839D02*
X004762Y005339D01*
X005262Y005339D01*
X005262Y005839D01*
X004762Y005839D01*
X004824Y005589D02*
X004762Y005339D01*
D31*
X011074Y007026D02*
X011262Y006839D01*
X011574Y006839D01*
X011262Y006839D02*
X011637Y006464D01*
X011949Y006776D01*
X011637Y006464D02*
X011637Y005089D01*
X012012Y004714D01*
X012012Y004651D01*
M02*
