G75*
G70*
%OFA0B0*%
%FSLAX24Y24*%
%IPPOS*%
%LPD*%
%AMOC8*
5,1,8,0,0,1.08239X$1,22.5*
%
%ADD10OC8,0.0515*%
%ADD11OC8,0.0630*%
%ADD12OC8,0.0520*%
%ADD13C,0.0520*%
%ADD14C,0.0630*%
%ADD15OC8,0.0560*%
%ADD16R,0.0600X0.0600*%
%ADD17OC8,0.0600*%
%ADD18OC8,0.0660*%
%ADD19C,0.0400*%
%ADD20C,0.0436*%
%ADD21C,0.0080*%
%ADD22C,0.0900*%
%ADD23C,0.0860*%
%ADD24C,0.0500*%
%ADD25C,0.0440*%
%ADD26C,0.0460*%
%ADD27C,0.0240*%
%ADD28C,0.0600*%
%ADD29C,0.0320*%
%ADD30C,0.0660*%
%ADD31C,0.0160*%
D10*
X002512Y007464D03*
X003512Y007464D03*
X004512Y007464D03*
X005512Y007464D03*
X006512Y007464D03*
X007512Y007464D03*
X008512Y007464D03*
X009512Y007464D03*
X010512Y007464D03*
X011512Y007464D03*
X012512Y007464D03*
X013512Y007464D03*
X014512Y007464D03*
X014012Y008464D03*
X013012Y008464D03*
X012012Y008464D03*
X011012Y008464D03*
X010012Y008464D03*
X009012Y008464D03*
X008012Y008464D03*
X007012Y008464D03*
X006012Y008464D03*
X005012Y008464D03*
X004012Y008464D03*
X003012Y008464D03*
D11*
X002512Y006589D03*
X002512Y005589D03*
X004012Y001464D03*
X005012Y001464D03*
X006012Y001464D03*
X007012Y001464D03*
X008012Y001464D03*
X009012Y001464D03*
X010012Y001464D03*
X011012Y001464D03*
X012012Y001464D03*
X013012Y001464D03*
X013012Y004651D03*
D12*
X010912Y003901D03*
X012012Y003026D03*
X013012Y003026D03*
X008981Y003401D03*
X008981Y004401D03*
X004824Y005589D03*
X003762Y005589D03*
X003762Y006589D03*
X004824Y006589D03*
D13*
X010112Y003901D03*
D14*
X012012Y004651D03*
D15*
X010512Y005964D03*
X009012Y005964D03*
X007262Y005964D03*
X005762Y005964D03*
D16*
X002512Y003089D03*
D17*
X003512Y003089D03*
X004512Y003089D03*
X005512Y003089D03*
X006512Y003089D03*
X007512Y003089D03*
X007512Y004089D03*
X006512Y004089D03*
X005512Y004089D03*
X004512Y004089D03*
X003512Y004089D03*
X002512Y004089D03*
D18*
X014512Y004464D03*
X014512Y003464D03*
X014512Y005464D03*
D19*
X012012Y004651D02*
X012012Y003026D01*
X009824Y003026D01*
X009293Y002495D01*
X008668Y002495D01*
X008012Y001839D01*
X008012Y001464D01*
X012512Y002026D02*
X012512Y002526D01*
X012949Y003151D01*
X013012Y003026D01*
X010449Y009026D02*
X010387Y009089D01*
X006637Y009089D01*
X006574Y009026D01*
D20*
X002262Y008714D03*
X012199Y005464D03*
X012699Y005776D03*
X013074Y005339D03*
X014762Y008714D03*
X012512Y002026D03*
X003324Y002151D03*
D21*
X001730Y001100D02*
X001785Y000992D01*
X001856Y000895D01*
X001941Y000810D01*
X002038Y000739D01*
X002146Y000684D01*
X002260Y000647D01*
X002379Y000628D01*
X002439Y000626D01*
X014668Y000626D01*
X014726Y000628D01*
X014841Y000648D01*
X014841Y000648D01*
X014950Y000688D01*
X015051Y000747D01*
X015141Y000822D01*
X015216Y000911D01*
X015274Y001012D01*
X015314Y001122D01*
X015334Y001237D01*
X015337Y001295D01*
X015337Y001361D01*
X015337Y008460D01*
X015337Y008526D01*
X015334Y008588D01*
X015315Y008709D01*
X015277Y008827D01*
X015221Y008937D01*
X015149Y009036D01*
X015061Y009123D01*
X014962Y009196D01*
X014852Y009252D01*
X014735Y009290D01*
X014613Y009309D01*
X014551Y009312D01*
X010743Y009312D01*
X011174Y008881D01*
X011185Y008881D01*
X011429Y008636D01*
X011429Y008291D01*
X011185Y008046D01*
X010839Y008046D01*
X010594Y008291D01*
X010594Y008301D01*
X010429Y008466D01*
X010429Y008291D01*
X010185Y008046D01*
X009839Y008046D01*
X009594Y008291D01*
X009594Y008636D01*
X009687Y008729D01*
X009337Y008729D01*
X009429Y008636D01*
X009429Y008291D01*
X009422Y008283D01*
X009422Y007919D01*
X009364Y007861D01*
X009473Y007861D01*
X009473Y007503D01*
X009551Y007503D01*
X009551Y007861D01*
X009676Y007861D01*
X009909Y007628D01*
X009909Y007502D01*
X009551Y007502D01*
X009551Y007425D01*
X009909Y007425D01*
X009909Y007299D01*
X009676Y007066D01*
X009551Y007066D01*
X009551Y007425D01*
X009473Y007425D01*
X009473Y007066D01*
X009422Y007066D01*
X009422Y006964D01*
X009422Y006864D01*
X009422Y006713D01*
X009912Y007204D01*
X010111Y007204D01*
X010181Y007204D01*
X010094Y007291D01*
X010094Y007636D01*
X010339Y007881D01*
X010685Y007881D01*
X010929Y007636D01*
X010929Y007291D01*
X010842Y007204D01*
X010887Y007204D01*
X010956Y007204D01*
X010986Y007204D01*
X011181Y007204D01*
X011094Y007291D01*
X011094Y007636D01*
X011339Y007881D01*
X011685Y007881D01*
X011929Y007636D01*
X011929Y007291D01*
X011842Y007204D01*
X011912Y007204D01*
X011912Y007204D01*
X012181Y007204D01*
X012094Y007291D01*
X012094Y007636D01*
X012339Y007881D01*
X012685Y007881D01*
X012772Y007794D01*
X012772Y008113D01*
X012594Y008291D01*
X012594Y008636D01*
X012839Y008881D01*
X013185Y008881D01*
X013429Y008636D01*
X013429Y008291D01*
X013252Y008113D01*
X013252Y007794D01*
X013339Y007881D01*
X013685Y007881D01*
X013772Y007794D01*
X013772Y008113D01*
X013594Y008291D01*
X013594Y008636D01*
X013839Y008881D01*
X014185Y008881D01*
X014429Y008636D01*
X014429Y008291D01*
X014252Y008113D01*
X014252Y007794D01*
X014339Y007881D01*
X014685Y007881D01*
X014929Y007636D01*
X014929Y007291D01*
X014752Y007113D01*
X014752Y007052D01*
X014744Y007044D01*
X013814Y006114D01*
X013814Y006114D01*
X013674Y005974D01*
X013574Y005974D01*
X013543Y005974D01*
X013475Y005974D01*
X013475Y005974D01*
X013026Y005974D01*
X013077Y005851D01*
X013077Y005716D01*
X013150Y005716D01*
X013172Y005707D01*
X013208Y005744D01*
X013208Y005744D01*
X013440Y005744D01*
X014099Y005744D01*
X014309Y005954D01*
X014715Y005954D01*
X015002Y005667D01*
X015002Y005261D01*
X014715Y004974D01*
X014309Y004974D01*
X014099Y005184D01*
X013440Y005184D01*
X013404Y005148D01*
X013395Y005125D01*
X013288Y005018D01*
X013288Y005018D01*
X013467Y004840D01*
X013467Y004691D01*
X013052Y004691D01*
X013052Y004611D01*
X013467Y004611D01*
X013467Y004463D01*
X013200Y004196D01*
X013052Y004196D01*
X013052Y004611D01*
X012972Y004611D01*
X012972Y004218D01*
X013174Y004016D01*
X013475Y004016D01*
X013674Y004016D01*
X013744Y003946D01*
X013751Y003939D01*
X013814Y003876D01*
X013814Y003875D01*
X013986Y003704D01*
X014059Y003704D01*
X014309Y003954D01*
X014715Y003954D01*
X015002Y003667D01*
X015002Y003261D01*
X014715Y002974D01*
X014309Y002974D01*
X014059Y003224D01*
X013986Y003224D01*
X013986Y003224D01*
X013787Y003224D01*
X013717Y003294D01*
X013708Y003303D01*
X013647Y003364D01*
X013647Y003364D01*
X013475Y003536D01*
X013174Y003536D01*
X012975Y003536D01*
X012412Y004099D01*
X012372Y004139D01*
X012372Y003260D01*
X012432Y003200D01*
X012432Y002852D01*
X012186Y002606D01*
X011838Y002606D01*
X011778Y002666D01*
X009974Y002666D01*
X009650Y002343D01*
X009442Y002135D01*
X009442Y002135D01*
X009442Y002135D01*
X009183Y002135D01*
X008817Y002135D01*
X008415Y001732D01*
X008487Y001660D01*
X008487Y001267D01*
X008209Y000989D01*
X007815Y000989D01*
X007537Y001267D01*
X007537Y001660D01*
X007652Y001775D01*
X007652Y001988D01*
X007669Y002005D01*
X005517Y002005D01*
X005330Y001817D01*
X005487Y001660D01*
X005487Y001267D01*
X005209Y000989D01*
X004815Y000989D01*
X004537Y001267D01*
X004537Y001660D01*
X004772Y001895D01*
X004772Y001938D01*
X004912Y002079D01*
X005319Y002485D01*
X005517Y002485D01*
X007756Y002485D01*
X008241Y002969D01*
X008241Y002969D01*
X008370Y003099D01*
X007972Y003099D01*
X007972Y002898D01*
X007702Y002629D01*
X007321Y002629D01*
X007101Y002849D01*
X006922Y002849D01*
X006702Y002629D01*
X006321Y002629D01*
X006101Y002849D01*
X005922Y002849D01*
X005702Y002629D01*
X005321Y002629D01*
X005101Y002849D01*
X004922Y002849D01*
X004702Y002629D01*
X004321Y002629D01*
X004101Y002849D01*
X003922Y002849D01*
X003702Y002629D01*
X003321Y002629D01*
X003101Y002849D01*
X002972Y002849D01*
X002972Y002722D01*
X002878Y002629D01*
X002146Y002629D01*
X002052Y002722D01*
X002052Y003455D01*
X002146Y003549D01*
X002735Y003549D01*
X002650Y003629D01*
X002321Y003629D01*
X002052Y003898D01*
X002052Y004279D01*
X002321Y004549D01*
X002702Y004549D01*
X002972Y004279D01*
X002972Y003985D01*
X003052Y003910D01*
X003052Y004279D01*
X003272Y004499D01*
X003272Y004557D01*
X003272Y004560D01*
X003272Y004614D01*
X002912Y004974D01*
X002912Y004974D01*
X002858Y005029D01*
X002842Y005044D01*
X002772Y005114D01*
X002772Y005205D01*
X002700Y005134D01*
X002552Y005134D01*
X002552Y005548D01*
X002472Y005548D01*
X002472Y005134D01*
X002323Y005134D01*
X002057Y005400D01*
X002057Y005549D01*
X002472Y005549D01*
X002472Y005629D01*
X002472Y006044D01*
X002323Y006044D01*
X002057Y005777D01*
X002057Y005629D01*
X002472Y005629D01*
X002552Y005629D01*
X002552Y006044D01*
X002700Y006044D01*
X002772Y005972D01*
X002772Y006177D01*
X002709Y006114D01*
X002315Y006114D01*
X002037Y006392D01*
X002037Y006785D01*
X002315Y007064D01*
X002321Y007064D01*
X002094Y007291D01*
X002094Y007636D01*
X002339Y007881D01*
X002685Y007881D01*
X002772Y007794D01*
X002772Y008113D01*
X002594Y008291D01*
X002594Y008636D01*
X002839Y008881D01*
X003185Y008881D01*
X003429Y008636D01*
X003429Y008291D01*
X003252Y008113D01*
X003252Y007794D01*
X003339Y007881D01*
X003685Y007881D01*
X003772Y007794D01*
X003772Y008113D01*
X003594Y008291D01*
X003594Y008636D01*
X003839Y008881D01*
X004185Y008881D01*
X004429Y008636D01*
X004429Y008291D01*
X004252Y008113D01*
X004252Y007794D01*
X004339Y007881D01*
X004685Y007881D01*
X004929Y007636D01*
X004929Y007291D01*
X004685Y007046D01*
X004533Y007046D01*
X004533Y006891D01*
X004650Y007009D01*
X004905Y007009D01*
X005141Y007244D01*
X005094Y007291D01*
X005094Y007636D01*
X005339Y007881D01*
X005685Y007881D01*
X005929Y007636D01*
X005929Y007291D01*
X005685Y007046D01*
X005621Y007046D01*
X005244Y006669D01*
X005244Y006415D01*
X004998Y006169D01*
X004650Y006169D01*
X004533Y006286D01*
X004533Y006219D01*
X004533Y006219D01*
X004533Y006020D01*
X004533Y006020D01*
X004392Y005880D01*
X004182Y005669D01*
X004182Y005415D01*
X003936Y005169D01*
X003771Y005169D01*
X004111Y004829D01*
X004111Y004829D01*
X004252Y004688D01*
X004252Y004479D01*
X004321Y004549D01*
X004702Y004549D01*
X004972Y004279D01*
X004972Y003968D01*
X005111Y003829D01*
X005121Y003829D01*
X005052Y003898D01*
X005052Y004279D01*
X005321Y004549D01*
X005445Y004549D01*
X005897Y005000D01*
X005897Y005001D01*
X005961Y005065D01*
X005967Y005071D01*
X006006Y005109D01*
X006037Y005141D01*
X007475Y005141D01*
X007834Y005501D01*
X007975Y005641D01*
X008074Y005641D01*
X008096Y005641D01*
X008174Y005641D01*
X008712Y005641D01*
X008572Y005781D01*
X008572Y005824D01*
X007922Y006474D01*
X007922Y006044D01*
X007702Y005824D01*
X007702Y005781D01*
X007444Y005524D01*
X007080Y005524D01*
X006822Y005781D01*
X006822Y006146D01*
X007080Y006404D01*
X007102Y006404D01*
X007102Y007283D01*
X007094Y007291D01*
X007094Y007636D01*
X007339Y007881D01*
X007685Y007881D01*
X007734Y007832D01*
X007948Y008046D01*
X007839Y008046D01*
X007594Y008291D01*
X007594Y008636D01*
X007686Y008729D01*
X007309Y008729D01*
X007409Y008628D01*
X007409Y008502D01*
X007051Y008502D01*
X007051Y008425D01*
X007409Y008425D01*
X007409Y008299D01*
X007176Y008066D01*
X007051Y008066D01*
X007051Y008425D01*
X006973Y008425D01*
X006614Y008425D01*
X006614Y008299D01*
X006847Y008066D01*
X006973Y008066D01*
X006973Y008425D01*
X006973Y008502D01*
X006630Y008502D01*
X006429Y008301D01*
X006429Y008291D01*
X006185Y008046D01*
X005839Y008046D01*
X005594Y008291D01*
X005594Y008636D01*
X005839Y008881D01*
X005849Y008881D01*
X006280Y009312D01*
X002535Y009312D01*
X002467Y009309D01*
X002334Y009288D01*
X002205Y009246D01*
X002084Y009184D01*
X001974Y009105D01*
X001879Y009009D01*
X001799Y008899D01*
X001737Y008779D01*
X001696Y008650D01*
X001674Y008516D01*
X001672Y008448D01*
X001672Y001460D01*
X001672Y001393D01*
X001674Y001333D01*
X001693Y001214D01*
X001730Y001100D01*
X001734Y001092D02*
X001811Y001092D01*
X001842Y001016D02*
X002064Y000794D01*
X002355Y000674D01*
X002669Y000674D01*
X002959Y000794D01*
X003181Y001016D01*
X003302Y001306D01*
X003302Y001621D01*
X003181Y001911D01*
X002959Y002133D01*
X002669Y002254D01*
X002355Y002254D01*
X002064Y002133D01*
X001842Y001911D01*
X001722Y001621D01*
X001722Y001306D01*
X001842Y001016D01*
X001845Y001013D02*
X001774Y001013D01*
X001827Y000935D02*
X001923Y000935D01*
X001894Y000856D02*
X002002Y000856D01*
X001985Y000778D02*
X002103Y000778D01*
X002116Y000699D02*
X002293Y000699D01*
X002731Y000699D02*
X014293Y000699D01*
X014355Y000674D02*
X014064Y000794D01*
X013842Y001016D01*
X013722Y001306D01*
X013722Y001621D01*
X013842Y001911D01*
X014064Y002133D01*
X014355Y002254D01*
X014669Y002254D01*
X014959Y002133D01*
X015181Y001911D01*
X015302Y001621D01*
X015302Y001306D01*
X015181Y001016D01*
X014959Y000794D01*
X014669Y000674D01*
X014355Y000674D01*
X014103Y000778D02*
X002920Y000778D01*
X003022Y000856D02*
X014002Y000856D01*
X013923Y000935D02*
X003100Y000935D01*
X003179Y001013D02*
X003790Y001013D01*
X003815Y000989D02*
X004209Y000989D01*
X004487Y001267D01*
X004487Y001660D01*
X004209Y001939D01*
X003815Y001939D01*
X003537Y001660D01*
X003537Y001267D01*
X003815Y000989D01*
X003712Y001092D02*
X003213Y001092D01*
X003245Y001171D02*
X003633Y001171D01*
X003555Y001249D02*
X003278Y001249D01*
X003302Y001328D02*
X003537Y001328D01*
X003537Y001406D02*
X003302Y001406D01*
X003302Y001485D02*
X003537Y001485D01*
X003537Y001563D02*
X003302Y001563D01*
X003293Y001642D02*
X003537Y001642D01*
X003597Y001720D02*
X003260Y001720D01*
X003228Y001799D02*
X003675Y001799D01*
X003754Y001877D02*
X003195Y001877D01*
X003137Y001956D02*
X004790Y001956D01*
X004754Y001877D02*
X004270Y001877D01*
X004348Y001799D02*
X004675Y001799D01*
X004597Y001720D02*
X004427Y001720D01*
X004487Y001642D02*
X004537Y001642D01*
X004537Y001563D02*
X004487Y001563D01*
X004487Y001485D02*
X004537Y001485D01*
X004537Y001406D02*
X004487Y001406D01*
X004487Y001328D02*
X004537Y001328D01*
X004555Y001249D02*
X004469Y001249D01*
X004390Y001171D02*
X004633Y001171D01*
X004712Y001092D02*
X004312Y001092D01*
X004233Y001013D02*
X004790Y001013D01*
X005233Y001013D02*
X005790Y001013D01*
X005815Y000989D02*
X006209Y000989D01*
X006487Y001267D01*
X006487Y001660D01*
X006209Y001939D01*
X005815Y001939D01*
X005537Y001660D01*
X005537Y001267D01*
X005815Y000989D01*
X005712Y001092D02*
X005312Y001092D01*
X005390Y001171D02*
X005633Y001171D01*
X005555Y001249D02*
X005469Y001249D01*
X005487Y001328D02*
X005537Y001328D01*
X005537Y001406D02*
X005487Y001406D01*
X005487Y001485D02*
X005537Y001485D01*
X005537Y001563D02*
X005487Y001563D01*
X005487Y001642D02*
X005537Y001642D01*
X005597Y001720D02*
X005427Y001720D01*
X005348Y001799D02*
X005675Y001799D01*
X005754Y001877D02*
X005390Y001877D01*
X005468Y001956D02*
X007652Y001956D01*
X007652Y001877D02*
X007241Y001877D01*
X007200Y001919D02*
X007052Y001919D01*
X007052Y001504D01*
X006972Y001504D01*
X006972Y001919D01*
X006823Y001919D01*
X006557Y001652D01*
X006557Y001504D01*
X006972Y001504D01*
X006972Y001424D01*
X006557Y001424D01*
X006557Y001275D01*
X006823Y001009D01*
X006972Y001009D01*
X006972Y001423D01*
X007052Y001423D01*
X007052Y001009D01*
X007200Y001009D01*
X007467Y001275D01*
X007467Y001424D01*
X007052Y001424D01*
X007052Y001504D01*
X007467Y001504D01*
X007467Y001652D01*
X007200Y001919D01*
X007052Y001877D02*
X006972Y001877D01*
X006972Y001799D02*
X007052Y001799D01*
X007052Y001720D02*
X006972Y001720D01*
X006972Y001642D02*
X007052Y001642D01*
X007052Y001563D02*
X006972Y001563D01*
X006972Y001485D02*
X006487Y001485D01*
X006487Y001563D02*
X006557Y001563D01*
X006557Y001642D02*
X006487Y001642D01*
X006427Y001720D02*
X006625Y001720D01*
X006704Y001799D02*
X006348Y001799D01*
X006270Y001877D02*
X006782Y001877D01*
X007320Y001799D02*
X007652Y001799D01*
X007597Y001720D02*
X007399Y001720D01*
X007467Y001642D02*
X007537Y001642D01*
X007537Y001563D02*
X007467Y001563D01*
X007537Y001485D02*
X007052Y001485D01*
X007052Y001406D02*
X006972Y001406D01*
X006972Y001328D02*
X007052Y001328D01*
X007052Y001249D02*
X006972Y001249D01*
X006972Y001171D02*
X007052Y001171D01*
X007052Y001092D02*
X006972Y001092D01*
X006972Y001013D02*
X007052Y001013D01*
X007205Y001013D02*
X007790Y001013D01*
X007712Y001092D02*
X007284Y001092D01*
X007362Y001171D02*
X007633Y001171D01*
X007555Y001249D02*
X007441Y001249D01*
X007467Y001328D02*
X007537Y001328D01*
X007537Y001406D02*
X007467Y001406D01*
X006819Y001013D02*
X006233Y001013D01*
X006312Y001092D02*
X006740Y001092D01*
X006661Y001171D02*
X006390Y001171D01*
X006469Y001249D02*
X006583Y001249D01*
X006557Y001328D02*
X006487Y001328D01*
X006487Y001406D02*
X006557Y001406D01*
X005182Y002349D02*
X001672Y002349D01*
X001672Y002427D02*
X005261Y002427D01*
X005104Y002270D02*
X001672Y002270D01*
X001672Y002192D02*
X002205Y002192D01*
X002044Y002113D02*
X001672Y002113D01*
X001672Y002034D02*
X001966Y002034D01*
X001887Y001956D02*
X001672Y001956D01*
X001672Y001877D02*
X001828Y001877D01*
X001796Y001799D02*
X001672Y001799D01*
X001672Y001720D02*
X001763Y001720D01*
X001731Y001642D02*
X001672Y001642D01*
X001672Y001563D02*
X001722Y001563D01*
X001722Y001485D02*
X001672Y001485D01*
X001672Y001406D02*
X001722Y001406D01*
X001722Y001328D02*
X001675Y001328D01*
X001687Y001249D02*
X001746Y001249D01*
X001778Y001171D02*
X001707Y001171D01*
X003058Y002034D02*
X004868Y002034D01*
X004947Y002113D02*
X002979Y002113D01*
X002819Y002192D02*
X005025Y002192D01*
X005287Y002663D02*
X004737Y002663D01*
X004815Y002741D02*
X005209Y002741D01*
X005130Y002820D02*
X004894Y002820D01*
X004287Y002663D02*
X003737Y002663D01*
X003815Y002741D02*
X004209Y002741D01*
X004130Y002820D02*
X003894Y002820D01*
X003287Y002663D02*
X002912Y002663D01*
X002972Y002741D02*
X003209Y002741D01*
X003130Y002820D02*
X002972Y002820D01*
X002111Y002663D02*
X001672Y002663D01*
X001672Y002741D02*
X002052Y002741D01*
X002052Y002820D02*
X001672Y002820D01*
X001672Y002898D02*
X002052Y002898D01*
X002052Y002977D02*
X001672Y002977D01*
X001672Y003056D02*
X002052Y003056D01*
X002052Y003134D02*
X001672Y003134D01*
X001672Y003213D02*
X002052Y003213D01*
X002052Y003291D02*
X001672Y003291D01*
X001672Y003370D02*
X002052Y003370D01*
X002052Y003448D02*
X001672Y003448D01*
X001672Y003527D02*
X002124Y003527D01*
X002266Y003684D02*
X001672Y003684D01*
X001672Y003762D02*
X002187Y003762D01*
X002109Y003841D02*
X001672Y003841D01*
X001672Y003920D02*
X002052Y003920D01*
X002052Y003998D02*
X001672Y003998D01*
X001672Y004077D02*
X002052Y004077D01*
X002052Y004155D02*
X001672Y004155D01*
X001672Y004234D02*
X002052Y004234D01*
X002085Y004312D02*
X001672Y004312D01*
X001672Y004391D02*
X002163Y004391D01*
X002242Y004469D02*
X001672Y004469D01*
X001672Y004548D02*
X002321Y004548D01*
X002703Y004548D02*
X003272Y004548D01*
X003260Y004626D02*
X001672Y004626D01*
X001672Y004705D02*
X003181Y004705D01*
X003103Y004784D02*
X001672Y004784D01*
X001672Y004862D02*
X003024Y004862D01*
X002945Y004941D02*
X001672Y004941D01*
X001672Y005019D02*
X002867Y005019D01*
X002788Y005098D02*
X001672Y005098D01*
X001672Y005176D02*
X002281Y005176D01*
X002202Y005255D02*
X001672Y005255D01*
X001672Y005333D02*
X002124Y005333D01*
X002057Y005412D02*
X001672Y005412D01*
X001672Y005490D02*
X002057Y005490D01*
X002057Y005647D02*
X001672Y005647D01*
X001672Y005569D02*
X002472Y005569D01*
X002472Y005647D02*
X002552Y005647D01*
X002552Y005726D02*
X002472Y005726D01*
X002472Y005805D02*
X002552Y005805D01*
X002552Y005883D02*
X002472Y005883D01*
X002472Y005962D02*
X002552Y005962D01*
X002552Y006040D02*
X002472Y006040D01*
X002320Y006040D02*
X001672Y006040D01*
X001672Y005962D02*
X002241Y005962D01*
X002163Y005883D02*
X001672Y005883D01*
X001672Y005805D02*
X002084Y005805D01*
X002057Y005726D02*
X001672Y005726D01*
X001672Y006119D02*
X002310Y006119D01*
X002231Y006197D02*
X001672Y006197D01*
X001672Y006276D02*
X002153Y006276D01*
X002074Y006354D02*
X001672Y006354D01*
X001672Y006433D02*
X002037Y006433D01*
X002037Y006511D02*
X001672Y006511D01*
X001672Y006590D02*
X002037Y006590D01*
X002037Y006669D02*
X001672Y006669D01*
X001672Y006747D02*
X002037Y006747D01*
X002077Y006826D02*
X001672Y006826D01*
X001672Y006904D02*
X002156Y006904D01*
X002234Y006983D02*
X001672Y006983D01*
X001672Y007061D02*
X002313Y007061D01*
X002245Y007140D02*
X001672Y007140D01*
X001672Y007218D02*
X002167Y007218D01*
X002094Y007297D02*
X001672Y007297D01*
X001672Y007375D02*
X002094Y007375D01*
X002094Y007454D02*
X001672Y007454D01*
X001672Y007533D02*
X002094Y007533D01*
X002094Y007611D02*
X001672Y007611D01*
X001672Y007690D02*
X002147Y007690D01*
X002226Y007768D02*
X001672Y007768D01*
X001672Y007847D02*
X002305Y007847D01*
X002719Y007847D02*
X002772Y007847D01*
X002772Y007925D02*
X001672Y007925D01*
X001672Y008004D02*
X002772Y008004D01*
X002772Y008082D02*
X001672Y008082D01*
X001672Y008161D02*
X002724Y008161D01*
X002646Y008239D02*
X001672Y008239D01*
X001672Y008318D02*
X002594Y008318D01*
X002594Y008396D02*
X001672Y008396D01*
X001673Y008475D02*
X002594Y008475D01*
X002594Y008554D02*
X001680Y008554D01*
X001693Y008632D02*
X002594Y008632D01*
X002669Y008711D02*
X001715Y008711D01*
X001743Y008789D02*
X002747Y008789D01*
X002826Y008868D02*
X001783Y008868D01*
X001833Y008946D02*
X005915Y008946D01*
X005993Y009025D02*
X001894Y009025D01*
X001973Y009103D02*
X006072Y009103D01*
X006150Y009182D02*
X002081Y009182D01*
X002249Y009260D02*
X006229Y009260D01*
X005826Y008868D02*
X004198Y008868D01*
X004277Y008789D02*
X004775Y008789D01*
X004847Y008861D02*
X004614Y008628D01*
X004614Y008502D01*
X004973Y008502D01*
X004973Y008425D01*
X004614Y008425D01*
X004614Y008299D01*
X004847Y008066D01*
X004973Y008066D01*
X004973Y008425D01*
X005051Y008425D01*
X005051Y008502D01*
X005409Y008502D01*
X005409Y008628D01*
X005176Y008861D01*
X005051Y008861D01*
X005051Y008503D01*
X004973Y008503D01*
X004973Y008861D01*
X004847Y008861D01*
X004973Y008789D02*
X005051Y008789D01*
X005051Y008711D02*
X004973Y008711D01*
X004973Y008632D02*
X005051Y008632D01*
X005051Y008554D02*
X004973Y008554D01*
X004973Y008475D02*
X004429Y008475D01*
X004429Y008396D02*
X004614Y008396D01*
X004614Y008318D02*
X004429Y008318D01*
X004378Y008239D02*
X004674Y008239D01*
X004752Y008161D02*
X004299Y008161D01*
X004252Y008082D02*
X004831Y008082D01*
X004973Y008082D02*
X005051Y008082D01*
X005051Y008066D02*
X005176Y008066D01*
X005409Y008299D01*
X005409Y008425D01*
X005051Y008425D01*
X005051Y008066D01*
X005051Y008161D02*
X004973Y008161D01*
X004973Y008239D02*
X005051Y008239D01*
X005051Y008318D02*
X004973Y008318D01*
X004973Y008396D02*
X005051Y008396D01*
X005051Y008475D02*
X005594Y008475D01*
X005594Y008396D02*
X005409Y008396D01*
X005409Y008318D02*
X005594Y008318D01*
X005646Y008239D02*
X005350Y008239D01*
X005271Y008161D02*
X005724Y008161D01*
X005803Y008082D02*
X005193Y008082D01*
X005305Y007847D02*
X004719Y007847D01*
X004798Y007768D02*
X005226Y007768D01*
X005147Y007690D02*
X004876Y007690D01*
X004929Y007611D02*
X005094Y007611D01*
X005094Y007533D02*
X004929Y007533D01*
X004929Y007454D02*
X005094Y007454D01*
X005094Y007375D02*
X004929Y007375D01*
X004929Y007297D02*
X005094Y007297D01*
X005115Y007218D02*
X004857Y007218D01*
X004778Y007140D02*
X005036Y007140D01*
X004958Y007061D02*
X004700Y007061D01*
X004625Y006983D02*
X004533Y006983D01*
X004533Y006904D02*
X004546Y006904D01*
X005244Y006669D02*
X007102Y006669D01*
X007102Y006747D02*
X005322Y006747D01*
X005401Y006826D02*
X007102Y006826D01*
X007102Y006904D02*
X005479Y006904D01*
X005558Y006983D02*
X007102Y006983D01*
X007102Y007061D02*
X006700Y007061D01*
X006685Y007046D02*
X006929Y007291D01*
X006929Y007636D01*
X006685Y007881D01*
X006339Y007881D01*
X006094Y007636D01*
X006094Y007291D01*
X006339Y007046D01*
X006685Y007046D01*
X006778Y007140D02*
X007102Y007140D01*
X007102Y007218D02*
X006857Y007218D01*
X006929Y007297D02*
X007094Y007297D01*
X007094Y007375D02*
X006929Y007375D01*
X006929Y007454D02*
X007094Y007454D01*
X007094Y007533D02*
X006929Y007533D01*
X006929Y007611D02*
X007094Y007611D01*
X007147Y007690D02*
X006876Y007690D01*
X006798Y007768D02*
X007226Y007768D01*
X007305Y007847D02*
X006719Y007847D01*
X006831Y008082D02*
X006221Y008082D01*
X006299Y008161D02*
X006752Y008161D01*
X006674Y008239D02*
X006378Y008239D01*
X006446Y008318D02*
X006614Y008318D01*
X006614Y008396D02*
X006524Y008396D01*
X006603Y008475D02*
X006973Y008475D01*
X007051Y008475D02*
X007594Y008475D01*
X007594Y008396D02*
X007409Y008396D01*
X007409Y008318D02*
X007594Y008318D01*
X007646Y008239D02*
X007350Y008239D01*
X007271Y008161D02*
X007724Y008161D01*
X007803Y008082D02*
X007193Y008082D01*
X007051Y008082D02*
X006973Y008082D01*
X006973Y008161D02*
X007051Y008161D01*
X007051Y008239D02*
X006973Y008239D01*
X006973Y008318D02*
X007051Y008318D01*
X007051Y008396D02*
X006973Y008396D01*
X007327Y008711D02*
X007669Y008711D01*
X007594Y008632D02*
X007405Y008632D01*
X007409Y008554D02*
X007594Y008554D01*
X007906Y008004D02*
X004252Y008004D01*
X004252Y007925D02*
X007828Y007925D01*
X007749Y007847D02*
X007719Y007847D01*
X006324Y007061D02*
X005700Y007061D01*
X005778Y007140D02*
X006245Y007140D01*
X006167Y007218D02*
X005857Y007218D01*
X005929Y007297D02*
X006094Y007297D01*
X006094Y007375D02*
X005929Y007375D01*
X005929Y007454D02*
X006094Y007454D01*
X006094Y007533D02*
X005929Y007533D01*
X005929Y007611D02*
X006094Y007611D01*
X006147Y007690D02*
X005876Y007690D01*
X005798Y007768D02*
X006226Y007768D01*
X006305Y007847D02*
X005719Y007847D01*
X005594Y008554D02*
X005409Y008554D01*
X005405Y008632D02*
X005594Y008632D01*
X005669Y008711D02*
X005327Y008711D01*
X005248Y008789D02*
X005747Y008789D01*
X004697Y008711D02*
X004355Y008711D01*
X004429Y008632D02*
X004618Y008632D01*
X004614Y008554D02*
X004429Y008554D01*
X003826Y008868D02*
X003198Y008868D01*
X003277Y008789D02*
X003747Y008789D01*
X003669Y008711D02*
X003355Y008711D01*
X003429Y008632D02*
X003594Y008632D01*
X003594Y008554D02*
X003429Y008554D01*
X003429Y008475D02*
X003594Y008475D01*
X003594Y008396D02*
X003429Y008396D01*
X003429Y008318D02*
X003594Y008318D01*
X003646Y008239D02*
X003378Y008239D01*
X003299Y008161D02*
X003724Y008161D01*
X003772Y008082D02*
X003252Y008082D01*
X003252Y008004D02*
X003772Y008004D01*
X003772Y007925D02*
X003252Y007925D01*
X003252Y007847D02*
X003305Y007847D01*
X003719Y007847D02*
X003772Y007847D01*
X004252Y007847D02*
X004305Y007847D01*
X005244Y006590D02*
X007102Y006590D01*
X007102Y006511D02*
X005244Y006511D01*
X005244Y006433D02*
X007102Y006433D01*
X007030Y006354D02*
X005965Y006354D01*
X005936Y006384D02*
X005802Y006384D01*
X005802Y006004D01*
X005722Y006004D01*
X005722Y006384D01*
X005588Y006384D01*
X005342Y006138D01*
X005342Y006004D01*
X005722Y006004D01*
X005722Y005924D01*
X005342Y005924D01*
X005342Y005790D01*
X005588Y005544D01*
X005722Y005544D01*
X005722Y005923D01*
X005802Y005923D01*
X005802Y005544D01*
X005936Y005544D01*
X006182Y005790D01*
X006182Y005924D01*
X005802Y005924D01*
X005802Y006004D01*
X006182Y006004D01*
X006182Y006138D01*
X005936Y006384D01*
X005802Y006354D02*
X005722Y006354D01*
X005722Y006276D02*
X005802Y006276D01*
X005802Y006197D02*
X005722Y006197D01*
X005722Y006119D02*
X005802Y006119D01*
X005802Y006040D02*
X005722Y006040D01*
X005722Y005962D02*
X005017Y005962D01*
X004990Y005989D02*
X004864Y005989D01*
X004864Y005629D01*
X004784Y005629D01*
X004784Y005989D01*
X004659Y005989D01*
X004424Y005754D01*
X004424Y005629D01*
X004784Y005629D01*
X004784Y005549D01*
X004424Y005549D01*
X004424Y005423D01*
X004659Y005189D01*
X004784Y005189D01*
X004784Y005548D01*
X004864Y005548D01*
X004864Y005189D01*
X004990Y005189D01*
X005224Y005423D01*
X005224Y005549D01*
X004864Y005549D01*
X004864Y005629D01*
X005224Y005629D01*
X005224Y005754D01*
X004990Y005989D01*
X004864Y005962D02*
X004784Y005962D01*
X004784Y005883D02*
X004864Y005883D01*
X004864Y005805D02*
X004784Y005805D01*
X004784Y005726D02*
X004864Y005726D01*
X004864Y005647D02*
X004784Y005647D01*
X004784Y005569D02*
X004182Y005569D01*
X004182Y005647D02*
X004424Y005647D01*
X004424Y005726D02*
X004239Y005726D01*
X004317Y005805D02*
X004475Y005805D01*
X004553Y005883D02*
X004396Y005883D01*
X004474Y005962D02*
X004632Y005962D01*
X004533Y006040D02*
X005342Y006040D01*
X005342Y006119D02*
X004533Y006119D01*
X004533Y006197D02*
X004622Y006197D01*
X004543Y006276D02*
X004533Y006276D01*
X005027Y006197D02*
X005402Y006197D01*
X005480Y006276D02*
X005106Y006276D01*
X005184Y006354D02*
X005559Y006354D01*
X006044Y006276D02*
X006952Y006276D01*
X006873Y006197D02*
X006122Y006197D01*
X006182Y006119D02*
X006822Y006119D01*
X006822Y006040D02*
X006182Y006040D01*
X006182Y005883D02*
X006822Y005883D01*
X006822Y005805D02*
X006182Y005805D01*
X006118Y005726D02*
X006877Y005726D01*
X006956Y005647D02*
X006040Y005647D01*
X005961Y005569D02*
X007034Y005569D01*
X007489Y005569D02*
X007903Y005569D01*
X007824Y005490D02*
X005224Y005490D01*
X005213Y005412D02*
X007746Y005412D01*
X007667Y005333D02*
X005135Y005333D01*
X005056Y005255D02*
X007589Y005255D01*
X007510Y005176D02*
X003943Y005176D01*
X004022Y005255D02*
X004592Y005255D01*
X004514Y005333D02*
X004100Y005333D01*
X004179Y005412D02*
X004435Y005412D01*
X004424Y005490D02*
X004182Y005490D01*
X003842Y005098D02*
X005994Y005098D01*
X005915Y005019D02*
X003921Y005019D01*
X003999Y004941D02*
X005837Y004941D01*
X005758Y004862D02*
X004078Y004862D01*
X004156Y004784D02*
X005680Y004784D01*
X005601Y004705D02*
X004235Y004705D01*
X004252Y004626D02*
X005523Y004626D01*
X005321Y004548D02*
X004703Y004548D01*
X004782Y004469D02*
X005242Y004469D01*
X005163Y004391D02*
X004860Y004391D01*
X004939Y004312D02*
X005085Y004312D01*
X005052Y004234D02*
X004972Y004234D01*
X004972Y004155D02*
X005052Y004155D01*
X005052Y004077D02*
X004972Y004077D01*
X004972Y003998D02*
X005052Y003998D01*
X005052Y003920D02*
X005020Y003920D01*
X005099Y003841D02*
X005109Y003841D01*
X004321Y004548D02*
X004252Y004548D01*
X003242Y004469D02*
X002782Y004469D01*
X002860Y004391D02*
X003163Y004391D01*
X003085Y004312D02*
X002939Y004312D01*
X002972Y004234D02*
X003052Y004234D01*
X003052Y004155D02*
X002972Y004155D01*
X002972Y004077D02*
X003052Y004077D01*
X003052Y003998D02*
X002972Y003998D01*
X003041Y003920D02*
X003052Y003920D01*
X002675Y003605D02*
X001672Y003605D01*
X001672Y002584D02*
X007856Y002584D01*
X007934Y002663D02*
X007737Y002663D01*
X007815Y002741D02*
X008013Y002741D01*
X008091Y002820D02*
X007894Y002820D01*
X007972Y002898D02*
X008170Y002898D01*
X008248Y002977D02*
X007972Y002977D01*
X007972Y003056D02*
X008327Y003056D01*
X007777Y002506D02*
X001672Y002506D01*
X002472Y005176D02*
X002552Y005176D01*
X002552Y005255D02*
X002472Y005255D01*
X002472Y005333D02*
X002552Y005333D01*
X002552Y005412D02*
X002472Y005412D01*
X002472Y005490D02*
X002552Y005490D01*
X002743Y005176D02*
X002772Y005176D01*
X002772Y006040D02*
X002704Y006040D01*
X002714Y006119D02*
X002772Y006119D01*
X004784Y005490D02*
X004864Y005490D01*
X004864Y005412D02*
X004784Y005412D01*
X004784Y005333D02*
X004864Y005333D01*
X004864Y005255D02*
X004784Y005255D01*
X004864Y005569D02*
X005563Y005569D01*
X005484Y005647D02*
X005224Y005647D01*
X005224Y005726D02*
X005405Y005726D01*
X005342Y005805D02*
X005174Y005805D01*
X005095Y005883D02*
X005342Y005883D01*
X005722Y005883D02*
X005802Y005883D01*
X005802Y005805D02*
X005722Y005805D01*
X005722Y005726D02*
X005802Y005726D01*
X005802Y005647D02*
X005722Y005647D01*
X005722Y005569D02*
X005802Y005569D01*
X005802Y005962D02*
X006822Y005962D01*
X007568Y005647D02*
X008706Y005647D01*
X008627Y005726D02*
X007646Y005726D01*
X007702Y005805D02*
X008572Y005805D01*
X008513Y005883D02*
X007761Y005883D01*
X007840Y005962D02*
X008434Y005962D01*
X008355Y006040D02*
X007918Y006040D01*
X007922Y006119D02*
X008277Y006119D01*
X008198Y006197D02*
X007922Y006197D01*
X007922Y006276D02*
X008120Y006276D01*
X008041Y006354D02*
X007922Y006354D01*
X007922Y006433D02*
X007963Y006433D01*
X009422Y006747D02*
X009456Y006747D01*
X009422Y006826D02*
X009534Y006826D01*
X009613Y006904D02*
X009422Y006904D01*
X009422Y006983D02*
X009692Y006983D01*
X009770Y007061D02*
X009422Y007061D01*
X009473Y007140D02*
X009551Y007140D01*
X009551Y007218D02*
X009473Y007218D01*
X009473Y007297D02*
X009551Y007297D01*
X009551Y007375D02*
X009473Y007375D01*
X009551Y007454D02*
X010094Y007454D01*
X010094Y007533D02*
X009909Y007533D01*
X009909Y007611D02*
X010094Y007611D01*
X010147Y007690D02*
X009848Y007690D01*
X009769Y007768D02*
X010226Y007768D01*
X010305Y007847D02*
X009691Y007847D01*
X009551Y007847D02*
X009473Y007847D01*
X009473Y007768D02*
X009551Y007768D01*
X009551Y007690D02*
X009473Y007690D01*
X009473Y007611D02*
X009551Y007611D01*
X009551Y007533D02*
X009473Y007533D01*
X009422Y007925D02*
X012772Y007925D01*
X012772Y007847D02*
X012719Y007847D01*
X012772Y008004D02*
X009422Y008004D01*
X009422Y008082D02*
X009803Y008082D01*
X009724Y008161D02*
X009422Y008161D01*
X009422Y008239D02*
X009646Y008239D01*
X009594Y008318D02*
X009429Y008318D01*
X009429Y008396D02*
X009594Y008396D01*
X009594Y008475D02*
X009429Y008475D01*
X009429Y008554D02*
X009594Y008554D01*
X009594Y008632D02*
X009429Y008632D01*
X009355Y008711D02*
X009669Y008711D01*
X010378Y008239D02*
X010646Y008239D01*
X010578Y008318D02*
X010429Y008318D01*
X010429Y008396D02*
X010499Y008396D01*
X010299Y008161D02*
X010724Y008161D01*
X010803Y008082D02*
X010221Y008082D01*
X010719Y007847D02*
X011305Y007847D01*
X011226Y007768D02*
X010798Y007768D01*
X010876Y007690D02*
X011147Y007690D01*
X011094Y007611D02*
X010929Y007611D01*
X010929Y007533D02*
X011094Y007533D01*
X011094Y007454D02*
X010929Y007454D01*
X010929Y007375D02*
X011094Y007375D01*
X011094Y007297D02*
X010929Y007297D01*
X010857Y007218D02*
X011167Y007218D01*
X011857Y007218D02*
X012167Y007218D01*
X012094Y007297D02*
X011929Y007297D01*
X011929Y007375D02*
X012094Y007375D01*
X012094Y007454D02*
X011929Y007454D01*
X011929Y007533D02*
X012094Y007533D01*
X012094Y007611D02*
X011929Y007611D01*
X011876Y007690D02*
X012147Y007690D01*
X012226Y007768D02*
X011798Y007768D01*
X011719Y007847D02*
X012305Y007847D01*
X012185Y008046D02*
X012429Y008291D01*
X012429Y008636D01*
X012185Y008881D01*
X011839Y008881D01*
X011594Y008636D01*
X011594Y008291D01*
X011839Y008046D01*
X012185Y008046D01*
X012221Y008082D02*
X012772Y008082D01*
X012724Y008161D02*
X012299Y008161D01*
X012378Y008239D02*
X012646Y008239D01*
X012594Y008318D02*
X012429Y008318D01*
X012429Y008396D02*
X012594Y008396D01*
X012594Y008475D02*
X012429Y008475D01*
X012429Y008554D02*
X012594Y008554D01*
X012594Y008632D02*
X012429Y008632D01*
X012355Y008711D02*
X012669Y008711D01*
X012747Y008789D02*
X012277Y008789D01*
X012198Y008868D02*
X012826Y008868D01*
X013198Y008868D02*
X013826Y008868D01*
X013747Y008789D02*
X013277Y008789D01*
X013355Y008711D02*
X013669Y008711D01*
X013594Y008632D02*
X013429Y008632D01*
X013429Y008554D02*
X013594Y008554D01*
X013594Y008475D02*
X013429Y008475D01*
X013429Y008396D02*
X013594Y008396D01*
X013594Y008318D02*
X013429Y008318D01*
X013378Y008239D02*
X013646Y008239D01*
X013724Y008161D02*
X013299Y008161D01*
X013252Y008082D02*
X013772Y008082D01*
X013772Y008004D02*
X013252Y008004D01*
X013252Y007925D02*
X013772Y007925D01*
X013772Y007847D02*
X013719Y007847D01*
X013305Y007847D02*
X013252Y007847D01*
X014252Y007847D02*
X014305Y007847D01*
X014252Y007925D02*
X015337Y007925D01*
X015337Y007847D02*
X014719Y007847D01*
X014798Y007768D02*
X015337Y007768D01*
X015337Y007690D02*
X014876Y007690D01*
X014929Y007611D02*
X015337Y007611D01*
X015337Y007533D02*
X014929Y007533D01*
X014929Y007454D02*
X015337Y007454D01*
X015337Y007375D02*
X014929Y007375D01*
X014929Y007297D02*
X015337Y007297D01*
X015337Y007218D02*
X014857Y007218D01*
X014778Y007140D02*
X015337Y007140D01*
X015337Y007061D02*
X014752Y007061D01*
X014683Y006983D02*
X015337Y006983D01*
X015337Y006904D02*
X014604Y006904D01*
X014526Y006826D02*
X015337Y006826D01*
X015337Y006747D02*
X014447Y006747D01*
X014369Y006669D02*
X015337Y006669D01*
X015337Y006590D02*
X014290Y006590D01*
X014211Y006511D02*
X015337Y006511D01*
X015337Y006433D02*
X014133Y006433D01*
X014054Y006354D02*
X015337Y006354D01*
X015337Y006276D02*
X013976Y006276D01*
X013897Y006197D02*
X015337Y006197D01*
X015337Y006119D02*
X013819Y006119D01*
X013740Y006040D02*
X015337Y006040D01*
X015337Y005962D02*
X013031Y005962D01*
X013064Y005883D02*
X014238Y005883D01*
X014160Y005805D02*
X013077Y005805D01*
X013077Y005726D02*
X013191Y005726D01*
X013433Y005176D02*
X014106Y005176D01*
X014185Y005098D02*
X013368Y005098D01*
X013289Y005019D02*
X014263Y005019D01*
X014317Y004934D02*
X014042Y004658D01*
X014042Y004504D01*
X014472Y004504D01*
X014472Y004934D01*
X014317Y004934D01*
X014246Y004862D02*
X013444Y004862D01*
X013467Y004784D02*
X014167Y004784D01*
X014089Y004705D02*
X013467Y004705D01*
X013467Y004548D02*
X014042Y004548D01*
X014042Y004626D02*
X013052Y004626D01*
X013052Y004548D02*
X012972Y004548D01*
X012972Y004469D02*
X013052Y004469D01*
X013052Y004391D02*
X012972Y004391D01*
X012972Y004312D02*
X013052Y004312D01*
X013052Y004234D02*
X012972Y004234D01*
X013035Y004155D02*
X014156Y004155D01*
X014234Y004077D02*
X013113Y004077D01*
X013238Y004234D02*
X014077Y004234D01*
X014042Y004269D02*
X014317Y003994D01*
X014472Y003994D01*
X014472Y004423D01*
X014552Y004423D01*
X014552Y003994D01*
X014706Y003994D01*
X014982Y004269D01*
X014982Y004424D01*
X014552Y004424D01*
X014552Y004504D01*
X014472Y004504D01*
X014472Y004424D01*
X014042Y004424D01*
X014042Y004269D01*
X014042Y004312D02*
X013316Y004312D01*
X013395Y004391D02*
X014042Y004391D01*
X014472Y004391D02*
X014552Y004391D01*
X014552Y004469D02*
X015337Y004469D01*
X015337Y004391D02*
X014982Y004391D01*
X014982Y004312D02*
X015337Y004312D01*
X015337Y004234D02*
X014947Y004234D01*
X014868Y004155D02*
X015337Y004155D01*
X015337Y004077D02*
X014789Y004077D01*
X014711Y003998D02*
X015337Y003998D01*
X015337Y003920D02*
X014749Y003920D01*
X014827Y003841D02*
X015337Y003841D01*
X015337Y003762D02*
X014906Y003762D01*
X014984Y003684D02*
X015337Y003684D01*
X015337Y003605D02*
X015002Y003605D01*
X015002Y003527D02*
X015337Y003527D01*
X015337Y003448D02*
X015002Y003448D01*
X015002Y003370D02*
X015337Y003370D01*
X015337Y003291D02*
X015002Y003291D01*
X014954Y003213D02*
X015337Y003213D01*
X015337Y003134D02*
X014875Y003134D01*
X014797Y003056D02*
X015337Y003056D01*
X015337Y002977D02*
X014718Y002977D01*
X014305Y002977D02*
X013412Y002977D01*
X013412Y002986D02*
X013052Y002986D01*
X013052Y003066D01*
X013412Y003066D01*
X013412Y003192D01*
X013177Y003426D01*
X013052Y003426D01*
X013052Y003066D01*
X012972Y003066D01*
X012972Y003426D01*
X012846Y003426D01*
X012612Y003192D01*
X012612Y003066D01*
X012972Y003066D01*
X012972Y002986D01*
X013052Y002986D01*
X013052Y002626D01*
X013177Y002626D01*
X013412Y002860D01*
X013412Y002986D01*
X013412Y002898D02*
X015337Y002898D01*
X015337Y002820D02*
X013371Y002820D01*
X013293Y002741D02*
X015337Y002741D01*
X015337Y002663D02*
X013214Y002663D01*
X013052Y002663D02*
X012972Y002663D01*
X012972Y002626D02*
X012972Y002986D01*
X012612Y002986D01*
X012612Y002860D01*
X012846Y002626D01*
X012972Y002626D01*
X012972Y002741D02*
X013052Y002741D01*
X013052Y002820D02*
X012972Y002820D01*
X012972Y002898D02*
X013052Y002898D01*
X013052Y002977D02*
X012972Y002977D01*
X012972Y003056D02*
X012432Y003056D01*
X012432Y003134D02*
X012612Y003134D01*
X012633Y003213D02*
X012419Y003213D01*
X012372Y003291D02*
X012711Y003291D01*
X012790Y003370D02*
X012372Y003370D01*
X012372Y003448D02*
X013563Y003448D01*
X013641Y003370D02*
X013234Y003370D01*
X013312Y003291D02*
X013720Y003291D01*
X013484Y003527D02*
X012372Y003527D01*
X012372Y003605D02*
X012906Y003605D01*
X012827Y003684D02*
X012372Y003684D01*
X012372Y003762D02*
X012749Y003762D01*
X012670Y003841D02*
X012372Y003841D01*
X012372Y003920D02*
X012591Y003920D01*
X012513Y003998D02*
X012372Y003998D01*
X012372Y004077D02*
X012434Y004077D01*
X011397Y004077D02*
X011302Y004077D01*
X011312Y004067D02*
X011077Y004301D01*
X010952Y004301D01*
X010952Y003941D01*
X011312Y003941D01*
X011312Y004067D01*
X011312Y003998D02*
X011397Y003998D01*
X011397Y003920D02*
X010952Y003920D01*
X010952Y003941D02*
X010952Y003861D01*
X011312Y003861D01*
X011312Y003735D01*
X011217Y003641D01*
X011397Y003641D01*
X011397Y004114D01*
X011209Y004302D01*
X011209Y004501D01*
X011209Y004501D01*
X011209Y004759D01*
X010751Y004301D01*
X010872Y004301D01*
X010872Y003941D01*
X010952Y003941D01*
X010952Y003998D02*
X010872Y003998D01*
X010872Y003941D02*
X010532Y003941D01*
X010532Y003861D01*
X010872Y003861D01*
X010872Y003941D01*
X010872Y003920D02*
X010532Y003920D01*
X010872Y004077D02*
X010952Y004077D01*
X010952Y004155D02*
X010872Y004155D01*
X010872Y004234D02*
X010952Y004234D01*
X011145Y004234D02*
X011277Y004234D01*
X011223Y004155D02*
X011356Y004155D01*
X011209Y004312D02*
X010762Y004312D01*
X010841Y004391D02*
X011209Y004391D01*
X011209Y004469D02*
X010919Y004469D01*
X010998Y004548D02*
X011209Y004548D01*
X011209Y004626D02*
X011076Y004626D01*
X011155Y004705D02*
X011209Y004705D01*
X010573Y005176D02*
X010064Y005176D01*
X010111Y005224D02*
X010252Y005364D01*
X010252Y005630D01*
X010338Y005544D01*
X010472Y005544D01*
X010472Y005923D01*
X010552Y005923D01*
X010552Y005544D01*
X010686Y005544D01*
X010932Y005790D01*
X010932Y005924D01*
X010552Y005924D01*
X010552Y006004D01*
X010932Y006004D01*
X010932Y006138D01*
X010846Y006224D01*
X011600Y006224D01*
X011620Y006224D01*
X010037Y004641D01*
X009924Y004641D01*
X009828Y004641D01*
X009824Y004641D01*
X009725Y004641D01*
X009584Y004501D01*
X009584Y004501D01*
X009381Y004297D01*
X009381Y004361D01*
X009021Y004361D01*
X009021Y004441D01*
X009381Y004441D01*
X009381Y004567D01*
X009286Y004661D01*
X009350Y004661D01*
X009448Y004661D01*
X009449Y004661D01*
X009462Y004661D01*
X009549Y004661D01*
X010111Y005224D01*
X010142Y005255D02*
X010651Y005255D01*
X010730Y005333D02*
X010221Y005333D01*
X010252Y005412D02*
X010808Y005412D01*
X010887Y005490D02*
X010252Y005490D01*
X010252Y005569D02*
X010313Y005569D01*
X010472Y005569D02*
X010552Y005569D01*
X010552Y005647D02*
X010472Y005647D01*
X010472Y005726D02*
X010552Y005726D01*
X010552Y005805D02*
X010472Y005805D01*
X010472Y005883D02*
X010552Y005883D01*
X010552Y005962D02*
X011358Y005962D01*
X011437Y006040D02*
X010932Y006040D01*
X010932Y006119D02*
X011515Y006119D01*
X011594Y006197D02*
X010872Y006197D01*
X010932Y005883D02*
X011279Y005883D01*
X011201Y005805D02*
X010932Y005805D01*
X010868Y005726D02*
X011122Y005726D01*
X011044Y005647D02*
X010790Y005647D01*
X010711Y005569D02*
X010965Y005569D01*
X010494Y005098D02*
X009985Y005098D01*
X009907Y005019D02*
X010415Y005019D01*
X010337Y004941D02*
X009828Y004941D01*
X009750Y004862D02*
X010258Y004862D01*
X010180Y004784D02*
X009671Y004784D01*
X009593Y004705D02*
X010101Y004705D01*
X009924Y004641D02*
X009924Y004641D01*
X009710Y004626D02*
X009321Y004626D01*
X009350Y004661D02*
X009350Y004661D01*
X009381Y004548D02*
X009632Y004548D01*
X009553Y004469D02*
X009381Y004469D01*
X009475Y004391D02*
X009021Y004391D01*
X008940Y004391D02*
X008153Y004391D01*
X008075Y004312D02*
X008581Y004312D01*
X008581Y004361D02*
X008581Y004235D01*
X008675Y004141D01*
X008537Y004141D01*
X008397Y004001D01*
X008397Y004000D02*
X008225Y003829D01*
X007902Y003829D01*
X007972Y003898D01*
X007972Y004209D01*
X008424Y004661D01*
X008675Y004661D01*
X008581Y004567D01*
X008581Y004441D01*
X008940Y004441D01*
X008940Y004361D01*
X008581Y004361D01*
X008581Y004469D02*
X008232Y004469D01*
X008310Y004548D02*
X008581Y004548D01*
X008640Y004626D02*
X008389Y004626D01*
X008582Y004234D02*
X007996Y004234D01*
X007972Y004155D02*
X008661Y004155D01*
X008473Y004077D02*
X007972Y004077D01*
X007972Y003998D02*
X008394Y003998D01*
X008397Y004000D02*
X008397Y004001D01*
X008316Y003920D02*
X007972Y003920D01*
X007915Y003841D02*
X008237Y003841D01*
X009381Y004312D02*
X009396Y004312D01*
X011260Y003684D02*
X011397Y003684D01*
X011397Y003762D02*
X011312Y003762D01*
X011312Y003841D02*
X011397Y003841D01*
X012432Y002977D02*
X012612Y002977D01*
X012612Y002898D02*
X012432Y002898D01*
X012400Y002820D02*
X012652Y002820D01*
X012731Y002741D02*
X012321Y002741D01*
X012242Y002663D02*
X012809Y002663D01*
X013052Y003056D02*
X014227Y003056D01*
X014148Y003134D02*
X013412Y003134D01*
X013391Y003213D02*
X014070Y003213D01*
X014118Y003762D02*
X013927Y003762D01*
X013849Y003841D02*
X014196Y003841D01*
X014275Y003920D02*
X013770Y003920D01*
X013692Y003998D02*
X014313Y003998D01*
X014472Y003998D02*
X014552Y003998D01*
X014552Y004077D02*
X014472Y004077D01*
X014472Y004155D02*
X014552Y004155D01*
X014552Y004234D02*
X014472Y004234D01*
X014472Y004312D02*
X014552Y004312D01*
X014472Y004469D02*
X013467Y004469D01*
X013366Y004941D02*
X015337Y004941D01*
X015337Y005019D02*
X014760Y005019D01*
X014706Y004934D02*
X014552Y004934D01*
X014552Y004504D01*
X014982Y004504D01*
X014982Y004658D01*
X014706Y004934D01*
X014778Y004862D02*
X015337Y004862D01*
X015337Y004784D02*
X014857Y004784D01*
X014935Y004705D02*
X015337Y004705D01*
X015337Y004626D02*
X014982Y004626D01*
X014982Y004548D02*
X015337Y004548D01*
X014552Y004548D02*
X014472Y004548D01*
X014472Y004626D02*
X014552Y004626D01*
X014552Y004705D02*
X014472Y004705D01*
X014472Y004784D02*
X014552Y004784D01*
X014552Y004862D02*
X014472Y004862D01*
X014839Y005098D02*
X015337Y005098D01*
X015337Y005176D02*
X014917Y005176D01*
X014996Y005255D02*
X015337Y005255D01*
X015337Y005333D02*
X015002Y005333D01*
X015002Y005412D02*
X015337Y005412D01*
X015337Y005490D02*
X015002Y005490D01*
X015002Y005569D02*
X015337Y005569D01*
X015337Y005647D02*
X015002Y005647D01*
X014942Y005726D02*
X015337Y005726D01*
X015337Y005805D02*
X014864Y005805D01*
X014785Y005883D02*
X015337Y005883D01*
X015337Y008004D02*
X014252Y008004D01*
X014252Y008082D02*
X015337Y008082D01*
X015337Y008161D02*
X014299Y008161D01*
X014378Y008239D02*
X015337Y008239D01*
X015337Y008318D02*
X014429Y008318D01*
X014429Y008396D02*
X015337Y008396D01*
X015337Y008475D02*
X014429Y008475D01*
X014429Y008554D02*
X015336Y008554D01*
X015327Y008632D02*
X014429Y008632D01*
X014355Y008711D02*
X015315Y008711D01*
X015289Y008789D02*
X014277Y008789D01*
X014198Y008868D02*
X015256Y008868D01*
X015214Y008946D02*
X011109Y008946D01*
X011030Y009025D02*
X015157Y009025D01*
X015081Y009103D02*
X010952Y009103D01*
X010873Y009182D02*
X014981Y009182D01*
X014825Y009260D02*
X010795Y009260D01*
X011198Y008868D02*
X011826Y008868D01*
X011747Y008789D02*
X011277Y008789D01*
X011355Y008711D02*
X011669Y008711D01*
X011594Y008632D02*
X011429Y008632D01*
X011429Y008554D02*
X011594Y008554D01*
X011594Y008475D02*
X011429Y008475D01*
X011429Y008396D02*
X011594Y008396D01*
X011594Y008318D02*
X011429Y008318D01*
X011378Y008239D02*
X011646Y008239D01*
X011724Y008161D02*
X011299Y008161D01*
X011221Y008082D02*
X011803Y008082D01*
X010094Y007375D02*
X009909Y007375D01*
X009907Y007297D02*
X010094Y007297D01*
X010167Y007218D02*
X009829Y007218D01*
X009849Y007140D02*
X009750Y007140D01*
X012972Y003370D02*
X013052Y003370D01*
X013052Y003291D02*
X012972Y003291D01*
X012972Y003213D02*
X013052Y003213D01*
X013052Y003134D02*
X012972Y003134D01*
X011781Y002663D02*
X009970Y002663D01*
X009892Y002584D02*
X015337Y002584D01*
X015337Y002506D02*
X009813Y002506D01*
X009734Y002427D02*
X015337Y002427D01*
X015337Y002349D02*
X009656Y002349D01*
X009577Y002270D02*
X015337Y002270D01*
X015337Y002192D02*
X014819Y002192D01*
X014979Y002113D02*
X015337Y002113D01*
X015337Y002034D02*
X015058Y002034D01*
X015137Y001956D02*
X015337Y001956D01*
X015337Y001877D02*
X015195Y001877D01*
X015228Y001799D02*
X015337Y001799D01*
X015337Y001720D02*
X015260Y001720D01*
X015293Y001642D02*
X015337Y001642D01*
X015337Y001563D02*
X015302Y001563D01*
X015302Y001485D02*
X015337Y001485D01*
X015337Y001406D02*
X015302Y001406D01*
X015302Y001328D02*
X015337Y001328D01*
X015335Y001249D02*
X015278Y001249D01*
X015245Y001171D02*
X015323Y001171D01*
X015303Y001092D02*
X015213Y001092D01*
X015179Y001013D02*
X015275Y001013D01*
X015230Y000935D02*
X015100Y000935D01*
X015170Y000856D02*
X015022Y000856D01*
X015089Y000778D02*
X014920Y000778D01*
X014969Y000699D02*
X014731Y000699D01*
X013845Y001013D02*
X013233Y001013D01*
X013209Y000989D02*
X013487Y001267D01*
X013487Y001660D01*
X013209Y001939D01*
X012815Y001939D01*
X012537Y001660D01*
X012537Y001267D01*
X012815Y000989D01*
X013209Y000989D01*
X013312Y001092D02*
X013811Y001092D01*
X013778Y001171D02*
X013390Y001171D01*
X013469Y001249D02*
X013746Y001249D01*
X013722Y001328D02*
X013487Y001328D01*
X013487Y001406D02*
X013722Y001406D01*
X013722Y001485D02*
X013487Y001485D01*
X013487Y001563D02*
X013722Y001563D01*
X013731Y001642D02*
X013487Y001642D01*
X013427Y001720D02*
X013763Y001720D01*
X013796Y001799D02*
X013348Y001799D01*
X013270Y001877D02*
X013828Y001877D01*
X013887Y001956D02*
X008638Y001956D01*
X008560Y001877D02*
X008782Y001877D01*
X008823Y001919D02*
X008557Y001652D01*
X008557Y001504D01*
X008972Y001504D01*
X008972Y001919D01*
X008823Y001919D01*
X008972Y001877D02*
X009052Y001877D01*
X009052Y001919D02*
X009200Y001919D01*
X009467Y001652D01*
X009467Y001504D01*
X009052Y001504D01*
X008972Y001504D01*
X008972Y001424D01*
X008557Y001424D01*
X008557Y001275D01*
X008823Y001009D01*
X008972Y001009D01*
X008972Y001423D01*
X009052Y001423D01*
X009052Y001009D01*
X009200Y001009D01*
X009467Y001275D01*
X009467Y001424D01*
X009052Y001424D01*
X009052Y001504D01*
X009052Y001919D01*
X009052Y001799D02*
X008972Y001799D01*
X008972Y001720D02*
X009052Y001720D01*
X009052Y001642D02*
X008972Y001642D01*
X008972Y001563D02*
X009052Y001563D01*
X009052Y001485D02*
X009537Y001485D01*
X009537Y001563D02*
X009467Y001563D01*
X009467Y001642D02*
X009537Y001642D01*
X009537Y001660D02*
X009537Y001267D01*
X009815Y000989D01*
X010209Y000989D01*
X010487Y001267D01*
X010487Y001660D01*
X010209Y001939D01*
X009815Y001939D01*
X009537Y001660D01*
X009597Y001720D02*
X009399Y001720D01*
X009320Y001799D02*
X009675Y001799D01*
X009754Y001877D02*
X009241Y001877D01*
X009499Y002192D02*
X014205Y002192D01*
X014044Y002113D02*
X008795Y002113D01*
X008717Y002034D02*
X013966Y002034D01*
X012754Y001877D02*
X012270Y001877D01*
X012209Y001939D02*
X011815Y001939D01*
X011537Y001660D01*
X011537Y001267D01*
X011815Y000989D01*
X012209Y000989D01*
X012487Y001267D01*
X012487Y001660D01*
X012209Y001939D01*
X012348Y001799D02*
X012675Y001799D01*
X012597Y001720D02*
X012427Y001720D01*
X012487Y001642D02*
X012537Y001642D01*
X012537Y001563D02*
X012487Y001563D01*
X012487Y001485D02*
X012537Y001485D01*
X012537Y001406D02*
X012487Y001406D01*
X012487Y001328D02*
X012537Y001328D01*
X012555Y001249D02*
X012469Y001249D01*
X012390Y001171D02*
X012633Y001171D01*
X012712Y001092D02*
X012312Y001092D01*
X012233Y001013D02*
X012790Y001013D01*
X011790Y001013D02*
X011233Y001013D01*
X011209Y000989D02*
X011487Y001267D01*
X011487Y001660D01*
X011209Y001939D01*
X010815Y001939D01*
X010537Y001660D01*
X010537Y001267D01*
X010815Y000989D01*
X011209Y000989D01*
X011312Y001092D02*
X011712Y001092D01*
X011633Y001171D02*
X011390Y001171D01*
X011469Y001249D02*
X011555Y001249D01*
X011537Y001328D02*
X011487Y001328D01*
X011487Y001406D02*
X011537Y001406D01*
X011537Y001485D02*
X011487Y001485D01*
X011487Y001563D02*
X011537Y001563D01*
X011537Y001642D02*
X011487Y001642D01*
X011427Y001720D02*
X011597Y001720D01*
X011675Y001799D02*
X011348Y001799D01*
X011270Y001877D02*
X011754Y001877D01*
X010754Y001877D02*
X010270Y001877D01*
X010348Y001799D02*
X010675Y001799D01*
X010597Y001720D02*
X010427Y001720D01*
X010487Y001642D02*
X010537Y001642D01*
X010537Y001563D02*
X010487Y001563D01*
X010487Y001485D02*
X010537Y001485D01*
X010537Y001406D02*
X010487Y001406D01*
X010487Y001328D02*
X010537Y001328D01*
X010555Y001249D02*
X010469Y001249D01*
X010390Y001171D02*
X010633Y001171D01*
X010712Y001092D02*
X010312Y001092D01*
X010233Y001013D02*
X010790Y001013D01*
X009790Y001013D02*
X009205Y001013D01*
X009284Y001092D02*
X009712Y001092D01*
X009633Y001171D02*
X009362Y001171D01*
X009441Y001249D02*
X009555Y001249D01*
X009537Y001328D02*
X009467Y001328D01*
X009467Y001406D02*
X009537Y001406D01*
X009052Y001406D02*
X008972Y001406D01*
X008972Y001328D02*
X009052Y001328D01*
X009052Y001249D02*
X008972Y001249D01*
X008972Y001171D02*
X009052Y001171D01*
X009052Y001092D02*
X008972Y001092D01*
X008972Y001013D02*
X009052Y001013D01*
X008819Y001013D02*
X008233Y001013D01*
X008312Y001092D02*
X008740Y001092D01*
X008661Y001171D02*
X008390Y001171D01*
X008469Y001249D02*
X008583Y001249D01*
X008557Y001328D02*
X008487Y001328D01*
X008487Y001406D02*
X008557Y001406D01*
X008487Y001485D02*
X008972Y001485D01*
X008625Y001720D02*
X008427Y001720D01*
X008481Y001799D02*
X008704Y001799D01*
X008557Y001642D02*
X008487Y001642D01*
X008487Y001563D02*
X008557Y001563D01*
X007287Y002663D02*
X006737Y002663D01*
X006815Y002741D02*
X007209Y002741D01*
X007130Y002820D02*
X006894Y002820D01*
X006287Y002663D02*
X005737Y002663D01*
X005815Y002741D02*
X006209Y002741D01*
X006130Y002820D02*
X005894Y002820D01*
D22*
X014387Y004464D02*
X014512Y004464D01*
X014637Y004464D01*
D23*
X007012Y001589D02*
X007012Y001464D01*
X007012Y001339D01*
X005012Y008339D02*
X005012Y008464D01*
X005012Y008589D01*
D24*
X006012Y008464D02*
X006574Y009026D01*
X007012Y008464D02*
X007262Y008464D01*
X007262Y008214D01*
X006887Y008214D01*
X006887Y008339D01*
X007512Y007464D02*
X007512Y006214D01*
X007262Y005964D01*
X008137Y006839D02*
X009012Y005964D01*
X009012Y006839D01*
X009012Y006964D01*
X009012Y006839D02*
X008324Y006839D01*
X009512Y007464D02*
X009512Y007714D01*
X009762Y007714D01*
X009762Y007464D01*
X009012Y008089D02*
X009012Y008464D01*
X008637Y008089D01*
X010449Y009026D02*
X011012Y008464D01*
X010512Y005964D02*
X010512Y005714D01*
X009012Y005964D02*
X009012Y005964D01*
X005949Y006151D02*
X005637Y006151D01*
X005637Y005776D01*
X005949Y005776D01*
X005762Y005964D02*
X005762Y005964D01*
X005637Y006151D01*
X004824Y005839D02*
X004824Y005464D01*
X004824Y005589D01*
X012824Y003214D02*
X013262Y003276D01*
X013262Y002964D01*
X012887Y002964D01*
X013074Y002839D01*
X013012Y003026D02*
X012824Y003214D01*
D25*
X005012Y005714D02*
X004824Y005464D01*
D26*
X004949Y005526D01*
X004949Y005589D02*
X004824Y005464D01*
X004762Y005370D02*
X005012Y005651D01*
X005012Y005714D02*
X004824Y005839D01*
X004606Y005839D01*
X004606Y005526D01*
X004762Y005370D01*
X004606Y005526D02*
X005012Y005370D01*
D27*
X008012Y006964D02*
X008012Y007714D01*
X008262Y007964D01*
X008324Y007964D01*
X009012Y007964D01*
X009012Y008089D01*
X009012Y007964D02*
X009012Y007026D01*
X009012Y007089D01*
X009012Y006964D01*
X008137Y006839D02*
X008012Y006964D01*
X008262Y007964D02*
X008262Y007964D01*
X008324Y007964D02*
X008449Y008089D01*
X008637Y008089D01*
X010512Y005964D02*
X010512Y005964D01*
X010512Y005526D02*
X009387Y004401D01*
X009105Y004401D01*
X013074Y005339D02*
X013199Y005339D01*
X013324Y005464D01*
X014512Y005464D01*
D28*
X013387Y004651D02*
X013387Y004276D01*
X013012Y004651D01*
X013387Y004651D01*
X010949Y005964D02*
X010512Y005964D01*
X010512Y005526D01*
X009105Y004401D02*
X008981Y004401D01*
X008793Y004401D01*
D29*
X010512Y005714D02*
X010887Y005714D01*
D30*
X010824Y003964D02*
X011012Y003964D01*
X011012Y003901D01*
X010824Y003901D01*
X010824Y003964D01*
X010824Y003901D02*
X010887Y003901D01*
X009137Y001651D02*
X008887Y001651D01*
X008887Y001464D01*
X009012Y001464D01*
X009137Y001339D02*
X008887Y001339D01*
X009137Y001339D02*
X009137Y001651D01*
X002512Y005464D02*
X002324Y005464D01*
X002324Y005714D01*
X002512Y005714D01*
X002512Y005589D01*
D31*
X003012Y005214D02*
X003512Y004714D01*
X003512Y004557D01*
X003512Y004089D01*
X004012Y003776D02*
X004012Y004589D01*
X003262Y005339D01*
X003262Y006964D01*
X003012Y007214D01*
X003012Y008464D01*
X004012Y008464D02*
X004012Y006839D01*
X003762Y006589D01*
X003762Y006589D01*
X004293Y006120D02*
X004293Y007245D01*
X004512Y007464D01*
X004824Y006589D02*
X005512Y007276D01*
X005512Y007464D01*
X004293Y006120D02*
X003762Y005589D01*
X003012Y005214D02*
X003012Y006776D01*
X002512Y007276D01*
X002512Y007464D01*
X005512Y004276D02*
X006137Y004901D01*
X007574Y004901D01*
X008074Y005401D01*
X009199Y005401D01*
X009512Y005714D01*
X009512Y006464D01*
X010012Y006964D01*
X010637Y006964D01*
X010887Y006964D01*
X012012Y006964D01*
X012762Y006964D01*
X013012Y007214D01*
X013012Y008464D01*
X014012Y008464D02*
X014012Y007151D01*
X014012Y007151D01*
X013324Y006464D01*
X011699Y006464D01*
X010262Y006464D01*
X010012Y006214D01*
X010012Y005464D01*
X009449Y004901D01*
X008324Y004901D01*
X007512Y004089D01*
X007512Y004089D01*
X007699Y004651D02*
X008199Y005151D01*
X009324Y005151D01*
X009762Y005589D01*
X009762Y006339D01*
X010137Y006714D01*
X012574Y006714D01*
X013137Y006714D01*
X013512Y007089D01*
X013512Y007464D01*
X014512Y007464D02*
X014512Y007151D01*
X013574Y006214D01*
X011949Y006214D01*
X010137Y004401D01*
X009824Y004401D01*
X009324Y003901D01*
X008637Y003901D01*
X008324Y003589D01*
X007012Y003589D01*
X006512Y004089D01*
X006012Y003776D02*
X006012Y004401D01*
X006262Y004651D01*
X007699Y004651D01*
X008981Y003401D02*
X009199Y003620D01*
X009418Y003620D01*
X009699Y003901D01*
X010112Y003901D01*
X010137Y003901D01*
X010137Y004026D01*
X012074Y005964D01*
X012512Y005964D01*
X012699Y005776D01*
X012637Y005714D01*
X012637Y005089D01*
X012512Y004964D01*
X012512Y004339D01*
X012512Y004401D01*
X012512Y004339D01*
X013074Y003776D01*
X013574Y003776D01*
X013887Y003464D01*
X014512Y003464D01*
X011637Y003526D02*
X011512Y003401D01*
X009637Y003401D01*
X009106Y002870D01*
X008481Y002870D01*
X007856Y002245D01*
X005418Y002245D01*
X005012Y001839D01*
X005012Y001464D01*
X005512Y003089D02*
X004012Y003089D01*
X002512Y003089D01*
X003512Y003089D01*
X002512Y003089D01*
X003043Y003589D02*
X002512Y004089D01*
X003043Y003589D02*
X003824Y003589D01*
X004012Y003776D01*
X004512Y004089D02*
X005012Y003589D01*
X005824Y003589D01*
X006012Y003776D01*
X005512Y004089D02*
X005512Y004276D01*
X006512Y003089D02*
X004012Y003089D01*
X004512Y003089D01*
X006512Y003089D02*
X007512Y003089D01*
X007762Y003339D01*
X008918Y003339D01*
X008981Y003401D01*
X011449Y004401D02*
X011449Y004964D01*
X011949Y005464D01*
X012199Y005464D01*
X011449Y004401D02*
X011637Y004214D01*
X011637Y003526D01*
M02*
