G75*
G70*
%OFA0B0*%
%FSLAX24Y24*%
%IPPOS*%
%LPD*%
%AMOC8*
5,1,8,0,0,1.08239X$1,22.5*
%
%ADD10C,0.0000*%
D10*
X001512Y001393D02*
X001512Y008448D01*
X001514Y008510D01*
X001519Y008571D01*
X001529Y008632D01*
X001542Y008693D01*
X001558Y008752D01*
X001578Y008811D01*
X001602Y008868D01*
X001629Y008923D01*
X001660Y008977D01*
X001693Y009029D01*
X001730Y009079D01*
X001769Y009126D01*
X001812Y009171D01*
X001857Y009214D01*
X001904Y009253D01*
X001954Y009290D01*
X002006Y009323D01*
X002060Y009354D01*
X002115Y009381D01*
X002172Y009405D01*
X002231Y009425D01*
X002290Y009441D01*
X002351Y009454D01*
X002412Y009464D01*
X002473Y009469D01*
X002535Y009471D01*
X002535Y009472D02*
X014551Y009472D01*
X014610Y009470D01*
X014670Y009465D01*
X014728Y009455D01*
X014786Y009442D01*
X014843Y009426D01*
X014899Y009406D01*
X014954Y009382D01*
X015007Y009355D01*
X015058Y009325D01*
X015107Y009291D01*
X015154Y009255D01*
X015199Y009216D01*
X015241Y009174D01*
X015280Y009129D01*
X015316Y009082D01*
X015350Y009033D01*
X015380Y008982D01*
X015407Y008929D01*
X015431Y008874D01*
X015451Y008818D01*
X015467Y008761D01*
X015480Y008703D01*
X015490Y008645D01*
X015495Y008585D01*
X015497Y008526D01*
X015497Y001295D01*
X015496Y001295D02*
X015494Y001238D01*
X015488Y001182D01*
X015479Y001126D01*
X015465Y001071D01*
X015448Y001017D01*
X015427Y000965D01*
X015403Y000914D01*
X015375Y000864D01*
X015344Y000817D01*
X015310Y000772D01*
X015273Y000729D01*
X015233Y000689D01*
X015190Y000652D01*
X015145Y000618D01*
X015098Y000587D01*
X015048Y000559D01*
X014997Y000535D01*
X014945Y000514D01*
X014891Y000497D01*
X014836Y000483D01*
X014780Y000474D01*
X014724Y000468D01*
X014667Y000466D01*
X002440Y000466D01*
X002440Y000465D02*
X002379Y000467D01*
X002319Y000473D01*
X002259Y000483D01*
X002200Y000497D01*
X002142Y000514D01*
X002085Y000536D01*
X002030Y000561D01*
X001976Y000589D01*
X001924Y000621D01*
X001875Y000657D01*
X001828Y000695D01*
X001784Y000737D01*
X001742Y000781D01*
X001704Y000828D01*
X001668Y000877D01*
X001636Y000929D01*
X001608Y000983D01*
X001583Y001038D01*
X001561Y001095D01*
X001544Y001153D01*
X001530Y001212D01*
X001520Y001272D01*
X001514Y001332D01*
X001512Y001393D01*
X001882Y001464D02*
X001885Y001521D01*
X001892Y001578D01*
X001905Y001634D01*
X001923Y001688D01*
X001946Y001741D01*
X001974Y001791D01*
X002006Y001839D01*
X002042Y001883D01*
X002082Y001924D01*
X002126Y001962D01*
X002172Y001995D01*
X002222Y002023D01*
X002274Y002047D01*
X002328Y002067D01*
X002384Y002081D01*
X002440Y002090D01*
X002498Y002094D01*
X002555Y002093D01*
X002612Y002086D01*
X002668Y002074D01*
X002723Y002058D01*
X002776Y002036D01*
X002827Y002010D01*
X002875Y001979D01*
X002921Y001944D01*
X002963Y001904D01*
X003001Y001862D01*
X003035Y001815D01*
X003065Y001766D01*
X003090Y001715D01*
X003110Y001661D01*
X003126Y001606D01*
X003136Y001550D01*
X003141Y001493D01*
X003141Y001435D01*
X003136Y001378D01*
X003126Y001322D01*
X003110Y001267D01*
X003090Y001213D01*
X003065Y001162D01*
X003035Y001113D01*
X003001Y001066D01*
X002963Y001024D01*
X002921Y000984D01*
X002875Y000949D01*
X002827Y000918D01*
X002776Y000892D01*
X002723Y000870D01*
X002668Y000854D01*
X002612Y000842D01*
X002555Y000835D01*
X002498Y000834D01*
X002440Y000838D01*
X002384Y000847D01*
X002328Y000861D01*
X002274Y000881D01*
X002222Y000905D01*
X002172Y000933D01*
X002126Y000966D01*
X002082Y001004D01*
X002042Y001045D01*
X002006Y001089D01*
X001974Y001137D01*
X001946Y001187D01*
X001923Y001240D01*
X001905Y001294D01*
X001892Y001350D01*
X001885Y001407D01*
X001882Y001464D01*
X013882Y001464D02*
X013885Y001521D01*
X013892Y001578D01*
X013905Y001634D01*
X013923Y001688D01*
X013946Y001741D01*
X013974Y001791D01*
X014006Y001839D01*
X014042Y001883D01*
X014082Y001924D01*
X014126Y001962D01*
X014172Y001995D01*
X014222Y002023D01*
X014274Y002047D01*
X014328Y002067D01*
X014384Y002081D01*
X014440Y002090D01*
X014498Y002094D01*
X014555Y002093D01*
X014612Y002086D01*
X014668Y002074D01*
X014723Y002058D01*
X014776Y002036D01*
X014827Y002010D01*
X014875Y001979D01*
X014921Y001944D01*
X014963Y001904D01*
X015001Y001862D01*
X015035Y001815D01*
X015065Y001766D01*
X015090Y001715D01*
X015110Y001661D01*
X015126Y001606D01*
X015136Y001550D01*
X015141Y001493D01*
X015141Y001435D01*
X015136Y001378D01*
X015126Y001322D01*
X015110Y001267D01*
X015090Y001213D01*
X015065Y001162D01*
X015035Y001113D01*
X015001Y001066D01*
X014963Y001024D01*
X014921Y000984D01*
X014875Y000949D01*
X014827Y000918D01*
X014776Y000892D01*
X014723Y000870D01*
X014668Y000854D01*
X014612Y000842D01*
X014555Y000835D01*
X014498Y000834D01*
X014440Y000838D01*
X014384Y000847D01*
X014328Y000861D01*
X014274Y000881D01*
X014222Y000905D01*
X014172Y000933D01*
X014126Y000966D01*
X014082Y001004D01*
X014042Y001045D01*
X014006Y001089D01*
X013974Y001137D01*
X013946Y001187D01*
X013923Y001240D01*
X013905Y001294D01*
X013892Y001350D01*
X013885Y001407D01*
X013882Y001464D01*
M02*
