G75*
G70*
%OFA0B0*%
%FSLAX24Y24*%
%IPPOS*%
%LPD*%
%AMOC8*
5,1,8,0,0,1.08239X$1,22.5*
%
%ADD10C,0.0000*%
%ADD11C,0.0120*%
%ADD12C,0.0050*%
%ADD13C,0.0080*%
%ADD14C,0.0040*%
%ADD15C,0.0060*%
%ADD16C,0.0100*%
%ADD17R,0.0660X0.0300*%
%ADD18R,0.0500X0.0750*%
%ADD19R,0.0300X0.0700*%
%ADD20R,0.0500X0.0300*%
%ADD21C,0.0200*%
%ADD22C,0.0200*%
D10*
X001512Y001393D02*
X001512Y008448D01*
X001514Y008510D01*
X001519Y008571D01*
X001529Y008632D01*
X001542Y008693D01*
X001558Y008752D01*
X001578Y008811D01*
X001602Y008868D01*
X001629Y008923D01*
X001660Y008977D01*
X001693Y009029D01*
X001730Y009079D01*
X001769Y009126D01*
X001812Y009171D01*
X001857Y009214D01*
X001904Y009253D01*
X001954Y009290D01*
X002006Y009323D01*
X002060Y009354D01*
X002115Y009381D01*
X002172Y009405D01*
X002231Y009425D01*
X002290Y009441D01*
X002351Y009454D01*
X002412Y009464D01*
X002473Y009469D01*
X002535Y009471D01*
X002535Y009472D02*
X014551Y009472D01*
X014610Y009470D01*
X014670Y009465D01*
X014728Y009455D01*
X014786Y009442D01*
X014843Y009426D01*
X014899Y009406D01*
X014954Y009382D01*
X015007Y009355D01*
X015058Y009325D01*
X015107Y009291D01*
X015154Y009255D01*
X015199Y009216D01*
X015241Y009174D01*
X015280Y009129D01*
X015316Y009082D01*
X015350Y009033D01*
X015380Y008982D01*
X015407Y008929D01*
X015431Y008874D01*
X015451Y008818D01*
X015467Y008761D01*
X015480Y008703D01*
X015490Y008645D01*
X015495Y008585D01*
X015497Y008526D01*
X015497Y001295D01*
X015496Y001295D02*
X015494Y001238D01*
X015488Y001182D01*
X015479Y001126D01*
X015465Y001071D01*
X015448Y001017D01*
X015427Y000965D01*
X015403Y000914D01*
X015375Y000864D01*
X015344Y000817D01*
X015310Y000772D01*
X015273Y000729D01*
X015233Y000689D01*
X015190Y000652D01*
X015145Y000618D01*
X015098Y000587D01*
X015048Y000559D01*
X014997Y000535D01*
X014945Y000514D01*
X014891Y000497D01*
X014836Y000483D01*
X014780Y000474D01*
X014724Y000468D01*
X014667Y000466D01*
X002440Y000466D01*
X002440Y000465D02*
X002379Y000467D01*
X002319Y000473D01*
X002259Y000483D01*
X002200Y000497D01*
X002142Y000514D01*
X002085Y000536D01*
X002030Y000561D01*
X001976Y000589D01*
X001924Y000621D01*
X001875Y000657D01*
X001828Y000695D01*
X001784Y000737D01*
X001742Y000781D01*
X001704Y000828D01*
X001668Y000877D01*
X001636Y000929D01*
X001608Y000983D01*
X001583Y001038D01*
X001561Y001095D01*
X001544Y001153D01*
X001530Y001212D01*
X001520Y001272D01*
X001514Y001332D01*
X001512Y001393D01*
X001882Y001464D02*
X001885Y001521D01*
X001892Y001578D01*
X001905Y001634D01*
X001923Y001688D01*
X001946Y001741D01*
X001974Y001791D01*
X002006Y001839D01*
X002042Y001883D01*
X002082Y001924D01*
X002126Y001962D01*
X002172Y001995D01*
X002222Y002023D01*
X002274Y002047D01*
X002328Y002067D01*
X002384Y002081D01*
X002440Y002090D01*
X002498Y002094D01*
X002555Y002093D01*
X002612Y002086D01*
X002668Y002074D01*
X002723Y002058D01*
X002776Y002036D01*
X002827Y002010D01*
X002875Y001979D01*
X002921Y001944D01*
X002963Y001904D01*
X003001Y001862D01*
X003035Y001815D01*
X003065Y001766D01*
X003090Y001715D01*
X003110Y001661D01*
X003126Y001606D01*
X003136Y001550D01*
X003141Y001493D01*
X003141Y001435D01*
X003136Y001378D01*
X003126Y001322D01*
X003110Y001267D01*
X003090Y001213D01*
X003065Y001162D01*
X003035Y001113D01*
X003001Y001066D01*
X002963Y001024D01*
X002921Y000984D01*
X002875Y000949D01*
X002827Y000918D01*
X002776Y000892D01*
X002723Y000870D01*
X002668Y000854D01*
X002612Y000842D01*
X002555Y000835D01*
X002498Y000834D01*
X002440Y000838D01*
X002384Y000847D01*
X002328Y000861D01*
X002274Y000881D01*
X002222Y000905D01*
X002172Y000933D01*
X002126Y000966D01*
X002082Y001004D01*
X002042Y001045D01*
X002006Y001089D01*
X001974Y001137D01*
X001946Y001187D01*
X001923Y001240D01*
X001905Y001294D01*
X001892Y001350D01*
X001885Y001407D01*
X001882Y001464D01*
X013882Y001464D02*
X013885Y001521D01*
X013892Y001578D01*
X013905Y001634D01*
X013923Y001688D01*
X013946Y001741D01*
X013974Y001791D01*
X014006Y001839D01*
X014042Y001883D01*
X014082Y001924D01*
X014126Y001962D01*
X014172Y001995D01*
X014222Y002023D01*
X014274Y002047D01*
X014328Y002067D01*
X014384Y002081D01*
X014440Y002090D01*
X014498Y002094D01*
X014555Y002093D01*
X014612Y002086D01*
X014668Y002074D01*
X014723Y002058D01*
X014776Y002036D01*
X014827Y002010D01*
X014875Y001979D01*
X014921Y001944D01*
X014963Y001904D01*
X015001Y001862D01*
X015035Y001815D01*
X015065Y001766D01*
X015090Y001715D01*
X015110Y001661D01*
X015126Y001606D01*
X015136Y001550D01*
X015141Y001493D01*
X015141Y001435D01*
X015136Y001378D01*
X015126Y001322D01*
X015110Y001267D01*
X015090Y001213D01*
X015065Y001162D01*
X015035Y001113D01*
X015001Y001066D01*
X014963Y001024D01*
X014921Y000984D01*
X014875Y000949D01*
X014827Y000918D01*
X014776Y000892D01*
X014723Y000870D01*
X014668Y000854D01*
X014612Y000842D01*
X014555Y000835D01*
X014498Y000834D01*
X014440Y000838D01*
X014384Y000847D01*
X014328Y000861D01*
X014274Y000881D01*
X014222Y000905D01*
X014172Y000933D01*
X014126Y000966D01*
X014082Y001004D01*
X014042Y001045D01*
X014006Y001089D01*
X013974Y001137D01*
X013946Y001187D01*
X013923Y001240D01*
X013905Y001294D01*
X013892Y001350D01*
X013885Y001407D01*
X013882Y001464D01*
D11*
X013512Y001300D02*
X013512Y001714D01*
X013512Y001300D02*
X013510Y001265D01*
X013505Y001230D01*
X013496Y001196D01*
X013483Y001163D01*
X013467Y001131D01*
X013448Y001102D01*
X013425Y001075D01*
X013400Y001050D01*
X013373Y001027D01*
X013343Y001008D01*
X013312Y000992D01*
X013279Y000979D01*
X013245Y000970D01*
X013210Y000965D01*
X013175Y000963D01*
X013175Y000964D02*
X009887Y000964D01*
X009850Y000966D01*
X009814Y000971D01*
X009778Y000980D01*
X009743Y000993D01*
X009710Y001008D01*
X009679Y001027D01*
X009649Y001049D01*
X009622Y001074D01*
X009597Y001101D01*
X009575Y001131D01*
X009556Y001162D01*
X009541Y001196D01*
X009528Y001230D01*
X009519Y001266D01*
X009514Y001302D01*
X009512Y001339D01*
X009512Y001328D02*
X009512Y001714D01*
X009511Y001328D02*
X009509Y001290D01*
X009503Y001252D01*
X009493Y001216D01*
X009480Y001180D01*
X009462Y001146D01*
X009441Y001114D01*
X009418Y001084D01*
X009391Y001057D01*
X009361Y001034D01*
X009329Y001013D01*
X009295Y000995D01*
X009259Y000982D01*
X009223Y000972D01*
X009185Y000966D01*
X009147Y000964D01*
X003892Y000964D01*
X003855Y000966D01*
X003818Y000971D01*
X003782Y000980D01*
X003747Y000993D01*
X003713Y001009D01*
X003681Y001028D01*
X003651Y001050D01*
X003623Y001075D01*
X003598Y001103D01*
X003576Y001133D01*
X003557Y001165D01*
X003541Y001199D01*
X003528Y001234D01*
X003519Y001270D01*
X003514Y001307D01*
X003512Y001344D01*
X003512Y001464D01*
X003512Y001714D01*
X002469Y000526D02*
X002410Y000528D01*
X002352Y000534D01*
X002294Y000543D01*
X002237Y000556D01*
X002181Y000573D01*
X002126Y000594D01*
X002073Y000618D01*
X002021Y000646D01*
X001972Y000677D01*
X001924Y000711D01*
X001879Y000748D01*
X001836Y000788D01*
X001796Y000831D01*
X001759Y000876D01*
X001725Y000924D01*
X001694Y000974D01*
X001666Y001025D01*
X001642Y001078D01*
X001621Y001133D01*
X001604Y001189D01*
X001591Y001246D01*
X001582Y001304D01*
X001576Y001362D01*
X001574Y001421D01*
X001574Y008429D01*
X001575Y008429D02*
X001577Y008490D01*
X001583Y008551D01*
X001592Y008611D01*
X001606Y008671D01*
X001623Y008729D01*
X001643Y008787D01*
X001668Y008843D01*
X001695Y008897D01*
X001726Y008950D01*
X001761Y009000D01*
X001798Y009049D01*
X001838Y009094D01*
X001882Y009138D01*
X001927Y009178D01*
X001976Y009215D01*
X002026Y009250D01*
X002079Y009281D01*
X002133Y009308D01*
X002189Y009333D01*
X002247Y009353D01*
X002305Y009370D01*
X002365Y009384D01*
X002425Y009393D01*
X002486Y009399D01*
X002547Y009401D01*
X014520Y009401D01*
X014581Y009399D01*
X014641Y009393D01*
X014701Y009383D01*
X014760Y009369D01*
X014819Y009352D01*
X014876Y009330D01*
X014931Y009305D01*
X014984Y009277D01*
X015036Y009244D01*
X015086Y009209D01*
X015133Y009170D01*
X015177Y009129D01*
X015218Y009085D01*
X015257Y009038D01*
X015292Y008988D01*
X015325Y008936D01*
X015353Y008883D01*
X015378Y008828D01*
X015400Y008771D01*
X015417Y008712D01*
X015431Y008653D01*
X015441Y008593D01*
X015447Y008533D01*
X015449Y008472D01*
X015449Y001367D01*
X015450Y001367D02*
X015448Y001310D01*
X015442Y001252D01*
X015432Y001196D01*
X015419Y001140D01*
X015401Y001085D01*
X015380Y001032D01*
X015356Y000980D01*
X015328Y000930D01*
X015296Y000882D01*
X015261Y000836D01*
X015224Y000793D01*
X015183Y000752D01*
X015140Y000715D01*
X015094Y000680D01*
X015046Y000648D01*
X014996Y000620D01*
X014944Y000596D01*
X014891Y000575D01*
X014836Y000557D01*
X014780Y000544D01*
X014724Y000534D01*
X014666Y000528D01*
X014609Y000526D01*
X002469Y000526D01*
X008681Y003781D02*
X009281Y003781D01*
X009281Y004031D02*
X008681Y004031D01*
X005124Y005969D02*
X004524Y005969D01*
X004524Y006219D02*
X005124Y006219D01*
X012392Y003326D02*
X012392Y002726D01*
X012642Y002726D02*
X012642Y003326D01*
D12*
X012455Y003876D02*
X012455Y003934D01*
X012689Y004168D01*
X012689Y004226D01*
X012455Y004226D01*
X012262Y004226D02*
X012087Y004051D01*
X012320Y004051D01*
X012262Y003876D02*
X012262Y004226D01*
X012823Y004110D02*
X012823Y003934D01*
X012882Y003876D01*
X013057Y003876D01*
X013057Y004110D01*
X013887Y004035D02*
X013887Y003801D01*
X013945Y004035D02*
X014178Y003801D01*
X014237Y003801D01*
X013945Y004035D02*
X013887Y004035D01*
X013945Y004169D02*
X014003Y004169D01*
X014062Y004228D01*
X014062Y004345D01*
X014120Y004403D01*
X014178Y004403D01*
X014237Y004345D01*
X014237Y004228D01*
X014178Y004169D01*
X014120Y004169D01*
X014062Y004228D01*
X014062Y004345D02*
X014003Y004403D01*
X013945Y004403D01*
X013887Y004345D01*
X013887Y004228D01*
X013945Y004169D01*
X013945Y004538D02*
X013887Y004596D01*
X013887Y004713D01*
X013945Y004771D01*
X014178Y004538D01*
X014237Y004596D01*
X014237Y004713D01*
X014178Y004771D01*
X013945Y004771D01*
X013887Y004906D02*
X014062Y004906D01*
X014003Y005023D01*
X014003Y005081D01*
X014062Y005140D01*
X014178Y005140D01*
X014237Y005081D01*
X014237Y004964D01*
X014178Y004906D01*
X013887Y004906D02*
X013887Y005140D01*
X013945Y004538D02*
X014178Y004538D01*
X012814Y004901D02*
X012580Y004901D01*
X012697Y004901D02*
X012697Y005251D01*
X012580Y005135D01*
X012445Y005193D02*
X012387Y005251D01*
X012270Y005251D01*
X012212Y005193D01*
X012212Y004959D01*
X012270Y004901D01*
X012387Y004901D01*
X012445Y004959D01*
X010826Y004493D02*
X010826Y004435D01*
X010768Y004376D01*
X010826Y004318D01*
X010826Y004259D01*
X010768Y004201D01*
X010651Y004201D01*
X010593Y004259D01*
X010458Y004259D02*
X010399Y004201D01*
X010283Y004201D01*
X010224Y004259D01*
X010224Y004493D01*
X010283Y004551D01*
X010399Y004551D01*
X010458Y004493D01*
X010593Y004493D02*
X010651Y004551D01*
X010768Y004551D01*
X010826Y004493D01*
X010768Y004376D02*
X010709Y004376D01*
X010580Y003551D02*
X010463Y003551D01*
X010405Y003493D01*
X010405Y003259D01*
X010639Y003493D01*
X010639Y003259D01*
X010580Y003201D01*
X010463Y003201D01*
X010405Y003259D01*
X010270Y003201D02*
X010037Y003201D01*
X010154Y003201D02*
X010154Y003551D01*
X010037Y003435D01*
X010580Y003551D02*
X010639Y003493D01*
X010773Y003435D02*
X010773Y003259D01*
X010832Y003201D01*
X011007Y003201D01*
X011007Y003435D01*
X013969Y002964D02*
X013969Y002730D01*
X014086Y002614D01*
X014203Y002730D01*
X014203Y002964D01*
X014338Y002964D02*
X014513Y002964D01*
X014571Y002906D01*
X014571Y002789D01*
X014513Y002730D01*
X014338Y002730D01*
X014454Y002730D02*
X014571Y002614D01*
X014706Y002614D02*
X014939Y002614D01*
X014823Y002614D02*
X014823Y002964D01*
X014706Y002847D01*
X014338Y002964D02*
X014338Y002614D01*
X009327Y006314D02*
X009094Y006314D01*
X009210Y006314D02*
X009210Y006664D01*
X009094Y006547D01*
X008959Y006489D02*
X008900Y006430D01*
X008725Y006430D01*
X008842Y006430D02*
X008959Y006314D01*
X008725Y006314D02*
X008725Y006664D01*
X008900Y006664D01*
X008959Y006606D01*
X008959Y006489D01*
X007539Y006535D02*
X007539Y006593D01*
X007481Y006651D01*
X007364Y006651D01*
X007306Y006593D01*
X007171Y006593D02*
X007171Y006476D01*
X007113Y006418D01*
X006938Y006418D01*
X007054Y006418D02*
X007171Y006301D01*
X007306Y006301D02*
X007539Y006535D01*
X007539Y006301D02*
X007306Y006301D01*
X006938Y006301D02*
X006938Y006651D01*
X007113Y006651D01*
X007171Y006593D01*
X007137Y007464D02*
X006887Y007464D01*
X006137Y007464D02*
X005887Y007464D01*
X005137Y007464D02*
X004887Y007464D01*
X004137Y007464D02*
X003887Y007464D01*
X003326Y007801D02*
X003093Y007801D01*
X003209Y007801D02*
X003209Y008151D01*
X003093Y008035D01*
X002958Y008151D02*
X002958Y007859D01*
X002899Y007801D01*
X002783Y007801D01*
X002724Y007859D01*
X002724Y008151D01*
X002637Y008464D02*
X001637Y008464D01*
X001762Y007464D01*
X002137Y007464D01*
X002887Y007464D02*
X003137Y007464D01*
X003387Y008464D02*
X003637Y008464D01*
X004387Y008464D02*
X004637Y008464D01*
X005387Y008464D02*
X005637Y008464D01*
X006387Y008464D02*
X006637Y008464D01*
X007387Y008464D02*
X007637Y008464D01*
X008387Y008464D02*
X008637Y008464D01*
X009387Y008464D02*
X009637Y008464D01*
X010387Y008464D02*
X010637Y008464D01*
X011387Y008464D02*
X011637Y008464D01*
X011599Y008151D02*
X011833Y008151D01*
X011716Y008151D02*
X011716Y007801D01*
X011968Y007801D02*
X012143Y007801D01*
X012201Y007859D01*
X012201Y007918D01*
X012143Y007976D01*
X011968Y007976D01*
X012143Y007976D02*
X012201Y008035D01*
X012201Y008093D01*
X012143Y008151D01*
X011968Y008151D01*
X011968Y007801D01*
X012336Y007859D02*
X012336Y007976D01*
X012511Y007976D01*
X012569Y007918D01*
X012569Y007859D01*
X012511Y007801D01*
X012394Y007801D01*
X012336Y007859D01*
X012336Y007976D02*
X012453Y008093D01*
X012569Y008151D01*
X012704Y008151D02*
X012704Y007976D01*
X012821Y008035D01*
X012879Y008035D01*
X012938Y007976D01*
X012938Y007859D01*
X012879Y007801D01*
X012763Y007801D01*
X012704Y007859D01*
X012704Y008151D02*
X012938Y008151D01*
X013073Y007976D02*
X013248Y007976D01*
X013306Y007918D01*
X013306Y007859D01*
X013248Y007801D01*
X013131Y007801D01*
X013073Y007859D01*
X013073Y007976D01*
X013189Y008093D01*
X013306Y008151D01*
X013441Y008093D02*
X013499Y008151D01*
X013616Y008151D01*
X013674Y008093D01*
X013441Y007859D01*
X013499Y007801D01*
X013616Y007801D01*
X013674Y007859D01*
X013674Y008093D01*
X013809Y008151D02*
X013809Y007801D01*
X013809Y007976D02*
X014043Y007976D01*
X014043Y008151D02*
X014043Y007801D01*
X014177Y007859D02*
X014236Y007801D01*
X014353Y007801D01*
X014411Y007859D01*
X014411Y008093D01*
X014353Y008151D01*
X014236Y008151D01*
X014177Y008093D01*
X014177Y007859D01*
X014294Y007918D02*
X014411Y007801D01*
X014137Y007464D02*
X013887Y007464D01*
X013441Y007859D02*
X013441Y008093D01*
X013387Y008464D02*
X013637Y008464D01*
X014387Y008464D02*
X015387Y008464D01*
X015262Y007464D01*
X014887Y007464D01*
X015387Y008464D02*
X015262Y009464D01*
X001762Y009464D01*
X001637Y008464D01*
X003413Y005589D02*
X003415Y005627D01*
X003421Y005664D01*
X003431Y005700D01*
X003445Y005736D01*
X003463Y005769D01*
X003484Y005800D01*
X003509Y005829D01*
X003536Y005855D01*
X003566Y005878D01*
X003599Y005897D01*
X003633Y005913D01*
X003669Y005925D01*
X003706Y005933D01*
X003743Y005937D01*
X003781Y005937D01*
X003818Y005933D01*
X003855Y005925D01*
X003891Y005913D01*
X003925Y005897D01*
X003958Y005878D01*
X003988Y005855D01*
X004015Y005829D01*
X004040Y005800D01*
X004061Y005769D01*
X004079Y005736D01*
X004093Y005700D01*
X004103Y005664D01*
X004109Y005627D01*
X004111Y005589D01*
X004109Y005551D01*
X004103Y005514D01*
X004093Y005478D01*
X004079Y005442D01*
X004061Y005409D01*
X004040Y005378D01*
X004015Y005349D01*
X003988Y005323D01*
X003958Y005300D01*
X003925Y005281D01*
X003891Y005265D01*
X003855Y005253D01*
X003818Y005245D01*
X003781Y005241D01*
X003743Y005241D01*
X003706Y005245D01*
X003669Y005253D01*
X003633Y005265D01*
X003599Y005281D01*
X003566Y005300D01*
X003536Y005323D01*
X003509Y005349D01*
X003484Y005378D01*
X003463Y005409D01*
X003445Y005442D01*
X003431Y005478D01*
X003421Y005514D01*
X003415Y005551D01*
X003413Y005589D01*
X003427Y005089D02*
X003193Y005089D01*
X003310Y005089D02*
X003310Y004739D01*
X003561Y004739D02*
X003795Y004972D01*
X003795Y005031D01*
X003736Y005089D01*
X003620Y005089D01*
X003561Y005031D01*
X003561Y004739D02*
X003795Y004739D01*
X004193Y004739D02*
X004193Y005089D01*
X004310Y004972D01*
X004427Y005089D01*
X004427Y004739D01*
X004561Y004739D02*
X004795Y004739D01*
X004678Y004739D02*
X004678Y005089D01*
X004561Y004972D01*
X005193Y005089D02*
X005193Y004739D01*
X005427Y004739D02*
X005427Y005089D01*
X005310Y004972D01*
X005193Y005089D01*
X005561Y005031D02*
X005620Y005089D01*
X005736Y005089D01*
X005795Y005031D01*
X005795Y004972D01*
X005561Y004739D01*
X005795Y004739D01*
X006193Y004739D02*
X006193Y005089D01*
X006368Y005089D01*
X006427Y005031D01*
X006427Y004797D01*
X006368Y004739D01*
X006193Y004739D01*
X006561Y004739D02*
X006795Y004739D01*
X006678Y004739D02*
X006678Y005089D01*
X006561Y004972D01*
X007193Y005089D02*
X007193Y004739D01*
X007368Y004739D01*
X007427Y004797D01*
X007427Y005031D01*
X007368Y005089D01*
X007193Y005089D01*
X007561Y005031D02*
X007620Y005089D01*
X007736Y005089D01*
X007795Y005031D01*
X007795Y004972D01*
X007561Y004739D01*
X007795Y004739D01*
X007887Y007464D02*
X008137Y007464D01*
X008887Y007464D02*
X009137Y007464D01*
X009887Y007464D02*
X010137Y007464D01*
X010887Y007464D02*
X011137Y007464D01*
X011887Y007464D02*
X012137Y007464D01*
X012887Y007464D02*
X013137Y007464D01*
X012637Y008464D02*
X012387Y008464D01*
X002795Y004739D02*
X002561Y004739D01*
X002678Y004739D02*
X002678Y005089D01*
X002561Y004972D01*
X002427Y005089D02*
X002193Y005089D01*
X002310Y005089D02*
X002310Y004739D01*
D13*
X009864Y006691D02*
X009864Y007011D01*
X009864Y006851D02*
X010078Y006851D01*
X010078Y007011D02*
X010078Y006691D01*
X010233Y006691D02*
X010339Y006798D01*
X010446Y006691D01*
X010446Y007011D01*
X010601Y007011D02*
X010708Y006905D01*
X010814Y007011D01*
X010814Y006691D01*
X010969Y006691D02*
X011183Y006691D01*
X010969Y006691D02*
X010969Y007011D01*
X010601Y007011D02*
X010601Y006691D01*
X010896Y006449D02*
X010896Y006182D01*
X010949Y006129D01*
X011056Y006129D01*
X011109Y006182D01*
X011109Y006449D01*
X011264Y006449D02*
X011477Y006449D01*
X011371Y006449D02*
X011371Y006129D01*
X011632Y006129D02*
X011792Y006129D01*
X011846Y006182D01*
X011846Y006235D01*
X011792Y006289D01*
X011632Y006289D01*
X011632Y006129D02*
X011632Y006449D01*
X011792Y006449D01*
X011846Y006396D01*
X011846Y006342D01*
X011792Y006289D01*
X012000Y006289D02*
X012000Y006182D01*
X012054Y006129D01*
X012161Y006129D01*
X012214Y006182D01*
X012214Y006235D01*
X012161Y006289D01*
X012000Y006289D01*
X012107Y006396D01*
X012214Y006449D01*
X012369Y006449D02*
X012369Y006289D01*
X012475Y006342D01*
X012529Y006342D01*
X012582Y006289D01*
X012582Y006182D01*
X012529Y006129D01*
X012422Y006129D01*
X012369Y006182D01*
X012737Y006182D02*
X012790Y006129D01*
X012897Y006129D01*
X012951Y006182D01*
X012951Y006235D01*
X012897Y006289D01*
X012737Y006289D01*
X012737Y006182D01*
X012737Y006289D02*
X012844Y006396D01*
X012951Y006449D01*
X013105Y006396D02*
X013159Y006449D01*
X013265Y006449D01*
X013319Y006396D01*
X013105Y006182D01*
X013159Y006129D01*
X013265Y006129D01*
X013319Y006182D01*
X013319Y006396D01*
X013105Y006396D02*
X013105Y006182D01*
X012582Y006449D02*
X012369Y006449D01*
X012442Y006691D02*
X012442Y007011D01*
X012603Y007011D01*
X012656Y006958D01*
X012656Y006851D01*
X012603Y006798D01*
X012442Y006798D01*
X012811Y006691D02*
X012811Y007011D01*
X012918Y006905D01*
X013024Y007011D01*
X013024Y006691D01*
X013179Y006691D02*
X013286Y006691D01*
X013232Y006691D02*
X013232Y006905D01*
X013179Y006905D01*
X013232Y007011D02*
X013232Y007065D01*
X013425Y006905D02*
X013585Y006905D01*
X013638Y006851D01*
X013638Y006691D01*
X013793Y006691D02*
X013793Y007011D01*
X013900Y006905D01*
X014006Y007011D01*
X014006Y006691D01*
X014161Y006745D02*
X014215Y006691D01*
X014321Y006691D01*
X014375Y006745D01*
X014375Y006958D01*
X014321Y007011D01*
X014215Y007011D01*
X014161Y006958D01*
X014161Y006745D01*
X013425Y006691D02*
X013425Y006905D01*
X011919Y006798D02*
X011813Y006691D01*
X011759Y006691D01*
X011706Y006745D01*
X011706Y006798D01*
X011813Y006905D01*
X011813Y006958D01*
X011759Y007011D01*
X011706Y006958D01*
X011706Y006905D01*
X011919Y006691D01*
X010233Y006691D02*
X010233Y007011D01*
D14*
X010137Y007464D02*
X009887Y007464D01*
X009137Y007464D02*
X008887Y007464D01*
X008137Y007464D02*
X007887Y007464D01*
X007137Y007464D02*
X006887Y007464D01*
X006137Y007464D02*
X005887Y007464D01*
X005137Y007464D02*
X004887Y007464D01*
X004137Y007464D02*
X003887Y007464D01*
X003137Y007464D02*
X002887Y007464D01*
X002137Y007464D02*
X001762Y007464D01*
X001637Y008464D01*
X002637Y008464D01*
X003387Y008464D02*
X003637Y008464D01*
X004387Y008464D02*
X004637Y008464D01*
X005387Y008464D02*
X005637Y008464D01*
X006387Y008464D02*
X006637Y008464D01*
X007387Y008464D02*
X007637Y008464D01*
X008387Y008464D02*
X008637Y008464D01*
X009387Y008464D02*
X009637Y008464D01*
X010387Y008464D02*
X010637Y008464D01*
X011387Y008464D02*
X011637Y008464D01*
X012387Y008464D02*
X012637Y008464D01*
X013387Y008464D02*
X013637Y008464D01*
X014387Y008464D02*
X015387Y008464D01*
X015262Y007464D01*
X014887Y007464D01*
X014137Y007464D02*
X013887Y007464D01*
X013137Y007464D02*
X012887Y007464D01*
X012137Y007464D02*
X011887Y007464D01*
X011137Y007464D02*
X010887Y007464D01*
X009416Y005625D02*
X009323Y005625D01*
X009370Y005625D02*
X009370Y005345D01*
X009416Y005345D02*
X009323Y005345D01*
X009028Y005345D02*
X009215Y005625D01*
X008920Y005625D02*
X008734Y005625D01*
X008734Y005485D01*
X008827Y005532D01*
X008874Y005532D01*
X008920Y005485D01*
X008920Y005392D01*
X008874Y005345D01*
X008780Y005345D01*
X008734Y005392D01*
X008633Y005392D02*
X008633Y005345D01*
X008586Y005345D01*
X008586Y005392D01*
X008633Y005392D01*
X008783Y005094D02*
X008736Y005047D01*
X008736Y004860D01*
X008783Y004814D01*
X008876Y004814D01*
X008923Y004860D01*
X009031Y004954D02*
X009218Y004954D01*
X009171Y004814D02*
X009171Y005094D01*
X009031Y004954D01*
X008923Y005047D02*
X008876Y005094D01*
X008783Y005094D01*
X008731Y004751D02*
X009231Y004751D01*
X009431Y004551D02*
X009431Y003251D01*
X009231Y003051D02*
X008731Y003051D01*
X008805Y002907D02*
X008898Y003000D01*
X008898Y002720D01*
X008805Y002720D02*
X008992Y002720D01*
X009100Y002767D02*
X009146Y002720D01*
X009286Y002720D01*
X009286Y002907D01*
X009100Y002907D02*
X009100Y002767D01*
X008704Y002767D02*
X008704Y002720D01*
X008658Y002720D01*
X008658Y002767D01*
X008704Y002767D01*
X008531Y003251D02*
X008531Y004551D01*
X008012Y004589D02*
X008012Y002589D01*
X002012Y002589D01*
X002012Y004589D01*
X008012Y004589D01*
X008681Y004031D02*
X009281Y004031D01*
X009281Y003781D02*
X008681Y003781D01*
X010012Y004601D02*
X010212Y004601D01*
X010112Y004501D02*
X010112Y004701D01*
X010128Y005109D02*
X010261Y005109D01*
X010349Y005175D02*
X010416Y005109D01*
X010482Y005175D01*
X010482Y005309D01*
X010349Y005309D02*
X010349Y005175D01*
X010195Y005209D02*
X010128Y005209D01*
X010040Y005209D02*
X010040Y005275D01*
X010007Y005309D01*
X009907Y005309D01*
X009907Y005109D01*
X009907Y005175D02*
X010007Y005175D01*
X010040Y005209D01*
X009974Y005175D02*
X010040Y005109D01*
X010128Y005109D02*
X010128Y005309D01*
X010261Y005309D01*
X010570Y005142D02*
X010603Y005142D01*
X010603Y005109D01*
X010570Y005109D01*
X010570Y005142D01*
X010680Y005109D02*
X010814Y005242D01*
X010814Y005275D01*
X010780Y005309D01*
X010714Y005309D01*
X010680Y005275D01*
X010901Y005275D02*
X010901Y005142D01*
X011035Y005275D01*
X011035Y005142D01*
X011001Y005109D01*
X010935Y005109D01*
X010901Y005142D01*
X010814Y005109D02*
X010680Y005109D01*
X010901Y005275D02*
X010935Y005309D01*
X011001Y005309D01*
X011035Y005275D01*
X011712Y005151D02*
X011862Y005151D01*
X011862Y005301D01*
X011862Y005151D02*
X012012Y005151D01*
X011862Y005151D02*
X011862Y005001D01*
X013518Y003513D02*
X013704Y003513D01*
X013704Y003373D01*
X013658Y003327D01*
X013518Y003327D01*
X013518Y003219D02*
X013471Y003219D01*
X013424Y003172D01*
X013424Y003079D01*
X013471Y003032D01*
X013471Y002924D02*
X013518Y002924D01*
X013564Y002877D01*
X013611Y002924D01*
X013658Y002924D01*
X013704Y002877D01*
X013704Y002784D01*
X013658Y002737D01*
X013658Y002637D02*
X013704Y002637D01*
X013704Y002590D01*
X013658Y002590D01*
X013658Y002637D01*
X013812Y002564D02*
X013812Y006364D01*
X013912Y006464D01*
X015062Y006464D01*
X013952Y006284D02*
X013954Y006304D01*
X013960Y006323D01*
X013970Y006341D01*
X013983Y006356D01*
X013999Y006369D01*
X014017Y006378D01*
X014037Y006383D01*
X014057Y006384D01*
X014077Y006381D01*
X014096Y006374D01*
X014113Y006363D01*
X014128Y006349D01*
X014139Y006333D01*
X014147Y006314D01*
X014151Y006294D01*
X014151Y006274D01*
X014147Y006254D01*
X014139Y006235D01*
X014128Y006219D01*
X014113Y006205D01*
X014096Y006194D01*
X014077Y006187D01*
X014057Y006184D01*
X014037Y006185D01*
X014017Y006190D01*
X013999Y006199D01*
X013983Y006212D01*
X013970Y006227D01*
X013960Y006245D01*
X013954Y006264D01*
X013952Y006284D01*
X015387Y008464D02*
X015262Y009464D01*
X001762Y009464D01*
X001637Y008464D01*
X002212Y006889D02*
X002212Y006789D01*
X002212Y006889D02*
X002312Y006889D01*
X002712Y006889D02*
X002812Y006889D01*
X002812Y006789D01*
X002812Y006389D02*
X002812Y006289D01*
X002712Y006289D01*
X002312Y006289D02*
X002212Y006289D01*
X002212Y006389D01*
X002212Y005889D02*
X002212Y005789D01*
X002212Y005889D02*
X002312Y005889D01*
X002712Y005889D02*
X002812Y005889D01*
X002812Y005789D01*
X003252Y005925D02*
X003252Y006065D01*
X003299Y006112D01*
X003392Y006112D01*
X003439Y006065D01*
X003439Y005925D01*
X003532Y005925D02*
X003252Y005925D01*
X003439Y006018D02*
X003532Y006112D01*
X003485Y006219D02*
X003532Y006266D01*
X003532Y006360D01*
X003485Y006406D01*
X003439Y006406D01*
X003392Y006360D01*
X003392Y006313D01*
X003392Y006360D02*
X003345Y006406D01*
X003299Y006406D01*
X003252Y006360D01*
X003252Y006266D01*
X003299Y006219D01*
X003762Y006139D02*
X003762Y006039D01*
X004028Y006034D02*
X004028Y005940D01*
X004075Y005894D01*
X004028Y006034D02*
X004075Y006080D01*
X004121Y006080D01*
X004308Y005894D01*
X004308Y006080D01*
X004308Y006188D02*
X004028Y006188D01*
X004168Y006235D02*
X004308Y006375D01*
X004524Y006219D02*
X005124Y006219D01*
X005124Y005969D02*
X004524Y005969D01*
X004215Y006188D02*
X004028Y006375D01*
X004374Y006739D02*
X004374Y005439D01*
X004574Y005239D02*
X005074Y005239D01*
X005274Y005439D02*
X005274Y006739D01*
X005388Y006711D02*
X005435Y006665D01*
X005528Y006665D01*
X005575Y006711D01*
X005683Y006711D02*
X005729Y006665D01*
X005823Y006665D01*
X005869Y006711D01*
X005869Y006805D01*
X005823Y006852D01*
X005776Y006852D01*
X005683Y006805D01*
X005683Y006945D01*
X005869Y006945D01*
X005575Y006898D02*
X005528Y006945D01*
X005435Y006945D01*
X005388Y006898D01*
X005388Y006711D01*
X005074Y006939D02*
X004574Y006939D01*
X005563Y005550D02*
X005657Y005550D01*
X005703Y005503D01*
X005703Y005457D01*
X005657Y005410D01*
X005703Y005363D01*
X005703Y005316D01*
X005657Y005270D01*
X005563Y005270D01*
X005517Y005316D01*
X005416Y005316D02*
X005416Y005270D01*
X005369Y005270D01*
X005369Y005316D01*
X005416Y005316D01*
X005610Y005410D02*
X005657Y005410D01*
X005517Y005503D02*
X005563Y005550D01*
X005811Y005503D02*
X005858Y005550D01*
X005951Y005550D01*
X005998Y005503D01*
X005998Y005457D01*
X005951Y005410D01*
X005998Y005363D01*
X005998Y005316D01*
X005951Y005270D01*
X005858Y005270D01*
X005811Y005316D01*
X005905Y005410D02*
X005951Y005410D01*
X006106Y005457D02*
X006106Y005270D01*
X006293Y005270D02*
X006293Y005410D01*
X006246Y005457D01*
X006106Y005457D01*
X006830Y005404D02*
X006877Y005404D01*
X006877Y005357D01*
X006830Y005357D01*
X006830Y005404D01*
X006977Y005404D02*
X007024Y005357D01*
X007117Y005357D01*
X007164Y005404D01*
X007164Y005497D01*
X007117Y005544D01*
X007071Y005544D01*
X006977Y005497D01*
X006977Y005638D01*
X007164Y005638D01*
X007459Y005638D02*
X007272Y005357D01*
X007567Y005357D02*
X007660Y005357D01*
X007613Y005357D02*
X007613Y005638D01*
X007567Y005638D02*
X007660Y005638D01*
X011299Y003218D02*
X011299Y003125D01*
X011346Y003078D01*
X011346Y002970D02*
X011299Y002924D01*
X011299Y002830D01*
X011346Y002784D01*
X011533Y002784D01*
X011579Y002830D01*
X011579Y002924D01*
X011533Y002970D01*
X011579Y003078D02*
X011392Y003265D01*
X011346Y003265D01*
X011299Y003218D01*
X011579Y003265D02*
X011579Y003078D01*
X011662Y003276D02*
X011662Y002776D01*
X011862Y002576D02*
X013162Y002576D01*
X013362Y002776D02*
X013362Y003276D01*
X013518Y003219D02*
X013564Y003172D01*
X013611Y003219D01*
X013658Y003219D01*
X013704Y003172D01*
X013704Y003079D01*
X013658Y003032D01*
X013564Y003125D02*
X013564Y003172D01*
X013162Y003476D02*
X011862Y003476D01*
X012392Y003326D02*
X012392Y002726D01*
X012642Y002726D02*
X012642Y003326D01*
X013424Y002877D02*
X013471Y002924D01*
X013424Y002877D02*
X013424Y002784D01*
X013471Y002737D01*
X013564Y002831D02*
X013564Y002877D01*
X013812Y002564D02*
X013912Y002464D01*
X015062Y002464D01*
X013312Y001764D02*
X013312Y001664D01*
X013312Y001764D02*
X013212Y001764D01*
X012812Y001764D02*
X012712Y001764D01*
X012712Y001664D01*
X012312Y001664D02*
X012312Y001764D01*
X012212Y001764D01*
X011812Y001764D02*
X011712Y001764D01*
X011712Y001664D01*
X011312Y001664D02*
X011312Y001764D01*
X011212Y001764D01*
X010812Y001764D02*
X010712Y001764D01*
X010712Y001664D01*
X010312Y001664D02*
X010312Y001764D01*
X010212Y001764D01*
X009812Y001764D02*
X009712Y001764D01*
X009712Y001664D01*
X009312Y001664D02*
X009312Y001764D01*
X009212Y001764D01*
X008812Y001764D02*
X008712Y001764D01*
X008712Y001664D01*
X008312Y001664D02*
X008312Y001764D01*
X008212Y001764D01*
X007812Y001764D02*
X007712Y001764D01*
X007712Y001664D01*
X007312Y001664D02*
X007312Y001764D01*
X007212Y001764D01*
X006812Y001764D02*
X006712Y001764D01*
X006712Y001664D01*
X006312Y001664D02*
X006312Y001764D01*
X006212Y001764D01*
X005812Y001764D02*
X005712Y001764D01*
X005712Y001664D01*
X005312Y001664D02*
X005312Y001764D01*
X005212Y001764D01*
X004812Y001764D02*
X004712Y001764D01*
X004712Y001664D01*
X004312Y001664D02*
X004312Y001764D01*
X004212Y001764D01*
X003812Y001764D02*
X003712Y001764D01*
X003712Y001664D01*
X003712Y001264D02*
X003712Y001164D01*
X003812Y001164D01*
X004212Y001164D02*
X004312Y001164D01*
X004312Y001264D01*
X004712Y001264D02*
X004712Y001164D01*
X004812Y001164D01*
X005212Y001164D02*
X005312Y001164D01*
X005312Y001264D01*
X005712Y001264D02*
X005712Y001164D01*
X005812Y001164D01*
X006212Y001164D02*
X006312Y001164D01*
X006312Y001264D01*
X006712Y001264D02*
X006712Y001164D01*
X006812Y001164D01*
X007212Y001164D02*
X007312Y001164D01*
X007312Y001264D01*
X007712Y001264D02*
X007712Y001164D01*
X007812Y001164D01*
X008212Y001164D02*
X008312Y001164D01*
X008312Y001264D01*
X008712Y001264D02*
X008712Y001164D01*
X008812Y001164D01*
X009212Y001164D02*
X009312Y001164D01*
X009312Y001264D01*
X009712Y001264D02*
X009712Y001164D01*
X009812Y001164D01*
X010212Y001164D02*
X010312Y001164D01*
X010312Y001264D01*
X010712Y001264D02*
X010712Y001164D01*
X010812Y001164D01*
X011212Y001164D02*
X011312Y001164D01*
X011312Y001264D01*
X011712Y001264D02*
X011712Y001164D01*
X011812Y001164D01*
X012212Y001164D02*
X012312Y001164D01*
X012312Y001264D01*
X012712Y001264D02*
X012712Y001164D01*
X012812Y001164D01*
X013212Y001164D02*
X013312Y001164D01*
X013312Y001264D01*
X003433Y003484D02*
X003246Y003484D01*
X003339Y003484D02*
X003339Y003764D01*
X003246Y003670D01*
X003138Y003624D02*
X003092Y003577D01*
X002951Y003577D01*
X002951Y003484D02*
X002951Y003764D01*
X003092Y003764D01*
X003138Y003717D01*
X003138Y003624D01*
X002844Y003764D02*
X002750Y003764D01*
X002797Y003764D02*
X002797Y003530D01*
X002750Y003484D01*
X002704Y003484D01*
X002657Y003530D01*
X002712Y005289D02*
X002812Y005289D01*
X002812Y005389D01*
X002312Y005289D02*
X002212Y005289D01*
X002212Y005389D01*
D15*
X002212Y005289D01*
X002312Y005289D01*
X002712Y005289D02*
X002812Y005289D01*
X002812Y005389D01*
X002929Y005379D02*
X002972Y005336D01*
X003016Y005336D01*
X003059Y005379D01*
X003059Y005466D01*
X003103Y005509D01*
X003146Y005509D01*
X003189Y005466D01*
X003189Y005379D01*
X003146Y005336D01*
X002929Y005379D02*
X002929Y005466D01*
X002972Y005509D01*
X002972Y005630D02*
X003146Y005630D01*
X003189Y005674D01*
X003189Y005760D01*
X003146Y005804D01*
X003059Y005804D01*
X003059Y005717D01*
X002972Y005630D02*
X002929Y005674D01*
X002929Y005760D01*
X002972Y005804D01*
X002812Y005789D02*
X002812Y005889D01*
X002712Y005889D01*
X002312Y005889D02*
X002212Y005889D01*
X002212Y005789D01*
X002212Y006289D02*
X002312Y006289D01*
X002212Y006289D02*
X002212Y006389D01*
X002712Y006289D02*
X002812Y006289D01*
X002812Y006389D01*
X002929Y006336D02*
X002929Y006509D01*
X003016Y006466D02*
X003059Y006509D01*
X003146Y006509D01*
X003189Y006466D01*
X003189Y006379D01*
X003146Y006336D01*
X003059Y006336D02*
X003016Y006422D01*
X003016Y006466D01*
X003059Y006336D02*
X002929Y006336D01*
X002929Y006630D02*
X003103Y006630D01*
X003189Y006717D01*
X003103Y006804D01*
X002929Y006804D01*
X002812Y006789D02*
X002812Y006889D01*
X002712Y006889D01*
X002312Y006889D02*
X002212Y006889D01*
X002212Y006789D01*
X004374Y006739D02*
X004374Y005439D01*
X004376Y005413D01*
X004381Y005387D01*
X004389Y005362D01*
X004401Y005339D01*
X004415Y005317D01*
X004433Y005298D01*
X004452Y005280D01*
X004474Y005266D01*
X004497Y005254D01*
X004522Y005246D01*
X004548Y005241D01*
X004574Y005239D01*
X005074Y005239D01*
X005100Y005241D01*
X005126Y005246D01*
X005151Y005254D01*
X005174Y005266D01*
X005196Y005280D01*
X005215Y005298D01*
X005233Y005317D01*
X005247Y005339D01*
X005259Y005362D01*
X005267Y005387D01*
X005272Y005413D01*
X005274Y005439D01*
X005274Y006739D01*
X005272Y006765D01*
X005267Y006791D01*
X005259Y006816D01*
X005247Y006839D01*
X005233Y006861D01*
X005215Y006880D01*
X005196Y006898D01*
X005174Y006912D01*
X005151Y006924D01*
X005126Y006932D01*
X005100Y006937D01*
X005074Y006939D01*
X004574Y006939D01*
X004548Y006937D01*
X004522Y006932D01*
X004497Y006924D01*
X004474Y006912D01*
X004452Y006898D01*
X004433Y006880D01*
X004415Y006861D01*
X004401Y006839D01*
X004389Y006816D01*
X004381Y006791D01*
X004376Y006765D01*
X004374Y006739D01*
X004376Y006765D01*
X004381Y006791D01*
X004389Y006816D01*
X004401Y006839D01*
X004415Y006861D01*
X004433Y006880D01*
X004452Y006898D01*
X004474Y006912D01*
X004497Y006924D01*
X004522Y006932D01*
X004548Y006937D01*
X004574Y006939D01*
X005074Y006939D02*
X005100Y006937D01*
X005126Y006932D01*
X005151Y006924D01*
X005174Y006912D01*
X005196Y006898D01*
X005215Y006880D01*
X005233Y006861D01*
X005247Y006839D01*
X005259Y006816D01*
X005267Y006791D01*
X005272Y006765D01*
X005274Y006739D01*
X005274Y005439D02*
X005272Y005413D01*
X005267Y005387D01*
X005259Y005362D01*
X005247Y005339D01*
X005233Y005317D01*
X005215Y005298D01*
X005196Y005280D01*
X005174Y005266D01*
X005151Y005254D01*
X005126Y005246D01*
X005100Y005241D01*
X005074Y005239D01*
X004574Y005239D02*
X004548Y005241D01*
X004522Y005246D01*
X004497Y005254D01*
X004474Y005266D01*
X004452Y005280D01*
X004433Y005298D01*
X004415Y005317D01*
X004401Y005339D01*
X004389Y005362D01*
X004381Y005387D01*
X004376Y005413D01*
X004374Y005439D01*
X006462Y005964D02*
X006465Y006037D01*
X006475Y006109D01*
X006492Y006180D01*
X006514Y006249D01*
X006543Y006316D01*
X006578Y006380D01*
X006619Y006440D01*
X006665Y006497D01*
X006716Y006549D01*
X006771Y006596D01*
X006831Y006638D01*
X006894Y006674D01*
X006960Y006705D01*
X007029Y006729D01*
X007099Y006747D01*
X007171Y006759D01*
X007244Y006764D01*
X007317Y006762D01*
X007389Y006754D01*
X007460Y006739D01*
X007530Y006718D01*
X007597Y006690D01*
X007662Y006657D01*
X007723Y006618D01*
X007781Y006573D01*
X007834Y006523D01*
X007883Y006469D01*
X007926Y006410D01*
X007964Y006348D01*
X007996Y006283D01*
X008022Y006215D01*
X008041Y006145D01*
X008055Y006073D01*
X008061Y006000D01*
X008061Y005928D01*
X008055Y005855D01*
X008041Y005783D01*
X008022Y005713D01*
X007996Y005645D01*
X007964Y005580D01*
X007926Y005518D01*
X007883Y005459D01*
X007834Y005405D01*
X007781Y005355D01*
X007723Y005310D01*
X007662Y005271D01*
X007597Y005238D01*
X007530Y005210D01*
X007460Y005189D01*
X007389Y005174D01*
X007317Y005166D01*
X007244Y005164D01*
X007171Y005169D01*
X007099Y005181D01*
X007029Y005199D01*
X006960Y005223D01*
X006894Y005254D01*
X006831Y005290D01*
X006771Y005332D01*
X006716Y005379D01*
X006665Y005431D01*
X006619Y005488D01*
X006578Y005548D01*
X006543Y005612D01*
X006514Y005679D01*
X006492Y005748D01*
X006475Y005819D01*
X006465Y005891D01*
X006462Y005964D01*
X006465Y006037D01*
X006475Y006109D01*
X006492Y006180D01*
X006514Y006249D01*
X006543Y006316D01*
X006578Y006380D01*
X006619Y006440D01*
X006665Y006497D01*
X006716Y006549D01*
X006771Y006596D01*
X006831Y006638D01*
X006894Y006674D01*
X006960Y006705D01*
X007029Y006729D01*
X007099Y006747D01*
X007171Y006759D01*
X007244Y006764D01*
X007317Y006762D01*
X007389Y006754D01*
X007460Y006739D01*
X007530Y006718D01*
X007597Y006690D01*
X007662Y006657D01*
X007723Y006618D01*
X007781Y006573D01*
X007834Y006523D01*
X007883Y006469D01*
X007926Y006410D01*
X007964Y006348D01*
X007996Y006283D01*
X008022Y006215D01*
X008041Y006145D01*
X008055Y006073D01*
X008061Y006000D01*
X008061Y005928D01*
X008055Y005855D01*
X008041Y005783D01*
X008022Y005713D01*
X007996Y005645D01*
X007964Y005580D01*
X007926Y005518D01*
X007883Y005459D01*
X007834Y005405D01*
X007781Y005355D01*
X007723Y005310D01*
X007662Y005271D01*
X007597Y005238D01*
X007530Y005210D01*
X007460Y005189D01*
X007389Y005174D01*
X007317Y005166D01*
X007244Y005164D01*
X007171Y005169D01*
X007099Y005181D01*
X007029Y005199D01*
X006960Y005223D01*
X006894Y005254D01*
X006831Y005290D01*
X006771Y005332D01*
X006716Y005379D01*
X006665Y005431D01*
X006619Y005488D01*
X006578Y005548D01*
X006543Y005612D01*
X006514Y005679D01*
X006492Y005748D01*
X006475Y005819D01*
X006465Y005891D01*
X006462Y005964D01*
X008531Y004551D02*
X008531Y003251D01*
X008533Y003225D01*
X008538Y003199D01*
X008546Y003174D01*
X008558Y003151D01*
X008572Y003129D01*
X008590Y003110D01*
X008609Y003092D01*
X008631Y003078D01*
X008654Y003066D01*
X008679Y003058D01*
X008705Y003053D01*
X008731Y003051D01*
X009231Y003051D01*
X009257Y003053D01*
X009283Y003058D01*
X009308Y003066D01*
X009331Y003078D01*
X009353Y003092D01*
X009372Y003110D01*
X009390Y003129D01*
X009404Y003151D01*
X009416Y003174D01*
X009424Y003199D01*
X009429Y003225D01*
X009431Y003251D01*
X009431Y004551D01*
X009429Y004577D01*
X009424Y004603D01*
X009416Y004628D01*
X009404Y004651D01*
X009390Y004673D01*
X009372Y004692D01*
X009353Y004710D01*
X009331Y004724D01*
X009308Y004736D01*
X009283Y004744D01*
X009257Y004749D01*
X009231Y004751D01*
X008731Y004751D01*
X008705Y004749D01*
X008679Y004744D01*
X008654Y004736D01*
X008631Y004724D01*
X008609Y004710D01*
X008590Y004692D01*
X008572Y004673D01*
X008558Y004651D01*
X008546Y004628D01*
X008538Y004603D01*
X008533Y004577D01*
X008531Y004551D01*
X008533Y004577D01*
X008538Y004603D01*
X008546Y004628D01*
X008558Y004651D01*
X008572Y004673D01*
X008590Y004692D01*
X008609Y004710D01*
X008631Y004724D01*
X008654Y004736D01*
X008679Y004744D01*
X008705Y004749D01*
X008731Y004751D01*
X009231Y004751D02*
X009257Y004749D01*
X009283Y004744D01*
X009308Y004736D01*
X009331Y004724D01*
X009353Y004710D01*
X009372Y004692D01*
X009390Y004673D01*
X009404Y004651D01*
X009416Y004628D01*
X009424Y004603D01*
X009429Y004577D01*
X009431Y004551D01*
X010012Y004601D02*
X010212Y004601D01*
X010112Y004501D02*
X010112Y004701D01*
X009512Y003901D02*
X009516Y003992D01*
X009529Y004082D01*
X009549Y004171D01*
X009578Y004257D01*
X009614Y004341D01*
X009658Y004421D01*
X009708Y004496D01*
X009766Y004567D01*
X009829Y004632D01*
X009899Y004691D01*
X009973Y004743D01*
X010052Y004789D01*
X010135Y004827D01*
X010220Y004858D01*
X010309Y004880D01*
X010398Y004895D01*
X010489Y004901D01*
X010580Y004899D01*
X010671Y004888D01*
X010760Y004870D01*
X010847Y004843D01*
X010931Y004809D01*
X011012Y004767D01*
X011089Y004718D01*
X011161Y004662D01*
X011227Y004600D01*
X011288Y004532D01*
X011342Y004459D01*
X011389Y004381D01*
X011429Y004299D01*
X011462Y004214D01*
X011486Y004127D01*
X011503Y004037D01*
X011511Y003947D01*
X011511Y003855D01*
X011503Y003765D01*
X011486Y003675D01*
X011462Y003588D01*
X011429Y003503D01*
X011389Y003421D01*
X011342Y003343D01*
X011288Y003270D01*
X011227Y003202D01*
X011161Y003140D01*
X011089Y003084D01*
X011012Y003035D01*
X010931Y002993D01*
X010847Y002959D01*
X010760Y002932D01*
X010671Y002914D01*
X010580Y002903D01*
X010489Y002901D01*
X010398Y002907D01*
X010309Y002922D01*
X010220Y002944D01*
X010135Y002975D01*
X010052Y003013D01*
X009973Y003059D01*
X009899Y003111D01*
X009829Y003170D01*
X009766Y003235D01*
X009708Y003306D01*
X009658Y003381D01*
X009614Y003461D01*
X009578Y003545D01*
X009549Y003631D01*
X009529Y003720D01*
X009516Y003810D01*
X009512Y003901D01*
X009431Y003251D02*
X009429Y003225D01*
X009424Y003199D01*
X009416Y003174D01*
X009404Y003151D01*
X009390Y003129D01*
X009372Y003110D01*
X009353Y003092D01*
X009331Y003078D01*
X009308Y003066D01*
X009283Y003058D01*
X009257Y003053D01*
X009231Y003051D01*
X008731Y003051D02*
X008705Y003053D01*
X008679Y003058D01*
X008654Y003066D01*
X008631Y003078D01*
X008609Y003092D01*
X008590Y003110D01*
X008572Y003129D01*
X008558Y003151D01*
X008546Y003174D01*
X008538Y003199D01*
X008533Y003225D01*
X008531Y003251D01*
X009512Y003901D02*
X009516Y003992D01*
X009529Y004082D01*
X009549Y004171D01*
X009578Y004257D01*
X009614Y004341D01*
X009658Y004421D01*
X009708Y004496D01*
X009766Y004567D01*
X009829Y004632D01*
X009899Y004691D01*
X009973Y004743D01*
X010052Y004789D01*
X010135Y004827D01*
X010220Y004858D01*
X010309Y004880D01*
X010398Y004895D01*
X010489Y004901D01*
X010580Y004899D01*
X010671Y004888D01*
X010760Y004870D01*
X010847Y004843D01*
X010931Y004809D01*
X011012Y004767D01*
X011089Y004718D01*
X011161Y004662D01*
X011227Y004600D01*
X011288Y004532D01*
X011342Y004459D01*
X011389Y004381D01*
X011429Y004299D01*
X011462Y004214D01*
X011486Y004127D01*
X011503Y004037D01*
X011511Y003947D01*
X011511Y003855D01*
X011503Y003765D01*
X011486Y003675D01*
X011462Y003588D01*
X011429Y003503D01*
X011389Y003421D01*
X011342Y003343D01*
X011288Y003270D01*
X011227Y003202D01*
X011161Y003140D01*
X011089Y003084D01*
X011012Y003035D01*
X010931Y002993D01*
X010847Y002959D01*
X010760Y002932D01*
X010671Y002914D01*
X010580Y002903D01*
X010489Y002901D01*
X010398Y002907D01*
X010309Y002922D01*
X010220Y002944D01*
X010135Y002975D01*
X010052Y003013D01*
X009973Y003059D01*
X009899Y003111D01*
X009829Y003170D01*
X009766Y003235D01*
X009708Y003306D01*
X009658Y003381D01*
X009614Y003461D01*
X009578Y003545D01*
X009549Y003631D01*
X009529Y003720D01*
X009516Y003810D01*
X009512Y003901D01*
X011662Y003276D02*
X011662Y002776D01*
X011664Y002750D01*
X011669Y002724D01*
X011677Y002699D01*
X011689Y002676D01*
X011703Y002654D01*
X011721Y002635D01*
X011740Y002617D01*
X011762Y002603D01*
X011785Y002591D01*
X011810Y002583D01*
X011836Y002578D01*
X011862Y002576D01*
X013162Y002576D01*
X013188Y002578D01*
X013214Y002583D01*
X013239Y002591D01*
X013262Y002603D01*
X013284Y002617D01*
X013303Y002635D01*
X013321Y002654D01*
X013335Y002676D01*
X013347Y002699D01*
X013355Y002724D01*
X013360Y002750D01*
X013362Y002776D01*
X013362Y003276D01*
X013360Y003302D01*
X013355Y003328D01*
X013347Y003353D01*
X013335Y003376D01*
X013321Y003398D01*
X013303Y003417D01*
X013284Y003435D01*
X013262Y003449D01*
X013239Y003461D01*
X013214Y003469D01*
X013188Y003474D01*
X013162Y003476D01*
X011862Y003476D01*
X011836Y003474D01*
X011810Y003469D01*
X011785Y003461D01*
X011762Y003449D01*
X011740Y003435D01*
X011721Y003417D01*
X011703Y003398D01*
X011689Y003376D01*
X011677Y003353D01*
X011669Y003328D01*
X011664Y003302D01*
X011662Y003276D01*
X011664Y003302D01*
X011669Y003328D01*
X011677Y003353D01*
X011689Y003376D01*
X011703Y003398D01*
X011721Y003417D01*
X011740Y003435D01*
X011762Y003449D01*
X011785Y003461D01*
X011810Y003469D01*
X011836Y003474D01*
X011862Y003476D01*
X011662Y002776D02*
X011664Y002750D01*
X011669Y002724D01*
X011677Y002699D01*
X011689Y002676D01*
X011703Y002654D01*
X011721Y002635D01*
X011740Y002617D01*
X011762Y002603D01*
X011785Y002591D01*
X011810Y002583D01*
X011836Y002578D01*
X011862Y002576D01*
X011812Y001764D02*
X011712Y001764D01*
X011712Y001664D01*
X011312Y001664D02*
X011312Y001764D01*
X011212Y001764D01*
X010812Y001764D02*
X010712Y001764D01*
X010712Y001664D01*
X010312Y001664D02*
X010312Y001764D01*
X010212Y001764D01*
X009812Y001764D02*
X009712Y001764D01*
X009712Y001664D01*
X009312Y001664D02*
X009312Y001764D01*
X009212Y001764D01*
X008812Y001764D02*
X008712Y001764D01*
X008712Y001664D01*
X008312Y001664D02*
X008312Y001764D01*
X008212Y001764D01*
X007812Y001764D02*
X007712Y001764D01*
X007712Y001664D01*
X007312Y001664D02*
X007312Y001764D01*
X007212Y001764D01*
X006812Y001764D02*
X006712Y001764D01*
X006712Y001664D01*
X006312Y001664D02*
X006312Y001764D01*
X006212Y001764D01*
X005812Y001764D02*
X005712Y001764D01*
X005712Y001664D01*
X005312Y001664D02*
X005312Y001764D01*
X005212Y001764D01*
X004812Y001764D02*
X004712Y001764D01*
X004712Y001664D01*
X004312Y001664D02*
X004312Y001764D01*
X004212Y001764D01*
X003812Y001764D02*
X003712Y001764D01*
X003712Y001664D01*
X003712Y001264D02*
X003712Y001164D01*
X003812Y001164D01*
X004212Y001164D02*
X004312Y001164D01*
X004312Y001264D01*
X004712Y001264D02*
X004712Y001164D01*
X004812Y001164D01*
X005212Y001164D02*
X005312Y001164D01*
X005312Y001264D01*
X005712Y001264D02*
X005712Y001164D01*
X005812Y001164D01*
X006212Y001164D02*
X006312Y001164D01*
X006312Y001264D01*
X006712Y001264D02*
X006712Y001164D01*
X006812Y001164D01*
X007212Y001164D02*
X007312Y001164D01*
X007312Y001264D01*
X007712Y001264D02*
X007712Y001164D01*
X007812Y001164D01*
X008212Y001164D02*
X008312Y001164D01*
X008312Y001264D01*
X008712Y001264D02*
X008712Y001164D01*
X008812Y001164D01*
X009212Y001164D02*
X009312Y001164D01*
X009312Y001264D01*
X009712Y001264D02*
X009712Y001164D01*
X009812Y001164D01*
X010212Y001164D02*
X010312Y001164D01*
X010312Y001264D01*
X010712Y001264D02*
X010712Y001164D01*
X010812Y001164D01*
X011212Y001164D02*
X011312Y001164D01*
X011312Y001264D01*
X011712Y001264D02*
X011712Y001164D01*
X011812Y001164D01*
X012212Y001164D02*
X012312Y001164D01*
X012312Y001264D01*
X012712Y001264D02*
X012712Y001164D01*
X012812Y001164D01*
X013212Y001164D02*
X013312Y001164D01*
X013312Y001264D01*
X013312Y001664D02*
X013312Y001764D01*
X013212Y001764D01*
X012812Y001764D02*
X012712Y001764D01*
X012712Y001664D01*
X012312Y001664D02*
X012312Y001764D01*
X012212Y001764D01*
X013162Y002576D02*
X013188Y002578D01*
X013214Y002583D01*
X013239Y002591D01*
X013262Y002603D01*
X013284Y002617D01*
X013303Y002635D01*
X013321Y002654D01*
X013335Y002676D01*
X013347Y002699D01*
X013355Y002724D01*
X013360Y002750D01*
X013362Y002776D01*
X013812Y002564D02*
X013812Y006364D01*
X013912Y006464D01*
X015062Y006464D01*
X011412Y004651D02*
X011417Y004751D01*
X011430Y004850D01*
X011453Y004948D01*
X011484Y005043D01*
X011524Y005135D01*
X011572Y005223D01*
X011628Y005306D01*
X011691Y005383D01*
X011761Y005455D01*
X011837Y005520D01*
X011919Y005578D01*
X012006Y005628D01*
X012097Y005670D01*
X012191Y005703D01*
X012288Y005728D01*
X012387Y005744D01*
X012487Y005751D01*
X012587Y005748D01*
X012687Y005737D01*
X012785Y005717D01*
X012880Y005687D01*
X012973Y005650D01*
X013062Y005604D01*
X013146Y005550D01*
X013225Y005488D01*
X013299Y005420D01*
X013365Y005345D01*
X013425Y005265D01*
X013477Y005179D01*
X013521Y005089D01*
X013557Y004996D01*
X013584Y004899D01*
X013602Y004801D01*
X013611Y004701D01*
X013611Y004601D01*
X013602Y004501D01*
X013584Y004403D01*
X013557Y004306D01*
X013521Y004213D01*
X013477Y004123D01*
X013425Y004037D01*
X013365Y003957D01*
X013299Y003882D01*
X013225Y003814D01*
X013146Y003752D01*
X013062Y003698D01*
X012973Y003652D01*
X012880Y003615D01*
X012785Y003585D01*
X012687Y003565D01*
X012587Y003554D01*
X012487Y003551D01*
X012387Y003558D01*
X012288Y003574D01*
X012191Y003599D01*
X012097Y003632D01*
X012006Y003674D01*
X011919Y003724D01*
X011837Y003782D01*
X011761Y003847D01*
X011691Y003919D01*
X011628Y003996D01*
X011572Y004079D01*
X011524Y004167D01*
X011484Y004259D01*
X011453Y004354D01*
X011430Y004452D01*
X011417Y004551D01*
X011412Y004651D01*
X011862Y005001D02*
X011862Y005151D01*
X011862Y005301D01*
X011862Y005151D02*
X011712Y005151D01*
X011862Y005151D02*
X012012Y005151D01*
X011412Y004651D02*
X011417Y004751D01*
X011430Y004850D01*
X011453Y004948D01*
X011484Y005043D01*
X011524Y005135D01*
X011572Y005223D01*
X011628Y005306D01*
X011691Y005383D01*
X011761Y005455D01*
X011837Y005520D01*
X011919Y005578D01*
X012006Y005628D01*
X012097Y005670D01*
X012191Y005703D01*
X012288Y005728D01*
X012387Y005744D01*
X012487Y005751D01*
X012587Y005748D01*
X012687Y005737D01*
X012785Y005717D01*
X012880Y005687D01*
X012973Y005650D01*
X013062Y005604D01*
X013146Y005550D01*
X013225Y005488D01*
X013299Y005420D01*
X013365Y005345D01*
X013425Y005265D01*
X013477Y005179D01*
X013521Y005089D01*
X013557Y004996D01*
X013584Y004899D01*
X013602Y004801D01*
X013611Y004701D01*
X013611Y004601D01*
X013602Y004501D01*
X013584Y004403D01*
X013557Y004306D01*
X013521Y004213D01*
X013477Y004123D01*
X013425Y004037D01*
X013365Y003957D01*
X013299Y003882D01*
X013225Y003814D01*
X013146Y003752D01*
X013062Y003698D01*
X012973Y003652D01*
X012880Y003615D01*
X012785Y003585D01*
X012687Y003565D01*
X012587Y003554D01*
X012487Y003551D01*
X012387Y003558D01*
X012288Y003574D01*
X012191Y003599D01*
X012097Y003632D01*
X012006Y003674D01*
X011919Y003724D01*
X011837Y003782D01*
X011761Y003847D01*
X011691Y003919D01*
X011628Y003996D01*
X011572Y004079D01*
X011524Y004167D01*
X011484Y004259D01*
X011453Y004354D01*
X011430Y004452D01*
X011417Y004551D01*
X011412Y004651D01*
X013162Y003476D02*
X013188Y003474D01*
X013214Y003469D01*
X013239Y003461D01*
X013262Y003449D01*
X013284Y003435D01*
X013303Y003417D01*
X013321Y003398D01*
X013335Y003376D01*
X013347Y003353D01*
X013355Y003328D01*
X013360Y003302D01*
X013362Y003276D01*
X013812Y002564D02*
X013912Y002464D01*
X015062Y002464D01*
X008212Y005964D02*
X008215Y006037D01*
X008225Y006109D01*
X008242Y006180D01*
X008264Y006249D01*
X008293Y006316D01*
X008328Y006380D01*
X008369Y006440D01*
X008415Y006497D01*
X008466Y006549D01*
X008521Y006596D01*
X008581Y006638D01*
X008644Y006674D01*
X008710Y006705D01*
X008779Y006729D01*
X008849Y006747D01*
X008921Y006759D01*
X008994Y006764D01*
X009067Y006762D01*
X009139Y006754D01*
X009210Y006739D01*
X009280Y006718D01*
X009347Y006690D01*
X009412Y006657D01*
X009473Y006618D01*
X009531Y006573D01*
X009584Y006523D01*
X009633Y006469D01*
X009676Y006410D01*
X009714Y006348D01*
X009746Y006283D01*
X009772Y006215D01*
X009791Y006145D01*
X009805Y006073D01*
X009811Y006000D01*
X009811Y005928D01*
X009805Y005855D01*
X009791Y005783D01*
X009772Y005713D01*
X009746Y005645D01*
X009714Y005580D01*
X009676Y005518D01*
X009633Y005459D01*
X009584Y005405D01*
X009531Y005355D01*
X009473Y005310D01*
X009412Y005271D01*
X009347Y005238D01*
X009280Y005210D01*
X009210Y005189D01*
X009139Y005174D01*
X009067Y005166D01*
X008994Y005164D01*
X008921Y005169D01*
X008849Y005181D01*
X008779Y005199D01*
X008710Y005223D01*
X008644Y005254D01*
X008581Y005290D01*
X008521Y005332D01*
X008466Y005379D01*
X008415Y005431D01*
X008369Y005488D01*
X008328Y005548D01*
X008293Y005612D01*
X008264Y005679D01*
X008242Y005748D01*
X008225Y005819D01*
X008215Y005891D01*
X008212Y005964D01*
X008215Y006037D01*
X008225Y006109D01*
X008242Y006180D01*
X008264Y006249D01*
X008293Y006316D01*
X008328Y006380D01*
X008369Y006440D01*
X008415Y006497D01*
X008466Y006549D01*
X008521Y006596D01*
X008581Y006638D01*
X008644Y006674D01*
X008710Y006705D01*
X008779Y006729D01*
X008849Y006747D01*
X008921Y006759D01*
X008994Y006764D01*
X009067Y006762D01*
X009139Y006754D01*
X009210Y006739D01*
X009280Y006718D01*
X009347Y006690D01*
X009412Y006657D01*
X009473Y006618D01*
X009531Y006573D01*
X009584Y006523D01*
X009633Y006469D01*
X009676Y006410D01*
X009714Y006348D01*
X009746Y006283D01*
X009772Y006215D01*
X009791Y006145D01*
X009805Y006073D01*
X009811Y006000D01*
X009811Y005928D01*
X009805Y005855D01*
X009791Y005783D01*
X009772Y005713D01*
X009746Y005645D01*
X009714Y005580D01*
X009676Y005518D01*
X009633Y005459D01*
X009584Y005405D01*
X009531Y005355D01*
X009473Y005310D01*
X009412Y005271D01*
X009347Y005238D01*
X009280Y005210D01*
X009210Y005189D01*
X009139Y005174D01*
X009067Y005166D01*
X008994Y005164D01*
X008921Y005169D01*
X008849Y005181D01*
X008779Y005199D01*
X008710Y005223D01*
X008644Y005254D01*
X008581Y005290D01*
X008521Y005332D01*
X008466Y005379D01*
X008415Y005431D01*
X008369Y005488D01*
X008328Y005548D01*
X008293Y005612D01*
X008264Y005679D01*
X008242Y005748D01*
X008225Y005819D01*
X008215Y005891D01*
X008212Y005964D01*
X008152Y008931D02*
X008239Y008931D01*
X008282Y008974D01*
X008282Y009061D01*
X008196Y009061D01*
X008282Y009148D02*
X008239Y009191D01*
X008152Y009191D01*
X008109Y009148D01*
X008109Y008974D01*
X008152Y008931D01*
X007988Y009061D02*
X007814Y009061D01*
X007693Y009061D02*
X007650Y009018D01*
X007520Y009018D01*
X007520Y008931D02*
X007520Y009191D01*
X007650Y009191D01*
X007693Y009148D01*
X007693Y009061D01*
X007398Y008931D02*
X007225Y008931D01*
X007225Y009191D01*
X007398Y009191D01*
X007312Y009061D02*
X007225Y009061D01*
X007104Y009191D02*
X006930Y009191D01*
X007017Y009191D02*
X007017Y008931D01*
X006809Y008974D02*
X006766Y008931D01*
X006679Y008931D01*
X006636Y008974D01*
X006679Y009061D02*
X006636Y009105D01*
X006636Y009148D01*
X006679Y009191D01*
X006766Y009191D01*
X006809Y009148D01*
X006766Y009061D02*
X006809Y009018D01*
X006809Y008974D01*
X006766Y009061D02*
X006679Y009061D01*
X006514Y009061D02*
X006341Y009061D01*
X006220Y009061D02*
X006176Y009018D01*
X006046Y009018D01*
X006046Y008931D02*
X006046Y009191D01*
X006176Y009191D01*
X006220Y009148D01*
X006220Y009061D01*
X006133Y009018D02*
X006220Y008931D01*
X005937Y008931D02*
X005850Y008931D01*
X005893Y008931D02*
X005893Y009191D01*
X005850Y009191D02*
X005937Y009191D01*
X005729Y009148D02*
X005685Y009191D01*
X005555Y009191D01*
X005555Y008931D01*
X005685Y008931D01*
X005729Y008974D01*
X005729Y009148D01*
X005434Y009061D02*
X005261Y009061D01*
X005139Y009061D02*
X004966Y009061D01*
X004966Y009105D02*
X005053Y009191D01*
X005139Y009105D01*
X005139Y008931D01*
X004966Y008931D02*
X004966Y009105D01*
X004845Y009191D02*
X004845Y008931D01*
X004671Y009191D01*
X004671Y008931D01*
X004550Y008931D02*
X004377Y008931D01*
X004377Y009191D01*
X004550Y009191D01*
X004463Y009061D02*
X004377Y009061D01*
X003978Y009061D02*
X003935Y009061D01*
X003935Y009105D01*
X003978Y009105D01*
X003978Y009061D01*
X003978Y008974D02*
X003978Y008931D01*
X003935Y008931D01*
X003935Y008974D01*
X003978Y008974D01*
X003814Y008974D02*
X003770Y008931D01*
X003683Y008931D01*
X003640Y008974D01*
X003683Y009061D02*
X003770Y009061D01*
X003814Y009018D01*
X003814Y008974D01*
X003683Y009061D02*
X003640Y009105D01*
X003640Y009148D01*
X003683Y009191D01*
X003770Y009191D01*
X003814Y009148D01*
X003519Y009191D02*
X003519Y008931D01*
X003345Y009191D01*
X003345Y008931D01*
X003236Y008931D02*
X003149Y008931D01*
X003192Y008931D02*
X003192Y009191D01*
X003149Y009191D02*
X003236Y009191D01*
X003028Y009148D02*
X003028Y009061D01*
X002984Y009018D01*
X002854Y009018D01*
X002854Y008931D02*
X002854Y009191D01*
X002984Y009191D01*
X003028Y009148D01*
X008403Y009191D02*
X008403Y008931D01*
X008577Y008931D02*
X008577Y009191D01*
X008698Y009191D02*
X008828Y009191D01*
X008872Y009148D01*
X008872Y008974D01*
X008828Y008931D01*
X008698Y008931D01*
X008698Y009191D01*
X008577Y008931D02*
X008403Y009191D01*
X008993Y009061D02*
X009166Y009061D01*
X009287Y009018D02*
X009374Y008931D01*
X009461Y009018D01*
X009461Y009191D01*
X009582Y009191D02*
X009669Y009105D01*
X009756Y009191D01*
X009756Y008931D01*
X009582Y008931D02*
X009582Y009191D01*
X009877Y009061D02*
X010050Y009061D01*
X010171Y009018D02*
X010301Y009018D01*
X010345Y009061D01*
X010345Y009148D01*
X010301Y009191D01*
X010171Y009191D01*
X010171Y008931D01*
X010466Y008974D02*
X010466Y009148D01*
X010509Y009191D01*
X010596Y009191D01*
X010639Y009148D01*
X010639Y009061D02*
X010553Y009061D01*
X010639Y009061D02*
X010639Y008974D01*
X010596Y008931D01*
X010509Y008931D01*
X010466Y008974D01*
X010761Y008931D02*
X010761Y009191D01*
X010934Y008931D01*
X010934Y009191D01*
X011055Y009191D02*
X011185Y009191D01*
X011229Y009148D01*
X011229Y008974D01*
X011185Y008931D01*
X011055Y008931D01*
X011055Y009191D01*
X011645Y008931D02*
X011818Y009191D01*
X011939Y009191D02*
X012069Y009191D01*
X012113Y009148D01*
X012113Y009105D01*
X012069Y009061D01*
X011939Y009061D01*
X011939Y008931D02*
X011939Y009191D01*
X012069Y009061D02*
X012113Y009018D01*
X012113Y008974D01*
X012069Y008931D01*
X011939Y008931D01*
X012234Y009061D02*
X012407Y009061D01*
X012529Y009061D02*
X012659Y009061D01*
X012702Y009018D01*
X012702Y008974D01*
X012659Y008931D01*
X012529Y008931D01*
X012529Y009191D01*
X012659Y009191D01*
X012702Y009148D01*
X012702Y009105D01*
X012659Y009061D01*
X012823Y009061D02*
X012997Y009061D01*
X013118Y008931D02*
X013291Y009191D01*
X013412Y009105D02*
X013499Y009191D01*
X013586Y009105D01*
X013586Y008931D01*
X013412Y008931D02*
X013412Y009105D01*
X013412Y009061D02*
X013586Y009061D01*
X013707Y009061D02*
X013881Y009061D01*
X014002Y009061D02*
X014175Y009061D01*
X014175Y009105D02*
X014175Y008931D01*
X014002Y008931D02*
X014002Y009105D01*
X014088Y009191D01*
X014175Y009105D01*
X009287Y009191D02*
X009287Y009018D01*
D16*
X008012Y004589D02*
X008012Y002589D01*
X002012Y002589D01*
X002012Y004589D01*
X008012Y004589D01*
X008097Y002345D02*
X008231Y002212D01*
X008364Y002345D01*
X008364Y001945D01*
X008637Y001945D02*
X008637Y002345D01*
X008837Y002345D01*
X008904Y002279D01*
X008904Y002145D01*
X008837Y002078D01*
X008637Y002078D01*
X009097Y002012D02*
X009164Y001945D01*
X009297Y001945D01*
X009364Y002012D01*
X009364Y002145D01*
X009231Y002145D01*
X009364Y002279D02*
X009297Y002345D01*
X009164Y002345D01*
X009097Y002279D01*
X009097Y002012D01*
X009824Y001945D02*
X009824Y002345D01*
X009978Y002345D02*
X010178Y002345D01*
X010245Y002278D01*
X010245Y002212D01*
X010178Y002145D01*
X009978Y002145D01*
X010178Y002145D02*
X010245Y002078D01*
X010245Y002012D01*
X010178Y001945D01*
X009978Y001945D01*
X009978Y002345D01*
X010887Y002345D02*
X010887Y001945D01*
X011087Y001945D01*
X011154Y002012D01*
X011154Y002078D01*
X011087Y002145D01*
X010887Y002145D01*
X011087Y002145D02*
X011154Y002212D01*
X011154Y002278D01*
X011087Y002345D01*
X010887Y002345D01*
X011793Y002345D02*
X011793Y001945D01*
X011946Y001945D02*
X011946Y002212D01*
X012080Y002345D01*
X012213Y002212D01*
X012213Y001945D01*
X012213Y002145D02*
X011946Y002145D01*
X012856Y002145D02*
X013122Y002145D01*
X013122Y002212D02*
X013122Y001945D01*
X012856Y001945D02*
X012856Y002212D01*
X012989Y002345D01*
X013122Y002212D01*
X008097Y002345D02*
X008097Y001945D01*
X007904Y002078D02*
X007904Y002345D01*
X007904Y002078D02*
X007770Y001945D01*
X007637Y002078D01*
X007637Y002345D01*
X007364Y002278D02*
X007297Y002345D01*
X007097Y002345D01*
X007097Y001945D01*
X007297Y001945D01*
X007364Y002012D01*
X007364Y002278D01*
X006904Y002278D02*
X006837Y002345D01*
X006704Y002345D01*
X006637Y002278D01*
X006637Y002012D01*
X006704Y001945D01*
X006837Y001945D01*
X006904Y002012D01*
X006904Y002145D01*
X006770Y002145D01*
X006364Y002345D02*
X006097Y002345D01*
X006231Y002345D02*
X006231Y001945D01*
X005904Y002012D02*
X005904Y002078D01*
X005837Y002145D01*
X005704Y002145D01*
X005637Y002212D01*
X005637Y002278D01*
X005704Y002345D01*
X005837Y002345D01*
X005904Y002278D01*
X005904Y002012D02*
X005837Y001945D01*
X005704Y001945D01*
X005637Y002012D01*
X005364Y001945D02*
X005231Y002078D01*
X005297Y002078D02*
X005097Y002078D01*
X004904Y002012D02*
X004904Y002279D01*
X004837Y002345D01*
X004637Y002345D01*
X004637Y001945D01*
X004837Y001945D01*
X004904Y002012D01*
X005097Y001945D02*
X005097Y002345D01*
X005297Y002345D01*
X005364Y002279D01*
X005364Y002145D01*
X005297Y002078D01*
X004364Y001945D02*
X004364Y002345D01*
X004097Y002345D02*
X004364Y001945D01*
X004097Y001945D02*
X004097Y002345D01*
X003904Y002345D02*
X003637Y002345D01*
X003637Y001945D01*
X003904Y001945D01*
X003770Y002145D02*
X003637Y002145D01*
D17*
X006512Y005964D03*
X006512Y005964D03*
X009762Y005964D03*
X009762Y005964D03*
D18*
X015262Y006189D03*
X015262Y006189D03*
X015262Y002739D03*
X015262Y002739D03*
D19*
X015362Y003464D03*
X015362Y003464D03*
X015362Y004464D03*
X015362Y004464D03*
X015362Y005464D03*
X015362Y005464D03*
D20*
X015262Y004964D03*
X015262Y004964D03*
X015262Y003964D03*
X015262Y003964D03*
D21*
X003762Y006039D02*
X003762Y006139D01*
D22*
X014052Y006284D03*
M02*
