G75*
G70*
%OFA0B0*%
%FSLAX24Y24*%
%IPPOS*%
%LPD*%
%AMOC8*
5,1,8,0,0,1.08239X$1,22.5*
%
%ADD10R,0.4000X0.5750*%
%ADD11R,0.0945X0.0945*%
%ADD12R,0.0472X0.0591*%
%ADD13R,0.1732X0.1161*%
%ADD14R,0.1142X0.0591*%
%ADD15R,0.1102X0.0945*%
%ADD16R,0.0787X0.0591*%
%ADD17R,0.0900X0.0350*%
%ADD18R,0.3500X0.4500*%
%ADD19O,0.1120X0.0560*%
%ADD20R,0.1516X0.2087*%
%ADD21R,0.0512X0.0591*%
%ADD22C,0.0380*%
%ADD23C,0.0560*%
%ADD24C,0.0500*%
%ADD25C,0.0320*%
%ADD26C,0.0660*%
%ADD27C,0.0700*%
%ADD28C,0.0000*%
%ADD29C,0.0396*%
%ADD30C,0.0240*%
%ADD31C,0.0760*%
%ADD32C,0.0400*%
%ADD33C,0.0700*%
D10*
X007723Y004557D03*
D11*
X013723Y004048D03*
X013723Y002316D03*
D12*
X014223Y006361D03*
X014223Y007503D03*
D13*
X022223Y004761D03*
X022223Y002103D03*
D14*
X013723Y004592D03*
X013723Y005773D03*
D15*
X004723Y004172D03*
X004723Y001692D03*
D16*
X010973Y001592D03*
X012473Y001592D03*
X012473Y002773D03*
X010973Y002773D03*
D17*
X011223Y003432D03*
X011223Y003932D03*
X011223Y004432D03*
X011223Y004932D03*
X011223Y005432D03*
X011223Y005932D03*
X011223Y006432D03*
D18*
X007723Y004932D03*
D19*
X002473Y004932D03*
X002473Y003932D03*
X002473Y002932D03*
X002473Y005932D03*
X024223Y005432D03*
X024223Y004432D03*
X024223Y003432D03*
D20*
X020698Y004375D03*
X015186Y004375D03*
D21*
X013058Y007432D03*
X012389Y007432D03*
X011058Y007432D03*
X010389Y007432D03*
D22*
X011223Y005432D02*
X012223Y005432D01*
X011223Y004432D02*
X013223Y004432D01*
X004723Y001932D02*
X004723Y001432D01*
D23*
X013223Y004432D02*
X015186Y004432D01*
X015186Y004375D01*
X022223Y004761D02*
X023223Y004432D01*
D24*
X013723Y004048D02*
X013473Y004432D01*
X013223Y004432D01*
X004723Y004172D02*
X004723Y005432D01*
X010973Y001592D02*
X011473Y001432D01*
X011223Y001432D01*
D25*
X006223Y001432D01*
X004723Y001432D01*
X010973Y002773D02*
X011223Y002773D01*
X011223Y003432D01*
X011223Y004932D02*
X008223Y004932D01*
X008223Y007432D01*
X010389Y007432D01*
X011223Y007432D02*
X012389Y007432D01*
X013223Y007503D02*
X014223Y007503D01*
X020723Y007503D01*
X020723Y004432D01*
X020723Y004375D01*
X020698Y004375D01*
X014223Y006361D02*
X013723Y005932D01*
X013223Y005932D02*
X011223Y005932D01*
X008223Y004932D02*
X007723Y004932D01*
X011223Y001432D02*
X012473Y001592D01*
D26*
X004723Y001432D02*
X002723Y001432D01*
X002473Y002932D01*
X004723Y001932D02*
X004723Y001692D01*
X004723Y001432D01*
X006223Y001432D01*
X007223Y001432D01*
X011223Y001432D01*
X013473Y001432D01*
X013723Y002316D01*
X013473Y001432D02*
X023223Y001432D01*
X024223Y001432D01*
X024223Y003432D01*
X024223Y004432D02*
X023223Y004432D01*
X007223Y004932D02*
X007223Y001432D01*
X004723Y005432D02*
X004723Y005932D01*
X002473Y005932D01*
D27*
X007223Y004932D02*
X007723Y004932D01*
D28*
X022223Y002103D02*
X022552Y002103D01*
X023223Y001432D01*
D29*
X012473Y002932D03*
X006223Y001432D03*
D30*
X012473Y002682D02*
X012473Y002773D01*
X012473Y002932D01*
X012473Y003932D01*
X011223Y003932D01*
X012473Y002932D02*
X012473Y002773D01*
X013223Y005932D02*
X013723Y005932D01*
X011223Y006432D02*
X011223Y007432D01*
X011058Y007432D01*
X013058Y007432D02*
X013223Y007432D01*
X013223Y007503D01*
D31*
X020723Y004932D02*
X020723Y004432D01*
X020698Y004432D01*
X020698Y004375D01*
X022223Y004761D02*
X022723Y004932D01*
X020723Y004932D01*
D32*
X012473Y005182D02*
X012223Y005432D01*
D33*
X012473Y005182D03*
X004723Y005432D03*
X004723Y005432D03*
M02*
