G75*
G70*
%OFA0B0*%
%FSLAX24Y24*%
%IPPOS*%
%LPD*%
%AMOC8*
5,1,8,0,0,1.08239X$1,22.5*
%
%ADD10R,0.4000X0.1000*%
%ADD11C,0.0055*%
%ADD12C,0.0195*%
%ADD13R,0.0197X0.0591*%
%ADD14R,0.0591X0.0197*%
%ADD15C,0.0039*%
%ADD16C,0.0100*%
%ADD17C,0.0047*%
%ADD18R,0.0315X0.0315*%
%ADD19R,0.0480X0.0880*%
%ADD20R,0.1417X0.0866*%
%ADD21R,0.0551X0.0394*%
%ADD22O,0.1200X0.0600*%
%ADD23O,0.0534X0.1069*%
%ADD24R,0.0394X0.0433*%
%ADD25R,0.0945X0.0630*%
%ADD26R,0.0591X0.0512*%
%ADD27R,0.0512X0.0591*%
%ADD28R,0.0630X0.0945*%
%ADD29C,0.0500*%
%ADD30OC8,0.0416*%
%ADD31C,0.0416*%
%ADD32C,0.0120*%
%ADD33C,0.0357*%
%ADD34C,0.0090*%
%ADD35C,0.0320*%
%ADD36C,0.0160*%
%ADD37C,0.0240*%
%ADD38C,0.0396*%
%ADD39C,0.1000*%
D10*
X003419Y002492D03*
D11*
X017202Y007884D02*
X017258Y007884D01*
X017202Y007884D02*
X017202Y008130D01*
X017258Y008130D01*
X017258Y007884D01*
X017258Y007938D02*
X017202Y007938D01*
X017202Y007992D02*
X017258Y007992D01*
X017258Y008046D02*
X017202Y008046D01*
X017202Y008100D02*
X017258Y008100D01*
X017399Y007884D02*
X017455Y007884D01*
X017399Y007884D02*
X017399Y008130D01*
X017455Y008130D01*
X017455Y007884D01*
X017455Y007938D02*
X017399Y007938D01*
X017399Y007992D02*
X017455Y007992D01*
X017455Y008046D02*
X017399Y008046D01*
X017399Y008100D02*
X017455Y008100D01*
X017596Y007884D02*
X017652Y007884D01*
X017596Y007884D02*
X017596Y008130D01*
X017652Y008130D01*
X017652Y007884D01*
X017652Y007938D02*
X017596Y007938D01*
X017596Y007992D02*
X017652Y007992D01*
X017652Y008046D02*
X017596Y008046D01*
X017596Y008100D02*
X017652Y008100D01*
X017793Y007884D02*
X017849Y007884D01*
X017793Y007884D02*
X017793Y008130D01*
X017849Y008130D01*
X017849Y007884D01*
X017849Y007938D02*
X017793Y007938D01*
X017793Y007992D02*
X017849Y007992D01*
X017849Y008046D02*
X017793Y008046D01*
X017793Y008100D02*
X017849Y008100D01*
X017990Y007884D02*
X018046Y007884D01*
X017990Y007884D02*
X017990Y008130D01*
X018046Y008130D01*
X018046Y007884D01*
X018046Y007938D02*
X017990Y007938D01*
X017990Y007992D02*
X018046Y007992D01*
X018046Y008046D02*
X017990Y008046D01*
X017990Y008100D02*
X018046Y008100D01*
X018186Y007884D02*
X018242Y007884D01*
X018186Y007884D02*
X018186Y008130D01*
X018242Y008130D01*
X018242Y007884D01*
X018242Y007938D02*
X018186Y007938D01*
X018186Y007992D02*
X018242Y007992D01*
X018242Y008046D02*
X018186Y008046D01*
X018186Y008100D02*
X018242Y008100D01*
X018383Y007884D02*
X018439Y007884D01*
X018383Y007884D02*
X018383Y008130D01*
X018439Y008130D01*
X018439Y007884D01*
X018439Y007938D02*
X018383Y007938D01*
X018383Y007992D02*
X018439Y007992D01*
X018439Y008046D02*
X018383Y008046D01*
X018383Y008100D02*
X018439Y008100D01*
X018580Y007884D02*
X018636Y007884D01*
X018580Y007884D02*
X018580Y008130D01*
X018636Y008130D01*
X018636Y007884D01*
X018636Y007938D02*
X018580Y007938D01*
X018580Y007992D02*
X018636Y007992D01*
X018636Y008046D02*
X018580Y008046D01*
X018580Y008100D02*
X018636Y008100D01*
X018780Y008275D02*
X019026Y008275D01*
X018780Y008275D02*
X018780Y008331D01*
X019026Y008331D01*
X019026Y008275D01*
X019026Y008329D02*
X018780Y008329D01*
X018780Y008472D02*
X019026Y008472D01*
X018780Y008472D02*
X018780Y008528D01*
X019026Y008528D01*
X019026Y008472D01*
X019026Y008526D02*
X018780Y008526D01*
X018780Y008668D02*
X019026Y008668D01*
X018780Y008668D02*
X018780Y008724D01*
X019026Y008724D01*
X019026Y008668D01*
X019026Y008722D02*
X018780Y008722D01*
X018780Y008865D02*
X019026Y008865D01*
X018780Y008865D02*
X018780Y008921D01*
X019026Y008921D01*
X019026Y008865D01*
X019026Y008919D02*
X018780Y008919D01*
X018780Y009062D02*
X019026Y009062D01*
X018780Y009062D02*
X018780Y009118D01*
X019026Y009118D01*
X019026Y009062D01*
X019026Y009116D02*
X018780Y009116D01*
X018780Y009259D02*
X019026Y009259D01*
X018780Y009259D02*
X018780Y009315D01*
X019026Y009315D01*
X019026Y009259D01*
X019026Y009313D02*
X018780Y009313D01*
X018780Y009456D02*
X019026Y009456D01*
X018780Y009456D02*
X018780Y009512D01*
X019026Y009512D01*
X019026Y009456D01*
X019026Y009510D02*
X018780Y009510D01*
X018780Y009653D02*
X019026Y009653D01*
X018780Y009653D02*
X018780Y009709D01*
X019026Y009709D01*
X019026Y009653D01*
X019026Y009707D02*
X018780Y009707D01*
X018636Y009853D02*
X018580Y009853D01*
X018580Y010099D01*
X018636Y010099D01*
X018636Y009853D01*
X018636Y009907D02*
X018580Y009907D01*
X018580Y009961D02*
X018636Y009961D01*
X018636Y010015D02*
X018580Y010015D01*
X018580Y010069D02*
X018636Y010069D01*
X018439Y009853D02*
X018383Y009853D01*
X018383Y010099D01*
X018439Y010099D01*
X018439Y009853D01*
X018439Y009907D02*
X018383Y009907D01*
X018383Y009961D02*
X018439Y009961D01*
X018439Y010015D02*
X018383Y010015D01*
X018383Y010069D02*
X018439Y010069D01*
X018242Y009853D02*
X018186Y009853D01*
X018186Y010099D01*
X018242Y010099D01*
X018242Y009853D01*
X018242Y009907D02*
X018186Y009907D01*
X018186Y009961D02*
X018242Y009961D01*
X018242Y010015D02*
X018186Y010015D01*
X018186Y010069D02*
X018242Y010069D01*
X018046Y009853D02*
X017990Y009853D01*
X017990Y010099D01*
X018046Y010099D01*
X018046Y009853D01*
X018046Y009907D02*
X017990Y009907D01*
X017990Y009961D02*
X018046Y009961D01*
X018046Y010015D02*
X017990Y010015D01*
X017990Y010069D02*
X018046Y010069D01*
X017849Y009853D02*
X017793Y009853D01*
X017793Y010099D01*
X017849Y010099D01*
X017849Y009853D01*
X017849Y009907D02*
X017793Y009907D01*
X017793Y009961D02*
X017849Y009961D01*
X017849Y010015D02*
X017793Y010015D01*
X017793Y010069D02*
X017849Y010069D01*
X017652Y009853D02*
X017596Y009853D01*
X017596Y010099D01*
X017652Y010099D01*
X017652Y009853D01*
X017652Y009907D02*
X017596Y009907D01*
X017596Y009961D02*
X017652Y009961D01*
X017652Y010015D02*
X017596Y010015D01*
X017596Y010069D02*
X017652Y010069D01*
X017455Y009853D02*
X017399Y009853D01*
X017399Y010099D01*
X017455Y010099D01*
X017455Y009853D01*
X017455Y009907D02*
X017399Y009907D01*
X017399Y009961D02*
X017455Y009961D01*
X017455Y010015D02*
X017399Y010015D01*
X017399Y010069D02*
X017455Y010069D01*
X017258Y009853D02*
X017202Y009853D01*
X017202Y010099D01*
X017258Y010099D01*
X017258Y009853D01*
X017258Y009907D02*
X017202Y009907D01*
X017202Y009961D02*
X017258Y009961D01*
X017258Y010015D02*
X017202Y010015D01*
X017202Y010069D02*
X017258Y010069D01*
X017058Y009653D02*
X016812Y009653D01*
X016812Y009709D01*
X017058Y009709D01*
X017058Y009653D01*
X017058Y009707D02*
X016812Y009707D01*
X016812Y009456D02*
X017058Y009456D01*
X016812Y009456D02*
X016812Y009512D01*
X017058Y009512D01*
X017058Y009456D01*
X017058Y009510D02*
X016812Y009510D01*
X016812Y009259D02*
X017058Y009259D01*
X016812Y009259D02*
X016812Y009315D01*
X017058Y009315D01*
X017058Y009259D01*
X017058Y009313D02*
X016812Y009313D01*
X016812Y009062D02*
X017058Y009062D01*
X016812Y009062D02*
X016812Y009118D01*
X017058Y009118D01*
X017058Y009062D01*
X017058Y009116D02*
X016812Y009116D01*
X016812Y008865D02*
X017058Y008865D01*
X016812Y008865D02*
X016812Y008921D01*
X017058Y008921D01*
X017058Y008865D01*
X017058Y008919D02*
X016812Y008919D01*
X016812Y008668D02*
X017058Y008668D01*
X016812Y008668D02*
X016812Y008724D01*
X017058Y008724D01*
X017058Y008668D01*
X017058Y008722D02*
X016812Y008722D01*
X016812Y008472D02*
X017058Y008472D01*
X016812Y008472D02*
X016812Y008528D01*
X017058Y008528D01*
X017058Y008472D01*
X017058Y008526D02*
X016812Y008526D01*
X016812Y008275D02*
X017058Y008275D01*
X016812Y008275D02*
X016812Y008331D01*
X017058Y008331D01*
X017058Y008275D01*
X017058Y008329D02*
X016812Y008329D01*
D12*
X017367Y008440D02*
X018471Y008440D01*
X017367Y008440D02*
X017367Y009544D01*
X018471Y009544D01*
X018471Y008440D01*
X018471Y008634D02*
X017367Y008634D01*
X017367Y008828D02*
X018471Y008828D01*
X018471Y009022D02*
X017367Y009022D01*
X017367Y009216D02*
X018471Y009216D01*
X018471Y009410D02*
X017367Y009410D01*
D13*
X011994Y011275D03*
X011679Y011275D03*
X011364Y011275D03*
X011049Y011275D03*
X010734Y011275D03*
X010419Y011275D03*
X010104Y011275D03*
X009789Y011275D03*
X009474Y011275D03*
X009159Y011275D03*
X008844Y011275D03*
X008844Y006708D03*
X009159Y006708D03*
X009474Y006708D03*
X009789Y006708D03*
X010104Y006708D03*
X010419Y006708D03*
X010734Y006708D03*
X011049Y006708D03*
X011364Y006708D03*
X011679Y006708D03*
X011994Y006708D03*
D14*
X012703Y007417D03*
X012703Y007732D03*
X012703Y008047D03*
X012703Y008362D03*
X012703Y008677D03*
X012703Y008992D03*
X012703Y009307D03*
X012703Y009622D03*
X012703Y009937D03*
X012703Y010251D03*
X012703Y010566D03*
X008136Y010566D03*
X008136Y010251D03*
X008136Y009937D03*
X008136Y009622D03*
X008136Y009307D03*
X008136Y008992D03*
X008136Y008677D03*
X008136Y008362D03*
X008136Y008047D03*
X008136Y007732D03*
X008136Y007417D03*
D15*
X008446Y004814D02*
X009392Y004814D01*
X008446Y004814D02*
X008446Y005170D01*
X009392Y005170D01*
X009392Y004814D01*
X009392Y004852D02*
X008446Y004852D01*
X008446Y004890D02*
X009392Y004890D01*
X009392Y004928D02*
X008446Y004928D01*
X008446Y004966D02*
X009392Y004966D01*
X009392Y005004D02*
X008446Y005004D01*
X008446Y005042D02*
X009392Y005042D01*
X009392Y005080D02*
X008446Y005080D01*
X008446Y005118D02*
X009392Y005118D01*
X009392Y005156D02*
X008446Y005156D01*
X008446Y003814D02*
X009392Y003814D01*
X008446Y003814D02*
X008446Y004170D01*
X009392Y004170D01*
X009392Y003814D01*
X009392Y003852D02*
X008446Y003852D01*
X008446Y003890D02*
X009392Y003890D01*
X009392Y003928D02*
X008446Y003928D01*
X008446Y003966D02*
X009392Y003966D01*
X009392Y004004D02*
X008446Y004004D01*
X008446Y004042D02*
X009392Y004042D01*
X009392Y004080D02*
X008446Y004080D01*
X008446Y004118D02*
X009392Y004118D01*
X009392Y004156D02*
X008446Y004156D01*
D16*
X007819Y004042D02*
X005519Y004042D01*
X005519Y004942D01*
X007819Y004942D01*
X007819Y004042D01*
X007819Y004141D02*
X005519Y004141D01*
X005519Y004240D02*
X007819Y004240D01*
X007819Y004339D02*
X005519Y004339D01*
X005519Y004438D02*
X007819Y004438D01*
X007819Y004537D02*
X005519Y004537D01*
X005519Y004636D02*
X007819Y004636D01*
X007819Y004735D02*
X005519Y004735D01*
X005519Y004834D02*
X007819Y004834D01*
X007819Y004933D02*
X005519Y004933D01*
X014926Y008500D02*
X016935Y008500D01*
X016950Y008305D02*
X016733Y008305D01*
X016698Y008303D01*
X016663Y008297D01*
X016630Y008287D01*
X016597Y008274D01*
X016566Y008257D01*
X016538Y008237D01*
X016512Y008213D01*
X016488Y008187D01*
X016468Y008159D01*
X016451Y008128D01*
X016438Y008095D01*
X016428Y008062D01*
X016422Y008027D01*
X016420Y007992D01*
X017230Y008007D02*
X017230Y007053D01*
X016419Y006242D01*
X016419Y005492D01*
X016730Y005181D01*
X017871Y005808D02*
X017919Y005760D01*
X017919Y005742D01*
X017919Y006492D01*
X017427Y006984D01*
X017427Y008007D01*
X017624Y008007D02*
X017624Y008946D01*
X017571Y008893D02*
X016935Y008893D01*
X016935Y008696D02*
X015416Y008696D01*
X015392Y008721D01*
X015394Y008723D01*
X015398Y008723D01*
X015639Y009090D02*
X015621Y009108D01*
X015624Y009110D01*
X015630Y009110D01*
X015639Y009090D02*
X016935Y009090D01*
X016935Y009287D02*
X015934Y009287D01*
X015933Y009286D01*
X015933Y009286D01*
X015939Y009286D01*
X016677Y009484D02*
X016935Y009484D01*
X017411Y009484D01*
X017419Y009492D02*
X017231Y009784D01*
X017230Y009931D01*
X017427Y009976D02*
X017427Y010492D01*
X017419Y010492D01*
X017625Y010465D02*
X017625Y010948D01*
X017669Y010992D01*
X017820Y010841D01*
X017820Y010466D01*
X017821Y009976D01*
X018018Y009976D02*
X018018Y009090D01*
X018214Y009287D02*
X018903Y009287D01*
X018903Y009484D02*
X018411Y009484D01*
X019268Y009090D02*
X019307Y009092D01*
X019346Y009098D01*
X019385Y009107D01*
X019422Y009121D01*
X019458Y009137D01*
X019491Y009158D01*
X019523Y009181D01*
X019552Y009208D01*
X019579Y009237D01*
X019602Y009269D01*
X019623Y009302D01*
X019639Y009338D01*
X019653Y009375D01*
X019662Y009414D01*
X019668Y009453D01*
X019670Y009492D01*
X019268Y009090D02*
X018903Y009090D01*
X018903Y008893D02*
X019268Y008893D01*
X018903Y008696D02*
X018214Y008696D01*
X018214Y008007D01*
X018018Y008007D02*
X018018Y007643D01*
X018419Y007242D01*
X019169Y007242D01*
X019419Y006992D01*
X019334Y006992D01*
X017861Y007153D02*
X017840Y007174D01*
X017821Y007193D01*
X017821Y008007D01*
X017919Y008742D02*
X017970Y008740D01*
X018022Y008734D01*
X018072Y008725D01*
X018122Y008711D01*
X018171Y008694D01*
X018218Y008674D01*
X018264Y008650D01*
X018307Y008622D01*
X018349Y008592D01*
X018388Y008558D01*
X018424Y008522D01*
X018458Y008483D01*
X018488Y008441D01*
X018516Y008398D01*
X018540Y008352D01*
X018560Y008305D01*
X018577Y008256D01*
X018591Y008206D01*
X018600Y008156D01*
X018606Y008104D01*
X018608Y008053D01*
X018411Y008007D02*
X018411Y008500D01*
X019268Y008894D02*
X019307Y008892D01*
X019346Y008886D01*
X019385Y008877D01*
X019422Y008863D01*
X019458Y008847D01*
X019491Y008826D01*
X019523Y008803D01*
X019552Y008776D01*
X019579Y008747D01*
X019602Y008715D01*
X019623Y008682D01*
X019639Y008646D01*
X019653Y008609D01*
X019662Y008570D01*
X019668Y008531D01*
X019670Y008492D01*
X018874Y007741D02*
X018842Y007743D01*
X018810Y007749D01*
X018780Y007758D01*
X018750Y007771D01*
X018723Y007788D01*
X018698Y007808D01*
X018675Y007831D01*
X018655Y007856D01*
X018638Y007883D01*
X018625Y007913D01*
X018616Y007943D01*
X018610Y007975D01*
X018608Y008007D01*
X017840Y007174D02*
X017830Y007174D01*
X017624Y009976D02*
X017625Y010465D01*
X018211Y010283D02*
X018211Y009974D01*
X018903Y009681D02*
X018938Y009683D01*
X018972Y009689D01*
X019006Y009699D01*
X019038Y009712D01*
X019069Y009729D01*
X019098Y009749D01*
X019124Y009772D01*
X019147Y009798D01*
X019167Y009827D01*
X019184Y009858D01*
X019197Y009890D01*
X019207Y009924D01*
X019213Y009958D01*
X019215Y009993D01*
X016677Y009484D02*
X016633Y009486D01*
X016589Y009492D01*
X016546Y009501D01*
X016503Y009515D01*
X016462Y009532D01*
X016423Y009552D01*
X016386Y009576D01*
X016350Y009603D01*
X016318Y009633D01*
X016288Y009665D01*
X016261Y009701D01*
X016237Y009738D01*
X016217Y009777D01*
X016200Y009818D01*
X016186Y009861D01*
X016177Y009904D01*
X016171Y009948D01*
X016169Y009992D01*
X017669Y010992D02*
X017919Y011242D01*
X018419Y011242D01*
X007419Y013742D02*
X007419Y013892D01*
D17*
X016695Y005594D02*
X017239Y005594D01*
X016695Y005594D02*
X016695Y006020D01*
X017239Y006020D01*
X017239Y005594D01*
X017239Y005640D02*
X016695Y005640D01*
X016695Y005686D02*
X017239Y005686D01*
X017239Y005732D02*
X016695Y005732D01*
X016695Y005778D02*
X017239Y005778D01*
X017239Y005824D02*
X016695Y005824D01*
X016695Y005870D02*
X017239Y005870D01*
X017239Y005916D02*
X016695Y005916D01*
X016695Y005962D02*
X017239Y005962D01*
X017239Y006008D02*
X016695Y006008D01*
X017599Y005595D02*
X018143Y005595D01*
X017599Y005595D02*
X017599Y006021D01*
X018143Y006021D01*
X018143Y005595D01*
X018143Y005641D02*
X017599Y005641D01*
X017599Y005687D02*
X018143Y005687D01*
X018143Y005733D02*
X017599Y005733D01*
X017599Y005779D02*
X018143Y005779D01*
X018143Y005825D02*
X017599Y005825D01*
X017599Y005871D02*
X018143Y005871D01*
X018143Y005917D02*
X017599Y005917D01*
X017599Y005963D02*
X018143Y005963D01*
X018143Y006009D02*
X017599Y006009D01*
X017599Y004964D02*
X018143Y004964D01*
X017599Y004964D02*
X017599Y005390D01*
X018143Y005390D01*
X018143Y004964D01*
X018143Y005010D02*
X017599Y005010D01*
X017599Y005056D02*
X018143Y005056D01*
X018143Y005102D02*
X017599Y005102D01*
X017599Y005148D02*
X018143Y005148D01*
X018143Y005194D02*
X017599Y005194D01*
X017599Y005240D02*
X018143Y005240D01*
X018143Y005286D02*
X017599Y005286D01*
X017599Y005332D02*
X018143Y005332D01*
X018143Y005378D02*
X017599Y005378D01*
X017239Y004968D02*
X016695Y004968D01*
X016695Y005394D01*
X017239Y005394D01*
X017239Y004968D01*
X017239Y005014D02*
X016695Y005014D01*
X016695Y005060D02*
X017239Y005060D01*
X017239Y005106D02*
X016695Y005106D01*
X016695Y005152D02*
X017239Y005152D01*
X017239Y005198D02*
X016695Y005198D01*
X016695Y005244D02*
X017239Y005244D01*
X017239Y005290D02*
X016695Y005290D01*
X016695Y005336D02*
X017239Y005336D01*
X017239Y005382D02*
X016695Y005382D01*
D18*
X005464Y010242D03*
X004874Y010242D03*
X004874Y010992D03*
X005464Y010992D03*
D19*
X004079Y004962D03*
X003169Y004962D03*
X002259Y004962D03*
D20*
X003169Y002522D03*
D21*
X005852Y012018D03*
X004986Y012392D03*
X005852Y012766D03*
X006336Y013468D03*
X007202Y013842D03*
X006336Y014216D03*
D22*
X003169Y014242D03*
X003169Y013242D03*
X003169Y012242D03*
X003169Y010992D03*
X003169Y009992D03*
X003169Y008992D03*
X003169Y007992D03*
X003169Y006992D03*
X003169Y005992D03*
D23*
X008919Y002492D03*
X009919Y002492D03*
X010919Y002492D03*
X011919Y002492D03*
X012919Y002492D03*
X013919Y002492D03*
X014919Y002492D03*
X015919Y002492D03*
X016919Y002492D03*
X017919Y002492D03*
X017669Y014242D03*
X016669Y014242D03*
X015669Y014242D03*
X014669Y014242D03*
X013669Y014242D03*
X012669Y014242D03*
X011669Y014242D03*
X010669Y014242D03*
X009669Y014242D03*
X008669Y014242D03*
D24*
X006754Y010992D03*
X006084Y010992D03*
X006084Y010242D03*
X006754Y010242D03*
X010199Y004097D03*
X010868Y004097D03*
D25*
X001919Y008901D03*
X001919Y010082D03*
D26*
X004419Y008576D03*
X004419Y007907D03*
X006419Y003076D03*
X006419Y002407D03*
X007669Y002407D03*
X007669Y003076D03*
D27*
X010182Y004986D03*
X010852Y004986D03*
X011705Y004997D03*
X012374Y004997D03*
X019334Y004992D03*
X020004Y004992D03*
X020004Y005992D03*
X019334Y005992D03*
X019334Y006992D03*
X020004Y006992D03*
X019834Y008492D03*
X020504Y008492D03*
X020504Y009492D03*
X019834Y009492D03*
X019004Y011242D03*
X018334Y011242D03*
X018334Y012242D03*
X019004Y012242D03*
X010963Y012457D03*
X010294Y012457D03*
X009463Y013015D03*
X008794Y013015D03*
X008004Y012242D03*
X007334Y012242D03*
X005304Y014242D03*
X004634Y014242D03*
X005084Y009492D03*
X005754Y009492D03*
X019334Y003992D03*
X020004Y003992D03*
D28*
X017010Y011742D03*
X015829Y011742D03*
D29*
X020419Y010242D03*
X020419Y007742D03*
D30*
X006969Y007392D03*
D31*
X006469Y007392D03*
X006469Y006892D03*
X006969Y006892D03*
X006969Y006392D03*
X006469Y006392D03*
X006469Y005892D03*
X006969Y005892D03*
D32*
X008169Y004492D02*
X008919Y004992D01*
X009419Y004992D01*
X009474Y006708D01*
X009789Y006708D02*
X009686Y003994D01*
X008919Y003992D01*
X008419Y003242D01*
X007669Y003076D01*
X008919Y002992D02*
X008919Y002492D01*
X009919Y002492D02*
X009919Y002992D01*
X012919Y004492D01*
X012919Y005742D01*
X012419Y005742D01*
X012419Y005742D01*
X012256Y005742D01*
X012419Y005742D02*
X011169Y005741D01*
X011169Y005742D01*
X011049Y005742D01*
X011049Y006708D01*
X010734Y006708D02*
X010734Y005721D01*
X010919Y005492D01*
X012169Y005492D01*
X012374Y004997D01*
X011705Y004997D02*
X011669Y004992D01*
X010852Y004986D01*
X010852Y004059D01*
X010868Y004043D01*
X010868Y004097D01*
X010868Y004043D02*
X010919Y003992D01*
X010199Y004097D02*
X010169Y004068D01*
X010169Y003742D01*
X008919Y002992D01*
X008169Y003892D02*
X007919Y003742D01*
X006419Y003492D01*
X006369Y003492D01*
X006369Y003076D01*
X006419Y003076D01*
X008169Y003892D02*
X008169Y004492D01*
X010101Y005060D02*
X010175Y004986D01*
X010182Y004986D01*
X010101Y005060D02*
X010101Y005985D01*
X010104Y006708D01*
X010087Y007481D01*
X009169Y007742D01*
X008136Y008047D02*
X005420Y008046D01*
X004419Y008742D01*
X004419Y008992D01*
X004419Y008742D02*
X004419Y008576D01*
X005169Y008742D02*
X005169Y009492D01*
X005084Y009492D01*
X003419Y009992D02*
X003169Y009992D01*
X004874Y010992D02*
X004877Y011033D01*
X006754Y010992D02*
X007419Y010992D01*
X007669Y011242D01*
X008812Y011242D01*
X008844Y011274D01*
X008844Y011275D01*
X009159Y011275D02*
X009155Y011860D01*
X009155Y012006D01*
X008919Y012242D01*
X008004Y012242D01*
X007334Y012242D02*
X007169Y012242D01*
X006945Y012018D01*
X005852Y012018D01*
X007202Y013842D02*
X008052Y012992D01*
X008669Y012992D01*
X008794Y013015D01*
X008669Y012992D02*
X008669Y012742D01*
X009169Y012492D01*
X009468Y012232D01*
X009474Y011275D01*
X009789Y011275D02*
X009793Y011843D01*
X010419Y012242D02*
X010419Y011275D01*
X010419Y010492D01*
X010310Y010318D01*
X011169Y009992D02*
X011050Y011226D01*
X011049Y011275D01*
X010734Y011275D02*
X010734Y012307D01*
X010919Y012492D01*
X010954Y012457D01*
X010963Y012457D01*
X010963Y012948D01*
X010919Y012992D01*
X009669Y012992D01*
X009692Y013015D01*
X009463Y013015D01*
X010294Y012457D02*
X010419Y012242D01*
X011366Y011974D02*
X011919Y012742D01*
X011919Y012242D02*
X013919Y012242D01*
X014635Y012240D01*
X015630Y009110D01*
X015636Y009091D01*
X015939Y009286D02*
X015007Y012056D01*
X014762Y012725D01*
X014669Y012729D01*
X014669Y012742D01*
X011919Y012242D02*
X011680Y011989D01*
X011679Y011275D01*
X011994Y011275D02*
X011976Y011751D01*
X014417Y011751D01*
X014419Y011742D01*
X014417Y011751D02*
X015398Y008723D01*
X015408Y008694D01*
X014926Y008500D02*
X014002Y009307D01*
X013748Y009306D01*
X012703Y009307D01*
X012703Y009622D02*
X014176Y009621D01*
X013923Y009930D02*
X014461Y010090D01*
X014669Y009492D01*
X014669Y009242D01*
X013923Y009930D02*
X012703Y009937D01*
X012703Y010251D02*
X013929Y010251D01*
X014169Y010492D01*
X016919Y010492D02*
X017419Y010492D01*
X017419Y011492D01*
X018169Y012242D01*
X018334Y012242D01*
X019004Y012242D02*
X019669Y012242D01*
X019669Y011742D01*
X019669Y011242D01*
X019004Y011242D01*
X018419Y011242D02*
X018334Y011242D01*
X019205Y010529D02*
X019205Y010528D01*
X019206Y010526D01*
X019208Y010526D01*
X019216Y010526D01*
X019216Y009993D01*
X019669Y009492D02*
X019834Y009492D01*
X018411Y009484D02*
X017669Y009242D01*
X018177Y009484D01*
X018173Y009485D01*
X018170Y009488D01*
X018169Y009492D01*
X018214Y009287D02*
X017669Y009242D01*
X017544Y009367D01*
X017419Y009492D01*
X017411Y009484D01*
X017544Y009367D02*
X017546Y009389D01*
X017552Y009410D01*
X017561Y009430D01*
X017573Y009447D01*
X017589Y009463D01*
X017607Y009475D01*
X017626Y009484D01*
X017647Y009490D01*
X017669Y009492D01*
X017669Y009242D02*
X017919Y009242D01*
X017919Y008992D01*
X017919Y008742D01*
X017919Y008992D02*
X018169Y008742D01*
X018411Y008500D01*
X018214Y008696D02*
X018169Y008742D01*
X017919Y008992D02*
X017669Y008992D01*
X017624Y008946D01*
X017669Y008992D02*
X017571Y008893D01*
X017919Y008992D02*
X018018Y009090D01*
X017919Y008992D02*
X017669Y009242D01*
X019669Y008492D02*
X019834Y008492D01*
X019419Y007742D02*
X018874Y007742D01*
X017841Y007173D02*
X019334Y005992D01*
X019919Y005992D02*
X019919Y006907D01*
X020004Y006992D01*
X017841Y007173D02*
X017830Y007174D01*
X017829Y007157D01*
X014919Y006992D02*
X014919Y004742D01*
X017919Y002992D01*
X017919Y002492D01*
X016919Y002492D02*
X016919Y002992D01*
X014669Y004492D01*
X014669Y007887D01*
X014216Y008321D01*
X014216Y008321D01*
X014176Y008360D01*
X014176Y008362D02*
X014216Y008321D01*
X014176Y008362D02*
X012703Y008362D01*
X012703Y008047D02*
X014090Y008050D01*
X014419Y007742D01*
X014419Y004242D01*
X015919Y002992D01*
X015919Y002492D01*
X014919Y002492D02*
X014919Y002992D01*
X014169Y003992D01*
X014169Y007492D01*
X013931Y007733D01*
X012703Y007732D01*
X012703Y007417D02*
X013744Y007417D01*
X013919Y007242D01*
X013919Y002492D01*
X012919Y002492D02*
X012919Y002992D01*
X013669Y003992D01*
X013669Y006742D01*
X012169Y006742D01*
X012008Y006716D01*
X011994Y006708D01*
X011679Y006708D02*
X011679Y006242D01*
X013419Y006242D01*
X013419Y004130D01*
X013420Y004129D01*
X013409Y004118D01*
X013409Y004101D01*
X013408Y004101D01*
X013409Y004101D02*
X011919Y002992D01*
X011919Y002492D01*
X010919Y002492D02*
X010919Y002992D01*
X013169Y004242D01*
X013169Y005992D01*
X012419Y005992D01*
X011367Y005994D01*
X011364Y006708D01*
X010419Y006708D02*
X010419Y005655D01*
X010919Y004992D01*
X010914Y004986D01*
X010852Y004986D01*
X011054Y005741D02*
X011169Y005741D01*
X010419Y006708D02*
X010419Y007492D01*
X010669Y007742D01*
X009169Y008492D02*
X009052Y008676D01*
X008136Y008677D01*
X008136Y008362D02*
X005549Y008362D01*
X005169Y008742D01*
X008136Y009307D02*
X008927Y009298D01*
X010161Y009474D01*
X009669Y009742D02*
X008909Y009627D01*
X008136Y009622D01*
X008136Y009937D02*
X009114Y009937D01*
X009169Y009992D01*
X008679Y010251D02*
X008919Y010492D01*
X008136Y010566D02*
X007494Y010566D01*
X007169Y010242D01*
X006754Y010242D01*
X006669Y010242D01*
X006754Y010242D02*
X006919Y010242D01*
X008136Y010251D02*
X008679Y010251D01*
X010721Y011269D02*
X010734Y011275D01*
X011364Y011275D02*
X011366Y011974D01*
X007419Y013892D02*
X007269Y013742D01*
X007169Y013742D01*
X007169Y013809D01*
X007202Y013842D01*
X016669Y010242D02*
X016671Y010272D01*
X016676Y010302D01*
X016685Y010331D01*
X016698Y010358D01*
X016713Y010384D01*
X016732Y010408D01*
X016753Y010429D01*
X016777Y010448D01*
X016803Y010463D01*
X016830Y010476D01*
X016859Y010485D01*
X016889Y010490D01*
X016919Y010492D01*
X012703Y008992D02*
X011919Y008992D01*
X011669Y009242D01*
X010724Y008992D02*
X010669Y008992D01*
X017871Y005808D02*
X017919Y005742D01*
X018419Y005742D01*
X019334Y004992D01*
X019919Y004992D02*
X019919Y005992D01*
X020004Y005992D01*
X020004Y004992D02*
X019919Y004992D01*
X019919Y004076D01*
X020004Y003992D01*
X019919Y003907D01*
X019784Y003418D01*
X019334Y003992D02*
X017169Y004742D01*
X017169Y004992D01*
X016967Y005194D01*
X016967Y005181D01*
X016730Y005181D01*
X016919Y005242D02*
X016967Y005194D01*
D33*
X015169Y006992D03*
X016419Y007992D03*
X017830Y007174D03*
X019419Y007742D03*
X014669Y009242D03*
X014176Y009621D03*
X014169Y010492D03*
X013419Y010992D03*
X014419Y011742D03*
X013919Y012242D03*
X018419Y010492D03*
X019205Y010529D03*
X016669Y010242D03*
X016169Y009992D03*
X019669Y011742D03*
X011669Y009242D03*
X010161Y009474D03*
X009669Y009742D03*
X009169Y009992D03*
X010310Y010318D03*
X011169Y009992D03*
X008919Y010492D03*
X006169Y008992D03*
X009169Y008492D03*
X010669Y008242D03*
X010669Y007742D03*
X009169Y007742D03*
X004919Y003492D03*
X001550Y003541D03*
X019784Y003418D03*
D34*
X018608Y008007D02*
X018608Y008053D01*
X016950Y008305D02*
X016935Y008303D01*
X017230Y009931D02*
X017230Y009976D01*
X018211Y009974D02*
X018214Y009976D01*
X018211Y010283D02*
X018213Y010310D01*
X018218Y010337D01*
X018227Y010363D01*
X018239Y010387D01*
X018254Y010410D01*
X018272Y010430D01*
X018292Y010448D01*
X018315Y010463D01*
X018339Y010475D01*
X018365Y010484D01*
X018392Y010489D01*
X018419Y010491D01*
D35*
X001550Y003541D02*
X001919Y002242D01*
X003169Y002522D02*
X003669Y002242D01*
X003669Y002492D01*
X003669Y002242D02*
X004919Y002242D01*
X004919Y003492D01*
X006419Y002407D02*
X006419Y002242D01*
X007669Y002242D01*
X007669Y002407D01*
X006419Y002242D02*
X004919Y002242D01*
X003669Y002242D02*
X003419Y002242D01*
X004169Y004742D02*
X004169Y006992D01*
X003169Y006992D01*
X003169Y007992D02*
X001919Y007992D01*
X001919Y008901D01*
X001919Y007992D02*
X001919Y005242D01*
X002259Y004962D01*
X003169Y004962D02*
X003169Y005992D01*
X001919Y010082D02*
X001919Y010992D01*
X003169Y010992D01*
D36*
X004869Y010992D01*
X004869Y010242D01*
X004874Y010242D01*
X005464Y010242D02*
X006084Y010242D01*
X006169Y010242D01*
X005754Y009492D02*
X006169Y008992D01*
X008136Y008992D01*
X010669Y008992D01*
X010669Y008242D01*
X010725Y008694D02*
X010724Y008992D01*
X010721Y011269D01*
X012703Y010566D02*
X013419Y010566D01*
X013419Y010742D01*
X013419Y010992D01*
X015829Y011742D02*
X016169Y009992D01*
X017010Y011742D02*
X017419Y011492D01*
X020419Y010242D02*
X020419Y009492D01*
X020504Y009492D01*
X020504Y008492D02*
X020419Y008492D01*
X020419Y007742D01*
X015169Y006992D02*
X014919Y006992D01*
X014919Y007992D01*
X014182Y008677D01*
X012703Y008677D01*
X010725Y008694D01*
X008136Y007732D02*
X006969Y007732D01*
X006969Y007392D01*
X007469Y006892D02*
X007994Y007417D01*
X008136Y007417D01*
X007469Y006892D02*
X006969Y006892D01*
X006969Y006392D02*
X008844Y006392D01*
X008844Y006708D01*
X008861Y006692D01*
X008869Y006692D01*
X009159Y006708D02*
X009159Y005892D01*
X006969Y005892D01*
X009159Y006708D02*
X009169Y006698D01*
X004651Y007662D02*
X004669Y007742D01*
X004419Y007907D01*
X004419Y008992D02*
X003169Y008992D01*
X003169Y009992D02*
X005084Y009492D01*
X004874Y010992D02*
X004869Y010992D01*
X005464Y010992D02*
X006084Y010992D01*
X004986Y012192D02*
X003169Y012192D01*
X003169Y012242D01*
X004986Y012192D02*
X004986Y012392D01*
X005852Y012766D02*
X005852Y013192D01*
X005969Y013192D01*
X006336Y013192D01*
X006336Y013468D01*
X005969Y013192D02*
X003169Y013192D01*
X003169Y013242D01*
X005304Y014192D02*
X006336Y014192D01*
X006336Y014216D01*
X006336Y014192D02*
X006369Y014192D01*
X005304Y014192D02*
X005304Y014242D01*
X004669Y014292D02*
X004634Y014292D01*
X003169Y014292D01*
X003169Y014242D01*
X004634Y014292D02*
X004634Y014242D01*
X011919Y012742D02*
X014669Y012742D01*
X017169Y012742D01*
X017669Y014242D01*
D37*
X004651Y007662D02*
X003169Y007992D01*
X004651Y007662D02*
X005419Y007492D01*
X004079Y004962D02*
X004169Y004742D01*
D38*
X005419Y007492D03*
D39*
X019919Y002492D03*
X019919Y014492D03*
M02*
