%
M48
M72
T01C0.0197
T02C0.0236
T03C0.0354
T04C0.0400
%
T01
X1550Y3541
X4919Y3492
X15169Y6992
X16419Y7992
X17830Y7174
X19419Y7742
X20419Y7742
X14669Y9242
X14176Y9621
X14169Y10492
X13419Y10992
X14419Y11742
X13919Y12242
X18419Y10492
X19205Y10529
X20419Y10242
X16669Y10242
X16169Y9992
X19669Y11742
X11669Y9242
X10161Y9474
X9669Y9742
X9169Y9992
X10310Y10318
X11169Y9992
X8919Y10492
X6169Y8992
X9169Y8492
X10669Y8242
X10669Y7742
X9169Y7742
X19784Y3418
T02
X6969Y5892
X6469Y5892
X6469Y6392
X6969Y6392
X6969Y6892
X6469Y6892
X6469Y7392
X6969Y7392
X5419Y7492
T03
X8919Y2492
X9919Y2492
X10919Y2492
X11919Y2492
X12919Y2492
X13919Y2492
X14919Y2492
X15919Y2492
X16919Y2492
X17919Y2492
X19919Y2492
X17669Y14242
X16669Y14242
X15669Y14242
X14669Y14242
X13669Y14242
X12669Y14242
X11669Y14242
X10669Y14242
X9669Y14242
X8669Y14242
X19919Y14492
T04
X3169Y14242
X3169Y13242
X3169Y12242
X3169Y10992
X3169Y9992
X3169Y8992
X3169Y7992
X3169Y6992
X3169Y5992
M30
