G75*
G70*
%OFA0B0*%
%FSLAX24Y24*%
%IPPOS*%
%LPD*%
%AMOC8*
5,1,8,0,0,1.08239X$1,22.5*
%
%ADD10C,0.0000*%
%ADD11C,0.0040*%
%ADD12C,0.0060*%
%ADD13C,0.0070*%
%ADD14C,0.0039*%
%ADD15C,0.0020*%
%ADD16C,0.0118*%
%ADD17R,0.0118X0.0118*%
%ADD18C,0.0100*%
%ADD19R,0.0157X0.0453*%
%ADD20C,0.0080*%
%ADD21R,0.0157X0.0453*%
%ADD22R,0.0158X0.0453*%
%ADD23R,0.0453X0.0157*%
%ADD24R,0.0453X0.0157*%
%ADD25R,0.0453X0.0158*%
%ADD26C,0.0050*%
%ADD27C,0.0010*%
%ADD28C,0.0001*%
%ADD29R,0.0059X0.0079*%
%ADD30R,0.0020X0.0020*%
%ADD31R,0.0148X0.0020*%
%ADD32R,0.0118X0.0079*%
%ADD33R,0.0089X0.0354*%
%ADD34R,0.0197X0.0079*%
%ADD35R,0.0089X0.0217*%
%ADD36R,0.0039X0.0039*%
%ADD37R,0.0098X0.0098*%
%ADD38R,0.1260X0.0730*%
%ADD39R,0.0340X0.0730*%
%ADD40R,0.0230X0.0180*%
%ADD41R,0.0200X0.0200*%
%ADD42R,0.0100X0.0200*%
%ADD43R,0.0160X0.0340*%
%ADD44R,0.0866X0.0079*%
%ADD45R,0.1063X0.0256*%
%ADD46C,0.0030*%
%ADD47R,0.0571X0.0295*%
%ADD48R,0.0295X0.0571*%
%ADD49R,0.0079X0.0866*%
%ADD50R,0.0256X0.1063*%
%ADD51R,0.0256X0.0551*%
%ADD52R,0.0551X0.0256*%
D10*
X001169Y001242D02*
X001169Y015492D01*
X021169Y015492D01*
X021169Y001242D01*
X001169Y001242D01*
D11*
X002285Y002442D02*
X002285Y002722D01*
X002144Y002582D01*
X002331Y002582D01*
X002961Y003242D02*
X003115Y003242D01*
X003038Y003242D02*
X003038Y003702D01*
X002961Y003702D02*
X003115Y003702D01*
X003115Y003782D02*
X003115Y004242D01*
X002961Y004089D01*
X002808Y004242D01*
X002808Y003782D01*
X002654Y003858D02*
X002578Y003782D01*
X002424Y003782D01*
X002348Y003858D01*
X002348Y003935D01*
X002424Y004012D01*
X002578Y004012D01*
X002654Y003935D01*
X002654Y003858D01*
X002578Y004012D02*
X002654Y004089D01*
X002654Y004165D01*
X002578Y004242D01*
X002424Y004242D01*
X002348Y004165D01*
X002348Y004089D01*
X002424Y004012D01*
X002194Y004165D02*
X001887Y003858D01*
X001887Y003782D01*
X001887Y004242D02*
X002194Y004242D01*
X002194Y004165D01*
X003268Y004165D02*
X003345Y004242D01*
X003498Y004242D01*
X003575Y004165D01*
X003575Y004089D01*
X003498Y004012D01*
X003575Y003935D01*
X003575Y003858D01*
X003498Y003782D01*
X003345Y003782D01*
X003268Y003858D01*
X003345Y003702D02*
X003268Y003625D01*
X003268Y003318D01*
X003345Y003242D01*
X003499Y003242D01*
X003575Y003318D01*
X003729Y003242D02*
X004036Y003242D01*
X003882Y003242D02*
X003882Y003702D01*
X003729Y003549D01*
X003575Y003625D02*
X003499Y003702D01*
X003345Y003702D01*
X003729Y003858D02*
X003805Y003782D01*
X003959Y003782D01*
X004036Y003858D01*
X004036Y003935D01*
X003959Y004012D01*
X003882Y004012D01*
X003959Y004012D02*
X004036Y004089D01*
X004036Y004165D01*
X003959Y004242D01*
X003805Y004242D01*
X003729Y004165D01*
X003498Y004012D02*
X003422Y004012D01*
X003403Y005145D02*
X003589Y005332D01*
X003589Y005379D01*
X003543Y005426D01*
X003449Y005426D01*
X003403Y005379D01*
X004254Y005328D02*
X004347Y005422D01*
X004347Y005142D01*
X004254Y005142D02*
X004441Y005142D01*
X003589Y005145D02*
X003403Y005145D01*
X002679Y005188D02*
X002633Y005142D01*
X002539Y005142D01*
X002493Y005188D01*
X002586Y005282D02*
X002633Y005282D01*
X002679Y005235D01*
X002679Y005188D01*
X002633Y005282D02*
X002679Y005328D01*
X002679Y005375D01*
X002633Y005422D01*
X002539Y005422D01*
X002493Y005375D01*
X005792Y002881D02*
X005869Y002958D01*
X006022Y002958D01*
X006099Y002881D01*
X006099Y002651D01*
X006159Y002592D02*
X006159Y002882D01*
X006253Y002651D02*
X005792Y002651D01*
X005792Y002881D01*
X005949Y002708D02*
X005949Y002401D01*
X005869Y002498D02*
X005869Y002191D01*
X005639Y002421D01*
X006099Y002421D01*
X005949Y002555D02*
X005489Y002555D01*
X005642Y002401D01*
X005566Y002248D02*
X005489Y002171D01*
X005489Y002018D01*
X005566Y001941D01*
X005872Y001941D01*
X005949Y002018D01*
X005949Y002171D01*
X005872Y002248D01*
X006739Y002171D02*
X006739Y002018D01*
X006816Y001941D01*
X007122Y001941D01*
X007199Y002018D01*
X007199Y002171D01*
X007122Y002248D01*
X007119Y002191D02*
X007119Y002498D01*
X007199Y002631D02*
X006739Y002631D01*
X006969Y002401D01*
X006969Y002708D01*
X007042Y002651D02*
X007042Y002881D01*
X007119Y002958D01*
X007272Y002958D01*
X007349Y002881D01*
X007349Y002651D01*
X007409Y002592D02*
X007409Y002882D01*
X007503Y002651D02*
X007042Y002651D01*
X006889Y002421D02*
X007119Y002191D01*
X006816Y002248D02*
X006739Y002171D01*
X006889Y002421D02*
X007349Y002421D01*
X007929Y002592D02*
X007929Y002892D01*
X006679Y002892D02*
X006679Y002592D01*
X010187Y004106D02*
X010494Y004106D01*
X010340Y004106D02*
X010340Y004567D01*
X010187Y004413D01*
X010443Y004494D02*
X010750Y004801D01*
X010750Y004494D01*
X010673Y004417D01*
X010520Y004417D01*
X010443Y004494D01*
X010443Y004801D01*
X010520Y004878D01*
X010673Y004878D01*
X010750Y004801D01*
X010667Y004726D02*
X010377Y004726D01*
X010647Y004413D02*
X010647Y004183D01*
X010724Y004106D01*
X010954Y004106D01*
X010954Y004413D01*
X011108Y004336D02*
X011261Y004336D01*
X011488Y004194D02*
X011565Y004117D01*
X011719Y004117D01*
X011795Y004194D01*
X011949Y004194D02*
X011949Y004117D01*
X011949Y004194D02*
X012256Y004501D01*
X012256Y004578D01*
X011949Y004578D01*
X011889Y004738D02*
X012189Y004738D01*
X011795Y004501D02*
X011719Y004578D01*
X011565Y004578D01*
X011488Y004501D01*
X011488Y004194D01*
X011108Y004106D02*
X011108Y004567D01*
X011415Y004567D01*
X011889Y005257D02*
X012179Y005257D01*
X011949Y005417D02*
X011949Y005878D01*
X012256Y005878D01*
X011795Y005724D02*
X011795Y005417D01*
X011565Y005417D01*
X011488Y005494D01*
X011488Y005724D01*
X011181Y005878D02*
X011181Y005417D01*
X011028Y005417D02*
X011335Y005417D01*
X010954Y005483D02*
X010954Y005560D01*
X010877Y005636D01*
X010647Y005636D01*
X010647Y005483D01*
X010724Y005406D01*
X010877Y005406D01*
X010954Y005483D01*
X010801Y005790D02*
X010647Y005636D01*
X010494Y005483D02*
X010417Y005406D01*
X010264Y005406D01*
X010187Y005483D01*
X010187Y005790D01*
X010264Y005867D01*
X010417Y005867D01*
X010494Y005790D01*
X010801Y005790D02*
X010954Y005867D01*
X011028Y005724D02*
X011181Y005878D01*
X011949Y005648D02*
X012102Y005648D01*
X010667Y005246D02*
X010367Y005246D01*
X009702Y005294D02*
X009395Y005294D01*
X009242Y005140D01*
X009395Y004987D01*
X009702Y004987D01*
X009472Y004987D02*
X009472Y005294D01*
X009242Y005447D02*
X009242Y005754D01*
X009242Y005601D02*
X009702Y005601D01*
X009702Y005908D02*
X009242Y005908D01*
X009395Y006061D01*
X009242Y006215D01*
X009702Y006215D01*
X009702Y006368D02*
X009242Y006368D01*
X009242Y006675D01*
X009319Y006828D02*
X009626Y006828D01*
X009702Y006905D01*
X009702Y007059D01*
X009626Y007135D01*
X009472Y007135D01*
X009472Y006982D01*
X009319Y007135D02*
X009242Y007059D01*
X009242Y006905D01*
X009319Y006828D01*
X009472Y006521D02*
X009472Y006368D01*
X009702Y006368D02*
X009702Y006675D01*
X009702Y007289D02*
X009395Y007289D01*
X009242Y007442D01*
X009395Y007596D01*
X009702Y007596D01*
X009702Y007749D02*
X009242Y008056D01*
X009242Y008209D02*
X009702Y008516D01*
X009472Y008670D02*
X009472Y008977D01*
X009549Y009130D02*
X009549Y009360D01*
X009472Y009437D01*
X009319Y009437D01*
X009242Y009360D01*
X009242Y009130D01*
X009702Y009130D01*
X009702Y008900D02*
X009242Y008900D01*
X009472Y008670D01*
X009242Y008516D02*
X009702Y008209D01*
X009702Y008056D02*
X009242Y007749D01*
X009472Y007596D02*
X009472Y007289D01*
X011189Y007381D02*
X011572Y007381D01*
X011649Y007457D01*
X011649Y007611D01*
X011572Y007687D01*
X011189Y007687D01*
X011266Y007841D02*
X011189Y007918D01*
X011189Y008071D01*
X011266Y008148D01*
X011342Y008301D02*
X011189Y008455D01*
X011649Y008455D01*
X011649Y008608D02*
X011649Y008301D01*
X011572Y008148D02*
X011496Y008148D01*
X011419Y008071D01*
X011419Y007918D01*
X011342Y007841D01*
X011266Y007841D01*
X011112Y007994D02*
X011726Y007994D01*
X011649Y007918D02*
X011649Y008071D01*
X011572Y008148D01*
X011649Y007918D02*
X011572Y007841D01*
X009702Y009591D02*
X009395Y009591D01*
X009242Y009744D01*
X009395Y009897D01*
X009702Y009897D01*
X009626Y010051D02*
X009242Y010051D01*
X009472Y009897D02*
X009472Y009591D01*
X009626Y010051D02*
X009702Y010128D01*
X009702Y010281D01*
X009626Y010358D01*
X009242Y010358D01*
X007606Y009995D02*
X007606Y009919D01*
X007299Y009612D01*
X007606Y009612D01*
X007146Y009612D02*
X006993Y009765D01*
X007069Y009765D02*
X006839Y009765D01*
X006780Y009769D02*
X006549Y009615D01*
X006780Y009462D01*
X006839Y009612D02*
X006839Y010072D01*
X007069Y010072D01*
X007146Y009995D01*
X007146Y009842D01*
X007069Y009765D01*
X006549Y009922D02*
X006549Y009462D01*
X006396Y009462D02*
X006089Y009462D01*
X006243Y009462D02*
X006243Y009922D01*
X006089Y009769D01*
X005636Y009812D02*
X005405Y009965D01*
X005636Y010119D01*
X005405Y010272D02*
X005405Y009812D01*
X005252Y009888D02*
X005175Y009812D01*
X005022Y009812D01*
X004945Y009888D01*
X004792Y009888D02*
X004792Y009812D01*
X004715Y009812D01*
X004715Y009888D01*
X004792Y009888D01*
X004561Y009888D02*
X004561Y009965D01*
X004485Y010042D01*
X004408Y010042D01*
X004485Y010042D02*
X004561Y010119D01*
X004561Y010195D01*
X004485Y010272D01*
X004331Y010272D01*
X004255Y010195D01*
X004255Y009888D02*
X004331Y009812D01*
X004485Y009812D01*
X004561Y009888D01*
X004559Y009622D02*
X004636Y009545D01*
X004636Y009469D01*
X004559Y009392D01*
X004405Y009392D01*
X004329Y009469D01*
X004329Y009545D01*
X004405Y009622D01*
X004559Y009622D01*
X004175Y009545D02*
X004175Y009392D01*
X004099Y009315D01*
X003868Y009315D01*
X003868Y009162D02*
X003868Y009622D01*
X004099Y009622D01*
X004175Y009545D01*
X004022Y009315D02*
X004175Y009162D01*
X004329Y009238D02*
X004329Y009315D01*
X004405Y009392D01*
X004559Y009392D02*
X004636Y009315D01*
X004636Y009238D01*
X004559Y009162D01*
X004405Y009162D01*
X004329Y009238D01*
X004739Y009063D02*
X005199Y009063D01*
X005046Y009063D02*
X004892Y009293D01*
X005046Y009063D02*
X005199Y009293D01*
X005122Y008909D02*
X005199Y008832D01*
X005199Y008679D01*
X005122Y008602D01*
X005122Y008449D02*
X005199Y008449D01*
X005199Y008372D01*
X005122Y008372D01*
X005122Y008449D01*
X004816Y008602D02*
X004739Y008679D01*
X004739Y008832D01*
X004816Y008909D01*
X004892Y008909D01*
X004969Y008832D01*
X005046Y008909D01*
X005122Y008909D01*
X004969Y008832D02*
X004969Y008756D01*
X004049Y008602D02*
X004049Y008449D01*
X003972Y008372D01*
X003819Y008449D02*
X003819Y008679D01*
X003972Y008679D02*
X003666Y008679D01*
X003589Y008602D01*
X003589Y008449D01*
X003666Y008372D01*
X003742Y008372D01*
X003819Y008449D01*
X004049Y008602D02*
X003972Y008679D01*
X004049Y008219D02*
X003896Y008065D01*
X003896Y008142D02*
X003896Y007912D01*
X004049Y007912D02*
X003589Y007912D01*
X003589Y008142D01*
X003666Y008219D01*
X003819Y008219D01*
X003896Y008142D01*
X004739Y008142D02*
X004739Y007988D01*
X004816Y007912D01*
X004969Y008065D02*
X004969Y008142D01*
X005046Y008219D01*
X005122Y008219D01*
X005199Y008142D01*
X005199Y007988D01*
X005122Y007912D01*
X004969Y008142D02*
X004892Y008219D01*
X004816Y008219D01*
X004739Y008142D01*
X002451Y008862D02*
X001388Y008862D01*
X001388Y010122D01*
X002451Y010122D01*
X002451Y008862D01*
X005252Y009888D02*
X005252Y009965D01*
X005175Y010042D01*
X005098Y010042D01*
X005175Y010042D02*
X005252Y010119D01*
X005252Y010195D01*
X005175Y010272D01*
X005022Y010272D01*
X004945Y010195D01*
X005021Y010084D02*
X005307Y010084D01*
X006089Y010212D02*
X006396Y010212D01*
X006243Y010212D02*
X006243Y010672D01*
X006089Y010519D01*
X006549Y010672D02*
X006549Y010212D01*
X006549Y010365D02*
X006780Y010519D01*
X006549Y010365D02*
X006780Y010212D01*
X007299Y009995D02*
X007376Y010072D01*
X007530Y010072D01*
X007606Y009995D01*
X005999Y010929D02*
X005539Y010929D01*
X005692Y011082D01*
X005539Y011235D01*
X005999Y011235D01*
X005999Y011389D02*
X005539Y011389D01*
X005692Y011542D01*
X005539Y011696D01*
X005999Y011696D01*
X005999Y011849D02*
X005539Y011849D01*
X005539Y012079D01*
X005616Y012156D01*
X005692Y012156D01*
X005769Y012079D01*
X005769Y011849D01*
X005999Y011849D02*
X005999Y012079D01*
X005922Y012156D01*
X005846Y012156D01*
X005769Y012079D01*
X005539Y012310D02*
X005539Y012616D01*
X005539Y012463D02*
X005999Y012463D01*
X006189Y012429D02*
X006342Y012275D01*
X006189Y012122D01*
X006649Y012122D01*
X006649Y011969D02*
X006189Y011969D01*
X006342Y011815D01*
X006189Y011662D01*
X006649Y011662D01*
X006839Y011515D02*
X007069Y011515D01*
X007146Y011592D01*
X007146Y011745D01*
X007069Y011822D01*
X006839Y011822D01*
X006839Y011362D01*
X006993Y011515D02*
X007146Y011362D01*
X007299Y011362D02*
X007606Y011362D01*
X007453Y011362D02*
X007453Y011822D01*
X007299Y011669D01*
X008368Y011912D02*
X008368Y012372D01*
X008599Y012372D01*
X008675Y012295D01*
X008675Y012142D01*
X008599Y012065D01*
X008368Y012065D01*
X008522Y012065D02*
X008675Y011912D01*
X008829Y011988D02*
X008905Y011912D01*
X009059Y011912D01*
X009136Y011988D01*
X009136Y012065D01*
X009059Y012142D01*
X008829Y012142D01*
X008829Y011988D01*
X008829Y012142D02*
X008982Y012295D01*
X009136Y012372D01*
X009259Y012312D02*
X009566Y012619D01*
X009566Y012312D01*
X009489Y012235D01*
X009335Y012235D01*
X009259Y012312D01*
X009259Y012619D01*
X009335Y012695D01*
X009489Y012695D01*
X009566Y012619D01*
X009540Y012777D02*
X009387Y012777D01*
X009310Y012853D01*
X009617Y013160D01*
X009617Y012853D01*
X009540Y012777D01*
X009719Y012695D02*
X009719Y012235D01*
X009719Y012388D02*
X009949Y012235D01*
X009719Y012388D02*
X009949Y012542D01*
X010001Y012777D02*
X009847Y012777D01*
X009771Y012853D01*
X010078Y013160D01*
X010078Y012853D01*
X010001Y012777D01*
X010105Y012885D02*
X009952Y013038D01*
X010029Y013038D02*
X009798Y013038D01*
X009771Y013160D02*
X009847Y013237D01*
X010001Y013237D01*
X010078Y013160D01*
X010105Y013115D02*
X010029Y013038D01*
X010105Y013115D02*
X010105Y013269D01*
X010029Y013345D01*
X009798Y013345D01*
X009798Y012885D01*
X009771Y012853D02*
X009771Y013160D01*
X009617Y013160D02*
X009540Y013237D01*
X009387Y013237D01*
X009310Y013160D01*
X009310Y012853D01*
X009157Y012777D02*
X008850Y012777D01*
X008952Y012695D02*
X008952Y012235D01*
X009105Y012235D02*
X008798Y012235D01*
X008798Y012542D02*
X008952Y012695D01*
X009003Y012777D02*
X009003Y013237D01*
X008850Y013084D01*
X007886Y012869D02*
X007655Y012715D01*
X007886Y012562D01*
X007655Y012562D02*
X007655Y013022D01*
X007502Y013022D02*
X007502Y012945D01*
X007195Y012638D01*
X007195Y012562D01*
X007042Y012562D02*
X006965Y012562D01*
X006965Y012638D01*
X007042Y012638D01*
X007042Y012562D01*
X006735Y012562D02*
X006735Y013022D01*
X006505Y012792D01*
X006811Y012792D01*
X006649Y012813D02*
X006649Y012582D01*
X006189Y012582D01*
X006189Y012813D01*
X006266Y012889D01*
X006342Y012889D01*
X006419Y012813D01*
X006419Y012582D01*
X006419Y012813D02*
X006496Y012889D01*
X006572Y012889D01*
X006649Y012813D01*
X005999Y012847D02*
X005999Y013000D01*
X005922Y013077D01*
X005846Y013077D01*
X005769Y013000D01*
X005769Y012923D01*
X005769Y013000D02*
X005692Y013077D01*
X005616Y013077D01*
X005539Y013000D01*
X005539Y012847D01*
X005616Y012770D01*
X005922Y012770D02*
X005999Y012847D01*
X006189Y013043D02*
X006189Y013350D01*
X006189Y013196D02*
X006649Y013196D01*
X005999Y013307D02*
X005999Y013460D01*
X005922Y013537D01*
X005616Y013537D01*
X005539Y013460D01*
X005539Y013307D01*
X005616Y013230D01*
X005692Y013230D01*
X005769Y013307D01*
X005769Y013537D01*
X005922Y013691D02*
X005616Y013691D01*
X005539Y013767D01*
X005539Y013921D01*
X005616Y013998D01*
X005922Y013691D01*
X005999Y013767D01*
X005999Y013921D01*
X005922Y013998D01*
X005616Y013998D01*
X005769Y014151D02*
X005769Y014458D01*
X005999Y014381D02*
X005539Y014381D01*
X005769Y014151D01*
X006189Y014194D02*
X006189Y014040D01*
X006266Y013963D01*
X006342Y013963D01*
X006419Y014040D01*
X006419Y014270D01*
X006572Y014270D02*
X006266Y014270D01*
X006189Y014194D01*
X006572Y014270D02*
X006649Y014194D01*
X006649Y014040D01*
X006572Y013963D01*
X006572Y013810D02*
X006649Y013733D01*
X006649Y013580D01*
X006572Y013503D01*
X006419Y013656D02*
X006419Y013733D01*
X006496Y013810D01*
X006572Y013810D01*
X006419Y013733D02*
X006342Y013810D01*
X006266Y013810D01*
X006189Y013733D01*
X006189Y013580D01*
X006266Y013503D01*
X005999Y013307D02*
X005922Y013230D01*
X005136Y013438D02*
X005136Y013592D01*
X005059Y013669D01*
X004982Y013669D01*
X004829Y013592D01*
X004829Y013822D01*
X005136Y013822D01*
X004675Y013745D02*
X004675Y013592D01*
X004599Y013515D01*
X004368Y013515D01*
X004368Y013362D02*
X004368Y013822D01*
X004599Y013822D01*
X004675Y013745D01*
X004522Y013515D02*
X004675Y013362D01*
X004829Y013438D02*
X004905Y013362D01*
X005059Y013362D01*
X005136Y013438D01*
X007195Y013022D02*
X007502Y013022D01*
X006649Y012429D02*
X006189Y012429D01*
X005536Y011722D02*
X005536Y011262D01*
X005305Y011262D01*
X005229Y011338D01*
X005229Y011492D01*
X005305Y011569D01*
X005536Y011569D01*
X005075Y011492D02*
X005075Y011415D01*
X004768Y011415D01*
X004768Y011338D02*
X004768Y011492D01*
X004845Y011569D01*
X004999Y011569D01*
X005075Y011492D01*
X004999Y011262D02*
X004845Y011262D01*
X004768Y011338D01*
X004615Y011569D02*
X004538Y011569D01*
X004385Y011415D01*
X004385Y011262D02*
X004385Y011569D01*
X004189Y011662D02*
X004189Y011969D01*
X004189Y011815D02*
X004649Y011815D01*
X004649Y012122D02*
X004342Y012429D01*
X004266Y012429D01*
X004189Y012352D01*
X004189Y012199D01*
X004266Y012122D01*
X004649Y012122D02*
X004649Y012429D01*
X002149Y012279D02*
X001689Y012279D01*
X002149Y012586D01*
X001689Y012586D01*
X001689Y012739D02*
X002149Y012739D01*
X002149Y013046D01*
X002149Y013200D02*
X001689Y013200D01*
X001689Y013430D01*
X001766Y013506D01*
X001919Y013506D01*
X001996Y013430D01*
X001996Y013200D01*
X001996Y013353D02*
X002149Y013506D01*
X002226Y013660D02*
X002226Y013967D01*
X002149Y014120D02*
X001689Y014120D01*
X001689Y014350D01*
X001766Y014427D01*
X001842Y014427D01*
X001919Y014350D01*
X001919Y014120D01*
X002149Y014120D02*
X002149Y014350D01*
X002072Y014427D01*
X001996Y014427D01*
X001919Y014350D01*
X003985Y014662D02*
X004292Y014662D01*
X004138Y014662D02*
X004138Y015122D01*
X003985Y014969D01*
X004445Y015045D02*
X004522Y015122D01*
X004675Y015122D01*
X004752Y015045D01*
X004445Y014738D01*
X004522Y014662D01*
X004675Y014662D01*
X004752Y014738D01*
X004752Y015045D01*
X004905Y015122D02*
X004905Y014662D01*
X004905Y014815D02*
X005136Y014662D01*
X004905Y014815D02*
X005136Y014969D01*
X004445Y015045D02*
X004445Y014738D01*
X006189Y014654D02*
X006189Y014500D01*
X006266Y014424D01*
X006572Y014424D01*
X006266Y014731D01*
X006572Y014731D01*
X006649Y014654D01*
X006649Y014500D01*
X006572Y014424D01*
X006266Y014731D02*
X006189Y014654D01*
X006419Y014884D02*
X006419Y015191D01*
X006649Y015114D02*
X006189Y015114D01*
X006419Y014884D01*
X007539Y014305D02*
X007999Y014305D01*
X007999Y014458D02*
X007999Y014151D01*
X007692Y014151D02*
X007539Y014305D01*
X007539Y013998D02*
X007539Y013691D01*
X007539Y013844D02*
X007999Y013844D01*
X010231Y013084D02*
X010461Y013084D01*
X010538Y013007D01*
X010538Y012777D01*
X010478Y012717D02*
X010769Y012717D01*
X010768Y012777D02*
X010768Y013160D01*
X010845Y013237D01*
X010566Y013115D02*
X010259Y013115D01*
X010489Y013345D01*
X010489Y012885D01*
X010691Y013007D02*
X010845Y013007D01*
X010231Y013084D02*
X010231Y012777D01*
X011117Y012560D02*
X011117Y012253D01*
X011194Y012177D01*
X011347Y012177D01*
X011424Y012253D01*
X011578Y012177D02*
X011884Y012177D01*
X011731Y012177D02*
X011731Y012637D01*
X011578Y012484D01*
X011424Y012560D02*
X011347Y012637D01*
X011194Y012637D01*
X011117Y012560D01*
X010778Y012197D02*
X010478Y012197D01*
X012038Y012407D02*
X012345Y012407D01*
X012268Y012637D02*
X012038Y012407D01*
X012268Y012177D02*
X012268Y012637D01*
X015789Y012273D02*
X015789Y011210D01*
X017049Y011210D01*
X017049Y012273D01*
X015789Y012273D01*
X017639Y012389D02*
X017639Y012082D01*
X017869Y012082D01*
X017792Y012236D01*
X017792Y012313D01*
X017869Y012389D01*
X018022Y012389D01*
X018099Y012313D01*
X018099Y012159D01*
X018022Y012082D01*
X018099Y011929D02*
X018099Y011622D01*
X018118Y011638D02*
X018195Y011562D01*
X018425Y011562D01*
X018425Y011869D01*
X018493Y011822D02*
X018493Y011362D01*
X018519Y011501D02*
X018809Y011501D01*
X018799Y011438D02*
X018876Y011362D01*
X019106Y011362D01*
X019106Y011669D01*
X019260Y011592D02*
X019413Y011592D01*
X019260Y011362D02*
X019260Y011822D01*
X019567Y011822D01*
X018886Y012022D02*
X018579Y012022D01*
X018579Y011562D01*
X018646Y011362D02*
X018339Y011362D01*
X018099Y011392D02*
X018022Y011469D01*
X017965Y011562D02*
X017658Y011562D01*
X017716Y011469D02*
X017639Y011392D01*
X017639Y011238D01*
X017716Y011162D01*
X018022Y011162D01*
X018099Y011238D01*
X018099Y011392D01*
X018118Y011638D02*
X018118Y011869D01*
X018099Y011775D02*
X017639Y011775D01*
X017792Y011622D01*
X017811Y011562D02*
X017811Y012022D01*
X017658Y011869D01*
X018339Y011669D02*
X018493Y011822D01*
X018579Y011792D02*
X018732Y011792D01*
X018799Y011669D02*
X018799Y011438D01*
X018819Y010982D02*
X018519Y010982D01*
X018529Y011982D02*
X018819Y011982D01*
X018819Y012501D02*
X018519Y012501D01*
X018569Y012662D02*
X018416Y012662D01*
X018339Y012738D01*
X018339Y013045D01*
X018416Y013122D01*
X018569Y013122D01*
X018646Y013045D01*
X018799Y012969D02*
X018953Y013122D01*
X018953Y012662D01*
X019106Y012662D02*
X018799Y012662D01*
X018646Y012738D02*
X018569Y012662D01*
X019260Y012738D02*
X019337Y012662D01*
X019490Y012662D01*
X019567Y012738D01*
X019567Y012815D01*
X019490Y012892D01*
X019413Y012892D01*
X019490Y012892D02*
X019567Y012969D01*
X019567Y013045D01*
X019490Y013122D01*
X019337Y013122D01*
X019260Y013045D01*
X020019Y009751D02*
X020319Y009751D01*
X020319Y009232D02*
X020029Y009232D01*
X019993Y009172D02*
X019993Y008712D01*
X020019Y008751D02*
X020319Y008751D01*
X020299Y008712D02*
X020299Y009019D01*
X020530Y009019D01*
X020606Y008942D01*
X020606Y008712D01*
X020146Y008712D02*
X019839Y008712D01*
X019839Y009019D02*
X019993Y009172D01*
X020029Y008232D02*
X020319Y008232D01*
X020299Y008019D02*
X020530Y008019D01*
X020606Y007942D01*
X020606Y007712D01*
X020299Y007712D02*
X020299Y008019D01*
X019993Y008172D02*
X019993Y007712D01*
X019886Y007772D02*
X019579Y007772D01*
X019579Y007312D01*
X019519Y007251D02*
X019809Y007251D01*
X019732Y007542D02*
X019579Y007542D01*
X019425Y007619D02*
X019425Y007312D01*
X019195Y007312D01*
X019118Y007388D01*
X019118Y007619D01*
X018811Y007772D02*
X018811Y007312D01*
X018658Y007312D02*
X018965Y007312D01*
X018809Y006922D02*
X018655Y006922D01*
X018579Y006845D01*
X018809Y006922D02*
X018886Y006845D01*
X018886Y006769D01*
X018579Y006462D01*
X018886Y006462D01*
X018425Y006462D02*
X018118Y006462D01*
X018272Y006462D02*
X018272Y006922D01*
X018118Y006769D01*
X017965Y006845D02*
X017888Y006922D01*
X017735Y006922D01*
X017658Y006845D01*
X017658Y006538D01*
X017735Y006462D01*
X017888Y006462D01*
X017965Y006538D01*
X019519Y006732D02*
X019819Y006732D01*
X019819Y006251D02*
X019519Y006251D01*
X020489Y006131D02*
X020489Y005978D01*
X020566Y005901D01*
X020872Y005901D01*
X020566Y006208D01*
X020872Y006208D01*
X020949Y006131D01*
X020949Y005978D01*
X020872Y005901D01*
X020949Y005748D02*
X020949Y005441D01*
X020949Y005594D02*
X020489Y005594D01*
X020642Y005441D01*
X020566Y005287D02*
X020489Y005211D01*
X020489Y005057D01*
X020566Y004981D01*
X020872Y004981D01*
X020949Y005057D01*
X020949Y005211D01*
X020872Y005287D01*
X020413Y005442D02*
X020260Y005442D01*
X020106Y005519D02*
X020106Y005212D01*
X019876Y005212D01*
X019799Y005288D01*
X019799Y005519D01*
X019886Y005542D02*
X019886Y005388D01*
X019809Y005312D01*
X019579Y005312D01*
X019519Y005251D02*
X019809Y005251D01*
X019646Y005212D02*
X019339Y005212D01*
X019349Y005312D02*
X019349Y005772D01*
X019118Y005542D01*
X019425Y005542D01*
X019339Y005519D02*
X019493Y005672D01*
X019493Y005212D01*
X019579Y005158D02*
X019579Y005619D01*
X019809Y005619D01*
X019886Y005542D01*
X019819Y005732D02*
X019529Y005732D01*
X020260Y005672D02*
X020567Y005672D01*
X020260Y005672D02*
X020260Y005212D01*
X019819Y004732D02*
X019519Y004732D01*
X019579Y004619D02*
X019809Y004619D01*
X019886Y004542D01*
X019886Y004388D01*
X019809Y004312D01*
X019579Y004312D01*
X019519Y004251D02*
X019809Y004251D01*
X019579Y004158D02*
X019579Y004619D01*
X019425Y004542D02*
X019118Y004542D01*
X019349Y004772D01*
X019349Y004312D01*
X019519Y003732D02*
X019819Y003732D01*
X019809Y003172D02*
X019886Y003095D01*
X019886Y003019D01*
X019809Y002942D01*
X019886Y002865D01*
X019886Y002788D01*
X019809Y002712D01*
X019655Y002712D01*
X019579Y002788D01*
X019425Y002788D02*
X019349Y002712D01*
X019195Y002712D01*
X019118Y002788D01*
X019118Y003095D01*
X019195Y003172D01*
X019349Y003172D01*
X019425Y003095D01*
X019579Y003095D02*
X019655Y003172D01*
X019809Y003172D01*
X019809Y002942D02*
X019732Y002942D01*
X012000Y003344D02*
X011923Y003267D01*
X011769Y003267D01*
X011693Y003344D01*
X012000Y003651D01*
X012000Y003344D01*
X011693Y003344D02*
X011693Y003651D01*
X011769Y003728D01*
X011923Y003728D01*
X012000Y003651D01*
X011539Y003267D02*
X011232Y003267D01*
X011079Y003267D02*
X010925Y003421D01*
X011002Y003421D02*
X010772Y003421D01*
X010772Y003267D02*
X010772Y003728D01*
X011002Y003728D01*
X011079Y003651D01*
X011079Y003498D01*
X011002Y003421D01*
X011232Y003574D02*
X011386Y003728D01*
X011386Y003267D01*
X020489Y006131D02*
X020566Y006208D01*
X020146Y007712D02*
X019839Y007712D01*
X019839Y008019D02*
X019993Y008172D01*
X018811Y007772D02*
X018658Y007619D01*
X005536Y010665D02*
X005229Y010665D01*
X005229Y010588D02*
X005229Y010742D01*
X005305Y010819D01*
X005459Y010819D01*
X005536Y010742D01*
X005536Y010665D01*
X005459Y010512D02*
X005305Y010512D01*
X005229Y010588D01*
X005075Y010512D02*
X005075Y010819D01*
X005021Y010834D02*
X005307Y010834D01*
X005307Y011149D02*
X005031Y011149D01*
X004768Y010819D02*
X004768Y010588D01*
X004845Y010512D01*
X005075Y010512D01*
X005031Y010399D02*
X005307Y010399D01*
X004615Y010512D02*
X004461Y010512D01*
X004538Y010512D02*
X004538Y010972D01*
X004461Y010972D01*
X004308Y010742D02*
X004231Y010819D01*
X004001Y010819D01*
X004001Y010972D02*
X004001Y010512D01*
X004231Y010512D01*
X004308Y010588D01*
X004308Y010742D01*
X002149Y011512D02*
X001689Y011512D01*
X001842Y011665D01*
X001689Y011819D01*
X002149Y011819D01*
X002149Y011972D02*
X002149Y012125D01*
X002149Y012049D02*
X001689Y012049D01*
X001689Y012125D02*
X001689Y011972D01*
X001689Y012739D02*
X001689Y013046D01*
X001919Y012893D02*
X001919Y012739D01*
D12*
X002669Y012992D02*
X002669Y013492D01*
X002919Y013742D01*
X002669Y013992D01*
X002669Y014492D01*
X002919Y014742D01*
X003419Y014742D01*
X003669Y014492D01*
X003669Y013992D01*
X003419Y013742D01*
X003669Y013492D01*
X003669Y012992D01*
X003419Y012742D01*
X003669Y012492D01*
X003669Y011992D01*
X003419Y011742D01*
X002919Y011742D01*
X002669Y011992D01*
X002669Y012492D01*
X002919Y012742D01*
X002669Y012992D01*
X004808Y013992D02*
X005131Y013992D01*
X005131Y014492D02*
X004808Y014492D01*
X008169Y014742D02*
X008169Y013742D01*
X009069Y013742D01*
X009169Y013842D01*
X009269Y013742D01*
X010069Y013742D01*
X010169Y013842D01*
X010269Y013742D01*
X011069Y013742D01*
X011169Y013842D01*
X011269Y013742D01*
X012069Y013742D01*
X012169Y013842D01*
X012269Y013742D01*
X013069Y013742D01*
X013169Y013842D01*
X013269Y013742D01*
X014069Y013742D01*
X014169Y013842D01*
X014269Y013742D01*
X015069Y013742D01*
X015169Y013842D01*
X015269Y013742D01*
X016069Y013742D01*
X016169Y013842D01*
X016269Y013742D01*
X017069Y013742D01*
X017169Y013842D01*
X017269Y013742D01*
X018169Y013742D01*
X018169Y014742D01*
X017269Y014742D01*
X017169Y014642D01*
X017069Y014742D01*
X016269Y014742D01*
X016169Y014642D01*
X016069Y014742D01*
X015269Y014742D01*
X015169Y014642D01*
X015069Y014742D01*
X014269Y014742D01*
X014169Y014642D01*
X014069Y014742D01*
X013269Y014742D01*
X013169Y014642D01*
X013069Y014742D01*
X012269Y014742D01*
X012169Y014642D01*
X012069Y014742D01*
X011269Y014742D01*
X011169Y014642D01*
X011069Y014742D01*
X010269Y014742D01*
X010169Y014642D01*
X010069Y014742D01*
X009269Y014742D01*
X009169Y014642D01*
X009069Y014742D01*
X008169Y014742D01*
X008469Y014442D02*
X008469Y014042D01*
X008569Y014042D01*
X008569Y013942D01*
X008769Y013942D01*
X008769Y014042D01*
X008869Y014042D01*
X008869Y014442D01*
X008769Y014442D01*
X008769Y014542D01*
X008569Y014542D01*
X008569Y014442D01*
X008469Y014442D01*
X009469Y014442D02*
X009469Y014042D01*
X009569Y014042D01*
X009569Y013942D01*
X009769Y013942D01*
X009769Y014042D01*
X009869Y014042D01*
X009869Y014442D01*
X009769Y014442D01*
X009769Y014542D01*
X009569Y014542D01*
X009569Y014442D01*
X009469Y014442D01*
X010469Y014442D02*
X010469Y014042D01*
X010569Y014042D01*
X010569Y013942D01*
X010769Y013942D01*
X010769Y014042D01*
X010869Y014042D01*
X010869Y014442D01*
X010769Y014442D01*
X010769Y014542D01*
X010569Y014542D01*
X010569Y014442D01*
X010469Y014442D01*
X011469Y014442D02*
X011469Y014042D01*
X011569Y014042D01*
X011569Y013942D01*
X011769Y013942D01*
X011769Y014042D01*
X011869Y014042D01*
X011869Y014442D01*
X011769Y014442D01*
X011769Y014542D01*
X011569Y014542D01*
X011569Y014442D01*
X011469Y014442D01*
X012469Y014442D02*
X012469Y014042D01*
X012569Y014042D01*
X012569Y013942D01*
X012769Y013942D01*
X012769Y014042D01*
X012869Y014042D01*
X012869Y014442D01*
X012769Y014442D01*
X012769Y014542D01*
X012569Y014542D01*
X012569Y014442D01*
X012469Y014442D01*
X013469Y014442D02*
X013469Y014042D01*
X013569Y014042D01*
X013569Y013942D01*
X013769Y013942D01*
X013769Y014042D01*
X013869Y014042D01*
X013869Y014442D01*
X013769Y014442D01*
X013769Y014542D01*
X013569Y014542D01*
X013569Y014442D01*
X013469Y014442D01*
X014469Y014442D02*
X014469Y014042D01*
X014569Y014042D01*
X014569Y013942D01*
X014769Y013942D01*
X014769Y014042D01*
X014869Y014042D01*
X014869Y014442D01*
X014769Y014442D01*
X014769Y014542D01*
X014569Y014542D01*
X014569Y014442D01*
X014469Y014442D01*
X015469Y014442D02*
X015469Y014042D01*
X015569Y014042D01*
X015569Y013942D01*
X015769Y013942D01*
X015769Y014042D01*
X015869Y014042D01*
X015869Y014442D01*
X015769Y014442D01*
X015769Y014542D01*
X015569Y014542D01*
X015569Y014442D01*
X015469Y014442D01*
X016469Y014442D02*
X016469Y014042D01*
X016569Y014042D01*
X016569Y013942D01*
X016769Y013942D01*
X016769Y014042D01*
X016869Y014042D01*
X016869Y014442D01*
X016769Y014442D01*
X016769Y014542D01*
X016569Y014542D01*
X016569Y014442D01*
X016469Y014442D01*
X017469Y014442D02*
X017469Y014042D01*
X017569Y014042D01*
X017569Y013942D01*
X017769Y013942D01*
X017769Y014042D01*
X017869Y014042D01*
X017869Y014442D01*
X017769Y014442D01*
X017769Y014542D01*
X017569Y014542D01*
X017569Y014442D01*
X017469Y014442D01*
X009290Y013265D02*
X008967Y013265D01*
X008967Y012765D02*
X009290Y012765D01*
X007831Y012492D02*
X007508Y012492D01*
X007508Y011992D02*
X007831Y011992D01*
X006589Y011132D02*
X006249Y011132D01*
X006249Y010851D02*
X006589Y010851D01*
X006589Y010382D02*
X006249Y010382D01*
X006249Y010101D02*
X006589Y010101D01*
X005581Y009742D02*
X005258Y009742D01*
X005258Y009242D02*
X005581Y009242D01*
X003669Y009242D02*
X003669Y008742D01*
X003419Y008492D01*
X003669Y008242D01*
X003669Y007742D01*
X003419Y007492D01*
X003669Y007242D01*
X003669Y006742D01*
X003419Y006492D01*
X003669Y006242D01*
X003669Y005742D01*
X003419Y005492D01*
X002919Y005492D01*
X002669Y005742D01*
X002669Y006242D01*
X002919Y006492D01*
X002669Y006742D01*
X002669Y007242D01*
X002919Y007492D01*
X002669Y007742D01*
X002669Y008242D01*
X002919Y008492D01*
X002669Y008742D01*
X002669Y009242D01*
X002919Y009492D01*
X002669Y009742D01*
X002669Y010242D01*
X002919Y010492D01*
X002669Y010742D01*
X002669Y011242D01*
X002919Y011492D01*
X003419Y011492D01*
X003669Y011242D01*
X003669Y010742D01*
X003419Y010492D01*
X003669Y010242D01*
X003669Y009742D01*
X003419Y009492D01*
X003669Y009242D01*
X004169Y008403D02*
X004169Y008080D01*
X004669Y008080D02*
X004669Y008403D01*
X004866Y006974D02*
X004866Y006507D01*
X004632Y006741D02*
X005099Y006741D01*
X010363Y004238D02*
X010703Y004238D01*
X010703Y003957D02*
X010363Y003957D01*
X010319Y002992D02*
X009519Y002992D01*
X009419Y002892D01*
X009319Y002992D01*
X008419Y002992D01*
X008419Y001992D01*
X009319Y001992D01*
X009419Y002092D01*
X009519Y001992D01*
X010319Y001992D01*
X010419Y002092D01*
X010519Y001992D01*
X011319Y001992D01*
X011419Y002092D01*
X011519Y001992D01*
X012319Y001992D01*
X012419Y002092D01*
X012519Y001992D01*
X013319Y001992D01*
X013419Y002092D01*
X013519Y001992D01*
X014319Y001992D01*
X014419Y002092D01*
X014519Y001992D01*
X015319Y001992D01*
X015419Y002092D01*
X015519Y001992D01*
X016319Y001992D01*
X016419Y002092D01*
X016519Y001992D01*
X017319Y001992D01*
X017419Y002092D01*
X017519Y001992D01*
X018419Y001992D01*
X018419Y002992D01*
X017519Y002992D01*
X017419Y002892D01*
X017319Y002992D01*
X016519Y002992D01*
X016419Y002892D01*
X016319Y002992D01*
X015519Y002992D01*
X015419Y002892D01*
X015319Y002992D01*
X014519Y002992D01*
X014419Y002892D01*
X014319Y002992D01*
X013519Y002992D01*
X013419Y002892D01*
X013319Y002992D01*
X012519Y002992D01*
X012419Y002892D01*
X012319Y002992D01*
X011519Y002992D01*
X011419Y002892D01*
X011319Y002992D01*
X010519Y002992D01*
X010419Y002892D01*
X010319Y002992D01*
X010019Y002792D02*
X009819Y002792D01*
X009819Y002692D01*
X009719Y002692D01*
X009719Y002292D01*
X009819Y002292D01*
X009819Y002192D01*
X010019Y002192D01*
X010019Y002292D01*
X010119Y002292D01*
X010119Y002692D01*
X010019Y002692D01*
X010019Y002792D01*
X010719Y002692D02*
X010719Y002292D01*
X010819Y002292D01*
X010819Y002192D01*
X011019Y002192D01*
X011019Y002292D01*
X011119Y002292D01*
X011119Y002692D01*
X011019Y002692D01*
X011019Y002792D01*
X010819Y002792D01*
X010819Y002692D01*
X010719Y002692D01*
X011719Y002692D02*
X011719Y002292D01*
X011819Y002292D01*
X011819Y002192D01*
X012019Y002192D01*
X012019Y002292D01*
X012119Y002292D01*
X012119Y002692D01*
X012019Y002692D01*
X012019Y002792D01*
X011819Y002792D01*
X011819Y002692D01*
X011719Y002692D01*
X012719Y002692D02*
X012719Y002292D01*
X012819Y002292D01*
X012819Y002192D01*
X013019Y002192D01*
X013019Y002292D01*
X013119Y002292D01*
X013119Y002692D01*
X013019Y002692D01*
X013019Y002792D01*
X012819Y002792D01*
X012819Y002692D01*
X012719Y002692D01*
X013719Y002692D02*
X013719Y002292D01*
X013819Y002292D01*
X013819Y002192D01*
X014019Y002192D01*
X014019Y002292D01*
X014119Y002292D01*
X014119Y002692D01*
X014019Y002692D01*
X014019Y002792D01*
X013819Y002792D01*
X013819Y002692D01*
X013719Y002692D01*
X014719Y002692D02*
X014719Y002292D01*
X014819Y002292D01*
X014819Y002192D01*
X015019Y002192D01*
X015019Y002292D01*
X015119Y002292D01*
X015119Y002692D01*
X015019Y002692D01*
X015019Y002792D01*
X014819Y002792D01*
X014819Y002692D01*
X014719Y002692D01*
X015719Y002692D02*
X015719Y002292D01*
X015819Y002292D01*
X015819Y002192D01*
X016019Y002192D01*
X016019Y002292D01*
X016119Y002292D01*
X016119Y002692D01*
X016019Y002692D01*
X016019Y002792D01*
X015819Y002792D01*
X015819Y002692D01*
X015719Y002692D01*
X016719Y002692D02*
X016719Y002292D01*
X016819Y002292D01*
X016819Y002192D01*
X017019Y002192D01*
X017019Y002292D01*
X017119Y002292D01*
X017119Y002692D01*
X017019Y002692D01*
X017019Y002792D01*
X016819Y002792D01*
X016819Y002692D01*
X016719Y002692D01*
X017719Y002692D02*
X017719Y002292D01*
X017819Y002292D01*
X017819Y002192D01*
X018019Y002192D01*
X018019Y002292D01*
X018119Y002292D01*
X018119Y002692D01*
X018019Y002692D01*
X018019Y002792D01*
X017819Y002792D01*
X017819Y002692D01*
X017719Y002692D01*
X009119Y002692D02*
X009119Y002292D01*
X009019Y002292D01*
X009019Y002192D01*
X008819Y002192D01*
X008819Y002292D01*
X008719Y002292D01*
X008719Y002692D01*
X008819Y002692D01*
X008819Y002792D01*
X009019Y002792D01*
X009019Y002692D01*
X009119Y002692D01*
D13*
X005280Y005861D02*
X004753Y005861D01*
D14*
X016935Y008007D02*
X016935Y009976D01*
X018903Y009976D01*
X018903Y008007D01*
X016935Y008007D01*
X017329Y008401D02*
X017329Y009582D01*
X018510Y009582D01*
X018510Y008401D01*
X017329Y008401D01*
D15*
X018438Y007583D02*
X018438Y007400D01*
X018475Y007363D01*
X018548Y007363D01*
X018585Y007400D01*
X018585Y007583D01*
X018659Y007547D02*
X018696Y007583D01*
X018769Y007583D01*
X018806Y007547D01*
X018880Y007547D02*
X018917Y007583D01*
X018990Y007583D01*
X019027Y007547D01*
X019027Y007510D01*
X018880Y007363D01*
X019027Y007363D01*
X018806Y007400D02*
X018806Y007437D01*
X018769Y007473D01*
X018696Y007473D01*
X018659Y007510D01*
X018659Y007547D01*
X018733Y007620D02*
X018733Y007327D01*
X018769Y007363D02*
X018806Y007400D01*
X018769Y007363D02*
X018696Y007363D01*
X018659Y007400D01*
X018659Y010348D02*
X018806Y010348D01*
X018733Y010348D02*
X018733Y010568D01*
X018659Y010495D01*
X018585Y010495D02*
X018585Y010532D01*
X018548Y010568D01*
X018475Y010568D01*
X018438Y010532D01*
X018364Y010568D02*
X018217Y010568D01*
X018217Y010348D01*
X018143Y010348D02*
X018070Y010422D01*
X018106Y010422D02*
X017996Y010422D01*
X017996Y010348D02*
X017996Y010568D01*
X018106Y010568D01*
X018143Y010532D01*
X018143Y010458D01*
X018106Y010422D01*
X018217Y010458D02*
X018291Y010458D01*
X018438Y010348D02*
X018585Y010495D01*
X018585Y010348D02*
X018438Y010348D01*
X018880Y010348D02*
X019027Y010495D01*
X019027Y010532D01*
X018990Y010568D01*
X018917Y010568D01*
X018880Y010532D01*
X018880Y010348D02*
X019027Y010348D01*
X017922Y010385D02*
X017922Y010422D01*
X017885Y010458D01*
X017775Y010458D01*
X017775Y010385D01*
X017812Y010348D01*
X017885Y010348D01*
X017922Y010385D01*
X017849Y010532D02*
X017775Y010458D01*
X017701Y010422D02*
X017701Y010385D01*
X017664Y010348D01*
X017591Y010348D01*
X017554Y010385D01*
X017554Y010422D01*
X017591Y010458D01*
X017664Y010458D01*
X017701Y010422D01*
X017664Y010458D02*
X017701Y010495D01*
X017701Y010532D01*
X017664Y010568D01*
X017591Y010568D01*
X017554Y010532D01*
X017554Y010495D01*
X017591Y010458D01*
X017480Y010568D02*
X017333Y010568D01*
X017407Y010568D02*
X017407Y010348D01*
X017259Y010348D02*
X017259Y010495D01*
X017186Y010568D01*
X017112Y010495D01*
X017112Y010348D01*
X017112Y010458D02*
X017259Y010458D01*
X017849Y010532D02*
X017922Y010568D01*
X004893Y010854D02*
X004895Y010865D01*
X004901Y010874D01*
X004910Y010881D01*
X004920Y010884D01*
X004931Y010883D01*
X004941Y010878D01*
X004949Y010870D01*
X004952Y010860D01*
X004952Y010848D01*
X004949Y010838D01*
X004941Y010830D01*
X004931Y010825D01*
X004920Y010824D01*
X004910Y010827D01*
X004901Y010834D01*
X004895Y010843D01*
X004893Y010854D01*
X004893Y010104D02*
X004895Y010115D01*
X004901Y010124D01*
X004910Y010131D01*
X004920Y010134D01*
X004931Y010133D01*
X004941Y010128D01*
X004949Y010120D01*
X004952Y010110D01*
X004952Y010098D01*
X004949Y010088D01*
X004941Y010080D01*
X004931Y010075D01*
X004920Y010074D01*
X004910Y010077D01*
X004901Y010084D01*
X004895Y010093D01*
X004893Y010104D01*
X005179Y005972D02*
X005179Y005935D01*
X005253Y005862D01*
X005253Y005752D01*
X005253Y005862D02*
X005326Y005935D01*
X005326Y005972D01*
X005400Y005898D02*
X005474Y005972D01*
X005474Y005752D01*
X005547Y005752D02*
X005400Y005752D01*
X005437Y003222D02*
X005400Y003185D01*
X005437Y003222D02*
X005510Y003222D01*
X005547Y003185D01*
X005547Y003148D01*
X005400Y003002D01*
X005547Y003002D01*
X005621Y003002D02*
X005658Y003002D01*
X005658Y003038D01*
X005621Y003038D01*
X005621Y003002D01*
X005732Y003002D02*
X005732Y003038D01*
X005878Y003185D01*
X005878Y003222D01*
X005732Y003222D01*
X005953Y003185D02*
X005989Y003222D01*
X006063Y003222D01*
X006099Y003185D01*
X006099Y003148D01*
X005953Y003002D01*
X006099Y003002D01*
X006174Y003002D02*
X006174Y003222D01*
X006210Y003112D02*
X006320Y003002D01*
X006395Y003002D02*
X006395Y003222D01*
X006320Y003222D02*
X006174Y003075D01*
X006395Y003112D02*
X006541Y003112D01*
X006616Y003148D02*
X006762Y003148D01*
X006616Y003002D01*
X006762Y003002D01*
X006541Y003002D02*
X006541Y003222D01*
X005326Y003185D02*
X005326Y003148D01*
X005289Y003112D01*
X005326Y003075D01*
X005326Y003038D01*
X005289Y003002D01*
X005216Y003002D01*
X005179Y003038D01*
X005253Y003112D02*
X005289Y003112D01*
X005326Y003185D02*
X005289Y003222D01*
X005216Y003222D01*
X005179Y003185D01*
D16*
X017230Y008047D02*
X017230Y008086D01*
X017427Y008086D02*
X017427Y008047D01*
X017624Y008047D02*
X017624Y008086D01*
X017821Y008086D02*
X017821Y008047D01*
X018018Y008047D02*
X018018Y008086D01*
X018214Y008086D02*
X018214Y008047D01*
X018411Y008047D02*
X018411Y008086D01*
X018608Y008086D02*
X018608Y008047D01*
X018825Y008303D02*
X018864Y008303D01*
X018864Y008500D02*
X018825Y008500D01*
X018825Y008696D02*
X018864Y008696D01*
X018864Y008893D02*
X018825Y008893D01*
X018825Y009090D02*
X018864Y009090D01*
X018864Y009287D02*
X018825Y009287D01*
X018825Y009484D02*
X018864Y009484D01*
X018864Y009681D02*
X018825Y009681D01*
X018608Y009897D02*
X018608Y009937D01*
X018411Y009937D02*
X018411Y009897D01*
X018214Y009897D02*
X018214Y009937D01*
X018018Y009937D02*
X018018Y009897D01*
X017821Y009897D02*
X017821Y009937D01*
X017624Y009937D02*
X017624Y009897D01*
X017427Y009897D02*
X017427Y009937D01*
X017230Y009937D02*
X017230Y009897D01*
X017014Y009681D02*
X016974Y009681D01*
X016974Y009484D02*
X017014Y009484D01*
X017014Y009287D02*
X016974Y009287D01*
X016974Y009090D02*
X017014Y009090D01*
X017014Y008893D02*
X016974Y008893D01*
X016974Y008696D02*
X017014Y008696D01*
X017014Y008500D02*
X016974Y008500D01*
X016974Y008303D02*
X017014Y008303D01*
D17*
X018785Y008126D03*
D18*
X011883Y010566D02*
X011885Y010587D01*
X011891Y010607D01*
X011901Y010626D01*
X011914Y010643D01*
X011930Y010656D01*
X011948Y010667D01*
X011968Y010674D01*
X011989Y010677D01*
X012010Y010676D01*
X012030Y010671D01*
X012049Y010662D01*
X012067Y010650D01*
X012081Y010635D01*
X012093Y010617D01*
X012101Y010597D01*
X012104Y010577D01*
X012104Y010555D01*
X012101Y010535D01*
X012093Y010515D01*
X012081Y010497D01*
X012067Y010482D01*
X012050Y010470D01*
X012030Y010461D01*
X012010Y010456D01*
X011989Y010455D01*
X011968Y010458D01*
X011948Y010465D01*
X011930Y010476D01*
X011914Y010489D01*
X011901Y010506D01*
X011891Y010525D01*
X011885Y010545D01*
X011883Y010566D01*
D19*
X011994Y011167D03*
X010419Y011167D03*
X008844Y011167D03*
X008844Y006816D03*
X010419Y006816D03*
X011994Y006816D03*
D20*
X012151Y007102D02*
X008687Y007102D01*
X008529Y007259D01*
X008529Y010724D01*
X008687Y010881D01*
X012151Y010881D01*
X012309Y010724D01*
X012309Y007259D01*
X012151Y007102D01*
X004459Y004442D02*
X004459Y003042D01*
X001879Y003042D01*
X001879Y004442D01*
X004459Y004442D01*
D21*
X009159Y006816D03*
X009474Y006816D03*
X011364Y006816D03*
X011679Y006816D03*
X011679Y011167D03*
X011364Y011167D03*
X009474Y011167D03*
X009159Y011167D03*
D22*
X009789Y011167D03*
X010104Y011167D03*
X010734Y011167D03*
X011049Y011167D03*
X011049Y006816D03*
X010734Y006816D03*
X010104Y006816D03*
X009789Y006816D03*
D23*
X008244Y007417D03*
X008244Y008992D03*
X008244Y010566D03*
X012594Y010566D03*
X012594Y008992D03*
X012594Y007417D03*
D24*
X012594Y007732D03*
X012594Y008047D03*
X008244Y008047D03*
X008244Y007732D03*
X008244Y009936D03*
X008244Y010251D03*
X012594Y010251D03*
X012594Y009936D03*
D25*
X012594Y009622D03*
X012594Y009307D03*
X012594Y008677D03*
X012594Y008362D03*
X008244Y008362D03*
X008244Y008677D03*
X008244Y009307D03*
X008244Y009622D03*
D26*
X007219Y007642D02*
X006219Y007642D01*
X006219Y005642D01*
X007219Y005642D01*
X007219Y007642D01*
X004294Y006067D02*
X004294Y005767D01*
X004294Y005917D02*
X003844Y005917D01*
X003994Y005767D01*
X005169Y005492D02*
X005169Y003492D01*
X009669Y003492D01*
X009669Y005492D01*
X005169Y005492D01*
X013063Y003817D02*
X013063Y003367D01*
X013363Y003367D01*
X013523Y003367D02*
X013824Y003817D01*
X013984Y003667D02*
X014134Y003817D01*
X014134Y003367D01*
X013984Y003367D02*
X014284Y003367D01*
X013824Y003367D02*
X013523Y003817D01*
X013363Y003817D02*
X013063Y003817D01*
X013063Y003592D02*
X013213Y003592D01*
X016553Y004862D02*
X016553Y006122D01*
X018285Y006122D01*
X018285Y004940D01*
X018285Y004941D02*
X018267Y004939D01*
X018251Y004933D01*
X018236Y004924D01*
X018223Y004911D01*
X018214Y004896D01*
X018208Y004880D01*
X018206Y004862D01*
X018207Y004862D02*
X016553Y004862D01*
X017834Y001867D02*
X017834Y001417D01*
X017684Y001417D02*
X017984Y001417D01*
X017684Y001717D02*
X017834Y001867D01*
X009234Y001792D02*
X009234Y001492D01*
X009159Y001417D01*
X009009Y001417D01*
X008934Y001492D01*
X009234Y001792D01*
X009159Y001867D01*
X009009Y001867D01*
X008934Y001792D01*
X008934Y001492D01*
X008774Y001417D02*
X008473Y001417D01*
X008624Y001417D02*
X008624Y001867D01*
X008473Y001717D01*
X002419Y010767D02*
X002269Y010767D01*
X002269Y010992D01*
X002344Y011067D01*
X002419Y011067D01*
X002494Y010992D01*
X002494Y010842D01*
X002419Y010767D01*
X002269Y010767D02*
X002119Y010917D01*
X002044Y011067D01*
X005159Y011832D02*
X005159Y012952D01*
X005679Y012952D01*
X005679Y011832D01*
X005159Y011832D01*
X008223Y013167D02*
X008524Y013167D01*
X008374Y013167D02*
X008374Y013617D01*
X008223Y013467D01*
X008684Y013542D02*
X008684Y013242D01*
X008984Y013542D01*
X008984Y013242D01*
X008909Y013167D01*
X008759Y013167D01*
X008684Y013242D01*
X008684Y013542D02*
X008759Y013617D01*
X008909Y013617D01*
X008984Y013542D01*
X007029Y013282D02*
X007029Y014402D01*
X006509Y014402D01*
X006509Y013282D01*
X007029Y013282D01*
X004294Y013921D02*
X004294Y013996D01*
X004219Y014071D01*
X003844Y014071D01*
X003844Y013996D02*
X003844Y014146D01*
X003994Y014306D02*
X003844Y014456D01*
X004294Y014456D01*
X004294Y014306D02*
X004294Y014606D01*
X003394Y014806D02*
X003394Y015107D01*
X003394Y014956D02*
X002944Y014956D01*
X003094Y014806D01*
X004219Y013846D02*
X004294Y013921D01*
X015313Y013567D02*
X015313Y013117D01*
X015613Y013117D01*
X015773Y013117D02*
X016074Y013567D01*
X016234Y013492D02*
X016309Y013567D01*
X016459Y013567D01*
X016534Y013492D01*
X016534Y013417D01*
X016234Y013117D01*
X016534Y013117D01*
X016074Y013117D02*
X015773Y013567D01*
X015613Y013567D02*
X015313Y013567D01*
X015313Y013342D02*
X015463Y013342D01*
X017434Y013467D02*
X017584Y013617D01*
X017584Y013167D01*
X017434Y013167D02*
X017734Y013167D01*
D27*
X017781Y006353D02*
X017781Y006263D01*
X017751Y006263D02*
X017811Y006263D01*
X017843Y006278D02*
X017858Y006263D01*
X017888Y006263D01*
X017903Y006278D01*
X017903Y006293D01*
X017888Y006308D01*
X017843Y006308D01*
X017843Y006278D01*
X017843Y006308D02*
X017873Y006338D01*
X017903Y006353D01*
X017935Y006353D02*
X017965Y006323D01*
X017995Y006353D01*
X017995Y006263D01*
X018027Y006263D02*
X018027Y006353D01*
X018042Y006323D02*
X018072Y006323D01*
X018087Y006308D01*
X018087Y006263D01*
X018119Y006263D02*
X018179Y006263D01*
X018179Y006323D02*
X018119Y006263D01*
X018119Y006323D02*
X018179Y006323D01*
X018042Y006323D02*
X018027Y006308D01*
X017935Y006263D02*
X017935Y006353D01*
X017781Y006353D02*
X017751Y006323D01*
X018027Y004699D02*
X018027Y004684D01*
X018057Y004654D01*
X018057Y004609D01*
X018057Y004654D02*
X018087Y004684D01*
X018087Y004699D01*
X018119Y004684D02*
X018134Y004699D01*
X018164Y004699D01*
X018179Y004684D01*
X018179Y004669D01*
X018119Y004609D01*
X018179Y004609D01*
D28*
X005494Y010359D02*
X005494Y010340D01*
X005494Y010341D02*
X005474Y010339D01*
X005456Y010333D01*
X005439Y010324D01*
X005424Y010312D01*
X005412Y010297D01*
X005402Y010280D01*
X005397Y010261D01*
X005395Y010242D01*
X005397Y010223D01*
X005402Y010204D01*
X005412Y010187D01*
X005424Y010172D01*
X005439Y010160D01*
X005456Y010151D01*
X005474Y010145D01*
X005494Y010143D01*
X005494Y010125D01*
X005494Y010124D01*
X005472Y010126D01*
X005451Y010132D01*
X005432Y010142D01*
X005414Y010155D01*
X005400Y010171D01*
X005388Y010190D01*
X005380Y010210D01*
X005377Y010231D01*
X005377Y010253D01*
X005380Y010274D01*
X005388Y010294D01*
X005400Y010313D01*
X005414Y010329D01*
X005432Y010342D01*
X005451Y010352D01*
X005472Y010358D01*
X005494Y010360D01*
X005494Y010359D01*
X005472Y010357D01*
X005451Y010351D01*
X005432Y010341D01*
X005415Y010328D01*
X005401Y010312D01*
X005389Y010294D01*
X005381Y010274D01*
X005377Y010253D01*
X005377Y010231D01*
X005381Y010210D01*
X005389Y010190D01*
X005401Y010172D01*
X005415Y010156D01*
X005432Y010143D01*
X005451Y010133D01*
X005472Y010127D01*
X005494Y010125D01*
X005494Y010126D01*
X005472Y010128D01*
X005452Y010134D01*
X005433Y010144D01*
X005416Y010156D01*
X005401Y010172D01*
X005390Y010190D01*
X005382Y010210D01*
X005378Y010231D01*
X005378Y010253D01*
X005382Y010274D01*
X005390Y010294D01*
X005401Y010312D01*
X005416Y010328D01*
X005433Y010340D01*
X005452Y010350D01*
X005472Y010356D01*
X005494Y010358D01*
X005494Y010357D01*
X005472Y010355D01*
X005452Y010349D01*
X005433Y010340D01*
X005416Y010327D01*
X005402Y010311D01*
X005391Y010293D01*
X005383Y010273D01*
X005379Y010253D01*
X005379Y010231D01*
X005383Y010211D01*
X005391Y010191D01*
X005402Y010173D01*
X005416Y010157D01*
X005433Y010144D01*
X005452Y010135D01*
X005472Y010129D01*
X005494Y010127D01*
X005494Y010128D01*
X005473Y010130D01*
X005452Y010136D01*
X005434Y010145D01*
X005417Y010158D01*
X005403Y010173D01*
X005392Y010191D01*
X005384Y010211D01*
X005380Y010232D01*
X005380Y010252D01*
X005384Y010273D01*
X005392Y010293D01*
X005403Y010311D01*
X005417Y010326D01*
X005434Y010339D01*
X005452Y010348D01*
X005473Y010354D01*
X005494Y010356D01*
X005494Y010355D01*
X005473Y010353D01*
X005453Y010347D01*
X005434Y010338D01*
X005418Y010325D01*
X005404Y010310D01*
X005393Y010292D01*
X005385Y010273D01*
X005381Y010252D01*
X005381Y010232D01*
X005385Y010211D01*
X005393Y010192D01*
X005404Y010174D01*
X005418Y010159D01*
X005434Y010146D01*
X005453Y010137D01*
X005473Y010131D01*
X005494Y010129D01*
X005494Y010130D01*
X005473Y010132D01*
X005453Y010138D01*
X005435Y010147D01*
X005418Y010159D01*
X005404Y010175D01*
X005394Y010192D01*
X005386Y010211D01*
X005382Y010232D01*
X005382Y010252D01*
X005386Y010273D01*
X005394Y010292D01*
X005404Y010309D01*
X005418Y010325D01*
X005435Y010337D01*
X005453Y010346D01*
X005473Y010352D01*
X005494Y010354D01*
X005494Y010353D01*
X005473Y010351D01*
X005454Y010345D01*
X005435Y010336D01*
X005419Y010324D01*
X005405Y010309D01*
X005395Y010291D01*
X005387Y010272D01*
X005383Y010252D01*
X005383Y010232D01*
X005387Y010212D01*
X005395Y010193D01*
X005405Y010175D01*
X005419Y010160D01*
X005435Y010148D01*
X005454Y010139D01*
X005473Y010133D01*
X005494Y010131D01*
X005494Y010132D01*
X005473Y010134D01*
X005454Y010140D01*
X005436Y010149D01*
X005420Y010161D01*
X005406Y010176D01*
X005395Y010193D01*
X005388Y010212D01*
X005384Y010232D01*
X005384Y010252D01*
X005388Y010272D01*
X005395Y010291D01*
X005406Y010308D01*
X005420Y010323D01*
X005436Y010335D01*
X005454Y010344D01*
X005473Y010350D01*
X005494Y010352D01*
X005494Y010351D01*
X005472Y010349D01*
X005452Y010343D01*
X005433Y010332D01*
X005417Y010319D01*
X005403Y010302D01*
X005393Y010284D01*
X005387Y010263D01*
X005385Y010242D01*
X005387Y010221D01*
X005393Y010200D01*
X005403Y010182D01*
X005417Y010165D01*
X005433Y010152D01*
X005452Y010141D01*
X005472Y010135D01*
X005494Y010133D01*
X005494Y010134D01*
X005473Y010136D01*
X005452Y010142D01*
X005434Y010152D01*
X005417Y010166D01*
X005404Y010182D01*
X005394Y010201D01*
X005388Y010221D01*
X005386Y010242D01*
X005388Y010263D01*
X005394Y010283D01*
X005404Y010302D01*
X005417Y010318D01*
X005434Y010332D01*
X005452Y010342D01*
X005473Y010348D01*
X005494Y010350D01*
X005494Y010349D01*
X005473Y010347D01*
X005453Y010341D01*
X005434Y010331D01*
X005418Y010317D01*
X005405Y010301D01*
X005395Y010283D01*
X005389Y010263D01*
X005387Y010242D01*
X005389Y010221D01*
X005395Y010201D01*
X005405Y010183D01*
X005418Y010167D01*
X005434Y010153D01*
X005453Y010143D01*
X005473Y010137D01*
X005494Y010135D01*
X005494Y010136D01*
X005473Y010138D01*
X005453Y010144D01*
X005435Y010154D01*
X005419Y010167D01*
X005406Y010183D01*
X005396Y010202D01*
X005390Y010221D01*
X005388Y010242D01*
X005390Y010263D01*
X005396Y010282D01*
X005406Y010301D01*
X005419Y010317D01*
X005435Y010330D01*
X005453Y010340D01*
X005473Y010346D01*
X005494Y010348D01*
X005494Y010347D01*
X005473Y010345D01*
X005453Y010339D01*
X005435Y010329D01*
X005420Y010316D01*
X005407Y010300D01*
X005397Y010282D01*
X005391Y010262D01*
X005389Y010242D01*
X005391Y010222D01*
X005397Y010202D01*
X005407Y010184D01*
X005420Y010168D01*
X005435Y010155D01*
X005453Y010145D01*
X005473Y010139D01*
X005494Y010137D01*
X005494Y010138D01*
X005473Y010140D01*
X005454Y010146D01*
X005436Y010156D01*
X005420Y010169D01*
X005407Y010184D01*
X005398Y010202D01*
X005392Y010222D01*
X005390Y010242D01*
X005392Y010262D01*
X005398Y010282D01*
X005407Y010300D01*
X005420Y010315D01*
X005436Y010328D01*
X005454Y010338D01*
X005473Y010344D01*
X005494Y010346D01*
X005494Y010345D01*
X005473Y010343D01*
X005454Y010337D01*
X005437Y010327D01*
X005421Y010315D01*
X005408Y010299D01*
X005399Y010281D01*
X005393Y010262D01*
X005391Y010242D01*
X005393Y010222D01*
X005399Y010203D01*
X005408Y010185D01*
X005421Y010169D01*
X005437Y010157D01*
X005454Y010147D01*
X005473Y010141D01*
X005494Y010139D01*
X005494Y010140D01*
X005474Y010142D01*
X005455Y010148D01*
X005437Y010157D01*
X005422Y010170D01*
X005409Y010185D01*
X005400Y010203D01*
X005394Y010222D01*
X005392Y010242D01*
X005394Y010262D01*
X005400Y010281D01*
X005409Y010299D01*
X005422Y010314D01*
X005437Y010327D01*
X005455Y010336D01*
X005474Y010342D01*
X005494Y010344D01*
X005494Y010343D01*
X005474Y010341D01*
X005455Y010335D01*
X005438Y010326D01*
X005422Y010313D01*
X005410Y010298D01*
X005401Y010281D01*
X005395Y010262D01*
X005393Y010242D01*
X005395Y010222D01*
X005401Y010203D01*
X005410Y010186D01*
X005422Y010171D01*
X005438Y010158D01*
X005455Y010149D01*
X005474Y010143D01*
X005494Y010141D01*
X005494Y010142D01*
X005474Y010144D01*
X005455Y010150D01*
X005438Y010159D01*
X005423Y010171D01*
X005411Y010187D01*
X005402Y010204D01*
X005396Y010223D01*
X005394Y010242D01*
X005396Y010261D01*
X005402Y010280D01*
X005411Y010297D01*
X005423Y010313D01*
X005438Y010325D01*
X005455Y010334D01*
X005474Y010340D01*
X005494Y010342D01*
X004844Y010105D02*
X004844Y010144D01*
X004844Y010143D02*
X004864Y010145D01*
X004882Y010151D01*
X004899Y010160D01*
X004914Y010172D01*
X004926Y010187D01*
X004936Y010204D01*
X004941Y010223D01*
X004943Y010242D01*
X004941Y010261D01*
X004936Y010280D01*
X004926Y010297D01*
X004914Y010312D01*
X004899Y010324D01*
X004882Y010333D01*
X004864Y010339D01*
X004844Y010341D01*
X004844Y010379D01*
X004844Y010380D01*
X004868Y010378D01*
X004892Y010372D01*
X004913Y010361D01*
X004933Y010348D01*
X004950Y010331D01*
X004964Y010311D01*
X004974Y010289D01*
X004980Y010266D01*
X004982Y010242D01*
X004980Y010218D01*
X004974Y010195D01*
X004964Y010173D01*
X004950Y010153D01*
X004933Y010136D01*
X004913Y010123D01*
X004892Y010112D01*
X004868Y010106D01*
X004844Y010104D01*
X004844Y010105D01*
X004868Y010107D01*
X004891Y010113D01*
X004913Y010124D01*
X004932Y010137D01*
X004949Y010154D01*
X004963Y010174D01*
X004973Y010195D01*
X004979Y010218D01*
X004981Y010242D01*
X004979Y010266D01*
X004973Y010289D01*
X004963Y010310D01*
X004949Y010330D01*
X004932Y010347D01*
X004913Y010360D01*
X004891Y010371D01*
X004868Y010377D01*
X004844Y010379D01*
X004844Y010378D01*
X004868Y010376D01*
X004891Y010370D01*
X004912Y010360D01*
X004932Y010346D01*
X004948Y010329D01*
X004962Y010310D01*
X004972Y010288D01*
X004978Y010266D01*
X004980Y010242D01*
X004978Y010218D01*
X004972Y010196D01*
X004962Y010174D01*
X004948Y010155D01*
X004932Y010138D01*
X004912Y010124D01*
X004891Y010114D01*
X004868Y010108D01*
X004844Y010106D01*
X004844Y010107D01*
X004868Y010109D01*
X004891Y010115D01*
X004912Y010125D01*
X004931Y010139D01*
X004948Y010155D01*
X004961Y010175D01*
X004971Y010196D01*
X004977Y010219D01*
X004979Y010242D01*
X004977Y010265D01*
X004971Y010288D01*
X004961Y010309D01*
X004948Y010329D01*
X004931Y010345D01*
X004912Y010359D01*
X004891Y010369D01*
X004868Y010375D01*
X004844Y010377D01*
X004844Y010376D01*
X004868Y010374D01*
X004890Y010368D01*
X004911Y010358D01*
X004930Y010344D01*
X004947Y010328D01*
X004960Y010309D01*
X004970Y010288D01*
X004976Y010265D01*
X004978Y010242D01*
X004976Y010219D01*
X004970Y010196D01*
X004960Y010175D01*
X004947Y010156D01*
X004930Y010140D01*
X004911Y010126D01*
X004890Y010116D01*
X004868Y010110D01*
X004844Y010108D01*
X004844Y010109D01*
X004868Y010111D01*
X004890Y010117D01*
X004911Y010127D01*
X004930Y010140D01*
X004946Y010157D01*
X004959Y010176D01*
X004969Y010197D01*
X004975Y010219D01*
X004977Y010242D01*
X004975Y010265D01*
X004969Y010287D01*
X004959Y010308D01*
X004946Y010327D01*
X004930Y010344D01*
X004911Y010357D01*
X004890Y010367D01*
X004868Y010373D01*
X004844Y010375D01*
X004844Y010374D01*
X004867Y010372D01*
X004890Y010366D01*
X004910Y010356D01*
X004929Y010343D01*
X004945Y010327D01*
X004958Y010308D01*
X004968Y010287D01*
X004974Y010265D01*
X004976Y010242D01*
X004974Y010219D01*
X004968Y010197D01*
X004958Y010176D01*
X004945Y010157D01*
X004929Y010141D01*
X004910Y010128D01*
X004890Y010118D01*
X004867Y010112D01*
X004844Y010110D01*
X004844Y010111D01*
X004867Y010113D01*
X004889Y010119D01*
X004910Y010129D01*
X004928Y010142D01*
X004944Y010158D01*
X004958Y010177D01*
X004967Y010197D01*
X004973Y010219D01*
X004975Y010242D01*
X004973Y010265D01*
X004967Y010287D01*
X004958Y010307D01*
X004944Y010326D01*
X004928Y010342D01*
X004910Y010355D01*
X004889Y010365D01*
X004867Y010371D01*
X004844Y010373D01*
X004844Y010372D01*
X004867Y010370D01*
X004889Y010364D01*
X004909Y010354D01*
X004928Y010341D01*
X004944Y010325D01*
X004957Y010307D01*
X004966Y010286D01*
X004972Y010265D01*
X004974Y010242D01*
X004972Y010219D01*
X004966Y010198D01*
X004957Y010177D01*
X004944Y010159D01*
X004928Y010143D01*
X004909Y010130D01*
X004889Y010120D01*
X004867Y010114D01*
X004844Y010112D01*
X004844Y010113D01*
X004867Y010115D01*
X004888Y010121D01*
X004909Y010130D01*
X004927Y010143D01*
X004943Y010159D01*
X004956Y010178D01*
X004965Y010198D01*
X004971Y010220D01*
X004973Y010242D01*
X004971Y010264D01*
X004965Y010286D01*
X004956Y010306D01*
X004943Y010325D01*
X004927Y010341D01*
X004909Y010354D01*
X004888Y010363D01*
X004867Y010369D01*
X004844Y010371D01*
X004844Y010370D01*
X004867Y010368D01*
X004888Y010362D01*
X004908Y010353D01*
X004926Y010340D01*
X004942Y010324D01*
X004955Y010306D01*
X004964Y010286D01*
X004970Y010264D01*
X004972Y010242D01*
X004970Y010220D01*
X004964Y010198D01*
X004955Y010178D01*
X004942Y010160D01*
X004926Y010144D01*
X004908Y010131D01*
X004888Y010122D01*
X004867Y010116D01*
X004844Y010114D01*
X004844Y010115D01*
X004866Y010117D01*
X004888Y010123D01*
X004908Y010132D01*
X004926Y010145D01*
X004941Y010161D01*
X004954Y010179D01*
X004963Y010199D01*
X004969Y010220D01*
X004971Y010242D01*
X004969Y010264D01*
X004963Y010285D01*
X004954Y010305D01*
X004941Y010323D01*
X004926Y010339D01*
X004908Y010352D01*
X004888Y010361D01*
X004866Y010367D01*
X004844Y010369D01*
X004844Y010368D01*
X004866Y010366D01*
X004887Y010360D01*
X004907Y010351D01*
X004925Y010338D01*
X004941Y010323D01*
X004953Y010305D01*
X004962Y010285D01*
X004968Y010264D01*
X004970Y010242D01*
X004968Y010220D01*
X004962Y010199D01*
X004953Y010179D01*
X004941Y010161D01*
X004925Y010146D01*
X004907Y010133D01*
X004887Y010124D01*
X004866Y010118D01*
X004844Y010116D01*
X004844Y010117D01*
X004866Y010119D01*
X004887Y010125D01*
X004907Y010134D01*
X004925Y010146D01*
X004940Y010162D01*
X004952Y010180D01*
X004961Y010199D01*
X004967Y010220D01*
X004969Y010242D01*
X004967Y010264D01*
X004961Y010285D01*
X004952Y010304D01*
X004940Y010322D01*
X004925Y010338D01*
X004907Y010350D01*
X004887Y010359D01*
X004866Y010365D01*
X004844Y010367D01*
X004844Y010366D01*
X004866Y010364D01*
X004887Y010358D01*
X004906Y010349D01*
X004924Y010337D01*
X004939Y010322D01*
X004951Y010304D01*
X004961Y010284D01*
X004966Y010263D01*
X004968Y010242D01*
X004966Y010221D01*
X004961Y010200D01*
X004951Y010180D01*
X004939Y010162D01*
X004924Y010147D01*
X004906Y010135D01*
X004887Y010126D01*
X004866Y010120D01*
X004844Y010118D01*
X004844Y010119D01*
X004867Y010121D01*
X004889Y010127D01*
X004909Y010138D01*
X004927Y010151D01*
X004942Y010168D01*
X004954Y010187D01*
X004962Y010208D01*
X004966Y010231D01*
X004966Y010253D01*
X004962Y010276D01*
X004954Y010297D01*
X004942Y010316D01*
X004927Y010333D01*
X004909Y010346D01*
X004889Y010357D01*
X004867Y010363D01*
X004844Y010365D01*
X004844Y010364D01*
X004867Y010362D01*
X004888Y010356D01*
X004908Y010346D01*
X004926Y010332D01*
X004941Y010315D01*
X004953Y010296D01*
X004961Y010275D01*
X004965Y010253D01*
X004965Y010231D01*
X004961Y010209D01*
X004953Y010188D01*
X004941Y010169D01*
X004926Y010152D01*
X004908Y010138D01*
X004888Y010128D01*
X004867Y010122D01*
X004844Y010120D01*
X004844Y010121D01*
X004867Y010123D01*
X004888Y010129D01*
X004908Y010139D01*
X004926Y010153D01*
X004941Y010169D01*
X004952Y010188D01*
X004960Y010209D01*
X004964Y010231D01*
X004964Y010253D01*
X004960Y010275D01*
X004952Y010296D01*
X004941Y010315D01*
X004926Y010331D01*
X004908Y010345D01*
X004888Y010355D01*
X004867Y010361D01*
X004844Y010363D01*
X004844Y010362D01*
X004866Y010360D01*
X004888Y010354D01*
X004907Y010344D01*
X004925Y010331D01*
X004940Y010314D01*
X004951Y010295D01*
X004959Y010275D01*
X004963Y010253D01*
X004963Y010231D01*
X004959Y010209D01*
X004951Y010189D01*
X004940Y010170D01*
X004925Y010153D01*
X004907Y010140D01*
X004888Y010130D01*
X004866Y010124D01*
X004844Y010122D01*
X004844Y010123D01*
X004866Y010125D01*
X004887Y010131D01*
X004907Y010141D01*
X004924Y010154D01*
X004939Y010170D01*
X004951Y010189D01*
X004958Y010210D01*
X004962Y010231D01*
X004962Y010253D01*
X004958Y010274D01*
X004951Y010295D01*
X004939Y010314D01*
X004924Y010330D01*
X004907Y010343D01*
X004887Y010353D01*
X004866Y010359D01*
X004844Y010361D01*
X004844Y010360D01*
X004866Y010358D01*
X004887Y010352D01*
X004906Y010342D01*
X004924Y010329D01*
X004938Y010313D01*
X004950Y010294D01*
X004958Y010274D01*
X004961Y010253D01*
X004961Y010231D01*
X004958Y010210D01*
X004950Y010190D01*
X004938Y010171D01*
X004924Y010155D01*
X004906Y010142D01*
X004887Y010132D01*
X004866Y010126D01*
X004844Y010124D01*
X004844Y010125D01*
X004866Y010127D01*
X004887Y010133D01*
X004906Y010143D01*
X004923Y010156D01*
X004937Y010172D01*
X004949Y010190D01*
X004957Y010210D01*
X004961Y010231D01*
X004961Y010253D01*
X004957Y010274D01*
X004949Y010294D01*
X004937Y010312D01*
X004923Y010328D01*
X004906Y010341D01*
X004887Y010351D01*
X004866Y010357D01*
X004844Y010359D01*
X004844Y010358D01*
X004866Y010356D01*
X004886Y010350D01*
X004905Y010340D01*
X004922Y010328D01*
X004937Y010312D01*
X004948Y010294D01*
X004956Y010274D01*
X004960Y010253D01*
X004960Y010231D01*
X004956Y010210D01*
X004948Y010190D01*
X004937Y010172D01*
X004922Y010156D01*
X004905Y010144D01*
X004886Y010134D01*
X004866Y010128D01*
X004844Y010126D01*
X004844Y010127D01*
X004866Y010129D01*
X004886Y010135D01*
X004905Y010144D01*
X004922Y010157D01*
X004936Y010173D01*
X004947Y010191D01*
X004955Y010211D01*
X004959Y010231D01*
X004959Y010253D01*
X004955Y010273D01*
X004947Y010293D01*
X004936Y010311D01*
X004922Y010327D01*
X004905Y010340D01*
X004886Y010349D01*
X004866Y010355D01*
X004844Y010357D01*
X004844Y010356D01*
X004865Y010354D01*
X004886Y010348D01*
X004904Y010339D01*
X004921Y010326D01*
X004935Y010311D01*
X004946Y010293D01*
X004954Y010273D01*
X004958Y010252D01*
X004958Y010232D01*
X004954Y010211D01*
X004946Y010191D01*
X004935Y010173D01*
X004921Y010158D01*
X004904Y010145D01*
X004886Y010136D01*
X004865Y010130D01*
X004844Y010128D01*
X004844Y010129D01*
X004865Y010131D01*
X004885Y010137D01*
X004904Y010146D01*
X004920Y010159D01*
X004934Y010174D01*
X004945Y010192D01*
X004953Y010211D01*
X004957Y010232D01*
X004957Y010252D01*
X004953Y010273D01*
X004945Y010292D01*
X004934Y010310D01*
X004920Y010325D01*
X004904Y010338D01*
X004885Y010347D01*
X004865Y010353D01*
X004844Y010355D01*
X004844Y010354D01*
X004865Y010352D01*
X004885Y010346D01*
X004903Y010337D01*
X004920Y010325D01*
X004934Y010309D01*
X004944Y010292D01*
X004952Y010273D01*
X004956Y010252D01*
X004956Y010232D01*
X004952Y010211D01*
X004944Y010192D01*
X004934Y010175D01*
X004920Y010159D01*
X004903Y010147D01*
X004885Y010138D01*
X004865Y010132D01*
X004844Y010130D01*
X004844Y010131D01*
X004865Y010133D01*
X004884Y010139D01*
X004903Y010148D01*
X004919Y010160D01*
X004933Y010175D01*
X004943Y010193D01*
X004951Y010212D01*
X004955Y010232D01*
X004955Y010252D01*
X004951Y010272D01*
X004943Y010291D01*
X004933Y010309D01*
X004919Y010324D01*
X004903Y010336D01*
X004884Y010345D01*
X004865Y010351D01*
X004844Y010353D01*
X004844Y010352D01*
X004865Y010350D01*
X004884Y010344D01*
X004902Y010335D01*
X004918Y010323D01*
X004932Y010308D01*
X004943Y010291D01*
X004950Y010272D01*
X004954Y010252D01*
X004954Y010232D01*
X004950Y010212D01*
X004943Y010193D01*
X004932Y010176D01*
X004918Y010161D01*
X004902Y010149D01*
X004884Y010140D01*
X004865Y010134D01*
X004844Y010132D01*
X004844Y010133D01*
X004866Y010135D01*
X004886Y010141D01*
X004905Y010152D01*
X004921Y010165D01*
X004935Y010182D01*
X004945Y010200D01*
X004951Y010221D01*
X004953Y010242D01*
X004951Y010263D01*
X004945Y010284D01*
X004935Y010302D01*
X004921Y010319D01*
X004905Y010332D01*
X004886Y010343D01*
X004866Y010349D01*
X004844Y010351D01*
X004844Y010350D01*
X004865Y010348D01*
X004886Y010342D01*
X004904Y010332D01*
X004921Y010318D01*
X004934Y010302D01*
X004944Y010283D01*
X004950Y010263D01*
X004952Y010242D01*
X004950Y010221D01*
X004944Y010201D01*
X004934Y010182D01*
X004921Y010166D01*
X004904Y010152D01*
X004886Y010142D01*
X004865Y010136D01*
X004844Y010134D01*
X004844Y010135D01*
X004865Y010137D01*
X004885Y010143D01*
X004904Y010153D01*
X004920Y010167D01*
X004933Y010183D01*
X004943Y010201D01*
X004949Y010221D01*
X004951Y010242D01*
X004949Y010263D01*
X004943Y010283D01*
X004933Y010301D01*
X004920Y010317D01*
X004904Y010331D01*
X004885Y010341D01*
X004865Y010347D01*
X004844Y010349D01*
X004844Y010348D01*
X004865Y010346D01*
X004885Y010340D01*
X004903Y010330D01*
X004919Y010317D01*
X004932Y010301D01*
X004942Y010282D01*
X004948Y010263D01*
X004950Y010242D01*
X004948Y010221D01*
X004942Y010202D01*
X004932Y010183D01*
X004919Y010167D01*
X004903Y010154D01*
X004885Y010144D01*
X004865Y010138D01*
X004844Y010136D01*
X004844Y010137D01*
X004865Y010139D01*
X004885Y010145D01*
X004903Y010155D01*
X004918Y010168D01*
X004931Y010184D01*
X004941Y010202D01*
X004947Y010222D01*
X004949Y010242D01*
X004947Y010262D01*
X004941Y010282D01*
X004931Y010300D01*
X004918Y010316D01*
X004903Y010329D01*
X004885Y010339D01*
X004865Y010345D01*
X004844Y010347D01*
X004844Y010346D01*
X004865Y010344D01*
X004884Y010338D01*
X004902Y010328D01*
X004918Y010315D01*
X004931Y010300D01*
X004940Y010282D01*
X004946Y010262D01*
X004948Y010242D01*
X004946Y010222D01*
X004940Y010202D01*
X004931Y010184D01*
X004918Y010169D01*
X004902Y010156D01*
X004884Y010146D01*
X004865Y010140D01*
X004844Y010138D01*
X004844Y010139D01*
X004865Y010141D01*
X004884Y010147D01*
X004901Y010157D01*
X004917Y010169D01*
X004930Y010185D01*
X004939Y010203D01*
X004945Y010222D01*
X004947Y010242D01*
X004945Y010262D01*
X004939Y010281D01*
X004930Y010299D01*
X004917Y010315D01*
X004901Y010327D01*
X004884Y010337D01*
X004865Y010343D01*
X004844Y010345D01*
X004844Y010344D01*
X004864Y010342D01*
X004883Y010336D01*
X004901Y010327D01*
X004916Y010314D01*
X004929Y010299D01*
X004938Y010281D01*
X004944Y010262D01*
X004946Y010242D01*
X004944Y010222D01*
X004938Y010203D01*
X004929Y010185D01*
X004916Y010170D01*
X004901Y010157D01*
X004883Y010148D01*
X004864Y010142D01*
X004844Y010140D01*
X004844Y010141D01*
X004864Y010143D01*
X004883Y010149D01*
X004900Y010158D01*
X004916Y010171D01*
X004928Y010186D01*
X004937Y010203D01*
X004943Y010222D01*
X004945Y010242D01*
X004943Y010262D01*
X004937Y010281D01*
X004928Y010298D01*
X004916Y010313D01*
X004900Y010326D01*
X004883Y010335D01*
X004864Y010341D01*
X004844Y010343D01*
X004844Y010342D01*
X004864Y010340D01*
X004883Y010334D01*
X004900Y010325D01*
X004915Y010313D01*
X004927Y010297D01*
X004936Y010280D01*
X004942Y010261D01*
X004944Y010242D01*
X004942Y010223D01*
X004936Y010204D01*
X004927Y010187D01*
X004915Y010171D01*
X004900Y010159D01*
X004883Y010150D01*
X004864Y010144D01*
X004844Y010142D01*
X004844Y010855D02*
X004844Y010894D01*
X004844Y010893D02*
X004864Y010895D01*
X004882Y010901D01*
X004899Y010910D01*
X004914Y010922D01*
X004926Y010937D01*
X004936Y010954D01*
X004941Y010973D01*
X004943Y010992D01*
X004941Y011011D01*
X004936Y011030D01*
X004926Y011047D01*
X004914Y011062D01*
X004899Y011074D01*
X004882Y011083D01*
X004864Y011089D01*
X004844Y011091D01*
X004844Y011129D01*
X004844Y011130D01*
X004868Y011128D01*
X004892Y011122D01*
X004913Y011111D01*
X004933Y011098D01*
X004950Y011081D01*
X004964Y011061D01*
X004974Y011039D01*
X004980Y011016D01*
X004982Y010992D01*
X004980Y010968D01*
X004974Y010945D01*
X004964Y010923D01*
X004950Y010903D01*
X004933Y010886D01*
X004913Y010873D01*
X004892Y010862D01*
X004868Y010856D01*
X004844Y010854D01*
X004844Y010855D01*
X004868Y010857D01*
X004891Y010863D01*
X004913Y010874D01*
X004932Y010887D01*
X004949Y010904D01*
X004963Y010924D01*
X004973Y010945D01*
X004979Y010968D01*
X004981Y010992D01*
X004979Y011016D01*
X004973Y011039D01*
X004963Y011060D01*
X004949Y011080D01*
X004932Y011097D01*
X004913Y011110D01*
X004891Y011121D01*
X004868Y011127D01*
X004844Y011129D01*
X004844Y011128D01*
X004868Y011126D01*
X004891Y011120D01*
X004912Y011110D01*
X004932Y011096D01*
X004948Y011079D01*
X004962Y011060D01*
X004972Y011038D01*
X004978Y011016D01*
X004980Y010992D01*
X004978Y010968D01*
X004972Y010946D01*
X004962Y010924D01*
X004948Y010905D01*
X004932Y010888D01*
X004912Y010874D01*
X004891Y010864D01*
X004868Y010858D01*
X004844Y010856D01*
X004844Y010857D01*
X004868Y010859D01*
X004891Y010865D01*
X004912Y010875D01*
X004931Y010889D01*
X004948Y010905D01*
X004961Y010925D01*
X004971Y010946D01*
X004977Y010969D01*
X004979Y010992D01*
X004977Y011015D01*
X004971Y011038D01*
X004961Y011059D01*
X004948Y011079D01*
X004931Y011095D01*
X004912Y011109D01*
X004891Y011119D01*
X004868Y011125D01*
X004844Y011127D01*
X004844Y011126D01*
X004868Y011124D01*
X004890Y011118D01*
X004911Y011108D01*
X004930Y011094D01*
X004947Y011078D01*
X004960Y011059D01*
X004970Y011038D01*
X004976Y011015D01*
X004978Y010992D01*
X004976Y010969D01*
X004970Y010946D01*
X004960Y010925D01*
X004947Y010906D01*
X004930Y010890D01*
X004911Y010876D01*
X004890Y010866D01*
X004868Y010860D01*
X004844Y010858D01*
X004844Y010859D01*
X004868Y010861D01*
X004890Y010867D01*
X004911Y010877D01*
X004930Y010890D01*
X004946Y010907D01*
X004959Y010926D01*
X004969Y010947D01*
X004975Y010969D01*
X004977Y010992D01*
X004975Y011015D01*
X004969Y011037D01*
X004959Y011058D01*
X004946Y011077D01*
X004930Y011094D01*
X004911Y011107D01*
X004890Y011117D01*
X004868Y011123D01*
X004844Y011125D01*
X004844Y011124D01*
X004867Y011122D01*
X004890Y011116D01*
X004910Y011106D01*
X004929Y011093D01*
X004945Y011077D01*
X004958Y011058D01*
X004968Y011037D01*
X004974Y011015D01*
X004976Y010992D01*
X004974Y010969D01*
X004968Y010947D01*
X004958Y010926D01*
X004945Y010907D01*
X004929Y010891D01*
X004910Y010878D01*
X004890Y010868D01*
X004867Y010862D01*
X004844Y010860D01*
X004844Y010861D01*
X004867Y010863D01*
X004889Y010869D01*
X004910Y010879D01*
X004928Y010892D01*
X004944Y010908D01*
X004958Y010927D01*
X004967Y010947D01*
X004973Y010969D01*
X004975Y010992D01*
X004973Y011015D01*
X004967Y011037D01*
X004958Y011057D01*
X004944Y011076D01*
X004928Y011092D01*
X004910Y011105D01*
X004889Y011115D01*
X004867Y011121D01*
X004844Y011123D01*
X004844Y011122D01*
X004867Y011120D01*
X004889Y011114D01*
X004909Y011104D01*
X004928Y011091D01*
X004944Y011075D01*
X004957Y011057D01*
X004966Y011036D01*
X004972Y011015D01*
X004974Y010992D01*
X004972Y010969D01*
X004966Y010948D01*
X004957Y010927D01*
X004944Y010909D01*
X004928Y010893D01*
X004909Y010880D01*
X004889Y010870D01*
X004867Y010864D01*
X004844Y010862D01*
X004844Y010863D01*
X004867Y010865D01*
X004888Y010871D01*
X004909Y010880D01*
X004927Y010893D01*
X004943Y010909D01*
X004956Y010928D01*
X004965Y010948D01*
X004971Y010970D01*
X004973Y010992D01*
X004971Y011014D01*
X004965Y011036D01*
X004956Y011056D01*
X004943Y011075D01*
X004927Y011091D01*
X004909Y011104D01*
X004888Y011113D01*
X004867Y011119D01*
X004844Y011121D01*
X004844Y011120D01*
X004867Y011118D01*
X004888Y011112D01*
X004908Y011103D01*
X004926Y011090D01*
X004942Y011074D01*
X004955Y011056D01*
X004964Y011036D01*
X004970Y011014D01*
X004972Y010992D01*
X004970Y010970D01*
X004964Y010948D01*
X004955Y010928D01*
X004942Y010910D01*
X004926Y010894D01*
X004908Y010881D01*
X004888Y010872D01*
X004867Y010866D01*
X004844Y010864D01*
X004844Y010865D01*
X004866Y010867D01*
X004888Y010873D01*
X004908Y010882D01*
X004926Y010895D01*
X004941Y010911D01*
X004954Y010929D01*
X004963Y010949D01*
X004969Y010970D01*
X004971Y010992D01*
X004969Y011014D01*
X004963Y011035D01*
X004954Y011055D01*
X004941Y011073D01*
X004926Y011089D01*
X004908Y011102D01*
X004888Y011111D01*
X004866Y011117D01*
X004844Y011119D01*
X004844Y011118D01*
X004866Y011116D01*
X004887Y011110D01*
X004907Y011101D01*
X004925Y011088D01*
X004941Y011073D01*
X004953Y011055D01*
X004962Y011035D01*
X004968Y011014D01*
X004970Y010992D01*
X004968Y010970D01*
X004962Y010949D01*
X004953Y010929D01*
X004941Y010911D01*
X004925Y010896D01*
X004907Y010883D01*
X004887Y010874D01*
X004866Y010868D01*
X004844Y010866D01*
X004844Y010867D01*
X004866Y010869D01*
X004887Y010875D01*
X004907Y010884D01*
X004925Y010896D01*
X004940Y010912D01*
X004952Y010930D01*
X004961Y010949D01*
X004967Y010970D01*
X004969Y010992D01*
X004967Y011014D01*
X004961Y011035D01*
X004952Y011054D01*
X004940Y011072D01*
X004925Y011088D01*
X004907Y011100D01*
X004887Y011109D01*
X004866Y011115D01*
X004844Y011117D01*
X004844Y011116D01*
X004866Y011114D01*
X004887Y011108D01*
X004906Y011099D01*
X004924Y011087D01*
X004939Y011072D01*
X004951Y011054D01*
X004961Y011034D01*
X004966Y011013D01*
X004968Y010992D01*
X004966Y010971D01*
X004961Y010950D01*
X004951Y010930D01*
X004939Y010912D01*
X004924Y010897D01*
X004906Y010885D01*
X004887Y010876D01*
X004866Y010870D01*
X004844Y010868D01*
X004844Y010869D01*
X004867Y010871D01*
X004889Y010877D01*
X004909Y010888D01*
X004927Y010901D01*
X004942Y010918D01*
X004954Y010937D01*
X004962Y010958D01*
X004966Y010981D01*
X004966Y011003D01*
X004962Y011026D01*
X004954Y011047D01*
X004942Y011066D01*
X004927Y011083D01*
X004909Y011096D01*
X004889Y011107D01*
X004867Y011113D01*
X004844Y011115D01*
X004844Y011114D01*
X004867Y011112D01*
X004888Y011106D01*
X004908Y011096D01*
X004926Y011082D01*
X004941Y011065D01*
X004953Y011046D01*
X004961Y011025D01*
X004965Y011003D01*
X004965Y010981D01*
X004961Y010959D01*
X004953Y010938D01*
X004941Y010919D01*
X004926Y010902D01*
X004908Y010888D01*
X004888Y010878D01*
X004867Y010872D01*
X004844Y010870D01*
X004844Y010871D01*
X004867Y010873D01*
X004888Y010879D01*
X004908Y010889D01*
X004926Y010903D01*
X004941Y010919D01*
X004952Y010938D01*
X004960Y010959D01*
X004964Y010981D01*
X004964Y011003D01*
X004960Y011025D01*
X004952Y011046D01*
X004941Y011065D01*
X004926Y011081D01*
X004908Y011095D01*
X004888Y011105D01*
X004867Y011111D01*
X004844Y011113D01*
X004844Y011112D01*
X004866Y011110D01*
X004888Y011104D01*
X004907Y011094D01*
X004925Y011081D01*
X004940Y011064D01*
X004951Y011045D01*
X004959Y011025D01*
X004963Y011003D01*
X004963Y010981D01*
X004959Y010959D01*
X004951Y010939D01*
X004940Y010920D01*
X004925Y010903D01*
X004907Y010890D01*
X004888Y010880D01*
X004866Y010874D01*
X004844Y010872D01*
X004844Y010873D01*
X004866Y010875D01*
X004887Y010881D01*
X004907Y010891D01*
X004924Y010904D01*
X004939Y010920D01*
X004951Y010939D01*
X004958Y010960D01*
X004962Y010981D01*
X004962Y011003D01*
X004958Y011024D01*
X004951Y011045D01*
X004939Y011064D01*
X004924Y011080D01*
X004907Y011093D01*
X004887Y011103D01*
X004866Y011109D01*
X004844Y011111D01*
X004844Y011110D01*
X004866Y011108D01*
X004887Y011102D01*
X004906Y011092D01*
X004924Y011079D01*
X004938Y011063D01*
X004950Y011044D01*
X004958Y011024D01*
X004961Y011003D01*
X004961Y010981D01*
X004958Y010960D01*
X004950Y010940D01*
X004938Y010921D01*
X004924Y010905D01*
X004906Y010892D01*
X004887Y010882D01*
X004866Y010876D01*
X004844Y010874D01*
X004844Y010875D01*
X004866Y010877D01*
X004887Y010883D01*
X004906Y010893D01*
X004923Y010906D01*
X004937Y010922D01*
X004949Y010940D01*
X004957Y010960D01*
X004961Y010981D01*
X004961Y011003D01*
X004957Y011024D01*
X004949Y011044D01*
X004937Y011062D01*
X004923Y011078D01*
X004906Y011091D01*
X004887Y011101D01*
X004866Y011107D01*
X004844Y011109D01*
X004844Y011108D01*
X004866Y011106D01*
X004886Y011100D01*
X004905Y011090D01*
X004922Y011078D01*
X004937Y011062D01*
X004948Y011044D01*
X004956Y011024D01*
X004960Y011003D01*
X004960Y010981D01*
X004956Y010960D01*
X004948Y010940D01*
X004937Y010922D01*
X004922Y010906D01*
X004905Y010894D01*
X004886Y010884D01*
X004866Y010878D01*
X004844Y010876D01*
X004844Y010877D01*
X004866Y010879D01*
X004886Y010885D01*
X004905Y010894D01*
X004922Y010907D01*
X004936Y010923D01*
X004947Y010941D01*
X004955Y010961D01*
X004959Y010981D01*
X004959Y011003D01*
X004955Y011023D01*
X004947Y011043D01*
X004936Y011061D01*
X004922Y011077D01*
X004905Y011090D01*
X004886Y011099D01*
X004866Y011105D01*
X004844Y011107D01*
X004844Y011106D01*
X004865Y011104D01*
X004886Y011098D01*
X004904Y011089D01*
X004921Y011076D01*
X004935Y011061D01*
X004946Y011043D01*
X004954Y011023D01*
X004958Y011002D01*
X004958Y010982D01*
X004954Y010961D01*
X004946Y010941D01*
X004935Y010923D01*
X004921Y010908D01*
X004904Y010895D01*
X004886Y010886D01*
X004865Y010880D01*
X004844Y010878D01*
X004844Y010879D01*
X004865Y010881D01*
X004885Y010887D01*
X004904Y010896D01*
X004920Y010909D01*
X004934Y010924D01*
X004945Y010942D01*
X004953Y010961D01*
X004957Y010982D01*
X004957Y011002D01*
X004953Y011023D01*
X004945Y011042D01*
X004934Y011060D01*
X004920Y011075D01*
X004904Y011088D01*
X004885Y011097D01*
X004865Y011103D01*
X004844Y011105D01*
X004844Y011104D01*
X004865Y011102D01*
X004885Y011096D01*
X004903Y011087D01*
X004920Y011075D01*
X004934Y011059D01*
X004944Y011042D01*
X004952Y011023D01*
X004956Y011002D01*
X004956Y010982D01*
X004952Y010961D01*
X004944Y010942D01*
X004934Y010925D01*
X004920Y010909D01*
X004903Y010897D01*
X004885Y010888D01*
X004865Y010882D01*
X004844Y010880D01*
X004844Y010881D01*
X004865Y010883D01*
X004884Y010889D01*
X004903Y010898D01*
X004919Y010910D01*
X004933Y010925D01*
X004943Y010943D01*
X004951Y010962D01*
X004955Y010982D01*
X004955Y011002D01*
X004951Y011022D01*
X004943Y011041D01*
X004933Y011059D01*
X004919Y011074D01*
X004903Y011086D01*
X004884Y011095D01*
X004865Y011101D01*
X004844Y011103D01*
X004844Y011102D01*
X004865Y011100D01*
X004884Y011094D01*
X004902Y011085D01*
X004918Y011073D01*
X004932Y011058D01*
X004943Y011041D01*
X004950Y011022D01*
X004954Y011002D01*
X004954Y010982D01*
X004950Y010962D01*
X004943Y010943D01*
X004932Y010926D01*
X004918Y010911D01*
X004902Y010899D01*
X004884Y010890D01*
X004865Y010884D01*
X004844Y010882D01*
X004844Y010883D01*
X004866Y010885D01*
X004886Y010891D01*
X004905Y010902D01*
X004921Y010915D01*
X004935Y010932D01*
X004945Y010950D01*
X004951Y010971D01*
X004953Y010992D01*
X004951Y011013D01*
X004945Y011034D01*
X004935Y011052D01*
X004921Y011069D01*
X004905Y011082D01*
X004886Y011093D01*
X004866Y011099D01*
X004844Y011101D01*
X004844Y011100D01*
X004865Y011098D01*
X004886Y011092D01*
X004904Y011082D01*
X004921Y011068D01*
X004934Y011052D01*
X004944Y011033D01*
X004950Y011013D01*
X004952Y010992D01*
X004950Y010971D01*
X004944Y010951D01*
X004934Y010932D01*
X004921Y010916D01*
X004904Y010902D01*
X004886Y010892D01*
X004865Y010886D01*
X004844Y010884D01*
X004844Y010885D01*
X004865Y010887D01*
X004885Y010893D01*
X004904Y010903D01*
X004920Y010917D01*
X004933Y010933D01*
X004943Y010951D01*
X004949Y010971D01*
X004951Y010992D01*
X004949Y011013D01*
X004943Y011033D01*
X004933Y011051D01*
X004920Y011067D01*
X004904Y011081D01*
X004885Y011091D01*
X004865Y011097D01*
X004844Y011099D01*
X004844Y011098D01*
X004865Y011096D01*
X004885Y011090D01*
X004903Y011080D01*
X004919Y011067D01*
X004932Y011051D01*
X004942Y011032D01*
X004948Y011013D01*
X004950Y010992D01*
X004948Y010971D01*
X004942Y010952D01*
X004932Y010933D01*
X004919Y010917D01*
X004903Y010904D01*
X004885Y010894D01*
X004865Y010888D01*
X004844Y010886D01*
X004844Y010887D01*
X004865Y010889D01*
X004885Y010895D01*
X004903Y010905D01*
X004918Y010918D01*
X004931Y010934D01*
X004941Y010952D01*
X004947Y010972D01*
X004949Y010992D01*
X004947Y011012D01*
X004941Y011032D01*
X004931Y011050D01*
X004918Y011066D01*
X004903Y011079D01*
X004885Y011089D01*
X004865Y011095D01*
X004844Y011097D01*
X004844Y011096D01*
X004865Y011094D01*
X004884Y011088D01*
X004902Y011078D01*
X004918Y011065D01*
X004931Y011050D01*
X004940Y011032D01*
X004946Y011012D01*
X004948Y010992D01*
X004946Y010972D01*
X004940Y010952D01*
X004931Y010934D01*
X004918Y010919D01*
X004902Y010906D01*
X004884Y010896D01*
X004865Y010890D01*
X004844Y010888D01*
X004844Y010889D01*
X004865Y010891D01*
X004884Y010897D01*
X004901Y010907D01*
X004917Y010919D01*
X004930Y010935D01*
X004939Y010953D01*
X004945Y010972D01*
X004947Y010992D01*
X004945Y011012D01*
X004939Y011031D01*
X004930Y011049D01*
X004917Y011065D01*
X004901Y011077D01*
X004884Y011087D01*
X004865Y011093D01*
X004844Y011095D01*
X004844Y011094D01*
X004864Y011092D01*
X004883Y011086D01*
X004901Y011077D01*
X004916Y011064D01*
X004929Y011049D01*
X004938Y011031D01*
X004944Y011012D01*
X004946Y010992D01*
X004944Y010972D01*
X004938Y010953D01*
X004929Y010935D01*
X004916Y010920D01*
X004901Y010907D01*
X004883Y010898D01*
X004864Y010892D01*
X004844Y010890D01*
X004844Y010891D01*
X004864Y010893D01*
X004883Y010899D01*
X004900Y010908D01*
X004916Y010921D01*
X004928Y010936D01*
X004937Y010953D01*
X004943Y010972D01*
X004945Y010992D01*
X004943Y011012D01*
X004937Y011031D01*
X004928Y011048D01*
X004916Y011063D01*
X004900Y011076D01*
X004883Y011085D01*
X004864Y011091D01*
X004844Y011093D01*
X004844Y011092D01*
X004864Y011090D01*
X004883Y011084D01*
X004900Y011075D01*
X004915Y011063D01*
X004927Y011047D01*
X004936Y011030D01*
X004942Y011011D01*
X004944Y010992D01*
X004942Y010973D01*
X004936Y010954D01*
X004927Y010937D01*
X004915Y010921D01*
X004900Y010909D01*
X004883Y010900D01*
X004864Y010894D01*
X004844Y010892D01*
X005494Y011109D02*
X005494Y011090D01*
X005494Y011091D02*
X005474Y011089D01*
X005456Y011083D01*
X005439Y011074D01*
X005424Y011062D01*
X005412Y011047D01*
X005402Y011030D01*
X005397Y011011D01*
X005395Y010992D01*
X005397Y010973D01*
X005402Y010954D01*
X005412Y010937D01*
X005424Y010922D01*
X005439Y010910D01*
X005456Y010901D01*
X005474Y010895D01*
X005494Y010893D01*
X005494Y010875D01*
X005494Y010874D01*
X005472Y010876D01*
X005451Y010882D01*
X005432Y010892D01*
X005414Y010905D01*
X005400Y010921D01*
X005388Y010940D01*
X005380Y010960D01*
X005377Y010981D01*
X005377Y011003D01*
X005380Y011024D01*
X005388Y011044D01*
X005400Y011063D01*
X005414Y011079D01*
X005432Y011092D01*
X005451Y011102D01*
X005472Y011108D01*
X005494Y011110D01*
X005494Y011109D01*
X005472Y011107D01*
X005451Y011101D01*
X005432Y011091D01*
X005415Y011078D01*
X005401Y011062D01*
X005389Y011044D01*
X005381Y011024D01*
X005377Y011003D01*
X005377Y010981D01*
X005381Y010960D01*
X005389Y010940D01*
X005401Y010922D01*
X005415Y010906D01*
X005432Y010893D01*
X005451Y010883D01*
X005472Y010877D01*
X005494Y010875D01*
X005494Y010876D01*
X005472Y010878D01*
X005452Y010884D01*
X005433Y010894D01*
X005416Y010906D01*
X005401Y010922D01*
X005390Y010940D01*
X005382Y010960D01*
X005378Y010981D01*
X005378Y011003D01*
X005382Y011024D01*
X005390Y011044D01*
X005401Y011062D01*
X005416Y011078D01*
X005433Y011090D01*
X005452Y011100D01*
X005472Y011106D01*
X005494Y011108D01*
X005494Y011107D01*
X005472Y011105D01*
X005452Y011099D01*
X005433Y011090D01*
X005416Y011077D01*
X005402Y011061D01*
X005391Y011043D01*
X005383Y011023D01*
X005379Y011003D01*
X005379Y010981D01*
X005383Y010961D01*
X005391Y010941D01*
X005402Y010923D01*
X005416Y010907D01*
X005433Y010894D01*
X005452Y010885D01*
X005472Y010879D01*
X005494Y010877D01*
X005494Y010878D01*
X005473Y010880D01*
X005452Y010886D01*
X005434Y010895D01*
X005417Y010908D01*
X005403Y010923D01*
X005392Y010941D01*
X005384Y010961D01*
X005380Y010982D01*
X005380Y011002D01*
X005384Y011023D01*
X005392Y011043D01*
X005403Y011061D01*
X005417Y011076D01*
X005434Y011089D01*
X005452Y011098D01*
X005473Y011104D01*
X005494Y011106D01*
X005494Y011105D01*
X005473Y011103D01*
X005453Y011097D01*
X005434Y011088D01*
X005418Y011075D01*
X005404Y011060D01*
X005393Y011042D01*
X005385Y011023D01*
X005381Y011002D01*
X005381Y010982D01*
X005385Y010961D01*
X005393Y010942D01*
X005404Y010924D01*
X005418Y010909D01*
X005434Y010896D01*
X005453Y010887D01*
X005473Y010881D01*
X005494Y010879D01*
X005494Y010880D01*
X005473Y010882D01*
X005453Y010888D01*
X005435Y010897D01*
X005418Y010909D01*
X005404Y010925D01*
X005394Y010942D01*
X005386Y010961D01*
X005382Y010982D01*
X005382Y011002D01*
X005386Y011023D01*
X005394Y011042D01*
X005404Y011059D01*
X005418Y011075D01*
X005435Y011087D01*
X005453Y011096D01*
X005473Y011102D01*
X005494Y011104D01*
X005494Y011103D01*
X005473Y011101D01*
X005454Y011095D01*
X005435Y011086D01*
X005419Y011074D01*
X005405Y011059D01*
X005395Y011041D01*
X005387Y011022D01*
X005383Y011002D01*
X005383Y010982D01*
X005387Y010962D01*
X005395Y010943D01*
X005405Y010925D01*
X005419Y010910D01*
X005435Y010898D01*
X005454Y010889D01*
X005473Y010883D01*
X005494Y010881D01*
X005494Y010882D01*
X005473Y010884D01*
X005454Y010890D01*
X005436Y010899D01*
X005420Y010911D01*
X005406Y010926D01*
X005395Y010943D01*
X005388Y010962D01*
X005384Y010982D01*
X005384Y011002D01*
X005388Y011022D01*
X005395Y011041D01*
X005406Y011058D01*
X005420Y011073D01*
X005436Y011085D01*
X005454Y011094D01*
X005473Y011100D01*
X005494Y011102D01*
X005494Y011101D01*
X005472Y011099D01*
X005452Y011093D01*
X005433Y011082D01*
X005417Y011069D01*
X005403Y011052D01*
X005393Y011034D01*
X005387Y011013D01*
X005385Y010992D01*
X005387Y010971D01*
X005393Y010950D01*
X005403Y010932D01*
X005417Y010915D01*
X005433Y010902D01*
X005452Y010891D01*
X005472Y010885D01*
X005494Y010883D01*
X005494Y010884D01*
X005473Y010886D01*
X005452Y010892D01*
X005434Y010902D01*
X005417Y010916D01*
X005404Y010932D01*
X005394Y010951D01*
X005388Y010971D01*
X005386Y010992D01*
X005388Y011013D01*
X005394Y011033D01*
X005404Y011052D01*
X005417Y011068D01*
X005434Y011082D01*
X005452Y011092D01*
X005473Y011098D01*
X005494Y011100D01*
X005494Y011099D01*
X005473Y011097D01*
X005453Y011091D01*
X005434Y011081D01*
X005418Y011067D01*
X005405Y011051D01*
X005395Y011033D01*
X005389Y011013D01*
X005387Y010992D01*
X005389Y010971D01*
X005395Y010951D01*
X005405Y010933D01*
X005418Y010917D01*
X005434Y010903D01*
X005453Y010893D01*
X005473Y010887D01*
X005494Y010885D01*
X005494Y010886D01*
X005473Y010888D01*
X005453Y010894D01*
X005435Y010904D01*
X005419Y010917D01*
X005406Y010933D01*
X005396Y010952D01*
X005390Y010971D01*
X005388Y010992D01*
X005390Y011013D01*
X005396Y011032D01*
X005406Y011051D01*
X005419Y011067D01*
X005435Y011080D01*
X005453Y011090D01*
X005473Y011096D01*
X005494Y011098D01*
X005494Y011097D01*
X005473Y011095D01*
X005453Y011089D01*
X005435Y011079D01*
X005420Y011066D01*
X005407Y011050D01*
X005397Y011032D01*
X005391Y011012D01*
X005389Y010992D01*
X005391Y010972D01*
X005397Y010952D01*
X005407Y010934D01*
X005420Y010918D01*
X005435Y010905D01*
X005453Y010895D01*
X005473Y010889D01*
X005494Y010887D01*
X005494Y010888D01*
X005473Y010890D01*
X005454Y010896D01*
X005436Y010906D01*
X005420Y010919D01*
X005407Y010934D01*
X005398Y010952D01*
X005392Y010972D01*
X005390Y010992D01*
X005392Y011012D01*
X005398Y011032D01*
X005407Y011050D01*
X005420Y011065D01*
X005436Y011078D01*
X005454Y011088D01*
X005473Y011094D01*
X005494Y011096D01*
X005494Y011095D01*
X005473Y011093D01*
X005454Y011087D01*
X005437Y011077D01*
X005421Y011065D01*
X005408Y011049D01*
X005399Y011031D01*
X005393Y011012D01*
X005391Y010992D01*
X005393Y010972D01*
X005399Y010953D01*
X005408Y010935D01*
X005421Y010919D01*
X005437Y010907D01*
X005454Y010897D01*
X005473Y010891D01*
X005494Y010889D01*
X005494Y010890D01*
X005474Y010892D01*
X005455Y010898D01*
X005437Y010907D01*
X005422Y010920D01*
X005409Y010935D01*
X005400Y010953D01*
X005394Y010972D01*
X005392Y010992D01*
X005394Y011012D01*
X005400Y011031D01*
X005409Y011049D01*
X005422Y011064D01*
X005437Y011077D01*
X005455Y011086D01*
X005474Y011092D01*
X005494Y011094D01*
X005494Y011093D01*
X005474Y011091D01*
X005455Y011085D01*
X005438Y011076D01*
X005422Y011063D01*
X005410Y011048D01*
X005401Y011031D01*
X005395Y011012D01*
X005393Y010992D01*
X005395Y010972D01*
X005401Y010953D01*
X005410Y010936D01*
X005422Y010921D01*
X005438Y010908D01*
X005455Y010899D01*
X005474Y010893D01*
X005494Y010891D01*
X005494Y010892D01*
X005474Y010894D01*
X005455Y010900D01*
X005438Y010909D01*
X005423Y010921D01*
X005411Y010937D01*
X005402Y010954D01*
X005396Y010973D01*
X005394Y010992D01*
X005396Y011011D01*
X005402Y011030D01*
X005411Y011047D01*
X005423Y011063D01*
X005438Y011075D01*
X005455Y011084D01*
X005474Y011090D01*
X005494Y011092D01*
D29*
X004864Y010854D03*
X004864Y010104D03*
D30*
X004943Y010143D03*
X004943Y010893D03*
D31*
X004958Y010824D03*
X004958Y010074D03*
D32*
X004894Y010379D03*
X004894Y011129D03*
D33*
X004987Y010992D03*
X004987Y010242D03*
D34*
X005405Y010379D03*
X005405Y010104D03*
X005405Y010854D03*
X005405Y011129D03*
D35*
X005351Y010992D03*
X005351Y010242D03*
D36*
X005405Y010330D03*
X005405Y010153D03*
X005405Y010903D03*
X005405Y011080D03*
D37*
X005120Y010992D03*
X005120Y010242D03*
D38*
X003169Y002667D03*
X003169Y002667D03*
D39*
X003169Y004817D03*
X003169Y004817D03*
X002259Y004817D03*
X002259Y004817D03*
X004079Y004817D03*
X004079Y004817D03*
D40*
X005814Y012022D03*
X005024Y012392D03*
X005814Y012762D03*
X006374Y013472D03*
X007164Y013842D03*
X006374Y014212D03*
D41*
X003169Y014242D03*
X003169Y013242D03*
X003169Y012242D03*
X003169Y010992D03*
X003169Y009992D03*
X003169Y008992D03*
X003169Y007992D03*
X003169Y006992D03*
X003169Y005992D03*
D42*
X008919Y002692D03*
X008919Y002292D03*
X009919Y002292D03*
X009919Y002692D03*
X010919Y002692D03*
X010919Y002292D03*
X011919Y002292D03*
X011919Y002692D03*
X012919Y002692D03*
X012919Y002292D03*
X013919Y002292D03*
X013919Y002692D03*
X014919Y002692D03*
X014919Y002292D03*
X015919Y002292D03*
X015919Y002692D03*
X016919Y002692D03*
X016919Y002292D03*
X017919Y002292D03*
X017919Y002692D03*
X017669Y014042D03*
X016669Y014042D03*
X016669Y014442D03*
X017669Y014442D03*
X015669Y014442D03*
X014669Y014442D03*
X013669Y014442D03*
X012669Y014442D03*
X011669Y014442D03*
X010669Y014442D03*
X009669Y014442D03*
X008669Y014442D03*
X008669Y014042D03*
X009669Y014042D03*
X010669Y014042D03*
X011669Y014042D03*
X012669Y014042D03*
X013669Y014042D03*
X014669Y014042D03*
X015669Y014042D03*
D43*
X006669Y010992D03*
X006169Y010992D03*
X006169Y010242D03*
X006669Y010242D03*
X010283Y004097D03*
X010783Y004097D03*
D44*
X001919Y008842D03*
X001919Y010141D03*
D45*
X001919Y008990D03*
D46*
X002534Y008942D02*
X002719Y008757D01*
X002719Y009004D01*
X002842Y009125D02*
X002904Y009125D01*
X002842Y009125D02*
X002596Y009372D01*
X002534Y009372D01*
X002534Y009125D01*
X002534Y008942D02*
X002904Y008942D01*
X002842Y009493D02*
X002904Y009555D01*
X002904Y009740D01*
X002657Y009740D01*
X002719Y009862D02*
X002719Y009985D01*
X002904Y009862D02*
X002534Y009862D01*
X002534Y010108D01*
X002657Y009493D02*
X002842Y009493D01*
X001654Y008560D02*
X001592Y008622D01*
X001346Y008622D01*
X001284Y008560D01*
X001284Y008437D01*
X001346Y008375D01*
X001407Y008375D01*
X001469Y008437D01*
X001469Y008622D01*
X001654Y008560D02*
X001654Y008437D01*
X001592Y008375D01*
X001592Y008254D02*
X001654Y008192D01*
X001654Y008068D01*
X001592Y008007D01*
X001346Y008007D01*
X001284Y008068D01*
X001284Y008192D01*
X001346Y008254D01*
X016079Y010668D02*
X016141Y010607D01*
X016264Y010607D01*
X016326Y010668D01*
X016448Y010607D02*
X016694Y010607D01*
X016571Y010607D02*
X016571Y010977D01*
X016448Y010854D01*
X016326Y010915D02*
X016264Y010977D01*
X016141Y010977D01*
X016079Y010915D01*
X016079Y010668D01*
X016816Y010668D02*
X016878Y010607D01*
X017001Y010607D01*
X017063Y010668D01*
X017063Y010730D01*
X017001Y010792D01*
X016816Y010792D01*
X016816Y010668D01*
X016816Y010792D02*
X016939Y010915D01*
X017063Y010977D01*
X016816Y012357D02*
X016816Y012727D01*
X017063Y012727D01*
X016939Y012542D02*
X016816Y012542D01*
X016694Y012604D02*
X016694Y012357D01*
X016509Y012357D01*
X016448Y012418D01*
X016448Y012604D01*
X016326Y012665D02*
X016079Y012418D01*
X016079Y012357D01*
X015896Y012357D02*
X015896Y012727D01*
X015711Y012542D01*
X015958Y012542D01*
X016079Y012727D02*
X016326Y012727D01*
X016326Y012665D01*
D47*
X007670Y003024D03*
X007670Y002454D03*
X006420Y002454D03*
X006420Y003024D03*
D48*
X010235Y004987D03*
X010805Y004987D03*
X011752Y004997D03*
X012321Y004997D03*
X019381Y004991D03*
X019951Y004991D03*
X019957Y005992D03*
X019387Y005992D03*
X019381Y006991D03*
X019951Y006991D03*
X019887Y008492D03*
X020457Y008492D03*
X020457Y009492D03*
X019887Y009492D03*
X018951Y011241D03*
X018381Y011241D03*
X018387Y012242D03*
X018957Y012242D03*
X010911Y012456D03*
X010341Y012456D03*
X019381Y003991D03*
X019951Y003991D03*
D49*
X017069Y011742D03*
X015770Y011742D03*
D50*
X016921Y011742D03*
D51*
X009416Y013016D03*
X008836Y013016D03*
X007961Y012241D03*
X007381Y012241D03*
X005261Y014241D03*
X004681Y014241D03*
X005131Y009491D03*
X005711Y009491D03*
D52*
X004419Y008530D03*
X004419Y007950D03*
M02*
