G75*
G70*
%OFA0B0*%
%FSLAX24Y24*%
%IPPOS*%
%LPD*%
%AMOC8*
5,1,8,0,0,1.08239X$1,22.5*
%
%ADD10O,0.1280X0.0680*%
%ADD11R,0.0474X0.0552*%
%ADD12O,0.0614X0.1149*%
%ADD13R,0.0671X0.0592*%
%ADD14R,0.0552X0.0474*%
%ADD15C,0.0580*%
%ADD16R,0.0592X0.0710*%
%ADD17OC8,0.0496*%
%ADD18C,0.0496*%
%ADD19C,0.0437*%
%ADD20C,0.0476*%
%ADD21C,0.1080*%
D10*
X003169Y005992D03*
X003169Y006992D03*
X003169Y007992D03*
X003169Y008992D03*
X003169Y009992D03*
X003169Y010992D03*
X003169Y012242D03*
X003169Y013242D03*
X003169Y014242D03*
D11*
X009919Y008425D03*
X009919Y007559D03*
D12*
X008919Y002492D03*
X009919Y002492D03*
X010919Y002492D03*
X011919Y002492D03*
X012919Y002492D03*
X013919Y002492D03*
X014919Y002492D03*
X015919Y002492D03*
X016919Y002492D03*
X017919Y002492D03*
X017669Y014242D03*
X016669Y014242D03*
X015669Y014242D03*
X014669Y014242D03*
X013669Y014242D03*
X012669Y014242D03*
X011669Y014242D03*
X010669Y014242D03*
X009669Y014242D03*
X008669Y014242D03*
D13*
X001919Y012076D03*
X001919Y011407D03*
X001919Y007076D03*
X001919Y006407D03*
X005669Y006326D03*
X005669Y005657D03*
X005669Y004826D03*
X005669Y004157D03*
X015669Y005407D03*
X015669Y006076D03*
D14*
X015736Y006992D03*
X016602Y006992D03*
D15*
X020419Y007742D03*
X020419Y010242D03*
D16*
X007063Y009742D03*
X006275Y009742D03*
D17*
X006969Y007392D03*
D18*
X006469Y007392D03*
X006469Y006892D03*
X006969Y006892D03*
X006969Y006392D03*
X006469Y006392D03*
X006469Y005892D03*
X006969Y005892D03*
D19*
X009169Y007742D03*
X010669Y007742D03*
X010669Y008242D03*
X009169Y008492D03*
X011669Y009242D03*
X010161Y009474D03*
X009669Y009742D03*
X009169Y009992D03*
X010310Y010318D03*
X011169Y009992D03*
X008919Y010492D03*
X006169Y008992D03*
X013419Y010992D03*
X014169Y010492D03*
X014176Y009621D03*
X014669Y009242D03*
X016169Y009992D03*
X016669Y010242D03*
X018419Y010492D03*
X019205Y010529D03*
X019669Y011742D03*
X014419Y011742D03*
X013919Y012242D03*
X016419Y007992D03*
X017830Y007174D03*
X019419Y007742D03*
X015169Y006992D03*
X019784Y003418D03*
X004919Y003492D03*
X001550Y003541D03*
D20*
X005419Y007492D03*
D21*
X019919Y002492D03*
X019919Y014492D03*
M02*
